<svg id="Component_63_1" data-name="Component 63 – 1" xmlns="http://www.w3.org/2000/svg" xmlns:xlink="http://www.w3.org/1999/xlink" width="918.5" height="428.561" viewBox="0 0 918.5 428.561">
  <defs>
    <linearGradient id="linear-gradient" x1="-5.516" y1="1.01" x2="-3.332" y2="1.154" gradientUnits="objectBoundingBox">
      <stop offset="0" stop-color="#14120c"/>
      <stop offset="0.5" stop-color="#99711f"/>
      <stop offset="1" stop-color="#14120c"/>
    </linearGradient>
    <linearGradient id="linear-gradient-2" x1="-5.759" y1="0.298" x2="-5.759" y2="1.042" gradientUnits="objectBoundingBox">
      <stop offset="0" stop-color="#cfcfcf"/>
      <stop offset="0.85"/>
    </linearGradient>
    <linearGradient id="linear-gradient-3" x1="-5.125" y1="1.461" x2="-5.125" y2="0.449" xlink:href="#linear-gradient"/>
    <linearGradient id="linear-gradient-4" x1="-9.457" y1="1.089" x2="-9.457" y2="2.069" gradientUnits="objectBoundingBox">
      <stop offset="0" stop-color="#81774d"/>
      <stop offset="0.5" stop-color="#fff390"/>
      <stop offset="1" stop-color="#81774d"/>
    </linearGradient>
    <linearGradient id="linear-gradient-5" x1="-9.908" y1="0.104" x2="-9.908" y2="2.463" xlink:href="#linear-gradient-2"/>
    <linearGradient id="linear-gradient-6" x1="-11.154" y1="1.042" x2="-11.154" y2="3.662" gradientUnits="objectBoundingBox">
      <stop offset="0" stop-color="#fff"/>
      <stop offset="0.106" stop-color="#d6d6d6"/>
      <stop offset="0.292" stop-color="#969696"/>
      <stop offset="0.471" stop-color="#606060"/>
      <stop offset="0.635" stop-color="#363636"/>
      <stop offset="0.783" stop-color="#181818"/>
      <stop offset="0.91" stop-color="#060606"/>
      <stop offset="1"/>
    </linearGradient>
    <linearGradient id="linear-gradient-7" x1="-4.479" y1="0.968" x2="-4.479" y2="1.821" xlink:href="#linear-gradient"/>
    <linearGradient id="linear-gradient-8" x1="-4.781" y1="0.385" x2="-4.781" y2="2.023" xlink:href="#linear-gradient-2"/>
    <linearGradient id="linear-gradient-9" x1="-5.31" y1="1.04" x2="-5.31" y2="2.876" xlink:href="#linear-gradient-6"/>
    <linearGradient id="linear-gradient-10" x1="-1.324" y1="0.598" x2="-1.324" y2="1.618" xlink:href="#linear-gradient-4"/>
    <linearGradient id="linear-gradient-11" x1="-1.829" y1="0.773" x2="-1.829" y2="1.697" xlink:href="#linear-gradient-2"/>
    <linearGradient id="linear-gradient-12" x1="-1.97" y1="1.226" x2="-1.97" y2="2.369" xlink:href="#linear-gradient-6"/>
    <linearGradient id="linear-gradient-13" x1="-3.972" y1="1.142" x2="-1.307" y2="1.142" xlink:href="#linear-gradient"/>
    <linearGradient id="linear-gradient-14" x1="-3.478" y1="0.953" x2="-3.478" y2="1.752" gradientUnits="objectBoundingBox">
      <stop offset="0.005" stop-color="#fff"/>
      <stop offset="1" stop-color="#757575"/>
    </linearGradient>
    <linearGradient id="linear-gradient-15" x1="-6.493" y1="1.744" x2="-6.493" y2="3.29" xlink:href="#linear-gradient-4"/>
    <linearGradient id="linear-gradient-16" x1="-9.761" y1="3.432" x2="-9.761" y2="4.195" xlink:href="#linear-gradient-6"/>
    <linearGradient id="linear-gradient-17" x1="-11.325" y1="1.9" x2="-11.325" y2="3.138" xlink:href="#linear-gradient"/>
    <linearGradient id="linear-gradient-18" x1="-14.258" y1="2.175" x2="-14.258" y2="3.103" gradientUnits="objectBoundingBox">
      <stop offset="0" stop-color="#fff"/>
      <stop offset="1"/>
    </linearGradient>
  </defs>
  <path id="Path_3628" data-name="Path 3628" d="M219.513,155.265a77.792,77.792,0,0,0-35.573-66.006l-.015-.01A98.274,98.274,0,0,0,148.77,75.1V40.091a52.6,52.6,0,0,0-52.6-52.6H69.991a52.938,52.938,0,0,0-8.57.7,52.947,52.947,0,0,0-8.572-.7H26.672A52.441,52.441,0,0,0,9.8-9.7,95.27,95.27,0,0,0-8.627-13.2a52.583,52.583,0,0,0-38.715-17.03H-73.751a52.512,52.512,0,0,0-16.621,2.695,52.535,52.535,0,0,0-16.623-2.695h-28.84a52.54,52.54,0,0,0-12.325,1.492A52.365,52.365,0,0,0-173.245-35.1h-26.177a52.353,52.353,0,0,0-24.316,5.96c-12.238-9.866-27.494-15.11-44.253-15.11-17.225,0-32.879,5.616-45.354,16.216a115.888,115.888,0,0,0-22.636-2.2h-39.962a52.6,52.6,0,0,0-52.6,52.6V30.6A172.356,172.356,0,0,0-453.391,2.739c-36.922-32.373-68.858-17.256-77.771-11.855A52.681,52.681,0,0,0-541.42-.989c-17.224,17.546-33.176,38.927-48.6,59.6-10.875,14.577-21.145,28.343-30.08,38.3q-.265.292-.524.591a39.071,39.071,0,0,1-6.531,5.942,52.721,52.721,0,0,0-4.31,3.487l-23.472,10.6a55.3,55.3,0,0,0-19.821,15.517c-14.83,10.281-23.705,27.246-24.21,47.194-.263,12.087,2.562,25.951,8.447,41.338,5.755,14.924,12.8,26.949,20.924,35.734a60.876,60.876,0,0,0,30.419,18.162c8.936,24.215,18.226,50.408,21.561,61.43,7.3,28.323,31.129,47.408,57.7,47.408a56.258,56.258,0,0,0,10.928-1.079l8.439-1.7a68.207,68.207,0,0,0,18.178-5.293c29.042-13.47,36.944-45.951,32.145-71.3-1.178-7.212-3.383-16.589-6.421-27.951,22.515,4.3,45.384,8.4,65.992,9.584a52.51,52.51,0,0,0,5.609,0,52.37,52.37,0,0,0,18.631,3.459h36.314a52.5,52.5,0,0,0,17.864-3.111,52.566,52.566,0,0,0,17.821,3.111h42.73c.464,0,.922-.036,1.384-.049.325.006.639.049.965.049h35.372a52.783,52.783,0,0,0,11.9-1.351,52.807,52.807,0,0,0,11.9,1.351H-194.8a52.3,52.3,0,0,0,23.024-5.361,110.5,110.5,0,0,0,39.113,6.927,108.811,108.811,0,0,0,49.155-11.216,52.526,52.526,0,0,0,30.357,9.651h34.436a52.567,52.567,0,0,0,13.226-1.686,52.555,52.555,0,0,0,13.226,1.686H42.166a52.577,52.577,0,0,0,36.6-14.825c13.089,10.708,29.2,16.39,46.977,16.39,19.643,0,37.286-6.871,51.025-19.873a70.292,70.292,0,0,0,22.237-51.511,72.5,72.5,0,0,0-.757-9.908,84.074,84.074,0,0,0,14.187-21.578A79.523,79.523,0,0,0,219.513,155.265Z" transform="translate(698.987 44.248)" fill="#fe0"/>
  <g id="Group_2179" data-name="Group 2179" transform="translate(52.603 79.419)">
    <g id="Group_2178" data-name="Group 2178" transform="translate(38.474 155.239)">
      <path id="Path_3629" data-name="Path 3629" d="M-439.65,598.744c1.209,5.512-.336,10.485-3.341,11.079l-9.69,1.947c-3.007.6-6.3-3.237-7.46-8.531-6.042-20.591-32.151-91.674-40.42-111.237-1.737-5.073.1-10.374,4.2-11.874q6.627-2.395,13.25-4.794c4.1-1.5,9,1.607,10.844,6.979C-466.442,503.915-442.953,576.733-439.65,598.744Z" transform="translate(501.215 -470.514)" fill="url(#linear-gradient)"/>
      <path id="Path_3630" data-name="Path 3630" d="M-449.58,612.377c-.449.089-2.766-1.653-3.742-6.1l-.054-.214C-459.26,586-485.26,515-493.872,494.591c-1.1-3.346-.056-6.887,2.313-7.767l13.256-4.8a3.7,3.7,0,0,1,2.859.252,8.188,8.188,0,0,1,3.907,4.772c1.775,6.618,5.348,18.461,9.484,32.174,8.76,29.043,20.759,68.82,22.994,83.7,1,4.591-.286,7.243-.832,7.5Z" transform="translate(497.49 -474.228)" opacity="0.3" fill="url(#linear-gradient-2)" style="mix-blend-mode: screen;isolation: isolate"/>
      <path id="Path_3631" data-name="Path 3631" d="M-472.955,465.686q-6.624,2.4-13.25,4.794a7.238,7.238,0,0,0-4.2,4.4q6.567-2.373,13.131-4.75c4.1-1.5,9,1.607,10.844,6.979,18.376,72.614,41.17,125.095,29.272,127.51l-.2.04a31.061,31.061,0,0,0,5.375-1.232c2.629-1.219,3.7-8.817,2.488-14.329-3.3-22.01-26.793-94.828-32.613-116.431C-463.95,467.292-468.852,464.187-472.955,465.686Z" transform="translate(495.384 -465.309)" fill="url(#linear-gradient-3)"/>
    </g>
    <path id="Path_3632" data-name="Path 3632" d="M-553.3,467.8c.523,1.472,1.018,2.933,1.5,4.42-4.056,1.343-8.134,2.692-12.2,4.013-1.488.482-3.355-.563-5.357-2.729-3.412-3.688-7.269-10.66-10.459-18.938-3.216-8.408-5.048-16.25-4.938-21.268.07-2.844.757-4.788,2.142-5.42,3.932-1.742,7.843-3.476,11.762-5.188.634,1.454,1.26,2.889,1.874,4.35Q-560.3,447.094-553.3,467.8Z" transform="translate(584.76 -287.076)" fill="url(#linear-gradient-4)"/>
    <path id="Path_3633" data-name="Path 3633" d="M-553.3,472.894c-5.263,1.885-10.535,3.749-15.8,5.632a1.09,1.09,0,0,1-.256.072c-3.412-3.688-7.269-10.66-10.459-18.938-3.216-8.408-5.048-16.25-4.938-21.268q7.9-3.107,15.778-6.257Q-560.3,452.191-553.3,472.894Z" transform="translate(584.76 -292.172)" opacity="0.3" fill="url(#linear-gradient-5)" style="mix-blend-mode: screen;isolation: isolate"/>
    <path id="Path_3634" data-name="Path 3634" d="M-577.743,473.047c.523,1.6,1.085,3.219,1.719,4.878,3.19,8.278,7.048,15.251,10.46,18.939a1.123,1.123,0,0,0,.256-.072c5.264-1.884,10.536-3.747,15.8-5.633Q-553.8,478.442-558.756,466Z" transform="translate(580.974 -310.441)" opacity="0.3" fill="url(#linear-gradient-6)" style="mix-blend-mode: multiply;isolation: isolate"/>
    <path id="Path_3635" data-name="Path 3635" d="M-493.872,436.776c-2.279.376-4.546.844-6.814,1.379-2.438.578-4.867,1.246-7.257,2.014q-13.507,4.314-27.048,8.659c-1.446.468-3.367-.91-5.511-3.587-.029-.015-.029-.015-.036-.035-3.717-4.7-8.148-13.409-12.1-23.659s-6.479-19.662-6.876-25.666a2.347,2.347,0,0,1,0-.376c-.163-3.224.361-5.416,1.7-6.032q13.335-6.007,26.683-12.044a97,97,0,0,0,11.579-6.248c.326,2.392.72,4.782,1.175,7.148a150.661,150.661,0,0,0,20.531,52.384C-496.585,432.759-495.249,434.776-493.872,436.776Z" transform="translate(571.154 -259.288)" fill="url(#linear-gradient-7)"/>
    <path id="Path_3636" data-name="Path 3636" d="M-497.815,439.085c-2.336.728-4.658,1.5-6.971,2.284q-17.833,6.129-35.695,12.245c-.029-.015-.029-.015-.036-.035-3.717-4.7-8.148-13.409-12.1-23.659s-6.479-19.662-6.876-25.666a2.333,2.333,0,0,1,0-.376q17.718-7.386,35.45-14.736c1.916-.783,3.818-1.605,5.691-2.441A150.661,150.661,0,0,0-497.815,439.085Z" transform="translate(571.131 -267.662)" opacity="0.3" fill="url(#linear-gradient-8)" style="mix-blend-mode: screen;isolation: isolate"/>
    <path id="Path_3637" data-name="Path 3637" d="M-506.065,436.33-548.278,452c.542,1.541,1.107,3.1,1.719,4.69,3.947,10.25,8.379,18.959,12.1,23.659.007.02.007.02.036.035q17.845-6.1,35.695-12.245c2.313-.788,4.635-1.556,6.971-2.284A150.44,150.44,0,0,1-506.065,436.33Z" transform="translate(565.079 -294.436)" opacity="0.3" fill="url(#linear-gradient-9)" style="mix-blend-mode: multiply;isolation: isolate"/>
    <path id="Path_3638" data-name="Path 3638" d="M-209.678,226.165c21.545,56.321,19.727,99.854,13.367,101.06-5.659,1.271-17.514-25.343-33.159-65.487q-4.495-11.476-9.432-24.332c-3.294-8.565-6.415-16.724-9.315-24.4-15.279-40.3-24.345-68.011-19.294-70.86C-261.98,138.773-231.426,169.927-209.678,226.165Z" transform="translate(414.366 -135.592)" fill="#fff"/>
    <path id="Path_3639" data-name="Path 3639" d="M-301.519,275.513c4.531,29.4,1.777,50.123-5.778,51.589-36.012-2.077-86.779-15.885-122.835-19.47a91.272,91.272,0,0,0-19.006-.222c-1.725-2.435-3.355-4.929-4.932-7.466a154.244,154.244,0,0,1-20.778-54.125c-.409-2.242-.778-4.5-1.077-6.761a91.482,91.482,0,0,0,15.308-13.972c23.765-26.478,50.635-69.255,77.073-96.186,6.592-4,22.589,9.621,38.969,34.576A284.767,284.767,0,0,1-317.4,217.246,283.635,283.635,0,0,1-301.519,275.513Z" transform="translate(526.045 -128.209)" fill="url(#linear-gradient-10)"/>
    <path id="Path_3640" data-name="Path 3640" d="M-334.366,343.817c-39.1,6.419-81.731,12.127-118.442,18.41A154.244,154.244,0,0,1-473.586,308.1c31.426-19.439,66.574-43.149,100.717-64.442,2.1,6.357,4.469,13.177,7.058,20.339,3.429,9.551,7.235,19.737,11.3,30.3,4.068,10.579,8.059,20.7,11.914,30.063C-339.777,331.27-337.021,337.806-334.366,343.817Z" transform="translate(524.783 -190.493)" opacity="0.3" fill="url(#linear-gradient-11)" style="mix-blend-mode: screen;isolation: isolate"/>
    <path id="Path_3641" data-name="Path 3641" d="M-346.74,350.311c-.365-.949-.716-1.876-1.076-2.817l-111.36,41.349a154.341,154.341,0,0,0,14.142,29.4c36.711-6.283,79.34-11.99,118.442-18.41-2.655-6.012-5.411-12.548-8.235-19.459C-338.681,371.007-342.673,360.89-346.74,350.311Z" transform="translate(517.009 -246.51)" opacity="0.3" fill="url(#linear-gradient-12)" style="mix-blend-mode: multiply;isolation: isolate"/>
    <path id="Path_3642" data-name="Path 3642" d="M-212.718,226.419c20.408,52.791,21.978,99.589,12.107,101.6-7.919,1.78-20.323-23.42-34.6-58.309-3.852-9.371-7.844-19.488-11.911-30.058s-7.881-20.755-11.3-30.3c-12.8-35.5-20.48-62.512-13.41-66.5C-263.163,137.741-232.955,173.542-212.718,226.419Z" transform="translate(417.396 -135.85)" fill="url(#linear-gradient-13)"/>
    <path id="Path_3643" data-name="Path 3643" d="M-209.768,226.419c-20.237-52.877-50.445-88.678-59.121-83.559-.061.035-.114.085-.173.123,13.11,12.376,31.839,40.739,45.815,77.257,18.16,46.976,21.395,89.177,14.933,99.33,4.089,6,7.686,9.119,10.654,8.453C-187.79,326.008-189.36,279.209-209.768,226.419Z" transform="translate(414.446 -135.85)" fill="url(#linear-gradient-14)" style="mix-blend-mode: multiply;isolation: isolate"/>
    <path id="Path_3644" data-name="Path 3644" d="M-197.4,331.533c-6.362,2.152-12.814,4.5-19.177,6.65-5.087-11.234-11.222-27.315-16.617-42.1-2.026-5.517-3.961-10.855-5.684-15.686-.383-1.032-.758-2.043-1.106-3.04l18.534-7.939c1.154-.5,2.884.431,4.945,2.506,2.815,2.9,6.253,7.986,9.578,14.476a122.411,122.411,0,0,1,4.981,11.2C-195.208,314.921-193.658,330.287-197.4,331.533Z" transform="translate(398.757 -204.319)" fill="url(#linear-gradient-15)"/>
    <path id="Path_3645" data-name="Path 3645" d="M-210.592,354.972c3.411,8.874,6.829,17.34,9.873,24.06,6.362-2.149,12.815-4.5,19.177-6.65,3.259-1.086,2.5-12.9-2.208-27.376Z" transform="translate(382.902 -245.168)" opacity="0.3" fill="url(#linear-gradient-16)" style="mix-blend-mode: multiply;isolation: isolate"/>
    <path id="Path_3646" data-name="Path 3646" d="M-198.811,305.7c6.345,16.346,13.7,28.871,17.3,27.652,3.587-1.213,1.993-15.945-4.459-32.575-6.432-16.639-15.189-28.63-18.667-27.134C-208.134,275.142-205.132,289.336-198.811,305.7Z" transform="translate(380.487 -206.598)" fill="url(#linear-gradient-17)"/>
    <path id="Path_3647" data-name="Path 3647" d="M-192.233,313.8c-5.776-14.952-8.52-27.927-5.321-29.3a2.6,2.6,0,0,1,2.348.549c-3.026-4.232-5.715-6.5-7.26-5.833-3.2,1.374-.456,14.348,5.321,29.3,5.128,13.207,10.969,23.671,14.535,25.151A114.032,114.032,0,0,1-192.233,313.8Z" transform="translate(379.25 -209.614)" opacity="0.3" fill="url(#linear-gradient-18)" style="mix-blend-mode: screen;isolation: isolate"/>
  </g>
  <g id="Group_2182" data-name="Group 2182" transform="translate(301.915 52.602)">
    <g id="Group_2180" data-name="Group 2180" transform="translate(21.13)">
      <path id="Path_3648" data-name="Path 3648" d="M2.5,100.411H42.465a55.162,55.162,0,0,1,23.919,4.923,37.475,37.475,0,0,1,16.1,14.073q5.738,9.15,5.733,21.544t-5.733,21.544a37.454,37.454,0,0,1-16.1,14.073,55.135,55.135,0,0,1-23.919,4.923H2.5Zm38.8,59.767q8.8,0,14.073-5.038t5.271-14.189q0-9.149-5.271-14.189t-14.073-5.039H29.837v38.456Z" transform="translate(-2.502 -86.395)" fill="#008838"/>
      <path id="Path_3649" data-name="Path 3649" d="M207.055,92.852a12.684,12.684,0,0,1,0-19.112q4.342-3.761,11.41-3.764,7.182,0,11.466,3.591a11.537,11.537,0,0,1,4.287,9.266,12.769,12.769,0,0,1-4.287,9.9q-4.284,3.882-11.466,3.88Q211.4,96.616,207.055,92.852Zm-1.679,8.862h26.179v63.358H205.376Z" transform="translate(-110.512 -69.976)" fill="#008838"/>
      <path id="Path_3650" data-name="Path 3650" d="M357.31,89.847v85.945h-24.9v-5.213q-5.68,6.373-17.374,6.371a30.424,30.424,0,0,1-15.347-4,28.783,28.783,0,0,1-11.122-11.523,35.675,35.675,0,0,1-4.112-17.376,35.339,35.339,0,0,1,4.112-17.316,28.9,28.9,0,0,1,11.122-11.468,30.442,30.442,0,0,1,15.347-4q10.533,0,16.1,5.445V89.847ZM328.7,153.263q2.9-3.3,2.9-9.208t-2.9-9.15a10.095,10.095,0,0,0-14.826,0q-2.9,3.245-2.895,9.15t2.895,9.208a9.971,9.971,0,0,0,14.826,0Z" transform="translate(-154.61 -80.696)" fill="#008838"/>
      <path id="Path_3651" data-name="Path 3651" d="M581.811,152.071v29.42H554.476V151.722L523.9,100.411h28.84l16.561,28.03,16.681-28.03h26.411Z" transform="translate(-283.789 -86.395)" fill="#008838"/>
      <path id="Path_3652" data-name="Path 3652" d="M717.351,197.825a32.506,32.506,0,0,1-13.146-11.7,32.688,32.688,0,0,1,0-33.938,32.093,32.093,0,0,1,13.146-11.64,45.348,45.348,0,0,1,37.992,0,31.714,31.714,0,0,1,13.09,11.64,33.043,33.043,0,0,1,0,33.938,32.119,32.119,0,0,1-13.09,11.7,44.787,44.787,0,0,1-37.992,0ZM743.7,178.365q2.893-3.3,2.895-9.208t-2.895-9.15a10.095,10.095,0,0,0-14.826,0q-2.9,3.245-2.895,9.15t2.895,9.208a9.971,9.971,0,0,0,14.826,0Z" transform="translate(-378.499 -105.799)" fill="#008838"/>
      <path id="Path_3653" data-name="Path 3653" d="M946.272,138.894v63.358h-24.9v-6.024a22.442,22.442,0,0,1-8.106,5.387,27.039,27.039,0,0,1-9.848,1.8q-12.044,0-19.341-7.355t-7.3-22.181v-34.98h26.179v30.462q0,6.488,2.086,9.266a7.187,7.187,0,0,0,6.139,2.781,7.947,7.947,0,0,0,6.37-3.069q2.546-3.069,2.548-9.672V138.894Z" transform="translate(-474.159 -107.156)" fill="#008838"/>
    </g>
    <g id="Group_2181" data-name="Group 2181" transform="translate(0 119.206)">
      <path id="Path_3654" data-name="Path 3654" d="M-.238,404.937l-8.023,8.93v26.191H-43.382V334.089H-8.261v38.45l34.819-38.45H65.465L23.076,380.713l44.507,59.345H26.255Z" transform="translate(43.382 -331.667)" fill="#008838"/>
      <path id="Path_3655" data-name="Path 3655" d="M284.638,390.333q9.311,9.235,9.309,27.853v47.233H259.736V424.091q0-14.231-10.144-14.231a11.854,11.854,0,0,0-9.309,4.012q-3.56,4.013-3.556,12.639v38.907H202.512V382.612h32.546v8.175a31.634,31.634,0,0,1,11.2-7.268,38.443,38.443,0,0,1,13.777-2.42Q275.326,381.1,284.638,390.333Z" transform="translate(-89.274 -357.027)" fill="#008838"/>
      <path id="Path_3656" data-name="Path 3656" d="M450.423,461.408a42.507,42.507,0,0,1-17.184-15.291,42.742,42.742,0,0,1,0-44.356,41.975,41.975,0,0,1,17.184-15.214,59.289,59.289,0,0,1,49.654,0,41.458,41.458,0,0,1,17.1,15.214,43.168,43.168,0,0,1,0,44.356,41.981,41.981,0,0,1-17.1,15.291,58.535,58.535,0,0,1-49.654,0Zm34.44-25.433q3.782-4.315,3.784-12.035t-3.784-11.961a13.189,13.189,0,0,0-19.377,0q-3.787,4.239-3.786,11.961t3.786,12.035a13.037,13.037,0,0,0,19.377,0Z" transform="translate(-210.401 -357.027)" fill="#008838"/>
      <path id="Path_3657" data-name="Path 3657" d="M785.819,384.385l-28.763,82.807h-33.3l-12.568-38.3-13.018,38.3h-33.3L636.1,384.385h32.4l14.227,43.749,14.838-43.749h29.065l14.382,44.2,14.837-44.2Z" transform="translate(-323.19 -358.801)" fill="#008838"/>
      <path id="Path_3658" data-name="Path 3658" d="M1004.594,384.764a63.221,63.221,0,0,1,9.084-10.37,57.231,57.231,0,0,0,5.529-5.9,7.855,7.855,0,0,0,1.739-4.847,5.936,5.936,0,0,0-2.877-5.22,12.96,12.96,0,0,0-7.265-1.894,16.172,16.172,0,0,0-9.084,2.8,19.55,19.55,0,0,0-6.66,7.493l-26.947-13.472a43.16,43.16,0,0,1,17.939-18.015q11.884-6.506,29.291-6.509,18.47,0,29.978,7.569t11.5,21.346a26.422,26.422,0,0,1-2.192,11.126,30.244,30.244,0,0,1-5.224,8.024,87.252,87.252,0,0,1-7.721,7.19,64.912,64.912,0,0,0-6.966,6.815,8.812,8.812,0,0,0-2.116,5.75h-31.186A21,21,0,0,1,1004.594,384.764Zm-1.968,48.67a17.051,17.051,0,0,1-5.6-12.868,16.516,16.516,0,0,1,5.6-12.79q5.6-5.071,14.382-5.072t14.381,5.072a16.519,16.519,0,0,1,5.6,12.79,17.054,17.054,0,0,1-5.6,12.868q-5.6,5.3-14.381,5.3T1002.626,433.434Z" transform="translate(-502.305 -328.829)" fill="#008838"/>
    </g>
  </g>
</svg>
