<svg xmlns="http://www.w3.org/2000/svg" viewBox="0 0 265.11 265.11"><defs><style>.cls-1{fill:#fff;}.cls-2{fill:#007437;}</style></defs><title>facebook</title><g id="Layer_2" data-name="Layer 2"><g id="Layer_1-2" data-name="Layer 1"><path class="cls-1" d="M140.47,53.39c-11.72,1.11-31.36,10.35-31.36,35.88v24.1H83.75v28.42h25.36V212H139.6V141.79h23.06l3.94-28.42h-27V98.51c0-7.27.21-14.9,9-18.16,5.35-2,18.91-.91,18.91-.91V55.61S152.18,52.28,140.47,53.39Z"/><path class="cls-2" d="M132.55,0A132.56,132.56,0,1,0,265.11,132.55,132.56,132.56,0,0,0,132.55,0Zm35,79.44s-13.56-1.07-18.91.91c-8.83,3.26-9,10.89-9,18.16v14.86h27l-3.94,28.42H139.6V212H109.11V141.79H83.75V113.37h25.36V89.27c0-25.53,19.64-34.77,31.36-35.88s27.08,2.22,27.08,2.22Z"/></g></g></svg>