<svg xmlns="http://www.w3.org/2000/svg" viewBox="0 0 266.79 266.79"><defs><style>.cls-1{fill:#fff;}.cls-2{fill:#007437;}</style></defs><title>instagram_1</title><g id="Layer_2" data-name="Layer 2"><g id="Layer_1-2" data-name="Layer 1"><rect class="cls-1" x="65.85" y="106.12" width="29.73" height="93.28"/><path class="cls-1" d="M163.79,103.8a33.18,33.18,0,0,0-23.22,15.41V106.12H112.84v93.27H142V147.57a20.38,20.38,0,0,1,4.08-12.4,16.1,16.1,0,0,1,13.38-6.55c14.59,0,14.18,17.18,14.18,19.77v51H202.8V136.57C202.8,110,178.4,101.14,163.79,103.8Z"/><circle class="cls-1" cx="80.72" cy="77.17" r="16.73" transform="translate(-30.93 79.68) rotate(-45)"/><path class="cls-2" d="M266.79,133.39a133.4,133.4,0,1,0-133.4,133.4A133.39,133.39,0,0,0,266.79,133.39Zm-171.21,66H65.85V106.12H95.58ZM80.72,93.9A16.73,16.73,0,1,1,97.44,77.17,16.73,16.73,0,0,1,80.72,93.9Zm92.9,105.5v-51c0-2.59.41-19.77-14.18-19.77a16.1,16.1,0,0,0-13.38,6.55,20.38,20.38,0,0,0-4.08,12.4v51.82H112.84V106.12h27.73v13.09a33.18,33.18,0,0,1,23.22-15.41c14.61-2.66,39,6.23,39,32.77V199.4Z"/></g></g></svg>