<?xml version="1.0" encoding="utf-8"?>
<!-- Generator: Adobe Illustrator 24.0.2, SVG Export Plug-In . SVG Version: 6.00 Build 0)  -->
<svg version="1.1" id="Layer_1" xmlns="http://www.w3.org/2000/svg" xmlns:xlink="http://www.w3.org/1999/xlink" x="0px" y="0px"
	 viewBox="0 0 243 80.7" style="enable-background:new 0 0 243 80.7;" xml:space="preserve">
<style type="text/css">
	.st0{fill:#008838;}
	.st1{fill:#088744;}
	.st2{fill:#FFFFFF;}
	.st3{fill:#FCED09;}
	.st4{fill:#019648;}
	.st5{fill:#803E30;}
	.st6{fill:#C37058;}
</style>
<title>mrkim-logo</title>
<g id="Layer_2_1_">
	<g id="Component_57_1">
		<g id="Professional_Services">
			<g>
				<path class="st0" d="M103.5,68c-0.1,0-0.2,0-0.2-0.1c-0.1-0.1-0.1-0.2-0.1-0.2v-3.6l-3.6-5.9v-0.1c0,0,0-0.1,0-0.1
					c0-0.1,0-0.2,0.1-0.2c0.1-0.1,0.1-0.1,0.2-0.1h0.3c0.1,0,0.1,0,0.2,0c0.1,0,0.1,0.1,0.1,0.2l3.2,5.2l3.2-5.2
					c0-0.1,0.1-0.1,0.2-0.2c0.1,0,0.1-0.1,0.2,0h0.3c0.1,0,0.2,0,0.2,0.1c0.1,0.1,0.1,0.1,0.1,0.2c0,0,0,0.1,0,0.1c0,0,0,0.1,0,0.1
					l-3.6,5.9v3.6c0,0.1,0,0.2-0.1,0.2C104,68,104,68,103.9,68L103.5,68z"/>
				<path class="st0" d="M111.2,68.2c-0.6,0-1.2-0.1-1.8-0.4c-0.5-0.3-0.8-0.7-1.1-1.2c-0.3-0.5-0.4-1.1-0.4-1.7c0-0.1,0-0.3,0-0.6
					s0-0.5,0-0.6c0-0.6,0.2-1.2,0.4-1.7c0.2-0.5,0.6-0.9,1.1-1.2c1.1-0.6,2.4-0.6,3.6,0c0.5,0.3,0.8,0.7,1.1,1.2
					c0.3,0.5,0.4,1.1,0.4,1.7c0,0.2,0,0.4,0,0.6c0,0.3,0,0.5,0,0.6c0,0.6-0.1,1.2-0.4,1.7c-0.2,0.5-0.6,0.9-1,1.2
					C112.4,68,111.8,68.2,111.2,68.2z M111.2,67.3c0.6,0,1.2-0.2,1.7-0.7c0.5-0.5,0.7-1.2,0.7-1.9c0-0.2,0-0.3,0-0.6s0-0.4,0-0.5
					c0-0.7-0.2-1.4-0.7-1.9c-0.4-0.4-1.1-0.7-1.7-0.7c-0.6,0-1.2,0.2-1.7,0.7c-0.5,0.5-0.7,1.2-0.7,1.9c0,0.1,0,0.3,0,0.5
					s0,0.4,0,0.6c0,0.7,0.2,1.4,0.7,1.9C109.9,67.1,110.5,67.3,111.2,67.3z"/>
				<path class="st0" d="M119.4,68.2c-0.6,0-1.2-0.1-1.7-0.4c-0.4-0.3-0.8-0.7-1-1.2c-0.2-0.5-0.3-1.1-0.3-1.7v-4.2
					c0-0.1,0-0.2,0.1-0.2c0.1-0.1,0.2-0.1,0.2-0.1h0.3c0.2,0,0.3,0.1,0.3,0.3c0,0,0,0,0,0v4.1c0,1.7,0.7,2.5,2.2,2.5
					c0.6,0,1.2-0.2,1.7-0.7c0.4-0.5,0.7-1.2,0.6-1.8v-4.1c0-0.2,0.1-0.3,0.3-0.3c0,0,0,0,0,0h0.2c0.2,0,0.3,0.1,0.3,0.3c0,0,0,0,0,0
					v7c0,0.1,0,0.2-0.1,0.2c-0.1,0.1-0.2,0.1-0.2,0.1h-0.2c-0.1,0-0.2,0-0.2-0.1c-0.1-0.1-0.1-0.2-0.1-0.2V67
					c-0.3,0.3-0.6,0.6-1,0.8C120.4,68.1,119.9,68.2,119.4,68.2z"/>
				<path class="st0" d="M129.5,68c-0.1,0-0.2,0-0.2-0.1c-0.1-0.1-0.1-0.2-0.1-0.2V58c0-0.1,0-0.2,0.1-0.2c0.1-0.1,0.2-0.1,0.2-0.1
					h0.3c0.1,0,0.2,0,0.2,0.1l0.1,0.1l5.4,8.3V58c0-0.1,0-0.2,0.1-0.2c0.1-0.1,0.1-0.1,0.2-0.1h0.3c0.1,0,0.2,0,0.2,0.1
					c0.1,0.1,0.1,0.2,0.1,0.2v9.7c0,0.1,0,0.2-0.1,0.2c-0.1,0.1-0.2,0.1-0.2,0.1h-0.3c-0.1,0-0.2,0-0.2-0.1l-0.1-0.1l-5.4-8.3v8.2
					c0,0.1,0,0.2-0.1,0.2c-0.1,0.1-0.2,0.1-0.2,0.1L129.5,68z"/>
				<path class="st0" d="M141.1,68.2c-0.5,0-0.9-0.1-1.3-0.3c-0.4-0.2-0.7-0.4-1-0.8c-0.2-0.3-0.4-0.7-0.4-1.1
					c0-0.6,0.3-1.2,0.8-1.6c0.6-0.4,1.4-0.7,2.1-0.8l2.3-0.3v-0.5c0-0.5-0.1-0.9-0.5-1.2c-0.4-0.3-1-0.5-1.5-0.5
					c-0.4,0-0.9,0.1-1.2,0.3c-0.3,0.2-0.5,0.5-0.6,0.8c0,0.1-0.2,0.2-0.3,0.2h-0.2c-0.1,0-0.2,0-0.2-0.1c0-0.1,0-0.2,0-0.3
					c0-0.2,0.1-0.4,0.2-0.5c0.1-0.2,0.3-0.4,0.5-0.6c0.2-0.2,0.5-0.4,0.8-0.5c0.4-0.1,0.8-0.2,1.3-0.2c0.5,0,1,0.1,1.4,0.2
					c0.6,0.2,1.1,0.8,1.3,1.5c0.1,0.3,0.1,0.6,0.1,0.9v5c0,0.1,0,0.2-0.1,0.2c-0.1,0.1-0.2,0.1-0.2,0.1h-0.2c-0.1,0-0.2,0-0.2-0.1
					c-0.1-0.1-0.1-0.2-0.1-0.2V67c-0.1,0.2-0.3,0.4-0.5,0.5c-0.3,0.2-0.5,0.3-0.8,0.4C142,68.1,141.6,68.2,141.1,68.2z M141.3,67.3
					c0.4,0,0.9-0.1,1.2-0.3c0.4-0.2,0.7-0.5,0.9-0.9c0.2-0.5,0.3-1,0.3-1.5v-0.5l-1.9,0.3c-0.6,0.1-1.3,0.2-1.8,0.6
					c-0.4,0.2-0.6,0.6-0.6,1c0,0.3,0.1,0.6,0.3,0.8c0.2,0.2,0.4,0.4,0.7,0.5C140.6,67.2,141,67.3,141.3,67.3z"/>
				<path class="st0" d="M147.3,68c-0.1,0-0.2,0-0.2-0.1c-0.1-0.1-0.1-0.2-0.1-0.2v-7c0-0.1,0-0.2,0.1-0.2c0.1-0.1,0.1-0.1,0.2-0.1
					h0.3c0.1,0,0.2,0,0.2,0.1c0.1,0.1,0.1,0.2,0.1,0.2v0.5c0.5-0.7,1.3-1,2.1-1c1-0.1,1.9,0.5,2.4,1.4c0.2-0.4,0.6-0.8,1-1
					c0.5-0.3,1-0.4,1.5-0.4c0.5,0,1,0.1,1.4,0.4c0.4,0.2,0.8,0.6,1,1.1c0.3,0.6,0.4,1.2,0.4,1.8v4.3c0,0.1,0,0.2-0.1,0.2
					c-0.1,0.1-0.2,0.1-0.2,0.1H157c-0.1,0-0.2,0-0.2-0.1c-0.1-0.1-0.1-0.2-0.1-0.2v-4.2c0-0.5-0.1-1-0.3-1.5
					c-0.2-0.3-0.4-0.6-0.7-0.8c-0.3-0.1-0.7-0.2-1-0.2c-0.3,0-0.6,0.1-0.9,0.2c-0.3,0.2-0.6,0.4-0.8,0.7c-0.2,0.5-0.3,1-0.3,1.5v4.2
					c0,0.1,0,0.2-0.1,0.2c-0.1,0.1-0.2,0.1-0.2,0.1h-0.2c-0.1,0-0.2,0-0.2-0.1c-0.1-0.1-0.1-0.2-0.1-0.2v-4.1c0-0.5-0.1-1-0.3-1.5
					c-0.2-0.3-0.4-0.6-0.8-0.8c-0.3-0.1-0.7-0.2-1-0.2c-0.3,0-0.6,0.1-0.9,0.2c-0.3,0.2-0.6,0.4-0.8,0.8c-0.2,0.5-0.3,1-0.3,1.5v4.2
					c0,0.1,0,0.2-0.1,0.2c-0.1,0.1-0.1,0.1-0.2,0.1L147.3,68z"/>
				<path class="st0" d="M162.8,68.2c-0.9,0-1.7-0.3-2.3-0.9c-0.6-0.7-1-1.6-1-2.5c0-0.1,0-0.3,0-0.6s0-0.4,0-0.6
					c0-0.6,0.2-1.2,0.5-1.8c0.2-0.5,0.6-0.9,1.1-1.2c0.5-0.3,1.1-0.4,1.7-0.4c0.6,0,1.2,0.1,1.8,0.5c0.5,0.3,0.9,0.8,1.1,1.3
					c0.3,0.6,0.4,1.3,0.4,2v0.2c0,0.1,0,0.2-0.1,0.2c-0.1,0.1-0.2,0.1-0.2,0.1h-5.3v0.2c0,0.4,0.1,0.9,0.3,1.3
					c0.2,0.4,0.4,0.7,0.8,1c0.4,0.3,0.8,0.4,1.2,0.4c0.4,0,0.7-0.1,1.1-0.2c0.2-0.1,0.5-0.2,0.7-0.4c0.1-0.1,0.2-0.2,0.3-0.3
					c0.1-0.1,0.1-0.2,0.2-0.2c0.1,0,0.2,0,0.2,0h0.2c0.1,0,0.2,0,0.2,0.1c0.1,0.1,0.1,0.1,0.1,0.2c0,0.2-0.1,0.4-0.2,0.5
					c-0.2,0.2-0.4,0.4-0.6,0.6c-0.3,0.2-0.6,0.4-1,0.5C163.6,68.1,163.2,68.2,162.8,68.2z M160.4,63.7h4.7v-0.1
					c0-0.5-0.1-0.9-0.3-1.3c-0.2-0.4-0.5-0.7-0.8-0.9c-0.4-0.2-0.8-0.4-1.3-0.3c-0.4,0-0.9,0.1-1.3,0.3c-0.4,0.2-0.6,0.6-0.8,0.9
					C160.5,62.8,160.4,63.2,160.4,63.7L160.4,63.7z"/>
				<path class="st0" d="M172.3,68c-0.1,0-0.2,0-0.2-0.1c-0.1-0.1-0.1-0.2-0.1-0.2V58c0-0.2,0.1-0.3,0.2-0.3c0,0,0.1,0,0.1,0h0.3
					c0.1,0,0.2,0,0.2,0.1c0.1,0.1,0.1,0.2,0.1,0.2v9.7c0,0.1,0,0.2-0.1,0.2c-0.1,0.1-0.2,0.1-0.2,0.1L172.3,68z"/>
				<path class="st0" d="M178.1,68c-0.4,0-0.9-0.1-1.2-0.3c-0.3-0.2-0.5-0.5-0.6-0.9c-0.1-0.4-0.2-0.8-0.2-1.2v-4.3h-1.2
					c-0.2,0-0.3-0.1-0.3-0.3c0,0,0,0,0,0v-0.2c0-0.1,0-0.2,0.1-0.2c0.1-0.1,0.1-0.1,0.2-0.1h1.2v-2.5c0-0.1,0-0.2,0.1-0.2
					c0.1-0.1,0.1-0.1,0.2-0.1h0.2c0.1,0,0.2,0,0.2,0.1c0.1,0.1,0.1,0.1,0.1,0.2v2.5h1.8c0.1,0,0.2,0,0.2,0.1
					c0.1,0.1,0.1,0.2,0.1,0.2v0.2c0,0.1,0,0.2-0.1,0.2c-0.1,0.1-0.2,0.1-0.2,0.1H177v4.3c0,0.4,0.1,0.8,0.3,1.2
					c0.2,0.3,0.6,0.5,0.9,0.4h0.8c0.1,0,0.2,0,0.2,0.1c0.1,0.1,0.1,0.1,0.1,0.2v0.2c0,0.1,0,0.2-0.1,0.2c-0.1,0-0.1,0.1-0.2,0.1
					H178.1z"/>
				<path class="st0" d="M181,68c-0.1,0-0.2,0-0.2-0.1c-0.1-0.1-0.1-0.2-0.1-0.2v-0.6c0-0.1,0-0.2,0.1-0.2c0.1-0.1,0.2-0.1,0.2-0.1
					h0.6c0.1,0,0.2,0,0.2,0.1c0.1,0.1,0.1,0.2,0.1,0.2v0.6c0,0.1,0,0.2-0.1,0.2c-0.1,0.1-0.2,0.1-0.2,0.1H181z M181.2,65.9
					c-0.1,0-0.2,0-0.2-0.1c-0.1-0.1-0.1-0.1-0.1-0.2V58c0-0.1,0-0.2,0.1-0.2c0.1-0.1,0.1-0.1,0.2-0.1h0.2c0.1,0,0.2,0,0.2,0.1
					c0.1,0.1,0.1,0.2,0.1,0.2v7.6c0,0.1,0,0.2-0.1,0.2c-0.1,0.1-0.2,0.1-0.2,0.1L181.2,65.9z"/>
				<path class="st0" d="M189.6,68c-0.1,0-0.2,0-0.3-0.1c-0.1-0.1-0.1-0.2-0.1-0.3l-2-9.5c0,0,0-0.1,0-0.1c0,0,0,0,0-0.1
					c0-0.1,0-0.2,0.1-0.2c0.1-0.1,0.1-0.1,0.2-0.1h0.3c0.2,0,0.3,0.1,0.3,0.2l1.7,8.4l1.8-6c0-0.1,0.1-0.2,0.2-0.2
					c0.1-0.1,0.2-0.1,0.3-0.1h0.3c0.1,0,0.2,0,0.3,0.1c0.1,0.1,0.1,0.1,0.1,0.2l1.8,6l1.7-8.4c0-0.2,0.1-0.2,0.3-0.2h0.3
					c0.1,0,0.2,0,0.2,0.1c0.1,0.1,0.1,0.1,0.1,0.2V58v0.1l-2,9.5c0,0.1-0.1,0.2-0.1,0.3c-0.1,0.1-0.2,0.1-0.3,0.1h-0.2
					c-0.1,0-0.2,0-0.3-0.1c-0.1-0.1-0.1-0.2-0.2-0.3l-2-6.2l-2,6.2c0,0.1-0.1,0.2-0.2,0.3c-0.1,0.1-0.2,0.1-0.3,0.1H189.6z"/>
				<path class="st0" d="M201.8,68.2c-0.9,0-1.7-0.3-2.3-0.9c-0.6-0.7-1-1.6-1-2.5c0-0.1,0-0.3,0-0.6s0-0.4,0-0.6
					c0-0.6,0.2-1.2,0.5-1.8c0.3-0.5,0.6-0.9,1.1-1.2c1.1-0.6,2.4-0.6,3.4,0c0.5,0.3,0.9,0.8,1.2,1.4c0.3,0.6,0.4,1.3,0.4,2v0.2
					c0,0.1,0,0.2-0.1,0.2c-0.1,0.1-0.2,0.1-0.2,0.1h-5.3v0.2c0,0.4,0.1,0.9,0.3,1.3c0.2,0.4,0.5,0.7,0.8,1c0.4,0.3,0.8,0.4,1.2,0.4
					c0.4,0,0.7-0.1,1.1-0.2c0.2-0.1,0.5-0.2,0.7-0.4c0.1-0.1,0.2-0.2,0.3-0.3c0.1-0.1,0.1-0.2,0.2-0.2c0.1,0,0.2,0,0.2,0h0.2
					c0.1,0,0.2,0,0.2,0.1c0.1,0.1,0.1,0.1,0.1,0.2c0,0.2-0.1,0.4-0.2,0.5c-0.2,0.2-0.4,0.4-0.6,0.6c-0.3,0.2-0.6,0.4-1,0.5
					C202.6,68.1,202.2,68.2,201.8,68.2z M199.5,63.7h4.7v-0.1c0-0.5-0.1-0.9-0.3-1.3c-0.2-0.4-0.5-0.7-0.8-0.9
					c-0.4-0.2-0.8-0.4-1.3-0.3c-0.4,0-0.9,0.1-1.3,0.3c-0.3,0.2-0.6,0.6-0.8,0.9C199.6,62.8,199.5,63.2,199.5,63.7L199.5,63.7z"/>
				<path class="st0" d="M211.4,68c-0.1,0-0.2,0-0.2-0.1c-0.1-0.1-0.1-0.2-0.1-0.2V58c0-0.1,0-0.2,0.1-0.2c0.1-0.1,0.2-0.1,0.2-0.1
					h3.1c0.8,0,1.7,0.1,2.5,0.5c0.6,0.3,1,0.8,1.3,1.3c0.3,0.7,0.4,1.4,0.4,2.2c0,0.5,0,0.8,0,1.2s0,0.7,0,1.2
					c0,0.8-0.1,1.5-0.4,2.2c-0.2,0.6-0.7,1.1-1.2,1.3c-0.8,0.3-1.6,0.5-2.4,0.4L211.4,68z M212,67.1h2.5c0.6,0,1.3-0.1,1.9-0.3
					c0.4-0.2,0.8-0.6,1-1c0.2-0.6,0.3-1.2,0.3-1.8c0-0.3,0-0.6,0-0.8v-0.7c0-0.2,0-0.5,0-0.8c0.1-0.9-0.2-1.7-0.8-2.4
					c-0.7-0.6-1.6-0.9-2.5-0.8H212L212,67.1z"/>
				<path class="st0" d="M223.8,68.2c-0.6,0-1.2-0.1-1.8-0.4c-0.5-0.3-0.8-0.7-1.1-1.2c-0.3-0.5-0.4-1.1-0.4-1.7c0-0.1,0-0.3,0-0.6
					s0-0.5,0-0.6c0-0.6,0.2-1.2,0.4-1.7c0.2-0.5,0.6-0.9,1.1-1.2c0.5-0.3,1.2-0.5,1.8-0.4c0.6,0,1.2,0.1,1.8,0.4
					c0.5,0.3,0.9,0.7,1.1,1.2c0.3,0.5,0.4,1.1,0.4,1.7c0,0.2,0,0.4,0,0.6c0,0.3,0,0.5,0,0.6c0,0.6-0.1,1.2-0.4,1.7
					c-0.2,0.5-0.6,0.9-1.1,1.2C225,68,224.4,68.2,223.8,68.2z M223.8,67.3c0.6,0,1.2-0.2,1.7-0.7c0.5-0.5,0.7-1.2,0.7-1.9
					c0-0.2,0-0.3,0-0.6s0-0.4,0-0.5c0-0.7-0.2-1.4-0.7-1.9c-0.4-0.4-1.1-0.7-1.7-0.7c-0.6,0-1.2,0.2-1.7,0.7
					c-0.5,0.5-0.7,1.2-0.7,1.9c0,0.1,0,0.3,0,0.5s0,0.4,0,0.6c0,0.7,0.2,1.4,0.7,1.9C222.5,67.1,223.1,67.3,223.8,67.3z"/>
				<path class="st0" d="M233.4,68c-0.1,0-0.2,0-0.2-0.1c-0.1-0.1-0.1-0.2-0.1-0.2V58c0-0.1,0-0.2,0.1-0.2c0.1-0.1,0.2-0.1,0.2-0.1
					h0.3c0.1,0,0.2,0,0.2,0.1c0.1,0.1,0.1,0.2,0.1,0.2v9.7c0,0.2-0.1,0.3-0.2,0.3c0,0-0.1,0-0.1,0L233.4,68z"/>
				<path class="st0" d="M239.2,68c-0.4,0-0.8-0.1-1.2-0.3c-0.3-0.2-0.5-0.5-0.6-0.9c-0.1-0.4-0.2-0.8-0.2-1.2v-4.4H236
					c-0.1,0-0.2,0-0.2-0.1c-0.1-0.1-0.1-0.1-0.1-0.2v-0.2c0-0.1,0-0.2,0.1-0.2c0.1-0.1,0.1-0.1,0.2-0.1h1.2v-2.5
					c0-0.1,0-0.2,0.1-0.2c0.1-0.1,0.2-0.1,0.2-0.1h0.2c0.1,0,0.2,0,0.2,0.1c0.1,0.1,0.1,0.1,0.1,0.2v2.5h1.8c0.1,0,0.2,0,0.2,0.1
					c0.1,0.1,0.1,0.2,0.1,0.2v0.2c0,0.1,0,0.2-0.1,0.2c-0.1,0.1-0.1,0.1-0.2,0.1h-1.8v4.3c0,0.4,0.1,0.8,0.2,1.2
					c0.2,0.3,0.6,0.5,0.9,0.4h0.8c0.1,0,0.2,0,0.2,0.1c0.1,0.1,0.1,0.1,0.1,0.2v0.2c0,0.1,0,0.2-0.1,0.2c-0.1,0.1-0.1,0.1-0.2,0.1
					L239.2,68z"/>
				<path class="st0" d="M242.1,68c-0.1,0-0.2,0-0.2-0.1c-0.1-0.1-0.1-0.2-0.1-0.2v-0.6c0-0.1,0-0.2,0.1-0.2
					c0.1-0.1,0.2-0.1,0.2-0.1h0.6c0.1,0,0.2,0,0.2,0.1c0.1,0.1,0.1,0.2,0.1,0.2v0.6c0,0.1,0,0.2-0.1,0.2c-0.1,0.1-0.2,0.1-0.2,0.1
					H242.1z M242.2,65.9c-0.1,0-0.2,0-0.2-0.1c-0.1-0.1-0.1-0.1-0.1-0.2V58c0-0.2,0.1-0.3,0.2-0.3c0,0,0.1,0,0.1,0h0.2
					c0.1,0,0.2,0,0.2,0.1c0.1,0.1,0.1,0.2,0.1,0.2v7.6c0,0.1,0,0.2-0.1,0.2c-0.1,0.1-0.2,0.1-0.2,0.1L242.2,65.9z"/>
			</g>
		</g>
		<g id="Mr_Kim">
			<g>
				<path class="st0" d="M100.8,51.1c-0.3,0-0.5-0.1-0.7-0.3c-0.2-0.2-0.3-0.4-0.3-0.7V23.6c0-0.3,0.1-0.5,0.3-0.7
					c0.2-0.2,0.5-0.3,0.7-0.3h4.4c0.4,0,0.7,0.1,1,0.4c0.2,0.2,0.3,0.3,0.4,0.5l7.2,12.9l7.2-12.9c0.1-0.2,0.3-0.4,0.4-0.5
					c0.3-0.3,0.6-0.4,1-0.4h4.4c0.3,0,0.6,0.1,0.8,0.3c0.2,0.2,0.3,0.5,0.3,0.7v26.5c0,0.3-0.1,0.5-0.3,0.7
					c-0.2,0.2-0.5,0.3-0.8,0.3H122c-0.3,0-0.6-0.1-0.8-0.3c-0.2-0.2-0.3-0.4-0.3-0.7V34.8l-4.6,8.5c-0.1,0.2-0.3,0.5-0.5,0.7
					c-0.3,0.2-0.6,0.3-0.9,0.3h-2.1c-0.3,0-0.6-0.1-0.9-0.3c-0.2-0.2-0.4-0.4-0.5-0.7l-4.6-8.5v15.3c0,0.3-0.1,0.5-0.3,0.7
					c-0.2,0.2-0.5,0.3-0.7,0.3H100.8z"/>
				<path class="st0" d="M134.2,51.1c-0.3,0-0.5-0.1-0.7-0.3c-0.2-0.2-0.3-0.5-0.3-0.7V30.9c0-0.3,0.1-0.5,0.3-0.7
					c0.2-0.2,0.5-0.3,0.7-0.3h4.7c0.3,0,0.6,0.1,0.8,0.3c0.2,0.2,0.3,0.4,0.3,0.7v1.6c0.7-0.9,1.6-1.5,2.6-2
					c1.1-0.5,2.3-0.7,3.5-0.6h1.8c0.6,0,1,0.4,1,1v4.2c0,0.3-0.1,0.5-0.3,0.7c-0.2,0.2-0.5,0.3-0.7,0.3h-4c-1.8-0.2-3.3,1.1-3.5,2.9
					c0,0.2,0,0.4,0,0.7v10.5c0,0.3-0.1,0.5-0.3,0.7c-0.2,0.2-0.5,0.3-0.8,0.3H134.2z"/>
				<path class="st0" d="M150.4,51.1c-0.3,0-0.5-0.1-0.7-0.3c-0.2-0.2-0.3-0.5-0.3-0.7v-5.2c0-0.6,0.4-1,1-1h5.2
					c0.3,0,0.5,0.1,0.7,0.3c0.2,0.2,0.3,0.5,0.3,0.7v5.2c0,0.3-0.1,0.5-0.3,0.7c-0.2,0.2-0.4,0.3-0.7,0.3L150.4,51.1z"/>
				<path class="st0" d="M171.3,51.1c-0.3,0-0.5-0.1-0.7-0.3c-0.2-0.2-0.3-0.5-0.3-0.7V23.6c0-0.3,0.1-0.5,0.3-0.7
					c0.2-0.2,0.5-0.3,0.7-0.3h5.1c0.3,0,0.5,0.1,0.7,0.3c0.2,0.2,0.3,0.5,0.3,0.7v9.1l7.5-9.3c0.2-0.2,0.3-0.4,0.6-0.5
					c0.3-0.2,0.6-0.3,1-0.3h5.9c0.2,0,0.5,0.1,0.6,0.3c0.2,0.2,0.2,0.4,0.2,0.6c0,0.2,0,0.3-0.1,0.5l-9.8,12.3L194,49.8
					c0.1,0.1,0.2,0.3,0.2,0.5c0,0.2-0.1,0.4-0.2,0.6c-0.2,0.2-0.4,0.3-0.6,0.3h-6.1c-0.4,0-0.8-0.1-1.1-0.3
					c-0.2-0.1-0.4-0.3-0.5-0.5l-8.1-10.1v9.9c0,0.3-0.1,0.5-0.3,0.7c-0.2,0.2-0.5,0.3-0.7,0.3H171.3z"/>
				<path class="st0" d="M197.9,26.8c-0.6,0-1-0.4-1-1v-3.7c0-0.3,0.1-0.5,0.3-0.7c0.2-0.2,0.5-0.3,0.7-0.3h4.9
					c0.3,0,0.5,0.1,0.7,0.3c0.2,0.2,0.3,0.4,0.3,0.7v3.7c0,0.3-0.1,0.5-0.3,0.7c-0.2,0.2-0.4,0.3-0.7,0.3H197.9z M197.9,51.1
					c-0.3,0-0.5-0.1-0.7-0.3c-0.2-0.2-0.3-0.5-0.3-0.7V30.9c0-0.6,0.4-1,1-1h4.8c0.3,0,0.5,0.1,0.7,0.3c0.2,0.2,0.3,0.5,0.3,0.7
					v19.2c0,0.3-0.1,0.5-0.3,0.7c-0.2,0.2-0.5,0.3-0.7,0.3L197.9,51.1z"/>
				<path class="st0" d="M210.9,51.1c-0.3,0-0.5-0.1-0.7-0.3c-0.2-0.2-0.3-0.5-0.3-0.7V30.9c0-0.3,0.1-0.5,0.3-0.7
					c0.2-0.2,0.5-0.3,0.7-0.3h4.4c0.6,0,1,0.4,1,1v1.4c0.6-0.8,1.4-1.5,2.3-1.9c1.1-0.6,2.3-0.9,3.5-0.9c3.2-0.1,5.3,1.1,6.5,3.5
					c0.7-1.1,1.6-1.9,2.7-2.5c2.4-1.3,5.3-1.3,7.6,0c1.2,0.7,2.1,1.7,2.7,2.9c0.7,1.6,1.1,3.4,1,5.1v11.6c0,0.3-0.1,0.5-0.3,0.7
					c-0.2,0.2-0.5,0.3-0.7,0.3h-4.7c-0.3,0-0.6-0.1-0.8-0.3c-0.2-0.2-0.3-0.4-0.3-0.7V38.8c0-0.8-0.1-1.6-0.4-2.3
					c-0.2-0.5-0.6-0.9-1.1-1.2c-0.5-0.3-1-0.4-1.6-0.4c-0.5,0-1,0.1-1.4,0.4c-0.5,0.3-0.9,0.7-1.1,1.2c-0.3,0.7-0.5,1.5-0.4,2.3
					v11.3c0,0.3-0.1,0.5-0.3,0.7c-0.2,0.2-0.5,0.3-0.7,0.3h-4.7c-0.3,0-0.5-0.1-0.7-0.3c-0.2-0.2-0.3-0.5-0.3-0.7V38.8
					c0-0.8-0.1-1.6-0.4-2.3c-0.2-0.5-0.6-0.9-1.1-1.2c-0.9-0.5-2.1-0.5-3,0c-0.5,0.3-0.9,0.7-1.1,1.2c-0.3,0.7-0.5,1.5-0.4,2.2v11.4
					c0,0.6-0.4,1-1,1L210.9,51.1z"/>
			</g>
		</g>
	</g>
</g>
<g>
	<g>
		<path class="st1" d="M5.1,64l3.7-4.2l0.6,1.1l-0.8,0.9l0.9,1.7l1.2-0.2l0.5,1l-5.6,0.7L5.1,64z M7.9,62.5l-1.4,1.5l0,0l2-0.3
			L7.9,62.5z"/>
		<path class="st1" d="M7.1,56.3c0.5,0.3,0.8,0.7,1.1,1.4c0.2,0.7,0.3,1.2,0.1,1.7C8,59.8,7.6,60.2,7,60.4l-3.1,1.1l-0.4-1.1
			l3.1-1.1c0.1,0,0.3-0.1,0.4-0.2c0.1-0.1,0.2-0.2,0.3-0.3c0.1-0.1,0.1-0.2,0.1-0.4c0-0.2,0-0.3-0.1-0.6c-0.1-0.4-0.3-0.6-0.6-0.7
			c-0.2-0.1-0.5-0.1-0.9,0.1l-3.1,1.1l-0.4-1.1l3.1-1.1C6.1,56,6.6,56,7.1,56.3z"/>
		<path class="st1" d="M3,56.3l-0.9,0.2l-1-4.2L2,52.1l0.4,1.5l4.2-1l0.3,1.1l-4.2,1L3,56.3z"/>
		<path class="st1" d="M2.5,51.3c-0.3-0.1-0.7-0.2-0.9-0.4c-0.3-0.2-0.5-0.4-0.7-0.7c-0.2-0.3-0.3-0.7-0.3-1.1c0-0.4,0-0.8,0.1-1.1
			c0.1-0.3,0.3-0.6,0.5-0.9c0.2-0.2,0.5-0.4,0.8-0.6c0.3-0.2,0.7-0.2,1.1-0.3c0.4,0,0.7,0,1.1,0.1c0.3,0.1,0.6,0.2,0.9,0.4
			c0.3,0.2,0.5,0.4,0.7,0.7C5.9,47.8,6,48.1,6,48.5c0,0.4,0,0.8-0.1,1.1s-0.3,0.6-0.5,0.9c-0.2,0.2-0.5,0.4-0.8,0.6
			c-0.3,0.2-0.7,0.2-1,0.3C3.2,51.4,2.8,51.4,2.5,51.3z M4.1,50.1c0.2-0.1,0.4-0.2,0.5-0.3c0.2-0.1,0.3-0.3,0.4-0.5
			c0.1-0.2,0.1-0.4,0.1-0.7C5,48.4,5,48.1,4.8,48c-0.1-0.2-0.3-0.3-0.4-0.4c-0.2-0.1-0.4-0.2-0.6-0.2c-0.2,0-0.4,0-0.6,0
			c-0.2,0-0.4,0.1-0.7,0.1c-0.2,0.1-0.4,0.2-0.5,0.3c-0.2,0.1-0.3,0.3-0.4,0.5c-0.1,0.2-0.1,0.4-0.1,0.7c0,0.3,0.1,0.5,0.2,0.6
			C1.9,49.8,2,49.9,2.2,50c0.2,0.1,0.4,0.2,0.6,0.2c0.2,0,0.4,0,0.7,0C3.7,50.2,3.9,50.1,4.1,50.1z"/>
		<path class="st1" d="M2.5,43.3c-0.2-0.1-0.3-0.2-0.4-0.3C2,42.8,2,42.7,1.9,42.5c-0.1-0.2-0.1-0.3-0.1-0.5c0-0.2,0.1-0.3,0.1-0.5
			c0.1-0.2,0.2-0.3,0.3-0.4c0.1-0.1,0.3-0.2,0.4-0.3c0.2-0.1,0.3-0.1,0.5-0.1c0.2,0,0.3,0.1,0.5,0.1C3.9,41,4,41.1,4.1,41.2
			c0.1,0.1,0.2,0.3,0.3,0.4c0.1,0.2,0.1,0.3,0.1,0.5c0,0.2-0.1,0.3-0.1,0.5C4.2,42.8,4.1,43,4,43.1c-0.1,0.1-0.3,0.2-0.4,0.3
			c-0.2,0.1-0.3,0.1-0.5,0.1C2.9,43.4,2.7,43.3,2.5,43.3z"/>
		<path class="st1" d="M1.2,36l2,0.4l0.5-2.1l-2-0.4L2,32.8L7.1,34l-0.3,1.1l-2.2-0.5l-0.5,2.1l2.2,0.5l-0.3,1.1L1,37.2L1.2,36z"/>
		<path class="st1" d="M3.8,32.1c-0.3-0.2-0.5-0.5-0.6-0.8c-0.2-0.3-0.2-0.6-0.3-1c0-0.3,0-0.7,0.2-1.1c0.1-0.4,0.3-0.7,0.6-0.9
			c0.2-0.2,0.5-0.4,0.8-0.6c0.3-0.1,0.6-0.2,1-0.2c0.4,0,0.7,0.1,1.1,0.2c0.4,0.1,0.7,0.3,0.9,0.5c0.3,0.2,0.5,0.5,0.6,0.8
			c0.2,0.3,0.2,0.6,0.3,1c0,0.3,0,0.7-0.2,1.1c-0.1,0.4-0.3,0.7-0.6,0.9c-0.2,0.3-0.5,0.4-0.8,0.6c-0.3,0.1-0.6,0.2-1,0.2
			c-0.4,0-0.7-0.1-1.1-0.2C4.4,32.5,4,32.3,3.8,32.1z M5.8,31.7c0.2,0,0.4,0,0.6,0c0.2,0,0.4-0.1,0.5-0.3c0.2-0.1,0.3-0.3,0.4-0.6
			c0.1-0.2,0.1-0.5,0.1-0.7c0-0.2-0.1-0.4-0.2-0.6c-0.1-0.2-0.3-0.3-0.4-0.4c-0.2-0.1-0.4-0.2-0.6-0.3c-0.2-0.1-0.4-0.1-0.7-0.2
			c-0.2,0-0.4,0-0.6,0c-0.2,0-0.4,0.1-0.5,0.3c-0.2,0.1-0.3,0.3-0.4,0.6c-0.1,0.2-0.1,0.5-0.1,0.7c0,0.2,0.1,0.4,0.2,0.6
			c0.1,0.2,0.3,0.3,0.5,0.4c0.2,0.1,0.4,0.2,0.6,0.3C5.3,31.6,5.5,31.7,5.8,31.7z"/>
		<path class="st1" d="M5.3,24.4l3.7,0.7l0,0l-2.6-2.8l0.8-1.4l4.6,2.6l-0.5,0.9l-3.2-1.8l0,0l2.6,2.9l-0.4,0.8l-3.8-0.7l0,0
			l3.2,1.8l-0.5,0.9l-4.6-2.6L5.3,24.4z"/>
		<path class="st1" d="M10.5,16.7l0.8,0.6l-1.7,2.2l0.9,0.7l1.5-2l0.7,0.5l-1.5,2l1,0.8l1.7-2.2l0.8,0.6l-2.4,3.2l-4.2-3.2
			L10.5,16.7z"/>
		<path class="st1" d="M14.2,15.7c-0.1-0.2-0.1-0.3-0.1-0.5c0-0.2,0-0.3,0.1-0.5c0.1-0.2,0.2-0.3,0.3-0.4c0.1-0.1,0.3-0.2,0.4-0.3
			c0.2-0.1,0.3-0.1,0.5-0.1c0.2,0,0.3,0,0.5,0.1c0.2,0.1,0.3,0.2,0.4,0.3c0.1,0.1,0.2,0.3,0.3,0.4c0.1,0.2,0.1,0.3,0.1,0.5
			c0,0.2,0,0.3-0.1,0.5c-0.1,0.2-0.2,0.3-0.3,0.4c-0.1,0.1-0.3,0.2-0.4,0.3c-0.2,0.1-0.3,0.1-0.5,0.1c-0.2,0-0.3,0-0.5-0.1
			c-0.2-0.1-0.3-0.2-0.4-0.3C14.4,16,14.3,15.8,14.2,15.7z"/>
		<path class="st1" d="M20.8,9.4c-0.1-0.1-0.2-0.1-0.4-0.1c-0.1,0-0.3,0-0.4,0c-0.1,0-0.3,0.1-0.4,0.2c-0.2,0.1-0.4,0.3-0.5,0.5
			c-0.1,0.2-0.1,0.4-0.1,0.6c0,0.2,0,0.4,0.1,0.6c0.1,0.2,0.2,0.4,0.3,0.6c0.1,0.2,0.3,0.3,0.4,0.5c0.2,0.1,0.3,0.2,0.5,0.3
			c0.2,0.1,0.4,0.1,0.6,0.1c0.2,0,0.4-0.1,0.6-0.3c0.3-0.2,0.5-0.4,0.5-0.7c0-0.3,0-0.6-0.2-0.9l0.9-0.6c0.2,0.3,0.3,0.6,0.3,0.9
			s0,0.6,0,0.8c-0.1,0.3-0.2,0.5-0.3,0.8c-0.2,0.2-0.4,0.4-0.6,0.6c-0.3,0.2-0.7,0.4-1,0.4c-0.3,0.1-0.7,0.1-1,0
			c-0.3-0.1-0.6-0.2-0.9-0.4c-0.3-0.2-0.5-0.5-0.8-0.8c-0.2-0.3-0.4-0.7-0.5-1c-0.1-0.3-0.1-0.7-0.1-1c0-0.3,0.1-0.6,0.3-0.9
			c0.2-0.3,0.4-0.6,0.8-0.8c0.2-0.2,0.5-0.3,0.7-0.4c0.3-0.1,0.5-0.1,0.8-0.1c0.3,0,0.5,0.1,0.7,0.2c0.2,0.1,0.5,0.3,0.7,0.5
			l-0.9,0.6C21,9.5,20.9,9.4,20.8,9.4z"/>
		<path class="st1" d="M22.7,8.3c0-0.4,0-0.7,0.1-1C22.9,7,23,6.7,23.2,6.4c0.2-0.3,0.5-0.5,0.9-0.7c0.4-0.2,0.7-0.3,1.1-0.3
			c0.3,0,0.7,0,1,0.2c0.3,0.1,0.6,0.3,0.8,0.6c0.3,0.2,0.5,0.5,0.6,0.9c0.2,0.3,0.3,0.7,0.3,1c0,0.3,0,0.7-0.1,1
			c-0.1,0.3-0.2,0.6-0.5,0.9c-0.2,0.3-0.5,0.5-0.9,0.7c-0.4,0.2-0.7,0.3-1.1,0.3c-0.3,0-0.7,0-1-0.1c-0.3-0.1-0.6-0.3-0.8-0.5
			c-0.3-0.2-0.5-0.5-0.6-0.9C22.9,9,22.8,8.6,22.7,8.3z M24.4,9.4c0.1,0.2,0.3,0.3,0.5,0.4c0.2,0.1,0.4,0.1,0.6,0.2
			c0.2,0,0.4,0,0.7-0.2c0.2-0.1,0.4-0.3,0.5-0.4c0.1-0.2,0.2-0.4,0.2-0.6c0-0.2,0-0.4,0-0.6c0-0.2-0.1-0.4-0.2-0.6
			c-0.1-0.2-0.2-0.4-0.4-0.6c-0.1-0.2-0.3-0.3-0.5-0.4c-0.2-0.1-0.4-0.2-0.6-0.2c-0.2,0-0.4,0-0.7,0.2C24.3,6.7,24.1,6.8,24,7
			c-0.1,0.2-0.2,0.4-0.2,0.6c0,0.2,0,0.4,0,0.6c0.1,0.2,0.1,0.4,0.2,0.6C24.2,9,24.3,9.2,24.4,9.4z"/>
		<path class="st1" d="M29.1,3.7l2.3,3l0,0l0-3.8l1.5-0.5l1.6,5l-1,0.3l-1.2-3.5l0,0l-0.1,3.9l-0.8,0.3l-2.4-3.1l0,0l1.1,3.5l-1,0.3
			l-1.6-5L29.1,3.7z"/>
		<path class="st1" d="M35.9,1.8l1.8,3.4l0,0l0.6-3.7l1.6-0.2l0.8,5.2l-1.1,0.2l-0.6-3.7l0,0l-0.7,3.9l-0.9,0.1l-1.8-3.4l0,0
			l0.6,3.6l-1.1,0.2l-0.8-5.2L35.9,1.8z"/>
		<path class="st1" d="M45.2,1.1l0,1l-2.8,0l0,1.1l2.5,0l0,0.9l-2.5,0l0,1.3l2.8,0l0,1l-4,0.1l-0.1-5.2L45.2,1.1z"/>
		<path class="st1" d="M49.2,1.5c0.2,0,0.4,0.1,0.6,0.2C50,1.8,50.1,1.9,50.2,2c0.1,0.1,0.2,0.3,0.3,0.5c0.1,0.2,0.1,0.4,0,0.6
			c0,0.3-0.1,0.6-0.3,0.8c-0.2,0.2-0.4,0.4-0.7,0.4l0,0c0.1,0.1,0.2,0.1,0.3,0.2C50,4.6,50,4.7,50.1,4.9c0,0.1,0.1,0.2,0.1,0.4
			c0,0.1,0,0.3,0,0.4c0,0.1,0,0.2,0,0.3c0,0.1,0,0.2,0,0.3c0,0.1,0,0.2,0,0.3c0,0.1,0,0.2,0.1,0.3l-1.1-0.1c0-0.2-0.1-0.4-0.1-0.6
			c0-0.2,0-0.5,0-0.7c0-0.3-0.1-0.5-0.2-0.6c-0.1-0.1-0.3-0.2-0.6-0.3l-1.1-0.1l-0.2,2l-1.1-0.1l0.6-5.2L49.2,1.5z M48.5,3.8
			c0.3,0,0.5,0,0.6-0.1s0.2-0.3,0.3-0.5c0-0.3,0-0.4-0.1-0.6c-0.1-0.1-0.3-0.2-0.6-0.2l-1.3-0.1l-0.2,1.5L48.5,3.8z"/>
		<path class="st1" d="M54.9,4.1c0-0.1-0.1-0.2-0.2-0.3c-0.1-0.1-0.2-0.2-0.3-0.3c-0.1-0.1-0.2-0.1-0.4-0.2c-0.3-0.1-0.5-0.1-0.7,0
			c-0.2,0.1-0.4,0.1-0.5,0.3S52.6,3.9,52.4,4c-0.1,0.2-0.2,0.4-0.2,0.6c-0.1,0.2-0.1,0.4-0.1,0.6c0,0.2,0,0.4,0.1,0.6
			c0.1,0.2,0.2,0.4,0.3,0.5c0.2,0.1,0.4,0.2,0.6,0.3c0.3,0.1,0.6,0,0.9-0.1c0.2-0.2,0.4-0.4,0.6-0.7l1.1,0.3
			c-0.1,0.3-0.3,0.6-0.4,0.8c-0.2,0.2-0.4,0.4-0.6,0.5c-0.2,0.1-0.5,0.2-0.8,0.2c-0.3,0-0.6,0-0.9-0.1c-0.4-0.1-0.7-0.2-1-0.5
			c-0.3-0.2-0.5-0.5-0.6-0.8c-0.2-0.3-0.3-0.6-0.3-1c0-0.3,0-0.7,0.1-1.1c0.1-0.4,0.2-0.7,0.4-1c0.2-0.3,0.4-0.5,0.7-0.7
			c0.3-0.2,0.6-0.3,0.9-0.4c0.3-0.1,0.7,0,1.1,0.1c0.3,0.1,0.5,0.2,0.8,0.3c0.2,0.1,0.4,0.3,0.6,0.5c0.2,0.2,0.3,0.4,0.3,0.7
			C56,4.1,56,4.4,56,4.7l-1.1-0.3C54.9,4.3,54.9,4.2,54.9,4.1z"/>
		<path class="st1" d="M58.5,3.8l-1.7,4.9l-1.1-0.4l1.7-4.9L58.5,3.8z"/>
		<path class="st1" d="M62.1,5.2l-0.4,5.6l-1.1-0.5l0.1-1.2l-1.8-0.8l-0.9,0.9L57,8.7l4-4L62.1,5.2z M60.8,8.2l0.2-2l0,0l-1.4,1.5
			L60.8,8.2z"/>
		<path class="st1" d="M65.5,7l-2.2,3.7l2.2,1.3L65,12.8l-3.2-1.9l2.7-4.5L65.5,7z"/>
		<path class="st1" d="M68.9,11.9c0.2-0.1,0.3-0.1,0.5-0.1c0.2,0,0.3,0,0.5,0c0.2,0,0.3,0.1,0.5,0.2c0.1,0.1,0.2,0.2,0.3,0.4
			c0.1,0.2,0.1,0.3,0.1,0.5c0,0.2,0,0.3,0,0.5c0,0.2-0.1,0.3-0.2,0.5c-0.1,0.1-0.2,0.2-0.4,0.3c-0.2,0.1-0.3,0.1-0.5,0.1
			c-0.2,0-0.3,0-0.5,0c-0.2,0-0.3-0.1-0.5-0.2c-0.1-0.1-0.2-0.2-0.3-0.4c-0.1-0.2-0.1-0.3-0.1-0.5c0-0.2,0-0.3,0.1-0.5
			c0-0.2,0.1-0.3,0.2-0.5C68.6,12.1,68.8,12,68.9,11.9z"/>
		<path class="st1" d="M72.4,19.3c-0.2-0.1-0.5-0.3-0.6-0.5c-0.2-0.2-0.3-0.4-0.4-0.6c-0.1-0.2-0.1-0.4-0.1-0.6c0-0.2,0-0.4,0.1-0.6
			c0.1-0.2,0.2-0.4,0.4-0.5c0.1-0.1,0.3-0.2,0.4-0.3c0.2-0.1,0.3-0.1,0.5-0.1c0.2,0,0.3,0,0.5,0.1c0.2,0,0.3,0.1,0.5,0.2
			c0-0.2,0.1-0.4,0.1-0.6c0.1-0.2,0.2-0.4,0.4-0.5c0.1-0.1,0.3-0.2,0.4-0.2c0.2,0,0.3,0,0.5,0c0.2,0,0.3,0.1,0.5,0.2
			c0.2,0.1,0.3,0.2,0.4,0.3c0.1,0.1,0.2,0.3,0.3,0.5c0.1,0.2,0.1,0.3,0.1,0.5c0,0.2,0,0.3-0.1,0.5c-0.1,0.2-0.2,0.3-0.3,0.4
			c-0.2,0.2-0.5,0.3-0.8,0.3c-0.3,0-0.6,0-0.8-0.1l-0.2,1.1c0.1,0,0.2-0.1,0.3-0.1c0.1,0,0.2-0.1,0.3-0.2l0.6,0.7
			c-0.2,0.1-0.4,0.2-0.6,0.3c-0.2,0.1-0.4,0.1-0.7,0.1l-0.2,1.6l-0.8-1l0.1-0.7C72.9,19.5,72.6,19.4,72.4,19.3z M73.2,17.1
			c-0.1,0-0.2,0-0.3,0c-0.1,0-0.2,0-0.3,0c-0.1,0-0.2,0.1-0.3,0.1c-0.1,0.1-0.1,0.1-0.2,0.2c0,0.1-0.1,0.2-0.1,0.3
			c0,0.1,0,0.2,0,0.3c0,0.1,0.1,0.2,0.1,0.2c0.1,0.1,0.3,0.2,0.4,0.3c0.2,0,0.3,0.1,0.5,0.1l0.2-1.4C73.4,17.2,73.3,17.2,73.2,17.1z
			 M75.6,16.4c0-0.1,0-0.3-0.1-0.3c-0.1-0.1-0.2-0.1-0.3-0.2c-0.1,0-0.2,0-0.3,0.1c-0.1,0.1-0.2,0.2-0.2,0.4c0,0.1-0.1,0.3-0.1,0.4
			c0.2,0,0.3,0.1,0.5,0.1c0.2,0,0.3-0.1,0.4-0.2C75.5,16.6,75.6,16.5,75.6,16.4z"/>
		<path class="st1" d="M80.4,21.5l-2.5,2.9l0,0l3.7-0.8l0.8,1.4l-4.5,2.7l-0.5-0.9l3.2-1.9l0,0l-3.8,0.8l-0.5-0.8l2.5-3l0,0
			l-3.2,1.9l-0.5-0.9l4.5-2.7L80.4,21.5z"/>
		<path class="st1" d="M84,28.6l-4.1,3.8l-0.5-1.1l0.9-0.8l-0.7-1.8l-1.2,0.1L78,27.7l5.6-0.2L84,28.6z M81,29.9l1.5-1.3l0,0l-2,0.1
			L81,29.9z"/>
		<path class="st1" d="M85.3,32.3l-2.8,3l0,0l3.4-0.9l0.3,1L81,36.8l-0.3-1.1l2.8-3l0,0l-3.4,0.9l-0.3-1l5.1-1.3L85.3,32.3z"/>
		<path class="st1" d="M86.3,36.2l0.2,1.3L84.6,39l2.2,0.9l0.2,1.3l-3.5-1.5l-2,0.3l-0.2-1.1l2-0.3L86.3,36.2z"/>
		<path class="st1" d="M87,45.8l-3.7,1l0,0l3.5,1.4l-0.1,1.6l-5.2-0.3l0.1-1.1l3.7,0.2l0,0l-3.6-1.5l0.1-0.9l3.7-1.1l0,0L81.8,45
			l0.1-1.1l5.2,0.3L87,45.8z"/>
		<path class="st1" d="M85,50.8c0.3,0.2,0.6,0.4,0.8,0.7c0.2,0.3,0.3,0.6,0.4,0.9c0.1,0.3,0.1,0.7,0,1.1c-0.1,0.4-0.2,0.7-0.4,1
			c-0.2,0.3-0.5,0.5-0.7,0.7c-0.3,0.2-0.6,0.3-1,0.3c-0.4,0-0.7,0-1.1-0.1c-0.4-0.1-0.7-0.2-1-0.4c-0.3-0.2-0.5-0.4-0.7-0.7
			c-0.2-0.3-0.3-0.6-0.4-0.9c-0.1-0.3-0.1-0.7,0-1.1c0.1-0.4,0.2-0.7,0.4-1c0.2-0.3,0.4-0.5,0.7-0.7c0.3-0.2,0.6-0.3,0.9-0.3
			c0.3,0,0.7,0,1.1,0.1C84.4,50.5,84.7,50.7,85,50.8z M83.1,51.5c-0.2,0-0.4,0-0.6,0.1c-0.2,0.1-0.3,0.2-0.5,0.3
			c-0.1,0.2-0.2,0.4-0.3,0.6c-0.1,0.3-0.1,0.5,0,0.7c0.1,0.2,0.2,0.4,0.3,0.5c0.1,0.1,0.3,0.3,0.5,0.4c0.2,0.1,0.4,0.2,0.6,0.2
			c0.2,0,0.4,0.1,0.7,0.1c0.2,0,0.4,0,0.6-0.1c0.2-0.1,0.4-0.2,0.5-0.3c0.1-0.2,0.2-0.4,0.3-0.6c0.1-0.3,0.1-0.5,0-0.7
			c-0.1-0.2-0.2-0.4-0.3-0.5c-0.1-0.1-0.3-0.3-0.5-0.4c-0.2-0.1-0.4-0.2-0.6-0.2C83.5,51.5,83.3,51.5,83.1,51.5z"/>
		<path class="st1" d="M84.2,59.8c-0.1,0.2-0.2,0.4-0.3,0.6s-0.3,0.3-0.5,0.3c-0.2,0.1-0.3,0.1-0.5,0.1c-0.2,0-0.4,0-0.6-0.1
			c-0.3-0.1-0.5-0.3-0.7-0.5c-0.2-0.2-0.3-0.5-0.3-0.8l0,0c-0.1,0.1-0.2,0.2-0.3,0.3s-0.2,0.1-0.3,0.1c-0.1,0-0.3,0-0.4,0
			c-0.1,0-0.3,0-0.4-0.1c-0.1,0-0.2-0.1-0.3-0.1c-0.1,0-0.2-0.1-0.3-0.1c-0.1,0-0.2,0-0.3-0.1c-0.1,0-0.2,0-0.3,0l0.4-1.1
			c0.2,0,0.4,0,0.6,0.1c0.2,0.1,0.4,0.1,0.6,0.2c0.3,0.1,0.5,0,0.7,0c0.2-0.1,0.3-0.3,0.4-0.5l0.4-1.1l-1.9-0.7l0.4-1.1l4.9,1.8
			L84.2,59.8z M82.1,58.6c-0.1,0.2-0.1,0.5,0,0.6c0.1,0.2,0.2,0.3,0.5,0.4c0.2,0.1,0.4,0.1,0.6,0c0.2-0.1,0.3-0.3,0.4-0.5l0.4-1.2
			l-1.4-0.5L82.1,58.6z"/>
		<path class="st1" d="M81.4,65.9l-0.9-0.4l1.3-2.5l-1-0.5l-1.2,2.3l-0.8-0.4l1.2-2.3l-1.1-0.6L77.5,64l-0.9-0.4l1.8-3.5l4.7,2.4
			L81.4,65.9z"/>
	</g>
	<g id="Group_2097_1_">
		<path id="Path_3205_1_" class="st2" d="M10.1,53.6c-0.2,0-0.4-0.1-0.4,0c-0.1,0.2,0.1,0.4,0.3,0.5h0.1c0.2,0,0.5,0,0.7,0
			C10.8,53.7,10.4,53.7,10.1,53.6z"/>
		<ellipse id="Ellipse_58_1_" class="st1" cx="44" cy="43.6" rx="33.6" ry="33.9"/>
		<path id="Path_3016_1_" d="M21.5,30.6L21.5,30.6l0-0.2C21.5,30.4,21.5,30.5,21.5,30.6z"/>
		<path id="Path_3191_1_" class="st2" d="M34.1,35.5c0,1,0.4,2,1.1,2.8c0.5,0.7,1.3,1.1,2.2,1c2.1-0.4,3.1-2.1,3.3-4.1
			c-1.1,0.4-2,1.2-3.1,1.5c-0.2,0.1-0.5,0-0.6-0.1c-0.4-0.3-0.6-0.7-0.6-1.2c-0.1-1.4-0.1-2,1.1-2.9c0.6-0.4,1.2-0.8,1.9-1.2
			c0.1-0.1,0.4-0.2,0.2-0.4c-0.5-0.3-0.8-0.8-1.4-0.9c-0.8-0.1-1.6,0.1-2.2,0.7C34.5,32,33.9,33.7,34.1,35.5z M35,35
			c0.2-0.8,0.5-1.5,0.9-2.1C35.7,33.6,35.3,34.4,35,35z M34.9,34.3c0.2-1,0.6-2,1.2-2.8L34.9,34.3z"/>
		<path id="Path_3192_1_" class="st3" d="M44.4,53.6c-0.2,1.1-0.2,2.1,0,3.2c-0.4-0.9-0.5-1.9-0.2-2.9c-0.3,0.4-0.5,0.7-0.7,1
			c-1,1.6-1.9,3.4-2.6,5.2c-0.1,0.3,0,0.3,0.2,0.3c1.3,0.1,2.5,0.2,3.8,0.4c0.1,0,0.4,0.1,0.4-0.1c0.2-0.4,0.5-0.8,0.8-1.1
			c0.6-0.7,0.9-1.6,0.9-2.6c0-0.9,0.3-1.2,1.1-1.4c0.2,0,0.2-0.1,0.1-0.3c-0.3-1-0.9-1.9-1.7-2.7c-0.5-0.4-0.6-0.4-1,0.2
			c-0.4,0.6-0.7,1.3-0.8,2c0,0.1,0,0.3-0.3,0.3c-0.3,0-0.1-0.2-0.1-0.3C44.4,54.4,44.4,54,44.4,53.6z M43.8,56l0.3,1.7
			C43.9,57.2,43.8,56.6,43.8,56z M43.7,57.6l0.7,1.4C44,58.7,43.7,58.2,43.7,57.6L43.7,57.6z"/>
		<path id="Path_3193_1_" class="st2" d="M37.6,32.6c-1.2,0.8-1.6,2.4-0.8,3.7c0.1,0.3,0.4,0.4,0.6,0.3c0,0,0,0,0,0h0.1
			c1-0.5,1.9-1,2.8-1.6c0.3-0.1,0.5-0.4,0.6-0.7c-0.2,0.1-0.4,0.2-0.6,0.3c-0.8,0.7-1.7,1.2-2.7,1.6c-0.3,0.2-0.7,0-0.9-0.3
			c0,0,0,0,0,0c0-0.1,0-0.1,0-0.2c-0.3-1,0.1-2.1,1-2.7c0.8-0.5,1.6-0.9,2.4-1.3c0.1-0.1,0.2-0.2,0.2-0.3c0-0.2-0.2-0.3-0.3-0.3
			c-0.1,0-0.3,0-0.4,0.2c-0.1,0.2-0.1,0.2-0.2,0.2C38.8,31.8,38.2,32.2,37.6,32.6z"/>
		<path id="Path_3194_1_" class="st2" d="M30,38.6c-0.1,0.2-0.2,0.3-0.2,0.5c0.1,0.4,0,0.8-0.1,1.2l4.2-3.2c0.1-0.1,0.2-0.2,0.1-0.3
			c-0.1-0.3,0-0.7-0.2-1c-0.2,0.1-0.4,0.4-0.7,0.4c0.1-0.2,0.4-0.4,0.6-0.6c-0.2,0-0.4,0.1-0.6,0.2l-3.3,2.5
			c-0.1,0.1-0.2,0.2-0.2,0.3C29.7,38.8,29.8,38.5,30,38.6z"/>
		<path id="Path_3195_1_" class="st2" d="M28.1,42.5c0.1,0,0.2-0.1,0.2-0.1c1.5-1.2,3-2.3,4.5-3.4c0.4-0.3,0.7-0.6,1-0.9
			c0.1-0.1,0.1-0.3,0-0.4c0,0,0,0,0,0c-0.1-0.2-0.2,0-0.3,0c-0.3,0.1-0.5,0.3-0.7,0.5c-1.5,1.1-2.9,2.2-4.4,3.4
			C28,41.8,27.8,42.1,28.1,42.5z"/>
		<path id="Path_3196_1_" class="st4" d="M29.8,42.1c-0.3,0.4-0.4,0.9-0.3,1.4c0.3,1,1.4,1.6,2.4,1.3c-0.5,0.3-1.1,0.3-1.6,0.1
			c0.5,0.5,1.2,0.6,1.9,0.4c-0.3,0.2-0.8,0.4-1.2,0.3c-0.5,0-0.7-0.4-1-0.8c0,0.4-0.1,0.8-0.4,1.1c-0.2,0.2-0.4,0.4-0.6,0.7
			c-0.3,0.3-0.3,0.7,0,1c0.4,0.4,0.9,0.7,1.4,0.7c0.2,0,0.5-0.1,0.6-0.3c0.6-0.8,1.1-1.5,1.5-2.4c0.3-0.5-0.3-0.9,0-1.4
			c0,0-0.1-0.1-0.1-0.1C32.3,44,32.1,44,31.9,44h-1.4c0.6-0.1,1.2-0.1,1.8-0.1c0.3,0,0.7,0.4,0.6,0.6c-0.1,0.1-0.1,0.4,0,0.5
			c0.1,0.1,0.1,0.3,0,0.4c-0.3,0.7-0.7,1.4-1.1,2.1c-0.2,0.2-0.3,0.4-0.4,0.6h0.1c0,0,0.1,0,0.1-0.1c1.1-1,1.8-2.4,2-3.9
			c0.2-0.7-0.2-1.4-0.9-1.7c-0.5-0.3-1.1-0.4-1.7-0.5C30.4,41.9,30,41.7,29.8,42.1z"/>
		<path id="Path_3197_1_" class="st4" d="M36.8,58c0,0.1-0.1,0.2,0,0.3c0.1,0.1,0.1-0.1,0.2-0.2c0.4-0.8,0.8-1.6,1.2-2.3
			c0.3-0.6,0.7-1.1,1.1-1.5c0,0.1,0,0.2-0.1,0.2c-0.7,1.1-1.4,2.3-2,3.5c-0.2,0.2-0.1,0.6,0.1,0.8c0.6,0.7,1.4,1.2,1.8,2
			c0.1,0.1,0.2,0.2,0.3,0.3s0.2,0,0.3-0.1c0.2-1,0.5-2,1-3c0.1-0.5,0.4-0.9,0.7-1.3c0,0.1-0.1,0.2-0.1,0.2c-0.6,1.3-1.1,2.6-1.5,4
			c-0.1,0.3,0,0.3,0.2,0.4c0.6,0.1,1.1,0.1,1.7,0.1c1.3,0.1,2.5,0.3,3.7,0.6l6.2,1.7c0.3,0.1,0.6,0.1,0.8-0.2c0.4-0.6,0.8-1.3,1.2-2
			c0.7-1.3,1.5-2.5,2.4-3.6c0.5-0.5,0.9-1.1,1.4-1.7c-0.1,0-0.2,0-0.2,0c-1.3,1.2-2.5,2.5-3.5,4c-0.6,0.9-1.3,1.8-1.8,2.8
			c-0.1,0.2-0.3,0.3-0.5,0.2c0,0,0,0,0,0l0,0c-0.5-0.2-1.1-0.4-1.6-0.6c-2.5-0.9-5-1.5-7.7-1.6c-0.5,0-1-0.1-1.6-0.2
			c-0.3-0.1-0.4-0.2-0.3-0.5c0.2-0.5,0.4-1,0.6-1.5c0.6-2,1.6-3.8,3.1-5.3c0.3-0.2,0.2-0.5,0.1-0.8l-0.5,0.4
			c-0.4,0.6-0.8,1.1-1.2,1.6c-0.4,0.7-0.8,1.3-1.2,2c0.3-0.7,0.7-1.4,1.2-2c0.3-0.6,0.7-1.1,1.2-1.6c0-0.2,0.2-0.3,0.3-0.4
			c0.1-0.1,0.2-0.2,0.2-0.4c0-0.5-0.3-0.9-0.3-1.4c0,0,0-0.1-0.1-0.1c-0.4,0-0.9-0.3-1.3,0c0-0.2-0.2-0.2-0.3-0.1
			c-0.3,0.2-0.6,0.4-0.9,0.6c-1.3,1.3-2.5,2.8-3.4,4.4C37.5,56.5,37.2,57.2,36.8,58z M38.8,57.7c0.2-1.5,0.7-2.9,1.5-4.2L38.8,57.7z
			 M40,55.7c0.2-0.9,0.7-1.7,1.3-2.4C40.9,54.2,40.5,55,40,55.7L40,55.7z M42.3,52.8c-0.4,0.9-0.9,1.6-1.6,2.3
			C41,54.2,41.5,53.4,42.3,52.8z M42.1,51.2c-0.5,0.6-1.1,1.2-1.8,1.7C40.8,52.3,41.4,51.7,42.1,51.2z"/>
		<path id="Path_3198_1_" class="st3" d="M34.1,53.7c0.8,0.6,1.4,1.6,1.7,2.6c0.2,0.6,0.4,1.2,0.8,1.6c1-2.5,2.6-4.8,4.5-6.7
			c-0.7-0.3-1.5-0.4-2.2-0.2c-1.7,0.3-3.4,1-4.8,2C33.7,53.3,33.8,53.4,34.1,53.7z M37.6,52c-0.7,0.8-1.3,1.7-1.7,2.6
			C36.2,53.5,36.8,52.6,37.6,52z"/>
		<path id="Path_3199_1_" class="st1" d="M29.2,48.1c-0.5-0.2-0.7-0.9-0.5-1.4c0,0,0,0,0,0c0-0.1,0.1-0.1,0.1-0.2
			c0.1-0.2,0.3-0.4,0.4-0.5c0.3-0.4,0.7-0.7,0.4-1.2c-0.1-0.2-0.2-0.4-0.3-0.6c0-0.2-0.1-0.2-0.3-0.1c-0.9,0.7-1.7,1.5-2.6,2.2
			l-2.4,2c-0.6,0.5-1.2,1-1.9,1.6c-0.1,0.1-0.2,0.1-0.2,0.3c0,0.3,0,0.6,0,0.8c0,0.7,0.3,1.3,0.9,1.7c1.2,0.9,2.2,1.9,3.2,3
			c0.3,0.3,0.6,0.6,0.8,1c-0.6-0.4-1.2-0.9-1.8-1.4c0.9,1,1.7,2,2.6,3.1c0-0.4-0.2-0.8,0-1.1c0.2-0.5,0.2-0.9-0.3-1.2
			c0,0-0.1-0.1-0.1-0.1c-0.8-0.8-1.6-1.6-2.4-2.4c-0.5-0.5-0.9-1.2-1.2-1.9c0.3,0.2,0.5,0.4,0.8,0.7c1.2,1.2,2.4,2.5,3.4,3.8
			c0,0.1,0,0.2,0.2,0.2c0.1,0,0.2-0.1,0.2-0.2c0-0.1,0-0.3,0-0.4c0-0.3-0.1-0.7,0.1-1c0.1-0.2,0.1-0.5,0-0.7
			c-0.6-1.1-1.1-2.3-1.5-3.6c-0.1-0.1-0.1-0.3-0.1-0.5c0-0.2-0.2-0.3-0.1-0.5c0.8,1.1,1.4,2.3,1.9,3.6c0,0.1-0.1,0.3,0.1,0.3
			c0.1,0,0.2-0.1,0.2-0.2c0.6-0.7,1.2-1.4,1.9-1.9c0.3-0.1,0.4-0.4,0.5-0.6c0-0.4,0.1-0.8,0.1-1.1c0.1-0.4,0.2-0.8,0.4-1.3
			c-0.4,0.1-0.7,0.4-1.1,0.4C30.2,48.6,29.6,48.4,29.2,48.1z M27.9,54.5c-0.5-0.6-0.8-1.3-1-2C27.4,53.1,27.7,53.8,27.9,54.5z"/>
		<path id="Path_3200_1_" class="st2" d="M33.1,35.5c0.4,0,0.7-0.2,0.8-0.6c0-0.4,0-0.8,0.1-1.2c0.2-1.5,1.1-2.9,2.4-3.8
			c-0.3,0.1-0.6,0.2-0.9,0.3c-0.8,0.6-1.5,1.4-1.9,2.3c-0.3,0.9-0.5,1.8-0.6,2.8C32.9,35.4,33,35.4,33.1,35.5
			C33,35.5,33,35.5,33.1,35.5L33.1,35.5z"/>
		<path id="Path_3201_1_" class="st2" d="M28.8,40.9h-1.1c0.2,0.8,0.2,0.8,0.8,0.3C28.6,41.2,28.7,41.1,28.8,40.9z"/>
		<path id="Path_3202_1_" class="st2" d="M11.3,56.9c0.6,0.2,1.3-0.1,1.6-0.6c0.1-0.1,0.2-0.2,0.3-0.3c0.8-0.8,1.8-1.4,2.5-2.2
			c0.3-0.3,0.6-0.7,0.6-1.1c-0.2,0.3-0.5,0.4-0.8,0.3c-0.4-0.1-0.6,0.1-0.8,0.4c-0.7,0.8-1.5,1.5-2.3,2.1c-0.6,0.5-1.2,1-1.8,1.5
			C10.9,56.9,11.1,56.9,11.3,56.9z"/>
		<path id="Path_3203_1_" class="st2" d="M13,57c0.6-0.7,1.3-1.4,2-2c0.8-0.6,1.3-1.4,1.6-2.3c0.2-0.6,0-1.2-0.5-1.6
			c-0.4-0.3-1-0.3-1.4-0.1c-1.4,0.7-2.6,1.5-3.7,2.6c-0.1,0.1-0.2,0.2-0.1,0.4l0,0c0.1,0.1,0.3,0,0.4-0.1c0.6-0.5,1.1-1,1.6-1.5
			c0.6-0.6,1.3-1,2.1-1.3c0.4-0.1,0.9,0,1.2,0.3c0.3,0.3,0.4,0.7,0.3,1.1c-0.3,1-0.9,1.9-1.8,2.5c-0.6,0.5-1.2,1.1-1.8,1.7
			c-0.2,0.3-0.7,0.5-1.1,0.5h-1.4c0.1,0.3,0.3,0.4,0.5,0.4c0.3,0,0.6,0,0.9,0C12.4,57.6,12.8,57.4,13,57z"/>
		<path id="Path_3204_1_" class="st2" d="M12.7,58.2c0.4,0,0.7,0.2,1.1,0.1C13.5,58,13.1,58,12.7,58.2z"/>
		<path id="Path_3206_1_" class="st2" d="M13.7,46.6c-0.8,0.2-1.6,0.6-2.1,1.3c-1.1,1.5-1.7,3.2-1.7,5c0,0.4,0.2,0.4,0.5,0.4
			c0.3,0,0.3-0.2,0.3-0.4c0-0.6,0-1.2,0.1-1.8C11.1,49.3,12.1,47.6,13.7,46.6z"/>
		<path id="Path_3207_1_" class="st4" d="M23.2,41h0.3c1,0,1.9,0.6,2.3,1.5c0.4,0.8,0.6,1.7,0.6,2.6c0.7-0.1,1.2-0.8,1.2-1.5
			c0-0.6,0-1.1-0.1-1.7c0-0.9-0.6-1.8-1.5-2.1c0.3,0.2,0.7-0.2,1.1,0.2c-0.1-0.4-0.1-0.8,0-1.2c0.1-0.5,0-0.6-0.4-0.5
			c-0.3,0-0.7,0.1-1,0.2c0.1-0.3,0.4-0.3,0.6-0.3c0.9-0.1,1,0,0.8,0.9l0,0c-0.1,0.5,0,0.9,0.4,1.2c0.4,0.2,1,0.2,1.4-0.1
			c0.3-0.2,0.5-0.6,0.4-1c-0.1-0.6-0.4-1.1-0.8-1.5c-0.8-0.7-1.9-0.7-2.7,0c-0.6,0.6-0.8,1.3-1.3,1.9c0.3,0.1,0.5-0.1,0.8-0.1
			c-0.8,0.3-1.6,0.7-2.2,1.3L23.2,41z"/>
		<path id="Path_3208_1_" class="st2" d="M23.1,45.7c0.2-0.6,0.1-1-0.5-1.2C22.8,44.9,22.9,45.3,23.1,45.7z"/>
		<path id="Path_3209_1_" class="st4" d="M24.5,43.6c0.6,0.6,0.8,1.6,0.4,2.4c0.3,0,0.5-0.2,0.7-0.3c0.4-0.4,0.5-0.9,0.3-1.4
			c-0.1-0.9-0.5-1.7-1.1-2.4c-0.5-0.4-1.1-0.7-1.8-0.6c-0.4,0-0.5,0.4-0.8,0.6l1,0.8C23.6,42.9,24.1,43.3,24.5,43.6z"/>
		<path id="Path_3210_1_" class="st4" d="M21.8,43.9c0.1-0.1,0.3-0.2,0.5-0.2c0.5,0.3,0.9,0.7,1.1,1.3c0,0.4-0.2,0.8-0.1,1.2
			c0,0.2,0.1,0.3,0.3,0.3c0.8-0.1,1.4-0.9,1.3-1.7c-0.1-0.5-0.3-0.9-0.7-1.1l-1.7-1.4c-0.2-0.3-0.6-0.3-0.9-0.1c0,0,0,0,0,0
			c0,0-0.1,0.1-0.1,0.1c-0.5,0.7-0.8,1.5-0.7,2.4L21.8,43.9z"/>
		<path id="Path_3211_1_" class="st2" d="M62.2,37.2C62.2,37.2,62.2,37.1,62.2,37.2l-1.4-0.7c0,0.1,0,0.1,0,0.2
			c0.8,0.7,1.4,1.6,1.9,2.5c0,0.1,0.1,0.2,0.2,0.2c0.6,0.2,0.7,0.8,0.9,1.4c0.1-0.3,0.3-0.3,0.5-0.4c0.3-0.2,0.4-0.6,0.2-0.9
			c0,0,0,0,0,0l0,0C63.8,38.5,63.4,37.5,62.2,37.2z M63,38.7c-0.1,0-0.2-0.1-0.2-0.2c0-0.1,0-0.3,0.2-0.3c0.1,0,0.2,0,0.2,0.1
			C63.2,38.6,63.2,38.7,63,38.7L63,38.7z M63.6,39.5c-0.1,0-0.2-0.1-0.2-0.3c0,0,0-0.1,0.2-0.2c0.2,0,0.2,0.1,0.2,0.2
			C63.9,39.3,63.8,39.5,63.6,39.5z"/>
		<path id="Path_3212_1_" class="st1" d="M61.8,76.5c0.1-0.1,0.1-0.3,0-0.4L61,74.9c-0.8,0.5-1,1.4-1.3,2.2c-0.5,1-0.9,2.1-1.2,3.1
			c0,0,0,0,0,0h0.8c0.3-0.7,0.6-1.3,1.1-1.9C60.8,77.8,61.3,77.1,61.8,76.5z"/>
		<path id="Path_3213_1_" class="st1" d="M62.7,76.5c0.1-0.1,0.1-0.3,0-0.4c0,0,0,0,0,0l0,0c-0.4-0.4-0.9-0.9-1.2-1.3
			c0-0.1-0.1-0.2-0.2-0.1c-0.1,0.1-0.1,0.2,0,0.3c0.2,0.3,0.4,0.7,0.7,1c0.2,0.2,0.2,0.6,0,0.8c0,0,0,0,0,0h0
			c-0.7,0.8-1.3,1.7-1.9,2.6c-0.2,0.3-0.4,0.7-0.6,1H60c0.6-1,1.2-1.9,2-2.8L62.7,76.5z"/>
		<path id="Path_3214_1_" class="st4" d="M58.4,59.6c-1,1.2-2,2.5-2.8,3.9c-0.3,0.5-0.7,1-1,1.4c0.6-0.5,1.1-1.1,1.5-1.8
			c1.2-1.8,2.6-3.4,4.1-4.9c1-0.9,2.1-1.7,3.4-2.2c0.4-0.2,0.9-0.2,1.4-0.1c0.2,0,0.5,0,0.7,0c-0.5-0.6-0.6-0.6-1.2-0.3
			c-1,0.4-1.9,0.9-2.9,1.4C60.3,57.7,59.3,58.6,58.4,59.6z"/>
		<path id="Path_3215_1_" class="st4" d="M61.1,53.9c-0.1-0.2-0.3-0.1-0.4-0.2c-0.4-0.5-0.6-0.5-0.9,0c-0.1,0.2-0.2,0.3-0.3,0.6
			l0.9-0.4c-0.3,0.4-0.8,0.5-1.1,0.9C59.9,54.5,60.5,54.2,61.1,53.9z"/>
		<path id="Path_3216_1_" class="st3" d="M58.6,50.5c0.1,0.4,0,0.9-0.4,1.2c-0.7,0.4-1.4,0.8-2.1,1.1c-0.9,0.4-1.9,0.6-3,0.7
			c0.7,0.6,1.1,1.4,1.3,2.3c0.1,0.6,0.2,1.2,0.4,1.7c0.1,0.2,0.1,0.3,0.3,0.1c0.9-0.7,1.7-1.5,2.5-2.3c0.6-0.7,1.1-1.5,1.4-2.3
			c0.2-0.8,0.2-1.6,0-2.4c0-0.6-0.2-1.1-0.5-1.6C58.4,49.5,58.4,50,58.6,50.5z M55.2,56.4c0.1-0.6,0.4-1.1,0.7-1.5
			C55.8,55.4,55.4,55.9,55.2,56.4z M56.1,55.9c0.1-0.4,0.3-0.8,0.6-1.1l0.1,0.1L56.1,55.9z"/>
		<path id="Path_3217_1_" class="st2" d="M48.4,57.3c0.1,0,0.2-0.1,0.3-0.2c0-0.1-0.1-0.2-0.2-0.2c-0.1,0-0.2,0.1-0.2,0.2
			C48.3,57.2,48.3,57.3,48.4,57.3z"/>
		<path id="Path_3218_1_" class="st1" d="M50.5,80c-0.2-0.3-0.4-0.5-0.7-0.5c-0.6-0.2-1.1-0.5-1.6-0.8c-0.1,0.7-0.6,0.8-1.2,0.8
			c-1.3-0.1-2.5-0.4-3.7-0.9c-0.7-0.3-1.4-0.4-2.2-0.5c-1.1-0.1-2.2-0.2-3.4-0.3c-0.9-0.1-1.7-0.2-2.6-0.3c-0.6-0.1-0.6-0.2-0.6-0.8
			c0.1-0.8,0.2-1.5,0.3-2.2c0.2-1.2,0.4-2.4,0.7-3.7c0.2-0.9,0.5-1.8,0.9-2.7c0.2-0.3-0.1-0.5-0.2-0.7c-0.1-0.2-0.2-0.3-0.6-0.3
			c-0.7,0.2-1.4-0.2-1.6-0.9c0,0,0,0,0,0c0-0.1,0-0.2,0-0.4c0-0.3-0.2-0.5-0.5-0.4c0-0.3,0-0.5-0.2-0.7c-0.9,2.7-1.4,5.6-1.4,8.5
			c0.1-0.2,0.1-0.3,0.1-0.5c0.1-1.4,0.3-2.9,0.6-4.3c0.1-0.8,0.4-1.7,0.8-2.4c-0.1,0.7-0.4,1.3-0.5,2c-0.2,0.9-0.3,1.8-0.4,2.7
			c-0.2,1.5-0.3,3-0.4,4.5c0,0.3,0,0.7,0.1,1c0.2-1.9,0-3.8,0.9-5.6c0.1,0.8,0,1.6-0.1,2.5c0,0.4-0.1,0.9-0.1,1.3
			c-0.1,1.2-0.1,2.4-0.1,3.6c0.1,0.6,0.1,1.2,0.1,1.8c0,0.1,0,0.1,0,0.2h2.1c-0.7-1-1-2.3-0.8-3.5c0.1,1.2,0.3,2.4,0.8,3.5h15.8
			C50.6,80.2,50.5,80.1,50.5,80z M33.4,78.4c-0.3-1.5-0.3-3.1,0-4.7V78.4z"/>
		<path id="Path_3219_1_" class="st3" d="M56.5,75.3c0.2,1,0,2-0.4,3c0.9-0.3,1.7-0.8,2.3-1.6c0.3-0.4,0.4-0.9,0.2-1.3
			c0-0.2,0-0.4-0.1-0.7v1c-0.3-1-0.2-2-0.6-3c-0.3-1.3-0.8-2.6-1.5-3.8c-0.8-1.1-1.9-2-3.2-2.4c-0.5-0.1-1,0-1.4,0.2
			c-0.7,0.2-1.5,0.4-2.2,0.5c-0.1,0-0.2,0-0.2,0.1c0,0.1,0.1,0.2,0.2,0.2c0.7,0.3,1.4,0.6,2,1c1.1,0.6,1.9,1.7,2.2,3
			c0.3,1.5,0.3,3,0,4.4c0,0.1,0,0.2-0.1,0.3v-0.7c-0.2,1-0.6,2-0.9,3c-0.1,0.7-0.7,1.3-1.5,1.2c0,0,0,0,0,0h-0.2
			c0.1,0.2,0.2,0.4,0.4,0.6h1.8C55.2,79.3,56.4,77.4,56.5,75.3z M55.3,77.3c0.6-2.3,1.3-4.6,0.8-7.1C56.9,72.6,56.5,75.2,55.3,77.3z
			 M52.9,67.8c1,0.4,3.3,2.6,3,4.4C55.4,70.2,54.1,69,52.9,67.8z"/>
		<path id="Path_3220_1_" class="st1" d="M57.8,80.3h0.4c0.7-1.6,1.2-3.1,1.9-4.6C59.3,77.1,58.5,78.7,57.8,80.3z"/>
		<path id="Path_3221_1_" class="st1" d="M58.1,79.4c0.1-0.3,0.3-0.7,0.5-1c0.2-0.4,0.3-0.8,0.5-1.2c-0.6,0.6-1.2,1.1-2,1.4
			c-0.1,0.1-0.3,0.1-0.4,0.2c-0.5,0.2-1,0.5-1.3,1c-0.1,0.2-0.3,0.4-0.5,0.5h3C57.8,79.9,57.9,79.6,58.1,79.4z"/>
		<path id="Path_3222_1_" class="st3" d="M48.5,54.8c0-0.3,0-0.5-0.1-0.8c-0.3-0.6-0.6-1.1-0.8-1.8c-0.2-0.4,0-0.8,0.3-1l0.1-0.1
			c0.7-0.2,1.4-0.4,2.2-0.5c-0.4-0.3-0.8-0.6-1.3-0.8c-0.2-0.1-0.4-0.3-0.4-0.5c0-0.4-0.2-0.3-0.5-0.1c-0.4,0.3-0.8,0.6-1.2,0.8
			c-0.7,0.4-1.5,0.7-2.3,1C46.3,51.6,47.8,53,48.5,54.8z"/>
		<path id="Path_3223_1_" class="st5" d="M50.7,44.6c-0.3-0.1-0.6-0.3-0.7-0.6c-0.1-0.4-0.3-0.8-0.4-1.1c-0.2,0.6-0.3,1.3-0.2,2
			c0.1,1,1,1.8,2.1,1.7c0,0,0,0,0,0c0.4,0,0.8-0.2,1.1-0.5c0.6-0.5,1.2-1.1,1.6-1.7c0.3-0.3,0.5-0.6,0.5-1c-0.3,0.2-0.5,0.5-0.7,0.7
			c-0.5,0.6-1.2,0.9-2,0.8c-0.3-0.1-0.6,0-0.9,0c0,0-0.1,0-0.1,0C51.1,44.5,50.8,44.7,50.7,44.6z"/>
		<path id="Path_3224_1_" class="st6" d="M48.3,42.3c-0.1-0.4,0-0.7,0.4-0.7c0.4,0,0.9-0.4,1.5-0.1c0.3,0.1,0.6,0.1,0.9,0
			c-0.1,0.4-0.5,0.3-0.6,0.4c0.5,0.8,1.1,0.3,1.6,0.1c0-0.1,0-0.1-0.1-0.1c0,0-0.2-0.2-0.2-0.4s0.2-0.1,0.4,0c0.3,0.1,0.7,0.1,1,0.3
			c0.4,0.1,0.7,0.2,1,0.3c0.4,0.2,0.8,0.4,1.2,0.4c0.1,0,0.2,0,0.2,0.2c0,0.6-0.1,1.2-0.4,1.7c-0.4,0.5-0.6,1.2-0.7,1.8
			c0,0.7-0.4,1.4-1,1.8c0.7-1.4,1.2-2.8,1.4-4.4c-0.2,0.1-0.3,0.3-0.3,0.5c-0.5,1-1.2,1.8-2.1,2.4c-0.9,0.7-2.2,0.6-2.9-0.3
			c-0.2-0.3-0.4-0.6-0.4-0.9c-0.1-0.6-0.1-1.2,0-1.8c0-0.2,0.1-0.5,0-0.7c0,0-0.1,0-0.1,0c-0.1,0.2-0.1,0.5-0.1,0.7
			c0.1,0.8,0.1,1.5,0,2.3c0,0.5,0,0.9,0.1,1.3c0.1,0.5-0.1,1,0.3,1.5c0.1-0.1,0.1-0.2,0.3-0.2c0,0.4,0.5,0.3,0.5,0.3
			c0.5-0.2,0.6-0.6,0.8-1c0-0.1-0.1-0.1-0.2-0.2c-0.3,0-0.5-0.2-0.7-0.3c0.6-0.1,1.2,0,1.7,0.2c-0.1,0.1-0.3,0.2-0.4,0.1
			c-0.1,0-0.2,0-0.2,0.2c0,0.3,0,0.7,0.1,1c0.1,0.4,0.5,0.5,0.8,0.4c0,0.1,0,0.3,0.1,0.4c0.1-0.2,0.3,0,0.5-0.2
			c0.3-0.4,0.9-0.6,1.2-1.1c0-0.1,0.1-0.2,0.3-0.2c0.2,0.1-0.2,0.3,0,0.4c0.2,0.1,0.4,0,0.6-0.1c0.1-0.1,0.2-0.2,0.4-0.2
			c-0.2,0.3-0.5,0.6-0.6,0.9c0.2,0.1,0.3,0,0.4-0.1c1-0.6,2.1-1.2,3.1-1.6c0.8-0.2,1.4-0.8,1.8-1.6c0.3-0.7,0.5-1.4,0.8-2.2
			c0.3,0.2,0.4,0.3,0.6,0.2c0.9-0.3,1.7-0.6,2-1.6c0.2-0.5,0.2-1.1,0.2-1.6c0-0.3-0.1-0.6-0.4-0.8c-0.3-0.2-0.6-0.1-0.9,0.1
			c-0.2,0.2-0.5,0.3-0.7,0.4c-0.3,0.1-0.5,0.3-0.4,0.6c0.1,0.3-0.4,0.5-0.4,0.9c0,0.1-0.2,0-0.3,0s-0.1-0.1,0-0.2
			c0.2-0.3,0.2-0.4,0-0.8c0,0,0.1-0.1,0.1-0.2c0-0.2,0.4-0.5,0-0.7c-0.1-0.1,0-0.2,0.1-0.2c0.1,0,0.1,0.1,0.1,0.1
			c0.1,0.1,0.2,0.1,0.3,0c0.1-0.2-0.3-0.3,0-0.3c0.3-0.1,0.2-0.2,0.1-0.3c-0.1-0.1-0.3-0.3-0.3-0.6c0.1-0.3,0.3-0.3,0.5-0.5
			c-0.2-0.1-0.5-0.1-0.4-0.4c0.1-0.3,0.1,0.1,0.2,0c-0.1-0.8-0.6-1.4-1.4-1.6c-1.4-0.4-2.9-0.8-4.3-1.3c-1.8-0.5-3.7-0.6-5.6-0.1
			c0.6,0.2,1.1,0.8,1.3,1.4c-0.5-0.1-0.8-0.4-1.2-0.6c-0.4-0.2-0.8,0-1,0.4c0,0,0,0,0,0c0,0.1,0,0.1,0,0.2c-0.1,0.5-0.1,1.1-0.1,1.6
			c0,0.1,0,0.2-0.1,0.3c-0.4,0.6-0.8,1.3-1,2c-0.5,1.2-0.4,2.5,0.3,3.6c0-0.2-0.1-0.4,0-0.6l1,2.2C48.8,44,48.7,43.1,48.3,42.3z
			 M61.2,40.9c0.2-0.2,0.3-0.4,0.5-0.6c0.5-0.6,0.9-0.5,1.2,0.3l-0.5-0.2c0.2,0.4,0.6,0.8,0.3,1.3c-0.2,0.4-0.6,0.7-1,0.9
			c0.1-0.4,0.4-0.7,0.5-1c0.1-0.3,0-0.7-0.1-1.1c-0.2,0.2-0.4,0.3-0.3,0.6s-0.1,0.4-0.3,0.5c-0.1,0.1-0.2,0.1-0.2,0l0,0
			c-0.1-0.2-0.3-0.3-0.1-0.6L61.2,40.9z M54.3,41.5c-0.1-0.4,0-0.9,0.3-1.2c-0.1,1,0.5,1.4,1,2C54.9,42.2,54.4,41.9,54.3,41.5
			L54.3,41.5z M56.3,38.2c0.1,0.2-0.1,0.4,0,0.7c0.1,0.2-0.1,0.1-0.1,0.1c-0.4,0.2-0.8,0.3-1.2,0.2c-0.2,0-0.5-0.1-0.8-0.1
			c0.2-0.3,0.5-0.1,0.8-0.2c-0.1-0.3-0.1-0.6,0.1-0.8c-0.5-0.2-0.7,0.1-1,0.4c0.3-0.7,1.2-1,1.9-0.7c0,0,0,0,0,0
			c0.1,0,0.1,0.1,0.2,0.1l0,0c-0.3-0.5-1-0.7-1.5-0.4c-0.1,0-0.1,0-0.4-0.1c0.6-0.5,1.4-0.4,1.8,0.2c0,0,0.1,0.1,0.1,0.1
			c0,0.1,0,0.2,0,0.2l0,0c0.1,0.3,0.3,0.3,0.6,0.1c-0.4,0.4,0.1,0.2,0.1,0.4C56.8,38.6,56.5,38.3,56.3,38.2L56.3,38.2z M59.7,41.2
			c-0.2,0.7-0.7,1.2-1.4,1.4C58.7,42.1,59.2,41.6,59.7,41.2z M56.2,35.3c0.5,0,1,0.3,1.2,0.7c0.1,0.2,0.2,0.3,0.3,0.6
			c-0.1,0-0.2,0-0.2-0.1c-0.7-0.5-1.6-0.6-2.4-0.2c-0.4,0.1-0.8,0.2-1.2,0.2C54.6,35.9,55.3,35.5,56.2,35.3z M53.4,41.3
			c0.1-0.4,0-0.7-0.1-1.1C53.9,40.6,53.9,40.9,53.4,41.3z M53.6,38.3c0.1,0.3-0.2,0.5,0,0.8C53.2,38.8,53.2,38.7,53.6,38.3z M53,41
			c-0.3-0.2-0.6,0.1-1,0.1C52.3,40.6,52.6,40.5,53,41z M50.1,40.9c-0.1-0.1-0.1-0.1-0.3,0c-0.2,0.1-0.6-0.3-0.6-0.5
			c0-0.2,0.1-0.5,0.5-0.7c-0.1,0.2-0.2,0.4-0.2,0.6c0,0.2,0.1,0.2,0.2,0.2s0.3,0,0.2-0.2c0-0.2,0-0.5,0.2-0.7
			c0.1,0.7,0.5,1.3,1.2,1.7C50.8,41.5,50.4,41.3,50.1,40.9z M51.6,37.2c0.5,0.6,0.1,1.7-1.2,2.2l0.5-0.6L50.3,39
			C50.9,38.5,51.7,38.2,51.6,37.2z M48.9,37.1c-0.1-0.2,0.1-0.3,0.2-0.4c0.5-0.6,1-0.6,1.5,0.1c-0.8-0.5-0.9-0.5-1.5,0
			c0.1,0,0.2,0,0.4,0c0.5-0.1,1,0.1,1.3,0.5c0.2,0.2,0.2,0.5,0.1,0.7c-0.2,0.3-0.3,0.6-0.8,0.6c-0.4,0-1-0.2-1.1-0.8
			c0.2,0.3,0.5,0.5,0.8,0.6c-0.1-0.2-0.2-0.4-0.1-0.6c0.1-0.2,0.3-0.3,0.5-0.4c-0.2-0.3-0.6-0.3-0.9-0.2L49,37.3
			c-0.1,0-0.2,0-0.2-0.1C48.7,37,48.9,37.1,48.9,37.1L48.9,37.1z M47.7,41.6c0.4-0.3,0.9-0.6,1.4-0.9C48.9,41.5,48.5,41.7,47.7,41.6
			z"/>
		<path id="Path_3225_1_" class="st2" d="M48.1,35c0.1-0.4,0.4-0.7,0.5-1.2C47.9,34,48.2,34.6,48.1,35z"/>
		<path id="Path_3226_1_" class="st5" d="M53.6,42.9c-0.6-0.1-1.1-0.5-1.7-0.4c-0.6,0.2-1.2,0.1-1.7-0.1c-0.3-0.1-0.5-0.1-0.8-0.1
			c-0.1,0-0.4,0-0.4,0.1s0.2,0.2,0.4,0.2c0.2,0,0.5-0.1,0.7,0c0.5,0.3,1.1,0.4,1.7,0.4c0.8,0.2,1.6,0.1,2.3-0.1
			C54.1,42.8,53.8,42.9,53.6,42.9z"/>
		<path id="Path_3227_1_" class="st2" d="M51.7,43.2c-0.6,0.1-1.3,0-1.9-0.3L49.7,43c0.2,0.3,0.4,0.7,0.5,1c0.1,0.2,0.2,0.3,0.4,0.3
			c1,0.3,2,0.1,2.9-0.3c0.3-0.2,0.6-0.5,0.9-0.8c-0.5,0.1-1.1,0.2-1.6,0.2C52.4,43.5,52.1,43.2,51.7,43.2z"/>
		<path id="Path_3228_1_" class="st2" d="M17.6,48c-0.5-0.9-1.5-1.4-2.5-1.4c-1.1,0.1-2,0.6-2.6,1.5c-1.1,1.4-1.6,3.2-1.4,5
			c0.4-0.4,0.8-0.7,1.2-1c0.9-0.7,1.9-1.3,3-1.6c0.6-0.2,1.3,0.1,1.6,0.7c0.3,0.6,0.3,1.3,0.1,1.9c-0.3,0.7-0.7,1.4-1.3,1.9
			l-1.8,1.7c-0.6,0.5-0.5,0.9,0.3,1.1c0.7,0.2,1.5,0.1,2.2-0.3c1.8-1.1,2.8-3.2,2.7-5.3c0-0.4-0.1-0.8-0.1-1.2
			C18.6,50,18.2,49,17.6,48z M11.2,52.5c0.5-1.7,1.5-3.3,2.9-4.6C13,49.3,12,50.8,11.2,52.5z M17.5,54.9l0.3-2.1
			C17.9,53.5,17.8,54.3,17.5,54.9z"/>
		<path id="Path_3229_1_" class="st3" d="M51.7,62.9c0.2,0.1,0.3-0.1,0.3-0.2c0.6-1.3,1.4-2.5,2.3-3.7c0.3-0.4,0.6-0.6,0.2-1.2
			c-0.3-0.6-0.6-1.3-0.8-2c-0.1-0.4-0.3-0.9-0.6-1.2c-0.2-0.2-0.4-0.2-0.7,0c-1,0.9-2.3,1.3-3.6,1c-0.5-0.2-1.1,0.1-1.3,0.6
			c0,0,0,0,0,0v0.1c-0.1,0.3-0.1,0.7-0.1,1c0,0.7-0.2,1.3-0.6,1.8c-0.2,0.4-0.5,0.7-0.8,1c-0.2,0.2-0.3,0.4-0.2,0.6
			c0,0.1,0.3,0.1,0.5,0.1c0.2,0,0.3,0.1,0.5,0.1c0.6,0.2,1.2,0.3,1.8,0.3c0.5-0.1,1-0.2,1.5-0.4c0.6-0.2,1.1-0.3,1.6-0.5
			c-0.9,0.6-1.9,0.9-3,1C49.7,62,50.7,62.4,51.7,62.9z M48.3,56.6c0.4-0.3,0.9-0.4,1.3-0.4c0.3,0,0.5-0.1,0.9-0.1
			c-0.6,0.3-1.2,0.3-1.8,0.5c0.1,0.2,0.4,0.3,0.2,0.6c-0.2,0.2-0.2,0.3-0.4,0.3s-0.3-0.2-0.3-0.3C48.1,56.9,48.1,56.8,48.3,56.6z
			 M51.4,56.3c-0.5,0.3-1.1,0.4-1.7,0.3L51.4,56.3z M46.7,60.9c1.7-0.8,3.4-1.5,5-2.3C50.3,59.8,48.6,60.6,46.7,60.9z M50.4,60.3
			c0.6-0.5,1.3-0.9,2.1-0.9L50.4,60.3z"/>
		<path id="Path_3230_1_" class="st6" d="M48.5,52c-0.3,0.3-0.4,0.7-0.2,1.1c0.3,0.7,0.5,1.4,0.6,2.2c0,0.3,0.1,0.3,0.4,0.2
			c0.5-0.2,1-0.3,1.5-0.5c0.7-0.2,1.4-0.7,1.7-1.4c0.1-0.3,0.4-0.5,0.8-0.4c0.1,0,0.2,0,0.3,0c1.2-0.3,2.4-0.9,3.5-1.6
			c0.5-0.3,0.9-0.9,1.1-1.5c0.1-0.4,0.2-0.8,0.4-1.2c0.1-0.4,0.3-0.8,0.5-1.3c-0.7,0.5-1.4,0.9-2.3,1.2l0.4-0.4
			c0.1-0.1,0.4-0.2,0.4-0.5c-1.1,0.5-2.1,1.1-3.1,1.7c-0.9,0.6-1.9,1.1-3,1.6c-0.5,0.2-0.7,0.2-1-0.2c0,0.7-0.3,1.3-0.7,1.9
			c0-0.6,0.1-1.2,0.2-1.8C49.4,51.1,48.8,51.5,48.5,52z M56.7,48.9L56.7,48.9l-1.2,1.3l-0.1-0.1L56.7,48.9z M54.7,51.4
			c-0.6,0.5-1.2,0.9-2,1.2L54.7,51.4z"/>
		<path id="Path_3231_1_" class="st3" d="M51.6,33.4c1.5,0.1,2.9,0.4,4.3,0.8c1.8,0.5,3.5,1.3,5.3,2c1.2,0.4,2.3,1,3.2,1.9
			c0.1,0.1,0.2,0.1,0.3,0.1c0,0,0,0,0,0l0,0c-0.5-0.9-1.1-1.6-1.9-2.2c0.5,0,1,0.1,1.4,0.4c0-0.8,0.1-1.6,0.2-2.4
			c0.1-1,0-1.9-0.1-2.9C64.1,30,63.7,29,63.1,28c-0.7-1.2-1.8-2.2-3.1-2.8c0.4,0,0.9,0.1,1.3,0.3C61,24.9,60.6,24.4,60,24
			c-0.3-0.4-0.8-0.6-1.3-0.6c-0.9,0-1.8,0.3-2.7,0.7c-1,0.5-1.8,1.1-2.5,1.9c0.4-0.8,1.1-1.5,1.8-2c-1.2,0.6-2,1-3.4,4.1
			c0.1-0.6,0.3-1.1,0.5-1.6c0.3-0.5,0.6-1,0.9-1.5c-2.2,1-5.2,4.9-5.5,7.2l1.2-0.2V32l-1.3,0.6h0.4c1-0.2,2-0.4,3.1-0.4
			c1.1-0.1,2.1,0,3.2,0.3c1.6,0.2,3.1,0.9,4.3,2l-1.5-0.6c-1.7-0.7-3.4-1.1-5.3-1.1c-1,0-1.9,0-2.9,0.2c-1.4,0.2-2.7,0.6-4,1.2
			c-0.3,0.1-0.5,0.4-0.6,0.7c0.5-0.2,0.8-0.4,1.2-0.6C47.6,33.5,49.6,33.3,51.6,33.4z M62.2,34c-0.1,0.2-0.1,0.5-0.5,0.5
			c-0.3,0-0.2-0.3-0.2-0.5c0-0.1,0-0.2,0.1-0.3c0.1-0.2,0.1-0.4,0.4-0.4c0.2,0,0.3,0.3,0.3,0.5C62.2,33.9,62.2,33.9,62.2,34L62.2,34
			z M62.9,35.3c-0.3,0-0.2-0.3-0.3-0.5c-0.1-0.2,0.3-0.7,0.5-0.6s0.2,0.3,0.2,0.4C63.2,34.9,63.3,35.3,62.9,35.3L62.9,35.3z
			 M64,33.4c-0.3-1.2-0.6-2.3-1-3.5c-0.4-1.1-1-2.2-1.7-3.1C62.6,27.6,64.4,30.9,64,33.4L64,33.4z M56.3,25.8
			c-0.7,0.3-1.2,0.8-1.7,1.4c-0.5,0.6-1,1.1-1.7,1.5c-0.2,0.1-0.5,0.2-0.7,0.1c0.7-0.3,1.4-0.8,1.8-1.5c0.8-1.2,1.9-2,3.3-2.3
			c0.8-0.1,1.5-0.1,2.3,0.1C58.4,25.2,57.4,25.4,56.3,25.8z"/>
		<path id="Path_3232_1_" class="st2" d="M60.8,38.1c0,0.1,0,0.2,0.1,0.2c0,0,0,0,0,0H61c0.1,0,0.3-0.1,0.4-0.1
			c0-0.2-0.1-0.2-0.2-0.2C61.1,38,60.9,38,60.8,38.1z"/>
		<path id="Path_3233_1_" class="st3" d="M35.7,75.6c0,0.4-0.1,0.6,0.6,0.6c1.6,0,3.2,0.1,4.8,0.3c1,0.1,1.9,0.3,2.8,0.5
			c0.9,0.2,1.8,0.5,2.7,0.9c0.1,0.1,0.3,0,0.3-0.1l0,0c0.1-0.2,0-0.3-0.1-0.3c-0.3-0.2-0.6-0.4-0.8-0.6c-1.2-0.7-2.3-1.6-3.3-2.5
			c-0.4-0.4-0.8-0.8-1.2-1.2c-0.8-0.8-1.6-1.6-2.4-2.4c-0.6-0.6-1.2-1.3-1.8-2.1c-0.3,0.8-0.5,1.5-0.7,2.3
			C36.1,72.5,35.8,74,35.7,75.6z"/>
		<path id="Path_3234_1_" class="st3" d="M28.7,74.1c1.7-0.3,2.8-1.9,2.6-3.6C30.9,72,30,73.3,28.7,74.1z"/>
		<path id="Path_3235_1_" class="st2" d="M62.3,74.4c0,0-0.1,0.1-0.1,0.2c0,0.1,0.1,0.1,0.1,0.2c0.1,0,0.1-0.1,0.2-0.1l0.3-0.5
			l-0.1,0C62.6,74.1,62.4,74.3,62.3,74.4z"/>
		<path id="Path_3236_1_" class="st1" d="M38.1,64.8c0.6-0.6,1.1-1.4,1.3-2.3c0.2-0.4,0.1-0.9-0.2-1.2c0.1,1-0.3,1.9-1,2.5
			c0.4-1.1,0.8-2,0.1-3c0.2,1,0.1,2-0.3,2.9c-0.5,0.8-1.3,1.4-2.2,1.8c1.2-0.7,2-1.8,2.3-3.2c0.1-0.7,0.3-1.4-0.3-1.9
			c-0.4-0.3-0.8-0.7-1.1-1.1c-0.6-0.7-1-1.4-1.4-2.2c-0.3-1-0.7-1.9-1.4-2.7c-0.1-0.1-0.2-0.3-0.3-0.4c-0.4-0.5-0.5-1.1-0.8-1.7
			c-0.6-0.9-1.2-1.3-2-0.3c-0.3,0.4-0.6,0.7-1,1c-0.3,0.2-0.5,0.5-0.6,0.8c0,0.2,0,0.6,0.1,0.6c0.4,0,0.8,0.3,1.2,0
			c0.4-0.3,0.5-0.4,0.3-0.8c0.3,0.3,0.4,0.7,0.7,0.7c0.4,0.1,0.7,0,1,0.1c-0.2,0.1-0.4,0-0.6,0c-0.8,0.1-1.6,0.3-2.5,0.4
			c-0.8,0.1-1,0.5-0.8,1.2c0,0.2,0.1,0.4,0.4,0.3c0.7-0.2,1.4-0.3,2.1-0.2l-2.4,0.8c-0.4,0.1-0.6,0.5-0.6,0.8v0.1
			c0,0.1,0,0.2,0.1,0.3c0,0.3,0.1,0.3,0.4,0.3c0.7-0.1,1.4-0.3,2-0.8L30.2,58c0.2-0.1,0.5-0.2,0.7-0.2c-0.7,0.6-1.5,1-2.4,1.2
			c-0.4,0.1-0.5,0.4-0.4,0.7c0.3,0.8,0.9,1.4,1.6,1.8c0.1,0.1,0.3,0.1,0.3-0.2c0-0.3-0.2-0.5-0.5-0.6c-0.2-0.1-0.4-0.1-0.5-0.4
			c0.7-0.2,1.3,0.2,2.1,0c-0.6,0.6,0.2,0.5,0.3,0.7c-0.3,0.3-0.6,0-0.9,0.1c0.6,2,2.1,3,4,3.8h-0.3c-0.1,0-0.3-0.1-0.3,0.1
			s0.1,0.2,0.3,0.2c0.3,0.1,0.7,0.2,1.1,0.2c-0.1,0.2-0.4,0.2-0.4,0.3c0.4,0.7,0.9,0.3,1.4,0.2c0.3-0.1,0.6-0.2,0.9-0.3
			c-0.2,0.2-0.4,0.3-0.7,0.4c-0.6,0.3-1.2,0.7-1.9,0c0,0-0.1-0.1-0.1,0c0,0,0,0,0,0c0,0,0,0.1,0,0.1c0.1,0.3,0.3,0.6,0.6,0.6
			c0.6,0.1,1.1-0.1,1.6-0.3C37.2,65.9,37.7,65.4,38.1,64.8z M37,60.1c-0.7-0.5-1.2-1.2-1.4-2L37,60.1z M36.6,61.3
			c-0.9-0.8-1.6-1.8-1.9-3C35.3,59.3,35.9,60.3,36.6,61.3z M34.1,59l1.8,2.9C35.1,61,34.5,60.1,34.1,59L34.1,59z"/>
		<path id="Path_3237_1_" class="st3" d="M29.2,70.4c0.2-0.6,0.5-1.2,0.7-1.7c0.4-0.8,0.6-1.8,0.4-2.7c-0.2-1.1-0.7-2.1-1-3.2
			c0-0.2-0.2-0.4-0.3-0.6c0.2,0.8,0.3,1.6,0.4,2.3c0.2,0.7,0.2,1.5,0,2.2c-0.4,1.4-1.5,2.2-2.4,3.2c-0.7,0.7-1.4,1.3-2.2,1.8
			c-0.6,0.6-1.4,0.9-2.2,0.9c0,0.1,0.1,0.2,0.2,0.2c0.6,0.4,1.3,0.7,2,0.9c0.3,0.1,0.7,0.1,1,0c1.1-0.4,2.2-1,3.1-1.8l1.4-1.1
			c-1,1.4-2.4,2.5-4,3.1c0.2,0,0.4,0.2,0.6,0.1c0.9-0.2,1.8-0.6,2.5-1.3c0.8-0.9,1.4-1.9,1.7-3c0.6-1.6,0.1-3.1-0.4-4.6
			C31.1,67,30.6,69,29.2,70.4z"/>
		<path id="Path_3238_1_" class="st3" d="M32.4,64.4c-0.5-0.2-0.9-0.5-1.2-0.9c0.7,1.8,0.5,3.6,0.5,5.4c0.1-0.1,0.2-0.2,0.2-0.3
			c0.1-1.3,0.4-2.6,0.6-4C32.5,64.6,32.5,64.5,32.4,64.4z"/>
		<path id="Path_3239_1_" class="st2" d="M64.8,71.6c-0.9,0.9-2,1.6-2.9,2.6C63.1,73.6,64.1,72.7,64.8,71.6z"/>
		<path id="Path_3240_1_" class="st3" d="M47.2,77.8c-0.1,0-0.1,0-0.1,0.1c-0.1,0.4-0.4,0.2-0.7,0.1c-2.2-0.8-4.6-1.3-6.9-1.5
			c-1.2-0.1-2.4-0.2-3.6-0.2c-0.3,0-0.3-0.1-0.3-0.4c0-0.6,0.1-1.2,0.2-1.8c0.2-1.3,0.4-2.7,0.8-4c0.1-0.5,0.3-1,0.5-1.5
			c0.1-0.2,0-0.5-0.3-0.6l0,0c-0.2-0.1-0.2,0.1-0.2,0.3c-0.3,1.2-0.7,2.5-1,3.7c-0.3,1.4-0.5,2.8-0.6,4.2c0,0.5,0.1,0.6,0.6,0.7
			c0.9,0.1,1.7,0.3,2.6,0.3c0.4,0.1,0.9,0.1,1.4,0.1l-1.1-0.3c0.7-0.1,1.3-0.1,2,0.1c1.8,0.5,3.5,1.1,5.3,1.5c0.5,0.1,1,0.2,1.5,0.2
			c0.3,0,0.6-0.2,0.6-0.5C47.7,78.1,47.4,77.9,47.2,77.8z"/>
		<path id="Path_3241_1_" class="st2" d="M31,41.5c0.2,0,0.5,0.2,0.7,0c0.9-0.8,1.9-1.6,2.8-2.4c0.4-0.4,0.4-0.4,0.1-0.9
			c-0.2-0.3-0.3-0.2-0.5,0c-0.6,0.5-1.2,0.9-1.8,1.4l-2.5,2C30.1,41.5,30.5,41.5,31,41.5z"/>
		<path id="Path_3242_1_" class="st3" d="M51.9,64.8c-1.4-0.1-2.7-0.3-4.1-0.5c-1.7-0.3-3.4-0.7-5.1-1.2c-0.7-0.2-1.4-0.5-2-0.7
			c-0.3-0.1-0.3,0.1-0.4,0.2s-0.3,0.4-0.1,0.6c0.3,0.2,0.2,0,0.2-0.1c0.1-0.1,0.2-0.2,0.5-0.1c0.5,0.2,0.9,0.4,1.3,0.7
			c1,0.4,2,0.8,3.1,1.1c1,0.3,2.1,0.5,3.2,0.6c0.7,0.1,1.4,0.1,2,0c0.4,0,0.6,0.1,0.4,0.5c-0.1,0.2-0.1,0.4-0.1,0.6s0,0.2,0.1,0.2
			c0.3-0.1,0.7-0.1,0.8-0.4s0.2-0.7,0.4-1C52.2,64.9,52.1,64.8,51.9,64.8z"/>
		<path id="Path_3243_1_" class="st3" d="M50.6,65.4c-0.7,0.1-1.5,0.1-2.2,0c-0.9-0.1-1.7-0.2-2.6-0.5c-1.7-0.4-3.2-1-4.7-1.8
			c-0.1-0.1-0.3-0.2-0.4,0c-0.1,0.2,0,0.3,0.1,0.4c0.3,0.3,0.7,0.6,1,0.9c1,0.8,2.1,1.4,3.4,1.8c0.9,0.2,1.8,0.3,2.6,0.6
			c0.5,0.2,1.1,0.3,1.6,0.2c1-0.2,1.3-0.4,1.4-1.2C50.8,65.4,50.8,65.4,50.6,65.4z"/>
		<path id="Path_3244_1_" class="st3" d="M66.8,67.2l0.1,0.1l-1.3,2.4c0.9-0.9,1.6-1.9,2.1-3.1c0.3-0.7,0.5-1.6,0.4-2.4
			c-0.1-1-0.3-2-0.5-3c-0.4-2.1-1.9-3.9-4-4.5c-0.3-0.1-0.6,0-0.9,0.1c-1.3,0.8-2.4,1.8-3.4,3c-0.5,0.5-1,1.1-1.5,1.7
			c1.4-1.1,3.2-1.6,5-1.4c-0.7,0-1.5,0.2-2.2,0.4c-1.7,0.6-3.2,1.7-4.3,3.1c-0.1,0.1-0.2,0.2-0.1,0.3c0.1,0.1,0.2,0,0.3,0
			c0.6-0.2,1.2-0.5,1.8-0.7c1.4-0.6,3-0.6,4.5-0.2c-0.6,0-1.1-0.1-1.7,0c-0.9,0.1-1.9,0.3-2.8,0.6c-1.3,0.5-2.5,1.1-3.7,1.8
			c-0.4,0.2-0.8,0.4-1.3,0.6c0.3,0.1,0.6,0.2,0.9,0.3c1,0.5,1.8,1.1,2.5,2c0,0.1,0.1,0.2,0.1,0.1c0.2-0.3,0.2,0,0.2,0.1
			c0.3,0.7,0.6,1.4,0.9,2.1c0.4,1,0.8,1.9,1.2,3c0.2-1.9,1-3.7,2.3-5.2c-0.9,1.8-1.5,3.8-1.8,5.8c2.2-3.1,4.2-6.5,5.7-10
			c-0.4,1.3-0.8,2.5-1.4,3.6c-1.2,2.4-2.6,4.7-4.3,6.8c-0.2,0.2-0.4,0.4-0.3,0.8C62.3,73.3,64.8,70.4,66.8,67.2z M57.9,63.2
			c1.1-1.1,2.6-1.8,4.1-2.1C60.6,61.8,59.2,62.4,57.9,63.2L57.9,63.2z M60.7,62c0.9-0.6,1.9-0.9,3-0.8C62.7,61.4,61.7,61.7,60.7,62z
			 M62.7,61.9c0.5-0.3,1.1-0.5,1.7-0.4L62.7,61.9z M62.3,66c0.2-0.5,0.6-0.9,1-1.2C63,65.2,62.7,65.6,62.3,66L62.3,66z M63.3,62.1
			c0.5-0.2,1.1-0.3,1.6-0.2L63.3,62.1z M66.8,63.3c-0.1,1.8-0.6,3.6-1.3,5.2C65.7,66.8,66.1,65,66.8,63.3L66.8,63.3z"/>
		<path id="Path_3245_1_" class="st4" d="M54.3,65.1c1.3-1.7,2.4-3.6,3.8-5.3c0.6-0.7,1.2-1.4,2-2c1.2-0.9,2.5-1.6,3.9-2.3
			c-1.2,0.2-2.3,0.5-3.4,0.9c1.2-0.7,2.5-1.2,3.8-1.4c-0.8-0.3-1.6-0.4-2.3-0.7c-0.5-0.2-1-0.2-1.4,0.1c-2,1-3.8,2.6-5,4.5
			c-1,1.3-1.8,2.8-2.6,4.2c-0.4,0.7-0.7,0.9-1.2,0.7c-1.2-0.4-2.4-0.6-3.7-1s-2.5-0.7-3.7-1c-1.1-0.2-2.2-0.3-3.2-0.4
			c-0.4,0-0.8-0.1-1.3-0.1c0.3,0.5,0.4,1,0.3,1.5c0.1-0.2,0.1-0.3,0.2-0.5c0.1-0.4,0.2-0.5,0.6-0.4c0.4,0.1,0.8,0.2,1.2,0.4
			c3.3,1.3,6.8,2,10.4,2.1c0.4,0,0.4,0.2,0.3,0.5c-0.1,0.3-0.4,0.8-0.6,1.2c0.2,0,0.4,0,0.6-0.1C53.3,65.8,53.9,65.5,54.3,65.1z
			 M62.9,55c-1.3,0.5-2.7,0.9-4,1.3C60.1,55.5,61.5,55.1,62.9,55z M56.6,60.7c-0.8,1.4-1.7,2.8-2.5,4.2
			C54.6,63.4,55.4,61.9,56.6,60.7z"/>
		<path id="Path_3246_1_" class="st6" d="M41.8,64.9c-0.7-0.6-1.3-1.2-1.9-1.8c-0.4,0.6-0.7,1.1-1.1,1.7c-0.4,0.8-1.1,1.5-1.9,2
			c-0.2,0.1-0.2,0.2-0.1,0.4c0.8,1.1,1.6,2.2,2.6,3.2c1,1,1.9,2,3,3c0.8,0.7,1.6,1.4,2.4,2c0.8,0.6,1.8,1.1,2.6,1.8
			c1.1,0.9,2.4,1.5,3.7,1.9c0.3,0.1,0.6,0,0.8-0.2c0.3-0.3,0.5-0.7,0.6-1.1c0.4-0.8,0.7-1.6,0.7-2.5c0-0.5,0-1,0.1-1.5
			c0.2-0.8,0.2-1.6,0-2.4c-0.2-1.2-1-2.1-2.2-2.4l0.8,1c-0.5-0.4-1-0.8-1.5-1.2c-1.2-1-2.7-1.7-4.3-2C44.6,66.5,43.1,65.9,41.8,64.9
			z M49.1,77.3c1.1,0,2.1,0.5,3.2-0.4C51.9,77.9,50.9,78.1,49.1,77.3z M52.1,74.5c-0.4,0.5-0.9,0.9-1.6,1
			C51,75.1,51.5,74.8,52.1,74.5z M50.1,74.6c-0.2,0.3-0.6,0.5-1,0.6C49.4,74.9,49.7,74.7,50.1,74.6z M47.2,73.7
			c-0.5,0.2-1,0.3-1.6,0.2C46.2,73.7,46.7,73.9,47.2,73.7z M44,72.7c0.9,0,1.7,0.2,2.5,0.4C45.9,73.6,44.3,73.4,44,72.7z"/>
		<path id="Path_3247_1_" class="st6" d="M23.5,71.8c1.1-0.7,2.1-1.4,3.2-2.1c0.7-0.6,1.3-1.2,1.7-2c0.6-0.8,0.9-1.9,0.6-2.9
			c-0.2-0.9-0.3-1.7-0.3-2.6c0-0.6-0.3-1.2-0.7-1.7c-0.4-0.5-0.8-1-0.4-1.6c0.1-0.2,0-0.3-0.1-0.4c-0.6-0.6-1.1-1.2-1.6-1.8
			c-0.5-0.6-1.3-1.4-1.8-2.2c-0.4-0.6-0.9-1.1-1.4-1.4c-0.2-0.1-0.4-0.2-0.4,0.2c0,0.5-0.1,1-0.2,1.4c-0.4,1.7-0.8,3.4-1.2,5
			c-0.3,1.4-0.5,2.7-0.6,4.1c0,0.4,0,0.9,0.1,1.3c0,0.6,0.2,1.1,0.4,1.7c0.7,1.6,1.4,3.2,2,4.8C22.9,72,23.1,72,23.5,71.8z
			 M26.4,68.6c-0.2,0.6-0.8,0.9-1.4,0.8C25.4,69.1,25.8,68.8,26.4,68.6L26.4,68.6z M24.6,69c0.2-0.2,0.5-0.4,0.9-0.4
			C25.3,68.9,24.9,69,24.6,69z M24.1,68.5c0.4-0.2,0.9-0.4,1.4-0.4C25.1,68.4,24.6,68.6,24.1,68.5L24.1,68.5z M23.8,67.8
			c0.4-0.2,0.8-0.1,1.1-0.2C24.6,67.9,24.1,68,23.8,67.8L23.8,67.8z M23.1,67.1c0.5-0.2,1.1-0.3,1.6-0.2
			C24.3,67.3,23.7,67.4,23.1,67.1L23.1,67.1z M22.8,66.3c0.5,0,0.9,0.1,1.3,0.2C23.7,66.6,23.2,66.6,22.8,66.3L22.8,66.3z M24,65.8
			c-0.5,0-0.9-0.1-1.3-0.3C23.2,65.6,23.6,65.6,24,65.8L24,65.8z"/>
		<path id="Path_3248_1_" class="st2" d="M28.8,43.9c0.2-0.1,0.3-0.3,0.2-0.5c-0.1-0.4,0-0.9,0.2-1.3c0.1-0.2,0.4-0.3,0.4-0.6
			c-0.4,0.3-0.7,0.6-1.1,0.8c-0.4,0.2-0.6,0.6-0.5,1.1c0,0.5-0.2,1-0.6,1.4c-0.7,0.5-1.4,1-2.2,1.4c-0.2,0.2-0.5,0.2-0.8,0.4
			c-0.3,0.2-0.8,0.5-1.2,0.2c-0.2-0.1-0.3-0.1-0.4-0.1c0.2-0.2,0.3-0.5,0.2-0.7c0,0,0,0,0,0l-0.1-0.1c-0.2-0.2-0.3,0.1-0.5,0.2h-0.1
			c0,0,0-0.1,0.1-0.1c0.5-0.2,0.4-0.6,0.2-1c0,0,0-0.1,0-0.1c0-0.3-0.2-0.3-0.4-0.2c0-0.1,0.3-0.2,0.1-0.4s-0.2,0.1-0.4,0.1L19.6,46
			c-0.6,0.5-1.2,0.9-1.7,1.4c-0.1,0.1-0.2,0.1-0.1,0.2s0.2,0,0.3,0s0.1,0,0.1,0c-0.2,0.3,0.1,1,0.5,1.2c-0.1,0.3,0,0.6,0.3,0.8
			c0,0.1-0.1,0.1-0.1,0.2c0.2,0.7,0.3,1.4,0.3,2.2c0.3-0.2,0.5-0.3,0.6-0.5l5.1-4.3L28.8,43.9z"/>
		<path id="Path_3249_1_" class="st2" d="M22.1,71.8c-0.1-0.5-0.3-1-0.5-1.5C21.6,70.8,21.8,71.4,22.1,71.8z"/>
		<path id="Path_3257_1_" d="M29.7,41.5L29.7,41.5L29.7,41.5L29.7,41.5z"/>
		<path id="Path_3258_1_" d="M48.1,35L48.1,35L48.1,35z"/>
		<path id="Path_3259_1_" d="M63.3,76.8c0.3-0.3,0.3-0.7,0.1-1c0,0-0.1-0.1-0.1-0.1c-0.2-0.2-0.2-0.3,0-0.5c0.4-0.5,0.7-0.9,1-1.5
			c0.7-1.1,1.2-2.4,2-3.4c0.8-1.1,1.5-2.3,2-3.6c0.2-0.5,0.3-1.1,0.3-1.7c0-1-0.1-2-0.4-3c-0.5-1.4-0.5-2.9-1-4.2
			c-0.6-1.5-1.8-2.8-3.4-3.3c-1.3-0.4-2.5-1-3.6-1.7c-0.2-0.1-0.3-0.2-0.3-0.4c0-0.3,0-0.6,0-0.9c0-0.7-0.2-1.4-0.6-2
			c-0.2-0.4-0.3-0.8-0.2-1.2c0.3-1.1,0.8-2.2,1.4-3.2c0.3-0.5,0.5-1,1.1-1c0,0,0.1-0.1,0.1-0.1c0.8-0.4,1.4-1,1.7-1.8
			c0.3-0.6,0.7-1.1,1.2-1.4c0.4-0.2,0.6-0.8,0.4-1.2l-0.1-0.2c0-0.1,0-0.2,0-0.2c0.6-0.7,0.3-1.4,0-2c-0.2-0.4-0.3-0.9-0.2-1.4
			c0-0.6,0.2-1.2,0.2-1.9c0-0.8,0-1.7-0.1-2.5c-0.2-1.5-0.7-2.9-1.6-4.1c-0.6-0.9-1.4-1.6-2-2.5c-0.8-1.6-2.8-2.4-4.5-1.7
			c-0.9,0.3-1.8,0.7-2.6,1.1c-1.4,0.7-2.6,1.6-3.7,2.7c-1.4,1.4-2.3,3.2-2.8,5c0,0.3-0.2,0.5-0.5,0.6c-1.1,0.4-2.1,1-2.8,1.9
			c-0.2,0.2-0.2,0.4-0.1,0.6c0.1,0.3,0.3,0.4,0.6,0.5c0.9,0.3,1.7,0.4,2.6,0.4c0.4,0,0.7,0,0.5,0.5c0,0.1,0,0.3,0,0.4
			c0.1,0.4,0.2,0.9-0.2,1.2c-0.1,0.1-0.1,0.1-0.1,0.2c-0.6,0.8-0.9,1.7-1.1,2.6c0,1.4,0.3,2.7,1,3.9c0.3,0.5,0.5,1,0.6,1.6
			c0,0.7,0,1.3,0.1,2c0.1,0.2,0,0.4-0.2,0.5c0,0,0,0,0,0c-0.9,0.5-1.8,1.1-2.7,1.5c-0.7,0.3-1.4,0.5-2.1,0.3c-0.7-0.2-1.4-0.2-2,0.1
			c-0.1,0-0.2,0-0.3,0c-0.7-0.2-1.5-0.3-2.3-0.1c-1.7,0.3-3.2,1-4.6,2c-0.7,0.5-0.7,0.5-1.2-0.3c-0.3-0.4-0.5-1-1-1.2
			s-0.4-0.4-0.4-0.7c0.2-0.8,0.4-1.6,0.6-2.5c0-0.1,0.1-0.2,0.1-0.3c0.7-0.7,1.2-1.7,1.4-2.7c0.2-0.7,0.1-1.4-0.2-2
			c-0.3-0.4-0.8-0.7-1.3-0.8c-0.3-0.1-0.2-0.2,0-0.3l1-0.8c0.7-0.5,1.2-1.2,1.9-1.7c0.2-0.2,0.3-0.2,0.5,0c0.5,0.4,1.1,0.6,1.7,0.5
			c1.8-0.3,3.3-1.8,3.5-3.6c0-0.6,0.2-1.1,0.5-1.5c0.2-0.3,0.1-0.6-0.2-0.8c-0.5-0.3-1.2-0.2-1.6,0.1c-0.7,0.6-1.4,1-2.2,1.4
			c-0.3,0.2-0.4,0.1-0.4-0.3c0-0.8,0.4-1.6,1.2-2c0.8-0.4,1.5-0.9,2.3-1.3c0.3-0.2,0.3-0.4,0.2-0.6c0-0.2-0.2-0.4-0.4-0.4
			c-0.3,0-0.7-0.2-0.9-0.4c-1.1-0.9-2.6-1-3.8-0.3c-1.6,1.1-2.6,2.8-2.6,4.8c0,0.5-0.3,1-0.7,1.3l-2.3,1.7c-0.2,0.2-0.5,0.4-0.7,0
			c-0.1-0.1-0.2-0.2-0.3-0.3c-0.9-0.8-2.3-0.8-3.1,0c-0.3,0.3-0.6,0.7-0.8,1.2c-0.5,0.8-1.1,1.5-2,2c-0.4,0.4-0.8,0.7-1.2,1
			c-0.8,0.4-1.4,1.1-1.7,2c-0.1,0.4-0.1,0.7-0.1,1.1c0,0.4,0,0.7-0.4,1c-0.6,0.4-1.3,0.9-1.9,1.4c-0.2,0.1-0.3,0.1-0.4,0
			c-0.5-0.4-1-0.7-1.6-0.8c-1.5-0.5-3.2,0-4.2,1.2c-1.1,1.3-1.8,3-1.9,4.7c0,0.3,0,0.7-0.2,1c-0.1,0.3-0.1,0.7,0.2,1
			c0.6,0.3,1.3,0.2,1.9-0.2c0.7-0.7,1.5-1.4,2.4-2c0.2-0.1,0.4-0.3,0.6-0.1c0.2,0.2,0.3,0.6,0.1,0.8c-0.2,0.3-0.4,0.6-0.7,0.8
			c-1.2,0.9-2.2,2-3.4,2.8c-0.3,0.2-0.2,0.5-0.1,0.8s0.3,0.3,0.5,0.3c0.2,0,0.4,0.1,0.5,0.2c0.3,0.2,0.5,0.3,0.8,0.4
			c0.7,0.3,1.6,0.3,2.3,0.1c0.6-0.1,1.2-0.3,1.8-0.5c1.6-1.1,2.7-2.8,2.9-4.8c0-0.4,0-0.9,0.4-1.2c0.2-0.1,0.3-0.3,0.5-0.4
			c0.5-0.4,0.9-0.8,1.4-1.2c0.2,0.6,0,1.2,0.5,1.6c0,0,0,0.2,0,0.2c-0.2,0.7-0.3,1.4-0.2,2.1c0,0.1,0,0.2,0,0.3
			c-0.2,0.8-0.5,1.5-0.6,2.3c-0.5,2-0.9,4-1.2,6c-0.1,1.3-0.1,2.5,0.2,3.8c0.3,1.4,0.9,2.6,1.2,4c0.3,1.8,1.7,3.3,3.6,3.6
			c0.6,0.2,1.3,0.2,1.9,0.3c0.5,0.2,1,0.3,1.5,0.3c0.9-0.1,1.8-0.4,2.5-1c0.1-0.1,0.1-0.2,0.2-0.1c0,0.1,0,0.2,0,0.2
			c-0.1,0.2-0.1,0.4-0.1,0.6c0,1.1,0.2,2.2,0.4,3.3c0.1,0.8,0.4,1.5,0.6,2.2c0,0,0,0.1,0,0.1h0.9c0-0.1,0-0.2,0-0.2
			c0-0.6,0-1.2-0.1-1.7c0-1.2,0-2.4,0.1-3.6c0-0.4,0.1-0.9,0.1-1.3c0.1-0.8,0.1-1.6,0.1-2.5c-0.9,1.8-0.7,3.7-0.9,5.6
			c-0.1-0.3-0.1-0.7-0.1-1c0.2-1.5,0.2-3,0.4-4.5c0.1-0.9,0.2-1.8,0.4-2.7c0.1-0.7,0.5-1.3,0.5-2c-0.4,0.8-0.6,1.6-0.8,2.4
			c-0.3,1.4-0.5,2.9-0.6,4.3c0,0.2-0.1,0.3-0.1,0.5c0.1-2.9,0.6-5.8,1.5-8.5c0.2,0.2,0.3,0.5,0.2,0.7c0.3-0.1,0.5,0,0.5,0.4
			c0,0.7,0.5,1.3,1.2,1.3c0.1,0,0.2,0,0.3,0c0.3-0.1,0.4,0.1,0.6,0.3c0.1,0.2,0.4,0.3,0.2,0.7c-0.4,0.8-0.7,1.7-0.9,2.6
			c-0.3,1.2-0.5,2.4-0.7,3.7c-0.1,0.8-0.2,1.5-0.3,2.2c-0.1,0.6,0,0.7,0.6,0.8c0.9,0.1,1.7,0.2,2.6,0.3c1.1,0.1,2.2,0.3,3.4,0.3
			c0.7,0,1.5,0.2,2.2,0.5c1.2,0.5,2.4,0.8,3.7,0.9c0.6,0,1-0.2,1.2-0.8c0.5,0.4,1,0.7,1.6,0.8c0.3,0.1,0.6,0.3,0.7,0.5
			c0,0.1,0.1,0.2,0.2,0.2h0.9c-0.2-0.2-0.3-0.3-0.4-0.6c0.7,0.2,1.5-0.3,1.6-1v-0.2c0.3-1,0.7-2,0.9-3v0.7c0.1-0.1,0.1-0.2,0.1-0.3
			c0.3-1.5,0.3-3,0-4.4c-0.2-1.3-1-2.4-2.2-3c-0.7-0.3-1.3-0.7-2-1c-0.1,0-0.2,0-0.2-0.2s0.1-0.1,0.2-0.1c0.7-0.1,1.5-0.2,2.2-0.5
			c0.5-0.2,1-0.3,1.4-0.2c1.3,0.4,2.4,1.2,3.2,2.4c0.7,1.2,1.2,2.5,1.5,3.8c0.3,1,0.2,2,0.6,3v-1c0.1,0.2,0.1,0.4,0.1,0.7
			c0.1,0.5,0,0.9-0.3,1.3c-0.6,0.8-1.4,1.3-2.3,1.6c0.4-0.9,0.6-2,0.4-3c-0.1,2.1-1.3,4-3.1,5h1.5c0.2-0.1,0.4-0.3,0.5-0.5
			c0.3-0.5,0.8-0.8,1.3-1c0.2,0,0.3-0.1,0.4-0.2c0.7-0.3,1.4-0.8,2-1.4c-0.1,0.4-0.3,0.8-0.5,1.2c-0.2,0.3-0.3,0.6-0.5,1
			c-0.2,0.3-0.3,0.6-0.3,0.9l0,0c0.7-1.6,1.5-3.2,2.3-4.7c-0.7,1.5-1.2,3.1-1.9,4.6h0.2l0,0c0.4-1.1,0.8-2.1,1.2-3.1
			c0.3-0.8,0.5-1.6,1.3-2.2l0.8,1.2c0.1,0.1,0.1,0.3,0,0.4c-0.5,0.6-1,1.2-1.4,1.8c-0.4,0.6-0.8,1.2-1.1,1.9h0.1
			c0.2-0.3,0.4-0.6,0.6-1c0.6-0.9,1.2-1.7,1.9-2.5c0.3-0.2,0.3-0.5,0.1-0.8c0,0,0,0,0,0l0,0c-0.2-0.3-0.4-0.7-0.7-1
			c-0.1-0.1-0.1-0.2,0-0.3s0.2,0,0.2,0.1c0.4,0.5,0.8,0.9,1.2,1.3c0.1,0.1,0.1,0.3,0,0.4l0,0c-0.3,0.3-0.5,0.6-0.8,1
			c-0.7,0.8-1.4,1.7-1.9,2.7h0.7c0,0,0.1-0.1,0.1-0.1C61.5,79,62.3,77.8,63.3,76.8z M65.6,55.9c-0.2,0-0.5,0-0.7,0
			c-0.5-0.1-0.9,0-1.4,0.2c-1.2,0.5-2.4,1.3-3.4,2.2c-1.5,1.5-2.9,3.2-4.1,4.9c-0.4,0.7-0.9,1.3-1.5,1.8c0.3-0.5,0.7-1,1-1.5
			c0.9-1.4,1.8-2.6,2.8-3.9c0.9-1,1.9-1.9,3.1-2.6c0.9-0.5,1.9-1,2.9-1.4C65,55.3,65.2,55.4,65.6,55.9z M59.5,54.4
			c0.1-0.2,0.2-0.4,0.3-0.6c0.3-0.5,0.5-0.5,0.9,0c0.1,0,0.3,0,0.4,0.2c-0.6,0.3-1.2,0.6-1.8,0.9c0.3-0.4,0.8-0.5,1.1-0.9L59.5,54.4
			z M59.1,50.7c0.2,0.8,0.2,1.6-0.1,2.4c-0.3,0.9-0.8,1.7-1.4,2.3c-0.8,0.8-1.6,1.6-2.5,2.3c-0.2,0.2-0.2,0.1-0.3-0.1
			c-0.2-0.6-0.3-1.1-0.4-1.7c-0.2-0.9-0.7-1.7-1.3-2.3c1-0.1,2-0.3,3-0.7c0.8-0.3,1.5-0.6,2.2-1.1c0.4-0.3,0.5-0.8,0.4-1.2
			c-0.1-0.5-0.1-0.9,0.1-1.4C58.9,49.6,59.1,50.1,59.1,50.7L59.1,50.7z M50,61.1c-0.5,0.2-1,0.3-1.5,0.4c-0.6,0-1.2-0.1-1.8-0.3
			c-0.2,0-0.3-0.1-0.5-0.1c-0.2,0-0.5,0-0.5-0.1c0-0.2,0.1-0.5,0.2-0.6c0.3-0.3,0.6-0.6,0.8-1c0.4-0.5,0.6-1.2,0.6-1.8
			c0-0.3,0-0.7,0.1-1c0.1-0.5,0.6-0.9,1.2-0.8c0,0,0,0,0,0h0.1c1.3,0.3,2.6-0.1,3.6-1c0.3-0.2,0.5-0.2,0.7,0
			c0.3,0.3,0.5,0.7,0.6,1.2c0.2,0.7,0.4,1.3,0.8,2c0.4,0.6,0.1,0.8-0.2,1.2c-0.9,1.1-1.7,2.3-2.3,3.6c-0.1,0.1-0.1,0.3-0.3,0.2
			c-1-0.5-1.9-0.9-3-1.3c1.1-0.1,2.1-0.4,3-1C51.1,60.8,50.6,61,50,61.1L50,61.1z M49.8,52.9c0.4-0.6,0.6-1.2,0.7-1.9
			c0.3,0.5,0.5,0.5,1,0.2c1-0.5,2-1,3-1.6c1-0.6,2-1.2,3.1-1.7c0,0.3-0.3,0.3-0.4,0.5l-0.4,0.4c0.8-0.2,1.6-0.7,2.3-1.2
			c-0.2,0.5-0.3,0.9-0.5,1.3c-0.1,0.4-0.3,0.8-0.4,1.2c-0.2,0.6-0.5,1.1-1.1,1.4c-1,0.8-2.2,1.3-3.5,1.6c-0.1,0-0.2,0-0.3,0
			c-0.3-0.1-0.6,0.1-0.8,0.4c-0.4,0.7-1,1.2-1.7,1.4c-0.5,0.2-1,0.3-1.5,0.5c-0.3,0.1-0.4,0.1-0.4-0.2c0-0.7-0.2-1.5-0.6-2.2
			c-0.2-0.4-0.1-0.8,0.2-1.1c0.3-0.5,0.9-0.8,1.5-0.9C49.8,51.6,49.7,52.2,49.8,52.9L49.8,52.9z M64.2,40.3
			c-0.2,0.1-0.4,0.2-0.5,0.4c-0.2-0.6-0.3-1.2-0.9-1.4c-0.1,0-0.1-0.1-0.2-0.2c-0.5-0.9-1.1-1.8-1.9-2.5c0,0,0-0.1,0-0.2l1.3,0.7
			c0,0,0,0,0.1,0.1c1.2,0.3,1.6,1.3,2.2,2.2C64.6,39.6,64.6,40,64.2,40.3C64.3,40.2,64.3,40.2,64.2,40.3L64.2,40.3L64.2,40.3z
			 M61.4,38.3c-0.1,0-0.3,0.1-0.4,0.1c-0.1,0-0.2,0-0.2-0.1c0,0,0,0,0,0c0,0,0,0,0-0.1C60.9,38,61,38,61.2,38
			C61.3,38,61.4,38.1,61.4,38.3L61.4,38.3z M45.7,34.2c-0.4,0.2-0.8,0.3-1.2,0.6c0.1-0.3,0.3-0.5,0.6-0.7c1.2-0.6,2.6-1.1,4-1.2
			c2.8-0.4,5.6-0.1,8.1,1l1.5,0.6c-1.2-1.1-2.7-1.8-4.3-2c-1-0.2-2.1-0.3-3.1-0.3c-1.1,0-2.1,0.2-3.1,0.4h-0.3l1.3-0.6v-0.1
			l-1.2,0.2c0.3-2.2,3.3-6.1,5.5-7.2c-0.3,0.5-0.6,0.9-0.9,1.5c-0.3,0.5-0.4,1.1-0.5,1.6c1.5-3.2,2.2-3.5,3.4-4.1
			c-0.7,0.5-1.4,1.2-1.8,2c0.7-0.8,1.6-1.4,2.5-1.9c0.8-0.4,1.7-0.6,2.7-0.7c0.5,0,1,0.2,1.3,0.6c0.5,0.4,1,0.9,1.3,1.5
			c-0.5-0.2-0.8-0.4-1.3-0.3c1.3,0.6,2.3,1.6,3.1,2.8c0.6,0.9,0.9,2,1.1,3.1c0.1,1,0.1,1.9,0.1,2.9c0,0.8-0.2,1.6-0.2,2.4
			c-0.4-0.2-0.9-0.4-1.4-0.4c0.8,0.6,1.4,1.4,1.9,2.2c-0.1,0.1-0.2,0.1-0.3,0l0,0c-0.9-0.9-2-1.5-3.2-1.9c-1.7-0.7-3.5-1.5-5.3-2
			c-1.4-0.4-2.8-0.7-4.3-0.8C49.6,33.4,47.6,33.6,45.7,34.2L45.7,34.2z M48,35.1L48,35.1c0.1-0.5-0.2-1.1,0.5-1.3
			C48.4,34.3,48.2,34.6,48,35.1L48,35.1z M47.5,42.8c-0.1,0.2,0,0.4,0,0.6c-0.6-1.1-0.8-2.4-0.3-3.6c0.2-0.7,0.6-1.4,1-2
			c0.1-0.1,0.1-0.2,0.1-0.3c0-0.5,0-1.1,0.1-1.6c0.1-0.4,0.4-0.7,0.8-0.6c0,0,0,0,0,0h0.2c0.4,0.2,0.7,0.6,1.2,0.6
			c-0.2-0.6-0.7-1.1-1.3-1.4c1.8-0.4,3.8-0.4,5.6,0.1c1.4,0.5,2.9,0.9,4.3,1.3c0.8,0.2,1.3,0.8,1.4,1.6c-0.1,0.1-0.2-0.2-0.2,0
			c0,0.2,0.2,0.3,0.4,0.4c-0.1,0.2-0.4,0.3-0.5,0.5c-0.1,0.2,0.2,0.4,0.3,0.6c0.1,0.2,0.2,0.3-0.1,0.3c-0.3,0.1,0.1,0.2,0,0.3
			c-0.1,0.1-0.3,0-0.3-0.1c0,0,0-0.2-0.1-0.1c-0.1,0.1-0.2,0.2-0.1,0.2c0.4,0.2,0,0.5,0,0.7c0,0.1-0.1,0.1-0.1,0.2
			c0.2,0.4,0.2,0.5,0,0.8c-0.1,0.1-0.1,0.1,0,0.2c0.1,0,0.3,0.1,0.2,0c0-0.4,0.5-0.4,0.4-0.9s0.1-0.5,0.4-0.6
			c0.2-0.1,0.5-0.3,0.7-0.4c0.3-0.2,0.6-0.2,0.9-0.1c0.3,0.2,0.5,0.5,0.4,0.8c0.1,0.5,0,1.1-0.1,1.6c-0.3,1-1.2,1.3-2,1.6
			c-0.1,0-0.2,0-0.6-0.2c-0.3,0.7-0.5,1.4-0.8,2.2c-0.3,0.8-1,1.3-1.8,1.6c-1.1,0.5-2.1,1-3.1,1.6c-0.1,0.1-0.2,0.2-0.4,0.1
			c0.2-0.3,0.5-0.6,0.6-0.9c-0.1,0.1-0.2,0.1-0.4,0.2c-0.2,0.2-0.4,0.2-0.6,0.1c-0.2-0.1,0.1-0.3,0-0.4c-0.1,0-0.2,0.1-0.2,0.2
			c-0.3,0.5-0.8,0.7-1.2,1.1c-0.1,0.1-0.4,0-0.5,0.2c-0.1-0.1,0-0.3-0.1-0.4c-0.2,0.2-0.7,0-0.8-0.4c-0.1-0.3-0.1-0.7-0.1-1
			c0-0.1,0.1-0.2,0.2-0.2c0.2,0,0.3,0,0.4-0.1c-0.6-0.2-1.2-0.3-1.7-0.2c0.2,0.2,0.5,0.3,0.7,0.3c0.1,0,0.2,0,0.2,0.2
			c-0.2,0.4-0.3,0.9-0.8,1c0,0-0.5,0.1-0.5-0.3c-0.1,0-0.2,0.2-0.3,0.2c-0.4-0.4-0.2-1-0.3-1.5c-0.1-0.4-0.2-0.9-0.1-1.3
			c0.1-0.8,0.1-1.5,0-2.3c0-0.2,0-0.5,0.1-0.7c0,0,0.1,0,0.1,0.1c0.2,0.2,0.1,0.5,0,0.7c-0.1,0.6-0.1,1.2,0,1.8
			c0.2,1.1,1.3,1.9,2.4,1.7c0,0,0,0,0,0c0.3-0.1,0.6-0.2,0.9-0.4c0.9-0.6,1.6-1.4,2.1-2.4c0.1-0.2,0.2-0.4,0.3-0.5
			c-0.2,1.5-0.7,2.9-1.4,4.3c0.6-0.4,1-1,1-1.8c0-0.7,0.3-1.3,0.7-1.8c0.2-0.6,0.3-1.1,0.4-1.7c0-0.1,0-0.2-0.2-0.2
			c-0.4,0-0.8-0.2-1.1-0.4c-0.3-0.1-0.7-0.2-1-0.3c-0.3-0.1-0.7-0.2-1-0.3c-0.1,0-0.3-0.1-0.4,0c-0.1,0.1,0.1,0.3,0.2,0.4
			c0.1,0.1,0.1,0,0.1,0.1c-0.6,0.2-1.1,0.7-1.6-0.1c0.1-0.2,0.5-0.1,0.6-0.4c-0.3,0.1-0.6,0.1-0.9,0c-0.6-0.2-1,0.1-1.5,0.1
			s-0.5,0.3-0.4,0.7c0.3,0.8,0.4,1.7,0.1,2.6L47.5,42.8z M51.1,44.9c0.3-0.1,0.6-0.1,0.9,0c0.8,0,1.5-0.3,2-0.8
			c0.3-0.2,0.5-0.5,0.8-0.7c0,0.4-0.2,0.7-0.5,1c-0.5,0.6-1,1.2-1.6,1.7c-0.7,0.7-1.9,0.7-2.7,0c-0.3-0.3-0.5-0.7-0.5-1.1
			c-0.1-0.7,0-1.3,0.2-2c0.2,0.4,0.3,0.7,0.4,1.1c0.1,0.4,0.4,0.5,0.7,0.6C50.8,44.7,51.1,44.5,51.1,44.9C51,44.9,51,44.9,51.1,44.9
			L51.1,44.9z M53.5,44.1c-0.9,0.5-1.9,0.6-2.9,0.3c-0.2,0-0.3-0.1-0.4-0.3c-0.2-0.4-0.3-0.7-0.5-1l0.1-0.1c0.6,0.3,1.2,0.4,1.9,0.3
			c0.4,0,0.7,0.3,1.1,0.3c0.5,0,1.1-0.1,1.6-0.2C54.1,43.6,53.8,43.8,53.5,44.1z M51.9,43.1c-0.6,0-1.2-0.2-1.7-0.4
			c-0.2-0.1-0.5,0-0.7,0S49,42.6,49,42.4c0-0.1,0.2-0.1,0.4-0.1c0.3,0,0.6,0,0.8,0.1c0.5,0.2,1.1,0.3,1.7,0.1
			c0.6-0.2,1.1,0.2,1.7,0.4c0.2,0,0.4,0,0.6,0.2C53.4,43.3,52.6,43.3,51.9,43.1L51.9,43.1z M46.8,50c0.4-0.2,0.8-0.5,1.2-0.8
			c0.2-0.2,0.4-0.3,0.5,0.1c0,0.2,0.2,0.4,0.4,0.5c0.5,0.2,0.9,0.5,1.3,0.8c-0.7,0.1-1.5,0.3-2.2,0.5c-0.4,0.1-0.6,0.5-0.5,0.9
			c0,0,0,0,0,0.1l0.1,0.1c0.2,0.6,0.6,1.2,0.8,1.8c0.1,0.2,0.2,0.5,0.1,0.8c-0.7-1.8-2.1-3.2-4-3.7C45.3,50.8,46.1,50.4,46.8,50
			L46.8,50z M44.5,54.7c0,0.1-0.1,0.3,0.1,0.3c0.2,0,0.2-0.1,0.3-0.3c0.2-0.7,0.4-1.4,0.8-2c0.3-0.5,0.5-0.5,1-0.1
			c0.8,0.7,1.4,1.7,1.7,2.7c0,0.1,0.1,0.2-0.1,0.2c-0.8,0.2-1,0.6-1.1,1.4c0,1-0.3,1.9-1,2.6c-0.4,0.3-0.7,0.7-0.8,1.2
			c0,0.2-0.3,0.1-0.4,0.1c-1.2-0.2-2.5-0.4-3.8-0.4c-0.2,0-0.4,0-0.2-0.3c0.7-1.8,1.5-3.5,2.6-5.2c0.2-0.3,0.4-0.6,0.7-1
			c-0.3,0.9-0.3,2,0.1,2.9c-0.2-1.1-0.2-2.2,0-3.2C44.4,54,44.5,54.4,44.5,54.7L44.5,54.7z M41.4,51.4c0.3-0.3,0.5-0.5,0.9-0.6
			c0.1-0.1,0.3-0.2,0.3,0.1c0.4-0.3,0.9,0,1.3,0c0,0,0.1,0,0.1,0.1c0,0.5,0.3,0.9,0.3,1.4c0,0.2-0.1,0.3-0.2,0.4
			c-0.1,0.1-0.3,0.2-0.3,0.4l0,0l0.5-0.4c0,0.3,0.1,0.6-0.1,0.8c-1.5,1.5-2.5,3.3-3.1,5.4c-0.2,0.5-0.4,1-0.6,1.5
			c-0.1,0.3-0.1,0.4,0.3,0.5c0.5,0.1,1,0.1,1.5,0.1c2.6,0.2,5.2,0.7,7.7,1.6l1.6,0.6c0.2,0.1,0.4,0.1,0.5-0.1c0,0,0,0,0-0.1l0,0
			c0.6-1,1.2-1.9,1.8-2.8c1-1.4,2.2-2.7,3.5-4c0.1,0,0.1,0,0.2-0.1c-0.5,0.6-1,1.1-1.4,1.7c-1,1.1-1.8,2.3-2.4,3.6
			c-0.4,0.7-0.8,1.3-1.2,2c-0.2,0.3-0.5,0.3-0.8,0.2c-2.1-0.6-4.1-1.1-6.2-1.7c-1.2-0.3-2.5-0.5-3.7-0.6c-0.6,0-1.2,0-1.7-0.1
			c-0.2-0.1-0.3-0.1-0.2-0.4c0.3-1.3,0.8-2.6,1.4-3.8c0-0.1,0.1-0.2,0.1-0.2c-0.3,0.4-0.6,0.8-0.7,1.3c-0.4,0.9-0.8,1.9-1,3
			c0,0.1-0.1,0.3-0.3,0.1s-0.2-0.1-0.3-0.2c-0.4-0.8-1.2-1.3-1.8-2c-0.2-0.2-0.3-0.5-0.1-0.8c0.6-1.2,1.2-2.4,2-3.5
			c0-0.1,0.1-0.1,0.1-0.2c-0.4,0.5-0.8,1-1.1,1.5c-0.4,0.7-0.8,1.5-1.2,2.3c0,0.1,0,0.2-0.2,0.2s0-0.2,0-0.3
			c0.3-0.8,0.7-1.5,1.2-2.2C38.9,54.3,40.1,52.8,41.4,51.4L41.4,51.4z M34.1,53c1.4-1,3.1-1.7,4.8-2c0.7-0.2,1.5-0.1,2.2,0.2
			c-1.9,1.9-3.5,4.2-4.5,6.7c-0.4-0.5-0.7-1-0.8-1.6c-0.2-1-0.8-1.9-1.7-2.6C33.8,53.4,33.7,53.3,34.1,53L34.1,53z M31.5,49.4
			c-0.1,0.4-0.1,0.7-0.1,1.1c0,0.3-0.2,0.5-0.5,0.6c-0.7,0.6-1.4,1.2-1.9,1.9c-0.1,0.1-0.1,0.2-0.2,0.2s-0.1-0.2-0.1-0.3
			c-0.4-1.3-1.1-2.5-1.9-3.6c-0.1,0.2,0.1,0.3,0.1,0.5c0,0.2,0.1,0.3,0.1,0.4c0.3,1.3,0.8,2.5,1.4,3.6c0.2,0.2,0.2,0.6,0,0.8
			c-0.2,0.3-0.1,0.6-0.1,1c0,0.1,0,0.3,0,0.4c0,0.1-0.1,0.2-0.2,0.2c-0.1,0-0.1-0.1-0.2-0.2c-1-1.4-2.2-2.7-3.5-3.9
			c-0.2-0.2-0.5-0.5-0.8-0.7c0.3,0.7,0.7,1.3,1.2,1.9c0.8,0.8,1.6,1.6,2.4,2.4l0.1,0.1c0.5,0.3,0.5,0.7,0.3,1.2
			c-0.1,0.3,0,0.6,0.1,1.1c-0.9-1.1-1.7-2.1-2.6-3.1c0.6,0.5,1.2,1,1.8,1.4c-0.3-0.4-0.5-0.7-0.8-1c-1-1.1-2.1-2.1-3.2-3
			c-0.6-0.3-0.9-1-0.9-1.7c0-0.3,0-0.6,0-0.8c0-0.2,0.1-0.2,0.2-0.3c0.6-0.5,1.2-1.1,1.9-1.6l2.4-2c0.9-0.7,1.7-1.4,2.6-2.2
			c0.2-0.1,0.3-0.1,0.3,0.1c0.1,0.2,0.2,0.4,0.3,0.6c0.3,0.5-0.1,0.9-0.4,1.2c-0.2,0.2-0.3,0.3-0.4,0.5c-0.4,0.5-0.3,1.1,0.2,1.5
			c0,0,0,0,0.1,0.1c0,0,0.1,0.1,0.2,0.1c0.5,0.3,1,0.5,1.6,0.5c0.4,0,0.7-0.3,1.1-0.4C31.7,48.6,31.6,49,31.5,49.4L31.5,49.4z
			 M32.5,42.4c0.7,0.3,1.1,1,0.9,1.7c-0.2,1.5-0.9,2.9-2,3.9c0,0-0.1,0-0.1,0.1c0,0,0,0-0.1,0c0.1-0.2,0.2-0.4,0.4-0.6
			c0.4-0.7,0.8-1.4,1.1-2.1c0.1-0.1,0.1-0.3,0-0.4c-0.1-0.2-0.3-0.3,0-0.5c0.3-0.2-0.2-0.6-0.6-0.6c-0.6,0-1.2,0-1.8,0.1h1.4
			c0.2,0,0.4,0.1,0.6,0.2c0,0,0.1,0.1,0.1,0.1c-0.3,0.5,0.4,0.9,0,1.4c-0.4,0.8-0.9,1.6-1.5,2.4c-0.1,0.2-0.4,0.3-0.6,0.3
			c-0.6,0-1.1-0.3-1.4-0.7c-0.2-0.3-0.2-0.7,0-1c0.2-0.2,0.4-0.5,0.6-0.7c0.3-0.3,0.5-0.7,0.4-1.1c0.3,0.4,0.5,0.7,1,0.8
			c0.4,0,0.8-0.1,1.2-0.3c-0.6,0.3-1.4,0.1-1.8-0.3c0.5,0.2,1.1,0.2,1.6-0.1c-1,0.3-2.1-0.3-2.4-1.3c-0.1-0.5,0-1,0.2-1.4
			c0.2-0.3,0.7-0.2,1-0.1C31.4,42,31.9,42.2,32.5,42.4L32.5,42.4z M39.6,31.1c0.1-0.2,0.2-0.2,0.4-0.2c0.1,0,0.3,0.1,0.3,0.2
			c0,0.1,0,0.3-0.2,0.4c-0.8,0.4-1.6,0.8-2.4,1.3c-0.9,0.6-1.3,1.7-1,2.7c0.1,0.4,0.4,0.6,0.8,0.5c0,0,0,0,0,0c0.1,0,0.1,0,0.2-0.1
			c0.9-0.4,1.8-0.9,2.6-1.5c0.2-0.1,0.4-0.2,0.6-0.3c-0.1,0.3-0.4,0.5-0.7,0.7c-0.9,0.6-1.8,1.1-2.8,1.6c-0.2,0.1-0.5,0.1-0.7-0.2
			v-0.1c-0.8-1.2-0.4-2.9,0.8-3.7c0.6-0.4,1.3-0.7,1.9-1.2C39.5,31.3,39.6,31.2,39.6,31.1L39.6,31.1z M37.9,30
			c0.6,0.1,0.9,0.6,1.4,0.8c0.2,0.2,0,0.3-0.2,0.4c-0.6,0.4-1.3,0.8-1.9,1.2c-1.2,0.9-1.2,1.5-1.1,2.9c0,0.5,0.2,0.9,0.6,1.2
			c0.2,0.2,0.4,0.2,0.6,0.1c1.1-0.4,2-1.1,3.1-1.5c-0.2,2-1.1,3.8-3.3,4.1c-0.8,0.1-1.7-0.3-2.2-1c-0.7-0.8-1-1.8-1.1-2.8
			c-0.1-1.7,0.5-3.5,1.7-4.7C36.3,30.1,37.1,29.9,37.9,30L37.9,30z M33,35.3c0.1-0.9,0.3-1.9,0.6-2.8c0.4-0.9,1-1.8,1.9-2.3
			c0.3-0.1,0.5-0.2,0.8-0.3c-1.3,0.8-2.2,2.2-2.4,3.7c-0.1,0.4-0.1,0.8-0.1,1.2c-0.1,0.4-0.4,0.6-0.8,0.6C33,35.4,32.9,35.4,33,35.3
			L33,35.3L33,35.3z M29.8,38.3c1.1-0.8,2.2-1.7,3.3-2.5c0.2-0.1,0.4-0.2,0.6-0.2c-0.3,0.3-0.5,0.4-0.6,0.6c0.3,0,0.5-0.3,0.7-0.4
			c0.2,0.3,0.1,0.7,0.2,1c0.1,0.1,0,0.3-0.1,0.3l-4.2,3.2c0-0.4,0.2-0.8,0.1-1.2c-0.1-0.2,0-0.4,0.2-0.5c-0.1-0.1-0.2,0.2-0.3,0
			C29.6,38.4,29.7,38.4,29.8,38.3L29.8,38.3z M32.8,38.2c0.2-0.2,0.5-0.3,0.7-0.4c0.1,0,0.2-0.2,0.3,0c0.1,0.2,0.1,0.3,0,0.4
			c-0.3,0.3-0.7,0.6-1,0.9c-1.5,1.1-3,2.3-4.5,3.4c-0.1,0.1-0.1,0.1-0.2,0.1c-0.2-0.4-0.1-0.7,0.3-1C29.8,40.4,31.3,39.3,32.8,38.2
			L32.8,38.2z M27.7,41h1.1c-0.1,0.1-0.2,0.2-0.4,0.3C27.9,41.7,27.9,41.7,27.7,41L27.7,41z M25.3,39.7c-0.3,0-0.5,0.2-0.8,0.1
			c0.5-0.6,0.8-1.3,1.3-1.9c0.8-0.7,1.9-0.7,2.7,0c0.5,0.4,0.7,0.9,0.8,1.5c0.1,0.4,0,0.8-0.4,1c-0.4,0.3-0.9,0.4-1.4,0.1
			c-0.4-0.3-0.6-0.8-0.4-1.2l0,0c0.2-0.9,0.1-1-0.8-0.9c-0.2,0-0.5,0-0.6,0.3c0.3-0.1,0.6-0.2,1-0.2c0.5,0,0.5,0.1,0.4,0.5
			c-0.1,0.3-0.1,0.7,0,1.1c-0.4-0.4-0.7-0.1-1.1-0.2c0.9,0.3,1.5,1.1,1.5,2.1c0,0.6,0,1.1,0.1,1.7c0,0.7-0.5,1.3-1.2,1.5
			c0-0.9-0.2-1.8-0.6-2.6c-0.4-0.9-1.4-1.5-2.4-1.5h-0.3l0,0C23.8,40.5,24.6,40,25.3,39.7L25.3,39.7z M23,41.3
			c0.7,0,1.3,0.2,1.8,0.6c0.6,0.7,1,1.5,1.1,2.4c0.2,0.5,0,1.1-0.3,1.4c-0.2,0.2-0.5,0.3-0.7,0.3c0.4-0.8,0.3-1.8-0.4-2.4
			c-0.4-0.4-0.8-0.7-1.2-1c-0.3-0.3-0.7-0.5-1-0.8C22.5,41.7,22.6,41.3,23,41.3z M21.3,42.4c0.2-0.3,0.6-0.4,0.9-0.2c0,0,0,0,0,0
			l0.1,0.1c0.6,0.5,1.1,1,1.7,1.5c0.7,0.4,0.9,1.4,0.5,2.1c-0.2,0.4-0.6,0.7-1.1,0.7c-0.2,0.1-0.2-0.1-0.3-0.3
			c-0.1-0.4,0.1-0.8,0.1-1.2c-0.1-0.6-0.5-1-1.1-1.3c-0.2,0-0.3,0-0.5,0.2l-1.2,0.8C20.5,43.9,20.8,43.1,21.3,42.4z M23.1,45.8
			c-0.2-0.4-0.3-0.8-0.5-1.2C23.2,44.7,23.3,45.1,23.1,45.8L23.1,45.8z M10.7,54.2h-0.7c-0.2,0-0.4-0.2-0.4-0.4c0,0,0-0.1,0-0.1
			c0-0.2,0.3-0.1,0.4,0C10.4,53.8,10.8,53.7,10.7,54.2L10.7,54.2z M10.7,53.1c0,0.2,0,0.4-0.3,0.4c-0.3,0-0.5,0-0.5-0.4
			c0-1.8,0.6-3.6,1.7-5.1c0.5-0.7,1.3-1.1,2.1-1.3c-1.6,1-2.7,2.7-3,4.6C10.7,51.8,10.7,52.4,10.7,53.1L10.7,53.1z M12.4,55.5
			c0.8-0.6,1.6-1.3,2.3-2.1c0.2-0.3,0.4-0.5,0.8-0.4c0.3,0.1,0.6,0,0.8-0.3c-0.1,0.4-0.3,0.8-0.6,1.1C15,54.6,14,55.2,13.2,56
			c-0.1,0.1-0.2,0.2-0.3,0.3c-0.3,0.6-1,0.8-1.6,0.6c-0.2,0-0.5-0.1-0.7-0.1C11.2,56.4,11.8,55.9,12.4,55.5L12.4,55.5z M11.9,57.6
			c-0.3,0-0.6,0-0.9,0c-0.2,0-0.4-0.1-0.5-0.4h1.4c0.4,0,0.8-0.2,1.1-0.5c0.5-0.6,1.1-1.2,1.8-1.8c0.9-0.6,1.6-1.5,1.8-2.6
			c0.1-0.4-0.1-0.8-0.4-1.1c-0.3-0.3-0.8-0.5-1.2-0.3c-0.8,0.3-1.5,0.7-2,1.3c-0.5,0.5-1,1-1.6,1.5c-0.1,0.1-0.2,0.2-0.4,0.1
			c-0.1-0.1-0.1-0.3,0-0.4h0c1.1-1,2.3-1.9,3.7-2.5c0.4-0.3,1-0.2,1.4,0.1c0.4,0.4,0.6,1,0.5,1.6c-0.3,0.9-0.8,1.8-1.6,2.3
			c-0.7,0.6-1.4,1.3-2,2.1C12.8,57.5,12.4,57.7,11.9,57.6z M12.7,58.2c0.4-0.2,0.8-0.2,1.1,0.1C13.4,58.5,13.1,58.3,12.7,58.2z
			 M16.1,57.6c-0.6,0.4-1.4,0.5-2.2,0.3c-0.7-0.2-0.8-0.6-0.3-1.1c0.5-0.5,1.2-1.1,1.8-1.7c0.6-0.5,1-1.1,1.3-1.9
			c0.2-0.6,0.2-1.3-0.1-1.9c-0.2-0.6-0.9-0.9-1.5-0.7c-1.1,0.3-2.1,0.9-3,1.6c-0.4,0.3-0.8,0.6-1.2,1c-0.2-1.8,0.3-3.6,1.4-5
			c0.6-0.9,1.6-1.4,2.6-1.5c1-0.1,2,0.4,2.6,1.3c0.6,1,0.9,2,1.1,3.1c0.1,0.4,0.1,0.8,0.1,1.2C19,54.5,17.9,56.5,16.1,57.6
			L16.1,57.6z M19.8,51.6c-0.2,0.2-0.4,0.3-0.7,0.5c0-0.7-0.1-1.5-0.3-2.2c0,0,0-0.1,0.1-0.2c-0.2-0.2-0.4-0.5-0.3-0.8
			c-0.4-0.2-0.7-1-0.5-1.2c0,0-0.1,0-0.1,0c0,0-0.2,0.1-0.3,0s0.1-0.2,0.1-0.2l1.7-1.4l2.2-1.7c0.1-0.1,0.2-0.3,0.4-0.1
			c0.1,0.1-0.1,0.3-0.1,0.4c0.2-0.1,0.4-0.1,0.4,0.2c0,0,0,0.1,0,0.1c0.2,0.4,0.3,0.8-0.2,1c0,0-0.1,0.1-0.1,0.1h0.1
			c0.2,0,0.3-0.4,0.5-0.2c0.2,0.2,0.2,0.5,0,0.8c0,0,0,0.1-0.1,0.1c0.1,0,0.3-0.1,0.4,0.1c0.4,0.3,0.9,0,1.2-0.2
			c0.4-0.2,0.6-0.2,0.8-0.4c0.8-0.4,1.5-0.8,2.2-1.3c0.4-0.3,0.6-0.8,0.6-1.4c-0.1-0.4,0.1-0.9,0.5-1.1c0.4-0.3,0.8-0.5,1.1-0.8l0,0
			l0,0l2.5-2l1.9-1.5c0.2-0.2,0.3-0.2,0.5,0c0.4,0.5,0.4,0.5-0.1,0.9c-1,0.8-1.9,1.6-2.8,2.4c-0.3,0.3-0.5,0.1-0.7,0
			c-0.4-0.1-0.8-0.1-1.3,0l0,0l0,0c0,0.3-0.3,0.3-0.4,0.6c-0.2,0.4-0.2,0.8-0.2,1.2c0,0.2-0.1,0.4-0.2,0.5l-4,3.4l-5.1,4.3
			L19.8,51.6z M21.5,70.4c0.2,0.5,0.4,1,0.5,1.5C21.8,71.4,21.6,70.9,21.5,70.4L21.5,70.4z M20.7,66.8c-0.2-0.6-0.3-1.1-0.4-1.7
			c-0.1-0.4-0.1-0.9-0.1-1.3c0.1-1.4,0.2-2.8,0.6-4.1c0.4-1.7,0.8-3.4,1.2-5c0.1-0.5,0.2-0.9,0.2-1.4c0-0.3,0.2-0.3,0.4-0.2
			c0.6,0.4,1.1,0.9,1.4,1.4c0.6,0.8,1.2,1.4,1.8,2.2c0.6,0.7,1.1,1.2,1.6,1.8c0.1,0.1,0.2,0.3,0.1,0.4c-0.4,0.7,0,1.2,0.4,1.6
			c0.4,0.5,0.7,1.1,0.7,1.7c0.1,0.9,0.2,1.7,0.3,2.6c0.2,1,0,2.1-0.6,3c-0.5,0.7-1.1,1.4-1.8,2c-1,0.7-2.1,1.4-3.2,2.1
			c-0.3,0.2-0.6,0.1-0.7-0.2C22.1,70,21.5,68.4,20.7,66.8L20.7,66.8z M28.6,74.1c1.3-0.8,2.2-2.1,2.6-3.6
			C31.4,72.2,30.3,73.7,28.6,74.1L28.6,74.1z M31,69.6c-0.4,1.1-1,2.1-1.7,3c-0.7,0.7-1.5,1.2-2.5,1.3c-0.2,0-0.3-0.1-0.6-0.1
			c1.6-0.7,3-1.7,4-3.1l-1.3,1.1c-0.9,0.8-2,1.5-3.1,1.8c-0.3,0.1-0.7,0.1-1,0c-0.7-0.2-1.4-0.5-2-0.9c-0.1,0-0.2-0.1-0.2-0.2
			c0.8,0,1.6-0.3,2.2-0.9c0.8-0.6,1.5-1.2,2.2-1.9c0.9-1,2-1.8,2.4-3.2c0.2-0.7,0.2-1.5,0-2.2c-0.1-0.7-0.3-1.5-0.4-2.3
			c0.2,0.2,0.3,0.4,0.3,0.6c0.3,1.1,0.8,2.1,1,3.2c0.1,0.9,0,1.9-0.4,2.7c-0.2,0.6-0.5,1.1-0.7,1.7c1.4-1.4,1.9-3.5,1.4-5.4
			C31.2,66.5,31.6,68,31,69.6L31,69.6z M32.4,64.7c-0.3,1.3-0.5,2.6-0.6,4c0,0.1-0.1,0.2-0.2,0.3c-0.1-1.8,0.2-3.6-0.5-5.4
			c0.4,0.3,0.8,0.6,1.2,0.9C32.5,64.5,32.5,64.6,32.4,64.7L32.4,64.7z M35,66.6c-0.3,0-0.5-0.3-0.6-0.6c0,0,0-0.1,0-0.1
			c0-0.1,0.1,0,0.1,0c0.6,0.7,1.2,0.3,1.8,0c0.2-0.1,0.5-0.2,0.7-0.4c-0.3,0.1-0.6,0.2-0.9,0.3c-0.5,0.1-1,0.5-1.4-0.2
			c0-0.2,0.4-0.1,0.4-0.3c-0.4,0-0.7-0.1-1.1-0.2c-0.1,0-0.3-0.1-0.3-0.2c0-0.2,0.2,0,0.3-0.1h0.3c-1.8-0.8-3.3-1.8-4-3.8
			c0.3,0,0.6,0.2,0.9,0c-0.1-0.2-0.9,0-0.3-0.7c-0.7,0.2-1.4-0.1-2.1,0c0,0.2,0.3,0.3,0.5,0.4c0.3,0.1,0.4,0.3,0.5,0.6
			c0,0.4-0.1,0.3-0.3,0.2c-0.7-0.4-1.3-1-1.6-1.8c-0.1-0.3,0-0.6,0.4-0.7c0.9-0.2,1.7-0.6,2.4-1.2c-0.2,0-0.5,0.1-0.7,0.2l0.3-0.4
			c-0.6,0.4-1.3,0.7-2,0.8c-0.3,0.1-0.4,0-0.4-0.3c0-0.1,0-0.2,0-0.2c-0.1-0.4,0-0.8,0.4-0.9c0,0,0,0,0,0h0.1l2.4-0.8
			c-0.7-0.1-1.4,0-2,0.2c-0.3,0.1-0.4-0.1-0.4-0.3c-0.1-0.7,0.1-1.2,0.8-1.2c0.7-0.1,1.6-0.3,2.5-0.4c0.2,0,0.4,0.1,0.6,0
			c-0.3-0.2-0.7-0.1-1-0.1c-0.3-0.1-0.5-0.5-0.8-0.7c0.2,0.4,0,0.6-0.3,0.8c-0.3,0.2-0.8-0.1-1.2,0c-0.1-0.2-0.1-0.4-0.1-0.6
			c0.1-0.3,0.3-0.6,0.6-0.8c0.4-0.3,0.7-0.6,1-1c0.8-0.9,1.4-0.6,2,0.3c0.3,0.5,0.5,1.2,0.8,1.7c0.1,0.2,0.2,0.3,0.4,0.4
			c0.7,0.8,1.2,1.7,1.5,2.7c0.4,0.8,0.8,1.5,1.4,2.1c0.3,0.4,0.7,0.8,1.1,1.1c0.6,0.5,0.4,1.3,0.3,1.9c-0.3,1.3-1.1,2.5-2.3,3.2
			c0.9-0.3,1.7-1,2.2-1.8c0.4-0.9,0.5-1.9,0.3-2.9c0.7,1,0.3,2-0.1,3c0.7-0.6,1.1-1.6,1-2.5c0.3,0.3,0.4,0.8,0.2,1.2
			c-0.3,0.9-0.7,1.7-1.3,2.3c-0.4,0.6-0.9,1.1-1.5,1.5C36.1,66.6,35.5,66.7,35,66.6L35,66.6z M47.2,78.8c-0.5,0-1-0.1-1.5-0.2
			c-1.8-0.3-3.5-1-5.3-1.5c-0.6-0.2-1.3-0.2-2-0.1l1.1,0.3c-0.5,0-0.9,0-1.4-0.1c-0.9-0.1-1.7-0.2-2.6-0.3c-0.5-0.1-0.6-0.1-0.6-0.7
			c0-1.4,0.2-2.8,0.6-4.2c0.3-1.2,0.6-2.5,1-3.7c0-0.1,0-0.3,0.2-0.3c0.2,0.1,0.4,0.3,0.3,0.5c0,0,0,0,0,0l0,0
			c-0.2,0.5-0.3,1-0.5,1.5c-0.4,1.3-0.7,2.6-0.8,4c-0.1,0.6-0.1,1.2-0.2,1.8c0,0.3,0,0.4,0.3,0.4c1.2,0,2.4,0.1,3.6,0.2
			c2.4,0.2,4.7,0.7,6.9,1.5c0.2,0.1,0.5,0.2,0.7-0.1c0,0,0.1-0.1,0.1-0.1c0.3,0.2,0.5,0.4,0.7,0.6C47.8,78.6,47.5,78.8,47.2,78.8
			L47.2,78.8z M37.2,68.8c0.6,0.7,1.2,1.4,1.8,2.1c0.7,0.9,1.5,1.7,2.4,2.4c0.4,0.4,0.8,0.8,1.2,1.2c1,0.9,2.1,1.7,3.3,2.5
			c0.3,0.2,0.6,0.4,0.8,0.6c0.1,0.1,0.2,0.2,0.1,0.3c-0.1,0.1-0.2,0.2-0.3,0.1c0,0,0,0,0,0l0,0c-0.9-0.4-1.8-0.7-2.7-0.9
			c-0.9-0.2-1.9-0.4-2.8-0.5c-1.6-0.2-3.2-0.3-4.8-0.3c-0.6,0-0.6-0.2-0.5-0.6c0.1-1.5,0.3-3,0.7-4.5C36.6,70.3,36.9,69.5,37.2,68.8
			z M50.5,68.8c0.5,0.4,1,0.8,1.5,1.2l-0.8-1c1.1,0.3,2,1.3,2.1,2.4c0.1,0.8,0.1,1.6,0,2.4c-0.1,0.5-0.1,1-0.1,1.4
			c0,0.9-0.3,1.7-0.7,2.5c-0.1,0.4-0.3,0.8-0.6,1.1c-0.2,0.2-0.5,0.3-0.8,0.2c-1.4-0.3-2.6-1-3.7-1.9c-0.8-0.7-1.8-1.1-2.6-1.8
			c-0.8-0.6-1.6-1.3-2.4-2c-1-0.9-2-1.9-3-3c-0.9-1-1.8-2-2.6-3.2c-0.1-0.2-0.2-0.3,0.1-0.4c0.8-0.5,1.4-1.2,1.9-2
			c0.3-0.6,0.7-1.1,1.1-1.7c0.6,0.7,1.2,1.3,1.9,1.8c1.3,0.9,2.8,1.5,4.4,1.8C47.8,67,49.3,67.7,50.5,68.8L50.5,68.8z M50.8,65.7
			c-0.1,0.8-0.3,1-1.4,1.2c-0.5,0.1-1.1,0.1-1.6-0.1c-0.8-0.3-1.7-0.4-2.6-0.6c-1.2-0.4-2.4-1-3.4-1.7c-0.3-0.3-0.7-0.6-1-0.9
			c-0.1-0.1-0.3-0.2-0.1-0.4c0.1-0.2,0.3-0.1,0.4,0c1.5,0.8,3.1,1.4,4.8,1.8c0.8,0.2,1.7,0.4,2.6,0.5c0.7,0.1,1.5,0.1,2.2,0
			C50.8,65.5,50.9,65.5,50.8,65.7L50.8,65.7z M51.7,66c-0.1,0.4-0.5,0.3-0.8,0.4c-0.1,0-0.1,0-0.1-0.2c0-0.2,0.1-0.4,0.1-0.6
			c0.2-0.4,0-0.5-0.4-0.5c-0.7,0.1-1.4,0.1-2,0c-1.1-0.1-2.2-0.2-3.2-0.6c-1-0.3-2.1-0.7-3.1-1.1c-0.4-0.2-0.9-0.5-1.3-0.7
			c-0.2-0.1-0.4,0-0.5,0.1s-0.1,0.2-0.2,0.1c-0.1-0.1,0-0.4,0.1-0.6c0.1-0.2,0.1-0.3,0.4-0.2c0.7,0.3,1.3,0.5,2,0.7
			c1.7,0.5,3.4,1,5.1,1.2c1.4,0.2,2.7,0.4,4.1,0.5c0.2,0,0.2,0.1,0.2,0.3L51.7,66L51.7,66z M52.7,65.9c-0.2,0-0.4,0.1-0.6,0.1
			c0.2-0.4,0.5-0.8,0.7-1.2c0.2-0.4,0.1-0.5-0.3-0.5c-3.6-0.1-7.1-0.8-10.4-2.1c-0.4-0.1-0.8-0.2-1.2-0.4c-0.4-0.1-0.6,0-0.6,0.4
			c0,0.2-0.1,0.3-0.1,0.5c0-0.5-0.1-1-0.3-1.5c0.4,0,0.9,0,1.3,0.1c1.1,0.1,2.2,0.2,3.2,0.4c1.3,0.2,2.5,0.6,3.7,1
			c1.2,0.4,2.5,0.5,3.7,1c0.5,0.2,0.8-0.1,1.2-0.7c0.8-1.4,1.7-2.9,2.6-4.2c1.3-1.9,3-3.4,5-4.5c0.4-0.2,0.9-0.3,1.4-0.1
			c0.7,0.3,1.5,0.4,2.3,0.7c-1.3,0.2-2.6,0.7-3.8,1.4c1.1-0.4,2.2-0.7,3.4-0.9c-1.4,0.6-2.7,1.4-3.9,2.3c-0.7,0.6-1.4,1.2-2,2
			c-1.4,1.6-2.5,3.5-3.8,5.3C53.8,65.5,53.3,65.8,52.7,65.9L52.7,65.9z M59.3,75.4c-0.1-0.4,0.2-0.6,0.3-0.8
			c1.7-2.1,3.1-4.4,4.3-6.8c0.6-1.2,1.1-2.4,1.4-3.6c-1.6,3.5-3.5,6.9-5.8,10c0.3-2,0.9-4,1.8-5.8c-1.2,1.5-2,3.3-2.3,5.2
			c-0.4-1-0.8-2-1.2-3c-0.3-0.7-0.6-1.4-0.9-2.1c0-0.1-0.1-0.4-0.2-0.1c0,0-0.1-0.1-0.1-0.1c-0.7-0.8-1.5-1.5-2.5-2
			c-0.3-0.1-0.6-0.2-0.9-0.3c0.5-0.2,0.9-0.4,1.3-0.6c1.2-0.7,2.4-1.3,3.7-1.8c0.9-0.3,1.8-0.6,2.7-0.7c0.6-0.1,1.1,0,1.7,0
			c-1.5-0.4-3-0.4-4.5,0.2c-0.6,0.2-1.2,0.5-1.8,0.7c-0.1,0-0.2,0.1-0.3,0c-0.1-0.1,0-0.2,0.1-0.3c1.2-1.4,2.7-2.4,4.3-3.1
			c0.7-0.3,1.4-0.4,2.2-0.4c-1.8-0.2-3.6,0.3-5,1.4c0.5-0.6,1-1.2,1.5-1.7c1-1.1,2.1-2.1,3.4-2.9c0.3-0.2,0.6-0.2,0.9-0.1
			c2.1,0.6,3.6,2.3,4,4.5c0.3,1,0.4,2,0.5,3c0,0.8-0.1,1.6-0.4,2.4c-0.5,1.2-1.2,2.2-2.1,3.1l1.4-2.4l-0.1-0.1
			C64.9,70.4,62.3,73.2,59.3,75.4L59.3,75.4z M62.5,74.5c0,0.1-0.1,0.2-0.2,0.1c-0.1,0-0.1-0.1-0.1-0.2c0-0.1,0.1-0.1,0.1-0.2
			c0,0,0.3-0.2,0.5-0.3l0.1,0C62.7,74.2,62.6,74.4,62.5,74.5z M61.9,74.2c0.9-1,2-1.7,2.9-2.6C64.1,72.7,63.1,73.6,61.9,74.2
			L61.9,74.2z"/>
		<path id="Path_3260_1_" d="M55.3,77.3c1.3-2.1,1.6-4.7,0.8-7.1C56.5,72.7,55.9,75,55.3,77.3z"/>
		<path id="Path_3261_1_" d="M52.9,67.8c1.2,1.3,2.6,2.5,3,4.4C56.2,70.4,53.9,68.1,52.9,67.8z"/>
		<path id="Path_3262_1_" d="M33.4,78.4v-4.7C33.1,75.2,33.1,76.8,33.4,78.4z"/>
		<path id="Path_3264_1_" d="M34.8,80.3L34.8,80.3c-0.4-1.1-0.7-2.3-0.8-3.5C33.9,78,34.1,79.2,34.8,80.3z"/>
		<path id="Path_3265_1_" d="M57.3,24.9c-1.4,0.3-2.5,1.2-3.3,2.3c-0.4,0.7-1.1,1.2-1.8,1.5c0.2,0.1,0.5,0,0.7-0.1
			c0.7-0.4,1.3-0.9,1.7-1.5c0.5-0.6,1.1-1,1.7-1.4c1-0.4,2.1-0.6,3.2-0.7C58.8,24.9,58,24.8,57.3,24.9z"/>
		<path id="Path_3266_1_" d="M64,33.4c0.4-2.4-1.4-5.8-2.7-6.6c0.8,0.9,1.3,2,1.7,3.1C63.4,31.1,63.8,32.2,64,33.4z"/>
		<path id="Path_3267_1_" d="M61.9,33.3c-0.2,0-0.3,0.2-0.4,0.4c0,0.1,0,0.2,0,0.3c0,0.2-0.1,0.5,0.2,0.5s0.4-0.2,0.5-0.5
			c0-0.1,0-0.2,0-0.2C62.2,33.6,62.2,33.3,61.9,33.3z"/>
		<path id="Path_3268_1_" d="M63.1,34.2c-0.2,0-0.5,0.4-0.5,0.6c0.1,0.2,0,0.6,0.3,0.5c0.3,0,0.3-0.5,0.4-0.8
			C63.2,34.4,63.3,34.2,63.1,34.2z"/>
		<path id="Path_3269_1_" d="M46.5,73.1c-0.8-0.2-1.7-0.3-2.5-0.4C44.3,73.5,45.9,73.7,46.5,73.1z"/>
		<path id="Path_3270_1_" d="M49.1,77.3c1.7,0.8,2.7,0.6,3.2-0.4C51.3,77.8,50.2,77.3,49.1,77.3z"/>
		<path id="Path_3271_1_" d="M52.1,74.5c-0.6,0.2-1.1,0.6-1.6,1C51.2,75.5,51.7,75.1,52.1,74.5z"/>
		<path id="Path_3272_1_" d="M45.6,73.9c0.5,0.1,1.1,0,1.6-0.2C46.7,73.9,46.2,73.7,45.6,73.9z"/>
		<path id="Path_3273_1_" d="M50.1,74.6c-0.4,0.1-0.7,0.3-1,0.6C49.5,75.2,49.8,74.9,50.1,74.6z"/>
		<path id="Path_3274_1_" d="M66.7,63.3c-0.5,1.7-1,3.4-1.3,5.2C66.1,66.9,66.5,65.1,66.7,63.3z"/>
		<path id="Path_3275_1_" d="M57.9,63.2c1.3-0.7,2.7-1.3,4.1-2.1C60.4,61.4,59,62.1,57.9,63.2z"/>
		<path id="Path_3276_1_" d="M60.7,62c1-0.3,2-0.6,3-0.8C62.6,61.1,61.6,61.4,60.7,62z"/>
		<path id="Path_3277_1_" d="M62.6,61.8l1.7-0.4C63.7,61.4,63.1,61.5,62.6,61.8z"/>
		<path id="Path_3278_1_" d="M62.2,66c0.4-0.4,0.7-0.8,1-1.2C62.8,65.1,62.5,65.5,62.2,66z"/>
		<path id="Path_3279_1_" d="M63.2,62.1l1.6-0.2C64.3,61.8,63.7,61.9,63.2,62.1z"/>
		<path id="Path_3280_1_" d="M49,37.3c0.1,0,0.2-0.1,0.3-0.1c0.3-0.1,0.7,0,0.9,0.2c-0.2,0.1-0.4,0.2-0.5,0.4
			c-0.1,0.2,0.1,0.4,0.1,0.6c-0.3-0.1-0.7-0.3-0.8-0.6c0.1,0.5,0.5,0.7,1.1,0.7s0.6-0.3,0.8-0.5s0.1-0.5-0.1-0.7
			c-0.3-0.4-0.8-0.6-1.3-0.5c-0.1,0-0.2,0-0.4,0c0.6-0.4,0.7-0.4,1.5,0c-0.5-0.7-1-0.7-1.5-0.1c-0.1,0.1-0.3,0.2-0.2,0.4
			c0,0-0.2-0.1-0.1,0.1C48.8,37.2,48.9,37.3,49,37.3z"/>
		<path id="Path_3281_1_" d="M57,37.9c-0.3,0.1-0.5,0.2-0.6-0.1l0,0c-0.6-0.4-1.5-0.3-2,0.4c0,0.1-0.1,0.1-0.1,0.2
			c0.3-0.2,0.5-0.6,1-0.4c-0.2,0.2-0.3,0.5-0.1,0.8c-0.2,0.1-0.6-0.1-0.8,0.2c0.2,0,0.4,0.1,0.6,0.1c0.4,0.1,0.8,0,1.1-0.1
			c0,0,0.2,0,0.1-0.1c-0.1-0.1,0-0.4,0-0.7c0.3,0.1,0.6,0.3,0.8,0.1C57.1,38.1,56.6,38.3,57,37.9z"/>
		<path id="Path_3282_1_" d="M57.5,36.5c0.1,0,0.1,0.1,0.2,0.1c-0.1-0.2-0.2-0.4-0.3-0.6c-0.2-0.5-0.7-0.8-1.2-0.7
			c-0.9,0.2-1.6,0.6-2.2,1.2c0.4,0,0.8-0.1,1.2-0.2C55.9,35.9,56.8,36,57.5,36.5z"/>
		<path id="Path_3283_1_" d="M61.5,41.5c0.2-0.1,0.4-0.2,0.3-0.5c-0.1-0.2,0.1-0.4,0.3-0.6c0.1,0.4,0.3,0.7,0.1,1.1
			c-0.1,0.4-0.4,0.6-0.5,1c0.4-0.2,0.8-0.5,1-0.9c0.2-0.5-0.1-0.8-0.3-1.3l0.5,0.2c-0.4-0.8-0.8-0.9-1.2-0.3
			c-0.2,0.2-0.3,0.4-0.5,0.6c-0.2,0.2,0,0.4,0.1,0.6C61.2,41.5,61.3,41.6,61.5,41.5C61.4,41.5,61.4,41.5,61.5,41.5L61.5,41.5z"/>
		<path id="Path_3284_1_" d="M50.1,39.6c-0.1,0.2-0.2,0.4-0.2,0.7c0,0.2-0.1,0.2-0.2,0.2c-0.1,0-0.2-0.1-0.2-0.2
			c0-0.1,0.1-0.4,0.2-0.6c-0.5,0.2-0.6,0.4-0.5,0.7c0,0.3,0.5,0.6,0.6,0.5c0.2-0.1,0.2-0.1,0.3,0c0.2,0.4,0.8,0.6,1.2,0.4
			C50.7,40.9,50.2,40.3,50.1,39.6z"/>
		<path id="Path_3285_1_" d="M54.6,40.3c-0.3,0.3-0.5,0.7-0.3,1.2c0.1,0.5,0.5,0.7,1.4,0.8C55.1,41.8,54.5,41.3,54.6,40.3z"/>
		<path id="Path_3286_1_" d="M50.9,38.8l-0.5,0.6c1.3-0.4,1.7-1.5,1.2-2.2c0.1,1-0.7,1.3-1.3,1.8L50.9,38.8z"/>
		<path id="Path_3287_1_" d="M56.4,37.6c-0.4-0.6-1.2-0.8-1.8-0.4l-0.1,0.1c0.3,0.2,0.3,0.2,0.4,0.1c0.5-0.3,1.2-0.1,1.5,0.4
			C56.5,37.7,56.4,37.6,56.4,37.6z"/>
		<path id="Path_3290_1_" d="M49,40.7c-0.5,0.2-0.9,0.5-1.4,0.9C48.5,41.7,48.9,41.5,49,40.7z"/>
		<path id="Path_3291_1_" d="M59.7,41.2c-0.5,0.4-1,0.9-1.4,1.4C58.9,42.4,59.5,41.8,59.7,41.2z"/>
		<path id="Path_3292_1_" d="M53.4,41.3c0.5-0.5,0.5-0.7-0.1-1.1C53.5,40.6,53.5,41,53.4,41.3z"/>
		<path id="Path_3293_1_" d="M53,41c-0.3-0.5-0.6-0.4-1,0.1C52.4,41.1,52.6,40.8,53,41z"/>
		<path id="Path_3294_1_" d="M53.6,39.1c-0.2-0.3,0.1-0.5,0-0.8C53.2,38.7,53.2,38.8,53.6,39.1z"/>
		<path id="Path_3295_1_" d="M23.1,67c0.5,0.3,1.2,0.2,1.6-0.2C24.2,66.7,23.6,66.8,23.1,67z"/>
		<path id="Path_3296_1_" d="M26.4,68.6c-0.5,0.2-1,0.4-1.5,0.8C25.5,69.5,26.1,69.2,26.4,68.6z"/>
		<path id="Path_3297_1_" d="M25.4,68c-0.5,0.1-1,0.2-1.4,0.5C24.6,68.6,25.1,68.4,25.4,68z"/>
		<path id="Path_3298_1_" d="M24.2,66.5c-0.4-0.1-0.9-0.2-1.3-0.2C23.2,66.6,23.7,66.6,24.2,66.5z"/>
		<path id="Path_3299_1_" d="M24.9,67.6c-0.4,0.1-0.8,0-1.1,0.2C24.1,67.9,24.6,67.9,24.9,67.6z"/>
		<path id="Path_3300_1_" d="M24,65.8c-0.4-0.2-0.9-0.1-1.3-0.3C23.1,65.7,23.6,65.8,24,65.8z"/>
		<path id="Path_3301_1_" d="M25.4,68.6c-0.3,0-0.6,0.2-0.9,0.4C24.9,69,25.2,68.9,25.4,68.6z"/>
		<path id="Path_3302_1_" d="M36.6,61.3c-0.6-1-1.2-2-1.9-3C35,59.5,35.6,60.5,36.6,61.3z"/>
		<path id="Path_3303_1_" d="M34.1,59c0.4,1.1,1,2,1.8,2.9L34.1,59z"/>
		<path id="Path_3304_1_" d="M37,60.1l-1.4-2C35.8,58.9,36.3,59.6,37,60.1z"/>
		<path id="Path_3305_1_" d="M26.9,52.5c0.2,0.7,0.5,1.4,1,2C27.7,53.7,27.4,53.1,26.9,52.5z"/>
		<path id="Path_3306_1_" d="M54.1,65c0.8-1.4,1.7-2.8,2.5-4.2C55.4,61.9,54.6,63.4,54.1,65z"/>
		<path id="Path_3307_1_" d="M58.9,56.4c1.3-0.5,2.7-0.9,4-1.3C61.5,55.1,60.1,55.5,58.9,56.4z"/>
		<path id="Path_3308_1_" d="M11.2,52.4c0.8-1.6,1.8-3.1,2.9-4.6C12.7,49.1,11.7,50.7,11.2,52.4z"/>
		<path id="Path_3309_1_" d="M17.5,54.9c0.2-0.7,0.3-1.4,0.3-2.1L17.5,54.9z"/>
		<path id="Path_3310_1_" d="M46.7,60.9c1.8-0.4,3.5-1.2,5-2.3C50.1,59.5,48.4,60.1,46.7,60.9z"/>
		<path id="Path_3311_1_" d="M48.5,57.4c0.2,0,0.3-0.1,0.4-0.3c0.1-0.1-0.1-0.4-0.2-0.6c0.6-0.2,1.2-0.2,1.8-0.5
			c-0.3-0.1-0.6,0.1-0.9,0.1c-0.5,0-0.9,0.1-1.3,0.4c-0.2,0.1-0.3,0.2-0.2,0.5S48.3,57.4,48.5,57.4z M48.4,56.8
			c0.1,0,0.2,0.1,0.2,0.2c0,0.1-0.1,0.2-0.3,0.2c-0.1,0-0.2-0.1-0.2-0.2C48.2,56.9,48.3,56.8,48.4,56.8
			C48.4,56.8,48.4,56.8,48.4,56.8z"/>
		<path id="Path_3312_1_" d="M50.4,60.3l2.1-0.9C51.7,59.4,51,59.8,50.4,60.3z"/>
		<path id="Path_3313_1_" d="M51.4,56.3l-1.7,0.3C50.3,56.7,50.9,56.6,51.4,56.3z"/>
		<path id="Path_3314_1_" d="M43.8,56c-0.1,0.6,0,1.2,0.3,1.7L43.8,56z"/>
		<path id="Path_3315_1_" d="M44.4,59.1l-0.7-1.4C43.7,58.2,44,58.7,44.4,59.1z"/>
		<path id="Path_3316_1_" d="M52.9,52.5c0.7-0.2,1.4-0.6,2-1.2L52.9,52.5z"/>
		<path id="Path_3317_1_" d="M56.8,48.9L56.8,48.9l-1.3,1.2l0.1,0.1L56.8,48.9z"/>
		<path id="Path_3318_1_" d="M36.1,31.5c-0.6,0.8-1,1.8-1.2,2.8L36.1,31.5z"/>
		<path id="Path_3319_1_" d="M35.9,32.9c-0.4,0.7-0.7,1.4-0.9,2.1C35.3,34.4,35.7,33.6,35.9,32.9z"/>
		<path id="Path_3320_1_" d="M38.9,57.7l1.5-4.2C39.6,54.8,39.1,56.2,38.9,57.7z"/>
		<path id="Path_3321_1_" d="M40.7,55.1c0.7-0.7,1.2-1.5,1.6-2.3C41.5,53.4,41,54.2,40.7,55.1z"/>
		<path id="Path_3322_1_" d="M40,55.7c0.5-0.8,0.9-1.6,1.3-2.4C40.6,54,40.2,54.9,40,55.7z"/>
		<path id="Path_3323_1_" d="M42.2,51.3c-0.7,0.5-1.3,1.1-1.8,1.7C41,52.5,41.6,51.9,42.2,51.3z"/>
		<path id="Path_3324_1_" d="M42.6,54.8c-0.5,0.6-0.9,1.2-1.2,2C41.8,56.2,42.2,55.5,42.6,54.8L42.6,54.8z"/>
		<path id="Path_3325_1_" d="M42.6,54.8L42.6,54.8c0.5-0.5,0.9-1,1.2-1.6l0,0C43.3,53.7,42.9,54.2,42.6,54.8z"/>
		<path id="Path_3326_1_" d="M43.8,53.2L43.8,53.2z"/>
		<path id="Path_3327_1_" d="M42.6,54.8L42.6,54.8z"/>
		<path id="Path_3328_1_" d="M35.9,54.5c0.4-0.9,1-1.8,1.7-2.6C36.8,52.6,36.2,53.5,35.9,54.5z"/>
		<path id="Path_3329_1_" d="M56,54.8c-0.4,0.4-0.6,1-0.7,1.5C55.5,55.8,55.8,55.4,56,54.8z"/>
		<path id="Path_3330_1_" d="M56.1,55.8l0.6-1.1l-0.1-0.1C56.5,55.1,56.1,55.4,56.1,55.8z"/>
		<path id="Path_3331_1_" d="M63,38.2c-0.2,0-0.2,0.1-0.2,0.3c0,0.1,0.1,0.2,0.2,0.2c0.1,0,0.2-0.1,0.2-0.4
			C63.2,38.2,63.1,38.2,63,38.2z"/>
		<path id="Path_3332_1_" d="M63.6,39c-0.2,0-0.2,0.1-0.2,0.2c0,0.2,0.1,0.4,0.2,0.3c0.1,0,0.2-0.1,0.2-0.3
			C63.8,39.1,63.8,39,63.6,39z"/>
	</g>
</g>
</svg>
