<?xml version="1.0" encoding="UTF-8"?>
<svg id="Layer_2" data-name="Layer 2" xmlns="http://www.w3.org/2000/svg" viewBox="0 0 243.03 347.7">
  <defs>
    <style>
      .cls-1 {
        fill: #fff800;
        stroke-width: 0px;
      }
    </style>
  </defs>
  <g id="Layer_1-2" data-name="Layer 1">
    <path class="cls-1" d="M123.01,0c-5.5.25-9.92.19-14.28.7-26.57,3.15-50.24,13.16-69.59,31.77C5.18,65.14-6.89,104.76,3.75,150.81c6.38,27.61,18.64,52.89,32.45,77.42,23.15,41.1,50.93,78.99,80.8,115.4q4.44,5.41,8.8.1c33.7-41.23,64.98-84.11,89.49-131.58,10.9-21.1,20.12-42.88,24.98-66.27,6.98-33.59.74-64.84-18.7-92.83C197.61,18.54,163.84,1.34,123.01,0ZM120.85,196.31c-41.94-.93-74.83-34.74-73.9-75.95.92-41.15,34.85-74.2,75.29-73.36,41.76.86,74.71,34.91,73.7,76.15-1.01,40.96-34.98,74.06-75.09,73.16Z"/>
  </g>
</svg>