<svg xmlns="http://www.w3.org/2000/svg" viewBox="0 0 168.44 168.44"><defs><style>.cls-1{fill:#00a651;}.cls-2{fill:#fff200;}</style></defs><title>project</title><g id="Layer_2" data-name="Layer 2"><g id="Layer_1-2" data-name="Layer 1"><path class="cls-1" d="M151.21,66.26c-1.6-.94-3.21-1.86-4.83-2.79-1.23-.7-2.59-2.09-3.68-1.9-1.26.21-1.65,2.23-2.38,3.49-6.5,11.21-12.95,22.45-19.48,33.64-.66,1.14-.49,1.62.62,2.22,2.45,1.31,4.86,2.73,7.25,4.17.76.45,1.13.47,1.62-.38q10.57-18.42,21.22-36.8c.16-.29.31-.58.44-.83C151.94,66.56,151.53,66.45,151.21,66.26Z"/><path class="cls-2" d="M125.84,109.94c-2.45-1.43-4.92-2.83-7.37-4.28-.76-.44-.9,0-1.11.58-1.07,2.92-2.13,5.84-3.28,8.73-.3.77,0,1.08.56,1.41,1.25.68,2.5,1.36,3.68,2.15.79.53,1.19.3,1.72-.37,1.85-2.3,3.76-4.56,5.65-6.83l.69-.88A2.89,2.89,0,0,0,125.84,109.94Z"/><path class="cls-2" d="M111.67,121.35c-.58,0-1.84,2.3-1.88,3.4a2.68,2.68,0,0,0,2.64,2.9c1.31,0,3.63-2.18,3.67-3.49C116.11,123.84,112.15,121.33,111.67,121.35Z"/><path class="cls-2" d="M159.54,51.62c-2.52-1.41-5-2.88-7.52-4.32l-.84-.47c-.44,0-.54.35-.7.61-1.56,2.69-3.09,5.4-4.69,8.07-.45.75-.14,1,.47,1.37,2.61,1.48,5.21,3,7.79,4.5.71.42,1.08.42,1.52-.37,1.45-2.63,2.94-5.23,4.5-7.8C160.6,52.34,160.27,52,159.54,51.62Z"/><path class="cls-2" d="M160,39.43c-1.33,0-3.68,2.24-3.67,3.5a18,18,0,0,0,4.49,2.81c.56,0,1.91-2.6,1.9-3.62A2.7,2.7,0,0,0,160,39.43Z"/><path d="M129.17,132.33c-.16-2-1.23-3.16-2.88-3.15s-2.73,1.21-2.85,3.17c0,.44,0,.88,0,1.31v25c0,3.34-.83,4.18-4.15,4.18H9.91c-3.41,0-4.31-.89-4.31-4.26V9.9c0-3.39.88-4.26,4.3-4.26H119.27c3.36,0,4.16.8,4.16,4.16V59.63a6.46,6.46,0,0,0,.31,2.59,2.62,2.62,0,0,0,2.73,1.7,2.52,2.52,0,0,0,2.44-1.86,6.68,6.68,0,0,0,.26-1.94q0-25.41,0-50.82c0-3.82-1.48-6.79-5-8.55-.58-.28-1.29-.25-1.78-.75H6.57c-.06.25-.28.28-.48.36C2,1.86,0,4.62,0,8.91Q0,84.24,0,159.57c0,5.34,3.51,8.86,8.84,8.86H120.2a10.18,10.18,0,0,0,2.28-.19c4.13-1,6.65-4.17,6.68-8.78.07-8.88,0-17.76,0-26.64A4,4,0,0,0,129.17,132.33Z"/><path d="M168,39.45a8.44,8.44,0,0,0-10-5.52c-2.82.63-4.64,2.53-6,5-.31.57-.46,1.42-1.48,1.19-1.74-.38-2.77.55-3.57,2-1.77,3.09-3.59,6.15-5.39,9.22-1.23,2.09-1.23,2.09-3.41,1s-4.58,0-4.52,2.3A3.28,3.28,0,0,0,136,57.51c1.3.57,1.39,1.15.66,2.4-7.47,12.82-14.86,25.69-22.28,38.53a20.26,20.26,0,0,0-1.25,2.67c-2.68,6.75-4.71,13.76-8.39,20.11a7.88,7.88,0,0,0,0,7.58c.22.46.75.86.25,1.47-1.94,2.34-3.86,4.7-5.88,7.17-.76-1.75-1.32-3.36-2.12-4.84a5.53,5.53,0,0,0-9.34-.78c-.41.51-.59,1.25-1.41,1.64,0-.59-.07-1-.11-1.43-.3-3.22-.47-6.45-.92-9.65a5.38,5.38,0,0,0-4.84-4.64,5.6,5.6,0,0,0-6,3.69c-2.34,6.82-4.59,13.67-6.85,20.53a2.81,2.81,0,0,0,1,3.39c1.76,1.31,3.66.61,4.45-1.72,2-5.9,4-11.83,5.92-17.74.15-.47.35-.93.54-1.44a1.21,1.21,0,0,1,.44,1c.24,2.84.49,5.68.7,8.52s1.68,5,4.15,5.69,4.84-.3,6.5-2.69c.26-.37.34-.93,1-1.07.45,1.11.88,2.22,1.34,3.32,2,4.92,7,5.64,10.34,1.5,1.75-2.18,3.49-4.37,5.19-6.58a2,2,0,0,1,2.06-1c4,.44,6.89-1.34,8.81-4.74a47.08,47.08,0,0,1,5.71-8,90,90,0,0,0,12.36-17.55c2.08-4,4.45-7.8,6.69-11.69Q150.64,81,156.52,70.88c.24-.43.23-1.26,1.2-.93,3.12,1,3.94,3.1,2.3,6L150,93.27a11,11,0,0,0-.83,1.6,2.75,2.75,0,0,0,1.21,3.41,2.61,2.61,0,0,0,3.42-.61,5.86,5.86,0,0,0,.75-1.07q5.3-9.16,10.58-18.35a11.52,11.52,0,0,0,1-2.08c1.36-4.14-.37-8-4.81-10.48-1.1-.62-1.32-1.07-.63-2.21,2.06-3.36,4-6.81,6-10.22.74-1.29,1-2.61-.11-3.8a1,1,0,0,1-.09-1.43,23.47,23.47,0,0,0,2-4.27V40.47C168.05,40.23,168.12,39.79,168,39.45Zm-55.57,88.2a2.68,2.68,0,0,1-2.64-2.9c0-1.1,1.3-3.39,1.88-3.4s4.44,2.49,4.43,2.81C116.06,125.47,113.74,127.69,112.43,127.65Zm13.26-16.32c-1.89,2.27-3.8,4.53-5.65,6.83-.53.67-.93.9-1.72.37-1.18-.79-2.43-1.47-3.68-2.15-.61-.33-.86-.64-.56-1.41,1.15-2.89,2.21-5.81,3.28-8.73.21-.58.35-1,1.11-.58,2.45,1.45,4.92,2.85,7.37,4.28a2.89,2.89,0,0,1,.54.51Zm25.86-43.42q-10.62,18.39-21.22,36.8c-.49.85-.86.83-1.62.38-2.39-1.44-4.8-2.86-7.25-4.17-1.11-.6-1.28-1.08-.62-2.22,6.53-11.19,13-22.43,19.48-33.64.73-1.26,1.12-3.28,2.38-3.49,1.09-.19,2.45,1.2,3.68,1.9,1.62.93,3.23,1.85,4.83,2.79.32.19.73.3.78.82C151.86,67.33,151.71,67.62,151.55,67.91Zm8.52-14.7c-1.56,2.57-3,5.17-4.5,7.8-.44.79-.81.79-1.52.37-2.58-1.53-5.18-3-7.79-4.5-.61-.35-.92-.62-.47-1.37,1.6-2.67,3.13-5.38,4.69-8.07.16-.26.26-.63.7-.61l.84.47c2.51,1.44,5,2.91,7.52,4.32C160.27,52,160.6,52.34,160.07,53.21Zm.76-7.47a18,18,0,0,1-4.49-2.81c0-1.26,2.34-3.5,3.67-3.5a2.7,2.7,0,0,1,2.72,2.69C162.74,43.14,161.39,45.7,160.83,45.74Z"/><path d="M32.82,22.48q33.13.07,66.26,0c.61,0,1.21,0,1.81,0,1.82-.16,3-1.34,3-2.86a3,3,0,0,0-3.1-2.8c-.44,0-.88,0-1.32,0H29.25c-3.09,0-4,.9-4,4q0,4.44,0,8.87c0,3.19.89,4.07,4.13,4.07H99.76a8.76,8.76,0,0,0,2.11-.24,2.55,2.55,0,0,0,2-2.54,2.63,2.63,0,0,0-1.8-2.68A6.85,6.85,0,0,0,99.45,28H34.5c-3.6,0-3.52,0-3.64-3.55C30.81,22.91,31.21,22.47,32.82,22.48Z"/><path class="cls-1" d="M11.84,138.76a23.84,23.84,0,0,0,47.08-5,2.91,2.91,0,0,0-1.78-3c-2-.81-3.73.65-3.84,3.11a18.16,18.16,0,0,1-20.17,17.56c-8.07-.81-14.94-7.28-16-15.08-1.23-8.78,3.36-16.88,11.35-19.92,6.08-2.31,11.79-1.43,17.19,2.11,1.85,1.22,3.52.94,4.43-.56s.42-3-1.34-4.16c-4.09-2.79-8.58-4.29-15-4.27C19.86,109.4,8.29,123.88,11.84,138.76Z"/><path d="M108.55,58.92H49.2c-2.92,0-4.32.95-4.29,2.9s1.39,2.78,4.21,2.78q29.51,0,59,0a10.82,10.82,0,0,0,1.8-.12,2.63,2.63,0,0,0,2.3-2.74C112.21,59.92,110.93,58.93,108.55,58.92Z"/><path d="M91.6,39.27q-27,0-54.08,0c-2.45,0-3.86,1.08-3.86,2.87S35.07,45,37.51,45H91.26a6,6,0,0,0,2.42-.31A2.63,2.63,0,0,0,95.39,42a2.53,2.53,0,0,0-1.85-2.44A6.39,6.39,0,0,0,91.6,39.27Z"/><path d="M81.37,78.57c0-1.9-1.41-2.83-4.19-2.83H50.55q-13.63,0-27.28,0c-2.33,0-3.6,1.08-3.58,2.92s1.26,2.76,3.52,2.82h53.9C80,81.5,81.4,80.52,81.37,78.57Z"/><path d="M36.53,95.45H49.69a4.14,4.14,0,0,0,2.08-.31A2.64,2.64,0,0,0,53.21,92a2.85,2.85,0,0,0-3.11-2.14q-13.41,0-26.81,0c-2.37,0-3.62,1-3.6,2.86s1.21,2.75,3.52,2.76Z"/><path class="cls-1" d="M43.72,126.33c-2.83,2.82-5.69,5.62-8.48,8.49-.71.73-1.1.72-1.79,0-1.53-1.64-3.13-3.22-4.76-4.77-1.42-1.36-3.05-1.43-4.23-.28a2.9,2.9,0,0,0,.21,4.24c1.87,1.93,3.78,3.81,5.69,5.7a6.15,6.15,0,0,0,4,1.69,5.39,5.39,0,0,0,3.43-1.28c3.49-3.4,7-6.8,10.35-10.32a2.72,2.72,0,0,0-.93-4.39C45.83,124.76,44.72,125.33,43.72,126.33Z"/><path d="M99.77,75.74c-3,0-5.92,0-8.88,0A7.36,7.36,0,0,0,89,76,2.75,2.75,0,0,0,89,81.26a7.45,7.45,0,0,0,1.62.23q9,0,18.07,0a5.53,5.53,0,0,0,1.62-.24,2.55,2.55,0,0,0,1.89-2.57c0-1.79-1.21-2.89-3.42-2.92C105.79,75.71,102.78,75.74,99.77,75.74Z"/><path d="M62.26,95.44c3.07,0,6.14,0,9.21,0s6.25,0,9.37,0c2.11,0,3.34-1.06,3.36-2.77s-1.28-2.83-3.32-2.83q-9.28,0-18.58,0c-2,0-3.36,1.14-3.38,2.81S60.2,95.43,62.26,95.44Z"/></g></g></svg>