<svg xmlns="http://www.w3.org/2000/svg" xmlns:xlink="http://www.w3.org/1999/xlink" viewBox="0 0 1994.51 930.61"><defs><style>.cls-1{isolation:isolate;}.cls-2{fill:#f9ed32;}.cls-3{fill:url(#linear-gradient);}.cls-10,.cls-11,.cls-14,.cls-15,.cls-19,.cls-21,.cls-4,.cls-7,.cls-8{opacity:0.3;}.cls-10,.cls-14,.cls-21,.cls-4,.cls-7{mix-blend-mode:screen;}.cls-4{fill:url(#linear-gradient-2);}.cls-5{fill:url(#linear-gradient-3);}.cls-6{fill:url(#linear-gradient-4);}.cls-7{fill:url(#linear-gradient-5);}.cls-11,.cls-15,.cls-17,.cls-19,.cls-8{mix-blend-mode:multiply;}.cls-8{fill:url(#linear-gradient-6);}.cls-9{fill:url(#linear-gradient-7);}.cls-10{fill:url(#linear-gradient-8);}.cls-11{fill:url(#linear-gradient-9);}.cls-12{fill:#fff;}.cls-13{fill:url(#linear-gradient-10);}.cls-14{fill:url(#linear-gradient-11);}.cls-15{fill:url(#linear-gradient-12);}.cls-16{fill:url(#linear-gradient-13);}.cls-17{fill:url(#linear-gradient-14);}.cls-18{fill:url(#linear-gradient-15);}.cls-19{fill:url(#linear-gradient-16);}.cls-20{fill:url(#linear-gradient-17);}.cls-21{fill:url(#linear-gradient-18);}.cls-22{fill:#00a651;}</style><linearGradient id="linear-gradient" x1="-544.65" y1="819.29" x2="-250.72" y2="862.31" gradientTransform="translate(446.17 -278.93) rotate(-20.37)" gradientUnits="userSpaceOnUse"><stop offset="0" stop-color="#1a160c"/><stop offset="0.5" stop-color="#a6852f"/><stop offset="1" stop-color="#1a160c"/></linearGradient><linearGradient id="linear-gradient-2" x1="-490.84" y1="610.57" x2="-490.84" y2="821.46" gradientTransform="translate(446.17 -278.93) rotate(-20.37)" gradientUnits="userSpaceOnUse"><stop offset="0" stop-color="#cfcfcf"/><stop offset="0.85"/></linearGradient><linearGradient id="linear-gradient-3" x1="-474.77" y1="951.69" x2="-474.77" y2="645.5" xlink:href="#linear-gradient"/><linearGradient id="linear-gradient-4" x1="-562.59" y1="593.86" x2="-562.59" y2="707.97" gradientTransform="translate(446.17 -278.93) rotate(-20.37)" gradientUnits="userSpaceOnUse"><stop offset="0" stop-color="#908a61"/><stop offset="0.5" stop-color="#fef6a4"/><stop offset="1" stop-color="#908a61"/></linearGradient><linearGradient id="linear-gradient-5" x1="-562.59" y1="486.91" x2="-562.59" y2="724.87" xlink:href="#linear-gradient-2"/><linearGradient id="linear-gradient-6" x1="-562.59" y1="580.11" x2="-562.59" y2="755.71" gradientTransform="translate(446.17 -278.93) rotate(-20.37)" gradientUnits="userSpaceOnUse"><stop offset="0" stop-color="#fff"/><stop offset="0.11" stop-color="#d7d7d7"/><stop offset="0.29" stop-color="#979797"/><stop offset="0.47" stop-color="#616161"/><stop offset="0.64" stop-color="#373737"/><stop offset="0.78" stop-color="#191919"/><stop offset="0.91" stop-color="#070707"/><stop offset="1"/></linearGradient><linearGradient id="linear-gradient-7" x1="-499.19" y1="578.9" x2="-499.19" y2="722.9" xlink:href="#linear-gradient"/><linearGradient id="linear-gradient-8" x1="-500.94" y1="486.91" x2="-500.94" y2="724.86" xlink:href="#linear-gradient-2"/><linearGradient id="linear-gradient-9" x1="-500.93" y1="580.11" x2="-500.93" y2="755.71" xlink:href="#linear-gradient-6"/><linearGradient id="linear-gradient-10" x1="-284.54" y1="430.73" x2="-284.54" y2="871.16" xlink:href="#linear-gradient-4"/><linearGradient id="linear-gradient-11" x1="-327.41" y1="486.91" x2="-327.41" y2="724.87" xlink:href="#linear-gradient-2"/><linearGradient id="linear-gradient-12" x1="-327.37" y1="580.11" x2="-327.37" y2="755.71" xlink:href="#linear-gradient-6"/><linearGradient id="linear-gradient-13" x1="-263.93" y1="647.24" x2="197.86" y2="647.24" xlink:href="#linear-gradient"/><linearGradient id="linear-gradient-14" x1="-153.8" y1="571.15" x2="-153.8" y2="893.17" gradientTransform="translate(446.17 -278.93) rotate(-20.37)" gradientUnits="userSpaceOnUse"><stop offset="0.01" stop-color="#fff"/><stop offset="1" stop-color="#757575"/></linearGradient><linearGradient id="linear-gradient-15" x1="-169.4" y1="574.52" x2="-169.4" y2="805.79" xlink:href="#linear-gradient-4"/><linearGradient id="linear-gradient-16" x1="-169.44" y1="642.83" x2="-169.44" y2="699.19" xlink:href="#linear-gradient-6"/><linearGradient id="linear-gradient-17" x1="-158.44" y1="564.97" x2="-158.44" y2="726.08" xlink:href="#linear-gradient"/><linearGradient id="linear-gradient-18" x1="-161.53" y1="581.02" x2="-161.53" y2="691.02" gradientTransform="translate(446.17 -278.93) rotate(-20.37)" gradientUnits="userSpaceOnUse"><stop offset="0" stop-color="#fff"/><stop offset="1"/></linearGradient></defs><title>diduknow</title><g class="cls-1"><g id="Layer_2" data-name="Layer 2"><g id="Layer_1-2" data-name="Layer 1"><path class="cls-2" d="M1994.51,433.24c0-58.77-28.16-111-77.25-143.33l0,0c-22.56-14.84-48.1-25.11-76.34-30.72v-76A114.22,114.22,0,0,0,1726.67,68.92h-56.85a114.27,114.27,0,0,0-18.61,1.51,114.09,114.09,0,0,0-18.61-1.51h-56.84A114,114,0,0,0,1539.11,75a207,207,0,0,0-40-7.62,114.2,114.2,0,0,0-84.06-37h-57.35a113.9,113.9,0,0,0-36.09,5.86,114,114,0,0,0-36.1-5.86h-62.63a114.1,114.1,0,0,0-26.76,3.24,113.73,113.73,0,0,0-54.47-13.8H1084.8A113.74,113.74,0,0,0,1032,32.81C1005.42,11.39,972.29,0,935.9,0c-37.4,0-71.4,12.19-98.49,35.21a251.8,251.8,0,0,0-49.15-4.78H701.48A114.22,114.22,0,0,0,587.26,144.66v17.87c-17.83-24.38-35.91-44.68-54-60.5-80.18-70.3-149.53-37.47-168.88-25.74a114.34,114.34,0,0,0-22.28,17.65c-37.4,38.1-72,84.53-105.53,129.42C213,255,190.7,284.91,171.3,306.53c-.39.42-.77.85-1.14,1.28A84.71,84.71,0,0,1,156,320.71a115.08,115.08,0,0,0-9.36,7.58l-51,23a120,120,0,0,0-43,33.69C20.41,407.32,1.13,444.16,0,487.47c-.58,26.25,5.56,56.36,18.34,89.77,12.5,32.41,27.78,58.52,45.44,77.59,18.63,20.16,41.64,33.59,66.05,39.44,19.4,52.58,39.58,109.46,46.82,133.4,15.86,61.5,67.6,102.94,125.28,102.94a121.81,121.81,0,0,0,23.73-2.34L344,924.59c15.71-2.59,28-6.17,39.47-11.5,63.07-29.25,80.23-99.78,69.81-154.82-2.56-15.67-7.35-36-13.95-60.7,48.89,9.34,98.55,18.23,143.3,20.81a112.47,112.47,0,0,0,12.18,0,113.67,113.67,0,0,0,40.46,7.51h78.86A113.86,113.86,0,0,0,753,719.14a114,114,0,0,0,38.7,6.76h92.79c1,0,2-.08,3-.11.71,0,1.39.11,2.1.11h76.81A115.1,115.1,0,0,0,992.18,723,115.1,115.1,0,0,0,1018,725.9h76.81a113.61,113.61,0,0,0,50-11.64,240.06,240.06,0,0,0,84.93,15c38.55,0,74.46-8.21,106.74-24.36a114.09,114.09,0,0,0,65.92,21h74.78a114.53,114.53,0,0,0,28.72-3.66,114.48,114.48,0,0,0,28.72,3.66h74.77a114.19,114.19,0,0,0,79.49-32.19c28.42,23.25,63.4,35.59,102,35.59,42.65,0,81-14.92,110.79-43.16A152.62,152.62,0,0,0,1950,574.29a157.86,157.86,0,0,0-1.64-21.52,182.39,182.39,0,0,0,30.8-46.85C1989.34,483.74,1994.51,459.28,1994.51,433.24Z"/><path class="cls-3" d="M331.46,788c2.62,12-.73,22.76-7.26,24l-21,4.23c-6.53,1.3-13.68-7-16.2-18.52-13.12-44.72-69.81-199.07-87.77-241.55-3.77-11,.22-22.53,9.13-25.79L237.09,520c8.91-3.25,19.56,3.49,23.55,15.16C273.28,582.09,324.28,740.21,331.46,788Z"/><path class="cls-4" d="M301.81,809.54c-1,.2-6-3.59-8.13-13.25l-.11-.46c-12.78-43.56-69.24-197.74-87.94-242.06-2.39-7.26-.12-14.95,5-16.86l28.79-10.42a8.09,8.09,0,0,1,6.2.55c3.7,1.77,6.87,5.64,8.49,10.36,3.85,14.38,11.61,40.09,20.59,69.87,19,63.07,45.08,149.44,49.93,181.76,2.17,10-.61,15.73-1.8,16.29Z"/><path class="cls-5" d="M246.48,510.37q-14.39,5.22-28.78,10.41a15.71,15.71,0,0,0-9.12,9.56L237.09,520c8.91-3.25,19.56,3.49,23.55,15.16,39.9,157.68,89.4,271.64,63.56,276.88l-.43.09s8.68-1.29,11.67-2.68c5.71-2.64,8-19.14,5.4-31.11-7.17-47.8-58.18-205.92-70.82-252.83C266,513.86,255.39,507.12,246.48,510.37Z"/><path class="cls-6" d="M182.53,564.89c1.14,3.2,2.21,6.37,3.26,9.6-8.81,2.92-17.66,5.84-26.49,8.71-3.23,1-7.28-1.22-11.63-5.92-7.41-8-15.78-23.15-22.71-41.13-7-18.26-11-35.28-10.72-46.18.15-6.18,1.64-10.4,4.65-11.77,8.54-3.78,17-7.55,25.54-11.27,1.37,3.16,2.73,6.28,4.07,9.45Q167.34,519.94,182.53,564.89Z"/><path class="cls-7" d="M182.53,564.89c-11.43,4.09-22.87,8.14-34.3,12.23a2.58,2.58,0,0,1-.56.16c-7.41-8-15.78-23.15-22.71-41.13-7-18.26-11-35.28-10.72-46.18q17.14-6.75,34.26-13.59Q167.34,519.94,182.53,564.89Z"/><path class="cls-8" d="M121.24,525.55c1.14,3.47,2.36,7,3.74,10.6,6.92,18,15.3,33.11,22.71,41.12a2.16,2.16,0,0,0,.55-.16c11.43-4.09,22.88-8.13,34.31-12.23q-9.31-27.61-20.08-54.64Z"/><path class="cls-9" d="M282,557.87c-5,.81-9.87,1.83-14.79,3-5.3,1.26-10.57,2.71-15.76,4.38q-29.34,9.36-58.74,18.8c-3.14,1-7.31-2-12-7.79-.06,0-.06,0-.07-.08-8.07-10.2-17.7-29.11-26.27-51.37s-14.07-42.7-14.93-55.74a5.47,5.47,0,0,1,0-.81c-.35-7,.78-11.76,3.7-13.1q29-13,57.94-26.16a211.83,211.83,0,0,0,25.15-13.56c.7,5.19,1.56,10.38,2.55,15.52A327.16,327.16,0,0,0,273.43,544.7C276.15,549.15,279.05,553.53,282,557.87Z"/><path class="cls-10" d="M273.43,544.7c-5.07,1.58-10.11,3.25-15.14,5q-38.72,13.3-77.51,26.59c-.06,0-.06,0-.07-.08-8.07-10.2-17.7-29.11-26.27-51.37s-14.07-42.7-14.93-55.74a5.47,5.47,0,0,1,0-.81c25.65-10.7,51.33-21.3,77-32,4.16-1.7,8.29-3.49,12.36-5.3A327.16,327.16,0,0,0,273.43,544.7Z"/><path class="cls-11" d="M242.37,480.58l-91.66,34c1.17,3.35,2.4,6.73,3.73,10.19,8.57,22.26,18.2,41.17,26.27,51.37,0,.05,0,.05.07.08q38.76-13.25,77.51-26.59c5-1.71,10.07-3.38,15.14-5A326.71,326.71,0,0,1,242.37,480.58Z"/><path class="cls-12" d="M558.7,369.14c46.79,122.3,42.84,216.83,29,219.45-12.29,2.76-38-55-72-142.21q-9.76-24.92-20.49-52.84c-7.15-18.59-13.92-36.31-20.22-53-33.18-87.52-52.87-147.68-41.9-153.87C445.13,179.36,511.48,247,558.7,369.14Z"/><path class="cls-13" d="M601.78,492.33c9.84,63.84,3.86,108.84-12.55,112-78.2-4.51-188.44-34.49-266.73-42.28a198,198,0,0,0-41.27-.48c-3.75-5.29-7.29-10.71-10.71-16.22A335,335,0,0,1,225.4,427.84c-.89-4.86-1.69-9.77-2.34-14.68a198.28,198.28,0,0,0,33.24-30.34c51.61-57.5,110-150.38,167.36-208.87,14.32-8.67,49,20.9,84.63,75.09,20.67,31.52,41.61,71.31,59,116.76C584.92,411.35,596,455,601.78,492.33Z"/><path class="cls-14" d="M527.72,505.4c-84.92,13.94-177.48,26.33-257.2,40A335,335,0,0,1,225.4,427.84C293.64,385.63,370,334.15,444.1,287.91c4.57,13.8,9.71,28.61,15.33,44.16,7.45,20.74,15.71,42.86,24.53,65.79s17.5,44.94,25.87,65.28C516,478.15,522,492.34,527.72,505.4Z"/><path class="cls-15" d="M484,397.86c-.79-2.06-1.55-4.07-2.33-6.12L239.81,481.53a335.05,335.05,0,0,0,30.71,63.84c79.72-13.64,172.28-26,257.2-40C522,492.34,516,478.15,509.83,463.14,501.46,442.8,492.8,420.83,484,397.86Z"/><path class="cls-16" d="M558.68,369.12C603,483.76,606.41,585.38,585,589.76c-17.19,3.86-44.13-50.86-75.14-126.62-8.36-20.35-17-42.32-25.86-65.27s-17.12-45.07-24.55-65.79C431.63,255,415,196.33,430.3,187.68,449.14,176.56,514.74,254.3,558.68,369.12Z"/><path class="cls-17" d="M558.68,369.12C514.74,254.3,449.14,176.56,430.3,187.68c-.13.07-.25.18-.38.26,28.47,26.88,69.14,88.47,99.49,167.77,39.44,102,46.46,193.64,32.43,215.69,8.88,13,16.69,19.8,23.13,18.36C606.41,585.38,603,483.76,558.68,369.12Z"/><path class="cls-18" d="M551.47,448.7c-13.81,4.67-27.82,9.78-41.64,14.44-11-24.39-24.37-59.31-36.08-91.41-4.4-12-8.6-23.58-12.34-34.07-.84-2.24-1.65-4.43-2.4-6.6l40.24-17.24c2.51-1.08,6.26.94,10.74,5.44,6.11,6.3,13.58,17.35,20.8,31.44A264.62,264.62,0,0,1,541.61,375C556.23,412.63,559.6,446,551.47,448.7Z"/><path class="cls-19" d="M488.39,410.9c7.41,19.27,14.83,37.65,21.44,52.24,13.82-4.66,27.83-9.77,41.64-14.44,7.08-2.36,5.43-28-4.79-59.45Z"/><path class="cls-20" d="M508.73,387.65c13.78,35.49,29.74,62.69,37.58,60s4.33-34.62-9.68-70.74-33-62.17-40.54-58.92S495,352.12,508.73,387.65Z"/><path class="cls-21" d="M520.33,398.7c-12.54-32.47-18.5-60.64-11.56-63.63,1.34-.57,3.08-.12,5.1,1.19-6.57-9.19-12.41-14.1-15.76-12.66-6.95,3-1,31.15,11.55,63.63,11.14,28.68,23.82,51.4,31.56,54.61C534.69,431.86,527.21,416.43,520.33,398.7Z"/><path class="cls-22" d="M701.49,144.66h86.78q29.43,0,51.94,10.69t35,30.56q12.45,19.86,12.44,46.78t-12.44,46.78q-12.45,19.88-35,30.56t-51.94,10.69H701.49Zm84.26,129.78q19.13,0,30.56-10.94t11.45-30.81q0-19.86-11.45-30.81t-30.56-10.94h-24.9v83.5Z"/><path class="cls-22" d="M911.13,163.9a27.54,27.54,0,0,1,0-41.5q9.43-8.18,24.78-8.18,15.58,0,24.89,7.8a25,25,0,0,1,9.31,20.12q0,13.08-9.31,21.51t-24.89,8.42Q920.57,172.07,911.13,163.9Zm-3.65,19.24h56.85V320.72H907.48Z"/><path class="cls-22" d="M1141.65,134.09V320.72h-54.08V309.4q-12.33,13.85-37.72,13.84a66,66,0,0,1-33.33-8.68,62.5,62.5,0,0,1-24.15-25q-8.93-16.35-8.93-37.74t8.93-37.6a62.82,62.82,0,0,1,24.15-24.9,66.14,66.14,0,0,1,33.33-8.67q22.86,0,35,11.82V134.09ZM1079.52,271.8q6.29-7.17,6.29-20t-6.29-19.87a21.93,21.93,0,0,0-32.2,0q-6.28,7-6.28,19.87t6.28,20a21.66,21.66,0,0,0,32.2,0Z"/><path class="cls-22" d="M1348.64,256.84v63.88h-59.36V256.08l-66.39-111.42h62.62l36,60.86,36.22-60.86h57.35Z"/><path class="cls-22" d="M1437.3,314.06a70.65,70.65,0,0,1-28.55-25.41q-10.3-16.22-10.31-36.85T1408.75,215a69.79,69.79,0,0,1,28.55-25.28q18.23-9.06,41.13-9.05,23.13,0,41.37,9.05A68.86,68.86,0,0,1,1548.22,215q10.2,16.22,10.19,36.84t-10.19,36.85a69.71,69.71,0,0,1-28.42,25.41q-18.24,9.18-41.37,9.18Q1455.53,323.24,1437.3,314.06Zm57.22-42.26q6.29-7.17,6.29-20t-6.29-19.87a21.92,21.92,0,0,0-32.19,0q-6.3,7-6.29,19.87t6.29,20a21.65,21.65,0,0,0,32.19,0Z"/><path class="cls-22" d="M1726.67,183.14V320.72H1672.6V307.64a48.77,48.77,0,0,1-17.6,11.7,58.72,58.72,0,0,1-21.39,3.9q-26.14,0-42-16t-15.85-48.17v-76h56.85v66.15q0,14.09,4.53,20.12t13.33,6a17.25,17.25,0,0,0,13.83-6.67q5.54-6.66,5.53-21V183.14Z"/><path class="cls-22" d="M749.29,532.18l-17.42,19.39v56.88H655.6V378.34h76.27v83.49l75.61-83.49H892l-92,101.24,96.64,128.87H806.82Z"/><path class="cls-22" d="M1079.83,445.4q20.22,20.06,20.22,60.48V608.45h-74.29V518.7q0-30.9-22-30.9-12.5,0-20.22,8.71T975.79,524v84.49H901.5V428.63h70.67v17.75A68.77,68.77,0,0,1,996.5,430.6a83.43,83.43,0,0,1,29.91-5.25Q1059.62,425.35,1079.83,445.4Z"/><path class="cls-22" d="M1176.81,599.74q-23.83-12-37.32-33.21T1126,518.38q0-27,13.47-48.17t37.32-33q23.82-11.83,53.75-11.83,30.24,0,54.07,11.83t37.14,33q13.32,21.21,13.32,48.17t-13.32,48.15q-13.3,21.21-37.14,33.21t-54.07,12Q1200.63,611.74,1176.81,599.74Zm74.78-55.23q8.22-9.37,8.22-26.13t-8.22-26a27,27,0,0,0-21-9.2q-12.82,0-21,9.2t-8.22,26q0,16.75,8.22,26.13a28.3,28.3,0,0,0,42.07,0Z"/><path class="cls-22" d="M1660.2,428.63l-62.46,179.82h-72.32l-27.29-83.17-28.27,83.17h-72.31l-62.46-179.82h70.35l30.89,95,32.22-95h63.11l31.23,96,32.22-96Z"/><path class="cls-22" d="M1746.32,494.54q6.9-10.35,19.72-22.52a124,124,0,0,0,12-12.81,17.06,17.06,0,0,0,3.77-10.53,12.91,12.91,0,0,0-6.24-11.34q-6.25-4.11-15.78-4.11a35.12,35.12,0,0,0-19.72,6.08,42.51,42.51,0,0,0-14.47,16.27l-58.51-29.25q13.14-25,39-39.12t63.61-14.13q40.11,0,65.09,16.43t25,46.35q0,13.8-4.76,24.16a65.64,65.64,0,0,1-11.34,17.43,189.6,189.6,0,0,1-16.77,15.61q-10.53,9.21-15.13,14.8a19.15,19.15,0,0,0-4.59,12.48h-67.72Q1739.42,504.91,1746.32,494.54ZM1742,600.23a37.06,37.06,0,0,1-12.16-28q0-16.75,12.16-27.77t31.23-11q19.08,0,31.23,11t12.17,27.77a37,37,0,0,1-12.17,28q-12.15,11.5-31.23,11.51T1742,600.23Z"/></g></g></g></svg>