<svg xmlns="http://www.w3.org/2000/svg" viewBox="0 0 21.62 21.47"><defs><style>.cls-1{fill:#fff200;}</style></defs><title>goback</title><g id="Layer_2" data-name="Layer 2"><g id="Layer_1-2" data-name="Layer 1"><path class="cls-1" d="M6.12,12.52l5.09,5.08c.27.26.54.52.79.79a1.77,1.77,0,0,1,0,2.55,1.75,1.75,0,0,1-2.54,0Q6,17.48,2.58,14c-.66-.66-1.32-1.31-2-2a1.76,1.76,0,0,1,0-2.67Q5,5,9.38.63A1.78,1.78,0,0,1,12,.53a1.79,1.79,0,0,1-.09,2.63L6.47,8.61C6.39,8.68,3.8,10.34,6.12,12.52Z"/><path class="cls-1" d="M15.19,12.52l5.1,5.08c.26.26.53.52.78.79a1.79,1.79,0,1,1-2.54,2.51C16.23,18.62,14,16.33,11.66,14c-.66-.66-1.32-1.31-2-2a1.76,1.76,0,0,1,0-2.67L18.45.63a1.78,1.78,0,0,1,2.63-.1A1.79,1.79,0,0,1,21,3.16L15.55,8.61C15.47,8.68,12.88,10.34,15.19,12.52Z"/></g></g></svg>