<?xml version="1.0" encoding="UTF-8"?>
<svg id="Layer_2" data-name="Layer 2" xmlns="http://www.w3.org/2000/svg" viewBox="0 0 322.97 395.54">
  <defs>
    <style>
      .cls-1 {
        fill: #00a651;
      }

      .cls-1, .cls-2 {
        stroke-width: 0px;
      }

      .cls-2 {
        fill: #e4e517;
      }
    </style>
  </defs>
  <g id="Layer_1-2" data-name="Layer 1">
    <g>
      <path class="cls-1" d="M303.62,63.44c-4.13-32.45-36.6-48.86-44.68-52.94-7.33-3.71-42.79-19.52-67.95-3.38-18.55,11.91-24.11,26.68-26.65,35.67-2.07,7.32-4.95,17.59-4.14,32.59.11,2.07.3,4.22.56,6.47.55,4.7,1.46,9.81,2.83,15.37,6.38,25.91,24.4,37.17,24.4,37.17,0,0,6.38,13.14-9.01,35.29,11.89-8.76,23.78-17.52,35.67-26.28,9.14.54,23.61.05,39.04-6.76,8.48-3.75,17.45-9.49,25.43-16.77,1.39-1.26,2.75-2.58,4.08-3.94,13.45-13.83,23-32.2,20.42-52.49ZM278.19,111.27c-1.23,1.29-2.51,2.56-3.83,3.79-15.98,14.91-38.25,25.18-61.59,23.46l-21.39,16.13c.21-.38,5.15-9.31.36-23.64,0,0-24.07-13.52-27.55-49.43-.2-2.03-.33-4.15-.38-6.33-.28-10.63,1.21-23.02,5.41-37.34,0,0,10.14-39.42,51.81-35.67,41.67,3.76,75.46,30.04,77.33,63.45.84,14.97-7.06,31.83-20.17,45.58Z"/>
      <path class="cls-1" d="M283.2,115.93c-1.65-1.62-3.33-3.17-5.01-4.66-1.23,1.29-2.51,2.56-3.83,3.79,1.65,1.56,3.23,3.17,4.76,4.81,16.37,17.58,25.99,39.02,29.57,59.76,8.44,48.99,9.57,145.28-77.15,192.02-86.72,46.74-184.14-62.51-184.14-62.51,0,0-27.59-30.97-39.42-74.89,0,0-11.83-41.11,8.45-73.77,19.28-31.07,66.58-71.81,144.33-78.63,1.14-.09,2.28-.19,3.43-.27-.2-2.03-.33-4.15-.38-6.33-1.19.03-2.4.08-3.61.13-60.85,2.66-139.35,22.72-155.6,87.35-24.78,98.55,58.57,179.07,58.57,179.07,46.17,49,95.16,55.19,118.25,53.5,23.09-1.69,106.99-19.15,135.71-137.4,17.03-70.13-5.94-114.72-33.93-141.97Z"/>
      <path class="cls-2" d="M212.35,66.67l1.06-1.19c15.31-1.32,20.72-4.88,20.72-10.56v-.13c0-4.49-3.56-7.26-9.9-7.26s-13.07,3.17-19.27,8.71l-13.2-17.42c8.05-8.05,19.01-13.86,34.19-13.86,19.4,0,33,10.56,33,27.72v.26c0,16.63-11.09,23.76-25.74,27.33l-1.58,8.45h-15.97l-3.3-22.04ZM210.24,96.37h26v22.44h-26v-22.44Z"/>
      <g>
        <path class="cls-1" d="M42.99,186.94h9.09v12.27h11.66v-12.27h9.09v32.79h-9.09v-12.46h-11.66v12.46h-9.09v-32.79Z"/>
        <path class="cls-1" d="M77.51,203.43v-.09c0-9.42,7.59-17.05,17.71-17.05s17.61,7.54,17.61,16.96v.09c0,9.42-7.59,17.05-17.71,17.05s-17.61-7.54-17.61-16.96ZM103.55,203.43v-.09c0-4.73-3.42-8.85-8.43-8.85s-8.29,4.03-8.29,8.76v.09c0,4.73,3.42,8.85,8.39,8.85s8.34-4.03,8.34-8.76Z"/>
        <path class="cls-1" d="M113.48,186.94h9.6l5.72,18.97,6.32-19.07h7.82l6.32,19.07,5.72-18.97h9.42l-10.96,33.03h-7.92l-6.6-18.88-6.56,18.88h-7.92l-10.96-33.03Z"/>
      </g>
      <g>
        <path class="cls-1" d="M136.49,226.6h10.94v14.77h14.04v-14.77h10.94v39.47h-10.94v-15h-14.04v15h-10.94v-39.47Z"/>
        <path class="cls-1" d="M179.39,226.6h31.74v9.3h-20.92v5.98h18.94v8.63h-18.94v6.26h21.2v9.3h-32.02v-39.47Z"/>
        <path class="cls-1" d="M216.99,226.6h10.94v29.88h19.11v9.58h-30.05v-39.47Z"/>
        <path class="cls-1" d="M251.72,226.6h16.91c9.98,0,16.41,5.13,16.41,13.87v.11c0,9.3-7.16,14.21-16.97,14.21h-5.41v11.28h-10.94v-39.47ZM267.84,246.22c3.89,0,6.26-2.03,6.26-5.13v-.11c0-3.38-2.37-5.19-6.31-5.19h-5.13v10.43h5.19Z"/>
      </g>
      <g>
        <path class="cls-1" d="M95.72,302.93l-17.47-28.76h14.51l9.45,16.74,9.52-16.74h14.25l-17.47,28.56v17.4h-12.8v-17.2Z"/>
        <path class="cls-1" d="M124.09,297.28v-.13c0-13.2,10.64-23.9,24.82-23.9s24.69,10.57,24.69,23.77v.13c0,13.2-10.64,23.9-24.82,23.9s-24.69-10.57-24.69-23.77ZM160.59,297.28v-.13c0-6.63-4.79-12.41-11.82-12.41s-11.62,5.65-11.62,12.28v.13c0,6.63,4.79,12.41,11.75,12.41s11.69-5.65,11.69-12.28Z"/>
        <path class="cls-1" d="M179.63,299.97v-25.8h12.94v25.54c0,6.63,3.35,9.78,8.47,9.78s8.47-3.02,8.47-9.46v-25.87h12.93v25.48c0,14.84-8.47,21.34-21.54,21.34s-21.27-6.63-21.27-21.01Z"/>
      </g>
      <g>
        <path class="cls-1" d="M165.73,208.76v-.06c0-6.46,4.97-11.52,11.68-11.52,4.53,0,7.44,1.9,9.4,4.62l-4.62,3.58c-1.27-1.58-2.72-2.59-4.84-2.59-3.1,0-5.29,2.63-5.29,5.85v.06c0,3.32,2.18,5.92,5.29,5.92,2.31,0,3.67-1.08,5-2.69l4.62,3.29c-2.09,2.88-4.91,5-9.81,5-6.33,0-11.42-4.84-11.42-11.46Z"/>
        <path class="cls-1" d="M197.06,197.46h5.92l9.43,22.31h-6.58l-1.61-3.96h-8.54l-1.58,3.96h-6.46l9.43-22.31ZM202.44,211.03l-2.47-6.3-2.5,6.3h4.97Z"/>
        <path class="cls-1" d="M214.56,197.62h5.73l9.11,11.71v-11.71h6.08v22.15h-5.38l-9.46-12.15v12.15h-6.08v-22.15Z"/>
      </g>
      <g>
        <path class="cls-1" d="M71.53,228.59h6.49l3.86,12.82,4.27-12.88h5.29l4.27,12.88,3.86-12.82h6.36l-7.41,22.31h-5.35l-4.46-12.75-4.43,12.75h-5.35l-7.41-22.31Z"/>
        <path class="cls-1" d="M108.36,228.59h17.82v5.22h-11.74v3.35h10.63v4.84h-10.63v3.51h11.9v5.22h-17.98v-22.15Z"/>
      </g>
    </g>
  </g>
</svg>