<svg xmlns="http://www.w3.org/2000/svg" viewBox="0 0 266.79 266.79"><defs><style>.cls-1{fill:#fff;}.cls-2{fill:#007437;}</style></defs><title>instagram</title><g id="Layer_2" data-name="Layer 2"><g id="Layer_1-2" data-name="Layer 1"><circle class="cls-1" cx="173.92" cy="92.63" r="9.53"/><path class="cls-1" d="M133.39,171.51a38.12,38.12,0,1,0-38.11-38.12A38.12,38.12,0,0,0,133.39,171.51Zm0-62.89a24.78,24.78,0,1,1-24.77,24.77A24.81,24.81,0,0,1,133.39,108.62Z"/><path class="cls-1" d="M95.28,209.62h76.23a38.11,38.11,0,0,0,38.11-38.11V95.28a38.11,38.11,0,0,0-38.11-38.11H95.28A38.11,38.11,0,0,0,57.17,95.28v76.23A38.11,38.11,0,0,0,95.28,209.62ZM70.51,95.28A24.8,24.8,0,0,1,95.28,70.51h76.23a24.8,24.8,0,0,1,24.77,24.77v76.23a24.81,24.81,0,0,1-24.77,24.77H95.28a24.8,24.8,0,0,1-24.77-24.77Z"/><path class="cls-2" d="M95.28,196.28h76.23a24.81,24.81,0,0,0,24.77-24.77V95.28a24.8,24.8,0,0,0-24.77-24.77H95.28A24.8,24.8,0,0,0,70.51,95.28v76.23A24.8,24.8,0,0,0,95.28,196.28ZM173.92,83.1a9.53,9.53,0,1,1-9.53,9.53A9.53,9.53,0,0,1,173.92,83.1ZM133.39,95.28a38.12,38.12,0,1,1-38.11,38.11A38.12,38.12,0,0,1,133.39,95.28Z"/><path class="cls-2" d="M133.39,158.17a24.78,24.78,0,1,0-24.77-24.78A24.77,24.77,0,0,0,133.39,158.17Z"/><path class="cls-2" d="M133.39,266.79A133.4,133.4,0,1,0,0,133.39,133.39,133.39,0,0,0,133.39,266.79ZM57.17,95.28A38.11,38.11,0,0,1,95.28,57.17h76.23a38.11,38.11,0,0,1,38.11,38.11v76.23a38.11,38.11,0,0,1-38.11,38.11H95.28a38.11,38.11,0,0,1-38.11-38.11Z"/></g></g></svg>