<svg id="Component_59_1" data-name="Component 59 – 1" xmlns="http://www.w3.org/2000/svg" width="126.163" height="126.163" viewBox="0 0 126.163 126.163">
  <path id="Path_3333" data-name="Path 3333" d="M624.892,328.6a7.312,7.312,0,0,1,3.207,1.6c.347.28.5.326.871.02,1.235-1.009,2.5-1.993,3.805-2.9.755-.524.75-1.258.828-2a11.433,11.433,0,0,1,.146-2.31,6.385,6.385,0,0,1,3.415-4.079,20.034,20.034,0,0,0,2.415-1.967c1.578-1.114,3.325-2.08,4.122-4.018a7.577,7.577,0,0,1,1.662-2.394,4.715,4.715,0,0,1,6.422-.029,2.141,2.141,0,0,1,.565.578c.433.844.891.5,1.407.1q2.308-1.806,4.639-3.584a3.52,3.52,0,0,0,1.41-2.743c.259-4.108,1.884-7.514,5.408-9.78a6.677,6.677,0,0,1,7.726.633,3,3,0,0,0,1.894.877.875.875,0,0,1,.838.8c.068.491.112.977-.485,1.308-1.576.875-3.1,1.836-4.669,2.727a4.415,4.415,0,0,0-2.42,4.137c0,.653.171.942.833.546a21.706,21.706,0,0,0,4.425-2.938,3.032,3.032,0,0,1,3.33-.3,1.249,1.249,0,0,1,.319,1.643,4.305,4.305,0,0,0-.917,2.809A8.474,8.474,0,0,1,669,314.789a4.646,4.646,0,0,1-3.54-1.122c-.429-.359-.646-.292-1.053.024-1.364,1.062-2.417,2.458-3.81,3.483-.715.526-1.411,1.078-2.117,1.618-.351.268-.451.343.1.591a5.549,5.549,0,0,1,2.658,1.711,5.194,5.194,0,0,1,.494,4.088,10.8,10.8,0,0,1-2.78,5.536,1.252,1.252,0,0,0-.279.637c-.4,1.691-.85,3.373-1.2,5.074-.13.622-.115,1.206.776,1.515,1.059.368,1.512,1.467,2.025,2.39.931,1.671.914,1.711,2.438.656a23.677,23.677,0,0,1,9.393-3.927,9.436,9.436,0,0,1,4.655.23.8.8,0,0,0,.686.029,5.386,5.386,0,0,1,3.982-.317,6.766,6.766,0,0,0,4.352-.668c1.886-.937,3.667-2.04,5.479-3.1a.728.728,0,0,0,.323-.927c-.384-1.344-.114-2.727-.286-4.092a8.673,8.673,0,0,0-1.127-3.212,13.866,13.866,0,0,1-2.151-7.919,12.379,12.379,0,0,1,2.223-5.334,1.469,1.469,0,0,1,.3-.434c.9-.671.629-1.564.44-2.414a1.654,1.654,0,0,1-.087-.787c.338-1.124-.347-1.035-1.117-1.1a22.12,22.12,0,0,1-5.4-.921,1.774,1.774,0,0,1-1.249-1.028,1.179,1.179,0,0,1,.255-1.286,13.718,13.718,0,0,1,5.813-3.816,1.441,1.441,0,0,0,1-1.176,23.586,23.586,0,0,1,5.792-10.334A29.652,29.652,0,0,1,703.6,283a23.8,23.8,0,0,1,5.253-2.351,12.253,12.253,0,0,1,1.237-.243,63.069,63.069,0,0,0-96.634,53.409c0,.694.03,1.38.053,2.068a15.118,15.118,0,0,1,2.692-4.8C618.481,328.364,621.569,327.959,624.892,328.6Z" transform="translate(-613.454 -270.729)" fill="#008838"/>
  <path id="Path_3344" data-name="Path 3344" d="M622.924,364.853a1.25,1.25,0,0,0-.238-1.621c-.459-.472-.869-.131-1.274.118a34.985,34.985,0,0,0-4.834,3.95,3.357,3.357,0,0,1-1.72.715q.319,1.732.726,3.431c1.984-1.609,3.822-3.393,5.881-4.911A5.351,5.351,0,0,0,622.924,364.853Z" transform="translate(-613.8 -293.472)" fill="#008838"/>
  <path id="Path_3336" data-name="Path 3336" d="M656.752,408a2.18,2.18,0,0,1,.147-1.139.522.522,0,0,0-.062-.494c-.174-.154-.315.069-.439.184a9.817,9.817,0,0,1-5.18,2.065c-1.073.2-2.063-.419-3.086-.69-1.252-.333-2.551-.35-3.824-.674-3.961-1.007-6.584-3.434-7.3-7.369-.524-2.868-1.841-5.45-2.354-8.289a29.62,29.62,0,0,1-.345-7.723c.337-4.175,1.481-8.174,2.4-12.222.359-1.575.876-3.115,1.317-4.671a1.137,1.137,0,0,0,.1-.515,8.778,8.778,0,0,1,.372-4.269c.04-.165.142-.435.076-.489-1.028-.855-.658-2.158-1.087-3.329-1,.848-1.97,1.658-2.93,2.474a11.8,11.8,0,0,1-1.02.876c-.867.585-.7,1.6-.8,2.446a12.992,12.992,0,0,1-5.844,9.719c-1.071.713-2.414.7-3.616,1.087a7.334,7.334,0,0,1-4.717-.176,8.234,8.234,0,0,1-1.366-.689A63.219,63.219,0,0,0,657.634,415.3c-.035-.166-.076-.331-.107-.5A40.571,40.571,0,0,1,656.752,408Z" transform="translate(-614.376 -292.333)" fill="#008838"/>
  <path id="Path_3456" data-name="Path 3456" d="M758.243,309.865c-.012,1.27-.283,2.536-.35,3.807a5.558,5.558,0,0,0,.417,2.82c.638,1.332,1.177,2.759-.04,4.121a.441.441,0,0,0-.014.565,1.84,1.84,0,0,1-.671,2.754,8.216,8.216,0,0,0-2.349,2.949,8.537,8.537,0,0,1-3.566,3.707c-.08.037-.144.139-.222.147-1.292.136-1.744,1.081-2.253,2.114-1.084,2.2-2.386,4.289-2.912,6.724a2.907,2.907,0,0,0,.336,2.456,7.214,7.214,0,0,1,1.172,3.94,6.008,6.008,0,0,1,.016,1.842c-.121.443.237.662.6.873a39.842,39.842,0,0,0,7.372,3.413,11.129,11.129,0,0,1,6.868,6.724c1.178,2.795,1.166,5.82,2.108,8.643a15.177,15.177,0,0,1,.547,2.2,63.036,63.036,0,0,0-8.912-70.825,17.988,17.988,0,0,1,1.726,5.82A40.031,40.031,0,0,1,758.243,309.865Z" transform="translate(-646.165 -277.659)" fill="#008838"/>
  <path id="Path_3371" data-name="Path 3371" d="M678.382,314.3a9.249,9.249,0,0,0,2.178,5.7A4.616,4.616,0,0,0,684.984,322c4.385-.782,6.284-4.343,6.687-8.468-2.255.839-4.1,2.4-6.362,3.151a1.2,1.2,0,0,1-1.295-.251,3.641,3.641,0,0,1-1.236-2.479c-.313-2.813-.2-4.149,2.233-5.894,1.227-.879,2.5-1.686,3.8-2.446.258-.15.857-.422.363-.751-.919-.613-1.686-1.559-2.819-1.744a5.212,5.212,0,0,0-4.572,1.492C678.992,307.252,678.379,310.725,678.382,314.3Zm1.822-.9a14.363,14.363,0,0,1,1.875-4.389A18.735,18.735,0,0,1,680.2,313.4Zm-.108-1.59a15.749,15.749,0,0,1,2.444-5.708Z" transform="translate(-629.458 -278.695)" fill="#fff"/>
  <path id="Path_3397" data-name="Path 3397" d="M704.027,366.458a16.458,16.458,0,0,0-.035,6.551,8.3,8.3,0,0,1-.253-5.909c-.6.835-1.057,1.476-1.515,2.118-2.317,3.248-3.678,6.968-5.23,10.594-.238.556.087.566.5.6a55.647,55.647,0,0,1,7.682.876c.3.064.8.185.9-.167a5.757,5.757,0,0,1,1.76-2.371c1.472-1.471,1.7-3.387,1.8-5.32.093-1.782.59-2.5,2.24-2.947.371-.1.329-.286.228-.52-.863-2.016-1.674-4.051-3.475-5.5-.97-.779-1.238-.747-1.927.316a13.7,13.7,0,0,0-1.68,4.061c-.066.254-.072.634-.534.535-.42-.09-.231-.421-.257-.65A7.755,7.755,0,0,0,704.027,366.458Zm-1.093,4.915.59,3.579A6.748,6.748,0,0,1,702.934,371.373Zm-.268,3.263,1.348,2.913A4.659,4.659,0,0,1,702.666,374.636Z" transform="translate(-634.026 -293.701)" fill="#fe0"/>
  <path id="Path_3381" data-name="Path 3381" d="M687.09,308.979a5.583,5.583,0,0,0-1.637,7.555,1.01,1.01,0,0,0,1.458.508,37.064,37.064,0,0,0,5.764-3.248,2.667,2.667,0,0,0,1.327-1.37,3.509,3.509,0,0,0-1.31.624c-1.779,1.133-3.347,2.624-5.464,3.19a1.36,1.36,0,0,1-1.922-.964,4.937,4.937,0,0,1,2.135-5.53c1.575-.984,3.235-1.835,4.874-2.713a.589.589,0,0,0,.376-.711.684.684,0,0,0-.611-.569c-.287-.029-.6-.091-.718.325-.064.224-.277.347-.464.5C689.716,307.515,688.347,308.156,687.09,308.979Z" transform="translate(-631.004 -279.357)" fill="#fff"/>
  <path id="Path_3363" data-name="Path 3363" d="M667.024,324.353c-.223.316-.488.652-.332,1.05.311.794-.054,1.531-.16,2.4l8.515-6.491c.23-.176.408-.417.3-.692-.261-.653-.095-1.4-.5-2.068-.509.259-.845.822-1.461.894.254-.454.723-.711,1.262-1.264a5,5,0,0,0-1.13.4q-3.42,2.534-6.807,5.116c-.206.156-.494.356-.357.66C666.535,324.78,666.792,324.187,667.024,324.353Z" transform="translate(-626.483 -282.426)" fill="#fff"/>
  <path id="Path_3359" data-name="Path 3359" d="M662.078,333.8a3.72,3.72,0,0,0,.454-.266c3.023-2.374,6.061-4.728,9.161-7,.742-.544,1.426-1.168,2.138-1.754.323-.265.279-.556.078-.874-.258-.405-.5-.029-.668.058a10.385,10.385,0,0,0-1.507.922q-4.571,3.386-9.085,6.849C661.824,332.362,661.571,332.883,662.078,333.8Z" transform="translate(-625.375 -283.79)" fill="#fff"/>
  <path id="Path_3361" data-name="Path 3361" d="M666.141,335.78a3.832,3.832,0,0,0-.536,2.943c.268,1.776,2.74,3.2,4.878,2.648-1.086.82-2.049.531-3.185.257,1.224,1.32,2.511,1.02,3.808.717a3.759,3.759,0,0,1-2.4.66c-.928-.1-1.4-.835-1.987-1.621a2.6,2.6,0,0,1-.847,2.224,11.3,11.3,0,0,0-1.16,1.351,1.6,1.6,0,0,0-.095,1.979,4.31,4.31,0,0,0,2.933,1.482,1.25,1.25,0,0,0,1.2-.558,48.206,48.206,0,0,0,3.08-4.856c.7-1.038-.583-1.861-.038-2.785.011-.021-.116-.124-.179-.188a1.554,1.554,0,0,0-1.207-.46c-.971.023-1.942.007-2.913.007a20.452,20.452,0,0,1,3.594-.16c.679.023,1.476.889,1.169,1.139-.564.461-.231.712.012,1.107a.927.927,0,0,1-.059.859,27.842,27.842,0,0,1-2.313,4.263,4.371,4.371,0,0,0-.752,1.233c.084.017.118.035.139.026a1.018,1.018,0,0,0,.221-.133,12.925,12.925,0,0,0,4.07-7.975,2.976,2.976,0,0,0-1.875-3.468,11.02,11.02,0,0,0-3.544-1.007C667.511,335.386,666.664,335.077,666.141,335.78Z" transform="translate(-625.992 -286.653)" fill="#008838"/>
  <path id="Path_3382" data-name="Path 3382" d="M685.9,374.289c-.063.194-.255.4.017.53.3.142.292-.225.338-.337a43.2,43.2,0,0,1,2.457-4.694,12.486,12.486,0,0,1,2.26-3.13c.061.206-.076.326-.186.471a57.988,57.988,0,0,0-4.131,7.1,1.22,1.22,0,0,0,.182,1.608c1.179,1.437,2.863,2.421,3.7,4.156.106.219.408.339.607.518.353.315.5-.026.525-.231a25.049,25.049,0,0,1,2.054-5.99,7.086,7.086,0,0,1,1.434-2.593c-.062.164-.112.335-.188.492a38.178,38.178,0,0,0-2.939,7.831c-.136.573.008.613.47.748a19.464,19.464,0,0,0,3.554.284,50.632,50.632,0,0,1,7.608,1.26c4.214,1.1,8.411,2.264,12.617,3.393.589.157,1.178.25,1.612-.362.919-1.3,1.747-2.657,2.542-4.035A38.5,38.5,0,0,1,725.453,374c1-1.065,1.913-2.2,2.955-3.408-.215.067-.313.069-.365.119a55.681,55.681,0,0,0-7.15,8c-1.311,1.891-2.634,3.769-3.768,5.772a.786.786,0,0,1-1.108.375c-1.071-.408-2.151-.791-3.226-1.189a55.969,55.969,0,0,0-15.7-3.346,16.372,16.372,0,0,1-3.1-.279c-.684-.179-.748-.43-.529-.99.4-1.016.81-2.03,1.151-3.066a25.155,25.155,0,0,1,6.348-10.724c.527-.5.311-1.04.249-1.648l-1.01.873a20.676,20.676,0,0,1-2.518,3.241,35.834,35.834,0,0,1-2.55,3.99,12.888,12.888,0,0,1,2.536-3.979,11.246,11.246,0,0,1,2.523-3.251c-.008-.423.362-.587.588-.845a1.1,1.1,0,0,0,.4-.824c-.036-.986-.69-1.826-.634-2.827a.242.242,0,0,0-.154-.18c-.9-.091-1.8-.595-2.707-.047-.06-.524-.328-.341-.626-.206a6.308,6.308,0,0,0-1.792,1.283,47.379,47.379,0,0,0-6.979,9.04A20.187,20.187,0,0,0,685.9,374.289Zm4.111-.631c-.275-1.224,1.921-7.124,3.159-8.517Zm2.326-4.012a12.059,12.059,0,0,1,2.556-4.887A28.016,28.016,0,0,1,692.338,369.645Zm4.728-6.018a16.989,16.989,0,0,1-3.284,4.747A9.7,9.7,0,0,1,697.067,363.627Zm-.315-3.11a36.409,36.409,0,0,1-3.581,3.579A14.679,14.679,0,0,1,696.752,360.517Z" transform="translate(-631.281 -292.589)" fill="#008838"/>
  <path id="Path_3369" data-name="Path 3369" d="M678.268,365.485a9.428,9.428,0,0,1,3.406,5.274,8.7,8.7,0,0,0,1.732,3.373,41.488,41.488,0,0,1,9.263-13.706,7.155,7.155,0,0,0-4.479-.5,23.336,23.336,0,0,0-9.848,4.155C677.509,364.665,677.64,364.964,678.268,365.485Zm7.3-3.529a20.967,20.967,0,0,0-3.518,5.34A9.121,9.121,0,0,1,685.568,361.957Z" transform="translate(-629.304 -292.68)" fill="#fe0"/>
  <path id="Path_3345" data-name="Path 3345" d="M660.28,349.436a2.138,2.138,0,0,1-.763-3.2,13.97,13.97,0,0,1,.9-1.1c.588-.731,1.365-1.41.794-2.5a5.325,5.325,0,0,1-.616-1.264c-.082-.365-.252-.465-.612-.158-1.763,1.5-3.551,2.97-5.336,4.446-1.621,1.34-3.254,2.667-4.871,4.012q-1.919,1.6-3.805,3.233c-.17.148-.42.253-.344.643a6.419,6.419,0,0,1,.044,1.705,3.708,3.708,0,0,0,1.865,3.408,50.815,50.815,0,0,1,6.59,6.066,26.642,26.642,0,0,1,1.679,2.116,34.218,34.218,0,0,1-3.693-2.911c1.779,2.071,3.525,4.146,5.313,6.4-.008-.851-.4-1.538-.109-2.183.465-1.016.466-1.836-.659-2.383-.077-.038-.13-.124-.194-.188-1.618-1.617-3.264-3.207-4.844-4.861a10.716,10.716,0,0,1-2.47-3.858c.533.464,1.084.909,1.6,1.395a65.333,65.333,0,0,1,6.933,7.822c.1.125.077.417.33.347a.651.651,0,0,0,.475-.487,8.279,8.279,0,0,0,.032-.9c.045-.647-.175-1.334.224-1.928a1.589,1.589,0,0,0,.026-1.663,31.7,31.7,0,0,1-2.993-7.349,4.184,4.184,0,0,1-.288-.916c-.016-.325-.387-.6-.135-.978a26.022,26.022,0,0,1,3.833,7.265c.072.212-.105.55.2.623s.319-.276.464-.446a21.071,21.071,0,0,1,3.926-3.908,1.676,1.676,0,0,0,.944-1.307,10.352,10.352,0,0,1,.289-2.285c.3-.835.5-1.709.768-2.643-.824.312-1.363.9-2.222.907A6.026,6.026,0,0,1,660.28,349.436Zm-2.56,13.113a11.92,11.92,0,0,1-2.044-4.126A11.418,11.418,0,0,1,657.721,362.549Z" transform="translate(-621.381 -288.057)" fill="#008838"/>
  <path id="Path_3368" data-name="Path 3368" d="M675.6,314.239A1.626,1.626,0,0,0,677.249,313a15.223,15.223,0,0,1,.159-2.4,10.864,10.864,0,0,1,4.923-7.671,6.961,6.961,0,0,0-1.752.673c-1.947,1.047-2.831,2.954-3.878,4.725-1.027,1.736-.78,3.77-1.252,5.638A.213.213,0,0,0,675.6,314.239Z" transform="translate(-628.733 -278.666)" fill="#fff"/>
  <path id="Path_3360" data-name="Path 3360" d="M663.36,332.82h-2.27c.365,1.535.368,1.539,1.549.668A9.644,9.644,0,0,0,663.36,332.82Z" transform="translate(-625.196 -286.034)" fill="#fff"/>
  <path id="Path_3347" data-name="Path 3347" d="M616.466,373.376a2.956,2.956,0,0,0,3.312-1.289,6.467,6.467,0,0,1,.573-.68c1.575-1.68,3.609-2.85,5.124-4.593a3.83,3.83,0,0,0,1.273-2.267,1.639,1.639,0,0,1-1.71.631c-.834-.246-1.153.121-1.614.753-1.274,1.744-3.2,2.823-4.723,4.321-.8.786-1.79,1.346-2.709,2.129.082.326.172.648.259.971C616.324,373.359,616.4,373.363,616.466,373.376Z" transform="translate(-614.08 -293.854)" fill="#fff"/>
  <path id="Path_3337" data-name="Path 3337" d="M617.628,373.377a2.335,2.335,0,0,0,2.3-1.052,36.461,36.461,0,0,1,4.157-4.193c1.452-1.309,2.862-2.65,3.261-4.76a3.33,3.33,0,0,0-.985-3.3,2.555,2.555,0,0,0-2.864-.232c-2.882,1.2-5.2,3.242-7.541,5.241a.558.558,0,0,0-.107.864c.287.283.522-.057.733-.225,1.175-.937,2.178-2.06,3.281-3.074a11.273,11.273,0,0,1,4.183-2.753,2.332,2.332,0,0,1,2.434.689,2.592,2.592,0,0,1,.725,2.27c-.366,2.372-2.044,3.829-3.734,5.246a27.614,27.614,0,0,0-3.636,3.456,2.544,2.544,0,0,1-2.185,1.075c-.439-.011-.88-.011-1.33-.01q.1.355.2.709A6.434,6.434,0,0,1,617.628,373.377Z" transform="translate(-614.004 -292.615)" fill="#fff"/>
  <path id="Path_3349" data-name="Path 3349" d="M620.389,379.558c.717.1,1.417.513,2.291.159A2.242,2.242,0,0,0,620.389,379.558Z" transform="translate(-615.163 -297.492)" fill="#fff"/>
  <path id="Path_3339" data-name="Path 3339" d="M614.683,361.3a20.947,20.947,0,0,1,.169-3.664c.805-3.9,2.377-7.3,5.993-9.432a7.25,7.25,0,0,0-4.308,2.671,17.7,17.7,0,0,0-2.9,5.99q.164,2.645.537,5.229C614.755,362.11,614.671,361.7,614.683,361.3Z" transform="translate(-613.499 -289.826)" fill="#fff"/>
  <path id="Path_3352" data-name="Path 3352" d="M648.854,330.571c.209.011.421,0,.63.025a5.4,5.4,0,0,1,4.749,3.054,15.393,15.393,0,0,1,1.138,5.319,2.987,2.987,0,0,0,2.473-3.019c-.018-1.132-.046-2.262-.123-3.4a4.331,4.331,0,0,0-2.984-4.264c.69.332,1.475-.408,2.2.484a4.133,4.133,0,0,1,.1-2.5c.2-.943.083-1.12-.885-1.1a5.793,5.793,0,0,0-1.955.457c.293-.658.879-.537,1.275-.6,1.858-.3,2.1-.011,1.685,1.8a.673.673,0,0,0-.018.088,2.246,2.246,0,0,0,.864,2.46,2.6,2.6,0,0,0,2.829-.271,1.838,1.838,0,0,0,.778-1.947,4.575,4.575,0,0,0-1.65-3.042,4.026,4.026,0,0,0-5.529.017c-1.12,1.144-1.621,2.671-2.7,3.87.585.21,1.02-.261,1.551-.172a14.071,14.071,0,0,0-4.5,2.675C648.822,330.537,648.837,330.57,648.854,330.571Z" transform="translate(-622.164 -283.618)" fill="#008838"/>
  <path id="Path_3353" data-name="Path 3353" d="M648.3,344.913c.4-1.246.16-2.053-.924-2.551A18.5,18.5,0,0,0,648.3,344.913Z" transform="translate(-621.816 -288.386)" fill="#fff"/>
  <path id="Path_3354" data-name="Path 3354" d="M650.8,338.473a4.035,4.035,0,0,1,.807,4.832,3.09,3.09,0,0,0,1.5-.707,2.887,2.887,0,0,0,.668-2.949c-.434-1.79-.844-3.59-2.31-4.855a5.2,5.2,0,0,0-3.684-1.267c-.84.029-1.043.809-1.665,1.194.75.593,1.452,1.144,2.149,1.7C649.121,337.1,650.026,337.72,650.8,338.473Z" transform="translate(-621.506 -286.208)" fill="#008838"/>
  <path id="Path_3340" data-name="Path 3340" d="M644.326,339.716a1.289,1.289,0,0,1,.978-.336,4.184,4.184,0,0,1,2.174,2.683c.045.854-.375,1.661-.2,2.529.069.347.192.64.549.524a3.1,3.1,0,0,0,1.194-5.731c-1.188-.986-2.35-2-3.529-3a1.357,1.357,0,0,0-2.149.1,6.532,6.532,0,0,0-1.443,4.858C642.769,340.757,643.55,340.241,644.326,339.716Z" transform="translate(-620.458 -286.794)" fill="#008838"/>
  <path id="Path_3460" data-name="Path 3460" d="M754.935,326.158c.075.177.154.348.322.407,1.238.436,1.453,1.537,1.787,2.811.259-.521.683-.634,1-.9a1.281,1.281,0,0,0,.25-1.893c-1.154-1.806-2.056-3.87-4.439-4.458-.051-.013-.082-.092-.133-.118q-1.329-.673-2.661-1.339c-.036.213,0,.293.054.356C752.519,322.642,754.078,324.141,754.935,326.158Zm1.894-.286c.334-.036.392.292.431.464.068.3-.222.512-.457.563-.272.06-.386-.2-.4-.689C756.395,326.134,756.494,325.908,756.829,325.872Zm-1.292-1.619a.4.4,0,0,1,.484.265c.036.54-.093.761-.423.78-.286.017-.432-.167-.451-.447C755.127,324.555,755.193,324.294,755.537,324.254Z" transform="translate(-647.37 -283.039)" fill="#fff"/>
  <path id="Path_3440" data-name="Path 3440" d="M741.912,380.773a74.969,74.969,0,0,0-5.764,7.957c-.653,1-1.334,1.973-2,2.959a20.548,20.548,0,0,0,3.09-3.648,73.156,73.156,0,0,1,8.338-10.079,24.789,24.789,0,0,1,6.949-4.52,5.077,5.077,0,0,1,2.79-.393,3.28,3.28,0,0,0,1.382.113c-.953-1.175-1.263-1.248-2.542-.716a49.679,49.679,0,0,0-5.859,2.926A25.122,25.122,0,0,0,741.912,380.773Z" transform="translate(-643.203 -295.723)" fill="#00973d"/>
  <path id="Path_3457" data-name="Path 3457" d="M750.673,367.843c-.238-.429-.583-.261-.858-.328-.734-1.093-1.268-1.107-1.8-.051-.179.351-.368.7-.643,1.215l1.872-.772c-.631.735-1.6,1.032-2.24,1.771A33.592,33.592,0,0,1,750.673,367.843Z" transform="translate(-646.372 -294.381)" fill="#00973d"/>
  <path id="Path_3433" data-name="Path 3433" d="M741.254,357.787a2.257,2.257,0,0,1-.8,2.491,20.267,20.267,0,0,1-4.411,2.212A20.585,20.585,0,0,1,730.076,364a8.654,8.654,0,0,1,2.695,4.75,16.94,16.94,0,0,0,.739,3.529c.147.339.177.579.563.221a63.585,63.585,0,0,0,5.205-4.662,14.888,14.888,0,0,0,2.942-4.8,9.565,9.565,0,0,0,.087-4.837,9.1,9.1,0,0,0-.928-3.266A5.586,5.586,0,0,0,741.254,357.787Zm-6.771,12.066a6.418,6.418,0,0,1,1.512-3.14C735.512,367.769,734.889,368.76,734.483,369.853Zm1.73-1.091c.089-.926.743-1.526,1.122-2.283l.194.133Q736.87,367.686,736.213,368.762Z" transform="translate(-642.2 -291.486)" fill="#fe0"/>
  <path id="Path_3414" data-name="Path 3414" d="M717.275,376.83a.644.644,0,0,0,.54-.484.461.461,0,0,0-.507-.4c-.283.014-.38.225-.386.474C716.917,376.653,717.058,376.851,717.275,376.83Z" transform="translate(-638.958 -296.664)" fill="#fff"/>
  <path id="Path_3370" data-name="Path 3370" d="M691.313,425.044c-2.308-.124-4.6-.509-6.907-.663-1.781-.119-3.543-.336-5.308-.564-1.149-.148-1.315-.446-1.184-1.606.172-1.532.373-3.058.572-4.586.326-2.517.792-5.008,1.34-7.485a22.84,22.84,0,0,1,1.815-5.427c.315-.622-.134-.974-.413-1.332-.248-.319-.448-.72-1.13-.567a2.6,2.6,0,0,1-3.23-2.63c-.043-.692-.4-.955-1.078-.772a1.827,1.827,0,0,0-.469-1.484,58.391,58.391,0,0,0-2.889,17.4,3.465,3.465,0,0,0,.271-1.01,57.053,57.053,0,0,1,1.12-8.793,17.573,17.573,0,0,1,1.574-5c-.176,1.379-.824,2.624-1.11,3.982-.391,1.857-.62,3.727-.876,5.6-.418,3.067-.546,6.158-.86,9.232a8.467,8.467,0,0,0,.237,2.105c.377-3.839.023-7.787,1.8-11.406a26.8,26.8,0,0,1-.167,5.039c-.06.909-.2,1.848-.224,2.747a63.858,63.858,0,0,0-.2,7.457c.017.2.026.407.04.61q1.586.443,3.2.806a13.844,13.844,0,0,1-.289-4.576,30.889,30.889,0,0,0,.756,4.684,63.386,63.386,0,0,0,22.956.709,38.207,38.207,0,0,1-4.869-1.506A16,16,0,0,0,691.313,425.044Zm-15.671.472a25.775,25.775,0,0,1,0-9.58Z" transform="translate(-627.992 -302.083)" fill="#008838"/>
  <path id="Path_3422" data-name="Path 3422" d="M734.5,407a12.194,12.194,0,0,0-6.482-4.823,5.4,5.4,0,0,0-2.947.389,17.584,17.584,0,0,1-4.492.957c-.234,0-.439.076-.5.3-.078.3.25.32.4.381,1.421.58,2.771,1.306,4.143,1.988a8.485,8.485,0,0,1,4.422,6.119,21.414,21.414,0,0,1,.041,9.075,2.009,2.009,0,0,1-.172.706v-1.432a24.65,24.65,0,0,1-.937,3.378q2.411-1.051,4.718-2.285c.99-3.875,1.745-7.781,1.074-11.873a16.106,16.106,0,0,1-.435,11.517c.38-.21.754-.431,1.129-.649.026-.212.05-.423.069-.641.03.186.054.371.076.558,1.223-.716,2.427-1.46,3.595-2.253a17.712,17.712,0,0,0-.661-3.649C736.643,412.133,736.215,409.3,734.5,407Zm-1.337,6.858c-.757-4.027-3.584-6.521-6.035-9.1C729.215,405.525,733.9,410.163,733.163,413.858Z" transform="translate(-639.734 -303.106)" fill="#fe0"/>
  <path id="Path_3404" data-name="Path 3404" d="M714.886,366.525a3.292,3.292,0,0,0-.271-1.56c-.508-1.227-1.307-2.317-1.7-3.6a1.555,1.555,0,0,1,.929-2.233c1.4-.679,2.96-.7,4.441-1.085a8.857,8.857,0,0,0-2.569-1.649,1.124,1.124,0,0,1-.743-1.008c-.1-.833-.452-.693-.931-.255a11.165,11.165,0,0,1-2.479,1.7,31.041,31.041,0,0,1-4.734,2.035A12.562,12.562,0,0,1,714.886,366.525Z" transform="translate(-636.47 -291.449)" fill="#fe0"/>
  <path id="Path_3415" data-name="Path 3415" d="M722.6,341.691c-.634-.268-1.191-.517-1.386-1.3a18.9,18.9,0,0,0-.9-2.3,8.089,8.089,0,0,0-.362,4.037,3.89,3.89,0,0,0,6.588,2.366,18.7,18.7,0,0,0,3.339-3.569,3.306,3.306,0,0,0,1.01-2.09c-.559.467-1,1.047-1.531,1.524a5.254,5.254,0,0,1-4.128,1.729,3.784,3.784,0,0,0-1.861.1c-.077.032-.224.047-.191-.026C723.537,341.345,722.8,341.775,722.6,341.691Z" transform="translate(-639.677 -287.333)" fill="#803d2f"/>
  <path id="Path_3412" data-name="Path 3412" d="M716.2,331.2c-.165-.837-.034-1.331.785-1.392,1-.074,1.9-.767,3.032-.282a2.441,2.441,0,0,0,1.744.052c-.22.738-.983.567-1.284.88,1,1.7,2.159.694,3.292.243.03-.167-.109-.177-.207-.236-.276-.165-.5-.509-.405-.723.126-.291.514-.112.8-.093a10.752,10.752,0,0,1,2.031.531,11.893,11.893,0,0,1,2.1.573,5.406,5.406,0,0,0,2.389.833c.267,0,.423.116.365.372-.27,1.169-.045,2.429-.728,3.527a7.418,7.418,0,0,0-1.343,3.787,3.936,3.936,0,0,1-2.093,3.609c1.145-2.9,2.624-5.679,2.869-8.927a2.3,2.3,0,0,0-.682,1.074,12.419,12.419,0,0,1-4.281,4.893,4.247,4.247,0,0,1-6.764-2.578,9.46,9.46,0,0,1,.132-3.612c.055-.483.266-.979-.115-1.422-.053-.061-.162-.073-.246-.108a2.783,2.783,0,0,0-.285,1.426,17.556,17.556,0,0,1,0,4.72,9.687,9.687,0,0,0,.306,2.745c.187.991-.27,2.092.542,2.971.139-.154.248-.414.531-.481-.053.876.974.607,1.026.584.916-.395,1.19-1.312,1.543-2.144.118-.277-.155-.289-.374-.343a2.9,2.9,0,0,1-1.5-.687c1.285,0,2.472-.2,3.58.411a.952.952,0,0,1-.906.286c-.305-.023-.44.1-.42.412a7.751,7.751,0,0,0,.174,2.118c.244.716,1.1,1.124,1.6.722.108.278-.078.6.128.863.2-.415.679-.035.923-.335.682-.839,1.864-1.13,2.374-2.173a.751.751,0,0,1,.509-.428c.329.295-.44.66.05.888a1.059,1.059,0,0,0,1.2-.244,5.268,5.268,0,0,1,.741-.479c-.393.676-.934,1.2-1.315,1.864.387.12.616-.11.865-.251a59.589,59.589,0,0,1,6.421-3.376,5.8,5.8,0,0,0,3.6-3.22c.539-1.463,1.051-2.935,1.576-4.4.693.425.877.547,1.13.454,1.764-.646,3.542-1.279,4.122-3.383a10.775,10.775,0,0,0,.481-3.333,1.747,1.747,0,0,0-.878-1.614,1.809,1.809,0,0,0-1.862.14,10.484,10.484,0,0,1-1.436.867c-.588.25-1.1.585-.875,1.243.3.87-.766,1.053-.742,1.781.008.267-.345,0-.518-.041-.255-.061-.178-.153-.039-.349.425-.6.384-.791-.055-1.668-.035-.069.167-.23.183-.357.062-.488.734-.989-.05-1.473-.191-.118.046-.36.144-.452.2-.186.176.123.255.191a.62.62,0,0,0,.7.108c.251-.359-.539-.561-.047-.691.61-.162.37-.492.224-.691-.282-.384-.711-.708-.593-1.235.11-.491.63-.708.928-1.07-.369-.164-.934-.167-.736-.773.106-.326.28.194.48.055a3.584,3.584,0,0,0-2.846-3.233c-2.942-.848-5.884-1.708-8.79-2.672-3.766-1.249-7.533-.976-11.407-.27A4.715,4.715,0,0,1,720.936,318c-.949-.133-1.572-.9-2.414-1.252a1.531,1.531,0,0,0-2.107,1.2,30.484,30.484,0,0,0-.2,3.306.726.726,0,0,1-.117.595,15.345,15.345,0,0,0-2.1,4.076,8.144,8.144,0,0,0,.564,7.3c-.049-.428-.266-.846-.1-1.244l2,4.547C717.271,334.664,716.543,332.937,716.2,331.2Zm26.2-2.994c.352-.391.59-.883.935-1.282.989-1.145,1.789-.967,2.548.653l-1.019-.408c.475.917,1.173,1.664.694,2.606a3.732,3.732,0,0,1-2.038,1.779c.243-.806.821-1.367,1.093-2.089.3-.806-.073-1.439-.251-2.209-.467.384-.875.645-.695,1.276.142.5-.276.757-.605,1a.358.358,0,0,1-.541-.147C742.381,329.017,741.981,328.673,742.4,328.2Zm-14,1.212a2.189,2.189,0,0,1,.684-2.386c-.3,1.979.995,2.957,2.116,4.085C729.5,330.914,728.6,330.4,728.4,329.416Zm4.076-6.728c.185.494-.2.906.1,1.325.2.283-.118.145-.176.179a3.491,3.491,0,0,1-2.338.309,13.116,13.116,0,0,0-1.544-.161c.48-.622,1.111-.148,1.61-.447a1.368,1.368,0,0,1,.271-1.566c-.972-.4-1.433.271-2,.738.43-1.254,2.22-2.248,4.354-1.156v0a2.466,2.466,0,0,0-3.1-.824c-.237.1-.306.076-.882-.3a2.661,2.661,0,0,1,3.936.641.471.471,0,0,1,.043.488l0,0h-.005c.209.595.623.524,1.221.223-.83.805.192.474.243.745C733.627,323.4,733.114,322.885,732.476,322.688Zm6.981,6.094a4.584,4.584,0,0,1-2.9,2.887A27.035,27.035,0,0,1,739.457,328.783Zm-7.206-11.967a2.622,2.622,0,0,1,2.54,1.487c.187.33.363.666.611,1.123-.211-.069-.34-.073-.412-.139-1.517-1.382-3.174-.987-4.877-.445a21.535,21.535,0,0,1-2.414.464C729.13,318.066,730.485,316.983,732.251,316.815Zm-5.618,12.309a4.253,4.253,0,0,0-.136-2.163C727.6,327.669,727.648,328.2,726.633,329.124Zm.4-6.149c.157.567-.445,1.111.032,1.662C726.14,323.946,726.141,323.711,727.029,322.975Zm-1.325,5.483c-.7-.4-1.278.264-1.944.217C724.384,327.6,725.049,327.508,725.7,328.458Zm-5.891-.248c-.209-.24-.286-.25-.662-.083-.35.155-1.215-.518-1.3-1.009-.111-.669.145-1.026,1.111-1.455-.183.506-.475.837-.4,1.288.044.261.133.5.43.433.184-.042.546.077.5-.387a2.469,2.469,0,0,1,.478-1.384,4.679,4.679,0,0,0,2.366,3.483A2.106,2.106,0,0,1,719.814,328.21Zm2.914-7.552c1.073,1.318.2,3.594-2.411,4.452l1.043-1.161-1.221.387C721.386,323.382,722.93,322.679,722.727,320.658Zm-5.391-.279c-.188-.421.174-.576.367-.8,1-1.186,2.038-1.157,3.147.258-1.585-.922-1.833-.923-2.994-.035a3.424,3.424,0,0,0,.721.029,2.385,2.385,0,0,1,2.571,1.055c.3.474.526,1.007.179,1.491-.383.536-.7,1.123-1.612,1.116-1.206-.01-1.968-.421-2.209-1.525a2.561,2.561,0,0,0,1.735,1.134c-.118-.454-.435-.83-.286-1.269.162-.477.648-.573,1.04-.818a1.617,1.617,0,0,0-1.832-.439,6.194,6.194,0,0,1-.677.213.333.333,0,0,1-.381-.174C716.887,320.239,717.36,320.432,717.336,320.379Zm-2.526,9.295a21.011,21.011,0,0,1,2.784-1.753C717.3,329.385,716.463,329.907,714.81,329.673Z" transform="translate(-638.084 -281.538)" fill="#c47058"/>
  <path id="Path_3416" data-name="Path 3416" d="M716.42,315.886c.286-.8.789-1.527,1.112-2.438C715.976,313.84,716.657,315.061,716.42,315.886Z" transform="translate(-638.834 -281.259)" fill="#fff"/>
  <path id="Path_3417" data-name="Path 3417" d="M728.407,337.595c-1.175-.263-2.31-1.108-3.5-.769a5.223,5.223,0,0,1-3.517-.234,4.233,4.233,0,0,0-1.674-.173c-.277.005-.732-.116-.733.263,0,.319.448.43.775.453.509.036,1.11-.142,1.513.071a9.816,9.816,0,0,0,3.56.912,9.239,9.239,0,0,0,4.732-.171C729.279,337.5,728.787,337.68,728.407,337.595Z" transform="translate(-639.465 -286.918)" fill="#803d2f"/>
  <path id="Path_3423" data-name="Path 3423" d="M724.929,338.877a7.094,7.094,0,0,1-3.841-.6l-.127.187c.359.709.752,1.4,1.062,2.133a.925.925,0,0,0,.73.58c2,.291,4,.568,5.88-.609a14.314,14.314,0,0,0,1.9-1.567,14.159,14.159,0,0,1-3.288.431C726.4,339.437,725.732,338.832,724.929,338.877Z" transform="translate(-639.954 -287.379)" fill="#fff"/>
  <path id="Path_3341" data-name="Path 3341" d="M629.282,351.037a5.63,5.63,0,0,0-5.21-2.82,7.191,7.191,0,0,0-5.388,3.112,14.789,14.789,0,0,0-2.9,10.3c.9-.716,1.66-1.367,2.466-1.959a17.426,17.426,0,0,1,6.009-3.306,2.538,2.538,0,0,1,3.162,1.438,4.971,4.971,0,0,1,.175,3.824,9.317,9.317,0,0,1-2.68,3.816c-1.206,1.166-2.444,2.3-3.643,3.473-1.118,1.094-.913,1.882.574,2.343a5.247,5.247,0,0,0,4.443-.57c3.956-2.482,5.546-6.268,5.485-10.795a14.583,14.583,0,0,0-.3-2.463A17.9,17.9,0,0,0,629.282,351.037Zm-13.112,9.1a20.861,20.861,0,0,1,5.856-9.323A53.356,53.356,0,0,0,616.17,360.133Zm12.929,5.006.622-4.309A11.355,11.355,0,0,1,629.1,365.139Z" transform="translate(-614.019 -289.828)" fill="#fff"/>
  <path id="Path_3410" data-name="Path 3410" d="M722.208,386.967c.515.255.563-.126.688-.395a34.334,34.334,0,0,1,4.737-7.459c.607-.735,1.126-1.3.359-2.449a19.3,19.3,0,0,1-1.554-4.1,5.842,5.842,0,0,0-1.292-2.391c-.482-.454-.852-.494-1.432,0a8.306,8.306,0,0,1-7.382,2.122,2.048,2.048,0,0,0-2.671,1.523,10.531,10.531,0,0,0-.224,1.94,6.671,6.671,0,0,1-1.165,3.74,13.111,13.111,0,0,1-1.7,2.05,1.571,1.571,0,0,0-.457,1.294c.036.3.643.27,1.033.29a7.853,7.853,0,0,1,.944.21c1.214.222,2.379.836,3.638.65a24.568,24.568,0,0,0,3.078-.76c1.127-.318,2.241-.684,3.361-1.03a11.454,11.454,0,0,1-6.118,2.126A39.608,39.608,0,0,1,722.208,386.967Zm-6.86-12.95a4.706,4.706,0,0,1,2.742-.807c.57.015,1.09-.3,1.8-.149-1.275.513-2.541.558-3.75.946.183.4.771.642.45,1.132-.18.276-.406.625-.848.566-.4-.054-.516-.351-.706-.678C714.713,374.48,714.875,374.326,715.348,374.017Zm6.382-.672a5.47,5.47,0,0,1-3.563.634Zm-9.574,9.527c3.383-1.643,6.88-3.016,10.222-4.723C719.414,380.682,715.834,381.9,712.156,382.871Zm7.452-1.34a7.054,7.054,0,0,1,4.343-1.836Z" transform="translate(-637.276 -295.153)" fill="#fe0"/>
  <path id="Path_3418" data-name="Path 3418" d="M717.367,359.774a1.782,1.782,0,0,0-.4,2.245,12.314,12.314,0,0,1,1.142,4.417c.088.7.289.687.841.484.992-.365,2.027-.614,3.022-.973a5.389,5.389,0,0,0,3.514-2.876,1.386,1.386,0,0,1,1.568-.9,1.35,1.35,0,0,0,.536-.029,20.534,20.534,0,0,0,7.1-3.285,5.246,5.246,0,0,0,2.186-2.948,21.854,21.854,0,0,1,.723-2.45c.292-.862.617-1.713.965-2.674a13.486,13.486,0,0,1-4.633,2.45c.309-.271.625-.534.925-.814s.8-.354.885-.925a53.055,53.055,0,0,0-6.375,3.491,46.5,46.5,0,0,1-5.969,3.281c-1.126.517-1.493.424-2.117-.5a7.6,7.6,0,0,1-1.322,3.9,13.212,13.212,0,0,1,.479-3.771A4.427,4.427,0,0,0,717.367,359.774Zm16.826-6.324.127.133-2.549,2.574-.118-.148Zm-3.945,5.09a10.673,10.673,0,0,1-3.962,2.389Z" transform="translate(-638.908 -290.462)" fill="#c47058"/>
  <path id="Path_3452" data-name="Path 3452" d="M747.8,286.284a3.984,3.984,0,0,0-2.659-1.241c-.33.012-.656.044-.979.084q2.583,1.755,4.975,3.755c.415.148.833.368,1.289.551A9.663,9.663,0,0,0,747.8,286.284Z" transform="translate(-645.672 -274.257)" fill="#fe0"/>
  <path id="Path_3405" data-name="Path 3405" d="M730.427,286.5a17.34,17.34,0,0,0-5.171,3.8,11.756,11.756,0,0,1,3.663-3.988c-2.517,1.3-3.939,2-7.021,8.448a12.282,12.282,0,0,1,1.076-3.37,25.985,25.985,0,0,1,1.9-2.967C720.3,290.537,714.2,298.5,713.6,303.055l2.4-.393.044.129-2.562,1.295a2.642,2.642,0,0,0,.57-.005,32.252,32.252,0,0,1,6.4-.856,23.688,23.688,0,0,1,6.479.535c3.2.656,6.3,1.593,8.7,3.972q-1.536-.645-3.073-1.291a30,30,0,0,0-10.757-2.329,32.045,32.045,0,0,0-5.891.322,24.183,24.183,0,0,0-8.151,2.525,2.712,2.712,0,0,0-1.242,1.356c.951-.427,1.723-.846,2.543-1.13a28.668,28.668,0,0,1,12.177-1.486,46.484,46.484,0,0,1,8.77,1.679c3.706,1.079,7.21,2.717,10.783,4.149a16.792,16.792,0,0,1,6.491,3.922.446.446,0,0,0,.651.114,16.749,16.749,0,0,0-3.908-4.584c1.021-.2,1.864.367,2.818.726.032-1.68.3-3.273.352-4.868a31.883,31.883,0,0,0-.132-5.921,17.618,17.618,0,0,0-2.229-6.3,14.326,14.326,0,0,0-6.261-5.822,2.173,2.173,0,0,1,1.275.115q-2.392-1.995-4.975-3.755A14.68,14.68,0,0,0,730.427,286.5Zm12.454,20.4c-.159.475-.291,1.047-.952.977-.682-.072-.421-.662-.465-1.063a1.391,1.391,0,0,1,.108-.6c.139-.409.243-.887.76-.809.533.081.627.56.556,1.036A1.557,1.557,0,0,1,742.88,306.9Zm1.437,2.687c-.626.077-.515-.693-.632-1.08-.149-.5.562-1.356.96-1.319.522.048.352.552.508.787C745,308.606,745.154,309.481,744.317,309.584Zm2.3-3.967a60.353,60.353,0,0,0-2-7.111,19.553,19.553,0,0,0-3.519-6.363C743.751,293.758,747.408,300.652,746.617,305.617Zm-15.706-15.555a11.268,11.268,0,0,0-3.493,2.82,10.937,10.937,0,0,1-3.5,3.021,2.1,2.1,0,0,1-1.475.194c1.68-.506,2.64-1.833,3.653-3.049,1.829-2.2,3.737-4.256,6.745-4.736a10.592,10.592,0,0,1,4.627.308C735.251,289.044,732.945,289,730.911,290.063Z" transform="translate(-636.396 -274.285)" fill="#fe0"/>
  <path id="Path_3461" data-name="Path 3461" d="M751.347,325.615a4.736,4.736,0,0,0,.885-.252c-.066-.312-.215-.442-.449-.451-.3-.013-.651-.061-.78.286A.322.322,0,0,0,751.347,325.615Z" transform="translate(-647.354 -284.082)" fill="#fff"/>
  <path id="Path_3385" data-name="Path 3385" d="M682.85,422.267c-.048.836-.154,1.319,1.13,1.322a67.423,67.423,0,0,1,9.792.6c1.924.289,3.847.585,5.743,1.028a28.831,28.831,0,0,1,5.545,1.776.5.5,0,0,0,.7-.148c.237-.332-.011-.515-.251-.688-.575-.414-1.133-.854-1.728-1.238a57.435,57.435,0,0,1-6.768-5.041c-.879-.772-1.647-1.652-2.555-2.383a58.155,58.155,0,0,1-4.878-5.016c-1.285-1.317-2.447-2.753-3.733-4.214a32.069,32.069,0,0,0-1.467,4.758A48.289,48.289,0,0,0,682.85,422.267Z" transform="translate(-630.553 -304.63)" fill="#fe0"/>
  <path id="Path_3398" data-name="Path 3398" d="M663.738,420.386a6.69,6.69,0,0,0,5.3-7.331A12.159,12.159,0,0,1,663.738,420.386Z" transform="translate(-625.849 -305.811)" fill="#fe0"/>
  <path id="Path_3362" data-name="Path 3362" d="M667.667,362.253a14.311,14.311,0,0,1-2.089,1.964,2.815,2.815,0,0,0-1.24,1.694c-.095.489.081,1.263.2,1.255.822-.05,1.626.549,2.446.078.649-.374,1.048-.851.679-1.684.543.541.794,1.35,1.533,1.512.665.145,1.4-.114,2.086.3-.4.188-.767-.013-1.145.035-1.7.216-3.35.692-5.076.823-1.456.111-1.952,1-1.741,2.487.061.429.125.735.77.549a10.449,10.449,0,0,1,4.186-.338c-1.7.538-3.3,1.038-4.883,1.544a1.476,1.476,0,0,0-1.1,1.955,1.8,1.8,0,0,1,.113.515c-.043.6.173.694.745.55,1.392-.35,2.853-.5,3.982-1.557l-.616.784a4.228,4.228,0,0,1,1.414-.377,12.7,12.7,0,0,1-4.813,2.472c-.741.22-1.1.769-.849,1.419a6.764,6.764,0,0,0,3.3,3.59c.237.124.658.306.54-.437a1.416,1.416,0,0,0-.943-1.218c-.362-.17-.881-.219-.986-.738,1.387-.338,2.73.376,4.248-.046-1.269,1.24.32.929.52,1.347-.546.56-1.175.053-1.849.109,1.247,4.094,4.358,6.135,8.1,7.685-.26.018-.4.014-.531.04-.219.041-.556-.139-.634.144-.1.351.3.423.52.5a6.372,6.372,0,0,0,2.231.471c-.179.5-.794.365-.9.7.839,1.364,1.881.583,2.854.326a18.55,18.55,0,0,0,1.815-.679,4.2,4.2,0,0,1-1.337.882c-1.265.558-2.545,1.343-3.781-.068-.077-.088-.208-.147-.3-.027a.306.306,0,0,0-.054.25c.225.6.549,1.192,1.227,1.279a4.975,4.975,0,0,0,3.239-.71,13.093,13.093,0,0,0,3.129-3.024,11.359,11.359,0,0,0,2.745-4.689,2.437,2.437,0,0,0-.43-2.49,6.111,6.111,0,0,1-2.02,5.094c.763-2.181,1.564-4.152.24-6.152.216,2.009.436,3.984-.647,5.889-.786,1.382-3.344,3.595-4.53,3.638,2.8-2.058,4.229-3.817,4.681-6.522.222-1.327.644-2.852-.637-3.933a15.156,15.156,0,0,1-2.31-2.348,20.026,20.026,0,0,1-2.789-4.391c-.789-1.9-1.206-3.985-2.808-5.47a6.453,6.453,0,0,1-.726-.9c-.772-1.03-1.028-2.338-1.726-3.381C670.463,361.091,669.333,360.378,667.667,362.253Zm12.652,16.757a8.2,8.2,0,0,1-2.937-3.967Zm-.78,2.388a11.49,11.49,0,0,1-3.87-6.094C677,377.338,678.229,379.394,679.539,381.4Zm-1.411,1.075a17.5,17.5,0,0,1-3.635-5.768Z" transform="translate(-625.466 -293.018)" fill="#00973d"/>
  <path id="Path_3366" data-name="Path 3366" d="M660.812,407.224c.461-1.194,1-2.361,1.5-3.543a9.81,9.81,0,0,0,.848-5.6c-.385-2.269-1.416-4.31-1.967-6.51a2.226,2.226,0,0,0-.677-1.223c.311,1.676.615,3.173.863,4.679a10.452,10.452,0,0,1-.054,4.478c-.763,2.846-3.055,4.54-4.945,6.5a40.834,40.834,0,0,1-4.507,3.76c-1.306,1.011-2.593,2.151-4.474,1.833.065.275.246.319.388.423a16.608,16.608,0,0,0,4.03,1.772,3.08,3.08,0,0,0,1.988.066,16.325,16.325,0,0,0,6.377-3.7c.914-.775,1.846-1.528,2.771-2.291a18.89,18.89,0,0,1-8.114,6.417c.435.1.741.329,1.121.254a9.265,9.265,0,0,0,5.07-2.729,17.624,17.624,0,0,0,3.533-6.091c1.213-3.282.223-6.374-.881-9.478C664.945,400.5,663.493,404.026,660.812,407.224Z" transform="translate(-621.82 -300.214)" fill="#fe0"/>
  <path id="Path_3367" data-name="Path 3367" d="M672.989,396.019a11.31,11.31,0,0,1-2.534-1.746c1.434,3.706.944,7.366,1.058,11.042a.934.934,0,0,0,.357-.64,66.9,66.9,0,0,1,1.313-8.017C673.254,396.338,673.29,396.136,672.989,396.019Z" transform="translate(-627.504 -301.182)" fill="#fe0"/>
  <path id="Path_3386" data-name="Path 3386" d="M684.039,407.481c-.665,2.53-1.345,5.056-1.943,7.6a42.609,42.609,0,0,0-1.142,8.526c-.032,1.125.128,1.22,1.256,1.35,1.762.2,3.511.546,5.278.668a8.779,8.779,0,0,0,2.786.154l-2.255-.686a10.963,10.963,0,0,1,4.02.163c3.62.919,7.1,2.327,10.781,3.031a23.484,23.484,0,0,0,3.16.427,1.3,1.3,0,0,0,1.289-.992,4.746,4.746,0,0,0-1.374-1.307.415.415,0,0,0-.277.187c-.289.793-.859.5-1.331.31a51.616,51.616,0,0,0-14.234-3.019,58.418,58.418,0,0,0-7.336-.382c-.585.014-.7-.2-.689-.724.016-1.224.22-2.423.356-3.634a52.087,52.087,0,0,1,1.7-8.033c.282-1.021.64-2.022.98-3.026a.883.883,0,0,0-.605-1.14C684.128,406.806,684.094,407.272,684.039,407.481Z" transform="translate(-630.091 -304.3)" fill="#fe0"/>
  <path id="Path_3364" data-name="Path 3364" d="M669.136,332.076c.436.078.91.435,1.479-.08,1.872-1.7,3.833-3.3,5.775-4.916.918-.765.9-.892.18-1.887-.4-.554-.661-.448-1.093-.1-1.229.976-2.487,1.915-3.723,2.881q-2.6,2.036-5.194,4.088A7.993,7.993,0,0,1,669.136,332.076Z" transform="translate(-626.544 -284.058)" fill="#fff"/>
  <path id="Path_3387" data-name="Path 3387" d="M719.021,395.824c-2.81-.189-5.589-.606-8.368-1.057a66.6,66.6,0,0,1-10.453-2.53c-1.394-.466-2.781-.958-4.138-1.521-.589-.243-.626.186-.739.46-.161.389-.66.766-.148,1.255.3.284.363.053.5-.161.237-.363.5-.421.98-.267a27.08,27.08,0,0,1,2.687,1.334,58.931,58.931,0,0,0,6.238,2.233,25.316,25.316,0,0,0,6.516,1.2,15.432,15.432,0,0,0,4.168-.046c.813-.107,1.168.124.841.988-.145.381-.162.809-.295,1.2-.084.248.017.413.194.335.562-.247,1.345-.11,1.628-.871.246-.661.469-1.33.731-1.984C719.517,396.011,719.465,395.854,719.021,395.824Z" transform="translate(-633.542 -300.287)" fill="#fe0"/>
  <path id="Path_3388" data-name="Path 3388" d="M716.609,397.637a16.72,16.72,0,0,1-4.541,0,27.415,27.415,0,0,1-5.305-.946,42.479,42.479,0,0,1-9.712-3.741c-.255-.142-.537-.377-.839.056-.322.463.084.605.286.786a26.939,26.939,0,0,0,2.123,1.765,21.533,21.533,0,0,0,6.872,3.547c1.765.486,3.6.668,5.325,1.251a5.931,5.931,0,0,0,3.369.365c2.111-.475,2.691-.878,2.836-2.51C717.067,397.723,716.972,397.564,716.609,397.637Z" transform="translate(-633.824 -300.809)" fill="#fe0"/>
  <path id="Path_3434" data-name="Path 3434" d="M751.493,375.872a2.264,2.264,0,0,0-1.846.258c-2.7,1.461-4.718,3.728-6.811,5.889-1.076,1.111-2.012,2.358-3.011,3.544,3.107-2.133,6.38-3.483,10.221-2.854a14.273,14.273,0,0,0-4.41.86,21.863,21.863,0,0,0-8.855,6.272c-.161.178-.39.363-.19.611.16.2.362.047.562-.038,1.191-.512,2.379-1.034,3.59-1.494a14.022,14.022,0,0,1,9.157-.423c-1.145.1-2.273-.126-3.445.009a26.391,26.391,0,0,0-5.68,1.3,51.713,51.713,0,0,0-7.534,3.737c-.845.459-1.749.807-2.676,1.228.65.237,1.245.4,1.8.662a15.135,15.135,0,0,1,5.068,4.144c.09.106.254.311.267.287.342-.643.4-.022.466.124.615,1.4,1.231,2.8,1.8,4.218.784,1.954,1.527,3.924,2.354,6.059a20.717,20.717,0,0,1,4.652-10.637c-1.4,3.419-3,6.77-3.512,10.383q.953-.722,1.879-1.477a120.086,120.086,0,0,0,9.715-17.5,46.656,46.656,0,0,1-2.909,7.473,63.531,63.531,0,0,1-4.719,8.231,63.462,63.462,0,0,0,8.192-8.866c.673-2.949,1.415-5.871,2.315-8.76.152,1.273-.571,4.828-1.49,7.646a63.111,63.111,0,0,0,4.193-6.577,37.54,37.54,0,0,0-.955-5.164C758.53,380.533,756.172,377.2,751.493,375.872ZM739.92,388.878a17.009,17.009,0,0,1,8.362-4.278C745.526,386.1,742.665,387.383,739.92,388.878Zm5.822-2.358a10.118,10.118,0,0,1,6.143-1.686C749.821,385.325,747.78,385.9,745.742,386.521Zm3.969-.285a5.519,5.519,0,0,1,3.445-.891Zm-.815,8.375a7.1,7.1,0,0,1,2-2.383A24.533,24.533,0,0,1,748.9,394.611Zm1.967-7.856a5.4,5.4,0,0,1,3.328-.454Z" transform="translate(-642.321 -296.623)" fill="#fe0"/>
  <path id="Path_3389" data-name="Path 3389" d="M726.231,378.38c-2.089,2.685-3.59,5.748-5.406,8.61-.843,1.329-1.414,1.833-2.525,1.432-2.45-.884-5.015-1.283-7.5-1.987-2.524-.714-5.03-1.477-7.616-1.977-2.189-.424-4.4-.6-6.608-.839-.844-.092-1.718-.179-2.7-.2a5.275,5.275,0,0,1,.6,3.02,4.643,4.643,0,0,0,.319-1.011c.153-.836.459-1.05,1.276-.827.851.232,1.711.44,2.542.732,6.9,2.431,13.927,4.2,21.3,4.22.775,0,.822.356.568.981a26.729,26.729,0,0,1-1.326,2.395,5.666,5.666,0,0,0,1.13-.137c1.194-.411,2.56-.613,3.351-1.69,2.619-3.567,4.816-7.437,7.687-10.823a26.847,26.847,0,0,1,4-4.1,45.871,45.871,0,0,1,7.931-4.647,38.443,38.443,0,0,0-6.94,1.894,24.219,24.219,0,0,1,7.8-2.88c-1.643-.686-3.261-.861-4.709-1.466a3.256,3.256,0,0,0-2.893.15C732.143,371.226,729.092,374.7,726.231,378.38Zm-3.014,12.437a20.328,20.328,0,0,1,5.129-8.607C726.625,385.067,724.828,387.88,723.217,390.816Zm17.992-20.345c-2.733.961-5.5,1.787-8.226,2.75A15.023,15.023,0,0,1,741.209,370.471Z" transform="translate(-633.277 -294.903)" fill="#008838"/>
  <path id="Path_3473" data-name="Path 3473" d="M723.791,435.164a1.562,1.562,0,0,0,1.59-.465,6.844,6.844,0,0,0,1.221-2.339c.065-.132.127-.264.189-.4a62.7,62.7,0,0,1-6.122,2.134A16.753,16.753,0,0,0,723.791,435.164Z" transform="translate(-639.882 -310.473)" fill="#fff"/>
  <path id="Path_3383" data-name="Path 3383" d="M719.567,414.729a13.084,13.084,0,0,0-.05-4.886c-.548-2.334-1.617-4.306-4.33-4.959l1.746,2.093c-1.039-.776-2.014-1.591-3.013-2.381a17.873,17.873,0,0,0-8.829-4.023,20.366,20.366,0,0,1-9.022-3.881,33.661,33.661,0,0,1-3.908-3.72c-.746,1.181-1.478,2.315-2.184,3.466a9.912,9.912,0,0,1-3.839,4.111c-.5.249-.42.494-.154.909a48.145,48.145,0,0,0,5.275,6.484c1.927,2.1,3.905,4.156,6.035,6.06,1.6,1.427,3.221,2.812,4.935,4.1s3.641,2.3,5.349,3.624a22.562,22.562,0,0,0,4.488,2.761,62.7,62.7,0,0,0,6.122-2.134,10.279,10.279,0,0,0,1.224-4.684A18.285,18.285,0,0,1,719.567,414.729Zm-19.05-2a28.217,28.217,0,0,1,5.164.741C704.443,414.586,701.111,414.254,700.517,412.73Zm3.264,2.443c1.2-.595,2.288-.1,3.259-.491A5.733,5.733,0,0,1,703.781,415.173Zm13.319,1.2a4.979,4.979,0,0,1-3.281,2.117A10.827,10.827,0,0,1,717.1,416.376Zm-4.159.147a2.766,2.766,0,0,1-2.042,1.2A5.679,5.679,0,0,1,712.941,416.523Zm-1.873,5.567c2.149.051,4.381,1.062,6.51-.751C716.69,423.41,714.616,423.67,711.067,422.09Z" transform="translate(-631.28 -300.861)" fill="#c47058"/>
  <path id="Path_3355" data-name="Path 3355" d="M647.341,404.055c2.195-1.383,4.387-2.772,6.527-4.238a16.859,16.859,0,0,0,3.642-4.1,7.41,7.41,0,0,0,1.29-5.957,45.989,45.989,0,0,1-.707-5.36,5.618,5.618,0,0,0-1.426-3.524c-.8-.95-1.624-1.945-.815-3.341a.8.8,0,0,0-.191-.909c-1.138-1.224-2.286-2.443-3.362-3.721-1.243-1.475-2.577-2.874-3.739-4.421a10.641,10.641,0,0,0-2.921-2.927c-.447-.267-.747-.32-.795.383a19.266,19.266,0,0,1-.374,2.907c-.781,3.446-1.676,6.867-2.413,10.322a39.621,39.621,0,0,0-1.192,8.379,8.233,8.233,0,0,0,.231,2.621,12.966,12.966,0,0,0,.745,3.544c1.451,3.254,2.863,6.525,4.1,9.866C646.2,404.29,646.654,404.487,647.341,404.055Zm6.026-6.538a2.723,2.723,0,0,1-2.966,1.624A7.348,7.348,0,0,1,653.367,397.517Zm-3.808.728a3.328,3.328,0,0,1,1.782-.851A1.793,1.793,0,0,1,649.559,398.245Zm-.923-1.086a7.363,7.363,0,0,1,2.829-.926A3.048,3.048,0,0,1,648.636,397.159Zm-.582-1.472c.763-.414,1.582-.2,2.33-.4A2,2,0,0,1,648.054,395.688Zm-1.313-1.452a5.647,5.647,0,0,1,3.36-.429A2.766,2.766,0,0,1,646.741,394.236Zm-.619-1.5a13.512,13.512,0,0,1,2.742.366A3.29,3.29,0,0,1,646.121,392.734Zm2.5-1.033a4.55,4.55,0,0,1-2.687-.576C646.812,391.414,647.755,391.363,648.62,391.7Z" transform="translate(-620.197 -294.059)" fill="#c47058"/>
  <path id="Path_3335" data-name="Path 3335" d="M656.771,339.247a1.224,1.224,0,0,0,.513-1.071,5.17,5.17,0,0,1,.329-2.537c.213-.455.784-.613.849-1.142a24.941,24.941,0,0,1-2.306,1.713,2.2,2.2,0,0,0-1.092,2.224,3.668,3.668,0,0,1-1.18,2.778c-1.327,1.233-3.042,1.863-4.557,2.8-.492.3-1.1.466-1.625.822-.756.515-1.655,1.023-2.535.438-.368-.245-.6-.121-.9-.138a1.093,1.093,0,0,0,.169-1.674c-.407-.429-.688.314-1.075.414a.648.648,0,0,1-.179,0c.069-.095.115-.234.209-.279,1.07-.514.918-1.254.405-2.073a.586.586,0,0,1-.078-.249c-.057-.625-.44-.617-.9-.469.078-.281.631-.481.251-.815-.3-.258-.509.136-.735.31-1.5,1.155-3.013,2.3-4.511,3.456q-1.788,1.386-3.547,2.808c-.145.116-.423.264-.26.491.139.194.371.092.558-.044.063-.046.173-.025.262-.035-.384.592.261,2.1,1.083,2.527a1.463,1.463,0,0,0,.543,1.627c-.051.136-.176.293-.144.406a14.145,14.145,0,0,1,.536,4.391c.54-.406.948-.683,1.324-1q5.182-4.353,10.354-8.718Q652.659,342.732,656.771,339.247Z" transform="translate(-618.512 -286.447)" fill="#fff"/>
  <path id="Path_3399" data-name="Path 3399" d="M645.5,415.584a14.651,14.651,0,0,0-1.1-3.09A5.6,5.6,0,0,0,645.5,415.584Z" transform="translate(-621.082 -305.673)" fill="#fff"/>
  <path id="Path_3365" data-name="Path 3365" d="M666.539,334.43l-.057.006a.416.416,0,0,1-.008.044l.031-.024Z" transform="translate(-626.523 -286.431)"/>
  <path id="Path_3451" data-name="Path 3451" d="M744.531,284.644a3.984,3.984,0,0,1,2.659,1.241,9.663,9.663,0,0,1,2.626,3.149c-.456-.183-.874-.4-1.289-.551a63.358,63.358,0,0,1,6.76,6.558,19.107,19.107,0,0,0-1.576-2.656c-1.267-1.785-2.908-3.28-4.071-5.155a8.124,8.124,0,0,0-1.423-1.912,7.725,7.725,0,0,0-6.518-1.788c.623.392,1.246.784,1.854,1.2C743.876,284.687,744.2,284.656,744.531,284.644Z" transform="translate(-645.065 -273.857)"/>
  <path id="Path_3334" data-name="Path 3334" d="M659.474,397.1a63.859,63.859,0,0,1,.2-7.457c.029-.9.164-1.839.224-2.747a26.8,26.8,0,0,0,.167-5.039c-1.778,3.618-1.424,7.567-1.8,11.406a8.467,8.467,0,0,1-.237-2.105c.315-3.074.442-6.165.86-9.232.255-1.875.485-3.745.876-5.6.286-1.359.934-2.6,1.11-3.982a17.573,17.573,0,0,0-1.574,5,57.053,57.053,0,0,0-1.12,8.793,3.465,3.465,0,0,1-.271,1.01,58.391,58.391,0,0,1,2.889-17.4,1.827,1.827,0,0,1,.469,1.484c.675-.182,1.035.08,1.078.772a2.6,2.6,0,0,0,3.23,2.63c.682-.152.882.248,1.13.567.279.359.728.711.413,1.332a22.84,22.84,0,0,0-1.815,5.427c-.548,2.477-1.014,4.967-1.34,7.485-.2,1.528-.4,3.054-.572,4.586-.131,1.16.035,1.457,1.184,1.606,1.766.228,3.528.445,5.308.564,2.307.154,4.6.539,6.907.663a16,16,0,0,1,4.478.971,38.206,38.206,0,0,0,4.869,1.506c1.655-.252,3.281-.586,4.89-.964a3.147,3.147,0,0,0,.133-.452c.152.114.307.212.462.315.885-.217,1.762-.457,2.633-.711a22.567,22.567,0,0,1-4.488-2.761c-1.708-1.323-3.624-2.328-5.349-3.624s-3.339-2.673-4.936-4.1c-2.129-1.9-4.108-3.96-6.035-6.06a48.14,48.14,0,0,1-5.275-6.484c-.265-.415-.348-.66.154-.909a9.912,9.912,0,0,0,3.839-4.111c.706-1.151,1.438-2.285,2.184-3.466a33.664,33.664,0,0,0,3.908,3.72,20.366,20.366,0,0,0,9.022,3.881,17.873,17.873,0,0,1,8.829,4.023c1,.79,1.973,1.6,3.012,2.381l-1.746-2.093c2.713.653,3.783,2.624,4.33,4.959a13.084,13.084,0,0,1,.05,4.887,18.285,18.285,0,0,0-.154,2.941,10.279,10.279,0,0,1-1.224,4.684q.673-.275,1.338-.563a24.642,24.642,0,0,0,.937-3.378v1.432a2.009,2.009,0,0,0,.172-.706,21.413,21.413,0,0,0-.042-9.075,8.485,8.485,0,0,0-4.422-6.119c-1.372-.683-2.722-1.408-4.143-1.988-.151-.062-.48-.079-.4-.381.057-.219.262-.3.5-.3a17.584,17.584,0,0,0,4.492-.957,5.4,5.4,0,0,1,2.947-.389,12.194,12.194,0,0,1,6.482,4.823c1.715,2.3,2.143,5.132,3.047,7.759a17.712,17.712,0,0,1,.661,3.649q1.361-.925,2.666-1.919c.508-3.614,2.111-6.964,3.512-10.383a20.718,20.718,0,0,0-4.652,10.637c-.827-2.135-1.57-4.105-2.354-6.059-.57-1.419-1.186-2.819-1.8-4.218-.064-.146-.124-.768-.466-.124-.013.024-.176-.181-.267-.287a15.135,15.135,0,0,0-5.068-4.144c-.553-.258-1.148-.426-1.8-.662.927-.421,1.831-.769,2.676-1.228a51.711,51.711,0,0,1,7.534-3.737,26.39,26.39,0,0,1,5.68-1.3c1.172-.135,2.3.089,3.445-.009a14.022,14.022,0,0,0-9.157.423c-1.211.46-2.4.982-3.59,1.494-.2.086-.4.236-.562.038-.2-.248.029-.433.19-.611a21.863,21.863,0,0,1,8.855-6.272,14.274,14.274,0,0,1,4.41-.86c-3.841-.63-7.114.72-10.221,2.854,1-1.185,1.935-2.432,3.011-3.544,2.093-2.162,4.108-4.428,6.811-5.889a2.264,2.264,0,0,1,1.846-.258c4.679,1.331,7.037,4.661,8.187,9.146a37.549,37.549,0,0,1,.955,5.164c.282-.511.551-1.031.82-1.551a15.178,15.178,0,0,0-.547-2.2c-.942-2.823-.93-5.849-2.108-8.643a11.129,11.129,0,0,0-6.868-6.724,39.838,39.838,0,0,1-7.372-3.413c-.363-.211-.721-.43-.6-.873a6.006,6.006,0,0,0-.016-1.842,7.213,7.213,0,0,0-1.172-3.94,2.907,2.907,0,0,1-.336-2.456c.527-2.435,1.829-4.529,2.912-6.724.509-1.032.961-1.977,2.253-2.114.078-.008.142-.11.222-.147a8.538,8.538,0,0,0,3.566-3.707,8.216,8.216,0,0,1,2.349-2.949,1.84,1.84,0,0,0,.671-2.754.441.441,0,0,1,.014-.565c1.217-1.362.678-2.789.04-4.121a5.559,5.559,0,0,1-.417-2.82c.067-1.272.338-2.538.35-3.807a40.009,40.009,0,0,0-.13-5.2,17.986,17.986,0,0,0-1.725-5.82,63.361,63.361,0,0,0-6.76-6.558,2.172,2.172,0,0,0-1.275-.115,14.326,14.326,0,0,1,6.261,5.822,17.618,17.618,0,0,1,2.229,6.3,31.888,31.888,0,0,1,.132,5.921c-.047,1.6-.319,3.188-.352,4.868-.954-.359-1.8-.922-2.818-.726a16.751,16.751,0,0,1,3.908,4.584.446.446,0,0,1-.651-.114,16.791,16.791,0,0,0-6.491-3.922c-3.574-1.432-7.078-3.07-10.783-4.149a46.483,46.483,0,0,0-8.77-1.679,28.669,28.669,0,0,0-12.177,1.486c-.82.284-1.592.7-2.543,1.13a2.712,2.712,0,0,1,1.243-1.356,24.183,24.183,0,0,1,8.151-2.525,32.048,32.048,0,0,1,5.891-.322,30,30,0,0,1,10.757,2.329q1.537.642,3.073,1.291c-2.4-2.38-5.5-3.316-8.7-3.972a23.687,23.687,0,0,0-6.479-.535,32.252,32.252,0,0,0-6.4.856,2.643,2.643,0,0,1-.57.005l2.562-1.295-.044-.129-2.4.393c.6-4.55,6.7-12.517,11.271-14.636a25.985,25.985,0,0,0-1.9,2.967,12.279,12.279,0,0,0-1.076,3.37c3.082-6.452,4.5-7.151,7.021-8.448a11.755,11.755,0,0,0-3.663,3.988,17.339,17.339,0,0,1,5.171-3.8,14.68,14.68,0,0,1,4.456-1.343c-.608-.413-1.23-.805-1.854-1.2a12.263,12.263,0,0,0-1.237.243,23.8,23.8,0,0,0-5.253,2.351,29.65,29.65,0,0,0-7.622,5.467A23.586,23.586,0,0,0,690.2,301.96a1.441,1.441,0,0,1-1,1.176,13.718,13.718,0,0,0-5.813,3.816,1.179,1.179,0,0,0-.255,1.286,1.774,1.774,0,0,0,1.249,1.028,22.117,22.117,0,0,0,5.4.921c.769.062,1.454-.027,1.117,1.1a1.655,1.655,0,0,0,.087.787c.189.85.463,1.744-.44,2.414a1.469,1.469,0,0,0-.3.434,12.378,12.378,0,0,0-2.223,5.334,13.865,13.865,0,0,0,2.151,7.919,8.674,8.674,0,0,1,1.126,3.212c.173,1.365-.1,2.747.286,4.092a.728.728,0,0,1-.323.927c-1.813,1.056-3.594,2.16-5.479,3.1a6.766,6.766,0,0,1-4.352.668,5.386,5.386,0,0,0-3.982.317.8.8,0,0,1-.686-.029,9.436,9.436,0,0,0-4.655-.23,23.676,23.676,0,0,0-9.393,3.927c-1.524,1.056-1.508,1.016-2.438-.656-.513-.923-.967-2.022-2.025-2.39-.891-.309-.906-.892-.776-1.515.353-1.7.8-3.383,1.2-5.074a1.253,1.253,0,0,1,.279-.637,10.8,10.8,0,0,0,2.78-5.536,5.194,5.194,0,0,0-.494-4.088,5.549,5.549,0,0,0-2.658-1.711c-.55-.249-.451-.323-.1-.591.706-.539,1.4-1.092,2.117-1.618,1.393-1.026,2.446-2.421,3.81-3.484.406-.316.624-.384,1.053-.024a4.646,4.646,0,0,0,3.54,1.122,8.474,8.474,0,0,0,7.089-7.459,4.3,4.3,0,0,1,.917-2.809,1.249,1.249,0,0,0-.319-1.643,3.032,3.032,0,0,0-3.33.3,21.708,21.708,0,0,1-4.425,2.938c-.662.4-.828.107-.833-.546a4.414,4.414,0,0,1,2.42-4.137c1.567-.891,3.094-1.852,4.669-2.727.6-.332.553-.818.485-1.308a.875.875,0,0,0-.838-.8,3,3,0,0,1-1.894-.877,6.677,6.677,0,0,0-7.726-.633c-3.524,2.266-5.149,5.672-5.408,9.78a3.52,3.52,0,0,1-1.41,2.743q-2.332,1.777-4.639,3.584c-.515.4-.974.744-1.407-.1a2.141,2.141,0,0,0-.565-.578,4.715,4.715,0,0,0-6.422.029,7.576,7.576,0,0,0-1.662,2.394c-.8,1.938-2.545,2.9-4.122,4.018a20.027,20.027,0,0,1-2.415,1.967,6.385,6.385,0,0,0-3.415,4.079,11.429,11.429,0,0,0-.146,2.31c-.078.746-.073,1.479-.828,2-1.31.909-2.57,1.894-3.805,2.9-.374.306-.525.261-.871-.02a7.312,7.312,0,0,0-3.207-1.6c-3.323-.645-6.412-.24-8.694,2.48a15.118,15.118,0,0,0-2.692,4.8c.02.632.044,1.262.084,1.889a17.706,17.706,0,0,1,2.9-5.99,7.25,7.25,0,0,1,4.308-2.671c-3.616,2.136-5.187,5.53-5.993,9.432a20.947,20.947,0,0,0-.169,3.664c-.012.4.072.81-.511.794.032.216.06.431.093.645.323.121.55.353.46.964-.092,0-.192,0-.288,0,.038.221.078.442.118.662a3.357,3.357,0,0,0,1.72-.715,34.981,34.981,0,0,1,4.834-3.95c.405-.249.815-.59,1.274-.118a1.25,1.25,0,0,1,.238,1.621,5.35,5.35,0,0,1-1.459,1.682c-2.059,1.518-3.9,3.3-5.881,4.911.044.184.082.371.128.554.919-.784,1.91-1.344,2.709-2.129,1.525-1.5,3.449-2.577,4.723-4.321.461-.632.78-1,1.614-.753a1.639,1.639,0,0,0,1.71-.631,3.83,3.83,0,0,1-1.273,2.267c-1.515,1.742-3.549,2.912-5.124,4.593a6.474,6.474,0,0,0-.573.68,2.956,2.956,0,0,1-3.312,1.289c-.07-.013-.142-.017-.215-.023.046.171.1.34.145.511.45,0,.891,0,1.33.01a2.544,2.544,0,0,0,2.185-1.075,27.618,27.618,0,0,1,3.636-3.456c1.69-1.417,3.367-2.874,3.734-5.246a2.592,2.592,0,0,0-.725-2.27,2.332,2.332,0,0,0-2.434-.689,11.272,11.272,0,0,0-4.183,2.753c-1.1,1.013-2.106,2.136-3.282,3.074-.211.168-.446.508-.733.225a.558.558,0,0,1,.107-.864c2.34-2,4.659-4.046,7.541-5.241a2.555,2.555,0,0,1,2.864.232,3.33,3.33,0,0,1,.985,3.3c-.4,2.11-1.809,3.451-3.261,4.76a36.466,36.466,0,0,0-4.157,4.193,2.335,2.335,0,0,1-2.3,1.052,6.434,6.434,0,0,0-1.106-.044c.1.353.193.711.3,1.061a8.237,8.237,0,0,0,1.366.689,7.334,7.334,0,0,0,4.717.176c1.2-.384,2.545-.374,3.616-1.087a12.992,12.992,0,0,0,5.844-9.719c.1-.842-.068-1.86.8-2.446a11.786,11.786,0,0,0,1.02-.876c.96-.816,1.926-1.626,2.93-2.474.429,1.171.059,2.474,1.087,3.329.065.054-.036.324-.076.489a8.777,8.777,0,0,0-.372,4.269,1.137,1.137,0,0,1-.1.515c-.442,1.556-.958,3.1-1.317,4.671-.923,4.048-2.067,8.047-2.4,12.222a29.623,29.623,0,0,0,.345,7.723c.513,2.838,1.83,5.421,2.354,8.289.719,3.934,3.342,6.361,7.3,7.369,1.273.324,2.572.341,3.824.674,1.023.271,2.013.885,3.086.69a9.817,9.817,0,0,0,5.18-2.065c.124-.115.265-.338.439-.184a.522.522,0,0,1,.062.494,2.18,2.18,0,0,0-.147,1.139,40.558,40.558,0,0,0,.775,6.8c.031.167.072.332.107.5q1.378.457,2.784.849C659.5,397.505,659.491,397.3,659.474,397.1ZM672.5,381.74a58.164,58.164,0,0,0,4.878,5.016c.908.731,1.677,1.611,2.555,2.383a57.44,57.44,0,0,0,6.768,5.041c.595.384,1.153.824,1.728,1.238.24.173.487.356.251.688a.5.5,0,0,1-.7.148,28.832,28.832,0,0,0-5.545-1.776c-1.9-.443-3.818-.739-5.743-1.028a67.423,67.423,0,0,0-9.792-.6c-1.283,0-1.178-.486-1.13-1.322a48.289,48.289,0,0,1,1.531-9.245,32.084,32.084,0,0,1,1.467-4.758C670.052,378.988,671.214,380.423,672.5,381.74Zm-4.058-4.054c-.34,1-.7,2.005-.98,3.026a52.073,52.073,0,0,0-1.7,8.033c-.136,1.211-.34,2.41-.356,3.634-.007.529.1.738.689.724a58.417,58.417,0,0,1,7.336.382,51.616,51.616,0,0,1,14.234,3.019c.472.19,1.042.484,1.331-.31a.415.415,0,0,1,.276-.187,4.747,4.747,0,0,1,1.375,1.307,1.3,1.3,0,0,1-1.289.992,23.484,23.484,0,0,1-3.16-.427c-3.679-.7-7.161-2.112-10.781-3.031a10.963,10.963,0,0,0-4.02-.163l2.255.686a8.779,8.779,0,0,1-2.786-.154c-1.766-.123-3.515-.467-5.278-.668-1.128-.13-1.288-.225-1.256-1.35a42.609,42.609,0,0,1,1.142-8.526c.6-2.546,1.277-5.073,1.943-7.6.055-.209.089-.675.417-.527A.883.883,0,0,1,668.44,377.687Zm28.231-6.389c-.145,1.632-.726,2.035-2.836,2.51a5.931,5.931,0,0,1-3.369-.365c-1.728-.583-3.56-.765-5.325-1.251a21.532,21.532,0,0,1-6.872-3.547,26.917,26.917,0,0,1-2.123-1.765c-.2-.181-.608-.323-.286-.786.3-.433.583-.2.839-.056a42.479,42.479,0,0,0,9.712,3.741,27.414,27.414,0,0,0,5.305.946,16.72,16.72,0,0,0,4.541,0C696.62,370.649,696.715,370.808,696.671,371.3Zm1.893.681c-.283.761-1.065.624-1.628.871-.177.078-.278-.087-.194-.335.133-.387.15-.815.295-1.2.327-.864-.028-1.095-.841-.988a15.432,15.432,0,0,1-4.168.046,25.317,25.317,0,0,1-6.516-1.2,58.936,58.936,0,0,1-6.238-2.233,27.079,27.079,0,0,0-2.687-1.334c-.476-.154-.743-.1-.98.267-.14.215-.206.445-.5.161-.512-.489-.013-.867.148-1.255.113-.274.151-.7.739-.46,1.356.563,2.744,1.056,4.137,1.521a66.607,66.607,0,0,0,10.453,2.53c2.779.451,5.558.868,8.368,1.057.444.03.5.187.345.564C699.034,370.649,698.81,371.318,698.564,371.979Zm28.4-20.648a3.28,3.28,0,0,1-1.382-.113,5.077,5.077,0,0,0-2.79.393,24.788,24.788,0,0,0-6.949,4.52,73.156,73.156,0,0,0-8.338,10.079,20.548,20.548,0,0,1-3.09,3.648c.669-.986,1.351-1.963,2-2.959a74.974,74.974,0,0,1,5.764-7.957,25.123,25.123,0,0,1,6.381-5.4,49.679,49.679,0,0,1,5.859-2.926C725.7,350.083,726.009,350.156,726.962,351.331Zm-12.495-3.141c.274-.518.464-.863.643-1.215.536-1.056,1.07-1.041,1.8.051.275.067.62-.1.858.328a33.592,33.592,0,0,0-3.673,1.835c.644-.738,1.609-1.035,2.24-1.771Zm2.239.023a3.256,3.256,0,0,1,2.894-.15c1.447.6,3.066.779,4.709,1.466a24.219,24.219,0,0,0-7.8,2.88,38.442,38.442,0,0,1,6.94-1.894,45.869,45.869,0,0,0-7.932,4.647,26.847,26.847,0,0,0-4,4.1c-2.871,3.386-5.068,7.256-7.687,10.823-.791,1.078-2.157,1.279-3.351,1.69a5.667,5.667,0,0,1-1.13.137,26.744,26.744,0,0,0,1.326-2.395c.254-.625.207-.98-.568-.981-7.376-.019-14.4-1.79-21.3-4.22-.83-.292-1.691-.5-2.542-.732-.818-.223-1.123-.009-1.276.827a4.646,4.646,0,0,1-.319,1.011,5.275,5.275,0,0,0-.6-3.02c.981.025,1.855.112,2.7.2,2.2.242,4.419.415,6.608.839,2.585.5,5.091,1.263,7.616,1.977,2.489.7,5.055,1.1,7.5,1.987,1.111.4,1.682-.1,2.525-1.432,1.815-2.863,3.317-5.926,5.406-8.61C709.286,353.693,712.337,350.217,716.707,348.214Zm-3.13-7.6a9.566,9.566,0,0,1-.087,4.837,14.888,14.888,0,0,1-2.942,4.8,63.586,63.586,0,0,1-5.205,4.662c-.386.359-.416.118-.563-.221a16.939,16.939,0,0,1-.739-3.529,8.654,8.654,0,0,0-2.695-4.75,20.585,20.585,0,0,0,5.969-1.513,20.266,20.266,0,0,0,4.411-2.212,2.257,2.257,0,0,0,.8-2.491,5.586,5.586,0,0,1,.125-2.849A9.1,9.1,0,0,1,713.577,340.612ZM695,361.972a24.567,24.567,0,0,1-3.078.76c-1.259.186-2.424-.429-3.638-.65a7.856,7.856,0,0,0-.944-.21c-.39-.02-1,.014-1.033-.29a1.57,1.57,0,0,1,.457-1.294,13.111,13.111,0,0,0,1.7-2.05,6.671,6.671,0,0,0,1.165-3.74,10.537,10.537,0,0,1,.224-1.94,2.048,2.048,0,0,1,2.671-1.523,8.306,8.306,0,0,0,7.382-2.122c.58-.5.951-.456,1.432,0a5.843,5.843,0,0,1,1.292,2.391,19.3,19.3,0,0,0,1.554,4.1c.767,1.147.248,1.714-.359,2.449a34.332,34.332,0,0,0-4.737,7.459c-.125.269-.173.65-.688.395a39.606,39.606,0,0,0-6.164-2.639,11.453,11.453,0,0,0,6.118-2.126C697.237,361.288,696.124,361.654,695,361.972Zm-.484-16.876a7.6,7.6,0,0,0,1.322-3.9c.624.927.991,1.02,2.117.5a46.5,46.5,0,0,0,5.969-3.281,53.056,53.056,0,0,1,6.375-3.491c-.086.571-.586.648-.885.925s-.616.543-.925.814a13.485,13.485,0,0,0,4.633-2.45c-.348.961-.673,1.812-.965,2.674a21.841,21.841,0,0,0-.723,2.45,5.246,5.246,0,0,1-2.186,2.948,20.535,20.535,0,0,1-7.1,3.285,1.35,1.35,0,0,1-.536.029,1.386,1.386,0,0,0-1.568.9,5.389,5.389,0,0,1-3.514,2.876c-.995.359-2.029.608-3.022.973-.552.2-.753.22-.841-.484a12.314,12.314,0,0,0-1.141-4.417,1.781,1.781,0,0,1,.4-2.245,4.427,4.427,0,0,1,3.062-1.88A13.215,13.215,0,0,0,694.512,345.1Zm22.654-33.572q1.332.669,2.661,1.339c.051.026.082.105.133.118,2.383.588,3.285,2.652,4.439,4.458a1.281,1.281,0,0,1-.25,1.893c-.322.264-.745.377-1,.9-.334-1.274-.549-2.376-1.787-2.811-.167-.059-.246-.23-.322-.407-.858-2.017-2.416-3.516-3.817-5.132C717.165,311.817,717.13,311.737,717.166,311.524Zm-.045,3.485c.129-.347.482-.3.78-.286.234.01.383.139.449.451a4.741,4.741,0,0,1-.885.252A.322.322,0,0,1,717.121,315.009Zm-26.064-6.488c-.022.062-.052.121-.071.183.019-.063.049-.121.071-.183.237-.825-.444-2.047,1.112-2.438C691.846,306.994,691.343,307.716,691.057,308.521Zm-1.208,15.821c-.168.4.049.816.1,1.244a8.144,8.144,0,0,1-.564-7.3,15.345,15.345,0,0,1,2.1-4.076.726.726,0,0,0,.117-.595,30.516,30.516,0,0,1,.2-3.306,1.531,1.531,0,0,1,2.107-1.2c.842.353,1.466,1.118,2.414,1.252a4.715,4.715,0,0,0-2.668-2.827c3.874-.706,7.641-.979,11.407.27,2.906.964,5.847,1.824,8.79,2.672a3.584,3.584,0,0,1,2.846,3.233c-.2.139-.374-.38-.48-.055-.2.607.367.609.736.773-.3.362-.818.579-.928,1.07-.118.527.311.851.593,1.235.146.2.386.529-.224.691-.491.13.3.332.047.691a.619.619,0,0,1-.7-.108c-.079-.069-.057-.378-.255-.191-.1.092-.335.334-.144.452.784.484.111.986.05,1.473-.016.127-.219.288-.183.357.439.877.48,1.068.055,1.668-.139.2-.216.288.039.349.173.041.527.308.518.041-.023-.728,1.04-.911.742-1.781-.224-.657.287-.992.875-1.243a10.48,10.48,0,0,0,1.436-.867,1.809,1.809,0,0,1,1.862-.14,1.747,1.747,0,0,1,.878,1.614,10.775,10.775,0,0,1-.481,3.333c-.58,2.1-2.358,2.737-4.122,3.383-.252.093-.436-.029-1.13-.454-.524,1.469-1.036,2.942-1.576,4.4a5.8,5.8,0,0,1-3.6,3.22A59.6,59.6,0,0,0,704.283,337c-.249.141-.478.371-.865.251.38-.666.922-1.188,1.315-1.864a5.272,5.272,0,0,0-.741.479,1.059,1.059,0,0,1-1.2.244c-.49-.228.278-.593-.05-.888a.751.751,0,0,0-.509.428c-.509,1.043-1.692,1.334-2.374,2.173-.244.3-.726-.08-.923.335-.206-.264-.02-.585-.128-.863-.5.4-1.357-.006-1.6-.722a7.749,7.749,0,0,1-.174-2.118c-.02-.313.115-.435.42-.412a.952.952,0,0,0,.906-.286c-1.108-.61-2.3-.408-3.58-.411a2.9,2.9,0,0,0,1.5.687c.219.054.491.066.374.343-.353.832-.627,1.749-1.543,2.144-.053.023-1.079.292-1.026-.584-.283.066-.391.326-.531.481-.812-.879-.356-1.98-.542-2.971a9.685,9.685,0,0,1-.306-2.745,17.556,17.556,0,0,0,0-4.72,2.782,2.782,0,0,1,.285-1.426c.084.035.193.047.246.108.38.443.17.939.115,1.422a9.462,9.462,0,0,0-.132,3.612,4.247,4.247,0,0,0,6.764,2.579,12.419,12.419,0,0,0,4.281-4.893,2.3,2.3,0,0,1,.682-1.074c-.244,3.248-1.724,6.031-2.869,8.927a3.936,3.936,0,0,0,2.093-3.609,7.419,7.419,0,0,1,1.343-3.787c.683-1.1.458-2.358.728-3.527.059-.256-.1-.375-.365-.372a5.406,5.406,0,0,1-2.389-.833,11.9,11.9,0,0,0-2.1-.573,10.75,10.75,0,0,0-2.031-.531c-.287-.019-.675-.2-.8.093-.093.213.13.558.405.723.1.059.237.069.207.236-1.133.451-2.288,1.454-3.292-.243.3-.313,1.064-.142,1.284-.88a2.441,2.441,0,0,1-1.744-.052c-1.132-.485-2.033.208-3.032.282-.819.061-.95.555-.785,1.392.344,1.739,1.072,3.466.264,5.336Zm7.311,4.406a3.784,3.784,0,0,1,1.861-.1,5.254,5.254,0,0,0,4.128-1.729c.532-.476.972-1.056,1.531-1.524a3.306,3.306,0,0,1-1.01,2.09,18.7,18.7,0,0,1-3.339,3.569,3.89,3.89,0,0,1-6.588-2.366,8.089,8.089,0,0,1,.362-4.037,18.9,18.9,0,0,1,.9,2.3c.2.787.752,1.035,1.386,1.3.2.084.937-.346.573.471C696.937,328.794,697.083,328.779,697.16,328.747Zm4.99-1.665c-1.878,1.177-3.876.9-5.88.609a.925.925,0,0,1-.73-.58c-.31-.729-.7-1.424-1.062-2.133l.127-.187a7.094,7.094,0,0,0,3.841.6c.8-.044,1.467.561,2.315.555a14.159,14.159,0,0,0,3.288-.431A14.314,14.314,0,0,1,702.151,327.082Zm-3.318-1.988a9.815,9.815,0,0,1-3.56-.913c-.4-.212-1-.035-1.513-.071-.326-.023-.775-.134-.775-.453,0-.379.456-.258.733-.263a4.234,4.234,0,0,1,1.674.173,5.223,5.223,0,0,0,3.517.234c1.194-.339,2.329.506,3.5.769.38.085.872-.09,1.152.353A9.239,9.239,0,0,1,698.833,325.094Zm-10.269,14.188a11.167,11.167,0,0,0,2.479-1.7c.479-.439.828-.578.931.255a1.124,1.124,0,0,0,.743,1.008,8.857,8.857,0,0,1,2.569,1.649c-1.481.39-3.043.406-4.441,1.085a1.555,1.555,0,0,0-.929,2.233c.393,1.28,1.192,2.37,1.7,3.6a3.292,3.292,0,0,1,.271,1.56,12.562,12.562,0,0,0-8.057-7.653A31.045,31.045,0,0,0,688.564,339.282Zm-4.892,9.637c.026.229-.163.561.257.65.462.1.467-.281.534-.535a13.7,13.7,0,0,1,1.68-4.061c.689-1.063.957-1.1,1.927-.316,1.8,1.444,2.613,3.479,3.475,5.5.1.234.142.42-.228.52-1.65.445-2.147,1.165-2.24,2.947-.1,1.933-.324,3.849-1.8,5.32a5.758,5.758,0,0,0-1.76,2.371c-.1.352-.609.231-.9.167a55.649,55.649,0,0,0-7.682-.876c-.409-.029-.734-.039-.5-.6,1.552-3.626,2.913-7.346,5.23-10.594.458-.642.919-1.283,1.515-2.118a8.305,8.305,0,0,0,.253,5.909,16.459,16.459,0,0,1,.035-6.551A7.753,7.753,0,0,1,683.672,348.918Zm-6.213-6.774a6.309,6.309,0,0,1,1.792-1.283c.3-.135.566-.317.626.206.911-.547,1.807-.044,2.707.047a.242.242,0,0,1,.154.18c-.056,1,.6,1.841.634,2.827a1.1,1.1,0,0,1-.4.824c-.226.258-.6.423-.588.845l.022-.022-.014.021,1.01-.873c.062.608.278,1.147-.25,1.648a25.155,25.155,0,0,0-6.348,10.724c-.341,1.036-.753,2.05-1.151,3.066-.219.56-.155.812.529.99a16.372,16.372,0,0,0,3.1.279,55.97,55.97,0,0,1,15.7,3.346c1.074.4,2.154.781,3.226,1.189a.786.786,0,0,0,1.108-.375c1.134-2,2.457-3.881,3.768-5.772a55.681,55.681,0,0,1,7.15-8c.051-.05.15-.052.365-.119-1.041,1.207-1.959,2.343-2.955,3.408a38.507,38.507,0,0,0-5.015,7.307c-.794,1.378-1.622,2.735-2.542,4.035-.434.613-1.022.52-1.612.362-4.206-1.13-8.4-2.294-12.617-3.393a50.632,50.632,0,0,0-7.608-1.26,19.463,19.463,0,0,1-3.554-.284c-.462-.135-.607-.175-.47-.748a38.175,38.175,0,0,1,2.939-7.831c.076-.158.126-.328.188-.492a7.085,7.085,0,0,0-1.434,2.593,25.052,25.052,0,0,0-2.054,5.99c-.03.206-.172.546-.525.231-.2-.179-.5-.3-.607-.518-.842-1.735-2.525-2.719-3.7-4.156a1.22,1.22,0,0,1-.182-1.608,57.972,57.972,0,0,1,4.131-7.1c.11-.145.247-.265.186-.471a12.486,12.486,0,0,0-2.26,3.13,43.2,43.2,0,0,0-2.457,4.694c-.046.112-.037.479-.338.337-.273-.13-.08-.336-.017-.53a20.185,20.185,0,0,1,2.389-4.409A47.384,47.384,0,0,1,677.46,342.144Zm-14.95,3.146a23.336,23.336,0,0,1,9.848-4.155,7.155,7.155,0,0,1,4.479.5,41.488,41.488,0,0,0-9.263,13.706,8.7,8.7,0,0,1-1.732-3.373,9.428,9.428,0,0,0-3.406-5.274C661.807,346.177,661.676,345.878,662.51,345.29Zm-2.793-1.461c.7,1.043.955,2.351,1.726,3.381a6.458,6.458,0,0,0,.726.9c1.6,1.486,2.019,3.575,2.807,5.47a20.026,20.026,0,0,0,2.789,4.391,15.156,15.156,0,0,0,2.31,2.348c1.281,1.081.858,2.606.637,3.933-.451,2.705-1.88,4.464-4.681,6.522,1.186-.043,3.744-2.256,4.53-3.638,1.083-1.9.863-3.88.646-5.889,1.325,2,.524,3.972-.24,6.152a6.111,6.111,0,0,0,2.02-5.094,2.437,2.437,0,0,1,.43,2.49,11.359,11.359,0,0,1-2.745,4.689,13.093,13.093,0,0,1-3.129,3.024,4.975,4.975,0,0,1-3.239.71c-.678-.087-1-.677-1.227-1.279a.306.306,0,0,1,.054-.25c.1-.12.227-.061.3.027,1.237,1.411,2.516.626,3.781.068a4.2,4.2,0,0,0,1.337-.882,18.557,18.557,0,0,1-1.815.679c-.973.258-2.015,1.038-2.854-.326.107-.333.722-.2.9-.7a6.372,6.372,0,0,1-2.231-.471c-.217-.075-.616-.147-.52-.5.078-.283.415-.1.634-.144.133-.026.271-.022.531-.04-3.743-1.55-6.854-3.591-8.1-7.685.674-.056,1.3.451,1.849-.109-.2-.418-1.789-.107-.52-1.347-1.518.422-2.861-.292-4.248.046.106.52.625.568.986.738a1.416,1.416,0,0,1,.943,1.218c.118.743-.3.561-.54.437a6.764,6.764,0,0,1-3.3-3.59c-.252-.65.108-1.2.849-1.419a12.7,12.7,0,0,0,4.813-2.472,4.228,4.228,0,0,0-1.414.377l.616-.784c-1.13,1.059-2.591,1.206-3.982,1.557-.572.144-.788.051-.745-.55a1.8,1.8,0,0,0-.113-.515,1.476,1.476,0,0,1,1.1-1.955c1.588-.506,3.178-1.006,4.883-1.544a10.449,10.449,0,0,0-4.187.338c-.645.185-.709-.121-.77-.549-.211-1.483.285-2.377,1.741-2.487,1.726-.13,3.375-.607,5.076-.823.378-.048.745.152,1.145-.035-.687-.413-1.422-.154-2.086-.3-.738-.163-.99-.971-1.533-1.512.369.833-.03,1.31-.679,1.684-.82.472-1.624-.128-2.446-.078-.119.008-.295-.766-.2-1.255a2.815,2.815,0,0,1,1.24-1.694,14.311,14.311,0,0,0,2.089-1.964C657.338,341.253,658.468,341.967,659.716,343.829Zm-2.62-5.856a10.352,10.352,0,0,0-.289,2.285,1.676,1.676,0,0,1-.944,1.307,21.071,21.071,0,0,0-3.926,3.908c-.145.17-.166.518-.464.446s-.126-.411-.2-.623a26.025,26.025,0,0,0-3.833-7.265c-.252.376.119.653.135.978a4.188,4.188,0,0,0,.288.916,31.7,31.7,0,0,0,2.993,7.349,1.589,1.589,0,0,1-.026,1.663c-.4.595-.179,1.282-.224,1.928a8.279,8.279,0,0,1-.032.9.651.651,0,0,1-.475.487c-.253.07-.234-.222-.33-.347a65.334,65.334,0,0,0-6.933-7.822c-.513-.485-1.064-.931-1.6-1.395a10.716,10.716,0,0,0,2.47,3.858c1.58,1.654,3.226,3.244,4.844,4.861.064.064.117.151.194.188,1.125.548,1.124,1.367.659,2.383-.295.645.1,1.331.109,2.183-1.788-2.252-3.534-4.327-5.313-6.4a34.217,34.217,0,0,0,3.693,2.911,26.642,26.642,0,0,0-1.679-2.116,50.815,50.815,0,0,0-6.59-6.066,3.708,3.708,0,0,1-1.865-3.408,6.416,6.416,0,0,0-.044-1.705c-.077-.39.173-.5.344-.643q1.885-1.637,3.805-3.233c1.617-1.346,3.251-2.672,4.871-4.012,1.785-1.476,3.573-2.947,5.336-4.446.36-.307.53-.206.612.158a5.325,5.325,0,0,0,.616,1.264c.571,1.093-.206,1.772-.794,2.5a13.956,13.956,0,0,0-.9,1.1,2.138,2.138,0,0,0,.763,3.2,6.025,6.025,0,0,0,3.272.966c.859-.011,1.4-.6,2.222-.907C657.6,336.264,657.4,337.138,657.1,337.973Zm2.089-14.259a2.976,2.976,0,0,1,1.875,3.468,12.925,12.925,0,0,1-4.07,7.975,1.018,1.018,0,0,1-.221.133c-.02.01-.055-.009-.139-.026a4.371,4.371,0,0,1,.752-1.233,27.842,27.842,0,0,0,2.313-4.263.927.927,0,0,0,.059-.859c-.243-.395-.576-.646-.012-1.107.307-.25-.491-1.117-1.169-1.139a20.452,20.452,0,0,0-3.594.16c.971,0,1.943.016,2.913-.007a1.554,1.554,0,0,1,1.207.46c.063.064.191.167.179.188-.545.924.738,1.747.038,2.785a48.206,48.206,0,0,1-3.08,4.856,1.25,1.25,0,0,1-1.2.558,4.31,4.31,0,0,1-2.933-1.482,1.6,1.6,0,0,1,.095-1.979,11.3,11.3,0,0,1,1.16-1.351,2.6,2.6,0,0,0,.847-2.224c.589.786,1.059,1.523,1.987,1.621a3.759,3.759,0,0,0,2.4-.66c-1.3.3-2.584.6-3.808-.717,1.136.274,2.1.563,3.185-.257-2.138.549-4.611-.872-4.878-2.648a3.832,3.832,0,0,1,.536-2.943c.523-.7,1.37-.394,2.021-.314A11.02,11.02,0,0,1,659.185,323.714Zm14.644-23.1c.118-.416.431-.354.718-.325a.684.684,0,0,1,.611.569.589.589,0,0,1-.376.711c-1.639.879-3.3,1.729-4.874,2.713a4.937,4.937,0,0,0-2.135,5.53,1.36,1.36,0,0,0,1.922.964c2.117-.566,3.685-2.057,5.464-3.19a3.51,3.51,0,0,1,1.31-.624,2.667,2.667,0,0,1-1.327,1.37,37.058,37.058,0,0,1-5.764,3.248,1.01,1.01,0,0,1-1.458-.508,5.583,5.583,0,0,1,1.637-7.555c1.256-.824,2.626-1.464,3.807-2.407C673.552,300.961,673.765,300.837,673.829,300.613Zm-3.461-2.3c1.133.185,1.9,1.132,2.819,1.744.494.329-.105.6-.363.751-1.3.76-2.572,1.567-3.8,2.446-2.435,1.745-2.546,3.081-2.233,5.894a3.641,3.641,0,0,0,1.236,2.479,1.2,1.2,0,0,0,1.295.251c2.264-.752,4.107-2.312,6.362-3.151-.4,4.125-2.3,7.686-6.687,8.468a4.616,4.616,0,0,1-4.424-2.007,9.249,9.249,0,0,1-2.178-5.7c0-3.573.61-7.046,3.4-9.686A5.212,5.212,0,0,1,670.368,298.318Zm-10.181,10.875c.472-1.868.225-3.9,1.252-5.638,1.047-1.771,1.931-3.679,3.878-4.725a6.959,6.959,0,0,1,1.752-.673,10.863,10.863,0,0,0-4.923,7.671,15.215,15.215,0,0,0-.159,2.4,1.626,1.626,0,0,1-1.646,1.238A.213.213,0,0,1,660.186,309.193Zm-6.495,5.972q3.393-2.572,6.807-5.116a5.005,5.005,0,0,1,1.13-.4c-.539.553-1.008.81-1.262,1.264.616-.072.952-.635,1.461-.894.41.669.244,1.416.5,2.068.111.275-.068.517-.3.693l-8.515,6.491c.106-.869.471-1.606.16-2.4-.157-.4.109-.735.332-1.05-.232-.167-.488.426-.677,0C653.2,315.521,653.486,315.321,653.692,315.165Zm6.137-.179a10.385,10.385,0,0,1,1.507-.922c.172-.087.411-.463.668-.058.2.318.245.609-.078.874-.711.586-1.4,1.21-2.138,1.754-3.1,2.273-6.138,4.627-9.161,7a3.719,3.719,0,0,1-.454.266c-.506-.916-.254-1.437.57-2.067Q655.265,318.381,659.829,314.986Zm-10.464,5.694h2.27a9.632,9.632,0,0,1-.721.668C649.734,322.218,649.731,322.214,649.365,320.679Zm-4.772-2.576c-.531-.09-.965.382-1.551.172,1.076-1.2,1.577-2.726,2.7-3.87a4.026,4.026,0,0,1,5.529-.017,4.575,4.575,0,0,1,1.65,3.042,1.838,1.838,0,0,1-.778,1.947,2.6,2.6,0,0,1-2.829.271,2.245,2.245,0,0,1-.864-2.46.664.664,0,0,1,.018-.088c.412-1.807.173-2.094-1.685-1.8-.4.064-.982-.057-1.275.6a5.793,5.793,0,0,1,1.955-.457c.968-.017,1.083.159.885,1.1a4.133,4.133,0,0,0-.1,2.5c-.728-.893-1.513-.152-2.2-.484a4.331,4.331,0,0,1,2.984,4.264c.077,1.133.1,2.264.123,3.4a2.987,2.987,0,0,1-2.473,3.019,15.394,15.394,0,0,0-1.138-5.319,5.4,5.4,0,0,0-4.749-3.054c-.209-.023-.42-.014-.63-.025-.017,0-.032-.034-.064-.069A14.071,14.071,0,0,1,644.593,318.1Zm-4.843,3.11a5.2,5.2,0,0,1,3.684,1.267c1.466,1.265,1.875,3.065,2.31,4.855a2.887,2.887,0,0,1-.668,2.949,3.09,3.09,0,0,1-1.5.707,4.035,4.035,0,0,0-.807-4.832c-.778-.753-1.683-1.374-2.533-2.052-.7-.556-1.4-1.107-2.149-1.7C638.708,322.022,638.91,321.242,639.751,321.213Zm-3.4,2.367a1.357,1.357,0,0,1,2.149-.1c1.179,1,2.341,2.013,3.529,3a3.1,3.1,0,0,1-1.194,5.731c-.356.115-.479-.177-.549-.524-.173-.868.246-1.674.2-2.529a4.183,4.183,0,0,0-2.174-2.683,1.289,1.289,0,0,0-.978.336c-.775.525-1.557,1.041-2.429,1.623A6.532,6.532,0,0,1,636.353,323.58Zm3.606,6.84a18.493,18.493,0,0,1-.924-2.551C640.118,328.367,640.362,329.174,639.959,330.42ZM618.7,355.959a2.242,2.242,0,0,1,2.291.159C620.113,356.472,619.414,356.058,618.7,355.959Zm7.048-1.2a5.247,5.247,0,0,1-4.443.57c-1.487-.461-1.692-1.249-.574-2.343,1.2-1.173,2.437-2.307,3.643-3.473a9.318,9.318,0,0,0,2.68-3.816,4.972,4.972,0,0,0-.175-3.824,2.538,2.538,0,0,0-3.163-1.438,17.426,17.426,0,0,0-6.009,3.306c-.806.592-1.569,1.243-2.466,1.959a14.788,14.788,0,0,1,2.9-10.3,7.191,7.191,0,0,1,5.388-3.112,5.63,5.63,0,0,1,5.21,2.82,17.9,17.9,0,0,1,2.2,6.4,14.59,14.59,0,0,1,.3,2.463C631.291,348.489,629.7,352.275,625.745,354.757Zm7.4-12.385c-.376.316-.784.592-1.324,1a14.142,14.142,0,0,0-.536-4.391c-.032-.113.093-.27.144-.406a1.463,1.463,0,0,1-.543-1.627c-.822-.429-1.467-1.935-1.083-2.527-.089.01-.2-.011-.262.035-.187.136-.42.238-.558.044-.163-.228.115-.375.26-.491q1.763-1.417,3.547-2.808c1.5-1.16,3.01-2.3,4.51-3.456.227-.175.44-.569.735-.31.38.334-.173.534-.251.815.458-.148.841-.156.9.469a.586.586,0,0,0,.078.249c.512.819.665,1.559-.405,2.073-.093.044-.14.184-.209.279a.648.648,0,0,0,.179,0c.387-.1.668-.843,1.075-.414a1.093,1.093,0,0,1-.169,1.674c.3.017.527-.107.9.138.879.585,1.779.078,2.535-.438.522-.356,1.133-.518,1.625-.822,1.515-.939,3.23-1.569,4.557-2.8a3.668,3.668,0,0,0,1.18-2.778,2.2,2.2,0,0,1,1.092-2.224,24.942,24.942,0,0,0,2.307-1.713.432.432,0,0,0,.008-.044l.057-.006q2.6-2.045,5.194-4.088c1.237-.966,2.494-1.9,3.723-2.881.432-.344.693-.449,1.093.1.72.995.738,1.122-.18,1.887-1.942,1.619-3.9,3.22-5.775,4.916-.569.515-1.044.157-1.479.08a7.992,7.992,0,0,0-2.576-.019l-.034.026-.031.024c-.065.529-.637.687-.849,1.142a5.17,5.17,0,0,0-.329,2.537,1.224,1.224,0,0,1-.513,1.071q-4.117,3.478-8.231,6.961Q638.328,338.019,633.146,342.372Zm3.644,38.342a14.648,14.648,0,0,1,1.1,3.09A5.6,5.6,0,0,1,636.79,380.714Zm-1.677-7.164a12.966,12.966,0,0,1-.745-3.544,8.235,8.235,0,0,1-.231-2.621,39.624,39.624,0,0,1,1.192-8.379c.738-3.455,1.633-6.877,2.414-10.322a19.282,19.282,0,0,0,.374-2.907c.048-.7.348-.65.795-.383a10.641,10.641,0,0,1,2.921,2.927c1.162,1.547,2.5,2.945,3.739,4.421,1.076,1.278,2.224,2.5,3.362,3.721a.8.8,0,0,1,.191.909c-.809,1.4.011,2.391.815,3.341a5.618,5.618,0,0,1,1.426,3.524,45.989,45.989,0,0,0,.707,5.36,7.41,7.41,0,0,1-1.29,5.957,16.858,16.858,0,0,1-3.642,4.1c-2.14,1.466-4.332,2.855-6.527,4.238-.686.432-1.136.235-1.4-.472C637.976,380.075,636.564,376.8,635.114,373.551Zm16.247,14.917a12.159,12.159,0,0,0,5.3-7.331A6.69,6.69,0,0,1,651.361,388.468Zm4.849-9.067a17.624,17.624,0,0,1-3.533,6.091,9.265,9.265,0,0,1-5.07,2.729c-.38.075-.687-.151-1.121-.254a18.89,18.89,0,0,0,8.114-6.417c-.925.763-1.857,1.517-2.771,2.291a16.324,16.324,0,0,1-6.377,3.7,3.081,3.081,0,0,1-1.988-.066,16.608,16.608,0,0,1-4.03-1.772c-.142-.1-.323-.148-.388-.423,1.882.319,3.169-.821,4.474-1.833a40.839,40.839,0,0,0,4.507-3.76c1.89-1.961,4.182-3.654,4.945-6.5a10.452,10.452,0,0,0,.054-4.478c-.248-1.506-.552-3-.863-4.679a2.226,2.226,0,0,1,.677,1.223c.552,2.2,1.582,4.241,1.967,6.51a9.81,9.81,0,0,1-.848,5.6c-.5,1.182-1.035,2.349-1.5,3.543,2.682-3.2,4.133-6.727,2.866-10.981C656.432,373.027,657.423,376.119,656.209,379.4Zm1.27-1.374c-.114-3.676.376-7.335-1.058-11.042a11.31,11.31,0,0,0,2.534,1.746c.3.118.265.32.194.64a66.9,66.9,0,0,0-1.313,8.017A.934.934,0,0,1,657.48,378.026Z" transform="translate(-613.471 -273.893)"/>
  <path id="Path_3453" data-name="Path 3453" d="M739.177,426.641l.145-.083c-.022-.186-.046-.371-.076-.558C739.228,426.218,739.2,426.43,739.177,426.641Z" transform="translate(-644.444 -309.002)"/>
  <path id="Path_3459" data-name="Path 3459" d="M759.886,396.025a120.086,120.086,0,0,1-9.715,17.5c.71-.581,1.4-1.181,2.087-1.792a63.531,63.531,0,0,0,4.719-8.231A46.656,46.656,0,0,0,759.886,396.025Z" transform="translate(-647.154 -301.614)"/>
  <path id="Path_3444" data-name="Path 3444" d="M737.9,412.428c.671,4.092-.084,8-1.074,11.873.215-.116.426-.238.639-.356A16.106,16.106,0,0,0,737.9,412.428Z" transform="translate(-643.865 -305.657)"/>
  <path id="Path_3430" data-name="Path 3430" d="M729.437,405.637c2.45,2.578,5.278,5.071,6.035,9.1C736.207,411.04,731.523,406.4,729.437,405.637Z" transform="translate(-642.043 -303.983)"/>
  <path id="Path_3427" data-name="Path 3427" d="M676.545,431.406v-9.58A25.775,25.775,0,0,0,676.545,431.406Z" transform="translate(-628.894 -307.973)"/>
  <path id="Path_3466" data-name="Path 3466" d="M678.694,434.621c.156.035.31.075.466.108a30.88,30.88,0,0,1-.756-4.684A13.846,13.846,0,0,0,678.694,434.621Z" transform="translate(-629.449 -309.999)"/>
  <path id="Path_3431" data-name="Path 3431" d="M738.048,289.3c-3.007.48-4.916,2.539-6.745,4.736-1.013,1.217-1.973,2.544-3.653,3.049a2.1,2.1,0,0,0,1.475-.194,10.936,10.936,0,0,0,3.5-3.021,11.268,11.268,0,0,1,3.493-2.82c2.035-1.064,4.34-1.019,6.557-1.441A10.592,10.592,0,0,0,738.048,289.3Z" transform="translate(-641.602 -275.276)"/>
  <path id="Path_3464" data-name="Path 3464" d="M757.926,307.9c.79-4.966-2.866-11.859-5.522-13.473a19.552,19.552,0,0,1,3.519,6.363A60.355,60.355,0,0,1,757.926,307.9Z" transform="translate(-647.704 -276.571)"/>
  <path id="Path_3465" data-name="Path 3465" d="M753.756,312.026c-.516-.078-.621.4-.76.809a1.391,1.391,0,0,0-.108.6c.044.4-.217.992.465,1.063.661.069.793-.5.952-.977a1.557,1.557,0,0,0,.007-.457C754.383,312.586,754.289,312.107,753.756,312.026Z" transform="translate(-647.82 -280.906)"/>
  <path id="Path_3468" data-name="Path 3468" d="M756.794,314.392c-.4-.036-1.109.824-.96,1.319.117.387.006,1.157.632,1.08.836-.1.683-.979.836-1.612C757.146,314.943,757.317,314.44,756.794,314.392Z" transform="translate(-648.545 -281.491)"/>
  <path id="Path_3409" data-name="Path 3409" d="M705.34,419.194c.594,1.524,3.927,1.856,5.164.741A28.222,28.222,0,0,0,705.34,419.194Z" transform="translate(-636.103 -307.325)"/>
  <path id="Path_3469" data-name="Path 3469" d="M719.342,431.369c3.549,1.581,5.623,1.32,6.51-.751C723.723,432.431,721.491,431.42,719.342,431.369Z" transform="translate(-639.555 -310.141)"/>
  <path id="Path_3445" data-name="Path 3445" d="M726.275,424.032a10.826,10.826,0,0,0-3.281,2.117A4.979,4.979,0,0,0,726.275,424.032Z" transform="translate(-640.455 -308.517)"/>
  <path id="Path_3428" data-name="Path 3428" d="M709.672,422.276a5.733,5.733,0,0,0,3.259-.491C711.96,422.175,710.867,421.681,709.672,422.276Z" transform="translate(-637.171 -307.963)"/>
  <path id="Path_3447" data-name="Path 3447" d="M721.16,424.227a5.678,5.678,0,0,0-2.042,1.2A2.767,2.767,0,0,0,721.16,424.227Z" transform="translate(-639.499 -308.565)"/>
  <path id="Path_3475" data-name="Path 3475" d="M766.128,393.475c-.9,2.889-1.642,5.81-2.315,8.76.28-.368.552-.74.824-1.114C765.557,398.3,766.28,394.748,766.128,393.475Z" transform="translate(-650.516 -300.985)"/>
  <path id="Path_3454" data-name="Path 3454" d="M742.98,391.765c2.745-1.495,5.606-2.78,8.362-4.278A17.009,17.009,0,0,0,742.98,391.765Z" transform="translate(-645.381 -299.509)"/>
  <path id="Path_3462" data-name="Path 3462" d="M750.707,389.48c2.037-.625,4.079-1.2,6.143-1.686A10.118,10.118,0,0,0,750.707,389.48Z" transform="translate(-647.286 -299.582)"/>
  <path id="Path_3470" data-name="Path 3470" d="M755.975,389.359l3.445-.891A5.519,5.519,0,0,0,755.975,389.359Z" transform="translate(-648.584 -299.746)"/>
  <path id="Path_3467" data-name="Path 3467" d="M754.893,399.993a24.533,24.533,0,0,0,2-2.383A7.1,7.1,0,0,0,754.893,399.993Z" transform="translate(-648.318 -302.004)"/>
  <path id="Path_3472" data-name="Path 3472" d="M757.5,390.169l3.328-.454A5.4,5.4,0,0,0,757.5,390.169Z" transform="translate(-648.961 -300.036)"/>
  <path id="Path_3419" data-name="Path 3419" d="M718.686,322.143a6.194,6.194,0,0,0,.677-.213,1.617,1.617,0,0,1,1.832.439c-.392.245-.878.341-1.04.818-.148.439.168.815.286,1.269a2.561,2.561,0,0,1-1.735-1.134c.241,1.1,1,1.515,2.209,1.525.909.008,1.228-.58,1.612-1.116.347-.484.12-1.017-.179-1.491a2.385,2.385,0,0,0-2.571-1.055,3.422,3.422,0,0,1-.721-.029c1.162-.888,1.41-.888,2.994.035-1.108-1.415-2.142-1.444-3.147-.258-.193.228-.555.383-.367.8.024.053-.449-.139-.233.234A.333.333,0,0,0,718.686,322.143Z" transform="translate(-639.285 -282.894)"/>
  <path id="Path_3441" data-name="Path 3441" d="M738.891,324.381c-.6.3-1.013.371-1.221-.223h0v0c-2.134-1.093-3.924-.1-4.354,1.156.567-.468,1.029-1.14,2-.738a1.368,1.368,0,0,0-.271,1.566c-.5.3-1.13-.175-1.61.447a13.122,13.122,0,0,1,1.544.161,3.491,3.491,0,0,0,2.338-.309c.057-.035.377.1.176-.179-.3-.419.084-.831-.1-1.325.638.2,1.151.71,1.743.193C739.083,324.855,738.061,325.186,738.891,324.381Z" transform="translate(-642.999 -283.783)"/>
  <path id="Path_3437" data-name="Path 3437" d="M739.676,320.015c.072.066.2.07.412.139-.248-.457-.424-.793-.611-1.123a2.622,2.622,0,0,0-2.54-1.487c-1.766.168-3.121,1.251-4.552,2.49a21.535,21.535,0,0,0,2.414-.464C736.5,319.028,738.159,318.633,739.676,320.015Z" transform="translate(-642.77 -282.266)"/>
  <path id="Path_3463" data-name="Path 3463" d="M752.5,333.33c.329-.247.747-.509.605-1-.18-.631.228-.892.695-1.276.178.77.553,1.4.251,2.209-.271.723-.85,1.283-1.093,2.09a3.732,3.732,0,0,0,2.038-1.779c.479-.942-.219-1.689-.694-2.606l1.019.408c-.759-1.619-1.558-1.8-2.548-.653-.345.4-.583.891-.935,1.282-.42.469-.02.813.121,1.181A.358.358,0,0,0,752.5,333.33Z" transform="translate(-647.518 -285.335)"/>
  <path id="Path_3420" data-name="Path 3420" d="M721.429,329.222a2.469,2.469,0,0,0-.478,1.384c.05.463-.311.344-.5.387-.3.069-.385-.172-.43-.433-.076-.451.215-.782.4-1.288-.965.429-1.221.786-1.111,1.455.081.491.946,1.164,1.3,1.009.375-.167.453-.157.662.083a2.106,2.106,0,0,0,2.523.886A4.679,4.679,0,0,1,721.429,329.222Z" transform="translate(-639.542 -285.147)"/>
  <path id="Path_3438" data-name="Path 3438" d="M733.969,331.1a2.189,2.189,0,0,0-.684,2.386c.2.987,1.1,1.5,2.8,1.7C734.964,334.061,733.667,333.083,733.969,331.1Z" transform="translate(-642.968 -285.611)"/>
  <path id="Path_3425" data-name="Path 3425" d="M723.572,325.937l-1.043,1.161c2.612-.858,3.484-3.134,2.411-4.452.2,2.022-1.341,2.725-2.589,3.678Z" transform="translate(-640.296 -283.526)"/>
  <path id="Path_3442" data-name="Path 3442" d="M737.751,323.256a2.661,2.661,0,0,0-3.936-.64c.576.38.644.4.882.3a2.466,2.466,0,0,1,3.1.824A.471.471,0,0,0,737.751,323.256Z" transform="translate(-643.122 -283.373)"/>
  <path id="Path_3449" data-name="Path 3449" d="M739.1,324.306v0l0,0Z" transform="translate(-644.423 -283.935)"/>
  <path id="Path_3450" data-name="Path 3450" d="M739.1,324.311l0,0v0Z" transform="translate(-644.423 -283.936)"/>
  <path id="Path_3413" data-name="Path 3413" d="M718.064,332.284a21.008,21.008,0,0,0-2.784,1.753C716.932,334.271,717.769,333.749,718.064,332.284Z" transform="translate(-638.553 -285.902)"/>
  <path id="Path_3455" data-name="Path 3455" d="M747.042,333.429a27.037,27.037,0,0,0-2.9,2.887A4.584,4.584,0,0,0,747.042,333.429Z" transform="translate(-645.669 -286.184)"/>
  <path id="Path_3435" data-name="Path 3435" d="M730.925,333.174c1.016-.92.965-1.455-.136-2.163A4.253,4.253,0,0,1,730.925,333.174Z" transform="translate(-642.376 -285.588)"/>
  <path id="Path_3429" data-name="Path 3429" d="M729.1,332.784c-.656-.949-1.32-.857-1.944.217C727.824,333.047,728.4,332.381,729.1,332.784Z" transform="translate(-641.481 -285.864)"/>
  <path id="Path_3436" data-name="Path 3436" d="M731.312,327.384c-.478-.551.124-1.095-.032-1.662C730.392,326.457,730.39,326.693,731.312,327.384Z" transform="translate(-642.334 -284.284)"/>
  <path id="Path_3380" data-name="Path 3380" d="M648.681,403.517a2.766,2.766,0,0,0,3.36-.429A5.647,5.647,0,0,0,648.681,403.517Z" transform="translate(-622.137 -303.34)"/>
  <path id="Path_3390" data-name="Path 3390" d="M656.5,408.031a7.349,7.349,0,0,0-2.966,1.624A2.723,2.723,0,0,0,656.5,408.031Z" transform="translate(-623.334 -304.573)"/>
  <path id="Path_3391" data-name="Path 3391" d="M654.025,406.327a7.363,7.363,0,0,0-2.829.926A3.048,3.048,0,0,0,654.025,406.327Z" transform="translate(-622.757 -304.153)"/>
  <path id="Path_3377" data-name="Path 3377" d="M650.6,402.049a13.511,13.511,0,0,0-2.742-.366A3.29,3.29,0,0,0,650.6,402.049Z" transform="translate(-621.935 -303.008)"/>
  <path id="Path_3384" data-name="Path 3384" d="M652.754,405.068c-.747.2-1.567-.011-2.33.4A2,2,0,0,0,652.754,405.068Z" transform="translate(-622.567 -303.843)"/>
  <path id="Path_3372" data-name="Path 3372" d="M650.3,400.123c-.865-.338-1.808-.287-2.687-.576A4.55,4.55,0,0,0,650.3,400.123Z" transform="translate(-621.873 -302.482)"/>
  <path id="Path_3392" data-name="Path 3392" d="M654.2,407.867a3.329,3.329,0,0,0-1.782.851A1.793,1.793,0,0,0,654.2,407.867Z" transform="translate(-623.059 -304.533)"/>
  <path id="Path_3374" data-name="Path 3374" d="M683.95,386.028c-1.31-2-2.538-4.06-3.87-6.094A11.49,11.49,0,0,0,683.95,386.028Z" transform="translate(-629.877 -297.647)"/>
  <path id="Path_3373" data-name="Path 3373" d="M678.52,381.793a17.5,17.5,0,0,0,3.635,5.768Z" transform="translate(-629.492 -298.105)"/>
  <path id="Path_3378" data-name="Path 3378" d="M685.29,383.554l-2.937-3.967A8.2,8.2,0,0,0,685.29,383.554Z" transform="translate(-630.437 -297.562)"/>
  <path id="Path_3357" data-name="Path 3357" d="M658.968,364.113a11.92,11.92,0,0,0,2.044,4.126A11.418,11.418,0,0,0,658.968,364.113Z" transform="translate(-624.673 -293.747)"/>
  <path id="Path_3439" data-name="Path 3439" d="M737.945,386.6a20.328,20.328,0,0,0-5.129,8.607C734.427,392.266,736.224,389.453,737.945,386.6Z" transform="translate(-642.876 -299.289)"/>
  <path id="Path_3458" data-name="Path 3458" d="M745.777,373.767c2.724-.963,5.493-1.789,8.226-2.75A15.023,15.023,0,0,0,745.777,373.767Z" transform="translate(-646.071 -295.449)"/>
  <path id="Path_3343" data-name="Path 3343" d="M616.309,360.983a53.356,53.356,0,0,1,5.855-9.323A20.861,20.861,0,0,0,616.309,360.983Z" transform="translate(-614.158 -290.678)"/>
  <path id="Path_3358" data-name="Path 3358" d="M633.468,369.268a11.355,11.355,0,0,0,.622-4.309Z" transform="translate(-618.387 -293.956)"/>
  <path id="Path_3411" data-name="Path 3411" d="M712.829,385.6c3.679-.974,7.258-2.19,10.222-4.723C719.708,382.581,716.212,383.954,712.829,385.6Z" transform="translate(-637.949 -297.879)"/>
  <path id="Path_3421" data-name="Path 3421" d="M717.3,376.753c.442.06.668-.29.848-.566.321-.49-.267-.735-.45-1.132,1.209-.389,2.475-.433,3.75-.946-.705-.152-1.226.164-1.8.149a4.706,4.706,0,0,0-2.742.807c-.473.309-.634.463-.317,1.01C716.78,376.4,716.893,376.7,717.3,376.753Zm-.111-1.27a.461.461,0,0,1,.507.4.644.644,0,0,1-.54.484c-.218.022-.358-.177-.353-.41C716.8,375.708,716.9,375.5,717.185,375.483Z" transform="translate(-638.836 -296.201)"/>
  <path id="Path_3426" data-name="Path 3426" d="M722.719,384.761l4.343-1.836A7.054,7.054,0,0,0,722.719,384.761Z" transform="translate(-640.387 -298.383)"/>
  <path id="Path_3424" data-name="Path 3424" d="M724.37,374.5l-3.563.634A5.47,5.47,0,0,0,724.37,374.5Z" transform="translate(-639.916 -296.308)"/>
  <path id="Path_3406" data-name="Path 3406" d="M704.885,373.81a6.748,6.748,0,0,0,.59,3.579Z" transform="translate(-635.977 -296.138)"/>
  <path id="Path_3407" data-name="Path 3407" d="M705.9,381.053l-1.348-2.913A4.659,4.659,0,0,0,705.9,381.053Z" transform="translate(-635.908 -297.205)"/>
  <path id="Path_3432" data-name="Path 3432" d="M729.415,363.466a10.673,10.673,0,0,0,3.962-2.389Z" transform="translate(-642.037 -292.999)"/>
  <path id="Path_3446" data-name="Path 3446" d="M739.2,354.455l-.127-.133-2.541,2.559.118.148Z" transform="translate(-643.793 -291.334)"/>
  <path id="Path_3375" data-name="Path 3375" d="M683.1,307.1a15.75,15.75,0,0,0-2.444,5.708Z" transform="translate(-630.019 -279.695)"/>
  <path id="Path_3376" data-name="Path 3376" d="M682.675,310.964a14.363,14.363,0,0,0-1.875,4.389A18.735,18.735,0,0,0,682.675,310.964Z" transform="translate(-630.054 -280.647)"/>
  <path id="Path_3393" data-name="Path 3393" d="M691.39,375.531l3.159-8.517C693.311,368.407,691.115,374.307,691.39,375.531Z" transform="translate(-632.659 -294.463)"/>
  <path id="Path_3400" data-name="Path 3400" d="M696.4,369.752a16.989,16.989,0,0,0,3.284-4.747A9.7,9.7,0,0,0,696.4,369.752Z" transform="translate(-633.9 -293.967)"/>
  <path id="Path_3394" data-name="Path 3394" d="M694.485,371.393a28.016,28.016,0,0,0,2.556-4.887A12.059,12.059,0,0,0,694.485,371.393Z" transform="translate(-633.427 -294.337)"/>
  <path id="Path_3395" data-name="Path 3395" d="M699.17,360.878a14.679,14.679,0,0,0-3.581,3.579A36.409,36.409,0,0,0,699.17,360.878Z" transform="translate(-633.7 -292.95)"/>
  <path id="Path_3401" data-name="Path 3401" d="M700.736,370.459a12.886,12.886,0,0,0-2.536,3.979,35.852,35.852,0,0,0,2.55-3.99l-.02.023Z" transform="translate(-634.343 -295.309)"/>
  <path id="Path_3402" data-name="Path 3402" d="M701.566,369.4c.008-.008.014-.017.021-.025l-.008.014a20.676,20.676,0,0,0,2.518-3.241l-.01.008v-.008A11.246,11.246,0,0,0,701.566,369.4Z" transform="translate(-635.173 -294.249)"/>
  <path id="Path_3408" data-name="Path 3408" d="M704.923,366.14l.014-.021-.022.022v.008Z" transform="translate(-635.998 -294.242)"/>
  <path id="Path_3403" data-name="Path 3403" d="M701.564,370.455l-.007.011.02-.023.008-.014C701.577,370.438,701.571,370.447,701.564,370.455Z" transform="translate(-635.171 -295.305)"/>
  <path id="Path_3379" data-name="Path 3379" d="M683.454,368.008a20.967,20.967,0,0,1,3.518-5.34A9.121,9.121,0,0,0,683.454,368.008Z" transform="translate(-630.708 -293.391)"/>
  <path id="Path_3443" data-name="Path 3443" d="M737.436,370.565a6.418,6.418,0,0,0-1.512,3.14C736.33,372.612,736.953,371.621,737.436,370.565Z" transform="translate(-643.642 -295.338)"/>
  <path id="Path_3448" data-name="Path 3448" d="M738.22,372.537q.658-1.075,1.316-2.151l-.194-.133C738.963,371.011,738.309,371.611,738.22,372.537Z" transform="translate(-644.208 -295.261)"/>
  <path id="Path_3471" data-name="Path 3471" d="M756.937,326.469c.329-.019.459-.24.423-.78a.4.4,0,0,0-.484-.265c-.344.04-.41.3-.39.6C756.5,326.3,756.651,326.486,756.937,326.469Z" transform="translate(-648.71 -284.21)"/>
  <path id="Path_3474" data-name="Path 3474" d="M758.553,328.6c.235-.051.524-.267.457-.563-.039-.172-.1-.5-.431-.464s-.434.261-.43.338C758.167,328.4,758.281,328.66,758.553,328.6Z" transform="translate(-649.12 -284.74)"/>
</svg>
