<svg xmlns="http://www.w3.org/2000/svg" viewBox="0 0 54.37 50.25"><defs><style>.cls-1{fill:#068844;}.cls-2{fill:#fff;}.cls-3{fill:#fdee0a;}.cls-4{fill:#019748;}.cls-5{fill:#813e30;}.cls-6{fill:#c57058;}</style></defs><title>mrkimicon</title><g id="Layer_2" data-name="Layer 2"><g id="Layer_1-2" data-name="Layer 1"><path class="cls-1" d="M7.16,40.12a.11.11,0,0,1,0,.08.1.1,0,0,1,0,.07h0l-3.37.53a.17.17,0,0,1-.12,0,.17.17,0,0,1-.1-.09l-.36-.65a.25.25,0,0,1,0-.14.21.21,0,0,1,.06-.1l2.24-2.58,0,0h.08a.06.06,0,0,1,.06,0l.3.54a.15.15,0,0,1,0,.11.34.34,0,0,1,0,.08l-.36.41.65,1.17.54-.08h.08a.19.19,0,0,1,.09.09Zm-1.74-.38L5,38.93,4,40Z"/><path class="cls-1" d="M5,35.7a1.92,1.92,0,0,1,.14.79,1.14,1.14,0,0,1-.23.65,1.47,1.47,0,0,1-.67.45l-1.9.73a.09.09,0,0,1-.1,0,.12.12,0,0,1-.07-.07L2,37.65a.17.17,0,0,1,0-.1.12.12,0,0,1,.08-.06L4,36.76a.65.65,0,0,0,.39-.32.55.55,0,0,0,0-.47A.57.57,0,0,0,4,35.62a.66.66,0,0,0-.51,0l-1.9.72a.09.09,0,0,1-.1,0,.11.11,0,0,1-.06-.07l-.24-.6a.17.17,0,0,1,0-.1.19.19,0,0,1,.08-.07l1.9-.73a1.45,1.45,0,0,1,.8-.1,1.07,1.07,0,0,1,.61.32A2,2,0,0,1,5,35.7Z"/><path class="cls-1" d="M4.13,33.05a.11.11,0,0,1,0,.1A.09.09,0,0,1,4,33.2l-2.52.6.21.87a.1.1,0,0,1,0,.09.12.12,0,0,1-.08.06l-.52.12a.1.1,0,0,1-.09,0A.16.16,0,0,1,1,34.85L.34,32.23a.1.1,0,0,1,0-.09.1.1,0,0,1,.08-.06L1,32a.1.1,0,0,1,.09,0,.12.12,0,0,1,.06.08l.2.87,2.52-.6a.11.11,0,0,1,.1,0,.14.14,0,0,1,0,.08Z"/><path class="cls-1" d="M3.59,29.69a1.92,1.92,0,0,1-.06.81,1.19,1.19,0,0,1-.4.58,1.55,1.55,0,0,1-.73.28L2,31.41l-.43,0a1.6,1.6,0,0,1-.78-.13,1.2,1.2,0,0,1-.51-.49A1.79,1.79,0,0,1,0,30.06a1.87,1.87,0,0,1,.08-.8,1.22,1.22,0,0,1,.4-.59,1.46,1.46,0,0,1,.73-.28l.43-.06.43,0a1.48,1.48,0,0,1,.78.13,1.16,1.16,0,0,1,.5.48A1.88,1.88,0,0,1,3.59,29.69Zm-.71.07a.61.61,0,0,0-.21-.41.68.68,0,0,0-.52-.12l-.42,0-.4,0a.89.89,0,0,0-.37.13.47.47,0,0,0-.19.23.67.67,0,0,0,0,.32.56.56,0,0,0,.1.29.5.5,0,0,0,.24.19.77.77,0,0,0,.39.05l.4,0,.41,0a.69.69,0,0,0,.49-.23A.57.57,0,0,0,2.88,29.76Z"/><path class="cls-1" d="M2.41,26.09a.48.48,0,0,1-.1.31.69.69,0,0,1-.23.22.6.6,0,0,1-.32.07.55.55,0,0,1-.31-.1.61.61,0,0,1-.21-.24A.55.55,0,0,1,1.16,26a.67.67,0,0,1,.1-.31.61.61,0,0,1,.24-.21.56.56,0,0,1,.32-.07.52.52,0,0,1,.31.1.58.58,0,0,1,.21.23A.57.57,0,0,1,2.41,26.09Z"/><path class="cls-1" d="M3.61,23.92a.12.12,0,0,1-.06.08.1.1,0,0,1-.09,0L.27,23.38a.1.1,0,0,1-.08-.05.15.15,0,0,1,0-.09L.3,22.6a.14.14,0,0,1,0-.08.11.11,0,0,1,.1,0l1.18.23.24-1.21L.69,21.29a.09.09,0,0,1-.08-.05.1.1,0,0,1,0-.09l.13-.64a.1.1,0,0,1,.05-.08.1.1,0,0,1,.09,0l3.19.63a.16.16,0,0,1,.08.05.12.12,0,0,1,0,.1L4,21.83a.08.08,0,0,1,0,.08.1.1,0,0,1-.09,0l-1.23-.24L2.41,22.9l1.22.24a.19.19,0,0,1,.09.05.16.16,0,0,1,0,.1Z"/><path class="cls-1" d="M4.83,19.3a2,2,0,0,1-.41.71,1.14,1.14,0,0,1-.6.34A1.45,1.45,0,0,1,3,20.3l-.41-.14L2.22,20a1.62,1.62,0,0,1-.65-.46,1.16,1.16,0,0,1-.25-.65,1.93,1.93,0,0,1,.12-.8,1.78,1.78,0,0,1,.41-.7,1.18,1.18,0,0,1,.61-.35,1.46,1.46,0,0,1,.79.06l.41.13.4.16a1.51,1.51,0,0,1,.65.45A1.2,1.2,0,0,1,5,18.5,2.16,2.16,0,0,1,4.83,19.3Zm-.68-.24a.56.56,0,0,0,0-.46.71.71,0,0,0-.42-.34l-.38-.15L3,18a1,1,0,0,0-.39,0,.49.49,0,0,0-.27.13.55.55,0,0,0-.17.27.67.67,0,0,0,0,.31.49.49,0,0,0,.13.27.91.91,0,0,0,.33.22l.38.14.39.13a.74.74,0,0,0,.55,0A.61.61,0,0,0,4.15,19.06Z"/><path class="cls-1" d="M5.47,17.43a.11.11,0,0,1-.07.06.12.12,0,0,1-.1,0L2.44,15.94a.11.11,0,0,1-.06-.07.12.12,0,0,1,0-.1l.26-.47a.13.13,0,0,1,.09-.09h.09l1.8,0-1-1.52,0-.08a.21.21,0,0,1,0-.13L3.9,13A.16.16,0,0,1,4,12.9a.17.17,0,0,1,.1,0l2.86,1.54s.06,0,.06.08a.12.12,0,0,1,0,.1l-.28.52a.19.19,0,0,1-.08.07.14.14,0,0,1-.09,0l-1.65-.89.65,1a.36.36,0,0,1,0,.09.15.15,0,0,1,0,.11l-.12.23s0,.07-.09.08a.16.16,0,0,1-.1,0H4.05l1.66.88a.16.16,0,0,1,.06.08.14.14,0,0,1,0,.09Z"/><path class="cls-1" d="M7.39,14a.11.11,0,0,1-.08.05.11.11,0,0,1-.09,0L4.61,12.13a.1.1,0,0,1-.05-.08.12.12,0,0,1,0-.1L6,10.08A.1.1,0,0,1,6.05,10a.12.12,0,0,1,.1,0l.37.28a.16.16,0,0,1,.06.08.17.17,0,0,1,0,.1l-1,1.28.54.4L7,11A.1.1,0,0,1,7.11,11a.12.12,0,0,1,.1,0l.35.26a.22.22,0,0,1,.05.08.17.17,0,0,1,0,.1L6.7,12.6l.56.41,1-1.31a.12.12,0,0,1,.17,0l.38.28s.05.05.05.09a.1.1,0,0,1,0,.09Z"/><path class="cls-1" d="M9.53,9.84a.55.55,0,0,1-.28.17.69.69,0,0,1-.32,0,.61.61,0,0,1-.28-.16.59.59,0,0,1-.17-.28.86.86,0,0,1,0-.32A.61.61,0,0,1,8.64,9a.53.53,0,0,1,.28-.16.69.69,0,0,1,.32,0A.66.66,0,0,1,9.52,9a.57.57,0,0,1,.16.28.7.7,0,0,1,0,.32A.61.61,0,0,1,9.53,9.84Z"/><path class="cls-1" d="M13,8.28a1.91,1.91,0,0,1-.75.36,1.16,1.16,0,0,1-.69-.05,1.46,1.46,0,0,1-.61-.47c-.09-.11-.18-.22-.27-.35s-.18-.24-.27-.36a1.52,1.52,0,0,1-.27-.72A1.19,1.19,0,0,1,10.26,6a1.74,1.74,0,0,1,.55-.61,2.17,2.17,0,0,1,.53-.3,1.51,1.51,0,0,1,.54-.1,1.16,1.16,0,0,1,.49.1,1.38,1.38,0,0,1,.4.33.08.08,0,0,1,0,.08.1.1,0,0,1,0,.07l-.54.4a.16.16,0,0,1-.1,0A.21.21,0,0,1,12,6a.55.55,0,0,0-.4-.16.79.79,0,0,0-.37.16.61.61,0,0,0-.25.38.69.69,0,0,0,.16.51c.16.23.33.45.51.67a.65.65,0,0,0,.44.3.58.58,0,0,0,.44-.13.74.74,0,0,0,.25-.32.52.52,0,0,0,0-.42.19.19,0,0,1,0-.12.13.13,0,0,1,.07-.08l.54-.41.08,0a.07.07,0,0,1,.06,0,1.2,1.2,0,0,1,.21.48,1.21,1.21,0,0,1,0,.5,1.52,1.52,0,0,1-.25.49A2.19,2.19,0,0,1,13,8.28Z"/><path class="cls-1" d="M15.69,6.52a2,2,0,0,1-.77.25,1.13,1.13,0,0,1-.68-.14,1.41,1.41,0,0,1-.55-.56c-.08-.12-.15-.25-.22-.37l-.2-.39a1.37,1.37,0,0,1-.18-.76,1.16,1.16,0,0,1,.24-.66A1.79,1.79,0,0,1,14,3.37a1.83,1.83,0,0,1,.77-.25,1.25,1.25,0,0,1,.69.14,1.48,1.48,0,0,1,.55.56l.22.38c.07.13.14.25.2.38a1.42,1.42,0,0,1,.18.77,1.16,1.16,0,0,1-.24.65A2,2,0,0,1,15.69,6.52Zm-.35-.63a.59.59,0,0,0,.3-.35A.67.67,0,0,0,15.55,5c-.06-.14-.13-.26-.19-.37s-.13-.23-.2-.35a1,1,0,0,0-.27-.3.51.51,0,0,0-.29-.08.58.58,0,0,0-.3.09.52.52,0,0,0-.23.21A.48.48,0,0,0,14,4.5a.89.89,0,0,0,.11.38l.19.35c.06.12.13.24.21.37a.73.73,0,0,0,.4.35A.6.6,0,0,0,15.34,5.89Z"/><path class="cls-1" d="M17.43,5.53a.09.09,0,0,1-.1,0,.11.11,0,0,1-.06-.07l-1.13-3a.12.12,0,0,1,0-.1.09.09,0,0,1,.07-.06l.5-.19a.19.19,0,0,1,.13,0s.06,0,.07,0L18.3,3.28l.28-1.78a.31.31,0,0,1,0-.08.18.18,0,0,1,.1-.09l.5-.18a.17.17,0,0,1,.1,0,.12.12,0,0,1,.07.07l1.12,3.05a.09.09,0,0,1,0,.1.13.13,0,0,1-.07.06l-.56.21a.17.17,0,0,1-.1,0,.16.16,0,0,1-.07-.07L19,2.81,18.87,4a.3.3,0,0,1,0,.1.2.2,0,0,1-.1.07l-.24.09a.11.11,0,0,1-.11,0,.19.19,0,0,1-.09,0l-.89-.78.64,1.76a.07.07,0,0,1,0,.09.16.16,0,0,1-.07.07Z"/><path class="cls-1" d="M21.07,4.25a.1.1,0,0,1-.09,0,.12.12,0,0,1-.06-.08L20.31,1a.12.12,0,0,1,0-.1l.08,0,.53-.1a.18.18,0,0,1,.13,0,.17.17,0,0,1,.06.06L22.3,2.17,22.86.46a.59.59,0,0,1,0-.08A.23.23,0,0,1,23,.31l.53-.1a.18.18,0,0,1,.1,0,.14.14,0,0,1,.05.08L24.3,3.5a.12.12,0,0,1,0,.1.14.14,0,0,1-.08,0l-.59.11a.13.13,0,0,1-.09,0,.16.16,0,0,1-.06-.08l-.35-1.85L22.75,3a.36.36,0,0,1,0,.09l-.1.05-.26,0a.19.19,0,0,1-.11,0,.19.19,0,0,1-.08-.07l-.76-.92L21.76,4a.16.16,0,0,1,0,.1l-.08,0Z"/><path class="cls-1" d="M24.89,3.6s-.06,0-.09,0a.13.13,0,0,1,0-.09L24.61.24a.12.12,0,0,1,.12-.13L27.07,0a.16.16,0,0,1,.09,0,.19.19,0,0,1,0,.09l0,.47a.12.12,0,0,1,0,.09.15.15,0,0,1-.09,0L25.51.79l0,.68L27,1.4a.12.12,0,0,1,.13.12l0,.44a.16.16,0,0,1,0,.09.13.13,0,0,1-.09,0l-1.48.07,0,.69,1.63-.07a.08.08,0,0,1,.09,0,.09.09,0,0,1,0,.08l0,.47a.13.13,0,0,1,0,.1.11.11,0,0,1-.08,0Z"/><path class="cls-1" d="M27.85,3.51a.16.16,0,0,1-.09,0,.09.09,0,0,1,0-.09L28,.13A.16.16,0,0,1,28.05,0a.09.09,0,0,1,.09,0l1.35.11a1.54,1.54,0,0,1,1,.38,1,1,0,0,1,.31.87,1,1,0,0,1-.23.58.91.91,0,0,1-.48.33l.59,1.29a.11.11,0,0,1,0,0,.08.08,0,0,1,0,.07.11.11,0,0,1-.08,0l-.66-.06a.17.17,0,0,1-.13,0,.37.37,0,0,1-.06-.1l-.48-1.14-.51,0-.09,1.1a.13.13,0,0,1,0,.09.17.17,0,0,1-.1,0Zm.93-1.88.58.05a.47.47,0,0,0,.36-.08.43.43,0,0,0,.14-.31A.44.44,0,0,0,29.77,1a.42.42,0,0,0-.34-.15l-.58,0Z"/><path class="cls-1" d="M32.32,4.15a1.9,1.9,0,0,1-.76-.33,1.21,1.21,0,0,1-.42-.56,1.5,1.5,0,0,1,0-.77c0-.13.06-.28.09-.43s.07-.3.11-.44A1.4,1.4,0,0,1,31.66,1a1.26,1.26,0,0,1,.62-.34,2.08,2.08,0,0,1,.82,0,2.12,2.12,0,0,1,.58.22,1.43,1.43,0,0,1,.42.34,1,1,0,0,1,.24.44,1.13,1.13,0,0,1,0,.52.07.07,0,0,1,0,.06.15.15,0,0,1-.09,0l-.65-.15a.19.19,0,0,1-.1-.05.24.24,0,0,1,0-.11.61.61,0,0,0-.14-.4.68.68,0,0,0-.36-.18.59.59,0,0,0-.46,0,.72.72,0,0,0-.28.46c-.07.26-.13.54-.18.82a.64.64,0,0,0,.06.53.6.6,0,0,0,.39.24.67.67,0,0,0,.4,0,.55.55,0,0,0,.3-.3A.15.15,0,0,1,33.25,3a.17.17,0,0,1,.1,0l.66.14a.18.18,0,0,1,.07,0,.08.08,0,0,1,0,.08,1,1,0,0,1-.23.46,1.08,1.08,0,0,1-.4.3,1.53,1.53,0,0,1-.53.13A2.16,2.16,0,0,1,32.32,4.15Z"/><path class="cls-1" d="M34.27,4.62a.11.11,0,0,1-.07-.06.11.11,0,0,1,0-.1l1-3.08a.12.12,0,0,1,.06-.08.14.14,0,0,1,.09,0l.64.21a.11.11,0,0,1,.07.06.11.11,0,0,1,0,.1l-1,3.08a.19.19,0,0,1-.07.08h-.09Z"/><path class="cls-1" d="M35.35,4.93a.1.1,0,0,1-.05-.06.11.11,0,0,1,0-.08l0,0,2.39-2.44a.17.17,0,0,1,.1-.06.15.15,0,0,1,.13,0l.68.31a.15.15,0,0,1,.1.09.15.15,0,0,1,0,.11l-.25,3.41a.09.09,0,0,1,0,.05.1.1,0,0,1-.06,0h-.08L37.78,6c-.05,0-.08,0-.09-.08a.31.31,0,0,1,0-.08l0-.54-1.21-.55-.39.39a.15.15,0,0,1-.06,0,.16.16,0,0,1-.13,0ZM37,4.2l.85.38.11-1.4Z"/><path class="cls-1" d="M38.68,6.51a.1.1,0,0,1,0-.08.12.12,0,0,1,0-.1l1.71-2.76a.16.16,0,0,1,.08-.06.1.1,0,0,1,.09,0l.56.34a.16.16,0,0,1,.06.08.17.17,0,0,1,0,.1L39.75,6.28,41,7.07a.09.09,0,0,1,.06.08.12.12,0,0,1,0,.1l-.27.42a.1.1,0,0,1-.08.06.1.1,0,0,1-.09,0Z"/><path class="cls-1" d="M42.77,8.07a.55.55,0,0,1-.19-.26.85.85,0,0,1,0-.32.59.59,0,0,1,.13-.29A.61.61,0,0,1,43,7a.58.58,0,0,1,.32,0,.53.53,0,0,1,.29.12.7.7,0,0,1,.19.27.62.62,0,0,1-.37.8.67.67,0,0,1-.31,0A.59.59,0,0,1,42.77,8.07Z"/><path class="cls-1" d="M44.47,11.14a1.71,1.71,0,0,1-.37-.58,1,1,0,0,1,0-.57,1,1,0,0,1,.3-.49.86.86,0,0,1,.35-.19,1.2,1.2,0,0,1,.38,0,1.74,1.74,0,0,1,.43.09,1.66,1.66,0,0,1,.1-.46,1,1,0,0,1,.22-.3.76.76,0,0,1,.4-.2.9.9,0,0,1,.48.05,1.47,1.47,0,0,1,.5.37,1.1,1.1,0,0,1,.28.5.75.75,0,0,1,0,.47.83.83,0,0,1-.23.38.75.75,0,0,1-.33.17,1,1,0,0,1-.38,0,4.34,4.34,0,0,1-.43-.1l0,.84.22-.06a1.44,1.44,0,0,0,.37-.14.11.11,0,0,1,.13,0l.34.38a.08.08,0,0,1,0,.07.09.09,0,0,1,0,.07.89.89,0,0,1-.2.11l-.28.09a1.7,1.7,0,0,1-.31.06l-.3,0,0,.79a.34.34,0,0,1,0,.08.06.06,0,0,1-.07,0,.09.09,0,0,1-.06,0l-.46-.51a.16.16,0,0,1,0-.07s0,0,0-.06v-.31a1.38,1.38,0,0,1-.48-.17A1.86,1.86,0,0,1,44.47,11.14Zm.47-.42a.72.72,0,0,0,.22.17.62.62,0,0,0,.26.09l0-1a1,1,0,0,0-.29,0,.35.35,0,0,0-.25.1.41.41,0,0,0-.12.2.44.44,0,0,0,0,.23A.55.55,0,0,0,44.94,10.72ZM46.2,9.64a1.19,1.19,0,0,0,.22.08.69.69,0,0,0,.2,0,.24.24,0,0,0,.16-.07.26.26,0,0,0,.1-.21.35.35,0,0,0-.09-.23.45.45,0,0,0-.21-.12.31.31,0,0,0-.24.08.36.36,0,0,0-.07.1.53.53,0,0,0-.05.15A1.25,1.25,0,0,0,46.2,9.64Z"/><path class="cls-1" d="M46.67,13.73a.16.16,0,0,1,0-.1s0-.06.06-.07l2.79-1.67a.15.15,0,0,1,.09,0,.12.12,0,0,1,.08.06l.28.47a.17.17,0,0,1,0,.12.22.22,0,0,1,0,.08l-.9,1.57,1.8-.06h.09a.2.2,0,0,1,.1.09l.27.46a.1.1,0,0,1,0,.09.12.12,0,0,1-.06.08l-2.79,1.67a.11.11,0,0,1-.1,0,.13.13,0,0,1-.07-.06L48,16a.16.16,0,0,1,0-.1.16.16,0,0,1,.06-.08l1.61-1-1.18,0a.16.16,0,0,1-.1,0,.13.13,0,0,1-.09-.07l-.13-.23a.12.12,0,0,1,0-.11l0-.1.61-1-1.61,1a.14.14,0,0,1-.09,0,.16.16,0,0,1-.08-.06Z"/><path class="cls-1" d="M48.47,16.79a.08.08,0,0,1,0-.08.1.1,0,0,1,.05-.06h0L52,16.52a.14.14,0,0,1,.11,0,.18.18,0,0,1,.09.1l.28.69a.17.17,0,0,1,0,.14.15.15,0,0,1-.06.09l-2.54,2.3,0,0a.11.11,0,0,1-.08,0,.09.09,0,0,1-.06-.06l-.23-.57c0-.05,0-.09,0-.12a.43.43,0,0,1,0-.07l.4-.37-.5-1.24-.55,0-.07,0s-.06,0-.08-.09Zm1.68.58.35.86,1-.93Z"/><path class="cls-1" d="M49.81,20.2a.09.09,0,0,1,0-.09.12.12,0,0,1,.08-.06l3.15-.79a.16.16,0,0,1,.1,0,.08.08,0,0,1,.05.08l.13.51a.19.19,0,0,1,0,.13l0,.06-1.57,1.65,1.84-.46a.1.1,0,0,1,.09,0,.12.12,0,0,1,.06.08l.14.58a.11.11,0,0,1,0,.1.11.11,0,0,1-.08.05l-3.15.79a.14.14,0,0,1-.09,0,.16.16,0,0,1-.06-.08l-.13-.52a.15.15,0,0,1,0-.13s0-.05,0-.05l1.5-1.64-1.77.44a.1.1,0,0,1-.09,0,.12.12,0,0,1-.06-.08Z"/><path class="cls-1" d="M50.66,24.37a.13.13,0,0,1,0-.09.16.16,0,0,1,.09-.05l1.07-.11,2-1.38,0,0h0a.07.07,0,0,1,.07,0,.09.09,0,0,1,0,.08l.07.62a.12.12,0,0,1,0,.12.17.17,0,0,1-.06.06l-1.2.85,1.36.58.07.05a.16.16,0,0,1,.05.11l.07.62a.11.11,0,0,1,0,.08.1.1,0,0,1-.07,0h-.05L51.93,25l-1.06.12a.17.17,0,0,1-.1,0,.13.13,0,0,1,0-.09Z"/><path class="cls-1" d="M50.88,27.47a.12.12,0,0,1,0-.08.12.12,0,0,1,.09,0l3.24.25a.11.11,0,0,1,.09,0,.12.12,0,0,1,0,.09l0,.53c0,.06,0,.1,0,.12l-.07.05-1.65.76,1.51,1,.06.05a.17.17,0,0,1,0,.13l0,.53a.13.13,0,0,1,0,.09.17.17,0,0,1-.1,0l-3.24-.25a.09.09,0,0,1-.08,0,.09.09,0,0,1,0-.09l0-.6a.36.36,0,0,1,0-.09.17.17,0,0,1,.1,0l1.87.14-1-.64a.15.15,0,0,1-.1-.18l0-.26a.12.12,0,0,1,0-.1.16.16,0,0,1,.08-.06l1.09-.49L51,28.2a.1.1,0,0,1-.09,0,.14.14,0,0,1,0-.09Z"/><path class="cls-1" d="M50.17,32.58a2,2,0,0,1,.33-.75,1.08,1.08,0,0,1,.56-.41,1.54,1.54,0,0,1,.78,0l.42.09.43.11a1.52,1.52,0,0,1,.69.37,1.24,1.24,0,0,1,.33.63,2.09,2.09,0,0,1-.36,1.54,1.19,1.19,0,0,1-.57.42,1.48,1.48,0,0,1-.79,0l-.42-.09-.42-.11a1.52,1.52,0,0,1-.69-.37,1.13,1.13,0,0,1-.32-.62A1.88,1.88,0,0,1,50.17,32.58Zm.7.16a.61.61,0,0,0,.06.46.68.68,0,0,0,.46.28l.4.11.4.08a.85.85,0,0,0,.39,0,.5.5,0,0,0,.26-.16.67.67,0,0,0,.14-.28.86.86,0,0,0,0-.32.6.6,0,0,0-.16-.26,1,1,0,0,0-.36-.17l-.39-.1-.41-.08a.65.65,0,0,0-.53.06A.59.59,0,0,0,50.87,32.74Z"/><path class="cls-1" d="M49.72,34.52a.12.12,0,0,1,.07-.07.07.07,0,0,1,.09,0l3,1.16a.09.09,0,0,1,.07.06.09.09,0,0,1,0,.1L52.51,37a1.63,1.63,0,0,1-.64.84,1,1,0,0,1-.92,0,1,1,0,0,1-.5-.38,1.07,1.07,0,0,1-.19-.55l-1.39.21h-.06a.1.1,0,0,1-.05-.06.08.08,0,0,1,0-.08l.24-.62a.17.17,0,0,1,.09-.11l.11,0,1.23-.14.18-.48-1-.4a.12.12,0,0,1-.08-.06.17.17,0,0,1,0-.1Zm1.54,1.41-.21.54a.48.48,0,0,0,0,.37.37.37,0,0,0,.25.22.42.42,0,0,0,.33,0,.48.48,0,0,0,.24-.29l.21-.54Z"/><path class="cls-1" d="M48.52,37.51a.13.13,0,0,1,.07-.06.11.11,0,0,1,.1,0L51.55,39a.13.13,0,0,1,.06.07.12.12,0,0,1,0,.1l-1.11,2a.16.16,0,0,1-.08.06.1.1,0,0,1-.09,0l-.42-.22a.13.13,0,0,1-.06-.07.16.16,0,0,1,0-.1l.76-1.4L50,39.16l-.71,1.31a.11.11,0,0,1-.07.06.11.11,0,0,1-.1,0l-.38-.21a.11.11,0,0,1-.06-.07.09.09,0,0,1,0-.1l.7-1.3-.61-.33L48,39.94A.1.1,0,0,1,48,40a.13.13,0,0,1-.1,0l-.41-.22a.13.13,0,0,1-.06-.07.11.11,0,0,1,0-.1Z"/><path class="cls-2" d="M5.72,33.39c-.1,0-.25-.1-.28,0a.26.26,0,0,0,.25.32h.42C6.16,33.41,5.91,33.44,5.72,33.39Z"/><path class="cls-1" d="M27.14,5.56A21.59,21.59,0,0,1,31.28,6a17.72,17.72,0,0,1,2,.51,20,20,0,0,1,2,.71c.64.27,1.27.57,1.88.9a20.24,20.24,0,0,1,1.79,1.08,18.71,18.71,0,0,1,1.67,1.26,18.77,18.77,0,0,1,1.55,1.41c.49.5,1,1,1.4,1.56s.85,1.11,1.24,1.69.74,1.19,1.07,1.81.62,1.25.89,1.9a20.25,20.25,0,0,1,.7,2c.2.68.37,1.36.51,2.05a20.86,20.86,0,0,1,.31,2.08c.06.7.1,1.4.1,2.1s0,1.41-.1,2.11A20.86,20.86,0,0,1,48,31.21q-.21,1-.51,2a19.54,19.54,0,0,1-.7,2c-.27.65-.56,1.28-.89,1.9S45.18,38.36,44.8,39s-.8,1.14-1.24,1.69-.91,1.06-1.4,1.56a22.82,22.82,0,0,1-3.22,2.67A20.24,20.24,0,0,1,37.15,46c-.61.33-1.24.63-1.88.9a20,20,0,0,1-2,.71c-.67.2-1.34.37-2,.51a20.56,20.56,0,0,1-4.14.41,20.69,20.69,0,0,1-2.08-.1A20.47,20.47,0,0,1,23,48.07c-.68-.14-1.36-.31-2-.51a20.14,20.14,0,0,1-2-.71c-.64-.27-1.27-.57-1.88-.9s-1.21-.69-1.79-1.08a20.28,20.28,0,0,1-1.67-1.26,20.54,20.54,0,0,1-1.55-1.41c-.49-.5-.95-1-1.39-1.56S9.87,39.53,9.48,39s-.74-1.19-1.07-1.81-.62-1.25-.89-1.9-.5-1.31-.7-2-.37-1.35-.51-2-.23-1.38-.3-2.08S5.9,27.73,5.9,27s0-1.4.11-2.1.17-1.39.3-2.08.31-1.37.51-2.05.44-1.33.7-2,.56-1.28.89-1.9.69-1.22,1.07-1.81a20.46,20.46,0,0,1,1.25-1.69c.44-.54.9-1.06,1.39-1.56a20.54,20.54,0,0,1,1.55-1.41,20.28,20.28,0,0,1,1.67-1.26c.58-.39,1.18-.75,1.79-1.08s1.24-.63,1.88-.9a20.14,20.14,0,0,1,2-.71A17.56,17.56,0,0,1,23,6a20.47,20.47,0,0,1,2.06-.31A20.7,20.7,0,0,1,27.14,5.56Z"/><path d="M12.9,18.8l0,0s0-.09,0-.13S12.91,18.75,12.9,18.8Z"/><path class="cls-2" d="M21.4,21.14a4.76,4.76,0,0,1,.75-1.77Zm0,.49A4.21,4.21,0,0,1,22,20.27,5.8,5.8,0,0,1,21.43,21.63Zm-.56.28a2.83,2.83,0,0,0,.67,1.76,1.42,1.42,0,0,0,1.37.62A2.62,2.62,0,0,0,25,21.67c-.7.26-1.27.74-2,1a.4.4,0,0,1-.4-.08,1.1,1.1,0,0,1-.38-.77c-.1-.87-.07-1.28.69-1.82.38-.27.77-.52,1.17-.76.08,0,.27-.13.11-.23s-.52-.48-.87-.54a1.61,1.61,0,0,0-1.41.46A3.84,3.84,0,0,0,20.87,21.91Z"/><path class="cls-3" d="M27,35.93l.42.9A1.46,1.46,0,0,1,27,35.93Zm.09-1L27.23,36A2,2,0,0,1,27.05,34.92Zm.33-1.52a5.09,5.09,0,0,0,0,2,2.52,2.52,0,0,1-.07-1.82l-.47.65a17,17,0,0,0-1.62,3.28c-.07.17,0,.17.15.18a18.84,18.84,0,0,1,2.38.27c.09,0,.25.06.28,0a1.77,1.77,0,0,1,.54-.73,2.32,2.32,0,0,0,.56-1.65c0-.55.18-.77.69-.91.12,0,.1-.09.07-.16a4.07,4.07,0,0,0-1.07-1.7c-.3-.24-.39-.23-.6.1a4.36,4.36,0,0,0-.52,1.26c0,.07,0,.19-.16.16s-.08-.13-.08-.2A2.63,2.63,0,0,0,27.38,33.4Z"/><path class="cls-2" d="M23.08,20.06a1.71,1.71,0,0,0-.5,2.33.31.31,0,0,0,.45.16,12.46,12.46,0,0,0,1.78-1,.86.86,0,0,0,.41-.43,1.21,1.21,0,0,0-.41.2,6.07,6.07,0,0,1-1.69,1c-.31.09-.49,0-.59-.3a1.53,1.53,0,0,1,.66-1.71c.49-.3,1-.56,1.51-.84.1-.05.14-.12.11-.21a.2.2,0,0,0-.19-.18c-.08,0-.18,0-.22.1a.29.29,0,0,1-.14.15C23.89,19.6,23.47,19.8,23.08,20.06Z"/><path class="cls-2" d="M18.27,23.86c-.07.1-.15.2-.1.33s0,.47-.05.74c.9-.68,1.77-1.34,2.63-2a.18.18,0,0,0,.1-.21c-.08-.2,0-.43-.16-.64-.16.08-.26.25-.45.28.08-.15.22-.22.39-.4a1.29,1.29,0,0,0-.35.13c-.71.52-1.41,1.05-2.11,1.58-.06.05-.15.11-.11.2S18.2,23.81,18.27,23.86Z"/><path class="cls-2" d="M17.09,26.36l.14-.08c.93-.73,1.87-1.46,2.83-2.17.23-.16.44-.36.66-.54a.18.18,0,0,0,0-.27c-.08-.12-.16,0-.21,0a4.48,4.48,0,0,0-.47.28l-2.81,2.12C17,25.92,16.93,26.08,17.09,26.36Z"/><path class="cls-4" d="M18.15,26.09A1.17,1.17,0,0,0,18,27a1.24,1.24,0,0,0,1.51.82,1.06,1.06,0,0,1-1,.08,1.06,1.06,0,0,0,1.18.22,1.15,1.15,0,0,1-.74.2c-.29,0-.44-.25-.62-.5a.79.79,0,0,1-.26.69,3.62,3.62,0,0,0-.36.42.5.5,0,0,0,0,.61,1.32,1.32,0,0,0,.91.46.37.37,0,0,0,.37-.17,15.76,15.76,0,0,0,.95-1.5c.22-.33-.18-.58,0-.87,0,0,0,0,0-.05a.5.5,0,0,0-.38-.15h-.9a5.16,5.16,0,0,1,1.11-.05c.21,0,.46.27.37.35s-.08.22,0,.34a.33.33,0,0,1,0,.27,8.86,8.86,0,0,1-.71,1.32,1.36,1.36,0,0,0-.24.38s0,0,.05,0l.06,0a4,4,0,0,0,1.26-2.46.92.92,0,0,0-.58-1.08A3.56,3.56,0,0,0,18.78,26C18.58,26,18.31,25.87,18.15,26.09Z"/><path class="cls-4" d="M26,31.9A10.48,10.48,0,0,1,24.88,33,4.64,4.64,0,0,1,26,31.9Zm.1,1a5.29,5.29,0,0,1-1,1.46A2.94,2.94,0,0,1,26.08,32.87Zm-1.46,1.86a3.72,3.72,0,0,1,.79-1.51A8.68,8.68,0,0,1,24.62,34.73ZM23.9,36a6.22,6.22,0,0,1,1-2.64Zm-1.27.19c0,.06-.08.13,0,.17s.09-.07.11-.11a14.32,14.32,0,0,1,.76-1.45,3.86,3.86,0,0,1,.7-1c0,.07,0,.11-.06.15a17.15,17.15,0,0,0-1.28,2.19.38.38,0,0,0,.06.5c.36.45.88.75,1.14,1.29,0,.07.13.1.19.16s.15,0,.16-.07a8.19,8.19,0,0,1,.64-1.86,2.24,2.24,0,0,1,.44-.8.67.67,0,0,1-.06.15,12.22,12.22,0,0,0-.9,2.43c-.05.17,0,.19.14.23a6.71,6.71,0,0,0,1.1.09,14.41,14.41,0,0,1,2.35.39l3.91,1c.18.05.36.08.49-.11a14.63,14.63,0,0,0,.79-1.25,12.41,12.41,0,0,1,1.55-2.26c.31-.32.59-.68.91-1-.06,0-.09,0-.11,0a17.33,17.33,0,0,0-2.21,2.47c-.41.59-.81,1.17-1.16,1.79a.25.25,0,0,1-.35.11l-1-.36a16.75,16.75,0,0,0-4.85-1,4.46,4.46,0,0,1-1-.09c-.21,0-.23-.13-.16-.3s.25-.63.35-1a7.87,7.87,0,0,1,2-3.32c.16-.15.09-.32.07-.51l-.31.27a6.33,6.33,0,0,1-.78,1,10.69,10.69,0,0,1-.79,1.23,4.18,4.18,0,0,1,.79-1.23,3.65,3.65,0,0,1,.78-1c0-.13.11-.18.18-.26a.3.3,0,0,0,.12-.25c0-.31-.21-.57-.19-.88a.06.06,0,0,0-.05,0c-.28,0-.55-.19-.84,0,0-.16-.1-.1-.19-.06a2,2,0,0,0-.55.39,14.24,14.24,0,0,0-2.16,2.8A6,6,0,0,0,22.63,36.16Z"/><path class="cls-3" d="M23.14,32.32A6.22,6.22,0,0,0,22.05,34,2.81,2.81,0,0,1,23.14,32.32Zm-2.26,1.09A2.92,2.92,0,0,1,21.93,35a2.77,2.77,0,0,0,.54,1.05,12.8,12.8,0,0,1,2.86-4.24A2.23,2.23,0,0,0,24,31.69,7.31,7.31,0,0,0,20.9,33C20.64,33.16,20.68,33.25,20.88,33.41Z"/><path class="cls-1" d="M17,33.93a3.78,3.78,0,0,1-.63-1.27A3.44,3.44,0,0,1,17,33.93Zm.8-4.05a.66.66,0,0,1-.24-1c.08-.12.19-.23.28-.34s.42-.44.24-.78a2,2,0,0,1-.19-.39c0-.11-.07-.14-.19-.05-.54.47-1.09.92-1.65,1.38L14.52,30l-1.18,1c-.05.05-.13.08-.11.2a1.87,1.87,0,0,1,0,.53,1.15,1.15,0,0,0,.57,1,15.16,15.16,0,0,1,2,1.88,8.22,8.22,0,0,1,.52.65,10,10,0,0,1-1.14-.9c.55.64,1.09,1.28,1.64,2,0-.26-.12-.48,0-.67s.14-.57-.21-.74a.15.15,0,0,1-.05-.06c-.51-.5-1-1-1.5-1.5a3.43,3.43,0,0,1-.77-1.2c.17.15.34.28.5.43A22.31,22.31,0,0,1,17,35s0,.13.1.11a.21.21,0,0,0,.15-.15,2.62,2.62,0,0,0,0-.28c0-.2,0-.41.07-.59a.51.51,0,0,0,0-.52,9.77,9.77,0,0,1-.93-2.27,1.8,1.8,0,0,1-.09-.28c0-.11-.12-.19,0-.31A8.1,8.1,0,0,1,17.43,33c0,.07,0,.17.06.19s.1-.08.14-.14a6.3,6.3,0,0,1,1.22-1.2.55.55,0,0,0,.29-.41,2.94,2.94,0,0,1,.09-.71c.09-.25.15-.52.23-.81-.25.09-.42.27-.68.28A1.93,1.93,0,0,1,17.77,29.88Z"/><path class="cls-2" d="M20.23,21.9a.5.5,0,0,0,.51-.39,4.68,4.68,0,0,1,.05-.74,3.35,3.35,0,0,1,1.52-2.37,1.78,1.78,0,0,0-.54.21,3.35,3.35,0,0,0-1.2,1.46,6.18,6.18,0,0,0-.39,1.74A.07.07,0,0,0,20.23,21.9Z"/><path class="cls-2" d="M17.54,25.37h-.7c.11.47.11.47.48.2C17.38,25.52,17.44,25.45,17.54,25.37Z"/><path class="cls-2" d="M6.47,35.49a.91.91,0,0,0,1-.4l.17-.21c.49-.52,1.12-.88,1.59-1.42a1.22,1.22,0,0,0,.39-.7.51.51,0,0,1-.53.2c-.25-.08-.35,0-.5.23a10.88,10.88,0,0,1-1.46,1.33,12,12,0,0,0-1.14,1A3.33,3.33,0,0,1,6.47,35.49Z"/><path class="cls-2" d="M7.57,35.55a11.23,11.23,0,0,1,1.28-1.3,2.64,2.64,0,0,0,1-1.47,1,1,0,0,0-.3-1,.79.79,0,0,0-.89-.07,8.94,8.94,0,0,0-2.33,1.62c-.09.08-.12.19,0,.27s.17,0,.23-.07c.36-.29.68-.64,1-.95a3.27,3.27,0,0,1,1.29-.85.7.7,0,0,1,.75.21.81.81,0,0,1,.23.7,2.73,2.73,0,0,1-1.16,1.62,8.73,8.73,0,0,0-1.12,1.07.78.78,0,0,1-.68.33H6c.07.19.16.24.3.23a3.74,3.74,0,0,1,.58,0A.73.73,0,0,0,7.57,35.55Z"/><path class="cls-2" d="M7.35,36.28c.22,0,.44.16.71,0A.68.68,0,0,0,7.35,36.28Z"/><path class="cls-2" d="M8,29a2.28,2.28,0,0,0-1.34.83A5.46,5.46,0,0,0,5.59,33c0,.25.15.24.32.26s.19-.12.19-.25a6.11,6.11,0,0,1,.05-1.13A4.07,4.07,0,0,1,8,29Z"/><path class="cls-4" d="M14,25.42h.19a1.65,1.65,0,0,1,1.47.94A4.76,4.76,0,0,1,16,28a.91.91,0,0,0,.77-.93c0-.35,0-.7,0-1a1.35,1.35,0,0,0-.92-1.32c.21.1.45-.12.68.15a1.24,1.24,0,0,1,0-.77c.06-.29,0-.35-.27-.34a1.79,1.79,0,0,0-.61.14c.09-.2.27-.17.4-.19.57-.09.65,0,.52.56v0a.7.7,0,0,0,.27.76.79.79,0,0,0,.87-.09.57.57,0,0,0,.25-.6,1.44,1.44,0,0,0-.52-.94,1.23,1.23,0,0,0-1.71,0c-.34.35-.5.82-.83,1.19.18.07.32-.08.48-.05A4.18,4.18,0,0,0,14,25.4S14,25.42,14,25.42Z"/><path class="cls-2" d="M13.93,28.38c.12-.39.05-.64-.29-.79A5.54,5.54,0,0,0,13.93,28.38Z"/><path class="cls-4" d="M14.8,27.06a1.26,1.26,0,0,1,.25,1.5,1,1,0,0,0,.46-.22.92.92,0,0,0,.21-.92,2.71,2.71,0,0,0-.72-1.5,1.65,1.65,0,0,0-1.14-.39c-.26,0-.32.25-.51.37.23.18.45.35.66.53S14.55,26.83,14.8,27.06Z"/><path class="cls-4" d="M13.12,27.26a.41.41,0,0,1,.3-.1,1.3,1.3,0,0,1,.67.83c0,.26-.11.51-.06.78,0,.11.06.2.17.16a1,1,0,0,0,.47-.2,1.05,1.05,0,0,0-.1-1.57c-.37-.3-.73-.62-1.09-.93a.43.43,0,0,0-.67,0,2,2,0,0,0-.44,1.51Z"/><path class="cls-2" d="M39.58,24.46c-.08,0-.12-.06-.12-.21s0-.1.13-.11.12.09.13.15S39.65,24.45,39.58,24.46ZM39.21,24a.13.13,0,0,1-.14-.14c0-.09,0-.18.12-.19a.13.13,0,0,1,.15.08C39.35,23.89,39.31,24,39.21,24Zm-.54-1s0,0,0,0l-.82-.42a.15.15,0,0,0,0,.11A6.09,6.09,0,0,1,39,24.23c0,.06,0,.11.1.13.39.13.45.47.56.87.08-.16.21-.2.31-.28a.4.4,0,0,0,.07-.59C39.69,23.81,39.41,23.17,38.67,23Z"/><path class="cls-1" d="M38.43,47.89a.2.2,0,0,0,0-.27l-.51-.74c-.5.32-.6.88-.82,1.36a20.85,20.85,0,0,0-.78,2l0,0h.54a4.66,4.66,0,0,1,.67-1.19C37.82,48.66,38.12,48.27,38.43,47.89Z"/><path class="cls-1" d="M39,47.84a.19.19,0,0,0,0-.29,7.28,7.28,0,0,1-.76-.81s-.07-.12-.15,0-.06.1,0,.18.27.43.43.63.11.36-.05.54a16.7,16.7,0,0,0-1.2,1.57c-.15.2-.21.45-.37.63h.41a12.42,12.42,0,0,1,1.2-1.79C38.67,48.25,38.84,48.05,39,47.84Z"/><path class="cls-4" d="M36.26,37.2a24.05,24.05,0,0,0-1.78,2.46c-.2.31-.41.61-.62.92a6.84,6.84,0,0,0,1-1.13,22,22,0,0,1,2.58-3.12,7.66,7.66,0,0,1,2.15-1.4,1.58,1.58,0,0,1,.86-.12,1,1,0,0,0,.43,0c-.3-.37-.39-.39-.79-.23a17,17,0,0,0-1.81.91A7.75,7.75,0,0,0,36.26,37.2Z"/><path class="cls-4" d="M38,33.62c-.07-.14-.18-.08-.26-.1-.23-.34-.39-.35-.56,0-.05.11-.11.21-.2.37l.58-.23c-.19.22-.49.32-.69.54A9.89,9.89,0,0,1,38,33.62Z"/><path class="cls-3" d="M34.81,34.8a2,2,0,0,1,.35-.71l.06,0Zm-.53.33a2,2,0,0,1,.46-1C34.59,34.49,34.4,34.8,34.28,35.13Zm2.09-3.73a.7.7,0,0,1-.25.77,6,6,0,0,1-1.36.69,6.36,6.36,0,0,1-1.85.46,2.79,2.79,0,0,1,.84,1.47,4.69,4.69,0,0,0,.23,1.1c0,.1.05.17.17.06a19.94,19.94,0,0,0,1.61-1.44A4.69,4.69,0,0,0,36.67,33a3,3,0,0,0,0-1.5,3,3,0,0,0-.29-1A1.66,1.66,0,0,0,36.37,31.4Z"/><path class="cls-2" d="M30,35.69a.19.19,0,0,0,.16-.15q0-.13-.15-.12c-.09,0-.12.07-.12.14S29.89,35.7,30,35.69Z"/><path class="cls-1" d="M20.47,49.07a8.18,8.18,0,0,1,0-3Zm10.8,1a.8.8,0,0,0-.47-.33,3.2,3.2,0,0,1-1-.53c-.09.43-.36.53-.75.53a7,7,0,0,1-2.31-.55,4.67,4.67,0,0,0-1.38-.3c-.71,0-1.42-.16-2.14-.21-.55,0-1.09-.1-1.64-.17-.35,0-.41-.14-.37-.5l.18-1.42c.1-.78.25-1.55.42-2.31a6.64,6.64,0,0,1,.56-1.68c.09-.19,0-.3-.13-.41s-.14-.23-.35-.18a.81.81,0,0,1-1-.81q0-.33-.33-.24a.56.56,0,0,0-.15-.46,18.21,18.21,0,0,0-.89,5.38.84.84,0,0,0,.08-.31,19.09,19.09,0,0,1,.35-2.72,5.38,5.38,0,0,1,.49-1.55c-.06.43-.26.82-.35,1.24s-.19,1.15-.27,1.73c-.13.95-.17,1.9-.26,2.85a2.36,2.36,0,0,0,.07.65,9.84,9.84,0,0,1,.56-3.52,9,9,0,0,1,0,1.56c0,.28-.07.57-.07.85A19.57,19.57,0,0,0,20,49c0,.37.05.74.05,1.11a.66.66,0,0,1,0,.14h1.34A3.18,3.18,0,0,1,20.88,48a7.3,7.3,0,0,0,.49,2.23h10A.33.33,0,0,1,31.27,50.11Z"/><path class="cls-3" d="M32.76,42.34c.65.23,2.1,1.67,1.87,2.81A5.58,5.58,0,0,0,32.76,42.34Zm1.52,6a10.62,10.62,0,0,0,.54-4.47A5.45,5.45,0,0,1,34.28,48.39Zm.78-1.31a3.32,3.32,0,0,1-.27,1.9,3.09,3.09,0,0,0,1.46-1,1.08,1.08,0,0,0,.16-.83,3.2,3.2,0,0,0-.07-.41v.59c-.19-.62-.15-1.28-.35-1.88A8,8,0,0,0,35,43a3.7,3.7,0,0,0-2-1.49,1.66,1.66,0,0,0-.91.12,5.55,5.55,0,0,1-1.39.29c-.07,0-.14,0-.15.1s.07.09.12.11c.44.18.86.41,1.28.62a2.62,2.62,0,0,1,1.37,1.89,6.5,6.5,0,0,1,0,2.81.63.63,0,0,1,0,.22v-.45c-.12.66-.39,1.27-.56,1.91a.87.87,0,0,1-1.07.74.72.72,0,0,0,.24.35h1.15A3.72,3.72,0,0,0,35.06,47.08Z"/><path class="cls-1" d="M35.9,50.25h.28c.43-1,.74-2,1.18-2.93C36.8,48.27,36.36,49.26,35.9,50.25Z"/><path class="cls-1" d="M36.08,49.67a5.24,5.24,0,0,1,.29-.64,3.54,3.54,0,0,0,.3-.75,4,4,0,0,1-1.23.9,1.36,1.36,0,0,1-.28.11,1.56,1.56,0,0,0-.84.66.86.86,0,0,1-.3.3h1.85A1.84,1.84,0,0,1,36.08,49.67Z"/><path class="cls-3" d="M30,34.12a1,1,0,0,0-.09-.49c-.15-.38-.4-.71-.52-1.11a.48.48,0,0,1,.29-.69A7,7,0,0,1,31,31.49a2.87,2.87,0,0,0-.8-.51.35.35,0,0,1-.23-.31c0-.26-.14-.21-.28-.08a3.4,3.4,0,0,1-.77.53,10,10,0,0,1-1.46.63A3.89,3.89,0,0,1,30,34.12Z"/><path class="cls-5" d="M31.38,27.71c-.19-.09-.37-.16-.43-.41a4.48,4.48,0,0,0-.28-.71,2.6,2.6,0,0,0-.11,1.25,1.2,1.2,0,0,0,2,.73,5.65,5.65,0,0,0,1-1.1,1,1,0,0,0,.31-.65c-.17.15-.3.33-.47.48a1.65,1.65,0,0,1-1.28.53,1.11,1.11,0,0,0-.57,0s-.07,0-.06,0C31.67,27.6,31.44,27.73,31.38,27.71Z"/><path class="cls-6" d="M29.47,25.78a6.24,6.24,0,0,1,.86-.54C30.23,25.69,30,25.86,29.47,25.78Zm.78-2.87c-.06-.13.05-.18.11-.25.31-.37.63-.36,1,.08-.49-.29-.56-.29-.92,0a1.86,1.86,0,0,0,.22,0,.73.73,0,0,1,.8.32.41.41,0,0,1,.05.47c-.12.16-.22.34-.5.34s-.61-.13-.68-.47a.79.79,0,0,0,.54.35c0-.14-.14-.26-.09-.39s.2-.18.32-.26A.51.51,0,0,0,30.5,23a.83.83,0,0,1-.21.06c-.05,0-.09,0-.12-.05S30.25,22.93,30.25,22.91Zm1.66.08c.34.41.07,1.12-.74,1.38l.32-.36-.38.12C31.5,23.84,32,23.62,31.91,23ZM31,25.33c-.06-.07-.09-.08-.2,0s-.38-.17-.4-.32,0-.31.34-.45c-.06.16-.15.26-.12.4s0,.16.13.13.17,0,.15-.11a.8.8,0,0,1,.15-.43,1.46,1.46,0,0,0,.73,1.07A.64.64,0,0,1,31,25.33Zm1.82.08c-.21-.13-.39.08-.6.06C32.43,25.14,32.63,25.11,32.83,25.41Zm.41-1.7c0,.18-.13.35,0,.52C33,24,33,23.94,33.24,23.71Zm-.12,1.9a1.37,1.37,0,0,0,0-.67C33.42,25.16,33.44,25.33,33.12,25.61Zm1.74-3.8a.81.81,0,0,1,.79.46l.18.34c-.06,0-.1,0-.12,0a1.4,1.4,0,0,0-1.51-.14c-.22.07-.46.09-.75.15A2.51,2.51,0,0,1,34.86,21.81Zm2.23,3.7a1.45,1.45,0,0,1-.9.89A9.37,9.37,0,0,1,37.09,25.51Zm-2.16-1.89c.06.16-.06.28,0,.41s0,0-.05.06a1.09,1.09,0,0,1-.73.09l-.47-.05c.14-.19.34,0,.49-.13a.44.44,0,0,1,.09-.49c-.3-.12-.45.09-.62.23A.92.92,0,0,1,35,23.38h0a.76.76,0,0,0-1-.25c-.08,0-.1,0-.28-.1a.83.83,0,0,1,1.22.2.17.17,0,0,1,0,.15h0c.06.19.19.17.37.07-.25.25.06.15.08.23C35.29,23.84,35.13,23.68,34.93,23.62ZM33.67,25.7a.66.66,0,0,1,.21-.73c-.09.61.31.91.65,1.26C34,26.17,33.73,26,33.67,25.7ZM38,25.33c.11-.12.18-.27.29-.4.3-.35.55-.3.79.2L38.76,25c.15.28.36.51.22.8a1.11,1.11,0,0,1-.63.55c.07-.25.25-.42.33-.64s0-.45-.07-.69c-.15.12-.27.2-.22.4s-.08.23-.19.31a.1.1,0,0,1-.16,0C38,25.58,37.87,25.47,38,25.33Zm-8.11.92c-.05-.25,0-.41.25-.43s.59-.23.94-.08a.73.73,0,0,0,.53,0c-.06.23-.3.18-.39.28.31.52.67.21,1,.07,0-.05,0-.05-.07-.07s-.15-.16-.12-.23.16,0,.24,0a2.78,2.78,0,0,1,.63.16,3.46,3.46,0,0,1,.65.18,1.63,1.63,0,0,0,.74.25c.08,0,.13,0,.11.12a3.16,3.16,0,0,1-.22,1.09,2.34,2.34,0,0,0-.42,1.17,1.21,1.21,0,0,1-.64,1.12A9.47,9.47,0,0,0,34,27.11c-.13.09-.15.22-.21.33A3.78,3.78,0,0,1,32.49,29a1.31,1.31,0,0,1-2.09-.8,3,3,0,0,1,0-1.11c0-.15.08-.31,0-.44s0,0-.07,0a.79.79,0,0,0-.09.45,5.49,5.49,0,0,1,0,1.46,3,3,0,0,0,.09.84c.06.31-.08.65.17.92.05,0,.08-.12.17-.15,0,.28.3.19.31.19.29-.13.37-.41.48-.67,0-.08-.05-.09-.11-.1a.88.88,0,0,1-.47-.22,2.16,2.16,0,0,1,1.11.13.28.28,0,0,1-.28.09c-.1,0-.14,0-.13.13a2.35,2.35,0,0,0,.05.65c.08.22.34.35.5.23,0,.08,0,.18,0,.26.06-.13.21,0,.28-.1.21-.26.58-.35.74-.67a.23.23,0,0,1,.15-.14c.11.09-.13.21,0,.28a.33.33,0,0,0,.37-.08,1.82,1.82,0,0,1,.23-.15c-.12.21-.29.38-.41.58.12,0,.19,0,.27-.08a17.88,17.88,0,0,1,2-1,1.78,1.78,0,0,0,1.11-1c.17-.45.33-.9.49-1.36.21.13.27.17.35.14.54-.2,1.09-.39,1.27-1a3,3,0,0,0,.15-1,.52.52,0,0,0-.27-.49.55.55,0,0,0-.58,0,3.23,3.23,0,0,1-.44.27c-.18.07-.34.18-.27.38s-.24.33-.23.55-.11,0-.16,0,0,0,0-.11.12-.24,0-.51c0,0,0-.08.06-.12s.22-.3,0-.45c-.06,0,0-.11,0-.14s.05,0,.08.06a.19.19,0,0,0,.21,0c.08-.11-.16-.17,0-.21s.11-.15.07-.22-.22-.21-.19-.38.2-.22.29-.33c-.11-.05-.29-.05-.23-.24s.09.06.15,0a1.1,1.1,0,0,0-.88-1c-.91-.26-1.82-.53-2.72-.83a7,7,0,0,0-3.53-.08,1.48,1.48,0,0,1,.83.87c-.29,0-.49-.27-.75-.38a.47.47,0,0,0-.65.37c0,.34-.09.68-.06,1a.22.22,0,0,1,0,.19,4.86,4.86,0,0,0-.65,1.26,2.52,2.52,0,0,0,.18,2.25c0-.13-.08-.26,0-.38L30,27.9A2.59,2.59,0,0,0,29.89,26.25Z"/><path class="cls-2" d="M29.73,21.61c.09-.25.24-.48.34-.76C29.59,21,29.8,21.35,29.73,21.61Z"/><path class="cls-5" d="M33.24,26.57c-.36-.08-.71-.34-1.08-.24a1.63,1.63,0,0,1-1.09-.07,1.14,1.14,0,0,0-.52-.05c-.08,0-.22,0-.22.08s.14.13.24.14.34-.05.46,0a3.3,3.3,0,0,0,1.11.28,2.89,2.89,0,0,0,1.46-.05C33.51,26.54,33.36,26.6,33.24,26.57Z"/><path class="cls-2" d="M32,26.82a2.13,2.13,0,0,1-1.19-.18l0,.06c.11.21.23.43.33.65a.26.26,0,0,0,.22.18,2.55,2.55,0,0,0,1.82-.18,4.65,4.65,0,0,0,.59-.49,4.39,4.39,0,0,1-1,.13C32.47,27,32.26,26.81,32,26.82Z"/><path class="cls-2" d="M10.4,34.19l.19-1.33A3.55,3.55,0,0,1,10.4,34.19Zm-4-1.55a6.43,6.43,0,0,1,1.81-2.88A16.22,16.22,0,0,0,6.4,32.64Zm4-2.81A1.75,1.75,0,0,0,8.84,29a2.23,2.23,0,0,0-1.66,1,4.51,4.51,0,0,0-.9,3.18c.28-.22.51-.42.76-.6a5.38,5.38,0,0,1,1.86-1,.78.78,0,0,1,1,.44,1.51,1.51,0,0,1,0,1.18,2.77,2.77,0,0,1-.82,1.18c-.38.36-.76.71-1.13,1.08s-.28.58.18.72a1.64,1.64,0,0,0,1.37-.17,3.63,3.63,0,0,0,1.7-3.34,6.56,6.56,0,0,0-.09-.76A5.5,5.5,0,0,0,10.45,29.83Z"/><path class="cls-3" d="M31.2,37.61A2.23,2.23,0,0,1,32.54,37ZM28.89,38c1.05-.51,2.13-.94,3.17-1.46A7.92,7.92,0,0,1,28.89,38Zm3-3a1.79,1.79,0,0,1-1.11.2Zm-2,.21a1.46,1.46,0,0,1,.85-.25c.18,0,.34-.1.55,0-.39.16-.78.17-1.16.29.06.13.24.2.14.35s-.12.2-.26.18-.16-.11-.22-.21S29.73,35.38,29.88,35.29Zm2.12,4c.16.08.18,0,.22-.12a10.72,10.72,0,0,1,1.46-2.31c.19-.22.35-.4.11-.75a6.66,6.66,0,0,1-.48-1.27,1.72,1.72,0,0,0-.4-.74c-.15-.14-.26-.15-.44,0a2.55,2.55,0,0,1-2.28.65.64.64,0,0,0-.83.48,3.93,3.93,0,0,0-.07.6A2.06,2.06,0,0,1,28.93,37a4.1,4.1,0,0,1-.53.64.49.49,0,0,0-.14.4c0,.09.2.08.32.09a1.5,1.5,0,0,1,.29.06,3.41,3.41,0,0,0,1.13.2,6.56,6.56,0,0,0,.95-.23l1-.32a3.59,3.59,0,0,1-1.89.66A12.33,12.33,0,0,1,32,39.29Z"/><path class="cls-6" d="M34,32a3.18,3.18,0,0,1-1.22.74Zm1.22-1.57,0,0-.78.79,0,0ZM30,32.33a.55.55,0,0,0-.12.7,4,4,0,0,1,.35,1.36c0,.22.09.22.26.15s.63-.19.93-.3a1.65,1.65,0,0,0,1.09-.89.43.43,0,0,1,.49-.28h.16a6.41,6.41,0,0,0,2.2-1,1.62,1.62,0,0,0,.67-.91,6.65,6.65,0,0,1,.23-.76c.09-.27.19-.53.29-.83a4,4,0,0,1-1.43.76l.29-.25c.09-.09.24-.11.27-.29a17,17,0,0,0-2,1.08,14.47,14.47,0,0,1-1.85,1c-.35.16-.46.13-.65-.16a2.43,2.43,0,0,1-.41,1.21A4.08,4.08,0,0,1,31,31.75,1.37,1.37,0,0,0,30,32.33Z"/><path class="cls-3" d="M35,15.78a3.35,3.35,0,0,0-1.08.87,3.5,3.5,0,0,1-1.09.93.63.63,0,0,1-.45.06,2.42,2.42,0,0,0,1.13-.94A3,3,0,0,1,37,15.33,7,7,0,0,0,35,15.78Zm4.86,4.81a20.18,20.18,0,0,0-.62-2.2,6.13,6.13,0,0,0-1.09-2A5.14,5.14,0,0,1,39.83,20.59Zm-.72,1.22c-.19,0-.16-.21-.19-.33a.4.4,0,0,1,.3-.41c.16,0,.1.17.15.24S39.37,21.78,39.11,21.81ZM38.67,21c-.05.15-.09.33-.3.3s-.13-.2-.14-.32a.4.4,0,0,1,0-.19c.05-.13.08-.27.24-.25s.19.17.17.32A.65.65,0,0,1,38.67,21ZM32,20.61a14.74,14.74,0,0,1,2.71.52c1.15.33,2.23.84,3.34,1.28a5.13,5.13,0,0,1,2,1.22c.06.06.12.09.2,0A5.13,5.13,0,0,0,39,22.24a1.65,1.65,0,0,1,.87.23c0-.52.09-1,.11-1.51a11.19,11.19,0,0,0,0-1.83,5.61,5.61,0,0,0-.69-1.95,4.5,4.5,0,0,0-1.94-1.8c.28-.06.51.1.79.21a2.88,2.88,0,0,0-.81-1,1.23,1.23,0,0,0-.82-.39,4.27,4.27,0,0,0-1.68.44,5.32,5.32,0,0,0-1.6,1.18,3.54,3.54,0,0,1,1.13-1.24c-.78.4-1.22.62-2.17,2.62a3.92,3.92,0,0,1,.33-1.05,7.36,7.36,0,0,1,.59-.91,7.9,7.9,0,0,0-3.49,4.52l.75-.12v0l-.79.4a.94.94,0,0,0,.17,0,9.51,9.51,0,0,1,2-.26,7.52,7.52,0,0,1,2,.16,5,5,0,0,1,2.69,1.23l-1-.4a9.34,9.34,0,0,0-3.33-.72,10.1,10.1,0,0,0-1.82.1,7.7,7.7,0,0,0-2.52.78.79.79,0,0,0-.38.42c.29-.13.53-.26.78-.35A8.91,8.91,0,0,1,32,20.61Z"/><path class="cls-2" d="M37.79,23.61a.1.1,0,0,0,.11.13,1.38,1.38,0,0,0,.27-.08c0-.09-.06-.13-.14-.14S37.83,23.5,37.79,23.61Z"/><path class="cls-3" d="M21.91,47.28c0,.26-.05.41.35.41a20.54,20.54,0,0,1,3,.18c.59.09,1.19.18,1.77.32a9.32,9.32,0,0,1,1.72.55.16.16,0,0,0,.22-.05c.07-.1,0-.15-.08-.21s-.35-.26-.54-.38a17.46,17.46,0,0,1-2.09-1.56c-.27-.24-.51-.51-.79-.74A15.79,15.79,0,0,1,24,44.25c-.4-.41-.76-.85-1.15-1.3a10.37,10.37,0,0,0-.46,1.47A15.38,15.38,0,0,0,21.91,47.28Z"/><path class="cls-3" d="M17.45,46.33a2.06,2.06,0,0,0,1.64-2.26A3.77,3.77,0,0,1,17.45,46.33Z"/><path class="cls-2" d="M38.71,46.53s-.09,0-.06.1a.18.18,0,0,0,.09.1c.07,0,.08,0,.11-.09s.13-.2.2-.3l0,0Z"/><path class="cls-1" d="M20.9,36.78,22,38.56A5.42,5.42,0,0,1,20.9,36.78Zm1.56,1.45a3.58,3.58,0,0,1-1.2-1.88C21.67,37,22.05,37.61,22.46,38.23Zm.24-.74a2.5,2.5,0,0,1-.91-1.22Zm.73,3A3.55,3.55,0,0,0,24.28,39a.75.75,0,0,0-.14-.77,1.88,1.88,0,0,1-.62,1.57c.23-.67.48-1.28.07-1.9a2.8,2.8,0,0,1-.2,1.82A2.71,2.71,0,0,1,22,40.86a3,3,0,0,0,1.45-2c.07-.41.2-.88-.2-1.21a4.89,4.89,0,0,1-.71-.73,6.29,6.29,0,0,1-.87-1.36,4.31,4.31,0,0,0-.86-1.69,1.56,1.56,0,0,1-.23-.28c-.24-.32-.32-.72-.53-1-.39-.58-.74-.8-1.25-.22a4.7,4.7,0,0,1-.65.61.85.85,0,0,0-.38.52c0,.15,0,.39.06.39.25,0,.5.17.76,0a.37.37,0,0,0,.21-.52c.16.17.24.42.47.47s.43,0,.64.09c-.12.06-.23,0-.35,0-.53.07-1,.22-1.57.26s-.6.31-.54.77c0,.13,0,.22.24.17A3.28,3.28,0,0,1,19,35l-1.51.48a.46.46,0,0,0-.35.6.53.53,0,0,1,0,.16c0,.19.05.22.23.17a2.43,2.43,0,0,0,1.23-.48l-.19.24a1.29,1.29,0,0,1,.44-.11,4,4,0,0,1-1.49.76c-.23.07-.34.24-.26.44a2,2,0,0,0,1,1.11c.07,0,.2.1.16-.13a.44.44,0,0,0-.29-.38c-.11-.05-.27-.07-.3-.23.43-.1.84.12,1.31,0-.39.38.1.28.16.41-.17.18-.36,0-.57,0a3.81,3.81,0,0,0,2.51,2.37l-.17,0c-.07,0-.17-.05-.2,0s.1.13.17.16a2,2,0,0,0,.69.14c-.06.15-.25.11-.28.22.26.42.58.18.88.1s.37-.14.56-.21a1.39,1.39,0,0,1-.41.27c-.39.17-.79.42-1.17,0,0,0-.07,0-.1,0a.11.11,0,0,0,0,.08c.07.18.17.37.38.39a1.5,1.5,0,0,0,1-.22A4.08,4.08,0,0,0,23.43,40.46Z"/><path class="cls-3" d="M17.79,44c.15-.37.31-.73.47-1.09a3.13,3.13,0,0,0,.26-1.74c-.12-.7-.44-1.33-.61-2a.7.7,0,0,0-.21-.38c.1.52.19,1,.27,1.45a3.26,3.26,0,0,1,0,1.39,4.81,4.81,0,0,1-1.53,2A12.94,12.94,0,0,1,15,44.78a1.8,1.8,0,0,1-1.39.57c0,.08.08.09.12.13A5.31,5.31,0,0,0,15,46a1,1,0,0,0,.62,0,5.1,5.1,0,0,0,2-1.15l.85-.71a5.86,5.86,0,0,1-2.51,2c.14,0,.23.1.35.08a2.93,2.93,0,0,0,1.57-.85A5.3,5.3,0,0,0,19,43.53a4.13,4.13,0,0,0-.27-2.93A3.48,3.48,0,0,1,17.79,44Z"/><path class="cls-3" d="M19.8,40.23a3.54,3.54,0,0,1-.78-.54,9.92,9.92,0,0,1,.33,3.41.27.27,0,0,0,.11-.19,20.34,20.34,0,0,1,.4-2.48C19.88,40.33,19.9,40.26,19.8,40.23Z"/><path class="cls-2" d="M40.31,44.75c-.58.59-1.28,1-1.83,1.66A4.79,4.79,0,0,0,40.31,44.75Z"/><path class="cls-3" d="M29.18,48.66a.2.2,0,0,0-.09.06c-.09.25-.26.16-.41.1a16.15,16.15,0,0,0-4.4-.94A19.07,19.07,0,0,0,22,47.77c-.18,0-.21-.06-.21-.23a10.36,10.36,0,0,1,.11-1.12,16.19,16.19,0,0,1,.52-2.49c.09-.31.2-.62.31-.93a.27.27,0,0,0-.19-.35c-.1,0-.11.09-.13.16-.21.78-.42,1.56-.6,2.35a13.09,13.09,0,0,0-.35,2.64c0,.34,0,.37.38.41.55.07,1.09.17,1.64.21a2.7,2.7,0,0,0,.86,0l-.7-.21a3.22,3.22,0,0,1,1.24.05c1.12.28,2.2.72,3.34.93a6.43,6.43,0,0,0,1,.14.4.4,0,0,0,.39-.31S29.23,48.66,29.18,48.66Z"/><path class="cls-2" d="M18.91,25.75c.13,0,.28.13.46,0,.57-.52,1.18-1,1.78-1.52.29-.23.28-.27.06-.58s-.21-.14-.34,0l-1.15.89-1.61,1.26A2.39,2.39,0,0,1,18.91,25.75Z"/><path class="cls-3" d="M32.17,40.44a25.09,25.09,0,0,1-2.59-.32,20,20,0,0,1-3.23-.79c-.43-.14-.86-.29-1.28-.47-.18-.07-.19.06-.23.15s-.2.23,0,.38.11,0,.15,0,.16-.13.31-.08.54.29.83.41a16.46,16.46,0,0,0,1.93.7,8.49,8.49,0,0,0,2,.37,4.64,4.64,0,0,0,1.29,0c.25,0,.36,0,.26.31,0,.12,0,.25-.09.37s0,.13.06.1.42,0,.5-.27.15-.41.23-.61S32.31,40.45,32.17,40.44Z"/><path class="cls-3" d="M31.34,40.84a4.76,4.76,0,0,1-1.41,0,7.62,7.62,0,0,1-1.64-.29,12.59,12.59,0,0,1-3-1.16c-.08,0-.17-.11-.26,0s0,.19.09.25.43.37.66.54a6.69,6.69,0,0,0,2.12,1.1c.55.15,1.11.2,1.65.39a1.92,1.92,0,0,0,1,.11c.65-.15.83-.27.88-.78C31.48,40.87,31.45,40.82,31.34,40.84Z"/><path class="cls-3" d="M41.49,39.5a8.79,8.79,0,0,1-.84,3.29C40.89,41.68,41.15,40.59,41.49,39.5Zm-2.18-.73a1.67,1.67,0,0,1,1-.14ZM38.7,41.2a2.07,2.07,0,0,1,.62-.73A8.83,8.83,0,0,1,38.7,41.2ZM39,38.61A1.69,1.69,0,0,1,40,38.34Zm-1.23.09a3.13,3.13,0,0,1,1.9-.52C39,38.33,38.35,38.51,37.72,38.7Zm-1.8.73a5.27,5.27,0,0,1,2.59-1.32C37.65,38.57,36.77,39,35.92,39.43ZM41.56,42l.08.06c-.28.5-.56,1-.85,1.49a5.38,5.38,0,0,0,1.3-1.95,3.36,3.36,0,0,0,.27-1.5A11.77,11.77,0,0,0,42,38.24a3.54,3.54,0,0,0-2.53-2.83.67.67,0,0,0-.57.08,9,9,0,0,0-2.11,1.82c-.33.34-.62.73-.93,1.09a4.24,4.24,0,0,1,3.16-.88,4.22,4.22,0,0,0-1.36.27A6.72,6.72,0,0,0,35,39.73c-.05.05-.12.11-.06.19s.11,0,.18,0c.36-.15.73-.32,1.11-.46A4.36,4.36,0,0,1,39,39.31c-.36,0-.71,0-1.07,0a8.71,8.71,0,0,0-1.75.4,16.32,16.32,0,0,0-2.33,1.16c-.27.14-.55.25-.83.38a5.76,5.76,0,0,1,.55.21,4.53,4.53,0,0,1,1.57,1.28l.08.09c.11-.2.13,0,.15,0,.19.44.38.87.56,1.31.24.6.47,1.21.72,1.87a6.5,6.5,0,0,1,1.44-3.29A11.53,11.53,0,0,0,37,46.4a36.05,36.05,0,0,0,3.63-6.3,14.74,14.74,0,0,1-.9,2.31A23.47,23.47,0,0,1,37,46.68c-.11.14-.28.28-.21.51A17.54,17.54,0,0,0,41.56,42Z"/><path class="cls-4" d="M35.14,37.9c-.53.88-1.09,1.75-1.59,2.66A6.26,6.26,0,0,1,35.14,37.9Zm4-3.63c-.85.3-1.7.55-2.55.85A4.69,4.69,0,0,1,39.12,34.27Zm-5.44,6.38c.81-1.11,1.49-2.3,2.38-3.35A8.26,8.26,0,0,1,37.3,36a13.94,13.94,0,0,1,2.45-1.44,12.45,12.45,0,0,0-2.15.59A7.63,7.63,0,0,1,40,34.29c-.51-.21-1-.27-1.46-.45a1,1,0,0,0-.9,0,8.92,8.92,0,0,0-3.18,2.83c-.64.83-1.11,1.78-1.67,2.67-.26.41-.43.56-.78.44-.76-.27-1.55-.4-2.32-.61s-1.56-.46-2.36-.62-1.36-.18-2-.26c-.26,0-.53,0-.83-.06a1.67,1.67,0,0,1,.18.94,1.31,1.31,0,0,0,.1-.32c0-.26.14-.32.4-.25s.53.13.78.22a19.87,19.87,0,0,0,6.59,1.31c.24,0,.26.11.18.3s-.28.48-.41.74a1.78,1.78,0,0,0,.35,0A1.92,1.92,0,0,0,33.68,40.65Z"/><path class="cls-6" d="M27.15,45.5a8.69,8.69,0,0,1,1.6.23C28.36,46.07,27.33,46,27.15,45.5Zm2,.6a1.74,1.74,0,0,1-1,.15C28.53,46.07,28.87,46.22,29.17,46.1Zm1.82.57a.84.84,0,0,1-.63.37A1.77,1.77,0,0,1,31,46.67Zm1.29-.05a1.58,1.58,0,0,1-1,.66A3.44,3.44,0,0,1,32.28,46.62Zm-1.87,1.77c.67,0,1.36.33,2-.23C32.15,48.8,31.51,48.88,30.41,48.39Zm-4.64-7.86a9.34,9.34,0,0,1-1.21-1.15l-.67,1.08a3.1,3.1,0,0,1-1.19,1.27c-.15.07-.13.15-.05.28a14.3,14.3,0,0,0,1.64,2,25.37,25.37,0,0,0,1.86,1.88c.5.44,1,.87,1.53,1.27s1.12.71,1.65,1.12a6.11,6.11,0,0,0,2.36,1.18.49.49,0,0,0,.49-.14,2.21,2.21,0,0,0,.38-.73A3.38,3.38,0,0,0,33,47a7,7,0,0,1,0-.91,4.26,4.26,0,0,0,0-1.51,1.8,1.8,0,0,0-1.34-1.53l.54.65c-.33-.24-.63-.5-.94-.74a5.42,5.42,0,0,0-2.73-1.24A6.35,6.35,0,0,1,25.77,40.53Z"/><path class="cls-6" d="M14.53,41.1a1.46,1.46,0,0,1-.84-.18C14,41,14.26,41,14.53,41.1Zm-.78.31a4.05,4.05,0,0,1,.85.12A1,1,0,0,1,13.75,41.41Zm.19.47a1.69,1.69,0,0,1,1-.13A.87.87,0,0,1,13.94,41.88Zm.41.45c.24-.13.49-.06.72-.13A.62.62,0,0,1,14.35,42.33Zm.18.45a2.29,2.29,0,0,1,.87-.28A.93.93,0,0,1,14.53,42.78Zm.29.34a1,1,0,0,1,.55-.26A.57.57,0,0,1,14.82,43.12ZM16,42.89a.84.84,0,0,1-.91.51A2.14,2.14,0,0,1,16,42.89Zm-1.86,2c.68-.43,1.36-.86,2-1.31a5.44,5.44,0,0,0,1.12-1.27,2.24,2.24,0,0,0,.4-1.84,15.72,15.72,0,0,1-.22-1.66A1.74,1.74,0,0,0,17,37.75c-.24-.3-.5-.6-.25-1a.24.24,0,0,0-.06-.29c-.35-.37-.7-.75-1-1.15s-.79-.89-1.15-1.36A3.28,3.28,0,0,0,13.6,33c-.14-.08-.23-.1-.24.12a5.55,5.55,0,0,1-.12.9c-.24,1.06-.52,2.12-.75,3.19a12.35,12.35,0,0,0-.36,2.59,2.16,2.16,0,0,0,.07.81,3.79,3.79,0,0,0,.23,1.1c.45,1,.88,2,1.27,3.05C13.78,45,13.92,45.05,14.13,44.92Z"/><path class="cls-2" d="M17.57,27.23a.43.43,0,0,0,.16-.34,1.51,1.51,0,0,1,.1-.78c.06-.14.24-.19.26-.35a8.72,8.72,0,0,1-.71.53A.67.67,0,0,0,17,27a1.14,1.14,0,0,1-.37.86,8.83,8.83,0,0,1-1.4.87c-.16.09-.35.14-.51.25s-.51.32-.78.14-.19,0-.28,0a.34.34,0,0,0,.05-.52c-.12-.13-.21.1-.33.13h-.05s0-.08.06-.09c.33-.16.28-.39.13-.64a.11.11,0,0,1,0-.08c0-.19-.13-.19-.28-.14,0-.09.2-.15.08-.26s-.16.05-.23.1l-1.39,1.07-1.1.87s-.13.08-.08.15.12,0,.17,0,.06,0,.09,0c-.12.18.08.64.33.78a.46.46,0,0,0,.17.5s-.06.09,0,.13a4.2,4.2,0,0,1,.17,1.35l.41-.3,3.2-2.7Z"/><path class="cls-2" d="M13.29,44.89a4.77,4.77,0,0,0-.34-1A1.65,1.65,0,0,0,13.29,44.89Z"/><path d="M18.11,25.74h0v0h0Z"/><path d="M29.73,21.61a.08.08,0,0,0,0,.05A.17.17,0,0,0,29.73,21.61Z"/><path d="M38.48,46.41c.55-.62,1.25-1.07,1.83-1.66A4.79,4.79,0,0,1,38.48,46.41Zm.37.23s0,.12-.11.09a.18.18,0,0,1-.09-.1c0-.05,0-.08.06-.1l.3-.22,0,0C39,46.44,38.91,46.54,38.85,46.64Zm-2.06.55c-.07-.23.1-.37.21-.51a23.47,23.47,0,0,0,2.7-4.27,14.74,14.74,0,0,0,.9-2.31A36.05,36.05,0,0,1,37,46.4a11.53,11.53,0,0,1,1.13-3.65A6.5,6.5,0,0,0,36.66,46c-.25-.66-.48-1.27-.72-1.87-.18-.44-.37-.87-.56-1.31,0,0,0-.23-.15,0l-.08-.09a4.53,4.53,0,0,0-1.57-1.28,5.76,5.76,0,0,0-.55-.21c.28-.13.56-.24.83-.38a16.32,16.32,0,0,1,2.33-1.16,8.71,8.71,0,0,1,1.75-.4c.36,0,.71,0,1.07,0a4.36,4.36,0,0,0-2.83.13c-.38.14-.75.31-1.11.46-.07,0-.13.08-.18,0s0-.14.06-.19a6.72,6.72,0,0,1,2.74-1.94,4.22,4.22,0,0,1,1.36-.27,4.24,4.24,0,0,0-3.16.88c.31-.36.6-.75.93-1.09a9,9,0,0,1,2.11-1.82.67.67,0,0,1,.57-.08A3.54,3.54,0,0,1,42,38.24a11.77,11.77,0,0,1,.33,1.85,3.36,3.36,0,0,1-.27,1.5,5.38,5.38,0,0,1-1.3,1.95c.29-.49.57-1,.85-1.49L41.56,42A17.54,17.54,0,0,1,36.79,47.19Zm-4.14-6a1.78,1.78,0,0,1-.35,0c.13-.26.3-.48.41-.74s.06-.3-.18-.3a19.87,19.87,0,0,1-6.59-1.31c-.25-.09-.52-.15-.78-.22s-.35,0-.4.25a1.31,1.31,0,0,1-.1.32,1.67,1.67,0,0,0-.18-.94c.3,0,.57,0,.83.06.68.08,1.37.13,2,.26s1.58.39,2.36.62,1.56.34,2.32.61c.35.12.52,0,.78-.44.56-.89,1-1.84,1.67-2.67a8.92,8.92,0,0,1,3.18-2.83,1,1,0,0,1,.9,0c.45.18.95.24,1.46.45a7.63,7.63,0,0,0-2.42.89,12.45,12.45,0,0,1,2.15-.59A13.94,13.94,0,0,0,37.3,36a8.26,8.26,0,0,0-1.24,1.27c-.89,1.05-1.57,2.24-2.38,3.35A1.92,1.92,0,0,1,32.65,41.17Zm-.6.06c-.08.24-.33.2-.5.27s-.09,0-.06-.1.05-.25.09-.37c.1-.27,0-.34-.26-.31a4.64,4.64,0,0,1-1.29,0,8.49,8.49,0,0,1-2-.37,16.46,16.46,0,0,1-1.93-.7c-.29-.12-.53-.31-.83-.41s-.23,0-.31.08-.06.14-.15,0,0-.26,0-.38.05-.22.23-.15c.42.18.85.33,1.28.47a20,20,0,0,0,3.23.79,25.09,25.09,0,0,0,2.59.32c.14,0,.16.06.11.18S32.13,41,32.05,41.23ZM31.47,41c0,.51-.23.63-.88.78a1.92,1.92,0,0,1-1-.11c-.54-.19-1.1-.24-1.65-.39a6.69,6.69,0,0,1-2.12-1.1c-.23-.17-.45-.36-.66-.54s-.19-.1-.09-.25.18-.06.26,0a12.59,12.59,0,0,0,3,1.16,7.62,7.62,0,0,0,1.64.29,4.76,4.76,0,0,0,1.41,0C31.45,40.82,31.48,40.87,31.47,41Zm-.18,2c.31.24.61.5.94.74l-.54-.65A1.8,1.8,0,0,1,33,44.6a4.26,4.26,0,0,1,0,1.51A7,7,0,0,0,33,47a3.38,3.38,0,0,1-.43,1.57,2.21,2.21,0,0,1-.38.73.49.49,0,0,1-.49.14,6.11,6.11,0,0,1-2.36-1.18c-.53-.41-1.12-.72-1.65-1.12s-1-.83-1.53-1.27A25.37,25.37,0,0,1,24.29,44a14.3,14.3,0,0,1-1.64-2c-.08-.13-.1-.21.05-.28a3.1,3.1,0,0,0,1.19-1.27l.67-1.08a9.34,9.34,0,0,0,1.21,1.15,6.35,6.35,0,0,0,2.79,1.21A5.42,5.42,0,0,1,31.29,43Zm-8.45,0c.39.45.75.89,1.15,1.3A15.79,15.79,0,0,0,25.5,45.8c.28.23.52.5.79.74a17.46,17.46,0,0,0,2.09,1.56c.19.12.36.25.54.38s.15.11.08.21a.16.16,0,0,1-.22.05,9.32,9.32,0,0,0-1.72-.55c-.58-.14-1.18-.23-1.77-.32a20.54,20.54,0,0,0-3-.18c-.4,0-.37-.15-.35-.41a15.38,15.38,0,0,1,.47-2.86A10.37,10.37,0,0,1,22.84,43Zm6.37,6.43a6.43,6.43,0,0,1-1-.14c-1.14-.21-2.22-.65-3.34-.93a3.22,3.22,0,0,0-1.24-.05l.7.21a2.7,2.7,0,0,1-.86,0c-.55,0-1.09-.14-1.64-.21-.34,0-.39-.07-.38-.41a13.09,13.09,0,0,1,.35-2.64c.18-.79.39-1.57.6-2.35,0-.07,0-.21.13-.16a.27.27,0,0,1,.19.35c-.11.31-.22.62-.31.93a16.19,16.19,0,0,0-.52,2.49,10.36,10.36,0,0,0-.11,1.12c0,.17,0,.23.21.23a19.07,19.07,0,0,1,2.27.11,16.15,16.15,0,0,1,4.4.94c.15.06.32.15.41-.1a.2.2,0,0,1,.09-.06c.05,0,.44.37.42.41A.4.4,0,0,1,29.21,49.38Zm-7.75-7.77c-.21,0-.31-.21-.38-.39a.11.11,0,0,1,0-.08s.07,0,.1,0c.38.44.78.19,1.17,0a1.39,1.39,0,0,0,.41-.27c-.19.07-.37.16-.56.21s-.62.32-.88-.1c0-.11.22-.07.28-.22a2,2,0,0,1-.69-.14c-.07,0-.19,0-.17-.16s.13,0,.2,0l.17,0a3.81,3.81,0,0,1-2.51-2.37c.21,0,.4.14.57,0-.06-.13-.55,0-.16-.41-.47.13-.88-.09-1.31,0,0,.16.19.18.3.23a.44.44,0,0,1,.29.38c0,.23-.09.17-.16.13a2,2,0,0,1-1-1.11c-.08-.2,0-.37.26-.44a4,4,0,0,0,1.49-.76,1.29,1.29,0,0,0-.44.11l.19-.24a2.43,2.43,0,0,1-1.23.48c-.18.05-.24,0-.23-.17a.53.53,0,0,0,0-.16.46.46,0,0,1,.35-.6L19,35a3.28,3.28,0,0,0-1.3.11c-.2,0-.22,0-.24-.17-.06-.46.09-.74.54-.77s1-.19,1.57-.26c.12,0,.23.05.35,0-.21-.13-.43,0-.64-.09s-.31-.3-.47-.47a.37.37,0,0,1-.21.52c-.26.15-.51,0-.76,0,0,0-.09-.24-.06-.39a.85.85,0,0,1,.38-.52,4.7,4.7,0,0,0,.65-.61c.51-.58.86-.36,1.25.22.21.32.29.72.53,1a1.56,1.56,0,0,0,.23.28,4.31,4.31,0,0,1,.86,1.69,6.29,6.29,0,0,0,.87,1.36,4.89,4.89,0,0,0,.71.73c.4.33.27.8.2,1.21a3,3,0,0,1-1.45,2,2.71,2.71,0,0,0,1.4-1.13,2.8,2.8,0,0,0,.2-1.82c.41.62.16,1.23-.07,1.91a1.91,1.91,0,0,0,.62-1.58.75.75,0,0,1,.14.77,3.55,3.55,0,0,1-.85,1.45,4.08,4.08,0,0,1-1,.93A1.5,1.5,0,0,1,21.46,41.61Zm-1.6-1.18a20.34,20.34,0,0,0-.4,2.48.27.27,0,0,1-.11.19A9.92,9.92,0,0,0,19,39.69a3.54,3.54,0,0,0,.78.54C19.9,40.26,19.88,40.33,19.86,40.43ZM19,43.53a5.3,5.3,0,0,1-1.09,1.88,2.93,2.93,0,0,1-1.57.85c-.12,0-.21,0-.35-.08a5.86,5.86,0,0,0,2.51-2l-.85.71a5.1,5.1,0,0,1-2,1.15A1,1,0,0,1,15,46a5.31,5.31,0,0,1-1.25-.54s-.1,0-.12-.13A1.8,1.8,0,0,0,15,44.78a12.94,12.94,0,0,0,1.39-1.16,4.81,4.81,0,0,0,1.53-2,3.26,3.26,0,0,0,0-1.39c-.08-.47-.17-.93-.27-1.45a.7.7,0,0,1,.21.38c.17.68.49,1.31.61,2a3.13,3.13,0,0,1-.26,1.74c-.16.36-.32.72-.47,1.09a3.48,3.48,0,0,0,.89-3.39A4.13,4.13,0,0,1,19,43.53Zm-1.5,2.8a3.77,3.77,0,0,0,1.64-2.26A2.06,2.06,0,0,1,17.45,46.33Zm-5-4.61a3.79,3.79,0,0,1-.23-1.1,2.16,2.16,0,0,1-.07-.81,12.35,12.35,0,0,1,.36-2.59c.23-1.07.51-2.13.75-3.19a5.55,5.55,0,0,0,.12-.9c0-.22.1-.2.24-.12a3.28,3.28,0,0,1,.91.91c.36.47.77.91,1.15,1.36s.69.78,1,1.15a.24.24,0,0,1,.06.29c-.25.43,0,.73.25,1a1.74,1.74,0,0,1,.44,1.09,15.72,15.72,0,0,0,.22,1.66,2.24,2.24,0,0,1-.4,1.84,5.44,5.44,0,0,1-1.12,1.27c-.66.45-1.34.88-2,1.31-.21.13-.35.07-.43-.15C13.31,43.74,12.88,42.72,12.43,41.72ZM13,43.93a4.77,4.77,0,0,1,.34,1A1.65,1.65,0,0,1,13,43.93ZM11.82,32.08l-.41.3A4.2,4.2,0,0,0,11.24,31s0-.09,0-.13a.46.46,0,0,1-.17-.5c-.25-.14-.45-.6-.33-.78,0,0-.07,0-.09,0s-.13.07-.17,0,0-.12.08-.15l1.1-.87,1.39-1.07c.07-.05.14-.18.23-.1s-.05.17-.08.26c.15-.05.26-.05.28.14a.11.11,0,0,0,0,.08c.15.25.2.48-.13.64,0,0,0,.06-.06.09h.05c.12,0,.21-.26.33-.13a.34.34,0,0,1-.05.52c.09,0,.16,0,.28,0s.55,0,.78-.14.35-.16.51-.25a8.83,8.83,0,0,0,1.4-.87A1.14,1.14,0,0,0,17,27a.67.67,0,0,1,.34-.68,8.72,8.72,0,0,0,.71-.53v0h0l1.61-1.26,1.15-.89c.13-.11.21-.14.34,0s.23.35-.06.58c-.6.5-1.21,1-1.78,1.52-.18.16-.33.05-.46,0a2.39,2.39,0,0,0-.8,0h0c0,.16-.2.21-.26.35a1.51,1.51,0,0,0-.1.78.43.43,0,0,1-.16.34L15,29.38ZM9.53,35.91a1.64,1.64,0,0,1-1.37.17c-.46-.14-.53-.38-.18-.72s.75-.72,1.13-1.08a2.77,2.77,0,0,0,.82-1.18,1.51,1.51,0,0,0,0-1.18.78.78,0,0,0-1-.44A5.38,5.38,0,0,0,7,32.5c-.25.18-.48.38-.76.6a4.51,4.51,0,0,1,.9-3.18,2.23,2.23,0,0,1,1.66-1,1.75,1.75,0,0,1,1.61.88,5.5,5.5,0,0,1,.69,2,6.56,6.56,0,0,1,.09.76A3.63,3.63,0,0,1,9.53,35.91Zm-2.18.37a.68.68,0,0,1,.71,0C7.79,36.44,7.57,36.31,7.35,36.28Zm-.5-.41a3.74,3.74,0,0,0-.58,0c-.14,0-.23,0-.3-.23h.89a.78.78,0,0,0,.68-.33,8.73,8.73,0,0,1,1.12-1.07,2.73,2.73,0,0,0,1.16-1.62.81.81,0,0,0-.23-.7.7.7,0,0,0-.75-.21,3.38,3.38,0,0,0-1.29.85c-.34.31-.66.66-1,.95-.06.05-.14.15-.23.07s0-.19,0-.27a8.94,8.94,0,0,1,2.33-1.62.79.79,0,0,1,.89.07,1,1,0,0,1,.3,1,2.64,2.64,0,0,1-1,1.47,11.23,11.23,0,0,0-1.28,1.3A.73.73,0,0,1,6.85,35.87Zm.31-1.35a10.88,10.88,0,0,0,1.46-1.33c.15-.2.25-.31.5-.23a.51.51,0,0,0,.53-.2,1.22,1.22,0,0,1-.39.7c-.47.54-1.1.9-1.59,1.42l-.17.21a.91.91,0,0,1-1,.4,3.33,3.33,0,0,0-.45,0A12,12,0,0,1,7.16,34.52ZM6.1,33c0,.13,0,.27-.19.25s-.32,0-.32-.26a5.46,5.46,0,0,1,1.08-3.21A2.28,2.28,0,0,1,8,29a4.07,4.07,0,0,0-1.86,2.92A6.11,6.11,0,0,0,6.1,33Zm0,.74H5.69a.26.26,0,0,1-.25-.32c0-.13.18-.06.28,0S6.16,33.41,6.11,33.74Zm7.82-5.36a5.54,5.54,0,0,1-.29-.79C14,27.74,14.05,28,13.93,28.38Zm-1.12-2.12a.43.43,0,0,1,.67,0c.36.31.72.63,1.09.93a1.05,1.05,0,0,1,.1,1.57,1,1,0,0,1-.47.2c-.11,0-.15-.05-.17-.16a5,5,0,0,1,.06-.78,1.3,1.3,0,0,0-.67-.83.41.41,0,0,0-.3.1l-.75.51A2,2,0,0,1,12.81,26.26Zm1-.73a1.65,1.65,0,0,1,1.14.39,2.71,2.71,0,0,1,.72,1.5.92.92,0,0,1-.21.92,1,1,0,0,1-.46.22,1.26,1.26,0,0,0-.25-1.5c-.25-.23-.53-.42-.79-.63s-.43-.35-.66-.53C13.54,25.78,13.6,25.54,13.86,25.53Zm1.5-1c-.16,0-.3.12-.48.05.33-.37.49-.84.83-1.19a1.23,1.23,0,0,1,1.71,0,1.44,1.44,0,0,1,.52.94.57.57,0,0,1-.25.6.79.79,0,0,1-.87.09.7.7,0,0,1-.27-.76v0c.13-.56.05-.65-.52-.56-.13,0-.31,0-.4.19a1.79,1.79,0,0,1,.61-.14c.3,0,.33.05.27.34a1.24,1.24,0,0,0,0,.77c-.23-.27-.47-.05-.68-.15A1.35,1.35,0,0,1,16.73,26c0,.35,0,.7,0,1A.91.91,0,0,1,16,28a4.76,4.76,0,0,0-.35-1.64,1.65,1.65,0,0,0-1.47-.94H14s0,0,0,0A4.18,4.18,0,0,1,15.36,24.57Zm1.48.8h.7c-.1.08-.16.15-.22.2C17,25.84,17,25.84,16.84,25.37Zm3.23-1.77a4.48,4.48,0,0,1,.47-.28c.05,0,.13-.14.21,0a.18.18,0,0,1,0,.27c-.22.18-.43.38-.66.54-1,.71-1.9,1.44-2.83,2.17l-.14.08c-.16-.28-.08-.44.17-.64Zm-1.9.06c.7-.53,1.4-1.06,2.11-1.58a1.29,1.29,0,0,1,.35-.13c-.17.18-.31.25-.39.4.19,0,.29-.2.45-.28.13.21.08.44.16.64a.18.18,0,0,1-.1.21c-.86.67-1.73,1.33-2.63,2,0-.27.15-.5.05-.74s0-.23.1-.33-.15.13-.21,0S18.11,23.71,18.17,23.66Zm2-1.85a6.18,6.18,0,0,1,.39-1.74,3.35,3.35,0,0,1,1.2-1.46,1.78,1.78,0,0,1,.54-.21,3.35,3.35,0,0,0-1.52,2.37,4.68,4.68,0,0,0-.05.74.5.5,0,0,1-.51.39A.07.07,0,0,1,20.18,21.81Zm3.15-3.36c.35.06.59.35.87.54s0,.19-.11.23c-.4.24-.79.49-1.17.76-.76.54-.79.95-.69,1.82a1.1,1.1,0,0,0,.38.77.4.4,0,0,0,.4.08c.7-.24,1.27-.72,2-1a2.62,2.62,0,0,1-2.07,2.62,1.42,1.42,0,0,1-1.37-.62,2.83,2.83,0,0,1-.67-1.76,3.84,3.84,0,0,1,1.05-3A1.61,1.61,0,0,1,23.33,18.45Zm1.07.71c0-.13.14-.11.22-.1a.2.2,0,0,1,.19.18c0,.09,0,.16-.11.21-.51.28-1,.54-1.51.84A1.53,1.53,0,0,0,22.53,22c.1.31.28.39.59.3a6.07,6.07,0,0,0,1.69-1,1.21,1.21,0,0,1,.41-.2.86.86,0,0,1-.41.43,12.46,12.46,0,0,1-1.78,1,.31.31,0,0,1-.45-.16,1.71,1.71,0,0,1,.5-2.33c.39-.26.81-.46,1.18-.75A.29.29,0,0,0,24.4,19.16ZM19.87,26.3a.92.92,0,0,1,.58,1.08,4,4,0,0,1-1.26,2.46l-.06,0s0,0-.05,0a1.36,1.36,0,0,1,.24-.38A8.86,8.86,0,0,0,20,28.18a.33.33,0,0,0,0-.27c-.08-.12-.18-.2,0-.34s-.16-.35-.37-.35a5.16,5.16,0,0,0-1.11.05h.9a.5.5,0,0,1,.38.15s.06.05,0,.05c-.17.29.23.54,0,.87a15.76,15.76,0,0,1-.95,1.5.37.37,0,0,1-.37.17,1.32,1.32,0,0,1-.91-.46.5.5,0,0,1,0-.61,3.62,3.62,0,0,1,.36-.42.79.79,0,0,0,.26-.69c.18.25.33.47.62.5a1.15,1.15,0,0,0,.74-.2,1.06,1.06,0,0,1-1.18-.22,1.06,1.06,0,0,0,1-.08A1.24,1.24,0,0,1,18,27a1.17,1.17,0,0,1,.16-.91c.16-.22.43-.12.63-.1A3.56,3.56,0,0,1,19.87,26.3Zm-.64,4.41a2.94,2.94,0,0,0-.09.71.55.55,0,0,1-.29.41A6.3,6.3,0,0,0,17.63,33c0,.06-.05.16-.14.14s0-.12-.06-.19a8.1,8.1,0,0,0-1.19-2.25c-.08.12,0,.2,0,.31a1.8,1.8,0,0,0,.09.28,9.77,9.77,0,0,0,.93,2.27.51.51,0,0,1,0,.52c-.12.18-.06.39-.07.59a2.53,2.53,0,0,1,0,.28.21.21,0,0,1-.15.15c-.07,0-.07-.07-.1-.11a22.31,22.31,0,0,0-2.14-2.42c-.16-.15-.33-.28-.5-.43a3.43,3.43,0,0,0,.77,1.2c.49.51,1,1,1.5,1.5,0,0,0,.05.05.06.35.17.35.42.21.74s0,.41,0,.67c-.55-.7-1.09-1.34-1.64-2a10,10,0,0,0,1.14.9,8.22,8.22,0,0,0-.52-.65,15.16,15.16,0,0,0-2-1.88,1.15,1.15,0,0,1-.57-1,1.87,1.87,0,0,0,0-.53c0-.12.06-.15.11-.2l1.18-1L16,28.71c.56-.46,1.11-.91,1.65-1.38.12-.09.17-.06.19.05a2,2,0,0,0,.19.39c.18.34-.06.55-.24.78s-.2.22-.28.34a.66.66,0,0,0,.24,1,1.93,1.93,0,0,0,1,.3c.26,0,.43-.19.68-.28C19.38,30.19,19.32,30.46,19.23,30.71ZM20.9,33A7.31,7.31,0,0,1,24,31.69a2.23,2.23,0,0,1,1.38.16,12.8,12.8,0,0,0-2.86,4.24A2.77,2.77,0,0,1,21.93,35a2.92,2.92,0,0,0-1.05-1.63C20.68,33.25,20.64,33.16,20.9,33Zm4.63-1a2,2,0,0,1,.55-.39c.09,0,.17-.1.19.06.29-.17.56,0,.84,0a.06.06,0,0,1,.05,0c0,.31.18.57.19.88a.29.29,0,0,1-.12.25c-.07.08-.18.13-.18.26h0l.31-.27c0,.19.09.36-.07.51a7.87,7.87,0,0,0-2,3.32c-.1.32-.23.63-.35,1s0,.25.16.3a4.46,4.46,0,0,0,1,.09,16.75,16.75,0,0,1,4.85,1l1,.36a.25.25,0,0,0,.35-.11c.35-.62.75-1.2,1.16-1.79a17.33,17.33,0,0,1,2.21-2.47s.05,0,.11,0c-.32.37-.6.73-.91,1a12.41,12.41,0,0,0-1.55,2.26,14.63,14.63,0,0,1-.79,1.25c-.13.19-.31.16-.49.11l-3.91-1a14.41,14.41,0,0,0-2.35-.39,6.71,6.71,0,0,1-1.1-.09c-.14,0-.19-.06-.14-.23a12.22,12.22,0,0,1,.9-2.43.67.67,0,0,0,.06-.15,2.24,2.24,0,0,0-.44.8A8.19,8.19,0,0,0,24.41,38c0,.06-.05.17-.16.07s-.15-.09-.19-.16c-.26-.54-.78-.84-1.14-1.29a.38.38,0,0,1-.06-.5A17.15,17.15,0,0,1,24.14,34s.08-.08.06-.15a3.86,3.86,0,0,0-.7,1,14.32,14.32,0,0,0-.76,1.45s0,.15-.11.11,0-.11,0-.17a6,6,0,0,1,.74-1.36A14.24,14.24,0,0,1,25.53,32Zm1.92,2.1c0,.07-.05.17.08.2s.14-.09.16-.16a4.36,4.36,0,0,1,.52-1.26c.21-.33.3-.34.6-.1a4.07,4.07,0,0,1,1.07,1.7c0,.07.05.13-.07.16-.51.14-.66.36-.69.91a2.32,2.32,0,0,1-.56,1.65,1.77,1.77,0,0,0-.54.73c0,.11-.19.07-.28,0a18.84,18.84,0,0,0-2.38-.27c-.12,0-.22,0-.15-.18a17,17,0,0,1,1.62-3.28l.47-.65a2.52,2.52,0,0,0,.07,1.82,5.09,5.09,0,0,1,0-2A2.63,2.63,0,0,1,27.45,34.1Zm1.51-3a3.4,3.4,0,0,0,.77-.53c.14-.13.25-.18.28.08a.35.35,0,0,0,.23.31,2.87,2.87,0,0,1,.8.51,7,7,0,0,0-1.37.34.48.48,0,0,0-.29.69c.12.4.37.73.52,1.11a1,1,0,0,1,.09.49,3.89,3.89,0,0,0-2.49-2.37A10,10,0,0,0,29,31.12Zm3.18-4.39A3.3,3.3,0,0,1,31,26.45c-.12-.07-.31,0-.46,0s-.24,0-.24-.14.14-.08.22-.08a1.14,1.14,0,0,1,.52.05,1.63,1.63,0,0,0,1.09.07c.37-.1.72.16,1.08.24.12,0,.27,0,.36.11A2.89,2.89,0,0,1,32.14,26.73Zm1,.62a2.55,2.55,0,0,1-1.82.18.26.26,0,0,1-.22-.18c-.1-.22-.22-.44-.33-.65l0-.06a2.13,2.13,0,0,0,1.19.18c.24,0,.45.18.71.17a4.39,4.39,0,0,0,1-.13A4.65,4.65,0,0,1,33.16,27.35Zm-1.54.51a1.11,1.11,0,0,1,.57,0,1.65,1.65,0,0,0,1.28-.53c.17-.15.3-.33.47-.48a1,1,0,0,1-.31.65,5.65,5.65,0,0,1-1,1.1,1.2,1.2,0,0,1-2-.73,2.6,2.6,0,0,1,.11-1.25,4.48,4.48,0,0,1,.28.71c.06.25.24.32.43.41s.29-.11.18.14C31.55,27.88,31.59,27.87,31.62,27.86ZM29.36,26.5c-.05.12,0,.25,0,.38a2.52,2.52,0,0,1-.18-2.25,4.86,4.86,0,0,1,.65-1.26.22.22,0,0,0,0-.19c0-.34.06-.68.06-1a.47.47,0,0,1,.65-.37c.26.11.46.34.75.38a1.48,1.48,0,0,0-.83-.87,7,7,0,0,1,3.53.08c.9.3,1.81.57,2.72.83a1.1,1.1,0,0,1,.88,1c-.06,0-.11-.12-.15,0s.12.19.23.24c-.09.11-.25.18-.29.33s.1.27.19.38.12.17-.07.22.09.1,0,.21a.19.19,0,0,1-.21,0s0-.12-.08-.06-.11.1,0,.14c.24.15,0,.3,0,.45s-.07.09-.06.12c.14.27.15.33,0,.51s-.07.09,0,.11.16.09.16,0,.32-.28.23-.55.09-.31.27-.38a3.23,3.23,0,0,0,.44-.27.55.55,0,0,1,.58,0,.52.52,0,0,1,.27.49,3,3,0,0,1-.15,1c-.18.65-.73.84-1.27,1-.08,0-.14,0-.35-.14-.16.46-.32.91-.49,1.36a1.78,1.78,0,0,1-1.11,1,17.88,17.88,0,0,0-2,1c-.08.05-.15.12-.27.08.12-.2.29-.37.41-.58a1.82,1.82,0,0,0-.23.15.33.33,0,0,1-.37.08c-.15-.07.09-.19,0-.28a.23.23,0,0,0-.15.14c-.16.32-.53.41-.74.67-.07.09-.22,0-.28.1-.07-.08,0-.18,0-.26-.16.12-.42,0-.5-.23a2.35,2.35,0,0,1-.05-.65c0-.1,0-.14.13-.13a.28.28,0,0,0,.28-.09,2.16,2.16,0,0,0-1.11-.13.88.88,0,0,0,.47.22c.06,0,.15,0,.11.1-.11.26-.19.54-.48.67,0,0-.33.09-.31-.19-.09,0-.12.11-.17.15-.25-.27-.11-.61-.17-.92a3,3,0,0,1-.09-.84,5.49,5.49,0,0,0,0-1.46.79.79,0,0,1,.09-.45s.06,0,.07,0,.06.29,0,.44a3,3,0,0,0,0,1.11,1.31,1.31,0,0,0,2.09.8,3.78,3.78,0,0,0,1.32-1.51c.06-.11.08-.24.21-.33a9.47,9.47,0,0,1-.88,2.76,1.21,1.21,0,0,0,.64-1.12,2.34,2.34,0,0,1,.42-1.17,3.16,3.16,0,0,0,.22-1.09c0-.08,0-.12-.11-.12a1.63,1.63,0,0,1-.74-.25,3.46,3.46,0,0,0-.65-.18,2.78,2.78,0,0,0-.63-.16c-.08,0-.2-.07-.24,0s0,.18.12.23.08,0,.07.07c-.35.14-.71.45-1-.07.09-.1.33-.05.39-.28a.73.73,0,0,1-.53,0c-.35-.15-.63.06-.94.08s-.3.18-.25.43A2.59,2.59,0,0,1,30,27.9Zm.35-4.84a.08.08,0,0,1,0-.05c.07-.26-.14-.64.34-.76-.1.28-.25.51-.34.76A.17.17,0,0,1,29.71,21.66Zm-1.5-.59c-.25.09-.49.22-.78.35a.79.79,0,0,1,.38-.42,7.7,7.7,0,0,1,2.52-.78,10.1,10.1,0,0,1,1.82-.1,9.34,9.34,0,0,1,3.33.72l1,.4A5,5,0,0,0,33.74,20a7.52,7.52,0,0,0-2-.16,9.51,9.51,0,0,0-2,.26.94.94,0,0,1-.17,0l.79-.4v0l-.75.12a7.9,7.9,0,0,1,3.49-4.52,7.36,7.36,0,0,0-.59.91,3.92,3.92,0,0,0-.33,1.05c1-2,1.39-2.22,2.17-2.62a3.54,3.54,0,0,0-1.13,1.24,5.32,5.32,0,0,1,1.6-1.18,4.27,4.27,0,0,1,1.68-.44,1.23,1.23,0,0,1,.82.39,2.88,2.88,0,0,1,.81,1c-.28-.11-.51-.27-.79-.21a4.5,4.5,0,0,1,1.94,1.8A5.61,5.61,0,0,1,40,19.13,11.19,11.19,0,0,1,40,21c0,.5-.1,1-.11,1.51a1.65,1.65,0,0,0-.87-.23,5.13,5.13,0,0,1,1.2,1.42c-.08.06-.14,0-.2,0a5.13,5.13,0,0,0-2-1.22c-1.11-.44-2.19-.95-3.34-1.28A14.74,14.74,0,0,0,32,20.61,8.91,8.91,0,0,0,28.21,21.07Zm10,2.59a1.38,1.38,0,0,1-.27.08.1.1,0,0,1-.11-.13c0-.11.15-.09.24-.09S38.15,23.57,38.17,23.66ZM40,25c-.1.08-.23.12-.31.28-.11-.4-.17-.74-.56-.87-.05,0-.07-.07-.1-.13a6.09,6.09,0,0,0-1.18-1.59.15.15,0,0,1,0-.11l.82.42s0,0,0,0c.74.19,1,.83,1.37,1.38A.4.4,0,0,1,40,25Zm-9.17,8a2.43,2.43,0,0,0,.41-1.21c.19.29.3.32.65.16a14.47,14.47,0,0,0,1.85-1,17,17,0,0,1,2-1.08c0,.18-.18.2-.27.29l-.29.25a4,4,0,0,0,1.43-.76c-.1.3-.2.56-.29.83a6.65,6.65,0,0,0-.23.76,1.62,1.62,0,0,1-.67.91,6.41,6.41,0,0,1-2.2,1H33a.43.43,0,0,0-.49.28,1.65,1.65,0,0,1-1.09.89c-.3.11-.62.19-.93.3s-.23.07-.26-.15A4,4,0,0,0,29.88,33a.55.55,0,0,1,.12-.7,1.37,1.37,0,0,1,.95-.58A4.08,4.08,0,0,0,30.8,32.92ZM31,38.14a6.56,6.56,0,0,1-.95.23,3.41,3.41,0,0,1-1.13-.2,1.5,1.5,0,0,0-.29-.06c-.12,0-.31,0-.32-.09a.49.49,0,0,1,.14-.4,4.1,4.1,0,0,0,.53-.64,2.06,2.06,0,0,0,.36-1.15,3.93,3.93,0,0,1,.07-.6.64.64,0,0,1,.83-.48,2.55,2.55,0,0,0,2.28-.65c.18-.15.29-.14.44,0a1.72,1.72,0,0,1,.4.74,6.66,6.66,0,0,0,.48,1.27c.24.35.08.53-.11.75a10.72,10.72,0,0,0-1.46,2.31c0,.08-.06.2-.22.12a12.33,12.33,0,0,0-1.9-.81A3.59,3.59,0,0,0,32,37.82Zm5.75-6.61a3,3,0,0,1,0,1.5,4.69,4.69,0,0,1-.91,1.48A19.94,19.94,0,0,1,34.15,36c-.12.11-.13,0-.17-.06a4.69,4.69,0,0,1-.23-1.1,2.79,2.79,0,0,0-.84-1.47,6.69,6.69,0,0,0,1.85-.46,6,6,0,0,0,1.36-.69.7.7,0,0,0,.25-.77,1.66,1.66,0,0,1,0-.88A3,3,0,0,1,36.7,31.53ZM37,33.87c.09-.16.15-.26.2-.37.17-.33.33-.32.56,0,.08,0,.19,0,.26.1a9.89,9.89,0,0,0-1.13.56c.2-.22.5-.32.69-.54Zm3.87,1a1,1,0,0,1-.43,0,1.58,1.58,0,0,0-.86.12,7.66,7.66,0,0,0-2.15,1.4,22,22,0,0,0-2.58,3.12,6.84,6.84,0,0,1-1,1.13c.21-.31.42-.61.62-.92a24.05,24.05,0,0,1,1.78-2.46,7.75,7.75,0,0,1,2-1.67,17,17,0,0,1,1.81-.91C40.45,34.46,40.54,34.48,40.84,34.85Zm-1.48,13.2a.46.46,0,0,0,0-.72c-.1-.12-.14-.22,0-.33a5,5,0,0,0,.66-.92c.47-.7.78-1.49,1.28-2.16a12.05,12.05,0,0,0,1.25-2.28,2.59,2.59,0,0,0,.2-1.1,6.57,6.57,0,0,0-.28-1.87c-.29-.87-.29-1.81-.65-2.67a3.47,3.47,0,0,0-2.12-2.08,11.55,11.55,0,0,1-2.28-1.06c-.12-.06-.23-.13-.19-.27a2.18,2.18,0,0,0,0-.57,2.27,2.27,0,0,0-.37-1.22.87.87,0,0,1-.1-.75A8.56,8.56,0,0,1,37.6,28c.16-.32.3-.62.7-.66,0,0,0,0,.07,0a2.66,2.66,0,0,0,1.1-1.15,2.48,2.48,0,0,1,.73-.91.57.57,0,0,0,.2-.85.14.14,0,0,1,0-.18,1.05,1.05,0,0,0,0-1.27,1.79,1.79,0,0,1-.13-.88c0-.39.11-.78.11-1.17a14.43,14.43,0,0,0,0-1.61,5.59,5.59,0,0,0-1-2.62c-.39-.56-.9-1-1.26-1.6a2.59,2.59,0,0,0-.44-.59,2.51,2.51,0,0,0-2.4-.48,7.17,7.17,0,0,0-1.62.73,9,9,0,0,0-2.36,1.69,7.27,7.27,0,0,0-1.79,3.2.46.46,0,0,1-.31.36,4.25,4.25,0,0,0-1.8,1.18.37.37,0,0,0-.08.4.57.57,0,0,0,.39.32,6.71,6.71,0,0,0,1.67.28c.24,0,.45,0,.34.34a.51.51,0,0,0,0,.24c.06.27.14.54-.14.75,0,0-.06.09-.09.13a3.92,3.92,0,0,0-.68,1.65,4.25,4.25,0,0,0,.66,2.45,2.71,2.71,0,0,1,.35,1,7.55,7.55,0,0,0,.09,1.26.23.23,0,0,1-.1.29c-.56.33-1.11.67-1.7,1a2.08,2.08,0,0,1-1.34.2,1.69,1.69,0,0,0-1.23.1.25.25,0,0,1-.22,0,3.05,3.05,0,0,0-1.44-.07A7.37,7.37,0,0,0,21,32.63c-.47.32-.47.31-.76-.21-.15-.28-.3-.62-.62-.74s-.28-.27-.24-.46c.11-.53.24-1,.37-1.57a.37.37,0,0,1,.09-.2,3.36,3.36,0,0,0,.86-1.71,1.62,1.62,0,0,0-.16-1.27,1.8,1.8,0,0,0-.82-.53c-.17-.07-.14-.1,0-.18s.43-.34.66-.5c.43-.32.75-.75,1.17-1.08.13-.09.2-.12.33,0a1.41,1.41,0,0,0,1.09.34,2.63,2.63,0,0,0,2.2-2.3,1.28,1.28,0,0,1,.28-.87.39.39,0,0,0-.1-.51.92.92,0,0,0-1,.09,6.94,6.94,0,0,1-1.37.91c-.2.12-.25,0-.25-.17a1.34,1.34,0,0,1,.74-1.28c.49-.28,1-.57,1.45-.84a.35.35,0,0,0,.15-.41.27.27,0,0,0-.26-.24.94.94,0,0,1-.59-.28,2.07,2.07,0,0,0-2.39-.19,3.64,3.64,0,0,0-1.67,3,1.06,1.06,0,0,1-.44.85L18.2,23.41c-.16.13-.3.23-.44,0,0-.07-.11-.12-.17-.18a1.46,1.46,0,0,0-2,0,2.51,2.51,0,0,0-.51.74,3.06,3.06,0,0,1-1.28,1.24,5.33,5.33,0,0,1-.74.61A2,2,0,0,0,12,27.06a3.48,3.48,0,0,0,0,.72c0,.23,0,.46-.26.62-.4.28-.79.58-1.18.9-.11.09-.16.08-.27,0a2.15,2.15,0,0,0-1-.49,2.6,2.6,0,0,0-2.69.76,5.36,5.36,0,0,0-1.15,3c0,.21,0,.42-.13.6a.68.68,0,0,0,.09.65,1.13,1.13,0,0,0,1.2-.11,10.38,10.38,0,0,1,1.5-1.22c.12-.08.25-.18.39,0a.4.4,0,0,1,.08.5,1.54,1.54,0,0,1-.46.52c-.75.56-1.4,1.24-2.16,1.8-.17.12-.14.33-.09.53S6,36,6.18,36a.72.72,0,0,1,.34.11A3.5,3.5,0,0,0,7,36.4a2.28,2.28,0,0,0,1.46.06,4.39,4.39,0,0,0,1.12-.34,4,4,0,0,0,1.8-3c0-.26,0-.57.25-.75a4.15,4.15,0,0,0,.32-.27c.29-.26.59-.51.9-.77.13.36,0,.77.34,1,0,0,0,.1,0,.15a2.82,2.82,0,0,0-.11,1.32.45.45,0,0,1,0,.16c-.14.48-.3,1-.41,1.45a26.86,26.86,0,0,0-.74,3.78A9.13,9.13,0,0,0,12,41.6c.16.87.57,1.67.73,2.56A2.81,2.81,0,0,0,15,46.44c.4.1.8.1,1.18.21a2.34,2.34,0,0,0,1,.21,3,3,0,0,0,1.6-.64s.08-.1.14,0a.16.16,0,0,1,0,.15.6.6,0,0,0-.05.35,12.28,12.28,0,0,0,.24,2.1c.09.48.24.94.35,1.41l0,.07H20a.66.66,0,0,0,0-.14c0-.37,0-.74-.05-1.11A19.57,19.57,0,0,1,20,46.7c0-.28,0-.57.07-.85a9,9,0,0,0,0-1.56,9.84,9.84,0,0,0-.56,3.52,2.36,2.36,0,0,1-.07-.65c.09-.95.13-1.9.26-2.85.08-.58.15-1.16.27-1.73s.29-.81.35-1.24a5.38,5.38,0,0,0-.49,1.55,19.09,19.09,0,0,0-.35,2.72.84.84,0,0,1-.08.31,18.21,18.21,0,0,1,.89-5.38.56.56,0,0,1,.15.46q.32-.09.33.24a.81.81,0,0,0,1,.81c.21,0,.27.08.35.18s.22.22.13.41a6.64,6.64,0,0,0-.56,1.68c-.17.76-.32,1.53-.42,2.31l-.18,1.42c0,.36,0,.45.37.5.55.07,1.09.13,1.64.17.72.05,1.43.17,2.14.21a4.67,4.67,0,0,1,1.38.3,7,7,0,0,0,2.31.55c.39,0,.66-.1.75-.53a3.2,3.2,0,0,0,1,.53.8.8,0,0,1,.47.33.33.33,0,0,0,.11.14h.55a.72.72,0,0,1-.24-.35.87.87,0,0,0,1.07-.74c.17-.64.44-1.25.56-1.91v.45a.63.63,0,0,0,0-.22,6.5,6.5,0,0,0,0-2.81A2.62,2.62,0,0,0,32,42.78c-.42-.21-.84-.44-1.28-.62-.05,0-.15,0-.12-.11s.08-.1.15-.1a5.55,5.55,0,0,0,1.39-.29,1.66,1.66,0,0,1,.91-.12A3.7,3.7,0,0,1,35,43a8,8,0,0,1,1,2.4c.2.6.16,1.26.35,1.88v-.59a3.2,3.2,0,0,1,.07.41,1.08,1.08,0,0,1-.16.83,3.09,3.09,0,0,1-1.46,1,3.24,3.24,0,0,0,.27-1.9,3.72,3.72,0,0,1-2,3.17H34a.86.86,0,0,0,.3-.3,1.56,1.56,0,0,1,.84-.66,1.36,1.36,0,0,0,.28-.11,4,4,0,0,0,1.23-.9,3.54,3.54,0,0,1-.3.75,5.24,5.24,0,0,0-.29.64,1.84,1.84,0,0,0-.21.58h0c.46-1,.9-2,1.46-2.93-.44,1-.75,2-1.18,2.93h.13l0,0a20.85,20.85,0,0,1,.78-2c.22-.48.32-1,.82-1.36l.51.74a.2.2,0,0,1,0,.27c-.31.38-.61.77-.91,1.17a4.66,4.66,0,0,0-.67,1.19h0c.16-.18.22-.43.37-.63a16.7,16.7,0,0,1,1.2-1.57c.16-.18.21-.33.05-.54s-.28-.43-.43-.63-.08-.11,0-.18.12,0,.15,0a7.28,7.28,0,0,0,.76.81.19.19,0,0,1,0,.29c-.17.21-.34.41-.5.62a12.42,12.42,0,0,0-1.2,1.79h.46l0-.06A13.12,13.12,0,0,1,39.36,48.05Z"/><path d="M34.28,48.39a5.45,5.45,0,0,0,.54-4.47A10.62,10.62,0,0,1,34.28,48.39Z"/><path d="M32.76,42.34a5.58,5.58,0,0,1,1.87,2.81C34.86,44,33.41,42.57,32.76,42.34Z"/><path d="M20.47,49.07v-3A8.18,8.18,0,0,0,20.47,49.07Z"/><path d="M21.35,50.25h0A7.3,7.3,0,0,1,20.88,48,3.18,3.18,0,0,0,21.35,50.25Z"/><path d="M35.56,15.23a3.47,3.47,0,0,0-2.08,1.47,2.42,2.42,0,0,1-1.13.94.63.63,0,0,0,.45-.06,3.5,3.5,0,0,0,1.09-.93A3.35,3.35,0,0,1,35,15.78a7,7,0,0,1,2-.45A3.49,3.49,0,0,0,35.56,15.23Z"/><path d="M39.83,20.59a5.14,5.14,0,0,0-1.71-4.17,6.13,6.13,0,0,1,1.09,2A20.18,20.18,0,0,1,39.83,20.59Z"/><path d="M38.5,20.52c-.16,0-.19.12-.24.25a.4.4,0,0,0,0,.19c0,.12-.07.3.14.32s.25-.15.3-.3a.65.65,0,0,0,0-.14C38.69,20.69,38.66,20.55,38.5,20.52Z"/><path d="M39.22,21.07a.4.4,0,0,0-.3.41c0,.12,0,.36.19.33s.21-.3.26-.5S39.38,21.09,39.22,21.07Z"/><path d="M28.75,45.73a8.69,8.69,0,0,0-1.6-.23C27.33,46,28.36,46.07,28.75,45.73Z"/><path d="M30.41,48.39c1.1.49,1.74.41,2-.23C31.77,48.72,31.08,48.41,30.41,48.39Z"/><path d="M32.28,46.62a3.44,3.44,0,0,0-1,.66A1.58,1.58,0,0,0,32.28,46.62Z"/><path d="M28.16,46.25a1.74,1.74,0,0,0,1-.15C28.87,46.22,28.53,46.07,28.16,46.25Z"/><path d="M31,46.67a1.77,1.77,0,0,0-.63.37A.84.84,0,0,0,31,46.67Z"/><path d="M41.49,39.5c-.34,1.09-.6,2.18-.84,3.29A8.79,8.79,0,0,0,41.49,39.5Z"/><path d="M35.92,39.43c.85-.46,1.73-.86,2.59-1.32A5.27,5.27,0,0,0,35.92,39.43Z"/><path d="M37.72,38.7c.63-.19,1.26-.37,1.9-.52A3.13,3.13,0,0,0,37.72,38.7Z"/><path d="M39,38.61,40,38.34A1.69,1.69,0,0,0,39,38.61Z"/><path d="M38.7,41.2a8.83,8.83,0,0,0,.62-.73A2.07,2.07,0,0,0,38.7,41.2Z"/><path d="M39.31,38.77l1-.14A1.67,1.67,0,0,0,39.31,38.77Z"/><path d="M30.29,23A.83.83,0,0,0,30.5,23a.51.51,0,0,1,.57.13c-.12.08-.27.11-.32.26s.05.25.09.39a.79.79,0,0,1-.54-.35c.07.34.31.47.68.47s.38-.18.5-.34a.41.41,0,0,0-.05-.47.73.73,0,0,0-.8-.32,1.86,1.86,0,0,1-.22,0c.36-.28.43-.28.92,0-.34-.44-.66-.45-1-.08-.06.07-.17.12-.11.25s-.14,0-.08.07S30.24,23.05,30.29,23Z"/><path d="M35.39,23.45c-.18.1-.31.12-.37-.07h0a.92.92,0,0,0-1.35.36c.17-.14.32-.35.62-.23a.44.44,0,0,0-.09.49c-.15.09-.35-.06-.49.13l.47.05a1.09,1.09,0,0,0,.73-.09s.11,0,.05-.06,0-.25,0-.41c.2.06.36.22.54.06C35.45,23.6,35.14,23.7,35.39,23.45Z"/><path d="M35.71,22.57s.06,0,.12,0l-.18-.34a.81.81,0,0,0-.79-.46,2.51,2.51,0,0,0-1.41.77c.29-.06.53-.08.75-.15A1.4,1.4,0,0,1,35.71,22.57Z"/><path d="M38.2,25.74c.11-.08.23-.16.19-.31s.07-.28.22-.4c0,.24.17.44.07.69s-.26.39-.33.64a1.11,1.11,0,0,0,.63-.55c.14-.29-.07-.52-.22-.8l.32.12c-.24-.5-.49-.55-.79-.2-.11.13-.18.28-.29.4s0,.25,0,.36A.1.1,0,0,0,38.2,25.74Z"/><path d="M31.06,24.53a.8.8,0,0,0-.15.43c0,.14-.09.1-.15.11s-.12-.05-.13-.13.06-.24.12-.4c-.3.14-.38.25-.34.45s.29.36.4.32.14,0,.2,0a.64.64,0,0,0,.78.27A1.46,1.46,0,0,1,31.06,24.53Z"/><path d="M33.88,25a.66.66,0,0,0-.21.73c.06.31.34.47.86.53C34.19,25.88,33.79,25.58,33.88,25Z"/><path d="M31.49,24l-.32.36c.81-.26,1.08-1,.74-1.38.07.63-.41.85-.8,1.14Z"/><path d="M35,23.23a.83.83,0,0,0-1.22-.2c.18.12.2.13.28.1a.76.76,0,0,1,1,.25A.17.17,0,0,0,35,23.23Z"/><polygon points="35.02 23.38 35.02 23.38 35.02 23.38 35.02 23.38"/><polygon points="35.02 23.38 35.02 23.38 35.02 23.38 35.02 23.38"/><path d="M30.33,25.24a6.24,6.24,0,0,0-.86.54C30,25.86,30.23,25.69,30.33,25.24Z"/><path d="M37.09,25.51a9.37,9.37,0,0,0-.9.89A1.45,1.45,0,0,0,37.09,25.51Z"/><path d="M33.12,25.61c.32-.28.3-.45,0-.67A1.37,1.37,0,0,1,33.12,25.61Z"/><path d="M32.83,25.41c-.2-.3-.4-.27-.6.06C32.44,25.49,32.62,25.28,32.83,25.41Z"/><path d="M33.25,24.23c-.14-.17,0-.34,0-.52C33,23.94,33,24,33.25,24.23Z"/><path d="M13.94,41.88a.87.87,0,0,0,1-.13A1.69,1.69,0,0,0,13.94,41.88Z"/><path d="M16,42.89a2.14,2.14,0,0,0-.91.51A.84.84,0,0,0,16,42.89Z"/><path d="M15.4,42.5a2.29,2.29,0,0,0-.87.28A.93.93,0,0,0,15.4,42.5Z"/><path d="M14.6,41.53a4.05,4.05,0,0,0-.85-.12A1,1,0,0,0,14.6,41.53Z"/><path d="M15.07,42.2c-.23.07-.48,0-.72.13A.62.62,0,0,0,15.07,42.2Z"/><path d="M14.53,41.1c-.27-.11-.56-.09-.84-.18A1.46,1.46,0,0,0,14.53,41.1Z"/><path d="M15.37,42.86a1,1,0,0,0-.55.26A.57.57,0,0,0,15.37,42.86Z"/><path d="M22.46,38.23c-.41-.62-.79-1.26-1.2-1.88A3.58,3.58,0,0,0,22.46,38.23Z"/><path d="M20.9,36.78A5.42,5.42,0,0,0,22,38.56Z"/><path d="M22.7,37.49l-.91-1.22A2.5,2.5,0,0,0,22.7,37.49Z"/><path d="M16.34,32.66A3.92,3.92,0,0,0,17,33.94,3.41,3.41,0,0,0,16.34,32.66Z"/><path d="M33.55,40.56c.5-.91,1.06-1.78,1.59-2.66A6.26,6.26,0,0,0,33.55,40.56Z"/><path d="M36.57,35.12c.85-.3,1.7-.55,2.55-.85A4.69,4.69,0,0,0,36.57,35.12Z"/><path d="M6.4,32.64a16.22,16.22,0,0,1,1.81-2.88A6.43,6.43,0,0,0,6.4,32.64Z"/><path d="M10.4,34.19a3.55,3.55,0,0,0,.19-1.33C10.53,33.3,10.46,33.74,10.4,34.19Z"/><path d="M28.89,38a7.92,7.92,0,0,0,3.17-1.46C31,37.09,29.94,37.52,28.89,38Z"/><path d="M30,35.42q.12,0,.15.12a.19.19,0,0,1-.16.15c-.07,0-.11,0-.11-.13S29.88,35.42,30,35.42Zm0,.39c.14,0,.21-.09.26-.18s-.08-.22-.14-.35c.38-.12.77-.13,1.16-.29-.21-.05-.37,0-.55,0a1.46,1.46,0,0,0-.85.25c-.15.09-.19.14-.1.31S29.88,35.79,30,35.81Z"/><path d="M31.2,37.61,32.54,37A2.23,2.23,0,0,0,31.2,37.61Z"/><path d="M31.86,35.08l-1.11.2A1.79,1.79,0,0,0,31.86,35.08Z"/><path d="M27.05,34.92A2,2,0,0,0,27.23,36Z"/><path d="M27.38,36.83l-.42-.9A1.46,1.46,0,0,0,27.38,36.83Z"/><path d="M32.76,32.69A3.18,3.18,0,0,0,34,32Z"/><polygon points="35.24 30.42 35.2 30.38 34.42 31.17 34.46 31.21 35.24 30.42"/><path d="M22.15,19.37a4.76,4.76,0,0,0-.75,1.77Z"/><path d="M22,20.27a4.21,4.21,0,0,0-.58,1.36A5.8,5.8,0,0,0,22,20.27Z"/><path d="M23.9,36l1-2.64A6.22,6.22,0,0,0,23.9,36Z"/><path d="M25.07,34.33a5.29,5.29,0,0,0,1-1.46A2.94,2.94,0,0,0,25.07,34.33Z"/><path d="M24.62,34.73a8.68,8.68,0,0,0,.79-1.51A3.72,3.72,0,0,0,24.62,34.73Z"/><path d="M26,31.9A4.64,4.64,0,0,0,24.88,33,10.48,10.48,0,0,0,26,31.9Z"/><path d="M26.27,34.14a4.31,4.31,0,0,0-.79,1.23,10.69,10.69,0,0,0,.79-1.23Z"/><path d="M26.27,34.14h0a6.33,6.33,0,0,0,.78-1h0A3.65,3.65,0,0,0,26.27,34.14Z"/><polygon points="27.05 33.13 27.06 33.13 27.05 33.13 27.05 33.13 27.05 33.13"/><polygon points="26.27 34.14 26.27 34.14 26.27 34.13 26.28 34.13 26.27 34.14"/><path d="M22.05,34a6.22,6.22,0,0,1,1.09-1.65A2.81,2.81,0,0,0,22.05,34Z"/><path d="M34.74,34.16a2,2,0,0,0-.46,1C34.4,34.8,34.59,34.49,34.74,34.16Z"/><path d="M34.81,34.8l.41-.67-.06,0A2,2,0,0,0,34.81,34.8Z"/><path d="M39.19,23.64c-.11,0-.13.1-.12.19a.13.13,0,0,0,.14.14c.1,0,.14-.08.13-.25A.13.13,0,0,0,39.19,23.64Z"/><path d="M39.59,24.14c-.1,0-.14.08-.13.11s0,.23.12.21.16-.08.14-.17S39.69,24.13,39.59,24.14Z"/></g></g></svg>