<svg id="Component_55_1" data-name="Component 55 – 1" xmlns="http://www.w3.org/2000/svg" width="321" height="153.714" viewBox="0 0 321 153.714">
  <rect id="Rectangle_368" data-name="Rectangle 368" width="321" height="140" rx="25" transform="translate(0 13.714)" fill="#008838"/>
  <text id="Get_Pros_for_Great_Service" data-name="Get Pros for
Great Service" transform="translate(288 78.714)" fill="#fff" font-size="16" font-family="Rubik" font-weight="600"><tspan x="-93.792" y="0">Get Pros for</tspan><tspan x="-106.712" y="16">Great Service</tspan></text>
  <path id="Rectangle_369" data-name="Rectangle 369" d="M20,0H33a0,0,0,0,1,0,0V6A25,25,0,0,1,8,31H0a0,0,0,0,1,0,0V20A20,20,0,0,1,20,0Z" transform="translate(288 122.714)" fill="#fe0"/>
  <g id="Group_2079" data-name="Group 2079" transform="translate(24.434)">
    <path id="Path_3090" data-name="Path 3090" d="M147.721,154.848a19.271,19.271,0,0,1,2.812-3.3c-.107,2.252-1.746,3.409-2.373,5.03C147.116,156.144,147.12,155.58,147.721,154.848Z" transform="translate(-31.29 -55.414)" fill="#fe0"/>
    <path id="Path_3091" data-name="Path 3091" d="M148.929,154.514v5.209C146.872,158.306,146.9,156.879,148.929,154.514Z" transform="translate(-29.771 -55.299)" fill="#fe0"/>
    <path id="Path_3092" data-name="Path 3092" d="M173.193,83.34c-2.475,2.213-2.7,5.223-.6,8.493-1.175-.119-2.29-.38-3.434-.476a23.625,23.625,0,0,1-7.665-1.76c-6.5-2.868-8.437-8.451-5.088-14.722a20.681,20.681,0,0,1,10.964-9.582c5.312-2.121,10.486-1.858,15.343,1.414a3.945,3.945,0,0,1,1.6,1.964,14.671,14.671,0,0,1,.507,8.472c-.568,2.539-2.2,4.559-3.175,6.993C178.447,81.482,175.551,81.231,173.193,83.34Z" transform="translate(-73.737 -58.828)" fill="#fff"/>
    <path id="Path_3093" data-name="Path 3093" d="M151.683,154.2c-.625,1.236-1.28,1.332-2.313.636-.266-.18-.591-.272-.872-.433a2.573,2.573,0,0,1-.408-.434c.157-.088.268-.141.369-.209,1.594-1.068,3.179-2.149,4.786-3.2.208-.136.551-.3.785-.017.262.313.089.582-.145.862A15.928,15.928,0,0,0,151.683,154.2Z" transform="translate(-35.728 -55.459)" fill="#fe0"/>
    <path id="Path_3094" data-name="Path 3094" d="M160.082,89.924a4.963,4.963,0,0,1-1.663-5.5c.827-1.6,3.486-2.651,5.465-2.331a4,4,0,0,1,3.53,4.107C164.9,84.709,160.944,85.873,160.082,89.924Z" transform="translate(-59.426 -58.122)" fill="#fff"/>
    <path id="Path_3095" data-name="Path 3095" d="M203.187,129.373c-1.343-.571-1.665-.432-2.185.969-.27.726-.522,1.461-.739,2.2-.9,3.068-.906,3.091,1.75,4.907a1.762,1.762,0,0,1,.954,2.049c-.495,1.718.185,3.383.14,5.411a17.571,17.571,0,0,0-3.383-4.751c-1.1-1.129-1.939-2.551-3.05-3.714a13.465,13.465,0,0,0-6.326-3.716c.492.626,1.257.579,1.623,1.242a17.354,17.354,0,0,0-3.93-.458,13.427,13.427,0,0,1-4.461-.773,1.044,1.044,0,0,1-.785-.714c-.582-1.8-1.168-3.591-1.8-5.522a50.852,50.852,0,0,1,8.343,1.136,33.836,33.836,0,0,0,6.332.784c1.726-.034,3.467-.148,5.2-.135a3.161,3.161,0,0,1,2.8,1.1C203.455,129.566,203.338,129.438,203.187,129.373Z" transform="translate(-119.425 -56.39)" fill="#fe0"/>
    <path id="Path_3096" data-name="Path 3096" d="M184.452,151.941c-.918.622-1.8,1.3-2.72,1.92-.3.2-.6.482-1,.428a2.91,2.91,0,0,0-2.743,1.371c-.782.986-1.811,1.7-2.644,2.615-.41.452-.672.524-1.191.061-.98-.873-2.083-1.6-3.11-2.425-1.141-.912-2.425-1.7-2.977-3.168-.492-2.481-1.111-4.945-1.44-7.448a22.079,22.079,0,0,0-1.616-6.647,10.9,10.9,0,0,0-3.513-4.437c3.181,3.4,3.519,7.792,4.259,12.03a47.2,47.2,0,0,0,2.018,6.532c-.042,0-.1.019-.123,0-4.685-4.155-9.014-8.665-13.259-13.258a.817.817,0,0,1-.29-.78c.268-.855-.241-1.274-.86-1.686-.684-.455-1.325-.972-1.989-1.457-.271-.2-.616-.406-.428-.779.206-.406.534-.2.839-.033a9.041,9.041,0,0,1,1.1.535,13.38,13.38,0,0,0,5.858,2.372c.371.066.807.287,1.047-.011.291-.363-.159-.651-.35-.955a67.818,67.818,0,0,1-3.194-6.188c1.648.6,2.989,1.068,4.321,1.566a37.979,37.979,0,0,1,15.554,10.132,45.888,45.888,0,0,0,4.738,4.733,48.435,48.435,0,0,1,3.869,3.065C185.689,151.126,185.69,151.1,184.452,151.941Zm-26.186-13.034c2.075,1.279,2.61,3.376,3.52,5.213a33.264,33.264,0,0,0,4.092,6.666C165.274,147.172,160.486,139.6,158.266,138.907Zm10.846,2.658a38.5,38.5,0,0,1-.026,8.171A12.9,12.9,0,0,0,169.112,141.565Z" transform="translate(-69.76 -56.233)" fill="#fe0"/>
    <path id="Path_3097" data-name="Path 3097" d="M176.995,135.7c-.244-.084-.816-.133-.557-.583.994-1.734.616-3.346-.293-5,2.823,1.511,3.444,4.666,5.342,6.883A38.37,38.37,0,0,1,176.995,135.7Z" transform="translate(-92.199 -56.249)" fill="#fe0"/>
    <path id="Path_3098" data-name="Path 3098" d="M161.9,92.282a15.668,15.668,0,0,0,9.035.407c2.687-.762,5.263-.426,8.115.018C173.856,95.925,165.519,95.57,161.9,92.282Z" transform="translate(-74.966 -57.725)" fill="#fff"/>
    <path id="Path_3099" data-name="Path 3099" d="M161.876,104.83c-3.69-5.043-6.911-10.265-10.757-15.047,0,.508.114.977-.693.548.1.2.148.312.212.406q5.2,7.744,10.383,15.495c.154.232.691.512.2.909s-.712-.037-.937-.375c-.571-.857-1.144-1.713-1.708-2.576-2.98-4.551-5.968-9.1-8.926-13.659a1.648,1.648,0,0,1,.391-2.568,1.73,1.73,0,0,1,2.514.3q5.233,6.528,10.438,13.08c.216.271.393.436.092.808A7.073,7.073,0,0,0,161.876,104.83Z" transform="translate(-45.975 -57.907)" fill="#fff"/>
    <path id="Path_3100" data-name="Path 3100" d="M150.28,99.461l4.772,6.8-.377.258-4.648-6.887Z" transform="translate(-38.629 -57.444)" fill="#e6e6e6"/>
    <path id="Path_3101" data-name="Path 3101" d="M145.21,115.218c-.8,1.567-1.511,3.209-3.02,4.315a2.067,2.067,0,0,0-.613,1.323c-.24,1.416-.479,2.833-.757,4.243a1.447,1.447,0,0,1-1.138,1.311,1.7,1.7,0,0,1-1.866-.678,5.1,5.1,0,0,1-.984-2.873c-.005-2.461.821-4.766,1.327-7.129a4.025,4.025,0,0,1,2.753-3.062,8.509,8.509,0,0,0,3.215-1.748l-4.786,1.389c-.021-.339-.043-.7-.058-.959a14.158,14.158,0,0,0-2.879,6.922c-.066.74-.765.967-1.359,1.093a1.4,1.4,0,0,1-1.487-.9,8.132,8.132,0,0,1-.851-5.155,1.963,1.963,0,0,1,.932-1.351A4.483,4.483,0,0,0,135.3,106.2c-.444-.829.215-.854.61-.926a5.278,5.278,0,0,1,3.124.507,7.971,7.971,0,0,0,4.975.83,28.832,28.832,0,0,1-5.615-1.976,2.44,2.44,0,0,0,1.346-1.758,2.934,2.934,0,0,1-2.447,1.576c-1.864-.125-3.432.741-5.115,1.2-1.166.32-1.864-.1-1.8-1.332a2.914,2.914,0,0,1,.814-2.011c1.37-1.325,2.755-2.635,4.17-3.911a2.153,2.153,0,0,1,2.072-.594c2.364.725,4.537,1.67,5.591,4.224a36.826,36.826,0,0,0,7.512,11.45,5.175,5.175,0,0,0-.849-.18C147.929,113.323,146.191,113.308,145.21,115.218Z" transform="translate(-13.679 -57.511)" fill="#fe0"/>
    <path id="Path_3102" data-name="Path 3102" d="M226.15,127.2a45.913,45.913,0,0,1-13.263-2.669,14.883,14.883,0,0,1-8.407-7.035,1.3,1.3,0,0,1-.275-.9c.231-1.406-.31-2.292-1.559-2.53-1.171-.222-1.8.374-2,1.486-.12.684-.51.7-1.019.465a11.571,11.571,0,0,1-3.147-2.158,2.451,2.451,0,0,1-.91-1.966,9.236,9.236,0,0,1,1.033-4.036c.553.436,1.115.885,1.37-.275.134-.61.5-.641,1.025-.39.257.125.491.463.9.235a2.656,2.656,0,0,0-2.75-1.052c-1.826.643-1.52,2.579-2.1,4.161a11.246,11.246,0,0,1-.1-3.609,2.759,2.759,0,0,1,3.483-2.369,2.246,2.246,0,0,0,2.385-.724c1.3-1.2,1.441-2.97,1.892-4.46a19.661,19.661,0,0,1,.7-2.779c.122-.265.412-.562.129-.95l-.808.4c-.074-.643.591-1.055.321-1.695-.832.327-1.332,1.165-2.255,1.23a10.344,10.344,0,0,0,1.725-2.514c-.4-.457-.634.26-.986-.046.2-.456.723-.736.749-1.3-.962.271-1.188.156-.979-.14.965-1.366-.694-.14-.513-.866a4.075,4.075,0,0,1,2.6-1.861c-.322-.3-.793-.1-.909-.583l1.391-.75a5.928,5.928,0,0,0-.6-.146c-.917-.095-.993-.89-.932-1.458.056-.508.746-.189,1.146-.277.456-.1.972.083,1.5-.316l-1.594-.545c.794-.428,1.737-.211,2.522-.571-.187-.576-.884-.354-1.066-.982a5.107,5.107,0,0,0,1.839.065c-.012-.48-.567-.461-.591-.583,1.048-1.1,2.431-.923,3.613-1.349-.163-.523-.9-.232-1.02-.774.538-.4,1.028-.831,1.768-.676.213.045.531.132.675-.127.2-.358-.489-.291-.346-.7,1.352.423,2.6-.687,4.01-.29-.251-.3-.5-.606-.717-.865,2.108-1.391,4.236.48,6.349-.24.03-.249-.519-.308-.4-.774.844.333,1.709.975,2.5-.055a.353.353,0,0,1,.325-.085c1.031.7,2.374.607,3.387,1.394a23.412,23.412,0,0,1,3.961,3.914,15.891,15.891,0,0,1,2.561,4.285c-2.476.107-3.627,1.288-4.22,4.606.979-.865,1.944-1.75,2.942-2.593,1.021-.863,1.784-.7,2.341.5a14.52,14.52,0,0,1,.992,4.04c.094.618-.122,1.055-.9.908.167-.376.631-.558.594-1.063-.446,0-.61.819-1.079.448-.376-.3.1-.853-.121-1.2-1.088.654-2.321-.843-3.548.435.96-.284,1.693-.415,2.35.325-2.339-.551-4.18.9-4.378,4.578.444.367.277-.873.748-.269.243.313.651.818-.064,1.231,3.776.2,4.933-.255,5.544-2.244a3.368,3.368,0,0,1-2.72,1.463c.982-1.485-.411-1.846-1.2-2.61.761-.38,1.446-1.02,2.213-.723,1.767.684,3.842,1.065,4.344,3.4a4.111,4.111,0,0,0,.249.561c1.641,4.279,2.528,8.566.763,13.084-1.114,2.849-2.437,5.644-2.946,8.7a13.217,13.217,0,0,1-1.129,3.886C231.97,126.864,229.158,127.358,226.15,127.2Zm-25.654-16c-.509-1-1.506-1.784-1.3-3.236a6.494,6.494,0,0,0-.945,2.673,1.535,1.535,0,0,0,1.34,1.877,1.047,1.047,0,0,0,1.109-.362C201.059,111.718,200.65,111.5,200.5,111.2Zm10.942-11.344a2.135,2.135,0,0,1,1.36-.767c-.047.405-.235.733-.01,1.089a6.162,6.162,0,0,1,.421,1.093c-.61,0-1.112-.352-1.62-.111,2,1.449,4.228,1.308,7.311-.507-1.044-.167-1.911.608-2.961.391.765-1.032.528-1.887-.646-2.712a9.509,9.509,0,0,1,3.449,1.274,4.325,4.325,0,0,0-5.531-2.217,18.355,18.355,0,0,1-1.865.56c-.521.158-.888.677-1.569.813-.395.078.6.25.426.792a3.452,3.452,0,0,1-1.8-.165C209.223,100.806,210.511,101.017,211.438,99.853Zm6.237-3.333c-1.1-1.245-1.1-1.2-2.955-1.173a4.481,4.481,0,0,0-3.406,1.615C213.4,95.651,215.537,95.909,217.675,96.52ZM212.94,88.9a4.9,4.9,0,0,0-4.5,3.619c.54-.338,1.035-.629,1.512-.946a5.318,5.318,0,0,1,4.7-.623,9.944,9.944,0,0,0,4.671.249C217.28,90.173,215.3,88.96,212.94,88.9Zm6.6,16.8c-1.345,2.315-3.058,3.567-5.553,3.634a3.606,3.606,0,0,0,3.777.3C218.994,108.978,219.659,107.638,219.545,105.693Zm2.6-1.348c-1.149,1.175-.937,1.717.96,2.417C222.393,106.022,221.764,105.421,222.144,104.346Zm1.926,1.683a2.581,2.581,0,0,1,2.221-.356c.2.085.34.239.484.008.132-.212-.029-.379-.17-.533C225.847,104.323,224.5,104.738,224.071,106.029Zm7.741-3.678a10.12,10.12,0,0,1-3.288-2.369c-1.52-1.43-1.6-3.345-1.4-5.381a4.344,4.344,0,0,0,.862,5.724c.352.283.728.536,1.1.8,1.569,1.125,1.631,1.391.585,3.068-.367.587-.814,1.124-1.225,1.684,1.579.132,2.726-1.092,2.757-3.052a1.484,1.484,0,0,1,.417,1.982,1.16,1.16,0,0,0,1.1-1.242A1.265,1.265,0,0,0,231.812,102.351Zm-.952,17.458c2.106-.705,3.176-2.544,3.07-4.953a4.118,4.118,0,0,0-.146-1.595c-1.021-2.013.288-3.108,1.563-4.224.221-.194.123-.323.079-.517a2.174,2.174,0,0,0-1.223-1.53.828.828,0,0,0-.094.174c-.085.651.989,1.189.432,1.692-.367.331-1.04-.407-1.6-.617-1.406-.527-2.709-.735-3.869.473a.7.7,0,0,1-.858.17A5.575,5.575,0,0,0,222.2,110.3a17.351,17.351,0,0,1-2.1,1.511c1.132.1,1.91-.642,2.778-1.169,1.693-1.027,3.346-2.207,5.484-1.158a.76.76,0,0,0,.8-.143,3.861,3.861,0,0,1,5.107.128,2.855,2.855,0,0,1-1.434.875c-1.413.493-3.091-.015-4.324,1.158-.114.109-.4.058-.606.049a15.371,15.371,0,0,0-3.791.456,9.455,9.455,0,0,1-3.657.381c-.208-.039-.952.137-.515-.58q-.066-.362-.129-.723c-1.4,1.132-1.488,1.444-.435,2.795,1.087,1.4,1.835,3.061,3.2,4.221A8.157,8.157,0,0,0,230.86,119.809Z" transform="translate(-168.7 -58.328)" fill="#c47058"/>
    <path id="Path_3103" data-name="Path 3103" d="M136.95,121.791c-.325,1.151.356,2.541-.926,3.494-.891-1.12-1.8-2.294-2.745-3.434-.393-.472-.065-.691.188-1.026.537-.711,1.5-1.154,1.554-2.178a51.236,51.236,0,0,1-4.553,3.815,1.92,1.92,0,0,1-2.957-1.921,12.325,12.325,0,0,1,3.776-6.462,1,1,0,0,1,.558-.228c1.185-.142,2.371-.3,3.562-.377a1.817,1.817,0,0,1,1.9,1.295,5.162,5.162,0,0,1,.367,2.778C137.42,118.961,137.337,120.418,136.95,121.791Z" transform="translate(2.11 -56.898)" fill="#fe0"/>
    <path id="Path_3104" data-name="Path 3104" d="M160.384,87.2a3.271,3.271,0,0,0-1.3,1.586c-.5,1.171.426,1.952.831,2.907-1.325-.154-1.825-.849-1.657-2.2.23-1.845,2.543-3.572,4.637-3.461,1.427.075,2.05.89,1.778,2.325C162.957,86.4,162.074,86.16,160.384,87.2Z" transform="translate(-56.831 -57.967)" fill="#e6e6e6"/>
    <path id="Path_3105" data-name="Path 3105" d="M183.706,67.39a15.655,15.655,0,0,0-13.683-3.777,20.092,20.092,0,0,0-16.14,12.811,14.6,14.6,0,0,0,7.456,19.226,25.164,25.164,0,0,0,7.624,1.825c-1.2,0-2.395.035-3.589-.012a13.064,13.064,0,0,1-2.206-.291c-9.8-2.084-15.106-11.151-12.16-20.742,3.208-10.447,14.247-17.268,24.891-15.281a15.853,15.853,0,0,1,9.143,5.026,15.645,15.645,0,0,1,3.831,12.268,14.264,14.264,0,0,1-1.651,5.667A26.784,26.784,0,0,0,188.2,78.6,13.807,13.807,0,0,0,183.706,67.39Z" transform="translate(-72.704 -58.949)" fill="#fff"/>
    <path id="Path_3106" data-name="Path 3106" d="M152,90.223c-.457-.393-.344-.858-.209-1.353a4.5,4.5,0,0,0,.036-2.573,1.858,1.858,0,0,1,.446-1.906,25.573,25.573,0,0,1,1.778-2.061c2.05-2.182,3.544-4.555,2.852-7.744-.178-.822-.32-1.652-.479-2.479C159.269,77.819,157.033,85.762,152,90.223Z" transform="translate(-42.961 -58.509)" fill="#fff"/>
    <path id="Path_3107" data-name="Path 3107" d="M186.649,202.313a.84.84,0,0,0,.919.219c.8-.424,1.31.094,1.868.5a7.357,7.357,0,0,0,3.624,1.763,21.546,21.546,0,0,0,5.432-.35c2.429-.406,4.823-1.1,7.264-1.331a43.721,43.721,0,0,0,12.5-2.584,1.029,1.029,0,0,1,1.452.417,29.278,29.278,0,0,0,3.024,3.281,1.586,1.586,0,0,0,1.522.577l-.282.362H183.544c.535-.815,1.079-1.624,1.543-2.478C185.517,201.9,185.924,201.679,186.649,202.313Z" transform="translate(-142.66 -53.511)" fill="#008838"/>
    <path id="Path_3108" data-name="Path 3108" d="M183.064,202.118c-.478,1.181-1.308,1.973-1.656,2.983h-1.69A12.844,12.844,0,0,1,183.064,202.118Z" transform="translate(-97.489 -53.444)" fill="#008838"/>
    <path id="Path_3109" data-name="Path 3109" d="M219.886,135.581a15.69,15.69,0,0,0,8.909,6.969,2.978,2.978,0,0,1,1.862,1c-.433,0-.716,0-1,0-1.9.015-2.258.288-2.73,2.106a20.708,20.708,0,0,0-.5,3.266,8.526,8.526,0,0,1-1.953,5.321c-1.6-1.961-3.135-3.94-4.777-5.823a38.233,38.233,0,0,1-5.66-7.595,1.284,1.284,0,0,1-.073-1.36,39.8,39.8,0,0,1,3.152-4.428c.278,1.447-.16,2.767.537,3.916l.442-8.159A32.842,32.842,0,0,0,219.886,135.581ZM218.4,140.9c.1-1.048.206-2.1.286-3.145a1.125,1.125,0,0,0-.287-.859Q218.395,138.894,218.4,140.9Z" transform="translate(-180.488 -56.223)" fill="#fe0"/>
    <path id="Path_3110" data-name="Path 3110" d="M226.277,201.361l3.632,4.068.258-.18c-3.685-4.765-7.3-9.565-8.721-15.655a4.123,4.123,0,0,1,1.9,3.242,2.62,2.62,0,0,0,1.087,2.109c2.156,1.605,3.944,3.732,6.638,4.583a9.689,9.689,0,0,1,2.654,1.743c.188.14.492.378.338.6-.812,1.165-1.164,2.671-2.506,3.446l0-.013,0,0c-.027-.025-.05-.053-.077-.078-.612-1.87-2.106-3.127-3.275-4.609a13.348,13.348,0,0,0,3.275,4.609c.013.039.031.076.044.115.012-.006.021-.016.033-.022a1.334,1.334,0,0,1,.042.271h-3.54q-.962-2.082-1.922-4.166Z" transform="translate(-191.881 -53.932)" fill="#fe0"/>
    <path id="Path_3111" data-name="Path 3111" d="M188.94,60.558c-.15.267-.426.131-.632.074a19.188,19.188,0,0,0-9.3-.192,23.748,23.748,0,0,0-13.9,8.6,22.451,22.451,0,0,0-4.035,8.066,1.6,1.6,0,0,1-.016-1.188,22.151,22.151,0,0,1,10.959-13.824,37.285,37.285,0,0,1,5.977-2.377c.05,0,.1-.011.149-.015l-.018-.03.018.03a.313.313,0,0,1,.025-.028,10.906,10.906,0,0,0,2.517-.269,29.039,29.039,0,0,1,7.768.738c.045.019.09.032.136.051.016,0,.03.007.046.009C188.757,60.333,188.966,60.511,188.94,60.558Z" transform="translate(-83.862 -59.005)" fill="#e6e6e6"/>
    <path id="Path_3112" data-name="Path 3112" d="M171.574,191.259c-.212.448-.336.7-.454.959a95.337,95.337,0,0,0-5.186,13.306h-2.122a140.585,140.585,0,0,0,5.93-12.818C170.017,191.979,170.734,191.661,171.574,191.259Z" transform="translate(-69.473 -53.867)" fill="#008838"/>
    <path id="Path_3113" data-name="Path 3113" d="M174.457,197.979a42.375,42.375,0,0,0-2.53,5.847c1.087-1.87,2.107-3.772,3.136-5.67a3.616,3.616,0,0,1,.756-1.238c1.908-1.4,3.869-2.72,5.811-4.07-1.2,2.223-2.407,4.395-3.479,6.634a31.026,31.026,0,0,0-2.394,5.979h-9.5c.015-.018.033-.032.047-.05C168.521,202.44,170.866,199.607,174.457,197.979Z" transform="translate(-82.07 -53.805)" fill="#008838"/>
    <path id="Path_3114" data-name="Path 3114" d="M174.936,142.324c.968,1.643,1.821,3.111,2.7,4.568,3.106,5.183,5.015,10.92,7.578,16.355.259.549.043.671-.465.826a25.432,25.432,0,0,0-3.7,1.581,62.259,62.259,0,0,1-10.4,4.038,14.561,14.561,0,0,1,.624-3.734,73.864,73.864,0,0,1,3.4-8.807c1.354-3.4,2.052-6.779.568-10.367A9,9,0,0,1,174.936,142.324Zm-.732,21.321a22.2,22.2,0,0,0,3.566-8.3C176.676,158.138,175.411,160.88,174.2,163.645Z" transform="translate(-90.317 -55.774)" fill="#fe0"/>
    <path id="Path_3115" data-name="Path 3115" d="M241.615,113.817a12.7,12.7,0,0,0,4.579,2.369c-1.146.075-2.265.069-3.384.077s-2.1-.6-3.443-.721a8.516,8.516,0,0,0,7.662,1.018c-2.117,2.08-4.6,1.769-7.073,1.033-2.4-.716-4.744-1.619-6.154-4.076-.109.585.445.874.223,1.409a14.792,14.792,0,0,1-3.258-6.78,2.617,2.617,0,0,1,1.438-3.019,6.059,6.059,0,0,0,1.888,4.768,11.99,11.99,0,0,1-1.258-5.275c.751,2.472,1.708,4.8,4.06,6.192a1.416,1.416,0,0,0-.311-.5,16.954,16.954,0,0,1-3.339-6.253c-.127-.426-.332-1.015.315-1.272.768-.3.8.477.912.815a10.962,10.962,0,0,0,1.82,3.61c1.6,1.977,4.05,3.271,4.723,5.991C241.076,113.44,241.393,113.63,241.615,113.817Z" transform="translate(-214.418 -57.317)" fill="#fe0"/>
    <path id="Path_3116" data-name="Path 3116" d="M178.924,180.918a1.161,1.161,0,0,1-.928-.178,27.793,27.793,0,0,0-4.466-2.643,1.246,1.246,0,0,1-.805-1.126,17.157,17.157,0,0,0-.992-4.433,77.278,77.278,0,0,0-8.808-17.9c-.789-1.252-1.029-2.22,0-3.454a79.4,79.4,0,0,1,5.139,7.6c3.015,4.963,6.055,9.91,9.078,14.867.353.58.68,1.139,1.5,1.056a97.048,97.048,0,0,0,12.539-2.044c7.179-1.681,13.828-4.7,20.431-7.858.687-.328.8-.789.471-1.516-3.371-7.5-6.461-15.134-11.079-22.005-.216-.322-.566-.641-.259-1.207,1.219,1.392,2.4,2.761,3.6,4.1a78.119,78.119,0,0,0,8.1,8.24c2.389,1.983,4.8,3.942,7.032,6.107.747.724.769,1.136-.108,1.793-1.169.877-2.548,1.767-2.506,3.465a18.183,18.183,0,0,1-.85,4.84,24.37,24.37,0,0,0-.755,3.738c-.149,1.722.089,3.678-2.1,4.469a.487.487,0,0,0-.241.276c-.251.713-.87.939-1.5,1.163s-1.258.4-1.852.671c-5.952,2.736-12.258,3.122-18.665,2.815-.823-.039-1.659-.551-2.4.228-.239-.476.315-.75.062-1.2C185.379,180.806,182.149,180.621,178.924,180.918Zm-14.807-26.584a100.914,100.914,0,0,0,4.885,9A47.279,47.279,0,0,0,164.117,154.335Zm31.231,18.6a40.467,40.467,0,0,0,7.611-2.537A45.784,45.784,0,0,0,195.348,172.933Zm5.62.945a20.348,20.348,0,0,0-6.063,1.076A18.013,18.013,0,0,0,200.967,173.878Z" transform="translate(-116.294 -55.861)" fill="#008838"/>
    <path id="Path_3117" data-name="Path 3117" d="M210.153,112.842c-2.926,1.179-5.637.6-8.46-.979,2.617-.365,4.84-1.331,7.238-1.374.183,0,.362-.159.545-.237.664-.282,1.595-.774,2.014-.321.525.567-.013,1.466-.4,2.144A1.811,1.811,0,0,1,210.153,112.842Z" transform="translate(-148.964 -57.043)" fill="#fff"/>
    <path id="Path_3118" data-name="Path 3118" d="M229.326,113.16a1.093,1.093,0,0,1,1.227,1.091c.022.755-.453,1.075-1.1,1.125-.426-.017-1.023-.09-.816-.479C228.95,114.32,228.254,113.266,229.326,113.16Z" transform="translate(-195.762 -56.91)" fill="#e6e6e6"/>
    <path id="Path_3119" data-name="Path 3119" d="M199.933,111.654a30.513,30.513,0,0,0,9.816,3.312c-.087-.517-.689-.542-1.136-.954a3.634,3.634,0,0,0,3.464-3.431c.045-.365.132-.785.618-.8.507-.016.391.483.461.742a8.413,8.413,0,0,1,.33,1.947c.094,3.141-1.711,5.926-5.251,5.777C205.379,118.128,200.994,114.831,199.933,111.654Z" transform="translate(-148.917 -57.041)" fill="#803d2f"/>
    <path id="Path_3120" data-name="Path 3120" d="M188.253,123.791a18.517,18.517,0,0,1,4.373,2.46,20.334,20.334,0,0,0,7.229,3.343c2.8.643,3.543.329,4.837-2.171.029-.055.142-.068.237-.11.805,3.295,1.758,6.512,4.687,9.088a17.287,17.287,0,0,1-1.193-2.315c2.948.639,5.891.6,8.758,1.184a5.525,5.525,0,0,1,3.186,1.874c2,2.224,3.449,4.845,5.383,7.1,3.175,3.707,3.688,7.8,2.051,12.34-1.1,3.042-2.35,6.034-3.234,9.155-.118.419.064,1.03-.583,1.272a21.885,21.885,0,0,0-3.438-2.811c-2.008-1.279-2.036-1.287-1.215-3.58.5-1.409,1.108-2.783,1.667-4.172a12.083,12.083,0,0,0-2.777,5.157c-.192.794-.352,1.178-1.338.722a20.754,20.754,0,0,0-5.4-1.538,1.873,1.873,0,0,0,.619.412,101.023,101.023,0,0,1,9.609,4.727,4.345,4.345,0,0,1,2.244,2.375c-4.168-2.492-8.6-3.75-12.91-5.275-2.782-.984-5.584-1.906-8.3-3.085a6.192,6.192,0,0,1-3.742-4.58,26.035,26.035,0,0,1-.7-5.877c0-1.475-.455-2.523-1.914-2.9a1.243,1.243,0,0,1-1.031-1.454c.4-1.794-.756-2.326-2.021-2.872a27.148,27.148,0,0,1-6.317-3.285c-2.248-1.778-4.054-3.706-4.032-6.965a34.973,34.973,0,0,0-.878-7.471c-.425-1.993-1.029-3.938-1.447-5.966A16.983,16.983,0,0,0,188.253,123.791ZM208,145.621c-.311-4.331,3.044-6.033,5.417-8.436C209.44,139,206.574,141.683,208,145.621Zm-3.767,1.989c-2.028-2.745-4.969-2.026-7.717-2.072C199.026,146.408,201.966,145.686,204.229,147.609Zm-14.091-15.321-2.677-2.38A6,6,0,0,0,190.138,132.288Zm-1.129-2.084a15.638,15.638,0,0,0-3.407-4A13.207,13.207,0,0,0,189.008,130.2Zm-1.643-2.981a7.629,7.629,0,0,0-2.568-3.662Z" transform="translate(-144.124 -56.699)" fill="#c47058"/>
    <path id="Path_3121" data-name="Path 3121" d="M197.218,160.18a99.9,99.9,0,0,0,11.894,4.243c2.815.862,5.681,1.531,8.238,3.083a1.788,1.788,0,0,1,.948,1.815c-.032.93-.786.9-1.288,1.068a129.023,129.023,0,0,1-14.082,3.237c-.961.2-2.1.392-2.831-.839q-3.066-5.2-6.257-10.322a108.709,108.709,0,0,0-7.793-11.7c-1.1-1.344-.28-2.476-.325-3.811l3.4,3.125.069-.078c-.968-1.055-1.955-2.092-2.9-3.169a2.086,2.086,0,0,1-.038-2.49c.25-.5,2.242-.832,2.674-.512a.517.517,0,0,1,.187.411c-.3,1.542.809,1.915,1.89,2.231a1.442,1.442,0,0,1,1.135,1.733c-.071,1.282-.017,2.57-.019,3.857A8.183,8.183,0,0,0,197.218,160.18Zm-9.515-9.81a20.1,20.1,0,0,0,3.536,4.958A16.713,16.713,0,0,0,187.7,150.37Z" transform="translate(-138.7 -55.72)" fill="#fe0"/>
    <path id="Path_3122" data-name="Path 3122" d="M216.989,183.024c-2.812-3.252-4.421-7.145-6.007-11.08a23.052,23.052,0,0,1-1.955-11.357,10.731,10.731,0,0,1,.821-3.445,12.017,12.017,0,0,1,4.611-4.855,6.212,6.212,0,0,1,4.8-.986,27.247,27.247,0,0,1,5.229,1.69c1.284.528,2.548,1.109,3.819,1.666a19.872,19.872,0,0,0-7.475-4.161,7.751,7.751,0,0,0-7.539,1.369,15.086,15.086,0,0,0-3.441,4.178,14.685,14.685,0,0,1,5.972-9.3A88.893,88.893,0,0,1,225,141.035c.409-.241.962-.728,1.4-.026.456.737.833,1.522,1.3,2.4-.692-.164-1.014-.706-1.726-.658a19.064,19.064,0,0,1,2.357,1.84c2.9,3.115,6,6.057,8.5,9.535.881,1.228.977,1.211,1.836-.032a6.231,6.231,0,0,1,.422-.469c4.153,7.148,8.248,14.2,9.884,22.411-.864-.929-2.3-.582-3.1-1.38-2.746-2.711-5.063-5.708-5.966-9.595a26.13,26.13,0,0,0-3.144-7.729,60.9,60.9,0,0,0,2.207,6.8c-.975-2.185-2.918-3.749-3.5-6.244-.383-1.653-1.718-3.051-2.82-4.443a16.448,16.448,0,0,0-3.565-3.467,7.379,7.379,0,0,0,1.571,1.995c.532.638,1.024,1.308,1.534,1.964-4.034-3.306-6.817-4.916-8.765-4.9,7.624,3.1,11.1,9.236,12.978,12.081l-2.508-1.984a52.522,52.522,0,0,1,3.511,4.37,31.718,31.718,0,0,1,2.63,5.01,19.31,19.31,0,0,0,2.005,3.1c.78,1.079,2.008,1.8,2.543,3.045-11.143.737-19.08,4.881-19.358,17.721-.844-.956-1.469-1.662-2.092-2.37C221.081,187.679,219.016,185.368,216.989,183.024Zm-5.859-16.318c.025-2.21.613-4.353.789-6.543C211.27,162.3,210.464,164.415,211.13,166.706Zm1.821-2.467a13.745,13.745,0,0,0-.339,5.161A17,17,0,0,0,212.951,164.24Zm.93,5.468c.3,1.408-.052,2.878.6,4.463A15.836,15.836,0,0,0,213.881,169.708Zm17.325-19.074a8.54,8.54,0,0,0-5.131-3.318Z" transform="translate(-193.727 -55.839)" fill="#fe0"/>
    <path id="Path_3123" data-name="Path 3123" d="M146.821,183.1c.154-.794.507-.951,1.166-.885.78.077,1.557.226,2.338.236a64.087,64.087,0,0,0,7.576-.2,27.693,27.693,0,0,0,10.527-2.854,7.979,7.979,0,0,1,3.787-.94,18.944,18.944,0,0,1,3.573.7,9.4,9.4,0,0,0-3.906-1.5,2.629,2.629,0,0,1,1.547-1.7,1.686,1.686,0,0,0,1.066-1.532c.2-3.468,1.245-6.8,1.6-10.248a3.635,3.635,0,0,1,1-2.664c2.5-2.294,5.352-4.2,7.595-6.775a1.053,1.053,0,0,1,1.439-.224c1.355.7,2.742,1.344,4.1,2.051a3.554,3.554,0,0,1,1.327,1.282c.347.552.287,1.01-.463,1.2a8.751,8.751,0,0,1-3.438.258c-1.216-.188-2.208.559-3.369.459a24.9,24.9,0,0,0,6.537.151,2.615,2.615,0,0,1,3.143,3.423c-.148.5-.368.311-.714.281-2.341-.2-4.726.058-7.014-.745a11.336,11.336,0,0,0,4.945,1.4c2.991.251,4.2,2.037,3.181,4.883-1.516-1.034-2.056-1.139-6.342-1.23a1.011,1.011,0,0,0,.62.359c1.165.244,2.343.455,3.479.8,2.091.63,3.381,3.71,2.229,5.35a5.82,5.82,0,0,1-2.675,2.148c-.416.161-.781.287-1.147-.042-.476-.426-.34-1-.3-1.519.042-.5.488-.455.855-.519.8-.14,1.608-.3,1.986-1.251-.915.9-2.047.724-3.144.8-.474.03-.806-.508-.884-.44-.613.537-1.662.78-1.53,1.892a4.846,4.846,0,0,1-.632,2.589c-.486,1.088-.786,2.248-1.186,3.367-.8,2.243-.685,5.034-3.6,6.092-.655.237-1.116.966-1.713,1.4a32.717,32.717,0,0,1-5.822,3.553c1.128-1.285,2.258-2.57,3.444-3.923-.474-.044-.646.219-.861.387-4.791,3.749-8.961,8.229-13.958,11.744-2.122,1.492-4.085,3.206-6.327,4.54-.532.317-.832.3-1.2-.185a17.542,17.542,0,0,0-2.909-3.518,6.68,6.68,0,0,1-2.11-2.858q-1.247-2.821-2.372-5.692C147.01,189.805,146.151,186.574,146.821,183.1Zm33.575,2.288c.591-1.545.06-3.382-1.425-5.162C179.432,182.065,180.548,183.555,180.4,185.386Z" transform="translate(-74.776 -55.306)" fill="#fe0"/>
    <path id="Path_3124" data-name="Path 3124" d="M143.389,176.924a5.077,5.077,0,0,0,.907.62c1.346.7,2.7,1.382,4.058,2.068a3.237,3.237,0,0,1,1.491.981c-3.586.118-7.558-1.091-9.084-3.915.553-.327,1.089-.861,1.674-.923C142.913,175.706,142.983,176.585,143.389,176.924Z" transform="translate(-23.794 -54.471)" fill="#fe0"/>
    <path id="Path_3125" data-name="Path 3125" d="M189.39,197.406a17.836,17.836,0,0,1,1.325-4.588c1.716-3.8,4.6-6.709,7.328-9.757a6.962,6.962,0,0,1,5.26-2.321c3.441-.086,6.872-.352,10.31-.426a8.4,8.4,0,0,1,3.321.2,11.591,11.591,0,0,0-.2,7.408,61.373,61.373,0,0,0,4.509,11.15c.319.621.4,1.008-.381,1.276a35.178,35.178,0,0,1-8.229,1.978c-4.144.381-8.188,1.306-12.288,1.911-2.222.327-4.566.6-6.562-.932a20.225,20.225,0,0,1-3.239-2.879A3.812,3.812,0,0,1,189.39,197.406Zm23.564-2.1c-1.8-.292-3.324-1.341-5.066-1.788C209.387,194.644,210.924,195.667,212.954,195.3Zm-7.28-1.579a6.393,6.393,0,0,0,2.888,1.6A9.263,9.263,0,0,0,205.674,193.723Zm.795,1.664-3.685-2.536A6.065,6.065,0,0,0,206.469,195.388Zm-5.083.241L198.1,192.38A35.893,35.893,0,0,0,201.386,195.629Z" transform="translate(-145.911 -54.296)" fill="#c47058"/>
    <path id="Path_3126" data-name="Path 3126" d="M207.515,180.474c4.075-4.53,9.463-6.04,15.354-5.972a5.48,5.48,0,0,1,3.834,1.34c-.545.239-.736-.122-1.011-.256v0h-.006c-1.811-.921-3.669-.611-5.5-.137a15.244,15.244,0,0,0-8.9,6.756c-.681,1.012-1.435,1.973-2.1,3a29.889,29.889,0,0,0,4.287-4.322,17.145,17.145,0,0,1,8.55-5.066,20.771,20.771,0,0,1,3.674-.235l.005,0a1.4,1.4,0,0,1-1.246.633,17.718,17.718,0,0,0-6.84,2.635c1.585-.371,3.133-.852,4.7-1.282,3.956-1.09,7.655-.233,10.108,2.374-1.1,0-2.13-.033-3.156.007a9.073,9.073,0,0,0-5.825,2.256,48.076,48.076,0,0,0-5.94,6.8c-1.665,2.14-2.181,4.688-2.97,7.194-.687,2.181-.632,3.859,1.04,5.428a9.166,9.166,0,0,1,.813,1.007c-.311.16-.6-.13-.819-.3a46.046,46.046,0,0,1-5.038-4.59,4.829,4.829,0,0,1-1.2-2.767c-.144-1.013-.111-2.031-.316-3.029-.51,2.405-.852,4.787,1.236,7.026a4.506,4.506,0,0,1-1.612-.977,29.721,29.721,0,0,0-2.807-2.446,4.687,4.687,0,0,1-2.2-4.272,17.192,17.192,0,0,1,.3-2.2A16.324,16.324,0,0,1,207.515,180.474Zm4.058,16.131c-2.018-5.2.6-9.456,2.94-14.09C209.63,187.7,209.063,192.237,211.573,196.6Zm-4.615-3.788a5.414,5.414,0,0,0,0-3.819Zm-1.123-2.3c.389-1.69.229-3.432.516-5.131C205.437,187.015,205.668,188.772,205.835,190.519Z" transform="translate(-171.657 -54.52)" fill="#fe0"/>
    <path id="Path_3127" data-name="Path 3127" d="M131.264,139.332c-2.98-4.155-5.806-8.422-8.69-12.646-.641-.939-.631-.941-.052-2a.341.341,0,0,0-.035-.319c-.606-.559-.223-1.136-.045-1.8l7.985,11.35a.6.6,0,0,0-.111-.777c-2.449-3.521-4.862-7.067-7.367-10.549a2.265,2.265,0,0,1,.166-3.124,5.514,5.514,0,0,1-.063.72,2.531,2.531,0,0,0,1.1,2.9,2.62,2.62,0,0,0,3.4-.432c.8-.937,1.155-.454,1.656.179,1.9,2.4,3.832,4.775,5.7,7.2a30.359,30.359,0,0,1,4.039,5.767c1.064,2.357.373,5.462-2.741,5.778A5.327,5.327,0,0,1,131.264,139.332Z" transform="translate(6.034 -56.664)" fill="#fff"/>
    <path id="Path_3128" data-name="Path 3128" d="M150.211,173.975c.726-.028.489.541.478.88a1.864,1.864,0,0,0,.767,1.711,7.745,7.745,0,0,1,1.517,1.9c-2.3-.458-3.271-1.434-3.453-3.446C149.476,174.548,149.5,174,150.211,173.975Z" transform="translate(-36.008 -54.541)" fill="#fe0"/>
    <path id="Path_3129" data-name="Path 3129" d="M127.459,178.172l.759,1.039c-1.787-.862-3.3-1.553-4.78-2.323-.714-.372-.888-.918-.2-1.566a3.02,3.02,0,0,0,.922-2.568c-.107-1.632-.509-3.263.027-4.917a2.344,2.344,0,0,0-.209-1.562,5.281,5.281,0,0,1-.293-3.159,25.594,25.594,0,0,0,.185-3.713c.02-2.308.005-4.615.005-6.93.339-.082.541.151.766.318,6.464,4.827,13.748,5.962,21.531,4.7.789-.128,1.117-.047,1.28.721a24.34,24.34,0,0,1-.311,12.926c-1.282,3.893-3.144,7.568-4.309,11.508-.71,2.4-1.756,2.9-4.065,1.981a47.739,47.739,0,0,1-10.9-6.422C127.728,178.1,127.611,178.027,127.459,178.172Zm18.652-7.722q-1.384,3.072-2.769,6.142A16.887,16.887,0,0,0,146.111,170.451Zm-2.729,2.326-1.849,3.59A8.113,8.113,0,0,0,143.382,172.777Z" transform="translate(-3.467 -55.379)" fill="#c47058"/>
    <path id="Path_3130" data-name="Path 3130" d="M152.9,157.974a25.636,25.636,0,0,1-10.935.114c-3.253-.572-6.517-1.274-9.07-3.529-.759-.672-1.662-1.069-2.357-1.715-.918-.852-2.423-1.365-2.073-3.177a45.346,45.346,0,0,0,.864-6.365,3.46,3.46,0,0,1,1.343-2.888,8.792,8.792,0,0,0,2.318,4.072c-1.216-1.822-1.265-4.2-2.919-5.834a3.9,3.9,0,0,1-.788-3.272c.961.27,1.642,1.03,2.9,1.185a16.316,16.316,0,0,1-6.356-7.26c-.744-1.7-1.605-3.347-2.416-5.019-1.316-2.715-2.29-5.477-1.377-8.559a26.438,26.438,0,0,0,1.177-4.525c.286-2.587,1.34-4.3,4.066-4.713a7.892,7.892,0,0,0,1.369-.559c1.31-.473,2.005.007,2.11,1.436.219,2.957-2.31,5-5.487,4.408.514.55,1.257.531,1.862.854h-1.721c.454.321.95.685,1.468.491,1.12-.417,1.158.194,1.119,1.016a7.76,7.76,0,0,0,.83,4.555,2.061,2.061,0,0,0,2.511,1.106c1.358-.468.95.4.81.952a5.9,5.9,0,0,0,1.09,5.125,2.564,2.564,0,0,0,2.924,1.143c.944-.33,1.172.188,1.517.7,2.447,3.621,4.918,7.227,7.3,10.892a9.422,9.422,0,0,0,4.892,4.149,1.488,1.488,0,0,1,.852.826,22.08,22.08,0,0,1,1.944,4.394,38.741,38.741,0,0,0,2.285,6.239c1.205,2.481,1.082,2.757-1.576,3.634C153.226,157.9,153.064,157.932,152.9,157.974ZM139.3,134.161a12.957,12.957,0,0,0,3.268,4.48A16.249,16.249,0,0,0,139.3,134.161Zm2.07,5.157a9.089,9.089,0,0,0,3.759,3.071Z" transform="translate(-9.819 -57.198)" fill="#fe0"/>
    <path id="Path_3131" data-name="Path 3131" d="M223.73,205.637h-1a.793.793,0,0,0,.251-.648h1.169C224.013,205.205,223.87,205.42,223.73,205.637Z" transform="translate(-183.27 -53.333)"/>
    <path id="Path_3132" data-name="Path 3132" d="M171.782,205.637h-.5c.043-.221.115-.431.168-.648h.652Z" transform="translate(-77.765 -53.333)"/>
    <path id="Path_3133" data-name="Path 3133" d="M228.161,205.637h-1a5.457,5.457,0,0,0-.187-.648h.884Z" transform="translate(-191.687 -53.333)"/>
    <path id="Path_3134" data-name="Path 3134" d="M181.054,205.364a3.237,3.237,0,0,1,.107-.375h.268C181.317,205.123,181.18,205.239,181.054,205.364Z" transform="translate(-97.241 -53.333)"/>
    <path id="Path_3135" data-name="Path 3135" d="M183.686,205.637h-.747l.5-.648h.91C184.138,205.214,183.919,205.435,183.686,205.637Z" transform="translate(-102.124 -53.333)"/>
    <path id="Path_3136" data-name="Path 3136" d="M169.269,205.637h-1c.06-.218.138-.43.2-.648h1.006C169.413,205.206,169.334,205.419,169.269,205.637Z" transform="translate(-72.014 -53.333)"/>
    <path id="Path_3137" data-name="Path 3137" d="M223.93,204.715l0,.014c-.012.006-.021.016-.033.022Z" transform="translate(-184.259 -53.343)"/>
    <path id="Path_3138" data-name="Path 3138" d="M150.049,196.79a13.658,13.658,0,0,0-3.776-6.467,30.132,30.132,0,0,1-5.234-6.42c-1.769-3.032-2.895-6.354-4.434-9.491a17.77,17.77,0,0,1-1.816-8,28.479,28.479,0,0,1,3.037-12.158,14.268,14.268,0,0,1,4.839-5.564,45.956,45.956,0,0,1,9.464-5.408c.216-.082.525-.241.565-.417.312-1.343,1.464-2.061,2.21-3.078,1.053-1.439,2.316-2.747,2.414-4.725a3.89,3.89,0,0,1,.663-2.454,1.51,1.51,0,0,0,.286-1.433c-.278-1.4-.346-2.847-.561-4.265-.174-1.151-.437-2.29-.685-3.553-.759.969-.747.961-.209,1.8a2.115,2.115,0,0,1,.406,1.143,11.43,11.43,0,0,0,.407,3.718c.851,2.584-2.193,5.176-4.951,4.474-.4-.1-.824-.533-1.254.176-.874,1.44-2.371,1.822-3.933,1.911a2.034,2.034,0,0,0-1.424.554,4.084,4.084,0,0,1-4.208,1.032,2.092,2.092,0,0,0-1.314.015c-2.262.724-3.9.113-5.252-1.927a1.032,1.032,0,0,0-1.312-.564c-1.583.448-3.89-.612-4.234-2.273a.95.95,0,0,0-.961-.859,2.812,2.812,0,0,1-2.376-1.914c-.216-.612-.476-.567-.974-.537a3.605,3.605,0,0,1-4.013-2.886,4.258,4.258,0,0,1,.583-3.078c.244-.45.288-.69-.208-1.078-1.015-.795-1.431-4.491-.637-5.571a2.507,2.507,0,0,0,.453-1.477c.149-2.511,1.429-3.869,3.837-4.036.483-.033.554-.208.685-.625a4.284,4.284,0,0,1,5.2-2.964.7.7,0,0,0,.906-.352,2,2,0,0,1,2.771-.85,1.9,1.9,0,0,0,2.72-.759c.13-.2.437-.323.51-.533.34-.986,2.143-1.676.619-3.076-.189-.175-.092-.722-.043-1.086a3.624,3.624,0,0,0-1.481-3.037c-1.468-.8-2.288-2.212-1.627-3.311a2.122,2.122,0,0,0,.034-2.321c-.336-.622.242-1.272-.386-1.943a2.828,2.828,0,0,1-.1-4.029,1.78,1.78,0,0,0,.268-2.007,2.734,2.734,0,0,1,.968-3.513,1.284,1.284,0,0,0,.558-1.217c-.005-2.012.752-3.408,2.589-3.864,1.542-.383,2.037-1.739,2.508-2.67,1.1-2.173,3.173-2.89,4.888-4.152a.7.7,0,0,1,.488-.048c.726.141,1.067-.257,1.473-.8a3.424,3.424,0,0,1,3.217-1.475c1.253.124,2.537.515,3.456-.881.22-.335.88-.371,1.329-.565,1.924-.832,3.911.53,5.984-.379a36.835,36.835,0,0,1,4.757-1.343,1.335,1.335,0,0,1,1.03-.029,1.523,1.523,0,0,0,1.709-.129,2.687,2.687,0,0,1,1.789-.361,2.752,2.752,0,0,0,2.608-.714,1.692,1.692,0,0,1,1.661-.254c1.629.355,2.954,1.436,4.516,2.009.744.274,1.109,1.482,2.294,1.015.183-.072.594.15.756.351,1.047,1.3,2.363,2.475,2.241,4.362a1.391,1.391,0,0,0,.664,1.445,2.5,2.5,0,0,1,.959,3.155c-.32.694-.126.981.328,1.424a3.025,3.025,0,0,1,.759,3.989,2.218,2.218,0,0,0-.214.691c-.239,2.481-.679,2.97-3.11,3.483-.43.09-.816.114-.453.762a19.537,19.537,0,0,1,2.129,7.514,7.846,7.846,0,0,0,.532,2.917,59.8,59.8,0,0,1,2.7,5.8,12.62,12.62,0,0,1-.036,10.473,39.842,39.842,0,0,0-3.334,10.865,5.7,5.7,0,0,1-4.318,5.018c-.095.025-.157.167-.294.324a20.833,20.833,0,0,0,2.172.383,64.3,64.3,0,0,1,7.586.891,26.9,26.9,0,0,0,9.349.506,4.446,4.446,0,0,1,4.915,2.382,1.219,1.219,0,0,0,1.026.7,30.735,30.735,0,0,1,17.32,8.406c4.076,3.835,8.283,7.537,12.088,11.651a.666.666,0,0,0,.95.158c.442-.209.628-.363.459-.924a4.1,4.1,0,0,1-.065-1.725,41.278,41.278,0,0,0,.49-5.036,5.668,5.668,0,0,1,.733-2.829,2.1,2.1,0,0,0,.016-2.5,3.183,3.183,0,0,1-.409-2.373,2.5,2.5,0,0,0-.748-2.374,13.438,13.438,0,0,1-3.135-4.967c-1.088-2.554-1.836-5.246-3.253-7.665a4.979,4.979,0,0,1-.678-3.448,62.741,62.741,0,0,1,2.958-10.209c.125-.332.315-.579.029-1-2.762-4.085-5.478-8.2-8.525-12.084-.325-.413-.581-.417-1.024-.189a21,21,0,0,1-13.2,1.966,16.854,16.854,0,0,1-12.055-7.89c-2.713-4.193-3.8-8.583-2.64-13.487,1.43-6.072,5.056-10.562,10.14-13.937a15.8,15.8,0,0,1,7.712-2.991,37.281,37.281,0,0,0-5.977,2.377A22.151,22.151,0,0,0,197.933,75.9a1.6,1.6,0,0,0,.016,1.188,22.451,22.451,0,0,1,4.035-8.066,23.748,23.748,0,0,1,13.9-8.6,19.188,19.188,0,0,1,9.3.192c.206.057.482.193.632-.074.026-.047-.183-.224-.31-.357a11.271,11.271,0,0,1,4.781,2.3,17.866,17.866,0,0,1,6.953,18.741,19.784,19.784,0,0,1-5.7,9.8c-.792.747-.818,1.252-.138,2.077,1.99,2.418,3.9,4.9,5.847,7.353.409.514.785,1.3,1.3,1.422.753.17.825-.973,1.428-1.325a3.517,3.517,0,0,0,.621-.6,6.024,6.024,0,0,1,9.287,1.249c1.671,2.681,2.4,5.839,4.552,8.3,1.732,1.977,2.722,4.588,5.423,5.7a2.95,2.95,0,0,1,1.438,2.484c.4,2.984-.317,5.928-.563,8.877a6.576,6.576,0,0,0,1.039,4.391c1.517,2.291,3.42,4.328,4.709,6.769a4.826,4.826,0,0,1-2.9,7.036c-.324.1-.762-.13-1.015.338a14.634,14.634,0,0,1,2.214,4.233c.73,2.519,1.542,5.01,2.486,7.46.609,1.58.363,2.223-1.068,3.251a1,1,0,0,0-.439,1.328,21.769,21.769,0,0,1,.716,8.954,39.767,39.767,0,0,1-3.891,12.09,20.663,20.663,0,0,0-1.88,4.918,3.237,3.237,0,0,1-3.606,2.5c-.873-.216-1.716-.549-2.572-.829-2.805-.916-5.385-2.474-8.337-2.96-1.013-.166-2.058-.129-3.074-.282a26.175,26.175,0,0,1-9.343-3.509c-.544,1.76-1.055,3.478-1.609,5.183a7.063,7.063,0,0,1-2.278,3.607c-1.339,1.028-2.693,2.037-4.078,3a2.228,2.228,0,0,0-.821.879c-1.195,2.524-2.439,5.024-3.578,7.573a75.772,75.772,0,0,0-3.21,8.161H217.2a95.339,95.339,0,0,1,5.186-13.306c.118-.257.242-.511.454-.959-.841.4-1.557.72-1.832,1.447a140.6,140.6,0,0,1-5.93,12.818h-.652a31.029,31.029,0,0,1,2.394-5.979c1.072-2.239,2.276-4.41,3.479-6.634-1.942,1.35-3.9,2.673-5.811,4.07a3.616,3.616,0,0,0-.756,1.238c-1.029,1.9-2.049,3.8-3.136,5.67a42.381,42.381,0,0,1,2.53-5.847c-3.592,1.628-5.937,4.46-8.153,7.433-.013.018-.032.032-.047.05h-.268c.348-1.01,1.178-1.8,1.656-2.983a12.846,12.846,0,0,0-3.346,2.983h-.91l.282-.362a1.586,1.586,0,0,1-1.522-.577,29.277,29.277,0,0,1-3.024-3.281,1.029,1.029,0,0,0-1.453-.417,43.719,43.719,0,0,1-12.5,2.584c-2.442.231-4.835.925-7.264,1.331a21.547,21.547,0,0,1-5.432.35,7.357,7.357,0,0,1-3.624-1.763c-.558-.408-1.066-.926-1.868-.5a.84.84,0,0,1-.919-.219c-.725-.634-1.132-.414-1.563.377-.463.854-1.008,1.663-1.543,2.478h-1.169a1.336,1.336,0,0,0-.042-.271c1.342-.775,1.693-2.282,2.506-3.446.155-.222-.15-.46-.338-.6a9.691,9.691,0,0,0-2.654-1.743c-2.694-.851-4.482-2.978-6.638-4.583a2.62,2.62,0,0,1-1.087-2.109,4.123,4.123,0,0,0-1.9-3.242c1.418,6.09,5.036,10.89,8.721,15.655l-.258.18-3.632-4.068-.143.061q.962,2.084,1.922,4.166h-.884a17.9,17.9,0,0,0-1.07-2.277A60.756,60.756,0,0,1,150.049,196.79Zm7.856-55.068c-.7-1.149-.259-2.469-.537-3.916a39.81,39.81,0,0,0-3.152,4.428,1.284,1.284,0,0,0,.073,1.36,38.234,38.234,0,0,0,5.66,7.595c1.643,1.884,3.176,3.863,4.777,5.823a8.526,8.526,0,0,0,1.953-5.321,20.716,20.716,0,0,1,.5-3.266c.473-1.818.828-2.091,2.73-2.106.283,0,.565,0,1,0a2.979,2.979,0,0,0-1.862-1,15.69,15.69,0,0,1-8.909-6.969,32.841,32.841,0,0,1-1.794-4.787Zm35.046,43.4c.739-.778,1.575-.267,2.4-.228,6.407.308,12.713-.079,18.665-2.815.594-.273,1.233-.451,1.852-.671s1.245-.45,1.5-1.163a.487.487,0,0,1,.241-.276c2.189-.791,1.951-2.747,2.1-4.469a24.368,24.368,0,0,1,.755-3.738,18.182,18.182,0,0,0,.85-4.84c-.042-1.7,1.337-2.588,2.506-3.465.877-.658.855-1.069.108-1.793-2.234-2.165-4.643-4.124-7.032-6.107a78.122,78.122,0,0,1-8.1-8.24c-1.2-1.344-2.381-2.713-3.6-4.1-.308.566.043.885.259,1.207,4.618,6.871,7.708,14.508,11.079,22.005.326.727.216,1.188-.471,1.516-6.6,3.156-13.252,6.177-20.431,7.858a97.055,97.055,0,0,1-12.539,2.044c-.824.083-1.15-.476-1.5-1.056-3.023-4.958-6.063-9.9-9.078-14.867a79.405,79.405,0,0,0-5.139-7.6c-1.029,1.233-.789,2.2,0,3.453a77.279,77.279,0,0,1,8.808,17.9,17.157,17.157,0,0,1,.992,4.433,1.246,1.246,0,0,0,.805,1.126,27.79,27.79,0,0,1,4.466,2.643,1.16,1.16,0,0,0,.928.178c3.225-.3,6.455-.112,9.642-.129C193.265,184.368,192.712,184.643,192.95,185.119Zm12.14-24.748a73.861,73.861,0,0,0-3.4,8.807,14.559,14.559,0,0,0-.624,3.734,62.254,62.254,0,0,0,10.4-4.038,25.43,25.43,0,0,1,3.7-1.581c.508-.155.724-.277.465-.826-2.563-5.435-4.472-11.172-7.578-16.355-.874-1.458-1.727-2.926-2.7-4.568a9,9,0,0,0,.3,4.461C207.143,153.591,206.444,156.97,205.091,160.371Zm-30.912-8.889a1.442,1.442,0,0,0-1.135-1.733c-1.081-.316-2.194-.689-1.89-2.231a.517.517,0,0,0-.187-.411c-.432-.32-2.424.011-2.674.512a2.086,2.086,0,0,0,.038,2.49c.943,1.076,1.93,2.114,2.9,3.169l-.069.078-3.4-3.125c.045,1.335-.773,2.466.325,3.811a108.721,108.721,0,0,1,7.793,11.7q3.187,5.126,6.257,10.322c.726,1.231,1.87,1.037,2.831.839a129.019,129.019,0,0,0,14.082-3.237c.5-.163,1.256-.138,1.288-1.068a1.788,1.788,0,0,0-.948-1.815c-2.557-1.551-5.423-2.22-8.238-3.083a99.9,99.9,0,0,1-11.894-4.243,8.183,8.183,0,0,1-5.1-8.114C174.162,154.052,174.108,152.763,174.179,151.481Zm-15.443-24.64a34.975,34.975,0,0,1,.878,7.471c-.022,3.259,1.784,5.187,4.032,6.965a27.147,27.147,0,0,0,6.317,3.285c1.264.545,2.421,1.077,2.021,2.872a1.243,1.243,0,0,0,1.031,1.454c1.459.374,1.916,1.421,1.914,2.9a26.032,26.032,0,0,0,.7,5.877,6.191,6.191,0,0,0,3.742,4.58c2.711,1.178,5.513,2.1,8.3,3.085,4.315,1.525,8.742,2.782,12.91,5.275a4.345,4.345,0,0,0-2.244-2.375,101.028,101.028,0,0,0-9.609-4.727,1.873,1.873,0,0,1-.619-.412,20.752,20.752,0,0,1,5.4,1.538c.986.456,1.146.072,1.338-.722a12.083,12.083,0,0,1,2.777-5.157c-.559,1.389-1.162,2.764-1.666,4.172-.822,2.293-.794,2.3,1.215,3.58a21.894,21.894,0,0,1,3.438,2.811c.647-.242.464-.853.583-1.272.884-3.121,2.136-6.113,3.234-9.155,1.637-4.537,1.124-8.633-2.051-12.34-1.934-2.259-3.386-4.879-5.383-7.1a5.525,5.525,0,0,0-3.186-1.874c-2.867-.587-5.811-.545-8.758-1.184a17.292,17.292,0,0,0,1.193,2.315c-2.929-2.576-3.882-5.793-4.687-9.088-.095.043-.208.055-.237.11-1.295,2.5-2.034,2.815-4.837,2.171a20.335,20.335,0,0,1-7.229-3.343,18.516,18.516,0,0,0-4.373-2.46,16.983,16.983,0,0,1-7.582-5.209C157.707,122.9,158.311,124.849,158.736,126.841Zm-4.3-9.383c.643-.05,1.118-.37,1.1-1.125a1.093,1.093,0,0,0-1.227-1.091c-1.071.106-.375,1.159-.685,1.737C153.413,117.368,154.01,117.442,154.436,117.459Zm-11.82-8.574a10.96,10.96,0,0,1-1.82-3.61c-.108-.338-.144-1.119-.912-.815-.647.257-.442.846-.315,1.272a16.953,16.953,0,0,0,3.339,6.253,1.416,1.416,0,0,1,.311.5c-2.352-1.4-3.309-3.721-4.06-6.192a11.991,11.991,0,0,0,1.258,5.275,6.059,6.059,0,0,1-1.888-4.768,2.617,2.617,0,0,0-1.438,3.019,14.792,14.792,0,0,0,3.258,6.78c.221-.535-.332-.824-.223-1.409,1.41,2.457,3.751,3.36,6.154,4.076,2.473.737,4.956,1.047,7.073-1.033a8.516,8.516,0,0,1-7.662-1.018c1.344.121,2.336.729,3.443.721s2.238,0,3.384-.077a12.7,12.7,0,0,1-4.579-2.369c-.221-.187-.539-.377-.6-.618C146.666,112.155,144.213,110.861,142.616,108.884Zm42.952,15.6A13.217,13.217,0,0,0,186.7,120.6c.509-3.059,1.833-5.853,2.946-8.7,1.765-4.517.878-8.8-.763-13.084a4.107,4.107,0,0,1-.249-.561c-.5-2.337-2.577-2.718-4.344-3.4-.767-.3-1.452.343-2.213.723.789.764,2.182,1.125,1.2,2.61A3.368,3.368,0,0,0,186,96.718c-.611,1.99-1.768,2.439-5.544,2.244.716-.414.308-.918.064-1.231-.471-.6-.3.636-.748.269.2-3.674,2.039-5.128,4.378-4.578-.657-.74-1.39-.609-2.35-.325,1.227-1.278,2.46.218,3.548-.435.218.351-.256.908.121,1.2.47.371.634-.452,1.079-.448.036.5-.427.687-.594,1.063.782.146,1-.29.9-.908a14.521,14.521,0,0,0-.992-4.04c-.557-1.2-1.319-1.362-2.341-.5-1,.844-1.964,1.728-2.942,2.593.593-3.317,1.744-4.5,4.22-4.606a15.892,15.892,0,0,0-2.561-4.285,23.414,23.414,0,0,0-3.961-3.914c-1.013-.788-2.356-.692-3.387-1.394a.353.353,0,0,0-.325.085c-.788,1.03-1.653.389-2.5.055-.118.466.431.525.4.774-2.113.72-4.241-1.151-6.349.24.215.26.465.563.717.865-1.409-.4-2.659.713-4.01.29-.143.41.546.343.346.7-.144.259-.462.171-.675.127-.741-.155-1.23.278-1.768.676.123.542.857.251,1.02.774-1.182.426-2.565.25-3.613,1.349.024.122.579.1.591.583a5.107,5.107,0,0,1-1.839-.065c.182.628.879.406,1.066.982-.784.361-1.728.143-2.522.571l1.594.545c-.53.4-1.046.215-1.5.316-.4.088-1.09-.231-1.146.277-.061.567.014,1.363.932,1.458a5.942,5.942,0,0,1,.6.146l-1.391.75c.116.485.587.281.909.583a4.075,4.075,0,0,0-2.6,1.861c-.181.726,1.478-.5.513.866-.209.3.017.411.979.14-.026.562-.554.842-.749,1.3.352.305.587-.411.986.046a10.342,10.342,0,0,1-1.725,2.514c.923-.065,1.422-.9,2.255-1.23.27.64-.395,1.051-.321,1.695l.808-.4c.284.388-.007.685-.129.95a19.655,19.655,0,0,0-.7,2.779c-.451,1.49-.593,3.26-1.892,4.46a2.246,2.246,0,0,1-2.385.724,2.759,2.759,0,0,0-3.483,2.369,11.247,11.247,0,0,0,.1,3.609c.576-1.582.269-3.518,2.1-4.161a2.656,2.656,0,0,1,2.75,1.052c-.406.229-.641-.11-.9-.235-.522-.251-.891-.22-1.025.39-.256,1.161-.818.712-1.37.275a9.236,9.236,0,0,0-1.033,4.036,2.451,2.451,0,0,0,.91,1.966,11.571,11.571,0,0,0,3.147,2.158c.509.239.9.218,1.019-.465.2-1.112.831-1.708,2-1.486,1.25.238,1.79,1.124,1.559,2.53a1.3,1.3,0,0,0,.275.9,14.883,14.883,0,0,0,8.407,7.035,45.911,45.911,0,0,0,13.263,2.669C181.2,128.022,184.012,127.528,185.569,124.482Zm16.619,6.412c-1.733-.012-3.474.1-5.2.135a33.834,33.834,0,0,1-6.332-.784,50.851,50.851,0,0,0-8.343-1.136c.63,1.931,1.216,3.727,1.8,5.522a1.044,1.044,0,0,0,.785.714,13.426,13.426,0,0,0,4.461.773,17.354,17.354,0,0,1,3.93.458c-.366-.663-1.13-.615-1.623-1.242a13.465,13.465,0,0,1,6.326,3.716c1.112,1.164,1.946,2.585,3.05,3.714a17.571,17.571,0,0,1,3.383,4.751c.045-2.028-.635-3.692-.14-5.411a1.761,1.761,0,0,0-.954-2.049c-2.656-1.816-2.647-1.839-1.75-4.907.217-.744.469-1.478.739-2.2.52-1.4.842-1.541,2.185-.969.151.064.268.192.486.023A3.161,3.161,0,0,0,202.188,130.894Zm2.5,1.963c.909,1.654,1.287,3.266.293,5-.259.45.313.5.557.583a38.367,38.367,0,0,0,4.492,1.3C208.132,137.523,207.51,134.368,204.688,132.857ZM235.6,152.786a48.433,48.433,0,0,0-3.869-3.065A45.889,45.889,0,0,1,227,144.988a37.979,37.979,0,0,0-15.554-10.132c-1.332-.5-2.673-.969-4.321-1.566a67.805,67.805,0,0,0,3.194,6.188c.191.3.641.592.35.955-.24.3-.676.078-1.047.011a13.38,13.38,0,0,1-5.858-2.372,9.037,9.037,0,0,0-1.1-.535c-.305-.169-.634-.373-.839.033-.188.373.157.582.428.779.664.484,1.3,1,1.989,1.457.619.412,1.128.831.86,1.686a.817.817,0,0,0,.29.78c4.245,4.593,8.574,9.1,13.259,13.258.023.02.081,0,.123,0l.292-.029c.552,1.469,1.836,2.256,2.977,3.168,1.026.821,2.13,1.552,3.11,2.425.518.462.78.391,1.191-.061.833-.917,1.862-1.629,2.644-2.615a2.91,2.91,0,0,1,2.743-1.371c.392.054.7-.225,1-.428.917-.624,1.8-1.3,2.72-1.92C236.672,153.864,236.671,153.885,235.6,152.786Zm3.444,1.3c-.235-.282-.578-.12-.785.017-1.607,1.047-3.193,2.128-4.786,3.2-.1.068-.212.121-.369.209a2.572,2.572,0,0,0,.408.434c.28.161.606.254.872.433,1.033.7,1.687.6,2.313-.636a15.931,15.931,0,0,1,2.2-2.791C239.135,154.666,239.308,154.4,239.046,154.084Zm.939,1.04a19.27,19.27,0,0,0-2.812,3.3c-.6.732-.6,1.3.439,1.728C238.239,158.533,239.878,157.376,239.985,155.124Zm-.085,8.293v-5.209C237.866,160.572,237.843,162,239.9,163.417ZM225.2,82.967c-1.979-.32-4.638.728-5.465,2.331a4.963,4.963,0,0,0,1.663,5.5c.862-4.051,4.819-5.215,7.332-3.719A4,4,0,0,0,225.2,82.967Zm6.621-5.66a14.67,14.67,0,0,0-.507-8.472,3.944,3.944,0,0,0-1.6-1.964c-4.857-3.272-10.031-3.535-15.343-1.414a20.681,20.681,0,0,0-10.964,9.582c-3.35,6.271-1.409,11.854,5.088,14.722a23.626,23.626,0,0,0,7.665,1.76c1.144.1,2.259.356,3.434.476-2.1-3.271-1.874-6.28.6-8.493,2.358-2.109,5.254-1.858,8.448.8C229.624,81.866,231.253,79.846,231.821,77.307Zm-5.015,9.744c-2.093-.111-4.407,1.616-4.637,3.461-.168,1.353.332,2.048,1.657,2.2-.405-.955-1.329-1.736-.831-2.907a3.271,3.271,0,0,1,1.3-1.586c1.69-1.035,2.572-.8,4.289,1.156C228.856,87.942,228.232,87.126,226.806,87.052Zm-10.093,6.9a15.668,15.668,0,0,1-9.035-.407c3.617,3.288,11.954,3.644,17.15.425C221.976,93.53,219.4,93.195,216.712,93.956Zm20.2-15.469a15.645,15.645,0,0,0-3.831-12.268,15.853,15.853,0,0,0-9.143-5.026c-10.644-1.988-21.683,4.834-24.891,15.281-2.946,9.591,2.365,18.658,12.16,20.742a13.064,13.064,0,0,0,2.206.291c1.194.048,2.392.012,3.589.012a25.163,25.163,0,0,1-7.624-1.825,14.6,14.6,0,0,1-7.456-19.226,20.093,20.093,0,0,1,16.14-12.811,15.655,15.655,0,0,1,13.683,3.777,13.807,13.807,0,0,1,4.493,11.207,26.785,26.785,0,0,1-.978,5.515A14.266,14.266,0,0,0,236.911,78.487Zm-2.705-5.9c.159.827.3,1.657.479,2.479.692,3.19-.8,5.563-2.852,7.744a25.566,25.566,0,0,0-1.778,2.061,1.858,1.858,0,0,0-.446,1.906,4.5,4.5,0,0,1-.036,2.573c-.135.495-.248.96.209,1.353C234.813,86.245,237.05,78.3,234.205,72.589Zm3.555,29.837q-5.224-6.536-10.438-13.08a1.73,1.73,0,0,0-2.514-.3,1.648,1.648,0,0,0-.391,2.568c2.958,4.564,5.946,9.109,8.926,13.659.564.862,1.137,1.718,1.708,2.576.225.338.432.783.937.375s-.047-.677-.2-.909q-5.169-7.763-10.383-15.495c-.064-.095-.108-.2-.212-.406.807.429.693-.039.693-.548,3.846,4.782,7.067,10,10.757,15.047a7.073,7.073,0,0,1,1.21-2.68C238.153,102.862,237.977,102.7,237.761,102.426Zm-.972,5.646.377-.258-4.772-6.8-.254.175Zm13.291-4.557c-1.054-2.555-3.227-3.5-5.591-4.224a2.153,2.153,0,0,0-2.072.594c-1.415,1.276-2.8,2.586-4.17,3.911a2.914,2.914,0,0,0-.814,2.011c-.06,1.231.638,1.652,1.8,1.332,1.683-.461,3.251-1.327,5.115-1.2a2.934,2.934,0,0,0,2.447-1.576,2.44,2.44,0,0,1-1.346,1.758,28.831,28.831,0,0,0,5.615,1.976,7.971,7.971,0,0,1-4.975-.83,5.278,5.278,0,0,0-3.124-.507c-.395.072-1.053.1-.61.926a4.483,4.483,0,0,1-1.657,5.757,1.963,1.963,0,0,0-.932,1.351,8.133,8.133,0,0,0,.851,5.155,1.4,1.4,0,0,0,1.487.9c.594-.126,1.292-.353,1.359-1.093a14.158,14.158,0,0,1,2.879-6.922c.016.257.037.62.058.959l4.786-1.389a8.509,8.509,0,0,1-3.215,1.748,4.025,4.025,0,0,0-2.753,3.062c-.506,2.364-1.332,4.668-1.327,7.129a5.1,5.1,0,0,0,.984,2.873,1.7,1.7,0,0,0,1.866.678,1.447,1.447,0,0,0,1.138-1.311c.278-1.41.517-2.827.757-4.243a2.067,2.067,0,0,1,.613-1.323c1.51-1.105,2.216-2.748,3.02-4.315.981-1.91,2.719-1.9,4.469-1.914a5.171,5.171,0,0,1,.849.18A36.826,36.826,0,0,1,250.08,103.515Zm10.081,13.348a1.817,1.817,0,0,0-1.9-1.295c-1.191.074-2.376.235-3.562.377a1,1,0,0,0-.558.228,12.325,12.325,0,0,0-3.776,6.462,1.92,1.92,0,0,0,2.957,1.921,51.246,51.246,0,0,0,4.553-3.815c-.058,1.023-1.017,1.467-1.554,2.178-.253.336-.581.555-.188,1.026.948,1.14,1.853,2.314,2.745,3.434,1.282-.953.6-2.343.926-3.494.388-1.373.471-2.83.725-4.244A5.162,5.162,0,0,0,260.16,116.863Zm2.822,27.049c3.114-.316,3.8-3.42,2.741-5.778a30.36,30.36,0,0,0-4.039-5.767c-1.868-2.424-3.8-4.8-5.7-7.2-.5-.633-.856-1.116-1.656-.179a2.62,2.62,0,0,1-3.4.432,2.531,2.531,0,0,1-1.1-2.9,5.514,5.514,0,0,0,.063-.72,2.265,2.265,0,0,0-.166,3.124c2.5,3.482,4.918,7.027,7.367,10.549a.6.6,0,0,1,.111.777l-7.985-11.35c-.179.663-.561,1.239.045,1.8a.341.341,0,0,1,.035.319c-.579,1.057-.589,1.059.052,2,2.884,4.224,5.71,8.491,8.69,12.646A5.327,5.327,0,0,0,262.982,143.913Zm2.9,12.1a38.739,38.739,0,0,1-2.285-6.239,22.081,22.081,0,0,0-1.944-4.394,1.488,1.488,0,0,0-.852-.826,9.421,9.421,0,0,1-4.892-4.149c-2.379-3.665-4.851-7.272-7.3-10.892-.345-.511-.572-1.03-1.517-.7a2.564,2.564,0,0,1-2.924-1.143,5.9,5.9,0,0,1-1.09-5.125c.139-.548.548-1.419-.81-.952a2.061,2.061,0,0,1-2.511-1.106,7.76,7.76,0,0,1-.83-4.555c.04-.822,0-1.433-1.119-1.016-.518.193-1.014-.17-1.468-.491h1.721c-.6-.323-1.348-.3-1.862-.854,3.177.592,5.706-1.451,5.487-4.408-.1-1.429-.8-1.909-2.11-1.436a7.893,7.893,0,0,1-1.369.559c-2.726.413-3.781,2.126-4.066,4.713a26.434,26.434,0,0,1-1.177,4.525c-.913,3.082.06,5.844,1.377,8.559.81,1.672,1.672,3.319,2.416,5.019a16.316,16.316,0,0,0,6.356,7.26c-1.26-.156-1.941-.915-2.9-1.185a3.9,3.9,0,0,0,.788,3.272c1.654,1.638,1.7,4.011,2.919,5.834a8.792,8.792,0,0,1-2.318-4.072,3.46,3.46,0,0,0-1.343,2.888,45.349,45.349,0,0,1-.864,6.365c-.35,1.812,1.154,2.325,2.073,3.177.7.646,1.6,1.043,2.357,1.715,2.553,2.256,5.817,2.957,9.07,3.529a25.637,25.637,0,0,0,10.935-.114c.16-.042.322-.072.478-.124C266.963,158.768,267.086,158.491,265.881,156.01Zm-9.836,32.229c2.31.919,3.356.421,4.065-1.981,1.165-3.941,3.027-7.616,4.309-11.508a24.34,24.34,0,0,0,.311-12.926c-.163-.768-.491-.849-1.28-.721-7.783,1.262-15.067.128-21.531-4.7-.224-.167-.427-.4-.766-.318,0,2.315.015,4.622-.005,6.93a25.6,25.6,0,0,1-.185,3.713,5.28,5.28,0,0,0,.293,3.159,2.344,2.344,0,0,1,.209,1.562c-.536,1.654-.134,3.285-.027,4.917a3.02,3.02,0,0,1-.922,2.568c-.691.647-.516,1.194.2,1.566,1.475.77,2.993,1.461,4.78,2.323l-.759-1.039c.152-.145.269-.073.409.032A47.738,47.738,0,0,0,256.045,188.24Zm-9.253-3.126a3.237,3.237,0,0,0-1.491-.981c-1.355-.686-2.712-1.366-4.058-2.068a5.078,5.078,0,0,1-.907-.62c-.405-.339-.476-1.218-.954-1.169-.585.061-1.121.6-1.674.923C239.234,184.022,243.206,185.232,246.792,185.113Zm-12.539-5.637c.183,2.012,1.153,2.988,3.453,3.446a7.747,7.747,0,0,0-1.517-1.9,1.864,1.864,0,0,1-.767-1.711c.011-.339.248-.908-.478-.88C234.238,178.454,234.211,179,234.253,179.476Zm-37.659,22.885a6.68,6.68,0,0,0,2.11,2.858,17.541,17.541,0,0,1,2.909,3.518c.371.482.671.5,1.2.185,2.242-1.334,4.206-3.048,6.327-4.54,5-3.516,9.168-8,13.958-11.744.215-.168.388-.431.861-.388-1.187,1.353-2.316,2.638-3.444,3.923a32.715,32.715,0,0,0,5.822-3.553c.6-.437,1.059-1.167,1.713-1.4,2.914-1.059,2.8-3.849,3.6-6.092.4-1.119.7-2.279,1.186-3.367a4.845,4.845,0,0,0,.632-2.589c-.132-1.112.917-1.355,1.53-1.892.078-.068.41.471.884.441,1.1-.072,2.229.1,3.144-.8-.378.953-1.183,1.111-1.986,1.251-.367.064-.814.021-.855.519-.044.521-.18,1.093.3,1.519.366.328.731.2,1.147.042a5.82,5.82,0,0,0,2.675-2.147c1.152-1.639-.137-4.72-2.229-5.35-1.137-.342-2.315-.553-3.479-.8a1.011,1.011,0,0,1-.62-.359c4.286.091,4.826.2,6.342,1.23,1.014-2.846-.19-4.632-3.181-4.883a11.335,11.335,0,0,1-4.945-1.4c2.288.8,4.673.543,7.014.745.346.03.566.218.714-.28a2.615,2.615,0,0,0-3.143-3.423,24.9,24.9,0,0,1-6.537-.151c1.162.1,2.154-.647,3.369-.459a8.752,8.752,0,0,0,3.438-.258c.75-.187.81-.645.463-1.2a3.554,3.554,0,0,0-1.327-1.282c-1.354-.706-2.741-1.348-4.1-2.051a1.053,1.053,0,0,0-1.439.224c-2.243,2.579-5.094,4.481-7.595,6.775a3.635,3.635,0,0,0-1,2.664c-.356,3.446-1.4,6.78-1.6,10.248a1.686,1.686,0,0,1-1.066,1.532,2.629,2.629,0,0,0-1.547,1.7,9.4,9.4,0,0,1,3.906,1.5,18.941,18.941,0,0,0-3.573-.7,7.979,7.979,0,0,0-3.787.94,27.693,27.693,0,0,1-10.527,2.854,64.083,64.083,0,0,1-7.576.2c-.78-.009-1.557-.159-2.338-.236-.659-.065-1.012.091-1.166.885-.67,3.476.189,6.708,1.435,9.885Q195.349,199.538,196.594,202.361ZM168.615,208c2,1.53,4.34,1.259,6.562.932,4.1-.6,8.143-1.529,12.288-1.911a35.176,35.176,0,0,0,8.229-1.978c.777-.268.7-.655.381-1.276a61.374,61.374,0,0,1-4.509-11.15,11.591,11.591,0,0,1,.2-7.408,8.4,8.4,0,0,0-3.321-.2c-3.438.074-6.869.34-10.31.426a6.961,6.961,0,0,0-5.26,2.321c-2.725,3.048-5.611,5.955-7.328,9.757a17.836,17.836,0,0,0-1.325,4.588,3.812,3.812,0,0,0,1.154,3.023A20.226,20.226,0,0,0,168.615,208ZM154.9,200.021a29.729,29.729,0,0,1,2.807,2.446,4.506,4.506,0,0,0,1.612.977c-2.088-2.239-1.747-4.621-1.236-7.027.2,1,.171,2.016.316,3.029a4.828,4.828,0,0,0,1.2,2.767,46.038,46.038,0,0,0,5.038,4.59c.217.171.508.461.819.3a9.16,9.16,0,0,0-.814-1.007c-1.672-1.569-1.727-3.247-1.04-5.428.79-2.506,1.3-5.053,2.97-7.194a48.073,48.073,0,0,1,5.94-6.8,9.073,9.073,0,0,1,5.825-2.256c1.027-.041,2.057-.007,3.156-.007-2.453-2.607-6.152-3.464-10.108-2.374-1.563.43-3.111.911-4.7,1.282a17.719,17.719,0,0,1,6.84-2.635,1.4,1.4,0,0,0,1.246-.633h0c.275.134.465.495,1.011.256a5.48,5.48,0,0,0-3.834-1.34c-5.891-.069-11.279,1.442-15.354,5.972a16.324,16.324,0,0,0-3.6,8.6,17.2,17.2,0,0,0-.3,2.2A4.687,4.687,0,0,0,154.9,200.021Zm-2.662-4.495c.277-12.84,8.215-16.985,19.358-17.721-.535-1.243-1.763-1.966-2.543-3.045a19.314,19.314,0,0,1-2.005-3.1,31.716,31.716,0,0,0-2.63-5.01,52.538,52.538,0,0,0-3.511-4.37l2.508,1.984c-1.883-2.845-5.354-8.986-12.978-12.081,1.948-.017,4.73,1.594,8.765,4.9-.509-.656-1-1.326-1.534-1.964a7.378,7.378,0,0,1-1.571-1.995,16.447,16.447,0,0,1,3.565,3.467c1.1,1.391,2.436,2.79,2.82,4.443.58,2.5,2.524,4.059,3.5,6.244a60.893,60.893,0,0,1-2.207-6.8,26.131,26.131,0,0,1,3.144,7.729c.9,3.887,3.22,6.884,5.966,9.595.807.8,2.238.451,3.1,1.38-1.635-8.214-5.731-15.263-9.884-22.411a6.249,6.249,0,0,0-.422.469c-.859,1.244-.955,1.26-1.836.032-2.5-3.477-5.594-6.42-8.5-9.535a19.064,19.064,0,0,0-2.357-1.84c.712-.049,1.034.493,1.726.658-.472-.877-.849-1.662-1.3-2.4-.434-.7-.987-.215-1.4.026a88.891,88.891,0,0,0-9.178,5.712,14.685,14.685,0,0,0-5.972,9.3,15.087,15.087,0,0,1,3.441-4.178,7.751,7.751,0,0,1,7.539-1.369,19.873,19.873,0,0,1,7.475,4.161c-1.272-.558-2.535-1.139-3.819-1.667a27.249,27.249,0,0,0-5.229-1.69,6.212,6.212,0,0,0-4.8.986,12.018,12.018,0,0,0-4.611,4.855,10.732,10.732,0,0,0-.821,3.445A23.052,23.052,0,0,0,138,175.1c1.587,3.936,3.195,7.829,6.007,11.08,2.027,2.344,4.092,4.655,6.141,6.98C150.769,193.864,151.394,194.571,152.238,195.527Z" transform="translate(-120.742 -58.992)"/>
    <path id="Path_3139" data-name="Path 3139" d="M210.077,175.543h0Z" transform="translate(-156.042 -54.48)"/>
    <path id="Path_3140" data-name="Path 3140" d="M171.344,59.7l.131-.045.018.03C171.442,59.691,171.394,59.7,171.344,59.7Z" transform="translate(-77.217 -58.994)"/>
    <path id="Path_3141" data-name="Path 3141" d="M161.26,60.139c.009.009.022.021.031.031-.016,0-.03-.006-.046-.009Z" transform="translate(-56.522 -58.975)"/>
    <path id="Path_3142" data-name="Path 3142" d="M171.32,59.658c.015,0,.028,0,.043,0a.318.318,0,0,0-.025.028Z" transform="translate(-77.062 -58.994)"/>
    <path id="Path_3143" data-name="Path 3143" d="M161.275,60.111c.05.01.1.018.151.029l-.015.022C161.365,60.143,161.32,60.13,161.275,60.111Z" transform="translate(-56.689 -58.976)"/>
    <path id="Path_3144" data-name="Path 3144" d="M163.937,59.416a10.907,10.907,0,0,1-2.517.269c.366-.5.978-.275,1.431-.362a15.237,15.237,0,0,1,8.855.83A29.039,29.039,0,0,0,163.937,59.416Z" transform="translate(-67.119 -59.019)"/>
    <path id="Path_3145" data-name="Path 3145" d="M167.458,134.073a10.9,10.9,0,0,1,3.513,4.437,22.079,22.079,0,0,1,1.616,6.647c.329,2.5.948,4.967,1.44,7.448l-.292.029a47.2,47.2,0,0,1-2.018-6.532C170.977,141.865,170.639,137.476,167.458,134.073Z" transform="translate(-75.713 -56.095)"/>
    <path id="Path_3146" data-name="Path 3146" d="M223.943,204.753c-.012-.04-.03-.076-.044-.115.027.025.05.053.077.078l0,0h0Z" transform="translate(-184.302 -53.346)"/>
    <path id="Path_3147" data-name="Path 3147" d="M227.248,204.811a13.349,13.349,0,0,1-3.275-4.609C225.142,201.684,226.636,202.941,227.248,204.811Z" transform="translate(-187.651 -53.519)"/>
    <path id="Path_3148" data-name="Path 3148" d="M223.932,204.715h0l-.031.035Z" transform="translate(-184.261 -53.343)"/>
    <path id="Path_3149" data-name="Path 3149" d="M198.516,112.741c-1.052-1.351-.965-1.662.435-2.795q.064.362.129.723c-.436.717.308.54.515.58a9.456,9.456,0,0,0,3.657-.381,15.371,15.371,0,0,1,3.791-.456c.2.009.491.06.606-.049,1.233-1.173,2.911-.665,4.324-1.158a2.855,2.855,0,0,0,1.434-.875,3.861,3.861,0,0,0-5.107-.128.76.76,0,0,1-.8.143c-2.137-1.048-3.791.132-5.484,1.158-.869.527-1.646,1.271-2.778,1.169a17.352,17.352,0,0,0,2.1-1.511,5.575,5.575,0,0,1,6.019-1.415.7.7,0,0,0,.858-.17c1.161-1.207,2.463-1,3.869-.473.559.21,1.232.949,1.6.617.557-.5-.517-1.041-.432-1.692a.825.825,0,0,1,.094-.173,2.174,2.174,0,0,1,1.223,1.53c.044.194.142.323-.079.517-1.275,1.117-2.584,2.211-1.563,4.224a4.118,4.118,0,0,1,.147,1.595c.106,2.408-.964,4.247-3.07,4.953a8.157,8.157,0,0,1-8.279-1.712C200.351,115.8,199.6,114.136,198.516,112.741Zm11.849-2.658c-.419-.453-1.35.039-2.014.321-.184.078-.363.234-.545.237-2.4.043-4.621,1.009-7.238,1.374,2.823,1.575,5.535,2.158,8.46.979a1.811,1.811,0,0,0,.938-.766C210.353,111.549,210.89,110.651,210.365,110.084Zm2.044,2.54a8.415,8.415,0,0,0-.33-1.947c-.071-.259.046-.757-.461-.742-.486.015-.574.435-.618.8a3.634,3.634,0,0,1-3.464,3.431c.447.411,1.048.436,1.136.954a30.513,30.513,0,0,1-9.816-3.312c1.062,3.177,5.446,6.474,8.3,6.593C210.7,118.55,212.5,115.765,212.409,112.624Z" transform="translate(-147.839 -57.194)"/>
    <path id="Path_3150" data-name="Path 3150" d="M215.572,98.789c.174-.541-.821-.714-.426-.792.681-.136,1.048-.656,1.569-.813a18.363,18.363,0,0,0,1.865-.56,4.325,4.325,0,0,1,5.531,2.217,9.509,9.509,0,0,0-3.449-1.274c1.174.825,1.411,1.68.646,2.712,1.05.217,1.917-.558,2.961-.391-3.084,1.815-5.315,1.956-7.311.507.508-.241,1.01.11,1.62.111a6.164,6.164,0,0,0-.421-1.093c-.224-.355-.036-.684.01-1.089a2.135,2.135,0,0,0-1.36.767c-.927,1.164-2.215.953-3.04-.468A3.452,3.452,0,0,0,215.572,98.789Z" transform="translate(-174.069 -57.567)"/>
    <path id="Path_3151" data-name="Path 3151" d="M219.571,90.491a5.318,5.318,0,0,0-4.7.623c-.477.318-.971.609-1.512.946a4.9,4.9,0,0,1,4.5-3.619c2.365.062,4.34,1.276,6.388,2.3A9.945,9.945,0,0,1,219.571,90.491Z" transform="translate(-173.614 -57.873)"/>
    <path id="Path_3152" data-name="Path 3152" d="M205.683,104.138a1.484,1.484,0,0,0-.417-1.982c-.031,1.96-1.178,3.184-2.757,3.052.411-.56.858-1.1,1.225-1.684,1.046-1.677.984-1.943-.585-3.068-.367-.264-.743-.517-1.1-.8a4.344,4.344,0,0,1-.862-5.724c-.2,2.035-.115,3.951,1.4,5.381a10.121,10.121,0,0,0,3.288,2.369,1.265,1.265,0,0,1,.9,1.215A1.16,1.16,0,0,1,205.683,104.138Z" transform="translate(-142.772 -57.659)"/>
    <path id="Path_3153" data-name="Path 3153" d="M216.91,108.545a3.606,3.606,0,0,1-3.777-.3c2.5-.068,4.208-1.319,5.553-3.634C218.8,106.553,218.136,107.893,216.91,108.545Z" transform="translate(-167.842 -57.243)"/>
    <path id="Path_3154" data-name="Path 3154" d="M232.519,111.342a1.535,1.535,0,0,1-1.34-1.877,6.494,6.494,0,0,1,.945-2.673c-.2,1.452.794,2.235,1.3,3.236.155.3.563.521.2.953A1.047,1.047,0,0,1,232.519,111.342Z" transform="translate(-201.631 -57.158)"/>
    <path id="Path_3155" data-name="Path 3155" d="M214.946,96.265a4.481,4.481,0,0,1,3.406-1.615c1.852-.024,1.852-.072,2.955,1.173C219.168,95.212,217.031,94.954,214.946,96.265Z" transform="translate(-172.331 -57.631)"/>
    <path id="Path_3156" data-name="Path 3156" d="M208.844,104.632c-.144.231-.288.077-.484-.008a2.581,2.581,0,0,0-2.221.356c.426-1.29,1.777-1.706,2.535-.881C208.815,104.253,208.976,104.42,208.844,104.632Z" transform="translate(-150.768 -57.279)"/>
    <path id="Path_3157" data-name="Path 3157" d="M210.425,103.311c-.38,1.075.248,1.676.96,2.417C209.488,105.028,209.276,104.486,210.425,103.311Z" transform="translate(-156.98 -57.294)"/>
    <path id="Path_3158" data-name="Path 3158" d="M231.142,150.383l-5.131-3.318A8.54,8.54,0,0,1,231.142,150.383Z" transform="translate(-193.663 -55.589)"/>
    <path id="Path_3159" data-name="Path 3159" d="M245.613,159.431c-.176,2.19-.764,4.333-.789,6.543C244.159,163.683,244.965,161.567,245.613,159.431Z" transform="translate(-227.421 -55.107)"/>
    <path id="Path_3160" data-name="Path 3160" d="M243.946,163.355a17,17,0,0,1-.339,5.161A13.744,13.744,0,0,1,243.946,163.355Z" transform="translate(-224.721 -54.954)"/>
    <path id="Path_3161" data-name="Path 3161" d="M242.7,173.081c-.652-1.585-.3-3.056-.6-4.463A15.835,15.835,0,0,1,242.7,173.081Z" transform="translate(-221.949 -54.749)"/>
    <path id="Path_3162" data-name="Path 3162" d="M201.181,136.487c-2.373,2.4-5.728,4.1-5.417,8.436C194.341,140.986,197.208,138.3,201.181,136.487Z" transform="translate(-131.892 -56.001)"/>
    <path id="Path_3163" data-name="Path 3163" d="M211.951,146.6c-2.263-1.923-5.2-1.2-7.717-2.072C206.982,144.575,209.923,143.856,211.951,146.6Z" transform="translate(-151.847 -55.69)"/>
    <path id="Path_3164" data-name="Path 3164" d="M222.291,129.918a13.207,13.207,0,0,1-3.407-4A15.639,15.639,0,0,1,222.291,129.918Z" transform="translate(-177.407 -56.413)"/>
    <path id="Path_3165" data-name="Path 3165" d="M223.033,127.036l-2.568-3.662A7.629,7.629,0,0,1,223.033,127.036Z" transform="translate(-179.792 -56.512)"/>
    <path id="Path_3166" data-name="Path 3166" d="M217.8,129.483l2.677,2.38A6,6,0,0,1,217.8,129.483Z" transform="translate(-174.461 -56.274)"/>
    <path id="Path_3167" data-name="Path 3167" d="M161.623,184.414c.153-1.831-.964-3.32-1.425-5.161C161.683,181.033,162.214,182.87,161.623,184.414Z" transform="translate(-56.002 -54.335)"/>
    <path id="Path_3168" data-name="Path 3168" d="M137.585,137.576a12.957,12.957,0,0,1-3.268-4.48A16.25,16.25,0,0,1,137.585,137.576Z" transform="translate(-4.839 -56.133)"/>
    <path id="Path_3169" data-name="Path 3169" d="M131.852,138.06l3.759,3.071A9.089,9.089,0,0,1,131.852,138.06Z" transform="translate(-0.305 -55.94)"/>
    <path id="Path_3170" data-name="Path 3170" d="M216.239,162.8a100.928,100.928,0,0,1-4.885-9A47.28,47.28,0,0,1,216.239,162.8Z" transform="translate(-163.532 -55.327)"/>
    <path id="Path_3171" data-name="Path 3171" d="M186.281,169.259a40.46,40.46,0,0,1-7.611,2.537A45.793,45.793,0,0,1,186.281,169.259Z" transform="translate(-99.617 -54.724)"/>
    <path id="Path_3172" data-name="Path 3172" d="M180.587,173.687a20.35,20.35,0,0,1,6.063-1.076A18.011,18.011,0,0,1,180.587,173.687Z" transform="translate(-101.978 -54.594)"/>
    <path id="Path_3173" data-name="Path 3173" d="M124.789,175.918q1.384-3.072,2.769-6.142A16.888,16.888,0,0,1,124.789,175.918Z" transform="translate(15.087 -54.704)"/>
    <path id="Path_3174" data-name="Path 3174" d="M127.416,175.6l1.849-3.59A8.113,8.113,0,0,1,127.416,175.6Z" transform="translate(10.65 -54.617)"/>
    <path id="Path_3175" data-name="Path 3175" d="M202.622,194.805c-2.03.365-3.567-.659-5.066-1.788C199.3,193.464,200.826,194.513,202.622,194.805Z" transform="translate(-135.579 -53.799)"/>
    <path id="Path_3176" data-name="Path 3176" d="M208.69,191.925l3.282,3.249A35.893,35.893,0,0,1,208.69,191.925Z" transform="translate(-156.497 -53.841)"/>
    <path id="Path_3177" data-name="Path 3177" d="M203.8,192.379l3.685,2.536A6.065,6.065,0,0,1,203.8,192.379Z" transform="translate(-146.926 -53.824)"/>
    <path id="Path_3178" data-name="Path 3178" d="M204.671,194.817a6.393,6.393,0,0,1-2.888-1.6A9.262,9.262,0,0,1,204.671,194.817Z" transform="translate(-142.02 -53.791)"/>
    <path id="Path_3179" data-name="Path 3179" d="M173.09,143.806c-.91-1.838-1.445-3.935-3.52-5.213,2.219.692,7.008,8.265,7.612,11.879A33.265,33.265,0,0,1,173.09,143.806Z" transform="translate(-81.063 -55.919)"/>
    <path id="Path_3180" data-name="Path 3180" d="M165.857,141.151a12.9,12.9,0,0,1-.026,8.171A38.5,38.5,0,0,0,165.857,141.151Z" transform="translate(-66.505 -55.819)"/>
    <path id="Path_3181" data-name="Path 3181" d="M210.076,175.543v0Z" transform="translate(-156.042 -54.48)"/>
    <path id="Path_3182" data-name="Path 3182" d="M214.37,180.866a29.885,29.885,0,0,1-4.287,4.322c.67-1.031,1.424-1.992,2.1-3a15.244,15.244,0,0,1,8.9-6.756c1.834-.474,3.691-.783,5.5.137a20.776,20.776,0,0,0-3.674.235A17.145,17.145,0,0,0,214.37,180.866Z" transform="translate(-172.565 -54.502)"/>
    <path id="Path_3183" data-name="Path 3183" d="M210.083,175.543l0,0,0,0Z" transform="translate(-156.049 -54.48)"/>
    <path id="Path_3184" data-name="Path 3184" d="M210.078,175.543v0h0l0,0Z" transform="translate(-156.043 -54.48)"/>
    <path id="Path_3185" data-name="Path 3185" d="M222.3,196.3c-2.51-4.368-1.944-8.9,2.94-14.09C222.894,186.849,220.278,191.105,222.3,196.3Z" transform="translate(-182.379 -54.22)"/>
    <path id="Path_3186" data-name="Path 3186" d="M228.846,190.11c-.167-1.746-.4-3.5.516-5.131C229.074,186.679,229.234,188.42,228.846,190.11Z" transform="translate(-194.667 -54.112)"/>
    <path id="Path_3187" data-name="Path 3187" d="M227.766,192.273v-3.819A5.414,5.414,0,0,1,227.766,192.273Z" transform="translate(-192.464 -53.977)"/>
    <path id="Path_3188" data-name="Path 3188" d="M215.052,155.078a20.1,20.1,0,0,1-3.536-4.958A16.713,16.713,0,0,1,215.052,155.078Z" transform="translate(-162.513 -55.47)"/>
    <path id="Path_3189" data-name="Path 3189" d="M177.911,163.157c1.207-2.766,2.472-5.508,3.566-8.3A22.2,22.2,0,0,1,177.911,163.157Z" transform="translate(-94.024 -55.286)"/>
    <path id="Path_3190" data-name="Path 3190" d="M225.32,140.668q0-2,0-4a1.125,1.125,0,0,1,.287.859C225.526,138.573,225.419,139.62,225.32,140.668Z" transform="translate(-187.412 -55.994)"/>
  </g>
  <circle id="Ellipse_63" data-name="Ellipse 63" cx="4.5" cy="4.5" r="4.5" transform="translate(288 59.714)" fill="#fe0"/>
</svg>
