<?xml version="1.0" encoding="utf-8"?>
<!-- Generator: Adobe Illustrator 24.0.2, SVG Export Plug-In . SVG Version: 6.00 Build 0)  -->
<svg version="1.1" id="Layer_1" xmlns="http://www.w3.org/2000/svg" xmlns:xlink="http://www.w3.org/1999/xlink" x="0px" y="0px"
	 viewBox="0 0 595.3 841.9" style="enable-background:new 0 0 595.3 841.9;" xml:space="preserve">
<style type="text/css">
	.st0{fill:#FFFFFF;}
</style>
<g>
	<path class="st0" d="M348.3,653c2.2-6.6,4.6-13.2,6.9-19.7c3.6-10.2,7.3-20.3,11-30.7c1.2,0.3,2.2,0.5,3.1,0.7
		c16.3,4.4,32.6,8.9,49,13.2c1.7,0.4,3.5,0.9,5.1,0.7c5.9-0.8,8.4-6.4,5.4-12.3c-12.1-23.3-24.3-46.6-36.5-69.9
		c-0.7-1.3-1.3-2.6-1.9-3.7c0.4-0.5,0.5-0.7,0.7-0.9c0.5-0.5,1.1-1.1,1.6-1.6c36.1-37.2,51.1-81.6,40.9-132.5
		c-11.9-59.5-49.1-97.2-106.9-114.6c-1.5-0.5-3.2-0.7-4.8-0.5c-3.6,0.5-6.1,3.4-6.3,6.8c-0.3,4.2,2.1,6.9,7,8.3
		c70,19.1,111.1,86.8,95.5,157.3c-16.5,74.6-95.9,120.1-168.5,96.6C186.8,530,148.7,468.7,159,403.6c6.5-41.3,28.5-72.4,64.4-93.8
		c10.2-6.1,21.2-10.4,32.7-13.3c5.5-1.4,8.1-5.3,6.8-9.8c-1.3-4.5-5.5-6.3-11.3-4.7c-61.7,16.5-105.6,70.9-109.1,132.7
		c-2.1,35.9,7.4,68.3,28.7,97.1c5.1,7,11.2,13.3,16.9,20.1c-0.4,0.8-1,2-1.5,3.1c-12.2,23.3-24.3,46.6-36.5,69.8
		c-1.8,3.4-2.4,6.6,0.1,9.7c2.5,3.1,5.8,3.4,9.5,2.4c6.9-2,13.9-3.8,20.9-5.7c10.5-2.8,21.1-5.7,31.8-8.5c0.6,1.4,1,2.5,1.4,3.7
		c5.6,15.6,11.1,31.2,16.6,46.8c1.1,3.2,2.7,5.9,5.8,7.4c1.5,0,3,0,4.5,0c1.9-2.2,4.4-4.1,5.7-6.6c13.6-25.7,27.1-51.6,40.6-77.4
		c0.7-1.3,1.4-2.5,2.4-4.3c1,1.8,1.7,3,2.4,4.3c13.5,25.8,26.9,51.6,40.5,77.4c1.3,2.5,3.8,4.4,5.7,6.6c1.5,0,3,0,4.5,0
		C345.6,658.9,347.2,656.2,348.3,653z M239.8,633.8c-0.7-1.5-1.1-2.4-1.5-3.4c-4.5-12.5-9-25-13.4-37.6c-2.3-6.5-5.2-8-12-6.2
		c-13,3.5-25.9,7.1-38.9,10.6c-0.9,0.2-1.9,0.3-3.4,0.6c9.9-19,19.6-37.5,29.5-56.5c21.7,16.3,45.7,25.9,72.7,29.2
		C261.9,591.7,251,612.5,239.8,633.8z M338.9,634.1c-11.2-21.5-22.1-42.2-33.2-63.4c27.1-3.3,51-13,72.7-29.2
		c9.9,18.8,19.5,37.4,29.7,56.7c-7.3-2-13.8-3.7-20.2-5.4c-7.6-2-15.1-4.1-22.7-6.1c-6.2-1.7-9.3,0-11.5,6
		C348.9,606.1,344,619.7,338.9,634.1z"/>
	<path class="st0" d="M179.4,423.9c-0.3,60.4,49,109.9,109.7,110.1c60.3,0.2,109.7-48.8,110.1-109.4
		c0.3-59.9-48.9-109.8-108.6-110.1C229.3,314.3,179.8,363,179.4,423.9z M383.9,424.3c0,52.3-42.3,94.7-94.6,94.7
		c-52.3,0-94.6-42.4-94.6-94.7c0-52.3,42.4-94.8,94.6-94.8C341.4,329.5,383.9,372,383.9,424.3z"/>
	<path class="st0" d="M289.1,292.1c4.3,0.1,7.6-3.1,7.7-7.3c0.1-4.3-3.2-7.6-7.4-7.6c-4.3,0-7.5,3.3-7.5,7.5
		C281.9,288.8,285,292,289.1,292.1z"/>
	<path class="st0" d="M281.7,385.6c-4.4,9.2-8.9,18.3-13.3,27.6c-1,2-1.9,2.6-4.2,2.1c-9.8-2.4-19.6-4.5-29.4-6.7
		c-3.5-0.8-7-1.1-9.6,2.1c-2.5,3-1.9,6.1-0.6,9.5c4.4,11.1,8.7,22.2,13,33.3c-0.3,0.2-0.5,0.3-0.8,0.4c-5.3,1.1-7.9,4-7.4,8.5
		c0.5,4.2,3.6,6.5,8.9,6.5c27.7,0,55.3,0,83,0c6.9,0,13.7,0.1,20.6-0.1c3.8-0.1,6.7-2.8,7.1-6.4c0.5-3.7-1.5-7-5.1-8.2
		c-0.9-0.3-1.9-0.4-3.1-0.7c4.4-11.2,8.6-22.3,13-33.4c1.4-3.5,2-6.7-0.7-9.8c-2.6-2.9-5.9-2.6-9.3-1.9c-9.7,2.2-19.4,4.2-29.1,6.7
		c-3,0.8-3.9-0.2-5-2.6c-4.2-9-8.7-17.9-12.9-26.9c-1.6-3.4-3.7-6-7.8-5.9C285.2,379.9,283.2,382.4,281.7,385.6z M299,424.7
		c3.6,7.4,5.3,8.2,13.2,6.5c7.5-1.7,15-3.4,23.3-5.3c-3.6,9.2-6.8,17.7-10.3,26.1c-0.3,0.8-1.8,1.7-2.7,1.7
		c-22.1,0.1-44.2,0.1-66.2,0c-0.9,0-2.4-0.6-2.7-1.3c-3.5-8.6-6.8-17.3-10.4-26.5c8.8,2,16.9,3.8,25,5.6c5.5,1.2,8.1,0.1,10.6-5
		c3.4-7,6.8-14,10.6-21.8C292.8,411.9,295.9,418.3,299,424.7z"/>
</g>
</svg>
