<?xml version="1.0" encoding="utf-8"?>
<!-- Generator: Adobe Illustrator 24.0.2, SVG Export Plug-In . SVG Version: 6.00 Build 0)  -->
<svg version="1.1" id="Layer_1" xmlns="http://www.w3.org/2000/svg" xmlns:xlink="http://www.w3.org/1999/xlink" x="0px" y="0px"
	 viewBox="0 0 595.3 841.9" style="enable-background:new 0 0 595.3 841.9;" xml:space="preserve">
<style type="text/css">
	.st0{fill:#FFF200;}
	.st1{fill:#00A651;}
</style>
<g>
	<path class="st0" d="M294.6,388.3c3.7-0.4,7.2-1.4,10.7-2.4c8.9-2.6,17.7-2.6,26.6,0c3.9,1.1,7.8,2.2,12,2.4c2.8,0,5.4-2,6.1-4.9
		c0.2-0.8-0.2-1-0.8-1.2c-2-0.7-3.9-1.5-5.9-2.2c-12.2-4-24.7-5.3-37.4-3.3c-6.2,1-12.2,2.7-18,5.3c-0.5,0.2-1,0.3-0.8,1.2
		C288,386.7,290.9,388.7,294.6,388.3z"/>
	<path class="st0" d="M287.3,377.1c17.8-7.5,35.8-7.9,54.2-2.6c3.3,0.9,6.5,2.2,9.8,3.4c0.5-5.8,0.9-11.5-0.2-17.2
		c-1.9-10.1-7.6-16.9-17.7-19.8c-9-2.6-18.1-2.7-27.2-0.7c-11,2.4-17.8,9.1-20.1,20.3c-1.1,5.3-0.9,10.7-0.4,16.1
		C285.9,378,286.6,377.4,287.3,377.1z"/>
	<path class="st1" d="M304.7,432.1c4.4,5.4,8.7,10.9,13,16.5c0.8,1.1,1.2,0.8,1.9-0.1c3.9-5.1,7.8-10.2,11.9-15.2
		c1.3-1.6,1.9-3.3,1.5-5.3c-9.6,3-19.2,3-28.9-0.1C304.2,429.2,303.6,430.7,304.7,432.1z"/>
	<path class="st0" d="M349,392.9c0.3,1.3,1.1,1.9,2.3,1.9c1.3,0,2.3-0.7,2.4-2.1c0.1-1.8,0-3.6,0-5.4c-1.3,1.6-2.5,3-4.1,4
		C349,391.7,348.9,392.2,349,392.9z"/>
	<path class="st0" d="M287.8,391.5c-1.8-1.1-3.1-2.6-4.4-4.4c0,1.7-0.1,3.4,0,5.1c0.1,1.9,1.6,3,3.3,2.5c0.9-0.3,1.4-1.1,1.6-2
		C288.4,392.2,288.3,391.8,287.8,391.5z"/>
	<path class="st1" d="M359.4,464.8c0-7.1,0-14.2,0-21.3c0-1.2-0.4-1.8-1.5-2.1c-1.7-0.5-3.4-1.1-5-1.7c-1.3-0.6-1.6-0.2-1.5,1.1
		c0.1,8.2,0,16.4,0,24.7c0,3.2-0.6,3.7-3.8,3.7c-19.3,0-38.5,0-57.8,0c-3.3,0-4-0.6-4-4c0-8.2,0-16.4,0-24.7c0-1.2-0.2-1.5-1.4-1
		c-1.7,0.7-3.5,1.3-5.3,1.9c-0.9,0.3-1.3,0.8-1.3,1.8c0.1,1.8,0,3.7,0,5.5c0,5.6,0,11.1,0,16.7c0,1.6-0.5,2.8-2.3,3.1
		c-1.3,0.2-2.5,1-3.4,2c-1.6,1.8-2.1,4-2.1,6.3c0,7.3,0,14.6,0,21.8c0,1.4,0.3,1.8,1.8,1.8c15.6-0.1,31.2,0,46.8,0
		c7.7,0,15.4,0,23.2,0c8,0,16,0,24,0c1.2,0,1.6-0.3,1.5-1.5c-0.1-1.5,0-3,0-4.5c-0.1-6.5,0.3-13-0.2-19.5c-0.2-3.1-2.1-5.5-5-6.4
		C359.7,467.7,359.4,467.3,359.4,464.8z M285.4,477.8c-2.8,0-5.7-0.1-8.5,0c-1.3,0-1.6-0.4-1.6-1.6c0.1-3-0.4-2.6,2.6-2.7
		c1.3,0,2.6,0,3.8,0c1.7,0,3.3,0.1,5,0c1.1-0.1,1.4,0.4,1.4,1.4C288.2,478.4,288.6,477.7,285.4,477.8z M359,477.8
		c-1.2,0-2.4,0-3.7,0c-1.7,0-3.3-0.1-5,0c-1,0-1.3-0.3-1.3-1.3c0-3-0.1-3,2.8-3c2.8,0,5.7,0,8.5,0c1.1,0,1.4,0.3,1.4,1.4
		C361.8,477.8,361.8,477.8,359,477.8z"/>
	<path d="M385.3,478.2c-0.9-6.4-1.4-12.8-3.3-19c-1.6-5.1-3.4-10.1-7.3-14c-3.7-3.8-8.6-5.7-13.4-7.5c-7.3-2.8-14.7-5.2-22.3-7.2
		c-0.5-0.1-1,0-1.3-0.6c-0.7-1.3,0.2-5.1,1.4-6c2.3-1.8,4.1-4,5.7-6.5c3.3-5.1,4.3-10.7,4.2-16.7c0-1,0-1.5,1.3-1.3
		c4.1,0.7,7.6-2.1,8.1-6.2c0.3-2.5,0.2-5.1,0-7.7c-0.1-1.8-0.8-3.3-2.1-4.6c-0.5-0.5-0.7-0.9-0.6-1.6c0.9-6,1.1-12,0.2-18.1
		c-1-6.8-3.6-12.9-8.6-17.8c-5.2-5-11.5-7.3-18.4-8.6c-1.5-0.3-3.1,0-4.6-0.7c-3.9,0-7.8,0-11.7,0c-0.5,0.5-1.2,0.3-1.7,0.4
		c-6.7,0.7-13.1,2.5-18.5,6.7c-7.9,5.9-11,14.2-11.6,23.7c-0.3,4.5-0.3,9,0.5,13.5c0.2,1.1,0.1,2.1-0.9,3c-1.1,1.1-1.7,2.6-1.7,4.2
		c0,2.4-0.1,4.8,0,7.2c0.1,3.8,3.3,6.7,7.1,6.8c0.8,0,1.9-0.9,2.4,0c0.4,0.7,0.1,1.7,0.1,2.6c0,0.4,0,0.8,0,1.2
		c0.2,8.3,3.5,15.1,9.8,20.4c0.8,0.7,1.3,1.4,1.2,2.5c-0.1,0.7-0.1,1.3,0,2c0.2,1.4-0.4,2-1.8,2.3c-9.4,2.5-18.6,5.3-27.5,9.3
		c-5.5,2.5-9.7,6.2-12.3,11.8c-3.1,6.8-4.5,13.9-5.4,21.2c-1.1,8.8-2.3,17.6-3.5,26.4c-0.4,3-0.5,2.9,2.5,3.3
		c1.3,0.2,2.1,0.1,2.1-1.6c0-1,0.3-2,0.4-3c1.2-8.9,2.4-17.8,3.5-26.7c0.8-6.3,2.2-12.4,5-18.2c2.2-4.6,5.9-7.4,10.7-9.3
		c0,6.6,0,13.1,0,19.5c0,0.7-0.4,0.9-0.9,1.2c-4.5,2.3-6.7,6.1-6.8,11c-0.1,8.8-0.1,17.6-0.1,26.3c0,2.3,0.7,3,3.1,3
		c33.4,0,66.9,0,100.3,0c2.3,0,3.2-0.8,3.2-3c0-8.4,0.1-16.8,0-25.2c-0.1-5.4-2-9.9-7.2-12.3c-0.9-0.4-0.7-1-0.7-1.7
		c0-5.8,0-11.6,0-17.3c0-0.5,0-0.9,0.1-1.5c4.2,1.8,7.8,4,10,8.1c2.9,5.4,4.5,11.2,5.3,17.2c1.5,10.8,2.9,21.7,4.3,32.5
		c0,0.4-0.1,1,0.4,1c1.4,0,2.9,0.1,4-0.6c0.6-0.4,0.1-1.5,0-2.4C387.3,492.6,386.3,485.4,385.3,478.2z M353.7,387.3
		c0,1.8,0.1,3.6,0,5.4c-0.1,1.4-1,2.1-2.4,2.1c-1.2,0-2.1-0.6-2.3-1.9c-0.1-0.6,0-1.2,0.6-1.5C351.3,390.3,352.5,388.9,353.7,387.3z
		 M286.1,360.5c2.3-11.1,9.1-17.9,20.1-20.3c9.1-2,18.2-1.9,27.2,0.7c10,2.9,15.7,9.7,17.7,19.8c1.1,5.7,0.8,11.4,0.2,17.2
		c-3.3-1.2-6.5-2.4-9.8-3.4c-18.4-5.3-36.4-4.9-54.2,2.6c-0.7,0.3-1.4,0.9-1.6-0.6C285.3,371.2,285.1,365.8,286.1,360.5z
		 M288.3,392.7c-0.2,0.9-0.7,1.6-1.6,2c-1.7,0.6-3.2-0.5-3.3-2.5c-0.1-1.7,0-3.4,0-5.1c1.3,1.7,2.6,3.3,4.4,4.4
		C288.3,391.8,288.4,392.2,288.3,392.7z M287.1,383.1c-0.2-0.8,0.3-0.9,0.8-1.2c5.7-2.6,11.8-4.3,18-5.3c12.7-2,25.2-0.7,37.4,3.3
		c2,0.7,3.9,1.5,5.9,2.2c0.6,0.2,1,0.4,0.8,1.2c-0.8,3-3.3,5-6.1,4.9c-4.2-0.3-8.2-1.3-12-2.4c-8.9-2.6-17.7-2.6-26.6,0
		c-3.5,1-7,2-10.7,2.4C290.9,388.7,288,386.7,287.1,383.1z M293,403.4c0-3,0-6,0-9c0-1,0.1-1.5,1.3-1.5c5.2-0.3,10.1-2,15.1-3.3
		c7.2-1.8,14.3-1.4,21.3,0.7c4.1,1.2,8.2,2.3,12.5,2.6c0.9,0.1,1.1,0.4,1.1,1.2c0,1.9,0,3.9,0,6.5c0.2,4.6-0.5,9.7-3.4,14.3
		c-4.3,6.6-10.4,10.2-18.3,10.4c-4.2,0.1-8.4,0.4-12.6-0.6C300.1,422.2,293.1,413.5,293,403.4z M304.1,427.8
		c9.7,3.1,19.3,3.1,28.9,0.1c0.4,2-0.1,3.6-1.5,5.3c-4.1,5-8,10.1-11.9,15.2c-0.7,0.9-1,1.1-1.9,0.1c-4.3-5.5-8.6-11-13-16.5
		C303.6,430.7,304.2,429.2,304.1,427.8z M290.5,438.8c0-0.9,0.2-1.4,1.2-1.6c2.6-0.7,5.2-1.4,7.8-2.2c1-0.3,1.5-0.1,2.2,0.7
		c5.3,6.8,10.7,13.5,16,20.3c0.3,0.3,0.6,0.7,1,1.1c2.9-3.7,5.7-7.3,8.6-10.9c2.8-3.5,5.6-7.1,8.3-10.6c0.5-0.7,0.9-0.9,1.8-0.6
		c2.7,0.9,5.5,1.6,8.3,2.4c0.9,0.2,1.1,0.6,1.1,1.5c0,8.2,0,16.3,0,24.5c0,1-0.4,1.2-1.3,1.2c-17.9,0-35.8,0-53.6,0
		c-1.2,0-1.4-0.4-1.4-1.5C290.5,454.9,290.5,446.9,290.5,438.8z M367.1,474.9c0.4,6.5,0.1,13,0.2,19.5c0,1.5-0.1,3,0,4.5
		c0.1,1.2-0.4,1.5-1.5,1.5c-8,0-16,0-24,0c-7.7,0-15.4,0-23.2,0c-15.6,0-31.2,0-46.8,0c-1.5,0-1.8-0.4-1.8-1.8
		c0.1-7.3,0-14.6,0-21.8c0-2.3,0.4-4.5,2.1-6.3c0.9-1,2.1-1.7,3.4-2c1.8-0.3,2.3-1.5,2.3-3.1c0-5.6,0-11.1,0-16.7
		c0-1.8,0.1-3.7,0-5.5c0-1,0.3-1.5,1.3-1.8c1.8-0.6,3.6-1.2,5.3-1.9c1.2-0.5,1.4-0.2,1.4,1c0,8.2,0,16.4,0,24.7c0,3.4,0.6,4,4,4
		c19.3,0,38.5,0,57.8,0c3.2,0,3.8-0.6,3.8-3.7c0-8.2,0-16.4,0-24.7c0-1.3,0.2-1.7,1.5-1.1c1.6,0.7,3.3,1.3,5,1.7
		c1.1,0.3,1.5,0.9,1.5,2.1c-0.1,7.1,0,14.2,0,21.3c0,2.5,0.3,2.9,2.7,3.7C365,469.4,366.9,471.8,367.1,474.9z"/>
	<path class="st0" d="M286.8,473.5c-1.7,0.1-3.3,0-5,0c-1.3,0-2.6,0-3.8,0c-3.1,0-2.5-0.4-2.6,2.7c-0.1,1.2,0.3,1.7,1.6,1.6
		c2.8-0.1,5.7,0,8.5,0c3.1,0,2.7,0.6,2.8-2.8C288.3,473.8,288,473.4,286.8,473.5z"/>
	<path class="st0" d="M360.4,473.5c-2.8,0.1-5.7,0-8.5,0c-2.9,0-2.9,0-2.8,3c0,1,0.3,1.4,1.3,1.3c1.7-0.1,3.3,0,5,0
		c1.2,0,2.4,0,3.7,0c2.8,0,2.7,0,2.8-2.9C361.8,473.8,361.5,473.5,360.4,473.5z"/>
</g>
</svg>
