<svg xmlns="http://www.w3.org/2000/svg" viewBox="0 0 383.6 383.46"><defs><style>.cls-1{fill:#fff;}</style></defs><title>up_arrow</title><g id="Layer_2" data-name="Layer 2"><g id="Layer_1-2" data-name="Layer 1"><path class="cls-1" d="M205.44,383.46H178.5c-4.21-1.22-8.61-1-12.89-1.68-50.66-7.75-92.56-31.2-124-71.6C3.26,261-8.8,205.37,6.35,145,20.87,87.1,56.25,45.14,109.7,18.86,145.76,1.12,184.07-3.75,223.63,2.75a185.76,185.76,0,0,1,94.24,44.76c33.59,29.59,54.7,66.43,62.72,110.59,1.22,6.71,2,13.5,3,20.26V205.3c-1.22,4.21-1.05,8.6-1.68,12.89-5.58,37.8-20.66,71.29-46,99.92-29.54,33.41-66.3,54.35-110.26,62.36C219,381.69,212.19,382.47,205.44,383.46ZM24.29,191.61C23.94,283.55,99,359.23,191.56,359.42A167.59,167.59,0,0,0,359.61,192c.5-92-74.69-167.32-167.24-167.89C100.4,23.58,24.64,99.06,24.29,191.61Z"/><path class="cls-1" d="M180,148.83,146,183c-1.76,1.77-3.49,3.57-5.31,5.28-5.15,4.83-12.35,4.82-17.09,0s-4.78-12,.23-17.08q22.94-23.11,46-46.06c4.41-4.41,8.78-8.87,13.24-13.22,5.57-5.44,12.35-5.48,17.89,0q29.43,29.31,58.74,58.73c5.4,5.42,5.6,12.69.68,17.63s-12.23,4.74-17.63-.62q-18.3-18.21-36.52-36.5c-.51-.51-1.07-1-2.27-2.06v4.56q0,54.81,0,109.63c0,5.81-3.19,10.18-8.47,11.85a12,12,0,0,1-13.25-4.52c-1.79-2.42-2.22-5.15-2.22-8.11q.06-54.24,0-108.5Z"/></g></g></svg>