<svg xmlns="http://www.w3.org/2000/svg" viewBox="0 0 209.58 209.54"><defs><style>.cls-1{fill:#fff200;}</style></defs><title>browse_1</title><g id="Layer_2" data-name="Layer 2"><g id="Layer_1-2" data-name="Layer 1"><path class="cls-1" d="M153.41,98.66a4.68,4.68,0,0,0-5.42-3.8c-2.54.53-3.91,2.32-3.91,5.2q0,13.38,0,26.77a18,18,0,0,1-.22,3.28,14,14,0,0,1-14.19,11.66q-23.18,0-46.35,0a13.89,13.89,0,0,1-2.74-.22c-7.08-1.39-11.62-7-11.63-14.32q0-23,0-46a17,17,0,0,1,.67-4.76c1.84-6,7.24-9.79,13.88-9.8,8.92,0,17.84,0,26.76,0a12.84,12.84,0,0,0,1.75-.1,4.66,4.66,0,0,0,3.8-5.5c-.54-2.49-2.32-3.83-5.15-3.83-9.11,0-18.21,0-27.31,0a24.56,24.56,0,0,0-4.92.46c-11.39,2.39-18.9,11.69-18.93,23.47q-.06,23.07,0,46.15a26.1,26.1,0,0,0,.8,6.52,23,23,0,0,0,21.28,17.28c8.25.27,16.52.06,24.77.06v.07c7.64,0,15.27.05,22.91,0a28.31,28.31,0,0,0,6.31-.69c10.85-2.71,17.86-11.9,17.89-23.32,0-9,0-18,0-27A11.13,11.13,0,0,0,153.41,98.66Z"/><path class="cls-1" d="M93.36,98.76a6.5,6.5,0,0,0-1.58,2.8c-1.34,5-2.56,10.07-3.81,15.11-1,4.15,1.9,7.1,6,6.09,4.86-1.21,9.72-2.43,14.58-3.61a7.6,7.6,0,0,0,3.76-2.11c5.89-6,11.82-11.85,17.73-17.77q9.62-9.6,19.23-19.22a13.51,13.51,0,0,0,4.19-10,16.51,16.51,0,0,0-.21-2c-1.07-5.15-4.08-8.7-9.08-10.23a12.71,12.71,0,0,0-13.42,3.48Q112,80,93.36,98.76Zm38.09-24.82c2-2,4-4,6.07-6.06a3.75,3.75,0,1,1,5.31,5.29c-2.23,2.28-4.49,4.51-6.8,6.82l-5.28-5.29C131,74.46,131.2,74.19,131.45,73.94Zm-7.54,7.6L129.35,87a6,6,0,0,0-.93.64q-10.83,10.8-21.66,21.61a4.44,4.44,0,0,1-1.84,1.07c-1.92.55-3.87,1-6,1.5.62-2.47,1.18-4.73,1.78-7,0-.23.3-.41.48-.59L123.5,81.9C123.65,81.75,123.83,81.62,123.91,81.54Z"/><path class="cls-1" d="M104.79,209.54c-1.1,0-2.2,0-3.29-.06l.08-2.83c2.17.07,4.37.07,6.54,0l.09,2.83Q106.5,209.54,104.79,209.54Zm-10-.48c-2.22-.21-4.46-.49-6.66-.84l.45-2.8c2.14.34,4.32.62,6.48.82Zm20.12,0-.27-2.82c2.16-.21,4.34-.48,6.48-.83l.45,2.8C119.37,208.55,117.13,208.84,114.91,209.05ZM81.54,207c-2.17-.5-4.36-1.07-6.5-1.7l.8-2.72c2.09.62,4.21,1.17,6.33,1.65Zm46.62,0-.62-2.76c2.11-.49,4.24-1,6.31-1.66l.81,2.72C132.52,205.85,130.34,206.42,128.16,206.92Zm-59.49-3.78c-2.1-.77-4.19-1.61-6.24-2.52L63.58,198c2,.88,4,1.7,6.06,2.45Zm72.37,0-1-2.66c2-.75,4.07-1.58,6-2.45l1.15,2.59C145.22,201.48,143.13,202.33,141,203.1Zm-84.67-5.4c-2-1-3.94-2.14-5.86-3.3L52,192c1.86,1.13,3.78,2.21,5.7,3.21Zm96.92,0L152,195.15c1.92-1,3.84-2.08,5.69-3.21l1.47,2.42C157.23,195.52,155.26,196.63,153.29,197.66ZM44.88,190.73c-1.82-1.27-3.64-2.63-5.38-4l1.77-2.21c1.69,1.35,3.46,2.67,5.24,3.91Zm119.87,0-1.62-2.33c1.77-1.24,3.53-2.55,5.23-3.91l1.77,2.22C168.39,188.07,166.58,189.42,164.75,190.7ZM34.38,182.36c-1.65-1.5-3.27-3.07-4.82-4.67l2-2c1.51,1.55,3.09,3.08,4.7,4.54Zm140.86,0-1.91-2.1c1.61-1.46,3.19-3,4.7-4.54l2,2C178.51,179.25,176.89,180.82,175.24,182.32ZM25,172.72c-1.45-1.69-2.86-3.45-4.19-5.24l2.27-1.7c1.3,1.74,2.67,3.46,4.08,5.1Zm159.54,0-2.16-1.84c1.42-1.66,2.79-3.38,4.08-5.11l2.27,1.7C187.44,169.21,186,171,184.58,172.68ZM17,162c-1.22-1.87-2.4-3.79-3.49-5.73l2.47-1.4c1.06,1.89,2.2,3.76,3.39,5.58Zm175.62-.06-2.37-1.55c1.19-1.82,2.33-3.7,3.39-5.59l2.47,1.4C195,158.12,193.84,160.05,192.62,161.92ZM10.4,150.31c-1-2-1.89-4.07-2.73-6.13l2.63-1.07c.81,2,1.71,4,2.65,6Zm188.83-.09L196.67,149c1-2,1.84-4,2.66-6l2.62,1.06C201.11,146.14,200.2,148.21,199.23,150.22ZM5.35,137.88c-.71-2.12-1.35-4.29-1.92-6.44l2.74-.72c.55,2.09,1.18,4.2,1.86,6.26Zm198.92-.12-2.69-.9c.69-2.05,1.31-4.16,1.86-6.26l2.74.72C205.62,133.48,205,135.64,204.27,137.76ZM1.93,124.89c-.42-2.19-.78-4.42-1.07-6.63l2.81-.36c.28,2.15.63,4.32,1,6.45Zm205.74-.12-2.78-.54c.41-2.13.76-4.3,1-6.45l2.82.36C208.45,120.35,208.09,122.58,207.67,124.77ZM.22,111.58C.08,109.36,0,107.1,0,104.87H2.83c0,2.18.08,4.38.22,6.54Zm209.15-.13-2.83-.18c.14-2.15.21-4.35.21-6.53v-.24h2.83v.23C209.58,107,209.51,109.24,209.37,111.45ZM3,98.33.2,98.16c.14-2.23.35-4.48.63-6.69l2.82.36C3.37,94,3.17,96.16,3,98.33ZM206.53,98c-.15-2.17-.36-4.36-.64-6.5l2.81-.36c.29,2.2.51,4.44.65,6.68ZM4.67,85.38l-2.78-.54c.42-2.19.92-4.39,1.48-6.55L6.11,79C5.57,81.1,5.08,83.24,4.67,85.38ZM204.84,85c-.41-2.13-.91-4.27-1.46-6.36l2.74-.73c.57,2.15,1.08,4.36,1.5,6.55ZM8,72.74l-2.69-.89c.7-2.12,1.48-4.25,2.31-6.32l2.63,1.06C9.4,68.61,8.64,70.67,8,72.74Zm193.55-.34c-.69-2.06-1.45-4.12-2.27-6.13l2.62-1.07c.85,2.07,1.63,4.19,2.34,6.3ZM12.86,60.61,10.3,59.38c1-2,2-4,3.11-6l2.47,1.39C14.81,56.7,13.8,58.65,12.86,60.61Zm183.72-.3c-1-2-2-3.9-3-5.78l2.46-1.4c1.1,1.94,2.15,3.93,3.12,5.94ZM19.27,49.22l-2.38-1.55c1.22-1.87,2.51-3.72,3.85-5.51L23,43.85C21.71,45.59,20.45,47.4,19.27,49.22ZM190.15,49c-1.19-1.81-2.45-3.61-3.75-5.35l2.26-1.7c1.34,1.79,2.64,3.63,3.86,5.5ZM27.08,38.74,24.92,36.9c1.45-1.7,3-3.37,4.51-5l2,2C30,35.45,28.49,37.08,27.08,38.74Zm155.23-.23c-1.4-1.64-2.89-3.26-4.4-4.82l2-2c1.56,1.6,3.08,3.27,4.52,5ZM36.16,29.34l-1.91-2.09c1.65-1.51,3.37-3,5.11-4.36l1.77,2.21C39.44,26.45,37.77,27.88,36.16,29.34Zm137-.19c-1.6-1.46-3.28-2.88-5-4.23L170,22.7c1.74,1.39,3.47,2.85,5.12,4.35Zm-126.84-8-1.63-2.32c1.83-1.28,3.72-2.51,5.62-3.67l1.47,2.42C50,18.73,48.13,19.94,46.36,21.18ZM163,21c-1.79-1.24-3.63-2.44-5.48-3.56L159,15c1.91,1.16,3.8,2.39,5.64,3.66ZM57.5,14.39l-1.32-2.51c2-1,4-2,6-2.92l1.15,2.59C61.4,12.43,59.42,13.39,57.5,14.39Zm94.29-.15c-1.92-1-3.91-2-5.89-2.83L147,8.82c2,.9,4.08,1.88,6.06,2.91ZM69.42,9.09l-1-2.66c2.09-.77,4.23-1.49,6.37-2.12L75.61,7C73.53,7.64,71.45,8.34,69.42,9.09ZM139.83,9c-2-.75-4.13-1.44-6.21-2.05l.8-2.72c2.14.63,4.29,1.34,6.38,2.1ZM81.93,5.36,81.3,2.6c2.17-.5,4.39-.94,6.59-1.29l.45,2.8C86.21,4.45,84.05,4.87,81.93,5.36Zm45.37-.08c-2.12-.48-4.28-.89-6.42-1.23l.45-2.8c2.2.35,4.42.77,6.59,1.26Zm-32.48-2L94.55.45C96.77.23,99,.08,101.25,0l.09,2.83C99.17,2.92,97,3.06,94.82,3.27Zm19.58,0c-2.15-.2-4.35-.33-6.52-.4L108,0c2.24.07,4.49.2,6.71.41Z"/></g></g></svg>