<svg xmlns="http://www.w3.org/2000/svg" viewBox="0 0 544.08 503.37"><defs><style>.cls-1{fill:#fff;}.cls-2{fill:#0d8943;}.cls-3{fill:#010101;}.cls-4{fill:#fdee0d;}.cls-5{fill:#089748;}.cls-6{fill:#813e30;}.cls-7{fill:#c57158;}</style></defs><title>plogo</title><g id="Layer_2" data-name="Layer 2"><g id="Layer_1-2" data-name="Layer 1"><g id="Layer_2-2" data-name="Layer 2"><g id="Component_57_1" data-name="Component 57 1"><g id="Group_2097" data-name="Group 2097"><path id="Path_3205" data-name="Path 3205" class="cls-1" d="M59.27,334.65c-1.06,0-2.5-.94-2.81,0a2.61,2.61,0,0,0,1.75,3.18h5C63.63,335,61.14,335.21,59.27,334.65Z"/><ellipse id="Ellipse_58" data-name="Ellipse 58" class="cls-2" cx="272.94" cy="271.18" rx="211.87" ry="214.05"/><path id="Path_3016" data-name="Path 3016" class="cls-3" d="M131,189.12h.31v-1.25A1.74,1.74,0,0,0,131,189.12Z"/><path id="Path_3191" data-name="Path 3191" class="cls-1" d="M210.34,220.17a28.32,28.32,0,0,0,6.74,17.52,14.21,14.21,0,0,0,13.59,6.24c13.53-2.43,19.39-13.41,20.64-26.13-6.92,2.56-12.47,7.42-19.58,9.73a3.73,3.73,0,0,1-4-.81,11.22,11.22,0,0,1-3.81-7.61c-.93-8.73-.62-12.84,6.92-18.2a120.61,120.61,0,0,1,11.73-7.61c.74-.44,2.61-1.31,1.12-2.31-2.87-1.93-5.24-4.8-8.73-5.42a16.19,16.19,0,0,0-14.09,4.61A38.69,38.69,0,0,0,210.34,220.17Zm5.61-2.8a45.1,45.1,0,0,1,5.8-13.53A59.07,59.07,0,0,1,216,217.37Zm-.31-4.87a48.81,48.81,0,0,1,7.48-17.64Z"/><path id="Path_3192" data-name="Path 3192" class="cls-4" d="M275.37,334.77a51.3,51.3,0,0,0,0,20.21,25.45,25.45,0,0,1-1-18.27c-1.87,2.55-3.31,4.55-4.68,6.54a167.8,167.8,0,0,0-16.15,32.68c-.75,1.68,0,1.74,1.5,1.8a178.62,178.62,0,0,1,23.75,2.75c.88,0,2.44.56,2.75-.56a18.65,18.65,0,0,1,5.3-7.24,22.9,22.9,0,0,0,5.55-16.4c0-5.48,1.87-7.73,6.92-9.1,1.18,0,1-.87.75-1.62a41.25,41.25,0,0,0-10.73-17c-3-2.37-3.8-2.31-6.23,1a43.16,43.16,0,0,0-5.18,12.47c0,.81,0,1.93-1.62,1.68s-.75-1.31-.81-2.06A24,24,0,0,0,275.37,334.77ZM272,349.92l1.81,11A20.28,20.28,0,0,1,272,349.92ZM271.13,360l4.18,9a14.41,14.41,0,0,1-4.11-9Z"/><path id="Path_3193" data-name="Path 3193" class="cls-1" d="M232.41,201.72a17.21,17.21,0,0,0-5,23.25,3.13,3.13,0,0,0,4,1.83l0,0h.43a114.64,114.64,0,0,0,17.59-10.22,8.21,8.21,0,0,0,4.05-4.24,10.8,10.8,0,0,0-4,1.93,63.89,63.89,0,0,1-16.9,9.85,4.18,4.18,0,0,1-5.58-1.93l0-.06a4.18,4.18,0,0,1,0-1A15.41,15.41,0,0,1,233.6,204c4.86-3,10-5.61,15-8.35a1.87,1.87,0,0,0,1.18-2.18,2.11,2.11,0,0,0-1.93-1.75c-.88,0-1.81-.31-2.25,1s-.81,1.06-1.37,1.49C240.52,197.16,236.28,199.16,232.41,201.72Z"/><path id="Path_3194" data-name="Path 3194" class="cls-1" d="M184.47,239.63c-.69,1-1.5,2.05-1,3.24.93,2.49,0,4.74-.5,7.42l26.25-20c.69-.56,1.25-1.31.94-2.12-.82-2.05-.32-4.36-1.56-6.23-1.56.81-2.62,2.55-4.56,2.8.82-1.43,2.25-2.24,3.93-3.92a14.52,14.52,0,0,0-3.49,1.24l-21,15.78c-.62.5-1.5,1.12-1.12,2.06S183.72,239.13,184.47,239.63Z"/><path id="Path_3195" data-name="Path 3195" class="cls-1" d="M172.62,264.57a9.57,9.57,0,0,0,1.43-.81c9.29-7.3,18.71-14.59,28.25-21.58,2.31-1.68,4.43-3.61,6.61-5.42a1.82,1.82,0,0,0,.13-2.56l-.13-.12c-.81-1.25-1.56,0-2.06,0a25.17,25.17,0,0,0-4.68,2.86q-13.83,10.6-27.56,21.27C171.81,260.14,171.06,261.89,172.62,264.57Z"/><path id="Path_3196" data-name="Path 3196" class="cls-5" d="M183.28,261.89a11.6,11.6,0,0,0-1.68,9,12.48,12.48,0,0,0,15.09,8.23,10.39,10.39,0,0,1-9.85.74,10.58,10.58,0,0,0,11.78,2.25,11.66,11.66,0,0,1-7.42,2.06c-2.87,0-4.3-2.62-6.23-5a8.18,8.18,0,0,1-2.62,6.86,31.71,31.71,0,0,0-3.56,4.11,4.81,4.81,0,0,0-.31,6.24,13.46,13.46,0,0,0,9,4.61,3.8,3.8,0,0,0,3.68-1.74,145.21,145.21,0,0,0,9.54-15c2.12-3.24-1.81-5.73,0-8.6a4.23,4.23,0,0,0-.56-.56,4.85,4.85,0,0,0-3.74-1.44h-9a60.59,60.59,0,0,1,11.1-.5c2.12,0,4.55,2.75,3.61,3.49s-.74,2.25,0,3.43a3.1,3.1,0,0,1,0,2.69A88.63,88.63,0,0,1,195,296a12.43,12.43,0,0,0-2.3,3.8h.62a2.49,2.49,0,0,0,.69-.43,39.8,39.8,0,0,0,12.47-24.57,9.16,9.16,0,0,0-5.8-10.72A34.65,34.65,0,0,0,189.77,261C187.46,260.64,184.84,259.7,183.28,261.89Z"/><path id="Path_3197" data-name="Path 3197" class="cls-5" d="M227.93,362.33c0,.63-.82,1.25,0,1.69s.87-.69,1-1.06a138.44,138.44,0,0,1,7.61-14.47,38,38,0,0,1,7-9.66,1.45,1.45,0,0,1-.56,1.43,179.76,179.76,0,0,0-12.47,21.89,3.8,3.8,0,0,0,.56,5c3.62,4.43,8.86,7.49,11.41,12.47.38.69,1.31,1.06,1.87,1.63s1.56,0,1.62-.69a80.7,80.7,0,0,1,6.24-18.71,21.93,21.93,0,0,1,4.43-8,15.88,15.88,0,0,1-.56,1.5,116.56,116.56,0,0,0-9.23,25c-.38,1.75,0,1.87,1.49,2.31a58,58,0,0,0,10.92.87,158.42,158.42,0,0,1,23.5,3.87l38.91,10.47c1.81.5,3.62.81,5-1.12,2.8-4,5.36-8.17,7.85-12.47A115.3,115.3,0,0,1,350,361.65c3.05-3.31,5.86-6.8,9.1-10.48-.69,0-1,0-1.12.31a176.77,176.77,0,0,0-22.08,24.94c-4.05,5.87-8.1,11.66-11.59,17.84a2.37,2.37,0,0,1-3.1,1.28l-.08,0h0c-3.31-1.31-6.67-2.49-10-3.68a172.09,172.09,0,0,0-48.38-10.35,49.32,49.32,0,0,1-9.85-1.12c-2.12-.56-2.31-1.31-1.63-3.05,1.25-3.12,2.5-6.24,3.56-9.42a78.23,78.23,0,0,1,19.58-33.36c1.62-1.55,1-3.24.81-5.11l-3.12,2.68a64.22,64.22,0,0,1-7.79,10,122.12,122.12,0,0,1-7.86,12.47,40.23,40.23,0,0,1,7.79-12.47,36.1,36.1,0,0,1,7.8-10c0-1.31,1.12-1.81,1.81-2.62a3.18,3.18,0,0,0,1.24-2.49c0-3.06-2.12-5.67-1.93-8.73a.73.73,0,0,0-.5-.56c-2.74-.31-5.55-1.87-8.35,0,0-1.56-1-1-1.94-.62a19.06,19.06,0,0,0-5.48,4,145.83,145.83,0,0,0-21.58,27.87A63.5,63.5,0,0,0,227.93,362.33Zm12.47-1.93a63.46,63.46,0,0,1,9.72-26.25Zm7.17-12.47a36.14,36.14,0,0,1,8.1-15,87.05,87.05,0,0,1-7.92,15.08Zm14.59-18.71a52.51,52.51,0,0,1-10.11,14.66A30.19,30.19,0,0,1,262.16,329.22Zm-.94-9.6a109.14,109.14,0,0,1-11.1,11A45.65,45.65,0,0,1,261.22,319.62Z"/><path id="Path_3198" data-name="Path 3198" class="cls-4" d="M210.47,335a28.79,28.79,0,0,1,10.47,16.27,26.9,26.9,0,0,0,5.36,10.42,128.58,128.58,0,0,1,28.62-42.28A22.16,22.16,0,0,0,241.08,318a72.08,72.08,0,0,0-30.43,12.47C208.1,332.4,208.53,333.34,210.47,335ZM233,324.24a65,65,0,0,0-10.85,16.46A28,28,0,0,1,233,324.24Z"/><path id="Path_3199" data-name="Path 3199" class="cls-2" d="M179.42,299.67a6.54,6.54,0,0,1-3-8.74,1.17,1.17,0,0,1,0-.11,5,5,0,0,1,.63-1c.87-1.19,1.8-2.31,2.8-3.43,1.81-2.25,4.18-4.3,2.43-7.73a17.49,17.49,0,0,1-1.93-3.87c0-1.12-.75-1.43-1.87-.5-5.42,4.62-11,9.17-16.46,13.72l-15,12.47c-3.92,3.24-7.85,6.24-11.72,10-.56.43-1.31.74-1.06,1.93a21.36,21.36,0,0,1,0,5.3A11.28,11.28,0,0,0,140,328.16a160,160,0,0,1,20.32,18.71,67.08,67.08,0,0,1,5.18,6.23,113.36,113.36,0,0,1-11.41-9c5.49,6.23,10.91,12.47,16.4,19.7,0-2.62-1.25-4.74-.31-6.73,1.43-3.12,1.43-5.68-2.06-7.36l-.56-.56c-5-5-10.1-9.92-15-15a32.41,32.41,0,0,1-7.6-11.91c1.62,1.43,3.3,2.81,4.92,4.3a207.39,207.39,0,0,1,21.39,24.2c.31.37,0,1.24,1.06,1.06a2.18,2.18,0,0,0,1.43-1.5v-2.81c0-2-.56-4.11.69-6.23a5,5,0,0,0,.18-4.55,98.43,98.43,0,0,1-9.22-22.64,11.49,11.49,0,0,1-.88-2.87c0-1-1.24-1.8-.43-3a79.59,79.59,0,0,1,11.84,22.45c0,.62-.37,1.68.57,1.87s1-.81,1.43-1.37a67.28,67.28,0,0,1,12.16-12,5,5,0,0,0,2.87-4,33.47,33.47,0,0,1,.93-7c.94-2.62,1.5-5.3,2.37-8.17-2.56.93-4.24,2.74-6.86,2.8A18.06,18.06,0,0,1,179.42,299.67Zm-7.92,40.47a36.39,36.39,0,0,1-6.24-12.47A34.78,34.78,0,0,1,171.5,340.14Z"/><path id="Path_3200" data-name="Path 3200" class="cls-1" d="M204,220.05a5.07,5.07,0,0,0,5.12-3.81,41.94,41.94,0,0,1,.49-7.42,33.45,33.45,0,0,1,14.91-23.69,24.58,24.58,0,0,0-5.43,2.12,33.62,33.62,0,0,0-11.91,14.59,58.76,58.76,0,0,0-3.86,17.4.61.61,0,0,0,.36.8H204Z"/><path id="Path_3201" data-name="Path 3201" class="cls-1" d="M177.11,254.65h-7c1.12,4.74,1.12,4.74,4.8,2.06A22.32,22.32,0,0,0,177.11,254.65Z"/><path id="Path_3202" data-name="Path 3202" class="cls-1" d="M66.75,355.41a9.23,9.23,0,0,0,10.22-4c.56-.75,1.13-1.43,1.75-2.12,4.86-5.17,11.16-8.79,15.84-14.15a11.79,11.79,0,0,0,3.92-7,5.12,5.12,0,0,1-5.3,1.94c-2.55-.75-3.55.37-4.92,2.3a122.94,122.94,0,0,1-14.59,13.35,129.84,129.84,0,0,0-11.29,9.66A35.4,35.4,0,0,1,66.75,355.41Z"/><path id="Path_3203" data-name="Path 3203" class="cls-1" d="M77.66,356.22a113.35,113.35,0,0,1,12.84-12.9,26.65,26.65,0,0,0,10-14.72,10.16,10.16,0,0,0-3-10.16A7.92,7.92,0,0,0,88.7,318a89.65,89.65,0,0,0-23.26,16.21,1.74,1.74,0,0,0-.56,2.37h0c.93.87,1.62,0,2.3-.75,3.62-2.86,6.68-6.23,10.1-9.47A35.81,35.81,0,0,1,90.38,318a7.35,7.35,0,0,1,7.54,2.18,8,8,0,0,1,2.19,7,27.12,27.12,0,0,1-11.48,15.77A83.8,83.8,0,0,0,77.41,353.6a8.11,8.11,0,0,1-6.8,3.37H61.76c.69,1.81,1.62,2.31,3,2.25a29.58,29.58,0,0,1,5.8,0A7.17,7.17,0,0,0,77.66,356.22Z"/><path id="Path_3204" data-name="Path 3204" class="cls-1" d="M75.48,363.52c2.24.31,4.42,1.56,7.1.5A6.77,6.77,0,0,0,75.48,363.52Z"/><path id="Path_3206" data-name="Path 3206" class="cls-1" d="M82,290.38a22.37,22.37,0,0,0-13.4,8.29A53.87,53.87,0,0,0,58,330.47c0,2.56,1.49,2.43,3.18,2.62S63,331.91,63,330.6a67.65,67.65,0,0,1,.56-11.29A40.66,40.66,0,0,1,82,290.38Z"/><path id="Path_3207" data-name="Path 3207" class="cls-5" d="M141.76,255.15h1.68a16.83,16.83,0,0,1,14.65,9.48,47.12,47.12,0,0,1,4,16.46,9.22,9.22,0,0,0,7.61-9.35q0-5.25-.37-10.48a13.47,13.47,0,0,0-9.17-13.15c2.12,1.06,4.55-1.25,6.8,1.49a12.42,12.42,0,0,1,.31-7.67c.56-2.93,0-3.49-2.74-3.43a17.23,17.23,0,0,0-6.24,1.44c.87-2.06,2.74-1.69,3.93-1.87,5.74-.94,6.23,0,5.24,5.55h0a7,7,0,0,0,2.68,7.6,8.09,8.09,0,0,0,8.73-.87,5.7,5.7,0,0,0,2.37-6.24,14.11,14.11,0,0,0-5.12-9.35,12.48,12.48,0,0,0-17,0c-3.49,3.49-5.05,8.23-8.35,11.91,1.8.62,3.18-.81,4.8-.5a42.7,42.7,0,0,0-13.91,8.23Z"/><path id="Path_3208" data-name="Path 3208" class="cls-1" d="M141.13,284.71c1.25-3.87.44-6.24-2.87-7.86A53.54,53.54,0,0,0,141.13,284.71Z"/><path id="Path_3209" data-name="Path 3209" class="cls-5" d="M149.67,271.55a12.47,12.47,0,0,1,2.5,14.9,9.28,9.28,0,0,0,4.61-2.18,9,9,0,0,0,2.06-9.1,26.69,26.69,0,0,0-7.17-15,16,16,0,0,0-11.35-3.93c-2.62,0-3.24,2.5-5.11,3.74l6.61,5.24A94.91,94.91,0,0,1,149.67,271.55Z"/><path id="Path_3210" data-name="Path 3210" class="cls-5" d="M133,273.61a3.65,3.65,0,0,1,3-1.06,13,13,0,0,1,6.73,8c0,2.62-1.18,5.11-.62,7.79,0,1.06.56,1.94,1.68,1.63a9.6,9.6,0,0,0,3.68-17.71l-10.91-9a4.12,4.12,0,0,0-5.79-.56l-.07.06a2.82,2.82,0,0,0-.75.75,20.47,20.47,0,0,0-4.49,15Z"/><path id="Path_3211" data-name="Path 3211" class="cls-1" d="M387.92,230.71a.4.4,0,0,0-.38-.37l-8.23-4.12v1.06a63.5,63.5,0,0,1,12,15.9,1.84,1.84,0,0,0,1,1.31c3.81,1.31,4.43,4.74,5.49,8.67.81-1.63,2.12-2,3.12-2.81a3.92,3.92,0,0,0,1-5.46l0,0h0C398.08,239.06,395.28,232.7,387.92,230.71Zm5.36,9.79a1.28,1.28,0,0,1-1.37-1.37c-.06-.88,0-1.75,1.18-1.87a1.25,1.25,0,0,1,1.5.81c0,1.68,0,2.37-1.25,2.43Zm3.74,4.92c-.87,0-1.18-.62-1.25-2.12a1.68,1.68,0,0,1,1.31-1.06c1-.12,1.25.94,1.38,1.44A1.62,1.62,0,0,1,397,245.42Z"/><path id="Path_3212" data-name="Path 3212" class="cls-2" d="M385.55,479.3a1.88,1.88,0,0,0,0-2.62l-5.18-7.48c-4.92,3.24-6.23,8.86-8.16,13.6-2.87,6.23-5.55,13-7.86,19.76a.55.55,0,0,1,0,.31h5.36A43.31,43.31,0,0,1,376.45,491C379.44,487,382.43,483.17,385.55,479.3Z"/><path id="Path_3213" data-name="Path 3213" class="cls-2" d="M391.35,478.87a2,2,0,0,0,0-2.74h0a70.57,70.57,0,0,1-7.73-8.48c-.32-.43-.69-1.18-1.5-.43s-.56,1,0,1.81c1.5,2.05,2.68,4.36,4.3,6.23a3.55,3.55,0,0,1,0,5l0,0h-.31a181,181,0,0,0-12,16.27,69.46,69.46,0,0,1-3.68,6.24h3.68A131.29,131.29,0,0,1,386.61,485Z"/><path id="Path_3214" data-name="Path 3214" class="cls-5" d="M363.91,372.68a247.78,247.78,0,0,0-17.77,24.57c-2,3.05-4.11,6.23-6.23,9.1a63.16,63.16,0,0,0,9.54-11.22A219,219,0,0,1,375.2,364a77.05,77.05,0,0,1,21.38-14,16,16,0,0,1,8.73-.81,9.78,9.78,0,0,0,4.24,0c-2.93-3.62-3.92-3.81-7.85-2.19a152,152,0,0,0-18.08,9A79.15,79.15,0,0,0,363.91,372.68Z"/><path id="Path_3215" data-name="Path 3215" class="cls-5" d="M381.18,336.71c-.74-1.31-1.74-.81-2.61-1-2.31-3.37-3.93-3.43-5.62,0-.5,1.12-1.12,2.18-1.93,3.74l5.74-2.37c-1.94,2.31-4.87,3.18-6.92,5.49A112.54,112.54,0,0,1,381.18,336.71Z"/><path id="Path_3216" data-name="Path 3216" class="cls-4" d="M365,314.88a6.91,6.91,0,0,1-2.43,7.67,61.66,61.66,0,0,1-13.34,6.8A63,63,0,0,1,330.49,334a26.79,26.79,0,0,1,8.36,14.65,54.2,54.2,0,0,0,2.24,10.91c.44,1.06.56,1.81,1.75.69a196.1,196.1,0,0,0,16.08-14.41,46,46,0,0,0,9-14.78,29,29,0,0,0,0-15,26.94,26.94,0,0,0-2.86-10A17.34,17.34,0,0,0,365,314.88Zm-20.88,37.41a20.24,20.24,0,0,1,4.67-9.72C347.27,345.87,345.33,348.8,344.09,352.29Zm5.36-3.36a20.08,20.08,0,0,1,3.49-7.05l.56.38Z"/><path id="Path_3217" data-name="Path 3217" class="cls-1" d="M301,357.66a2,2,0,0,0,1.68-1.5,1.43,1.43,0,0,0-1.55-1.25c-.88,0-1.19.69-1.19,1.44S300.38,357.72,301,357.66Z"/><path id="Path_3218" data-name="Path 3218" class="cls-2" d="M314.09,501.5a7.47,7.47,0,0,0-4.61-3.3A32.5,32.5,0,0,1,299.32,493c-.94,4.18-3.62,5.24-7.55,5.24a69.88,69.88,0,0,1-23.19-5.62,49.87,49.87,0,0,0-13.84-3.05c-7.11-.38-14.16-1.56-21.27-2-5.54-.37-11-1.06-16.39-1.74-3.56-.44-4.06-1.37-3.68-5,.56-4.74,1.18-9.42,1.81-14.15,1-7.74,2.43-15.47,4.11-23.07a73.11,73.11,0,0,1,5.61-16.78c1-1.87-.43-3-1.24-4.11s-1.44-2.18-3.5-1.75a8,8,0,0,1-9.78-5.79h0a9.83,9.83,0,0,1,0-2.3c0-2.12-1.24-2.93-3.3-2.37a5.51,5.51,0,0,0-1.43-4.55,180.36,180.36,0,0,0-8.92,53.68,11.12,11.12,0,0,0,.81-3.12,171.86,171.86,0,0,1,3.49-27.12A52.25,52.25,0,0,1,205.79,414c-.56,4.3-2.56,8.11-3.43,12.47-1.25,5.74-1.93,11.54-2.74,17.34-1.25,9.41-1.69,18.7-2.68,28.43a29.34,29.34,0,0,0,.74,6.54c1.19-11.84,0-24.06,5.55-35.22a80.52,80.52,0,0,1-.49,15.52c0,2.81-.63,5.74-.69,8.48a188,188,0,0,0-.62,23q.49,5.54.43,11.1a10.44,10.44,0,0,1,0,1.37h13.28a31.23,31.23,0,0,1-4.74-22.2,75.21,75.21,0,0,0,4.87,22.2H315A3.49,3.49,0,0,1,314.09,501.5ZM206.41,491.15a78.53,78.53,0,0,1,0-29.55Z"/><path id="Path_3219" data-name="Path 3219" class="cls-4" d="M351.88,471.26A32.31,32.31,0,0,1,349.2,490a31.23,31.23,0,0,0,14.59-9.86,10.22,10.22,0,0,0,1.56-8.23,17.94,17.94,0,0,0-.69-4.11v6.11c-1.93-6.24-1.43-12.47-3.49-18.71a82.66,82.66,0,0,0-9.42-23.94,37.4,37.4,0,0,0-20-14.9,16.6,16.6,0,0,0-9,1.25,56.52,56.52,0,0,1-13.91,2.93,1.43,1.43,0,0,0-1.49.87c0,.93.75,1,1.18,1.18a142.15,142.15,0,0,1,12.85,6.24,26.24,26.24,0,0,1,13.59,18.7,65.13,65.13,0,0,1,0,28,5.31,5.31,0,0,1-.5,2.18v-4.42c-1.18,6.6-3.93,12.47-5.61,19a8.54,8.54,0,0,1-9.38,7.61h-1.22a7.77,7.77,0,0,0,2.31,3.49h11.53A37,37,0,0,0,351.88,471.26Zm-7.73,13c3.86-14.59,7.92-29.12,5.36-44.58A54.39,54.39,0,0,1,344.15,484.29ZM329.06,424c6.23,2.37,20.89,16.65,18.7,28.06C345.33,439.59,336.73,431.92,329.06,424Z"/><path id="Path_3220" data-name="Path 3220" class="cls-2" d="M360.36,502.93h2.74c4.3-9.78,7.42-19.76,11.79-29.24A296.72,296.72,0,0,0,360.36,502.93Z"/><path id="Path_3221" data-name="Path 3221" class="cls-2" d="M362.1,497.14A59.17,59.17,0,0,1,365,490.9a38.9,38.9,0,0,0,2.86-7.67,40.48,40.48,0,0,1-12.47,9,21.79,21.79,0,0,1-2.8,1.12,15.6,15.6,0,0,0-8.36,6.24,8.9,8.9,0,0,1-3,3.05h18.7A17.47,17.47,0,0,1,362.1,497.14Z"/><path id="Path_3222" data-name="Path 3222" class="cls-4" d="M301.31,341.94a10.54,10.54,0,0,0-.81-4.8c-1.62-3.8-4.05-7.17-5.3-11.1a4.86,4.86,0,0,1,1.93-6.23l.94-.37a74.51,74.51,0,0,1,13.72-3.37,27.46,27.46,0,0,0-7.92-5.05,3.57,3.57,0,0,1-2.31-3.12c0-2.56-1.37-2.18-2.87-.81a32.17,32.17,0,0,1-7.67,5.24,94.26,94.26,0,0,1-14.59,6.23A38.77,38.77,0,0,1,301.31,341.94Z"/><path id="Path_3223" data-name="Path 3223" class="cls-6" d="M315.22,278c-1.94-.87-3.68-1.62-4.24-4a70.22,70.22,0,0,0-2.81-7,24.94,24.94,0,0,0-1.12,12.47,12,12,0,0,0,13.14,10.67h.08a11.84,11.84,0,0,0,7.11-3.24,58.19,58.19,0,0,0,10.28-11,9.82,9.82,0,0,0,3.12-6.24c-1.68,1.44-3,3.18-4.68,4.68a16.23,16.23,0,0,1-12.47,5.36,11.26,11.26,0,0,0-5.73.31h-.56C318,276.91,315.84,278.28,315.22,278Z"/><path id="Path_3224" data-name="Path 3224" class="cls-7" d="M300.38,263.51c-.5-2.56,0-4.12,2.43-4.31s5.86-2.37,9.35-.87a7.38,7.38,0,0,0,5.43,0c-.69,2.25-3.06,1.75-4,2.68,3.11,5.24,6.67,2.18,10.16.75,0-.5-.31-.5-.62-.69s-1.56-1.55-1.25-2.24,1.56-.37,2.43,0a34.33,34.33,0,0,1,6.23,1.68,39.07,39.07,0,0,1,6.55,1.75,17.2,17.2,0,0,0,7.36,2.62c.81,0,1.31,0,1.12,1.12a32.87,32.87,0,0,1-2.24,10.91,22.51,22.51,0,0,0-4.12,11.66A12.48,12.48,0,0,1,333,299.73a93.53,93.53,0,0,0,8.85-27.56,7.25,7.25,0,0,0-2.12,3.31,38.52,38.52,0,0,1-13.16,15.09,13.09,13.09,0,0,1-21-8.05,29.1,29.1,0,0,1,0-11.16c0-1.49.88-3.05,0-4.42a1.25,1.25,0,0,1-.81-.32,9.81,9.81,0,0,0-.87,4.43,52,52,0,0,1,0,14.53,32.3,32.3,0,0,0,.93,8.48c.63,3.05-.81,6.23,1.69,9.16.43-.49.75-1.24,1.62-1.49,0,2.74,3.05,1.87,3.18,1.81,2.87-1.25,3.68-4.06,4.8-6.61,0-.88-.5-.88-1.19-1.06a9.27,9.27,0,0,1-4.61-2.12,21.54,21.54,0,0,1,11,1.24,3,3,0,0,1-2.81.94c-.93,0-1.31,0-1.31,1.25a23.27,23.27,0,0,0,.81,6.54c.75,2.25,3.37,3.43,4.93,2.25a6.44,6.44,0,0,0,.37,2.62c.63-1.25,2.12,0,2.87-1,2.12-2.62,5.74-3.49,7.3-6.67a2.33,2.33,0,0,1,1.62-1.37c1,.87-1.38,2.05,0,2.74a3.36,3.36,0,0,0,3.74-.75,17.5,17.5,0,0,1,2.24-1.5c-1.18,2.12-2.87,3.74-4,5.74a2.38,2.38,0,0,0,2.68-.75,188,188,0,0,1,19.83-10.41,18,18,0,0,0,11.1-9.91c1.68-4.56,3.24-9.11,4.86-13.6,2.12,1.31,2.74,1.69,3.49,1.37,5.43-2,10.91-3.92,12.47-10.41a32,32,0,0,0,1.37-10.29,5.23,5.23,0,0,0-8.41-4.55,39.22,39.22,0,0,1-4.43,2.68c-1.81.75-3.43,1.81-2.68,3.81S375,257,375,259.2c0,.81-1.06,0-1.62,0s-.56-.43,0-1.06c1.31-1.87,1.18-2.43,0-5.17a3.83,3.83,0,0,0,.56-1.06c0-1.5,2.25-3.06,0-4.55-.56-.38,0-1.13.44-1.44s.56.38.81.63a1.89,1.89,0,0,0,2.18,0c.75-1.13-1.68-1.75,0-2.12s1.19-1.5.69-2.12-2.19-2.19-1.81-3.81,1.93-2.18,2.87-3.3c-1.13-.5-2.87-.5-2.25-2.37s.81.56,1.44,0a11.11,11.11,0,0,0-8.73-10c-9.11-2.62-18.21-5.23-27.13-8.23a69.61,69.61,0,0,0-35.22-.81,14.44,14.44,0,0,1,8.23,8.73c-2.93-.43-4.87-2.8-7.42-3.86a4.73,4.73,0,0,0-6.23,2.47v0a2.73,2.73,0,0,0-.31,1.18,79.58,79.58,0,0,0-.62,10.23,2.33,2.33,0,0,1-.38,1.81,46.24,46.24,0,0,0-6.23,12.47A25,25,0,0,0,296,269.37c0-1.31-.81-2.62,0-3.81l6.24,14A26.69,26.69,0,0,0,300.38,263.51Zm81.05-9.23c1.06-1.19,1.81-2.75,2.87-3.93,3.06-3.55,5.55-3,7.86,2L389,251.1c1.5,2.8,3.62,5.11,2.18,8a11.54,11.54,0,0,1-6.23,5.49c.75-2.44,2.49-4.18,3.36-6.24s0-4.43-.81-6.8c-1.43,1.19-2.68,2-2.12,3.93s-.87,2.31-1.87,3.12a1.19,1.19,0,0,1-1.56,0h0c-.43-1.12-1.68-2.18-.37-3.62ZM338.22,258a6.75,6.75,0,0,1,2.12-7.36c-.93,6.24,3.06,9.11,6.55,12.47-5.24-.62-8-2.18-8.67-5.24Zm12.47-20.76c.57,1.56-.62,2.8.32,4.11s-.38.44-.57.56a11.07,11.07,0,0,1-7.48,1.25,39.67,39.67,0,0,0-4.74-.5c1.5-1.93,3.43-.44,5-1.37a4.3,4.3,0,0,1,.81-4.86c-3-1.25-4.42.87-6.23,2.3a9.1,9.1,0,0,1,12.13-4.31h0a6.83,6.83,0,0,1,1.31.75h0a7.69,7.69,0,0,0-9.61-2.56c-.68.31-.93,0-2.68-.93a8.23,8.23,0,0,1,11.54,1.12c0,.31.43.56.56.81a1.55,1.55,0,0,1,0,1.56h0c.62,1.81,1.87,1.62,3.74.68-2.56,2.44.62,1.44.75,2.31-1.81,1.56-3.43,0-5.36-.62ZM372.21,256a14.12,14.12,0,0,1-8.92,8.92A79.93,79.93,0,0,1,372.21,256ZM350,219a8.1,8.1,0,0,1,7.79,4.61c.63,1,1.12,2.06,1.94,3.49-.69,0-1.06,0-1.31-.5a14,14,0,0,0-15-1.37,59.47,59.47,0,0,1-7.48,1.44A26.19,26.19,0,0,1,350,219Zm-17.34,38a13.72,13.72,0,0,0-.43-6.73C335.61,252.53,335.79,254.15,332.67,257Zm1.19-19c.5,1.75-1.37,3.43,0,5.12C331,241,331,240.31,333.86,238Zm-4.05,17c-2.19-1.24-4,.81-6.24.63C325.5,252.28,327.56,252,329.81,255Zm-18-.68c-.63-.75-.88-.75-2.06,0s-3.74-1.62-4-3.12.44-3.18,3.43-4.49c-.56,1.56-1.44,2.56-1.25,4s.44,1.56,1.37,1.31,1.69,0,1.5-1.18a7.42,7.42,0,0,1,1-4.49A14.44,14.44,0,0,0,319.08,257,6.22,6.22,0,0,1,311.79,254.28Zm9-23.26c3.3,4,.62,11-7.42,13.72l3.24-3.56-3.81,1.19C316.65,239.38,321.39,237.26,320.77,231Zm-16.59-.87c-.62-1.31.5-1.81,1.12-2.5,3.06-3.67,6.24-3.55,9.67.81-4.87-2.86-5.61-2.86-9.23,0a8.4,8.4,0,0,0,2.24,0,7.42,7.42,0,0,1,7.92,3.31,3.92,3.92,0,0,1,.56,4.55c-1.18,1.68-2.18,3.49-5,3.49s-6.24-1.31-6.8-4.74a7.84,7.84,0,0,0,5.36,3.5c-.37-1.38-1.37-2.56-.87-3.87s2-1.81,3.18-2.56a5,5,0,0,0-5.68-1.31l-2.05.63a1,1,0,0,1-1.19-.5c-.68-1.19.81-.62.75-.75Zm-7.79,28.68a57.56,57.56,0,0,1,8.54-5.42C304.06,257.89,301.44,259.64,296.39,258.83Z"/><path id="Path_3225" data-name="Path 3225" class="cls-1" d="M298.76,217.12c.87-2.5,2.43-4.68,3.43-7.49C297.38,210.82,299.32,214.56,298.76,217.12Z"/><path id="Path_3226" data-name="Path 3226" class="cls-6" d="M333.8,266.69c-3.62-.81-7.17-3.43-10.79-2.44a16,16,0,0,1-10.91-.68A14,14,0,0,0,307,263c-.88,0-2.31,0-2.31.81s1.43,1.37,2.43,1.43,3.43-.43,4.68,0a29,29,0,0,0,11,2.81,28.32,28.32,0,0,0,14.59-.5C336.73,266.37,335,266.94,333.8,266.69Z"/><path id="Path_3227" data-name="Path 3227" class="cls-1" d="M321.58,269.18a21.57,21.57,0,0,1-11.85-1.87l-.44.62c1.13,2.19,2.37,4.31,3.31,6.55a3,3,0,0,0,2.24,1.81A25.49,25.49,0,0,0,333,274.36a40.07,40.07,0,0,0,5.86-4.87,43.09,43.09,0,0,1-10.17,1.37C326.07,270.93,324.26,269.06,321.58,269.18Z"/><path id="Path_3228" data-name="Path 3228" class="cls-1" d="M106.47,299.3a17.27,17.27,0,0,0-16-8.73,22.19,22.19,0,0,0-16.65,9.6A45.35,45.35,0,0,0,64.88,332c2.74-2.25,5.11-4.24,7.6-6.24a54,54,0,0,1,18.71-10.22A7.85,7.85,0,0,1,101,320a15.16,15.16,0,0,1,.5,11.78,28.91,28.91,0,0,1-8.23,11.78L82,354.23c-3.49,3.43-2.86,5.8,1.75,7.23a16.17,16.17,0,0,0,13.72-1.75,36,36,0,0,0,16.89-33.29,44.25,44.25,0,0,0-.87-7.61A54.21,54.21,0,0,0,106.47,299.3ZM66,327.35a64.86,64.86,0,0,1,18.08-28.8A168.62,168.62,0,0,0,66,327.35Zm40,15.59L108,329.66A35.87,35.87,0,0,1,106,342.94Z"/><path id="Path_3229" data-name="Path 3229" class="cls-4" d="M321.45,393.57c1.56.81,1.75-.37,2.12-1.18a105.89,105.89,0,0,1,14.59-23.07c1.87-2.25,3.49-4,1.12-7.55a59.65,59.65,0,0,1-4.8-12.47,18.57,18.57,0,0,0-4-7.54c-1.49-1.37-2.62-1.5-4.42,0A25.51,25.51,0,0,1,303.31,348a6.23,6.23,0,0,0-8,3.75,1.34,1.34,0,0,0-.07.18v.75a27.79,27.79,0,0,0-.68,6.23A21,21,0,0,1,291,370.44a42.18,42.18,0,0,1-5.24,6.23,4.8,4.8,0,0,0-1.43,4c0,.94,2,.88,3.18.94a22.44,22.44,0,0,1,2.93.62,34.66,34.66,0,0,0,11.22,2,85.05,85.05,0,0,0,9.48-2.31c3.49-1,6.92-2.12,10.35-3.18a35.22,35.22,0,0,1-18.7,6.24A124,124,0,0,1,321.45,393.57Zm-21.2-40a14.7,14.7,0,0,1,8.48-2.49c1.75,0,3.37-.94,5.55-.44-3.93,1.62-7.85,1.75-11.6,2.93.57,1.25,2.44,2,1.44,3.5s-1.25,1.93-2.62,1.74-1.62-1.06-2.18-2.12S298.82,354.6,300.25,353.6ZM320,351.55a16.87,16.87,0,0,1-11,1.93ZM290.4,380.91c10.48-5.05,21.26-9.29,31.55-14.52A76.58,76.58,0,0,1,290.4,380.91Zm23-4.11a21.88,21.88,0,0,1,13.4-5.68Z"/><path id="Path_3230" data-name="Path 3230" class="cls-7" d="M301.44,324.24a5.54,5.54,0,0,0-1.25,6.92,37.23,37.23,0,0,1,3.55,13.65c0,2.18.88,2.12,2.56,1.5,3.12-1.12,6.24-1.87,9.35-3a16.85,16.85,0,0,0,10.85-8.86,4.29,4.29,0,0,1,4.8-2.8,5.32,5.32,0,0,0,1.69,0,64.35,64.35,0,0,0,21.88-10.17,15.94,15.94,0,0,0,6.8-9.29c.62-2.55,1.37-5.05,2.24-7.54s1.94-5.3,3-8.23A42,42,0,0,1,352.63,304l2.8-2.49c.94-.87,2.5-1.12,2.75-2.87a165.88,165.88,0,0,0-19.64,10.72,140.4,140.4,0,0,1-18.71,10.17c-3.43,1.56-4.55,1.31-6.23-1.56a23.81,23.81,0,0,1-4.12,12,40.15,40.15,0,0,1,1.5-11.59A13.64,13.64,0,0,0,301.44,324.24Zm51.94-19.52.37.44-7.86,7.92-.37-.44Zm-12.47,15.71a33,33,0,0,1-12.47,7.42Z"/><path id="Path_3231" data-name="Path 3231" class="cls-4" d="M321.2,207.2a148.27,148.27,0,0,1,27.06,5.18c11.41,3.37,22.2,8.42,33.24,12.84a50.42,50.42,0,0,1,20,12.1,1.38,1.38,0,0,0,1.9.4l0,0h0a54.43,54.43,0,0,0-12-14.15,16.49,16.49,0,0,1,8.67,2.24c0-5.17.93-10.1,1.06-15a99.56,99.56,0,0,0-.38-18.27A55.34,55.34,0,0,0,393.9,173a44.82,44.82,0,0,0-19.33-17.95,13.48,13.48,0,0,1,7.92,2.06,30.22,30.22,0,0,0-8.1-9.67,12.44,12.44,0,0,0-8.11-4.05,42.79,42.79,0,0,0-16.77,4.42,53.75,53.75,0,0,0-16,11.73A37.26,37.26,0,0,1,344.9,147.1c-7.8,4.05-12.47,6.23-21.7,26.06a39.55,39.55,0,0,1,3.3-10.35,87.92,87.92,0,0,1,5.86-9.17c-14.09,6.55-32.92,31.18-34.79,45.15L305,197.6V198l-7.92,4h2.25a100.3,100.3,0,0,1,19.45-2.44,73.87,73.87,0,0,1,20,1.63,50.92,50.92,0,0,1,26.88,12.47l-9.48-4A92.33,92.33,0,0,0,323,202.46a99.94,99.94,0,0,0-18.21,1,74,74,0,0,0-24.94,7.8,8.1,8.1,0,0,0-3.86,4.17c2.93-1.37,5.36-2.62,7.85-3.49A88.6,88.6,0,0,1,321.2,207.2Zm66.72,3.74c-.5,1.44-.87,3.18-2.93,3s-1.31-2.06-1.44-3.31a4.52,4.52,0,0,1,.38-1.81c.43-1.31.75-2.74,2.3-2.49s1.94,1.68,1.75,3.18a5.7,5.7,0,0,1,0,1.43Zm4.42,8.3c-1.93,0-1.55-2.19-1.93-3.37s1.75-4.18,3-4.05,1.06,1.68,1.56,2.43c-.5,1.93,0,4.61-2.62,4.92Zm7.11-12.47a191.31,191.31,0,0,0-6.23-22,60.51,60.51,0,0,0-10.85-19.58c8.17,4.93,19.45,26.19,17,41.53ZM351,159a35.38,35.38,0,0,0-10.79,8.66A33,33,0,0,1,329.43,177a6.31,6.31,0,0,1-4.55.56,25,25,0,0,0,11.29-9.23A34.69,34.69,0,0,1,357,153.71a32.11,32.11,0,0,1,14.22.93A69.19,69.19,0,0,0,351,159Z"/><path id="Path_3232" data-name="Path 3232" class="cls-1" d="M379.19,236.94a.94.94,0,0,0,.54,1.21l.14,0h.5a19,19,0,0,0,2.75-.75,1.36,1.36,0,0,0-1.37-1.43C381.06,236,379.56,236.07,379.19,236.94Z"/><path id="Path_3233" data-name="Path 3233" class="cls-4" d="M220.75,473.26c0,2.55-.49,4.05,3.5,4.05a211.37,211.37,0,0,1,30.17,1.87c6.24.87,11.85,1.81,17.71,3.18a86.76,86.76,0,0,1,17.15,5.49,1.57,1.57,0,0,0,2.12-.44h0c.75-1.06,0-1.62-.75-2.12-1.81-1.31-3.49-2.68-5.36-3.87A179.69,179.69,0,0,1,264.4,465.9c-2.68-2.37-5-5.11-7.86-7.36a186.46,186.46,0,0,1-15.08-15.46c-3.93-4.06-7.55-8.48-11.48-13a95.53,95.53,0,0,0-4.55,14.71A147,147,0,0,0,220.75,473.26Z"/><path id="Path_3234" data-name="Path 3234" class="cls-4" d="M176.3,463.78a20.57,20.57,0,0,0,16.33-22.57A37.39,37.39,0,0,1,176.3,463.78Z"/><path id="Path_3235" data-name="Path 3235" class="cls-1" d="M388.35,465.77a.83.83,0,0,0-.68,1,2.42,2.42,0,0,0,.93,1c.69,0,.81-.44,1.06-.87l2.12-3-.43-.31C390.35,464.28,389.35,465,388.35,465.77Z"/><path id="Path_3236" data-name="Path 3236" class="cls-2" d="M235.84,405.29a34.07,34.07,0,0,0,8.48-14.46,7.46,7.46,0,0,0-1.12-7.73,18.71,18.71,0,0,1-6.23,16c2.37-6.74,4.8-12.85.74-19a29,29,0,0,1-2,18.21,27.71,27.71,0,0,1-14,11.22,30.17,30.17,0,0,0,14.41-20.14c.68-4.11,2-8.79-1.94-12.16a43.79,43.79,0,0,1-7.17-7.23,64,64,0,0,1-8.79-13.78,42.88,42.88,0,0,0-8.67-16.9,18.6,18.6,0,0,1-2.18-2.74c-2.43-3.18-3.18-7.23-5.36-10.48-3.87-5.73-7.36-7.91-12.47-2.12a44.88,44.88,0,0,1-6.24,6.24,8.68,8.68,0,0,0-3.86,5.24c-.31,1.49,0,3.86.62,3.86,2.56,0,5,1.69,7.55,0s3.24-2.62,2.12-5.23c1.62,1.68,2.43,4.17,4.67,4.67s4.37,0,6.24.94c-1.25.56-2.37,0-3.56,0-5.23.62-10.35,2.12-15.65,2.49s-6.23,3.12-5.36,7.73c0,1.31.38,2.25,2.37,1.69a30.92,30.92,0,0,1,13-1.06l-15,4.92a4.61,4.61,0,0,0-3.61,5.36v.69a6.92,6.92,0,0,1,.37,1.62c0,1.81.56,2.12,2.31,1.68A26,26,0,0,0,188,360L186,362.4a11.8,11.8,0,0,1,4.36-1.19,39.12,39.12,0,0,1-14.84,7.61c-2.31.68-3.37,2.37-2.62,4.36a21.09,21.09,0,0,0,10.16,11.1c.75.37,2.06.94,1.69-1.31a4.36,4.36,0,0,0-2.93-3.8c-1.06-.5-2.68-.63-3-2.25,4.24-1.06,8.42,1.13,13.1,0-3.93,3.81,1,2.87,1.62,4.12-1.68,1.74-3.68,0-5.74.37,3.87,12.47,13.47,18.71,24.94,23.7h-1.68c-.62,0-1.68-.44-1.93.43s.93,1.31,1.62,1.56a19.66,19.66,0,0,0,6.86,1.43c-.56,1.56-2.43,1.13-2.75,2.19,2.56,4.17,5.8,1.74,8.8,1,1.87-.62,3.74-1.3,5.61-2.12a12.72,12.72,0,0,1-4.12,2.75c-3.93,1.68-7.85,4.11-11.72,0a.56.56,0,0,0-.78-.16.81.81,0,0,0-.16.16,1.08,1.08,0,0,0,0,.75c.69,1.87,1.69,3.68,3.75,4a15.69,15.69,0,0,0,10-2.19A39.9,39.9,0,0,0,235.84,405.29Zm-7.23-29.61a25.63,25.63,0,0,1-9-12.47ZM226.24,383a35.36,35.36,0,0,1-12-18.7C218.39,370.56,222.19,376.8,226.24,383Zm-15.59-14.46,11.23,18a54.15,54.15,0,0,1-11.23-17.77Z"/><path id="Path_3237" data-name="Path 3237" class="cls-4" d="M179.67,440.46c1.43-3.68,3.11-7.3,4.61-10.91a30,30,0,0,0,2.81-17.27c-1.19-7-4.37-13.35-6.24-20.08a6.25,6.25,0,0,0-2.12-3.8c1,5.17,1.93,9.85,2.68,14.46a31.09,31.09,0,0,1,0,13.84c-2.37,8.73-9.48,14-15.27,20a116.77,116.77,0,0,1-13.91,11.59A17.33,17.33,0,0,1,138.39,454c0,.87.75,1,1.18,1.31A54.63,54.63,0,0,0,152,460.79a9.41,9.41,0,0,0,6.24,0,50.54,50.54,0,0,0,19.45-11.23l8.54-6.86a58.12,58.12,0,0,1-24.94,19.77c1.38,0,2.31,1,3.5.81a29.08,29.08,0,0,0,15.65-8.42,55.44,55.44,0,0,0,10.91-18.7c3.74-10.1.68-19.64-2.75-29.25A34.66,34.66,0,0,1,179.67,440.46Z"/><path id="Path_3238" data-name="Path 3238" class="cls-4" d="M199.56,402.92a33.77,33.77,0,0,1-7.86-5.42c4.43,11.47,2.93,22.76,3.3,34.1a2.7,2.7,0,0,0,1.06-2,221.47,221.47,0,0,1,4.06-24.94C200.55,403.86,200.68,403.3,199.56,402.92Z"/><path id="Path_3239" data-name="Path 3239" class="cls-1" d="M404.25,448c-5.73,5.86-12.47,10.42-18.2,16.59A47.1,47.1,0,0,0,404.25,448Z"/><path id="Path_3240" data-name="Path 3240" class="cls-4" d="M293.08,487.1a1.18,1.18,0,0,0-.87.56c-.87,2.43-2.62,1.56-4.12.93a157.58,157.58,0,0,0-43.64-9.29,172.93,172.93,0,0,0-22.64-1.18c-1.8,0-2.18-.62-2.12-2.25.19-3.75.57-7.5,1.13-11.22A160.51,160.51,0,0,1,226,439.71c.88-3.18,2-6.23,3.06-9.35a2.74,2.74,0,0,0-1.69-3.49h0c-1-.5-1.12.93-1.31,1.62-2,7.79-4.11,15.58-6.23,23.44a128.34,128.34,0,0,0-3.49,26.31c0,3.43.37,3.74,3.86,4.18,5.43.62,10.85,1.68,16.28,2.06a26.43,26.43,0,0,0,8.6.43l-7-2.11a34.41,34.41,0,0,1,12.47.49c11.16,2.87,21.95,7.24,33.29,9.42a86.43,86.43,0,0,0,9.73,1.31,4,4,0,0,0,4-3.06A14.61,14.61,0,0,0,293.08,487.1Z"/><path id="Path_3241" data-name="Path 3241" class="cls-1" d="M190.76,258.46c1.38,0,2.87,1.31,4.62,0,5.8-5.24,11.78-10.17,17.83-15.16,2.81-2.36,2.74-2.74.56-5.86-1.25-1.68-2.06-1.37-3.37,0-3.8,3.06-7.66,5.93-11.53,8.92l-16,12.47A25.61,25.61,0,0,1,190.76,258.46Z"/><path id="Path_3242" data-name="Path 3242" class="cls-4" d="M323.07,405.29c-8.66-.56-17.21-1.87-25.81-3.24A206.32,206.32,0,0,1,265,394.26c-4.3-1.44-8.54-2.93-12.47-4.68-1.8-.75-1.93.56-2.24,1.37s-2.06,2.37-.44,3.93,1.12,0,1.56-.5a2.9,2.9,0,0,1,3-.87c2.87,1.25,5.62,2.62,8.3,4.11A175.29,175.29,0,0,0,282,404.54a75.45,75.45,0,0,0,20.08,3.68,46,46,0,0,0,12.84,0c2.56,0,3.62.38,2.62,3.06-.43,1.18-.5,2.49-.87,3.68s0,1.31.56,1.06c1.75-.81,4.18-.38,5.05-2.68s1.44-4.12,2.25-6.24C324.63,405.67,324.26,405.29,323.07,405.29Z"/><path id="Path_3243" data-name="Path 3243" class="cls-4" d="M314.78,409a47.4,47.4,0,0,1-14,0,80.74,80.74,0,0,1-16.39-2.93,126.3,126.3,0,0,1-29.93-11.53c-.81-.44-1.69-1.12-2.62,0s0,1.87.87,2.43a76.14,76.14,0,0,0,6.61,5.42,66.07,66.07,0,0,0,21.26,11.17c5.43,1.49,11.1,2.05,16.4,3.86a18.64,18.64,0,0,0,10.41,1.12c6.24-1.49,8.3-2.74,8.73-7.73C316.21,409.35,315.9,408.85,314.78,409Z"/><path id="Path_3244" data-name="Path 3244" class="cls-4" d="M416.79,420.51l.81.62L409.12,436a54.17,54.17,0,0,0,13-19.45,33.17,33.17,0,0,0,2.68-15,118.36,118.36,0,0,0-3.24-18.7,35.55,35.55,0,0,0-24.95-28.25,7.09,7.09,0,0,0-5.73.81,91.57,91.57,0,0,0-21.33,18.71c-3.3,3.43-6.23,7.23-9.29,10.91a42.27,42.27,0,0,1,31.55-8.79,43.51,43.51,0,0,0-13.59,2.62,66.87,66.87,0,0,0-27.31,19.39c-.5.56-1.25,1.12-.62,1.87s1.12,0,1.74,0c3.68-1.56,7.36-3.18,11.1-4.62a43.65,43.65,0,0,1,28.25-1.31c-3.56.32-7.05-.37-10.66,0a81.73,81.73,0,0,0-17.53,4,154.79,154.79,0,0,0-23.25,11.54c-2.56,1.43-5.36,2.49-8.23,3.8,2,.69,3.86,1.25,5.55,2A48,48,0,0,1,352.88,428c0,.37.74,1,.81.93,1.06-2,1.24,0,1.43.38,1.93,4.3,3.8,8.6,5.55,13,2.43,6.23,4.74,12.1,7.3,18.7a64.07,64.07,0,0,1,14.34-32.85A112.75,112.75,0,0,0,371,464.53a360.75,360.75,0,0,0,36.23-62.92,143.61,143.61,0,0,1-9,23,239.27,239.27,0,0,1-27,43c-1.06,1.31-2.74,2.68-2.06,5A176.42,176.42,0,0,0,416.79,420.51Zm-56.12-25.57a53.23,53.23,0,0,1,25.94-13.22c-8.79,4.87-17.65,8.61-26.13,13.22Zm18-7.29a31.2,31.2,0,0,1,18.71-5.18C391.16,384,384.93,385.71,378.69,387.65Zm12.47-.88a16.79,16.79,0,0,1,10.6-2.74Zm-2.49,25.82a21.09,21.09,0,0,1,6.23-7.3,86.31,86.31,0,0,1-6.23,7.36Zm6.23-24.19A16.68,16.68,0,0,1,405.19,387Zm21.82,7.23a88.08,88.08,0,0,1-8.48,32.86,255.76,255.76,0,0,1,7.86-32.86Z"/><path id="Path_3245" data-name="Path 3245" class="cls-5" d="M338.16,407.1c8.11-11,14.9-22.94,23.76-33.42a84.49,84.49,0,0,1,12.47-12.47,147.43,147.43,0,0,1,24.44-14.34,120.32,120.32,0,0,0-21.39,5.86,75.52,75.52,0,0,1,24.07-8.92c-5.11-2.12-10.1-2.68-14.53-4.48a10,10,0,0,0-8.91.43,87.31,87.31,0,0,0-31.86,28.12c-6.24,8.29-11.1,17.71-16.71,26.56-2.56,4.12-4.37,5.68-7.8,4.43-7.54-2.74-15.46-4-23.13-6.23S283,388,275.06,386.4c-6.73-1.31-13.59-1.87-20.39-2.62-2.62,0-5.3-.56-8.29-.62a16.2,16.2,0,0,1,1.81,9.66,14,14,0,0,0,1-3.12c.5-2.55,1.43-3.24,3.92-2.55s5.3,1.37,7.86,2.24a197.42,197.42,0,0,0,65.72,13c2.37,0,2.56,1.13,1.75,3.06a61.33,61.33,0,0,1-4.06,7.36,17,17,0,0,0,3.49-.38A19.13,19.13,0,0,0,338.16,407.1Zm54.25-63.66c-8.42,3-17,5.55-25.38,8.48A46.35,46.35,0,0,1,392.41,343.44Zm-39.72,36.23c-5.3,8.85-10.85,17.52-15.84,26.56A63.69,63.69,0,0,1,352.69,379.67Z"/><path id="Path_3246" data-name="Path 3246" class="cls-7" d="M259.29,406a105.28,105.28,0,0,1-12-11.47c-2.3,3.61-4.55,7.1-6.73,10.72a30.42,30.42,0,0,1-11.85,12.47c-1.56.75-1.31,1.5-.5,2.81a152.5,152.5,0,0,0,16.28,20c6.23,6.24,12.09,12.47,18.7,18.71a195.67,195.67,0,0,0,15.22,12.47c5.3,3.8,11.22,7.1,16.52,11.16a60.58,60.58,0,0,0,23.51,11.78,4.73,4.73,0,0,0,4.86-1.43,20.76,20.76,0,0,0,3.74-6.86,34.79,34.79,0,0,0,4.37-15.71,54.74,54.74,0,0,1,.43-9.23,39.49,39.49,0,0,0,0-15.09A17.89,17.89,0,0,0,318,431.23l5.36,6.24c-3.18-2.37-6.23-4.93-9.29-7.36a55.11,55.11,0,0,0-27.18-12.47A63.33,63.33,0,0,1,259.29,406Zm46.26,78.37c6.67,0,13.53,3.25,20.08-2.3C322.89,488.28,316.53,489.22,305.55,484.35Zm18.71-17.64a15.48,15.48,0,0,1-10.1,6.55A32.59,32.59,0,0,1,324.26,466.71Zm-12.85.43a8.33,8.33,0,0,1-6.23,3.68A18.29,18.29,0,0,1,311.41,467.14Zm-18.33-5.73a17.45,17.45,0,0,1-10,1.5C286.85,461.41,290.15,462.72,293.08,461.41Zm-20.14-6.24a85.83,85.83,0,0,1,16,2.25C285,460.91,274.75,459.85,272.94,455.17Z"/><path id="Path_3247" data-name="Path 3247" class="cls-7" d="M143.44,449.69c6.8-4.31,13.53-8.55,20.14-13.1a50.46,50.46,0,0,0,11-12.59,22.65,22.65,0,0,0,4-18.33,136.21,136.21,0,0,1-2.19-16.59A17.51,17.51,0,0,0,172,378.23c-2.44-2.93-5-6.23-2.5-10.29a2.42,2.42,0,0,0-.56-2.8c-3.55-3.8-7.11-7.55-10.41-11.47S150.61,344.75,147,340a32.61,32.61,0,0,0-9-9c-1.37-.81-2.3-1-2.49,1.18a55.25,55.25,0,0,1-1.12,9c-2.43,10.6-5.18,21.2-7.48,31.86a124.77,124.77,0,0,0-3.81,26.07,25,25,0,0,0,.75,8,39.29,39.29,0,0,0,2.31,10.66c4.42,10,8.79,20.08,12.47,30.43C139.64,450.43,141,451,143.44,449.69Zm18.7-20.21a8.41,8.41,0,0,1-9.1,5.06,22.66,22.66,0,0,1,8.67-5.06Zm-11.72,2.25a10.08,10.08,0,0,1,5.49-2.62A5.43,5.43,0,0,1,150.42,431.73Zm-2.87-3.37a22.83,22.83,0,0,1,8.73-2.8,9.47,9.47,0,0,1-8.73,2.86ZM145.37,424c2.31-1.31,4.87-.63,7.17-1.25a6.23,6.23,0,0,1-7.23,1.25Zm-4.05-4.49a17.38,17.38,0,0,1,10.35-1.31,8.61,8.61,0,0,1-10.41,1.31Zm-1.93-4.62a39.14,39.14,0,0,1,8.48,1.13,10.15,10.15,0,0,1-8.48-1.19Zm7.73-3.36a14.1,14.1,0,0,1-8.29-1.81c2.68.87,5.61.75,8.23,1.81Z"/><path id="Path_3248" data-name="Path 3248" class="cls-1" d="M177.42,273.23a3.79,3.79,0,0,0,1.56-3.3,16,16,0,0,1,1.06-8c.62-1.44,2.43-1.88,2.62-3.56a74.08,74.08,0,0,1-7.17,5.3,6.79,6.79,0,0,0-3.37,6.86,11.26,11.26,0,0,1-3.74,8.79,83,83,0,0,1-14,8.61c-1.56,1-3.43,1.49-5,2.55s-5.11,3.18-7.79,1.37c-1.19-.74-1.87-.37-2.81-.5a3.3,3.3,0,0,0,1-4.56l-.07-.11-.38-.44c-1.25-1.37-2.12.94-3.3,1.25h-.56a1.12,1.12,0,0,1,.62-.87c3.3-1.56,2.81-3.87,1.25-6.24a1.59,1.59,0,0,1,0-.81c0-1.93-1.31-1.87-2.75-1.43,0-.88,1.94-1.5.75-2.5s-1.56.44-2.24.94l-14,10.29c-3.68,2.86-7.36,5.73-11,8.66-.43.38-1.31.81-.81,1.56s1.19,0,1.75,0h.81c-1.18,1.81.81,6.24,3.3,7.79a4.55,4.55,0,0,0,1.69,5c0,.44-.5.94-.44,1.25A45.21,45.21,0,0,1,116,324.67c1.63-1.24,2.94-2.12,4.06-3.11l32-26.88Z"/><path id="Path_3249" data-name="Path 3249" class="cls-1" d="M134.71,449.44a43.65,43.65,0,0,0-3.37-9.54A17.24,17.24,0,0,0,134.71,449.44Z"/><path id="Path_3258" data-name="Path 3258" class="cls-3" d="M298.76,217.12v0Z"/><path id="Path_3259" data-name="Path 3259" class="cls-3" d="M394.78,481a4.57,4.57,0,0,0,.5-6.24,3.26,3.26,0,0,0-.82-.75c-1.06-1.18-1.43-2.18,0-3.3a54.37,54.37,0,0,0,6.36-9.29c4.62-7,7.8-14.9,12.47-21.64a118.13,118.13,0,0,0,12.48-22.69,25.7,25.7,0,0,0,2.05-11,63.06,63.06,0,0,0-2.8-18.7c-2.87-8.73-2.87-18.08-6.24-26.69A34.29,34.29,0,0,0,397.58,340a123.08,123.08,0,0,1-22.76-10.48c-1.12-.68-2.18-1.37-1.8-2.68a19.65,19.65,0,0,0,0-5.73,22.22,22.22,0,0,0-3.62-12.47,9,9,0,0,1-1.06-7.55,92.5,92.5,0,0,1,8.92-20.45c1.62-3.18,3-6.23,7-6.23a4.62,4.62,0,0,1,.69-.5,26,26,0,0,0,11-11.41,25.37,25.37,0,0,1,7.29-9.11,5.72,5.72,0,0,0,2.62-7.6l-.5-1.13a1.32,1.32,0,0,1,0-1.43c3.75-4.24,2.06-8.6,0-12.47A17.42,17.42,0,0,1,404,222c0-3.93,1.06-7.79,1.06-11.72a115.22,115.22,0,0,0-.37-16.09,56.05,56.05,0,0,0-10.16-26.12c-3.93-5.49-9-10.1-12.47-15.9a22.57,22.57,0,0,0-28.31-10.66,74,74,0,0,0-16.21,7.23A91.25,91.25,0,0,0,314,165.61a72.66,72.66,0,0,0-17.89,31.87,4.5,4.5,0,0,1-3.06,3.61,41.82,41.82,0,0,0-18,11.79,3.73,3.73,0,0,0-.74,4,5.54,5.54,0,0,0,3.8,3.18,68.66,68.66,0,0,0,16.71,2.8c2.37,0,4.49,0,3.43,3.37a5.25,5.25,0,0,0,0,2.43c.62,2.62,1.43,5.43-1.31,7.48a3.71,3.71,0,0,0-.87,1.31,38.06,38.06,0,0,0-6.86,16.46,42.76,42.76,0,0,0,6.61,24.45,26.94,26.94,0,0,1,3.49,9.91,77.73,77.73,0,0,0,.87,12.47,2.11,2.11,0,0,1-.95,2.84l-.05,0c-5.61,3.3-11.09,6.67-16.89,9.6A21.32,21.32,0,0,1,269,315.26a16.65,16.65,0,0,0-12.47.93,2.33,2.33,0,0,1-2.06,0,29.77,29.77,0,0,0-14.4-.75,73.8,73.8,0,0,0-29,12.47c-4.68,3.25-4.62,3.12-7.48-2.05-1.63-2.81-3-6.24-6.24-7.36s-2.74-2.74-2.37-4.68c1.12-5.23,2.5-10.41,3.74-15.65a3.81,3.81,0,0,1,.81-2,32.91,32.91,0,0,0,8.61-17,16.35,16.35,0,0,0-1.5-12.47,16.89,16.89,0,0,0-8.23-5.24c-1.68-.81-1.37-1-.31-1.87l6.55-5c4.3-3.18,7.54-7.48,11.78-10.72,1.25-1,1.87-1.19,3.24,0a14.16,14.16,0,0,0,10.91,3.42,26.13,26.13,0,0,0,21.83-23,13.67,13.67,0,0,1,3.3-9.73,3.87,3.87,0,0,0-1-5.05,9.34,9.34,0,0,0-10.28.87,64.75,64.75,0,0,1-13.66,9c-2,1.25-2.56.38-2.56-1.68a13.49,13.49,0,0,1,7.49-12.47c4.8-2.74,9.54-5.74,14.4-8.42,1.81-1.06,1.68-2.55,1.5-4a2.75,2.75,0,0,0-2.62-2.43,9.28,9.28,0,0,1-5.8-2.68,20.69,20.69,0,0,0-23.88-2,36.42,36.42,0,0,0-16.65,30.18,10.81,10.81,0,0,1-4.36,8.48l-14.34,11c-1.56,1.24-3,2.3-4.31-.32a7.56,7.56,0,0,0-1.74-1.74,14.59,14.59,0,0,0-19.83,0,22.35,22.35,0,0,0-5.11,7.42,31.18,31.18,0,0,1-12.47,12.47,58,58,0,0,1-7.49,6.23,19.87,19.87,0,0,0-10.6,12.47,38.43,38.43,0,0,0-.43,7.11c0,2.31,0,4.55-2.56,6.24-4.05,2.8-7.92,5.86-11.72,9-1.18.93-1.62.81-2.68,0a22.55,22.55,0,0,0-9.92-4.93A25.87,25.87,0,0,0,68.24,297a52.73,52.73,0,0,0-12.09,29.74c0,2.12,0,4.18-1.37,6.24a6.61,6.61,0,0,0,1,6.23,11.29,11.29,0,0,0,12-1.06,106.47,106.47,0,0,1,14.9-12.47c1.24-.75,2.49-1.81,3.93-.37a4,4,0,0,1,.74,5.17,17.69,17.69,0,0,1-4.49,5.18c-7.54,5.55-14.09,12.47-21.63,17.89-1.62,1.25-1.37,3.37-.87,5.3S62,361,63.63,361A7.45,7.45,0,0,1,67,362a37.73,37.73,0,0,0,5,2.62,22.52,22.52,0,0,0,14.59.56,43.59,43.59,0,0,0,11.16-3.37,40.21,40.21,0,0,0,18-30c.31-2.62,0-5.73,2.43-7.54a33.88,33.88,0,0,0,3.18-2.68c2.93-2.56,5.92-5.05,9-7.67,1.31,3.61,0,7.67,3.3,10.29v1.49a27,27,0,0,0-1.18,13.16,2.93,2.93,0,0,1-.31,1.62c-1.37,4.8-2.93,9.54-4.05,14.4a265.49,265.49,0,0,0-7.36,37.91,92.29,92.29,0,0,0,1.06,23.82c1.62,8.73,5.67,16.71,7.29,25.56A27.88,27.88,0,0,0,151.73,465c3.93,1,7.92,1.06,11.79,2.06a22,22,0,0,0,9.54,2.12,29.87,29.87,0,0,0,16-6.23c.43-.38.81-1.06,1.37-.57a1.65,1.65,0,0,1,0,1.5,6.27,6.27,0,0,0-.44,3.55,124.92,124.92,0,0,0,2.37,20.95c.88,4.74,2.37,9.36,3.49,14a4.13,4.13,0,0,0,.32.75h5.55a11.37,11.37,0,0,0,0-1.43,109.9,109.9,0,0,0-.44-11,190,190,0,0,1,.62-23c0-2.8.5-5.67.69-8.48a81.31,81.31,0,0,0,.5-15.52c-5.49,11.1-4.37,23.32-5.55,35.16a28.38,28.38,0,0,1-.75-6.23c1-9.48,1.37-18.71,2.68-28.5.81-5.79,1.5-11.53,2.74-17.27.88-4.17,2.87-8,3.43-12.47a51.59,51.59,0,0,0-4.86,15.4,182.06,182.06,0,0,0-3.49,27.13,9.85,9.85,0,0,1-.81,3.11A180.65,180.65,0,0,1,205.79,406a5.65,5.65,0,0,1,1.43,4.61c2.12-.56,3.18,0,3.31,2.37a8.11,8.11,0,0,0,7.73,8.3,8.36,8.36,0,0,0,2.12,0c2.12-.44,2.74.81,3.49,1.81s2.25,2.18,1.25,4.11A68.37,68.37,0,0,0,219.57,444c-1.75,7.67-3.18,15.34-4.18,23.07-.62,4.74-1.24,9.48-1.74,14.15-.44,3.62,0,4.56,3.61,5,5.49.69,10.91,1.37,16.4,1.75,7.11.43,14.16,1.68,21.33,2.06a47.27,47.27,0,0,1,13.78,3,70.32,70.32,0,0,0,23.07,5.49c3.86,0,6.54-1,7.48-5.24a32.41,32.41,0,0,0,10.35,5.24,7.34,7.34,0,0,1,4.61,3.3,4.22,4.22,0,0,0,1.19,1.43h5.42a8,8,0,0,1-2.31-3.55A8.62,8.62,0,0,0,329,493.39v-1.18c1.68-6.24,4.36-12.47,5.61-18.71v4.43a5.31,5.31,0,0,0,.5-2.18,65.44,65.44,0,0,0,0-28,25.92,25.92,0,0,0-13.66-18.7c-4.18-2.12-8.35-4.37-12.78-6.24-.44,0-1.43,0-1.18-1.18s.74-.94,1.49-.94a54.56,54.56,0,0,0,13.84-2.93,16.36,16.36,0,0,1,9.11-1.18,37.91,37.91,0,0,1,20,14.84,82.66,82.66,0,0,1,9.42,23.94c2.05,6.24,1.56,12.47,3.49,18.71v-6.43a18.67,18.67,0,0,1,.68,4.12,10.27,10.27,0,0,1-1.74,8.35,30.54,30.54,0,0,1-14.59,10.17,32.07,32.07,0,0,0,2.68-18.71,37,37,0,0,1-19.7,31.61h9.35a8.9,8.9,0,0,0,3.05-3.05,15.6,15.6,0,0,1,8.36-6.24,17.78,17.78,0,0,0,2.8-1.12,41.33,41.33,0,0,0,12.48-8.92,40.16,40.16,0,0,1-3,7.42,63.23,63.23,0,0,0-2.93,6.24,16.18,16.18,0,0,0-2.06,5.8h0a295.38,295.38,0,0,1,14.66-29.43c-4.37,9.48-7.49,19.39-11.79,29.18h1.31c2.31-6.73,5-13.28,7.86-19.77,2.18-4.8,3.24-10.35,8.17-13.59l5.11,7.42a1.93,1.93,0,0,1,0,2.68c-3.12,3.81-6.24,7.73-9,11.66a43.51,43.51,0,0,0-6.67,11.91h.43a62.63,62.63,0,0,0,3.74-6.23,182,182,0,0,1,12-15.65,3.56,3.56,0,0,0,.74-5l-.06-.08h0c-1.56-2-2.8-4.31-4.3-6.24-.56-.75-.69-1.06,0-1.75s1.18,0,1.5.44a70.45,70.45,0,0,0,7.6,8,2,2,0,0,1,0,2.75h0c-1.74,2.06-3.43,4.05-5.05,6.23a128.31,128.31,0,0,0-12.28,17h4.55a2.56,2.56,0,0,0,.44-.68A128.68,128.68,0,0,1,394.78,481Zm14.77-131.81a10.1,10.1,0,0,1-4.24,0,15.79,15.79,0,0,0-8.6,1.24,75.63,75.63,0,0,0-21.39,13.91,222.8,222.8,0,0,0-25.75,31.17A63.55,63.55,0,0,1,340,406.79c2.06-3.06,4.18-6.24,6.24-9.17A245.25,245.25,0,0,1,364,373.12a78.93,78.93,0,0,1,19.7-16.71,156.73,156.73,0,0,1,18.08-9C405.69,345.37,406.62,345.62,409.55,349.18ZM371,339.51c.81-1.56,1.43-2.68,1.93-3.74,1.69-3.24,3.31-3.18,5.62,0,.81,0,1.87-.31,2.61,1a102.5,102.5,0,0,0-11.34,5.67c2-2.3,5-3.18,6.92-5.48Zm-2.74-23.38a29.74,29.74,0,0,1-.38,15,46,46,0,0,1-9,14.78A195.5,195.5,0,0,1,343,360.28c-1.18,1.12-1.24.37-1.74-.69A53.54,53.54,0,0,1,339,348.68,26.78,26.78,0,0,0,330.49,334a63,63,0,0,0,18.71-4.68,61.71,61.71,0,0,0,13.59-6.8,7,7,0,0,0,2.49-7.67,16.93,16.93,0,0,1,.38-8.79,28.39,28.39,0,0,1,2.87,10ZM310.91,382a71.62,71.62,0,0,1-9.47,2.36,35.82,35.82,0,0,1-11.23-2,24.44,24.44,0,0,0-2.93-.69c-1.18,0-3,0-3.18-.87a4.54,4.54,0,0,1,1.44-4,43.89,43.89,0,0,0,5.24-6.23,21.1,21.1,0,0,0,3.61-11.54,28.32,28.32,0,0,1,.69-6.23,6.24,6.24,0,0,1,7.29-5l.13,0h.81a25.7,25.7,0,0,0,22.76-6.24c1.8-1.55,2.93-1.43,4.42,0a18.69,18.69,0,0,1,4,7.49,62.88,62.88,0,0,0,4.8,12.47c2.37,3.55.75,5.3-1.12,7.54a107.51,107.51,0,0,0-14.59,23c-.43.87-.56,2-2.12,1.25a124.15,124.15,0,0,0-18.7-8.17,35.39,35.39,0,0,0,18.7-6.55c-3.43,1.12-6.86,2.25-10.35,3.18ZM309.42,330a23.78,23.78,0,0,0,4.11-12c1.94,2.87,3.06,3.12,6.24,1.56a147.12,147.12,0,0,0,18.7-10.1,158.73,158.73,0,0,1,19.64-10.79c0,1.75-1.8,2-2.74,2.87L352.56,304a41.65,41.65,0,0,0,14.28-7.54c-1.06,2.93-2,5.55-3,8.23s-1.62,5-2.24,7.54a16,16,0,0,1-6.74,9.11A64.52,64.52,0,0,1,333,331.53a5.32,5.32,0,0,1-1.69,0,4.3,4.3,0,0,0-4.8,2.81,16.81,16.81,0,0,1-10.85,8.6c-3,1.12-6.23,1.87-9.35,3-1.68.63-2.31.69-2.56-1.49a36.44,36.44,0,0,0-3.55-13.59,5.63,5.63,0,0,1,1.25-7,13.76,13.76,0,0,1,9.47-5.8,41,41,0,0,0-1.49,11.66Zm91.47-79.5c-1,.82-2.31,1.19-3.12,2.81-1.06-3.93-1.68-7.36-5.55-8.67-.5,0-.75-.74-1-1.31a63.16,63.16,0,0,0-11.72-15.83v-1.06l8.23,4.11a.41.41,0,0,0,.38.38c7.35,1.8,10.16,8.16,13.71,13.78a3.85,3.85,0,0,1-.33,5.45l-.1.1h0ZM383,237.69a21.78,21.78,0,0,1-2.74.75,1,1,0,0,1-1.12-.86h0a1.09,1.09,0,0,1,0-.44c.37-1.06,1.49-.87,2.37-.87s1.18.44,1.43,1.43ZM283.6,212a80.9,80.9,0,0,0-7.85,3.5,8.53,8.53,0,0,1,3.86-4.24,74,74,0,0,1,24.94-7.74,98,98,0,0,1,51.38,6.24l9.48,4a50.53,50.53,0,0,0-26.87-12.47,74.29,74.29,0,0,0-19.83-1.75,96.89,96.89,0,0,0-19.77,2.62H297.2l7.92-4v-.43L297.7,199c1.87-14,20.7-38.65,34.79-45.2a87.78,87.78,0,0,0-5.86,9.16,38.25,38.25,0,0,0-3.31,10.42c9.48-19.89,13.91-22.08,21.64-26.07a36.21,36.21,0,0,0-11.29,12.47,55.13,55.13,0,0,1,16-11.72,43.73,43.73,0,0,1,16.78-4.36,12.5,12.5,0,0,1,8.23,3.8,29.85,29.85,0,0,1,8.1,9.73c-2.87-1.12-5.17-2.75-7.92-2.06a44,44,0,0,1,19.27,18A54.22,54.22,0,0,1,401,192.55a99.58,99.58,0,0,1,.38,18.27c0,4.93-1,9.85-1.06,15a16.43,16.43,0,0,0-8.73-2.25,52.64,52.64,0,0,1,12.09,14.16,1.44,1.44,0,0,1-2,0h0a52.27,52.27,0,0,0-20-12.1c-11-4.43-21.82-9.48-33.23-12.47A143.05,143.05,0,0,0,321.39,208,88.53,88.53,0,0,0,284,212.63Zm14.91,5.87v-.57c.74-2.55-1.38-6.23,3.43-7.54-1,2.87-2.56,5.05-3.43,7.54ZM295,266.12c-.49,1.25,0,2.5,0,3.87a25.32,25.32,0,0,1-1.74-22.57A47,47,0,0,1,299.5,235a2.43,2.43,0,0,0,.38-1.87,93.13,93.13,0,0,1,.62-10.16,4.68,4.68,0,0,1,5.22-4.07H307c2.61,1.13,4.55,3.49,7.48,3.87a14.8,14.8,0,0,0-8.23-8.73,69.27,69.27,0,0,1,35.16.87c9,2.93,18,5.61,27.13,8.23a11.11,11.11,0,0,1,8.79,10c-.63.44-1.19-1.19-1.5,0s1.12,1.87,2.25,2.37c-.88,1.12-2.5,1.81-2.87,3.3s1,2.62,1.87,3.81,1.18,1.68-.69,2.18.88,1,0,2.12a2,2,0,0,1-2.18-.38s0-1.12-.75-.56-1.06,1-.43,1.37c2.37,1.5,0,3.06,0,4.56,0,.37-.69.87-.57,1.12,1.31,2.68,1.5,3.3,0,5.11-.43.63-.68.94,0,1.12s1.63.94,1.56,0c0-2.24,3.25-2.8,2.31-5.48s.87-3.12,2.68-3.87a29.33,29.33,0,0,0,4.43-2.68,5.62,5.62,0,0,1,5.74-.44,5.32,5.32,0,0,1,2.74,5,32.15,32.15,0,0,1-.38,10.17c-1.8,6.23-7.29,8.41-12.47,10.41-.74.31-1.31,0-3.49-1.37-1.62,4.55-3.18,9-4.86,13.59a17.89,17.89,0,0,1-11.1,9.91,189.91,189.91,0,0,0-19.83,10.41c-.75.44-1.43,1.19-2.68.82,1.19-2.06,2.87-3.68,4-5.8a18.53,18.53,0,0,0-2.24,1.49,3.29,3.29,0,0,1-3.74.75c-1.5-.68.87-1.81,0-2.74a2.18,2.18,0,0,0-1.56,1.37c-1.62,3.18-5.24,4.11-7.36,6.67-.75.94-2.24,0-2.87,1.06-.62-.81,0-1.81-.37-2.68-1.56,1.25-4.18,0-4.93-2.24a23.65,23.65,0,0,1-.56-6.55c0-.94.38-1.31,1.31-1.25a2.94,2.94,0,0,0,2.81-.93,21.44,21.44,0,0,0-11-1.25,9.26,9.26,0,0,0,4.62,2.12c.68,0,1.49,0,1.18,1.06-1.12,2.56-1.93,5.42-4.8,6.61,0,0-3.3.87-3.18-1.81-.87,0-1.18,1.06-1.62,1.5-2.49-2.68-1.06-6.24-1.68-9.17a31.85,31.85,0,0,1-.94-8.48,51.25,51.25,0,0,0,0-14.53,8.91,8.91,0,0,1,.94-4.42,2.7,2.7,0,0,1,.74.37c1.19,1.37.5,2.87,0,4.37a30.57,30.57,0,0,0-.31,11.28,13,13,0,0,0,15.07,10.62l.08,0a12.58,12.58,0,0,0,5.62-2.49,38.12,38.12,0,0,0,13.15-15.09,7.25,7.25,0,0,1,2.12-3.31,93.75,93.75,0,0,1-8.85,27.13A12.49,12.49,0,0,0,339,288.13a22.45,22.45,0,0,1,4.12-11.65,33,33,0,0,0,2.24-10.92c0-.81-.31-1.12-1.12-1.12a16.34,16.34,0,0,1-7.11-2.55,39.76,39.76,0,0,0-6.23-1.75,30.63,30.63,0,0,0-6.24-1.62c-.87,0-2.06-.63-2.43,0s.37,1.74,1.25,2.24.75,0,.62.75c-3.49,1.37-7.05,4.49-10.16-.75.93-1,3.3-.5,4-2.74a7.48,7.48,0,0,1-5.43,0c-3.49-1.5-6.23.69-9.35.87s-2.93,1.75-2.43,4.3a26.1,26.1,0,0,1,.81,16.47Zm22.58,13.6a11.82,11.82,0,0,1,5.73,0,16.15,16.15,0,0,0,12.47-5.36c1.69-1.44,3-3.25,4.74-4.68a10.09,10.09,0,0,1-3.12,6.23,57.46,57.46,0,0,1-10,10.92,12,12,0,0,1-17,0,11.54,11.54,0,0,1-3.37-7.11,24.94,24.94,0,0,1,1.12-12.47,56.11,56.11,0,0,1,2.74,7.11c.63,2.43,2.37,3.18,4.31,4,.62,0,2.86-1.06,1.8,1.43h.57Zm15.4-5.36a25,25,0,0,1-18.15,1.87,2.75,2.75,0,0,1-2.24-1.75c-1-2.24-2.18-4.43-3.31-6.61l.38-.56a22.2,22.2,0,0,0,11.84,1.81c2.5,0,4.56,1.74,7.17,1.74a43.09,43.09,0,0,0,10.17-1.37A44,44,0,0,1,333,274.36Zm-10.29-6.24a30.46,30.46,0,0,1-10.91-2.62c-1.25-.68-3.12,0-4.68,0s-2.37-.44-2.37-1.37,1.37-.81,2.25-.81a13.1,13.1,0,0,1,5.17.5,16.27,16.27,0,0,0,10.85.75c3.68-1.06,7.17,1.55,10.79,2.37,1.18,0,2.68-.32,3.61,1.06a28.21,28.21,0,0,1-14.59.49ZM291,311.77a36.16,36.16,0,0,0,7.67-5.24c1.5-1.37,2.56-1.81,2.87.75a3.42,3.42,0,0,0,2.31,3.11,27.89,27.89,0,0,1,7.92,5.12,74.48,74.48,0,0,0-13.72,3.36,4.81,4.81,0,0,0-3.35,5.91l.11.33.37.93c1.25,4,3.68,7.3,5.24,11.1a9.8,9.8,0,0,1,.87,4.8,38.64,38.64,0,0,0-24.94-23.56A89.58,89.58,0,0,0,291,312.14Zm-15.08,29.74c0,.68-.5,1.68.81,2s1.43-.87,1.62-1.68a41.61,41.61,0,0,1,5.23-12.47c2.12-3.24,2.94-3.37,6.24-.94a40.5,40.5,0,0,1,10.72,17c.32.69.44,1.25-.74,1.56-5.05,1.37-6.61,3.62-6.93,9.11a23.09,23.09,0,0,1-6,16.64,18.37,18.37,0,0,0-5.24,7.67c0,1.06-1.87.69-2.74.5a169.4,169.4,0,0,0-23.76-2.68c-1.25,0-2.24,0-1.5-1.87a170,170,0,0,1,16.15-32.67c1.37-2,2.81-4,4.68-6.55a25.59,25.59,0,0,0,.75,18.27,51.56,51.56,0,0,1,0-20.26,24.11,24.11,0,0,1,.68,7Zm-19.15-20.95a19,19,0,0,1,5.49-3.93c.94-.44,1.75-1,1.93.62,2.81-1.68,5.62,0,8.36,0a.7.7,0,0,1,.5.5c0,3.12,1.87,5.74,1.93,8.73a3.32,3.32,0,0,1-1.18,2.56c-.75.81-1.87,1.31-1.81,2.62h0l3.11-2.69c0,1.88.88,3.56-.74,5.12a76.76,76.76,0,0,0-19.58,33.79c-1.06,3.24-2.37,6.24-3.62,9.48-.68,1.75-.43,2.49,1.69,3.05a53.49,53.49,0,0,0,9.54.88,171.38,171.38,0,0,1,48.38,10.29l10,3.67a2.36,2.36,0,0,0,3.49-1.18h0c3.49-6.24,7.6-12,11.59-17.83a172.15,172.15,0,0,1,22.08-24.94,10.53,10.53,0,0,1,1.12-.38c-3.18,3.74-6.24,7.24-9.1,10.54A118.79,118.79,0,0,0,334.48,384a142.64,142.64,0,0,1-7.85,12.47c-1.31,1.93-3.12,1.62-5,1.12-13-3.49-25.88-7-38.91-10.47a163.14,163.14,0,0,0-23.44-3.93,58.62,58.62,0,0,1-10.91-.87c-1.44-.44-1.87-.56-1.5-2.31a116.88,116.88,0,0,1,8.79-24.19,10.44,10.44,0,0,0,.56-1.5,21.76,21.76,0,0,0-4.42,8A80.7,80.7,0,0,0,245.57,381c0,.62-.5,1.68-1.62.68s-1.5-.87-1.87-1.55c-2.56-5.37-7.8-8.42-11.41-12.85a3.72,3.72,0,0,1-.56-4.92,173.93,173.93,0,0,1,12.47-21.95c.31-.44.75-.81.56-1.44a39.14,39.14,0,0,0-7,9.67,139.3,139.3,0,0,0-7.61,14.46c0,.38,0,1.5-1,1.06s0-1.06,0-1.62a62.67,62.67,0,0,1,7.36-13.65,149.87,149.87,0,0,1,21.51-27.87Zm-46.14,9.91A71.41,71.41,0,0,1,241,318a22.05,22.05,0,0,1,13.84,1.56,126.62,126.62,0,0,0-28.56,42.09,26.9,26.9,0,0,1-5.36-10.42A28.9,28.9,0,0,0,210.4,335c-1.87-1.62-2.3-2.56,0-4.36ZM193.94,308a30.38,30.38,0,0,0-.62,7.05,5.1,5.1,0,0,1-2.93,4,65.7,65.7,0,0,0-12.1,12.1c-.43.5-.5,1.56-1.43,1.37s-.37-1.31-.62-1.93a80.67,80.67,0,0,0-11.85-22.45c-.75,1.18.37,2.06.44,3.05a13.66,13.66,0,0,0,.87,2.81,100.23,100.23,0,0,0,8.91,22.7,4.85,4.85,0,0,1,0,5.11c-1.24,1.81-.56,3.93-.68,6.23a22,22,0,0,1,0,2.81,1.88,1.88,0,0,1-1.44,1.5c-.81,0-.74-.69-1-1.06a197.88,197.88,0,0,0-21.83-24.45c-1.55-1.49-3.24-2.86-4.92-4.3a33.8,33.8,0,0,0,7.61,11.91c4.92,5.11,10,10,15,15l.62.62c3.43,1.68,3.43,4.18,2,7.36-.87,1.93.31,4,.37,6.73-5.55-7-10.91-13.4-16.4-19.76a101.6,101.6,0,0,0,11.41,9c-1.62-2.24-3.36-4.42-5.17-6.54a155.77,155.77,0,0,0-20.39-18.71A11.56,11.56,0,0,1,134,317.56a20.8,20.8,0,0,0,0-5.23,2.21,2.21,0,0,1,1.06-2c3.87-3.37,7.8-6.67,11.73-10l15-12.47c5.55-4.56,11-9.05,16.46-13.72,1.13-.94,1.69-.63,1.94.5a16.11,16.11,0,0,0,1.87,3.93c1.81,3.36-.63,5.42-2.43,7.73a36,36,0,0,0-2.81,3.36,6.62,6.62,0,0,0,1.06,9.29l.44.32a3.51,3.51,0,0,0,1,.62,18.23,18.23,0,0,0,10.1,3c2.62,0,4.31-1.81,6.86-2.8-.81,2.93-1.37,5.61-2.3,8.23Zm6.24-44a9.24,9.24,0,0,1,5.8,10.73,40.11,40.11,0,0,1-12.47,24.63,2.3,2.3,0,0,1-.69.37h-.44a13.21,13.21,0,0,1,2.31-3.8,85.52,85.52,0,0,0,7.17-13.16,3,3,0,0,0,0-2.62c-.75-1.24-1.74-2,0-3.43s-1.49-3.49-3.61-3.55a66.42,66.42,0,0,0-11.1.5h9a5.81,5.81,0,0,1,4.3,2c-1.69,2.87,2.24,5.43,0,8.61a145,145,0,0,1-9.17,15,3.8,3.8,0,0,1-3.68,1.74,13.43,13.43,0,0,1-9-4.55,4.82,4.82,0,0,1,.31-6.24,32.94,32.94,0,0,1,3.56-4.17,8.18,8.18,0,0,0,2.62-6.86c1.81,2.43,3.24,4.67,6.23,5a11.66,11.66,0,0,0,7.42-2.06A10.46,10.46,0,0,1,187.09,280a10.29,10.29,0,0,0,9.85-.81A12.47,12.47,0,0,1,181.85,271a11.76,11.76,0,0,1,1.37-9.1c1.56-2.19,4.18-1.19,6.23-.94a34.09,34.09,0,0,1,11,3.05Zm45.2-71.26c.38-1.25,1.31-1.06,2.25-1a2.14,2.14,0,0,1,1.81,1.56,1.87,1.87,0,0,1-1.19,2.24c-5.05,2.68-10.16,5.3-15,8.36a15.16,15.16,0,0,0-6.23,17,4.17,4.17,0,0,0,4.84,3.38h.09a5.94,5.94,0,0,0,1-.38,61,61,0,0,0,16.53-9.66,11.56,11.56,0,0,1,4.05-1.93,8.09,8.09,0,0,1-4.12,4.24,112.92,112.92,0,0,1-17.77,10,3.18,3.18,0,0,1-4.3-1.12V225a17.21,17.21,0,0,1,5-23.32c3.87-2.56,8.11-4.49,11.72-7.42.63-.5,1.25-.88,1.5-1.56Zm-10.66-7.05c3.49.56,5.86,3.49,8.67,5.36,1.56,1-.31,1.87-1.12,2.31-4,2.37-7.92,4.86-11.73,7.55-7.48,5.42-7.85,9.54-6.85,18.2a11.2,11.2,0,0,0,3.8,7.67,3.74,3.74,0,0,0,4,.75c7-2.31,12.47-7.11,19.64-9.73-1.25,12.47-7.11,23.7-20.64,26.13a14.28,14.28,0,0,1-13.65-6.24,29.3,29.3,0,0,1-6.74-17.58,38.46,38.46,0,0,1,10.54-29.87,15.86,15.86,0,0,1,14.09-4.61Zm-31.17,33.55a59.08,59.08,0,0,1,3.86-17.4,33.85,33.85,0,0,1,11.91-14.78,20.85,20.85,0,0,1,5.18-1.87,33.38,33.38,0,0,0-15.16,23.63,41.94,41.94,0,0,0-.49,7.42,5,5,0,0,1-5.12,3.81.68.68,0,0,1-.43-.81h.25Zm-20,18.7c6.92-5.3,14-10.54,20.95-15.77a17.51,17.51,0,0,1,3.49-1.25c-1.62,1.75-3.11,2.49-3.86,3.93,1.87,0,2.93-1.93,4.49-2.74,1.24,2,.74,4.36,1.56,6.23a1.58,1.58,0,0,1-.94,2.12L183,250.54c.31-2.68,1.43-5,.5-7.42-.5-1.25.31-2.31,1-3.24-.69-.5-1.5,1.3-2.06,0s.5-1.56,1.12-2.06Zm18.71-.56a35,35,0,0,1,4.67-2.8c.5,0,1.25-1.44,2.06,0s.75,1.87,0,2.68c-2.18,1.8-4.3,3.74-6.61,5.42-9.54,7-18.7,14.28-28.24,21.57a5.85,5.85,0,0,1-1.44.81c-1.56-2.8-.75-4.42,1.81-6.23q13.84-11.28,27.93-21.89ZM169.94,255h7.17a20.89,20.89,0,0,1-2.25,2.06c-3.61,2.68-3.61,2.68-4.73-2.06Zm-14.72-7.91c-1.62,0-2.93,1.18-4.74.49,3.31-3.67,4.87-8.41,8.3-11.9a12.45,12.45,0,0,1,17.08,0,13.72,13.72,0,0,1,5,9.35,5.59,5.59,0,0,1-2.37,6.23,8.08,8.08,0,0,1-8.73.81,6.92,6.92,0,0,1-2.68-7.6h0c1.25-5.55.56-6.24-5.17-5.55-1.25,0-3.06,0-4,1.87a18.86,18.86,0,0,1,6.23-1.44c3,0,3.37.5,2.75,3.43a13.13,13.13,0,0,0-.32,6.67c-2.24-2.8-4.67-.49-6.79-1.49a13.28,13.28,0,0,1,9.23,13.15q0,5.25.37,10.48a9.23,9.23,0,0,1-7.67,9.29,47.87,47.87,0,0,0-3.49-16.4,16.57,16.57,0,0,0-14.84-9.16h-1.93a41.76,41.76,0,0,1,13.9-8.23Zm-14.9,9.6a16.1,16.1,0,0,1,11.35,3.86,26.76,26.76,0,0,1,7.17,15,9,9,0,0,1-2.12,9.1,9.64,9.64,0,0,1-4.61,2.19,12.49,12.49,0,0,0-2.5-15,97,97,0,0,0-7.79-6.23c-2.12-1.75-4.3-3.43-6.61-5.24C137.14,259.2,137.77,256.77,140.32,256.65Zm-10.47,7.29a4.12,4.12,0,0,1,5.71-1.12l.09.06.81.75c3.61,3.06,7.23,6.24,10.91,9.29a9.54,9.54,0,0,1-3.68,17.65c-1.12.37-1.5-.56-1.75-1.62-.5-2.69.81-5.18.63-7.8a12.9,12.9,0,0,0-6.68-8.29,4,4,0,0,0-3,1.06l-7.48,5A20,20,0,0,1,129.85,263.94ZM141,285a59.59,59.59,0,0,1-2.87-7.86c3.36,1.5,4.17,4,2.93,7.86ZM63,338.58H58.83a2.63,2.63,0,0,1-2.5-2.62,3.32,3.32,0,0,1,0-.63c0-1.24,1.75-.62,2.75,0,1.93.5,4.43,0,3.93,3.56Zm0-7.42c0,1.24.31,2.68-1.87,2.43s-3.25,0-3.25-2.62a54,54,0,0,1,10.73-32.3,22.37,22.37,0,0,1,13.28-8.23A40.55,40.55,0,0,0,63.19,319.5a69.43,69.43,0,0,0-.5,11.35Zm10.6,15.15A123.21,123.21,0,0,0,88.2,333c1.43-2,2.37-3.12,5-2.37a4.94,4.94,0,0,0,5.24-1.93,11.47,11.47,0,0,1-3.93,7c-4.67,5.36-10.91,9-15.77,14.21A14.75,14.75,0,0,0,76.91,352a9,9,0,0,1-10.22,4,36.82,36.82,0,0,0-4.31-.56,113.62,113.62,0,0,1,11.41-9.6Zm-3.06,13.47a29.58,29.58,0,0,0-5.8,0c-1.37,0-2.3-.44-3-2.31h8.85a7.76,7.76,0,0,0,6.74-3.31,90.78,90.78,0,0,1,11.22-11.22,26.94,26.94,0,0,0,11.54-16.15,8.05,8.05,0,0,0-2.25-7,7.15,7.15,0,0,0-7.48-2.12,34.41,34.41,0,0,0-12.91,8.48c-3.43,3.11-6.55,6.61-10.16,9.47-.62.5-1.37,1.56-2.25.69a1.76,1.76,0,0,1,0-2.43h.32A89.9,89.9,0,0,1,88.7,318a7.78,7.78,0,0,1,8.79.69,10.44,10.44,0,0,1,3.05,10.22,26.69,26.69,0,0,1-10,14.65,110,110,0,0,0-12.84,13A7.19,7.19,0,0,1,70.55,359.78Zm4.93,4.05a6.66,6.66,0,0,1,7,.5C79.9,365.39,77.72,364.33,75.48,363.83Zm21.76-3.74a16.13,16.13,0,0,1-13.72,1.74c-4.61-1.37-5.24-3.8-1.81-7.17s7.55-7.17,11.29-10.72a28.94,28.94,0,0,0,8.23-11.79,14.9,14.9,0,0,0-.56-11.78,7.68,7.68,0,0,0-9.73-4.43,52.84,52.84,0,0,0-18.71,10.17c-2.49,1.8-4.86,3.86-7.6,6.23a45.38,45.38,0,0,1,8.91-31.8,22.22,22.22,0,0,1,16.59-9.6,17.38,17.38,0,0,1,16.27,8.36,55.19,55.19,0,0,1,6.8,19.7,44.13,44.13,0,0,1,.87,7.61A36,36,0,0,1,97.24,359.9Zm22.82-38.22c-1.19,1-2.43,1.87-4.12,3.11a43.66,43.66,0,0,0-1.62-13.59,2,2,0,0,1,.44-1.25,4.54,4.54,0,0,1-1.69-5c-2.49-1.38-4.48-6.24-3.3-7.8H109c-.19,0-1.31.69-1.75,0s.38-1.18.81-1.56l11-9,13.9-10.67c.69-.5,1.31-1.74,2.25-.93s-.5,1.68-.75,2.49c1.37-.43,2.55-.43,2.74,1.5a1.89,1.89,0,0,0,0,.75c1.56,2.55,2.06,4.8-1.25,6.23l-.62.81h.56c1.19-.31,2.06-2.55,3.31-1.24a3.36,3.36,0,0,1,0,4.73,1.74,1.74,0,0,1-.5.44c.93,0,1.62-.37,2.8.44,2.69,1.74,5.49,0,7.8-1.37s3.49-1.56,5-2.5a83.12,83.12,0,0,0,14.09-8.23,11.1,11.1,0,0,0,3.62-8.54,6.8,6.8,0,0,1,3.36-6.86,84.46,84.46,0,0,0,7.17-5.3h0l16-12.47,11.78-9.17c1.37-1.06,2.18-1.43,3.37,0,2.24,3.06,2.31,3.43-.56,5.8-6.24,5-12,10-17.83,15.15-1.75,1.63-3.18.5-4.56,0a26.22,26.22,0,0,0-7.91,0h0c0,1.63-2,2.12-2.62,3.5a16,16,0,0,0-1.06,7.85,3.83,3.83,0,0,1-1.56,3.31L152.23,294l-32,26.87Zm11.22,118.46a47.64,47.64,0,0,1,3.43,9.54,17.21,17.21,0,0,1-3.37-9.54Zm-5.17-22.57a40.3,40.3,0,0,1-2.31-10.91,26.92,26.92,0,0,1-.69-8.1,125.58,125.58,0,0,1,3.68-25.88c2.31-10.66,5-21.2,7.42-31.8a63.08,63.08,0,0,0,1.19-9c0-2.18,1.06-2.06,2.43-1.18a31.15,31.15,0,0,1,9,9c3.55,4.74,7.67,9,11.53,13.59s6.86,7.73,10.35,11.47a2.45,2.45,0,0,1,.63,2.81c-2.5,4.3,0,7.42,2.49,10.35A17.52,17.52,0,0,1,176.3,389a133,133,0,0,0,2.18,16.27A23,23,0,0,1,174.61,424a53.09,53.09,0,0,1-11.22,12.47c-6.61,4.49-13.4,8.79-20.14,13.09-2.12,1.31-3.49.69-4.3-1.49-3.87-10.29-8.17-20.39-12.47-30.43Zm49.88,46a37.39,37.39,0,0,0,16.33-22.57,20.57,20.57,0,0,1-16.27,22.57Zm15-27.94a54,54,0,0,1-10.85,18.71A28.62,28.62,0,0,1,164.45,463a13.5,13.5,0,0,1-3.49-.81,58.19,58.19,0,0,0,24.94-19.77l-8.17,7.11A50.46,50.46,0,0,1,158,460.91a9.41,9.41,0,0,1-6.24,0,51.79,51.79,0,0,1-12.47-5.49c-.43-.31-1-.43-1.18-1.31A17.44,17.44,0,0,0,152,448.5a129.6,129.6,0,0,0,14-12c5.86-6.24,12.91-11.29,15.28-20.08a31.38,31.38,0,0,0,0-13.84c-.75-4.68-1.69-9.29-2.62-14.47a7,7,0,0,1,2.06,3.81c1.68,6.79,4.86,13.09,6.23,20.07a30,30,0,0,1-2.62,17.28c-1.49,3.67-3.18,7.23-4.61,10.91a34.67,34.67,0,0,0,8.85-33.86c3.43,9.6,6.24,19.14,2.74,29.31Zm9.1-31.17A198.43,198.43,0,0,0,196,429.61a3,3,0,0,1-1.12,2c-.38-11.34,1.18-22.63-3.24-34.1a33.36,33.36,0,0,0,7.79,5.42c.94.38.87,1,.62,1.94ZM216,416.58c-2.12,0-3.11-2.12-3.8-4a.83.83,0,0,1,0-.75c0-.37.69,0,.94,0,3.8,4.36,7.73,1.93,11.66,0a13.38,13.38,0,0,0,4.11-2.74,58.23,58.23,0,0,1-5.61,2.12c-3,.74-6.24,3.18-8.79-1,0-1.06,2.24-.63,2.8-2.18a20.33,20.33,0,0,1-6.92-1.44c-.68,0-1.87-.5-1.62-1.56s1.31-.31,2-.43h1.62c-11.54-4.8-21.14-11.1-24.94-23.76,2,0,4,1.43,5.67,0-.62-1.31-5.55-.31-1.62-4.18-4.68,1.31-8.79-.87-13.09,0,0,1.56,1.93,1.75,3,2.25a4.47,4.47,0,0,1,2.93,3.74c.31,2.31-.93,1.74-1.68,1.37a20.59,20.59,0,0,1-10.17-11.1c-.81-2,.32-3.68,2.62-4.36A39.56,39.56,0,0,0,190,361a13.23,13.23,0,0,0-4.36,1.12l1.87-2.37a25.48,25.48,0,0,1-12.47,4.8c-1.75.44-2.43,0-2.31-1.74a4.66,4.66,0,0,0-.31-1.56,4.56,4.56,0,0,1,2.67-5.86h.7l15.09-4.74a31.3,31.3,0,0,0-12.91,1.06c-2,.56-2.25-.37-2.43-1.75-.63-4.55.93-7.29,5.36-7.66s10.41-1.87,15.65-2.5c1.18,0,2.31.44,3.55,0-2.12-1.31-4.36-.5-6.23-.93s-3.06-3-4.74-4.68c1.12,2.56,0,4.05-2.12,5.24s-5-.44-7.54,0a5.84,5.84,0,0,1-.57-3.87,8.3,8.3,0,0,1,3.81-5.24,48.25,48.25,0,0,0,6.23-6.23c5.18-5.8,8.67-3.62,12.47,2.12,2.12,3.24,2.93,7.29,5.3,10.47a18,18,0,0,0,2.25,2.75,43.3,43.3,0,0,1,9.35,16.77,59.14,59.14,0,0,0,8.61,13.53,43.37,43.37,0,0,0,7.1,7.23c3.93,3.37,2.68,8.05,1.94,12.16a30,30,0,0,1-14.41,20.14,27.8,27.8,0,0,0,14-11.22,28.62,28.62,0,0,0,2-18.21c4.12,6.24,1.63,12.47-.74,19A18.71,18.71,0,0,0,243,383a7.6,7.6,0,0,1,1.37,7.73,35.76,35.76,0,0,1-8.48,14.53,40,40,0,0,1-9.66,9.29,15.62,15.62,0,0,1-10,2.25ZM293.27,494a63.94,63.94,0,0,1-9.54-1.38c-11.35-2.18-22.07-6.54-33.23-9.35a33.34,33.34,0,0,0-12.47-.5l6.92,2.12a27.91,27.91,0,0,1-8.55-.5c-5.48-.37-10.84-1.43-16.33-2.05-3.43-.44-3.93-.69-3.87-4.18a133.35,133.35,0,0,1,3.56-26.31c1.81-7.86,3.93-15.65,6.23-23.45,0-.62,0-2.06,1.31-1.62a2.63,2.63,0,0,1,1.91,3.18.93.93,0,0,1,0,.13h0c-1,3.11-2.12,6.23-3,9.35a159.54,159.54,0,0,0-5.24,24.94,109.82,109.82,0,0,0-1.12,11.16c0,1.68,0,2.31,2.12,2.24a184,184,0,0,1,22.63,1.19,160.74,160.74,0,0,1,43.65,9.29c1.43.62,3.18,1.5,4.11-.94a1.29,1.29,0,0,1,.81-.56,14.41,14.41,0,0,1,4.24,4,3.85,3.85,0,0,1-3.92,3.12ZM230,430.23c3.93,4.49,7.55,8.92,11.48,13a185,185,0,0,0,15.08,15.47c2.81,2.24,5.18,4.92,7.86,7.35a174.78,174.78,0,0,0,20.89,15.53c1.81,1.19,3.55,2.56,5.36,3.8.75.56,1.5,1.13.75,2.12a1.5,1.5,0,0,1-2,.55l-.07-.05h0a89,89,0,0,0-17.15-5.48c-5.86-1.38-11.78-2.31-17.71-3.18a203.82,203.82,0,0,0-30.24-1.87c-3.92,0-3.61-1.5-3.43-4.06a147.55,147.55,0,0,1,4.68-28.55A99.89,99.89,0,0,1,230,430.23Zm84.36,0c3.06,2.43,6.24,4.93,9.29,7.36l-5.36-6.23a17.88,17.88,0,0,1,13.34,15.33,40.73,40.73,0,0,1,0,15.09,54.7,54.7,0,0,0-.49,9,33.28,33.28,0,0,1-4.37,15.72,20.68,20.68,0,0,1-3.74,7.17,4.87,4.87,0,0,1-4.93,1.43,60.37,60.37,0,0,1-23.44-11.78c-5.3-4.12-11.22-7.17-16.52-11.16s-10.29-8.3-15.22-12.47q-9.81-8.88-18.7-18.71a151.62,151.62,0,0,1-16.27-20c-.82-1.31-1.06-2.06.49-2.81a31.19,31.19,0,0,0,11.85-12.47c2.18-3.55,4.43-7.05,6.73-10.66a106.11,106.11,0,0,0,12,11.47,63.35,63.35,0,0,0,27.81,11.22,55.43,55.43,0,0,1,27.24,12.47ZM316,410.72c-.44,5-2.19,6.23-8.73,7.73a18.74,18.74,0,0,1-10.41-.69c-5.3-1.81-11-2.37-16.4-3.86a66.71,66.71,0,0,1-21.2-11,68.44,68.44,0,0,1-6.24-5.42c-.62-.56-1.87-1-.93-2.43s1.81-.63,2.62,0a128.39,128.39,0,0,0,30,11.59,84.66,84.66,0,0,0,16.33,2.87,47.8,47.8,0,0,0,14,0c1.12,0,1.44.31,1.31,1.81Zm5.86,2c-.87,2.37-3.31,1.94-5,2.69-.56,0-.87,0-.62-1a33.18,33.18,0,0,1,.87-3.68c1-2.68,0-3.37-2.56-3.06a46.45,46.45,0,0,1-12.9,0,75.84,75.84,0,0,1-20.08-3.67,178.37,178.37,0,0,1-19.27-6.93c-2.68-1.49-5.42-2.86-8.29-4.11a2.48,2.48,0,0,0-3,.81c-.75.81-.63,1.37-1.56.5s0-2.68.44-3.87.43-2.12,2.3-1.37c4.18,1.68,8.48,3.24,12.47,4.68a212.22,212.22,0,0,0,32.3,7.79c8.54,1.37,17.15,2.68,25.81,3.24,1.38,0,1.5.56,1.06,1.75l-2.18,6.23Zm6.23-.56a16.29,16.29,0,0,1-3.49.38c1.5-2.37,2.87-4.87,4.12-7.36s.62-3.05-1.75-3.05a198,198,0,0,1-65.78-13c-2.56-.87-5.17-1.49-7.79-2.24s-3.49,0-4,2.56a14.12,14.12,0,0,1-.94,3.11,16.48,16.48,0,0,0-1.87-9.29,82.13,82.13,0,0,1,8.29.63c6.86.74,13.66,1.24,20.39,2.55,8,1.56,15.71,3.93,23.51,6.24s15.65,3.43,23.19,6.23c3.43,1.19,5.18-.37,7.8-4.42a307.07,307.07,0,0,1,16.33-26.63,88.06,88.06,0,0,1,31.74-28.24,10,10,0,0,1,8.73-.5c4.49,1.87,9.48,2.43,14.53,4.55a75.62,75.62,0,0,0-24.07,8.85,120.32,120.32,0,0,1,21.45-5.8,137.78,137.78,0,0,0-24.38,14.35,80.79,80.79,0,0,0-12.47,12.47C352.81,384,346,395.94,338,406.91a19.56,19.56,0,0,1-10.28,5.24Zm41.34,60c-.68-2.31,1-3.62,2.06-5a236.47,236.47,0,0,0,27-42.71,144,144,0,0,0,9-23,360.68,360.68,0,0,1-36.54,63,112.88,112.88,0,0,1,11.28-36.42,64.11,64.11,0,0,0-14.34,32.8c-2.55-6.61-4.86-12.47-7.29-18.71-1.75-4.36-3.62-8.66-5.55-13,0-.43-.38-2.37-1.44-.37,0,0-.56-.56-.81-.87a46.74,46.74,0,0,0-15.65-12.47c-1.74-.81-3.55-1.31-5.54-2.06,2.86-1.31,5.67-2.37,8.23-3.81a168.71,168.71,0,0,1,23.25-11.53,84.27,84.27,0,0,1,17.27-4.3c3.62-.44,7.11,0,10.67,0a43,43,0,0,0-28.25,1.31c-3.74,1.37-7.42,3-11.1,4.61-.62,0-1.24.69-1.74,0s0-1.31.56-1.87a68.09,68.09,0,0,1,27.37-19.33,43.59,43.59,0,0,1,13.59-2.68,42.27,42.27,0,0,0-31.55,8.79c3.12-3.61,6.24-7.48,9.29-10.91a91.49,91.49,0,0,1,21.26-18.27,7.2,7.2,0,0,1,5.74-.81,35.55,35.55,0,0,1,25.25,28.25,116.13,116.13,0,0,1,3.25,18.7,32.49,32.49,0,0,1-2.69,15,54.71,54.71,0,0,1-13,19.45l8.72-14.9-.74-.56a177.38,177.38,0,0,1-47.58,51.81ZM390,466.77c-.32.44-.38,1.12-1.06.87a2,2,0,0,1-.94-1c0-.5.37-.75.69-1s2-1.5,3-2.18l.37.31C391.41,464.78,390.66,465.77,390,466.77Zm-3.68-2.31c5.55-6.23,12.47-10.72,18.27-16.58a47.11,47.11,0,0,1-18.21,16.58Z"/><path id="Path_3260" data-name="Path 3260" class="cls-3" d="M344.15,484.29a54.39,54.39,0,0,0,5.36-44.58C352.07,455.17,348,469.7,344.15,484.29Z"/><path id="Path_3261" data-name="Path 3261" class="cls-3" d="M329.06,424c7.54,8,16.27,15.65,18.7,28.06C350,440.58,335.48,426.3,329.06,424Z"/><path id="Path_3262" data-name="Path 3262" class="cls-3" d="M206.41,491.15V461.41A78.7,78.7,0,0,0,206.41,491.15Z"/><path id="Path_3264" data-name="Path 3264" class="cls-3" d="M215.21,502.93h0a76.25,76.25,0,0,1-4.93-22.25A31.9,31.9,0,0,0,215.21,502.93Z"/><path id="Path_3265" data-name="Path 3265" class="cls-3" d="M356.93,153.58a34.9,34.9,0,0,0-20.76,14.78,24.93,24.93,0,0,1-11.29,9.41,6.21,6.21,0,0,0,4.55-.56,33,33,0,0,0,10.79-9.35A34.37,34.37,0,0,1,351,159.19a70,70,0,0,1,20.2-4.49A32.57,32.57,0,0,0,356.93,153.58Z"/><path id="Path_3266" data-name="Path 3266" class="cls-3" d="M399.45,207c2.43-15.27-8.85-36.53-17-41.52A60.13,60.13,0,0,1,393.28,185,191.45,191.45,0,0,1,399.45,207Z"/><path id="Path_3267" data-name="Path 3267" class="cls-3" d="M386.23,206.33c-1.55,0-1.93,1.25-2.36,2.49a5.94,5.94,0,0,0-.32,1.81c0,1.25-.68,3.06,1.44,3.31s2.43-1.56,2.93-3a5.7,5.7,0,0,0,0-1.43C388.17,208,387.86,206.58,386.23,206.33Z"/><path id="Path_3268" data-name="Path 3268" class="cls-3" d="M393.4,212c-1.24,0-3.42,2.56-3,4.06s0,3.55,1.93,3.36,2.12-3,2.62-5C394.46,213.5,395,212,393.4,212Z"/><path id="Path_3269" data-name="Path 3269" class="cls-3" d="M289,457.73a86,86,0,0,0-16-2.24C274.81,460.16,285.1,461.41,289,457.73Z"/><path id="Path_3270" data-name="Path 3270" class="cls-3" d="M305.55,484.35c11,4.87,17.34,4.06,20.08-2.3C319.08,487.6,312.16,484.48,305.55,484.35Z"/><path id="Path_3271" data-name="Path 3271" class="cls-3" d="M324.26,466.71a33.64,33.64,0,0,0-10.17,6.55A15.63,15.63,0,0,0,324.26,466.71Z"/><path id="Path_3272" data-name="Path 3272" class="cls-3" d="M283.11,463a17.41,17.41,0,0,0,10-1.56C290.15,462.72,286.85,461.41,283.11,463Z"/><path id="Path_3273" data-name="Path 3273" class="cls-3" d="M311.35,467.14a17.49,17.49,0,0,0-6.23,3.75A8.62,8.62,0,0,0,311.35,467.14Z"/><path id="Path_3274" data-name="Path 3274" class="cls-3" d="M416.1,395.69a333.79,333.79,0,0,0-8.48,32.8A88.21,88.21,0,0,0,416.1,395.69Z"/><path id="Path_3275" data-name="Path 3275" class="cls-3" d="M360.55,394.94c8.41-4.61,17.27-8.35,26.06-13.22A52.61,52.61,0,0,0,360.55,394.94Z"/><path id="Path_3276" data-name="Path 3276" class="cls-3" d="M378.5,387.65c6.24-1.94,12.47-3.68,18.71-5.18A31.2,31.2,0,0,0,378.5,387.65Z"/><path id="Path_3277" data-name="Path 3277" class="cls-3" d="M390.72,386.59l10.67-2.75A17.27,17.27,0,0,0,390.72,386.59Z"/><path id="Path_3278" data-name="Path 3278" class="cls-3" d="M388.23,412.65a87.45,87.45,0,0,0,6.23-7.36A21.38,21.38,0,0,0,388.23,412.65Z"/><path id="Path_3279" data-name="Path 3279" class="cls-3" d="M394.28,388.4,404.5,387A16.48,16.48,0,0,0,394.28,388.4Z"/><path id="Path_3280" data-name="Path 3280" class="cls-3" d="M304.37,231.4a15.89,15.89,0,0,0,2.12-.69,4.93,4.93,0,0,1,5.61,1.37c-1.19.75-2.68,1.06-3.18,2.5s.5,2.55.87,3.92a8,8,0,0,1-5.36-3.49c.75,3.43,3.12,4.68,6.8,4.68s3.8-1.75,5-3.43.38-3.12-.56-4.62a7.49,7.49,0,0,0-7.92-3.24,8.4,8.4,0,0,1-2.24,0c3.62-2.74,4.36-2.74,9.29,0-3.43-4.42-6.61-4.49-9.73-.81-.62.69-1.74,1.19-1.12,2.43,0,0-1.43-.43-.75.75A1.08,1.08,0,0,0,304.37,231.4Z"/><path id="Path_3281" data-name="Path 3281" class="cls-3" d="M355.43,235.57c-1.87.94-3.11,1.13-3.74-.68h0a9.11,9.11,0,0,0-12.47,2.3,9.85,9.85,0,0,0-.75,1.25c1.75-1.43,3.18-3.49,6.24-2.31a4.3,4.3,0,0,0-.81,4.87c-1.56.93-3.49-.56-5,1.37a39.74,39.74,0,0,1,4,.81,11.12,11.12,0,0,0,7.24-.94s1.18.32.56-.56,0-2.55-.31-4.11c1.93.62,3.55,2.18,5.36.62C355.87,236.94,352.69,238.07,355.43,235.57Z"/><path id="Path_3282" data-name="Path 3282" class="cls-3" d="M358.36,226.78a7.76,7.76,0,0,0,1.31.44c-.81-1.44-1.31-2.43-1.93-3.49a7.92,7.92,0,0,0-7.79-4.56,25.92,25.92,0,0,0-14.1,7.67,57.53,57.53,0,0,0,7.49-1.43A13.77,13.77,0,0,1,358.36,226.78Z"/><path id="Path_3283" data-name="Path 3283" class="cls-3" d="M383.3,258.39c1-.74,2.31-1.56,1.87-3.11s.69-2.75,2.12-3.93c.57,2.37,1.75,4.3.82,6.79s-2.62,4-3.37,6.24a11.46,11.46,0,0,0,6.23-5.49c1.5-2.93-.62-5.24-2.12-8L392,252.1c-2.31-5-4.8-5.55-7.86-2-1.06,1.25-1.8,2.74-2.86,3.93s0,2.49.37,3.68a1.06,1.06,0,0,0,1.38.58l.05,0Z"/><path id="Path_3284" data-name="Path 3284" class="cls-3" d="M311.79,246.3a7.57,7.57,0,0,0-1.5,4.24c0,1.43-.93,1.06-1.5,1.18s-1.18-.5-1.37-1.31.69-2.43,1.25-4c-3,1.37-3.74,2.43-3.43,4.49s2.93,3.62,4.05,3.12,1.37-.44,2,0a6.22,6.22,0,0,0,7.79,2.74A14.2,14.2,0,0,1,311.79,246.3Z"/><path id="Path_3285" data-name="Path 3285" class="cls-3" d="M340.16,250.66A6.73,6.73,0,0,0,338,258c.62,3.05,3.43,4.61,8.66,5.24C343,259.77,339.22,256.77,340.16,250.66Z"/><path id="Path_3286" data-name="Path 3286" class="cls-3" d="M316.34,241.12l-3.24,3.62c8.1-2.68,10.78-9.67,7.48-13.78.62,6.23-4.18,8.42-8,11.35Z"/><path id="Path_3287" data-name="Path 3287" class="cls-3" d="M351.38,233.33A8.29,8.29,0,0,0,340,230.71l-.81.62c1.75,1.13,2,1.25,2.68.94a7.66,7.66,0,0,1,9.6,2.49A1.6,1.6,0,0,0,351.38,233.33Z"/><path id="Path_3290" data-name="Path 3290" class="cls-3" d="M304.68,253.41a57.56,57.56,0,0,0-8.54,5.42C301.19,259.52,303.81,258,304.68,253.41Z"/><path id="Path_3291" data-name="Path 3291" class="cls-3" d="M372.14,256.09a79.75,79.75,0,0,0-8.91,8.91A14.06,14.06,0,0,0,372.14,256.09Z"/><path id="Path_3292" data-name="Path 3292" class="cls-3" d="M332.61,257.15c3.12-2.87,2.93-4.49-.43-6.74A13.76,13.76,0,0,1,332.61,257.15Z"/><path id="Path_3293" data-name="Path 3293" class="cls-3" d="M329.68,255.09c-2-2.93-4.05-2.68-6.23.62C325.82,255.65,327.56,253.78,329.68,255.09Z"/><path id="Path_3294" data-name="Path 3294" class="cls-3" d="M333.92,243.18c-1.49-1.75.38-3.43,0-5.18C331.05,240.44,331.05,241.12,333.92,243.18Z"/><path id="Path_3295" data-name="Path 3295" class="cls-3" d="M141.26,419.38a8.59,8.59,0,0,0,10.41-1.31A17.57,17.57,0,0,0,141.26,419.38Z"/><path id="Path_3296" data-name="Path 3296" class="cls-3" d="M161.71,429.48a23,23,0,0,0-9.17,5.06A8.43,8.43,0,0,0,161.71,429.48Z"/><path id="Path_3297" data-name="Path 3297" class="cls-3" d="M155.91,425.56a21.78,21.78,0,0,0-8.73,2.86A9.47,9.47,0,0,0,155.91,425.56Z"/><path id="Path_3298" data-name="Path 3298" class="cls-3" d="M147.8,415.89a38.42,38.42,0,0,0-8.41-1.12A10.25,10.25,0,0,0,147.8,415.89Z"/><path id="Path_3299" data-name="Path 3299" class="cls-3" d="M152.54,422.63c-2.3.62-4.86,0-7.23,1.24A6.22,6.22,0,0,0,152.54,422.63Z"/><path id="Path_3300" data-name="Path 3300" class="cls-3" d="M147.06,411.53c-2.69-1.06-5.55-.94-8.3-1.81A14.31,14.31,0,0,0,147.06,411.53Z"/><path id="Path_3301" data-name="Path 3301" class="cls-3" d="M155.47,429.11a10.6,10.6,0,0,0-5.48,2.62A5.42,5.42,0,0,0,155.47,429.11Z"/><path id="Path_3302" data-name="Path 3302" class="cls-3" d="M226.24,383c-4.05-6.23-7.85-12.47-12-18.7A35.43,35.43,0,0,0,226.24,383Z"/><path id="Path_3303" data-name="Path 3303" class="cls-3" d="M210.65,368.51a54.08,54.08,0,0,0,11.23,18.08Z"/><path id="Path_3304" data-name="Path 3304" class="cls-3" d="M228.61,375.61l-9-12.47A25.32,25.32,0,0,0,228.61,375.61Z"/><path id="Path_3305" data-name="Path 3305" class="cls-3" d="M165.2,327.42a36.37,36.37,0,0,0,6.23,12.47A34.59,34.59,0,0,0,165.2,327.42Z"/><path id="Path_3306" data-name="Path 3306" class="cls-3" d="M336.73,406.23c5-9,10.54-17.71,15.83-26.56A62.8,62.8,0,0,0,336.73,406.23Z"/><path id="Path_3307" data-name="Path 3307" class="cls-3" d="M367,351.92c8.42-2.93,17-5.49,25.38-8.48A46.86,46.86,0,0,0,367,351.92Z"/><path id="Path_3308" data-name="Path 3308" class="cls-3" d="M66,327.23a168.7,168.7,0,0,1,18.08-28.81A65.18,65.18,0,0,0,66,327.23Z"/><path id="Path_3309" data-name="Path 3309" class="cls-3" d="M106,342.94A35.77,35.77,0,0,0,108,329.6Z"/><path id="Path_3310" data-name="Path 3310" class="cls-3" d="M290.4,380.91A77.27,77.27,0,0,0,322,366.39C311.79,371.62,300.88,375.86,290.4,380.91Z"/><path id="Path_3311" data-name="Path 3311" class="cls-3" d="M301.44,358.84a3,3,0,0,0,2.62-1.74c.49-.88-.81-2.31-1.38-3.5,3.75-1.18,7.67-1.37,11.6-2.93-2.18-.5-3.8.5-5.55.44a14.7,14.7,0,0,0-8.48,2.49c-1.43.94-1.93,1.44-1,3.12S300.25,358.65,301.44,358.84Zm-.31-3.93a1.43,1.43,0,0,1,1.55,1.25,2,2,0,0,1-1.68,1.5,1.17,1.17,0,0,1-1.06-1.31,1.24,1.24,0,0,1,1.05-1.42Z"/><path id="Path_3312" data-name="Path 3312" class="cls-3" d="M313.41,376.8l13.4-5.68A21.88,21.88,0,0,0,313.41,376.8Z"/><path id="Path_3313" data-name="Path 3313" class="cls-3" d="M320,351.55l-11,1.93A16.87,16.87,0,0,0,320,351.55Z"/><path id="Path_3314" data-name="Path 3314" class="cls-3" d="M272,349.92a20.28,20.28,0,0,0,1.81,11Z"/><path id="Path_3315" data-name="Path 3315" class="cls-3" d="M275.31,369l-4.11-9A14.41,14.41,0,0,0,275.31,369Z"/><path id="Path_3316" data-name="Path 3316" class="cls-3" d="M329,327.73a33.71,33.71,0,0,0,12.47-7.36Z"/><path id="Path_3317" data-name="Path 3317" class="cls-3" d="M353.75,305l-.37-.37-7.86,7.85.37.44Z"/><path id="Path_3318" data-name="Path 3318" class="cls-3" d="M223.19,194.86a47.94,47.94,0,0,0-7.55,17.58Z"/><path id="Path_3319" data-name="Path 3319" class="cls-3" d="M221.75,203.84a45.1,45.1,0,0,0-5.8,13.53A59.07,59.07,0,0,0,221.75,203.84Z"/><path id="Path_3320" data-name="Path 3320" class="cls-3" d="M240.58,360.4l9.73-26.25A63.76,63.76,0,0,0,240.58,360.4Z"/><path id="Path_3321" data-name="Path 3321" class="cls-3" d="M252.24,344.13a52.48,52.48,0,0,0,10.1-14.66A29.78,29.78,0,0,0,252.24,344.13Z"/><path id="Path_3322" data-name="Path 3322" class="cls-3" d="M247.75,348.05A84.35,84.35,0,0,0,255.67,333,37,37,0,0,0,247.75,348.05Z"/><path id="Path_3323" data-name="Path 3323" class="cls-3" d="M261.41,319.87a45.47,45.47,0,0,0-11.1,11A109.14,109.14,0,0,0,261.41,319.87Z"/><path id="Path_3324" data-name="Path 3324" class="cls-3" d="M264.21,342.19a40.23,40.23,0,0,0-7.79,12.47,115.14,115.14,0,0,0,7.86-12.47Z"/><path id="Path_3325" data-name="Path 3325" class="cls-3" d="M264.21,342.19h0a67.07,67.07,0,0,0,7.8-10h0A35.19,35.19,0,0,0,264.21,342.19Z"/><path id="Path_3328" data-name="Path 3328" class="cls-3" d="M222.13,340.51A65.38,65.38,0,0,1,233,324.24,28,28,0,0,0,222.13,340.51Z"/><path id="Path_3329" data-name="Path 3329" class="cls-3" d="M348.76,342.38a20.23,20.23,0,0,0-4.67,9.73C345.39,348.74,347.27,345.68,348.76,342.38Z"/><path id="Path_3330" data-name="Path 3330" class="cls-3" d="M349.2,348.74l4.05-6.67-.56-.38C351.75,344,349.7,345.87,349.2,348.74Z"/><path id="Path_3331" data-name="Path 3331" class="cls-3" d="M392.84,237.44c-1.06,0-1.24.94-1.18,1.87s.5,1.44,1.37,1.38,1.43-.75,1.31-2.44A1.25,1.25,0,0,0,392.84,237.44Z"/><path id="Path_3332" data-name="Path 3332" class="cls-3" d="M397.08,242.43a1.25,1.25,0,0,0-1.31,1.06c0,1.5.44,2.31,1.25,2.12a1.63,1.63,0,0,0,1.44-1.74C398.33,243.18,398.14,242.37,397.08,242.43Z"/></g><path class="cls-2" d="M58.21,374.12a1,1,0,0,1,0,.81.82.82,0,0,1-.57.56h-.43l-34.42.87a2.36,2.36,0,0,1-1.12,0,1.65,1.65,0,0,1-.81-1l-2.37-6.23a1.66,1.66,0,0,1,0-1.31,1.63,1.63,0,0,1,.68-.87l25.57-23.07h.37a.89.89,0,0,1,.81,0,.79.79,0,0,1,.56.56l1.94,4.86a1.23,1.23,0,0,1,0,1.12,1.44,1.44,0,0,1-.44.69l-4.3,4.3,5.24,13.16h6.23a1.89,1.89,0,0,1,.75,0,1.54,1.54,0,0,1,.75.87Zm-16.15-5.18-3.87-9.66L26.72,369.57Z"/><path class="cls-2" d="M42.56,327.17a18.74,18.74,0,0,1,.37,7.85,10.73,10.73,0,0,1-3.24,6.24,15.05,15.05,0,0,1-7.17,3.61l-20,4.62a1.64,1.64,0,0,1-.93,0,1.1,1.1,0,0,1-.56-.81l-1.31-5.3a1.7,1.7,0,0,1,0-1,1.5,1.5,0,0,1,.81-.56l20.07-5.11a7.48,7.48,0,0,0,4.93-3,7.41,7.41,0,0,0-2.31-9.47,7.49,7.49,0,0,0-5.73,0L7.58,329a1.18,1.18,0,0,1-.94,0,1.12,1.12,0,0,1-.37-1.19L5,322.49a1.64,1.64,0,0,1,0-.93,1.57,1.57,0,0,1,.81-.57l19.89-4.8a15.67,15.67,0,0,1,8.1,0,11.45,11.45,0,0,1,5.62,3.87A17.73,17.73,0,0,1,42.56,327.17Z"/><path class="cls-2" d="M36.94,298.05a1.16,1.16,0,0,1,0,.93,1,1,0,0,1-.87.44L9.32,302.1l.87,9.1a1.33,1.33,0,0,1,0,.88,1.46,1.46,0,0,1-.81.43L4.83,313A1.1,1.1,0,0,1,4,313a1.25,1.25,0,0,1-1-1.18L.41,285.58a1.17,1.17,0,0,1,1-1.36h.14l4.74-.32a1.19,1.19,0,0,1,.87,0,1.09,1.09,0,0,1,.44.88l.93,9,26.75-2.68a1.25,1.25,0,0,1,.94.31,1,1,0,0,1,.43.81Z"/><path class="cls-2" d="M36.2,264a19.9,19.9,0,0,1-1.81,7.86,11.11,11.11,0,0,1-4.74,5A15.18,15.18,0,0,1,22,278.6H13.31a15.27,15.27,0,0,1-7.48-2.25,11.62,11.62,0,0,1-4.49-5.42A19.34,19.34,0,0,1,0,262.76a18.4,18.4,0,0,1,1.87-7.67A11.85,11.85,0,0,1,6.7,250a15.52,15.52,0,0,1,7.67-1.75H23a15.17,15.17,0,0,1,7.6,2.31,11.08,11.08,0,0,1,4.37,5.3A19.25,19.25,0,0,1,36.2,264ZM30,264a6.85,6.85,0,0,0-1.62-4.86A7.67,7.67,0,0,0,22.73,257H14.25a9.61,9.61,0,0,0-4.3.81,6.14,6.14,0,0,0-2.56,2.31,8.33,8.33,0,0,0-.87,3.43A7.13,7.13,0,0,0,7.2,267a5.48,5.48,0,0,0,2.31,2.43,10.84,10.84,0,0,0,4.24,1.18H22a8.18,8.18,0,0,0,5.8-1.8,6.88,6.88,0,0,0,1.93-5Z"/><path class="cls-2" d="M29.71,225.41a6.07,6.07,0,0,1-9.91,3.43,5.84,5.84,0,0,1-1.75-2.62A5.78,5.78,0,0,1,19.24,220a6.24,6.24,0,0,1,2.55-1.75,5.92,5.92,0,0,1,3.18,0,6.22,6.22,0,0,1,2.81,1.37,6.63,6.63,0,0,1,1.74,2.62A5.74,5.74,0,0,1,29.71,225.41Z"/><path class="cls-2" d="M45.3,203.46a1.11,1.11,0,0,1-.62.75,1.1,1.1,0,0,1-1,0L13.06,193.3a1.14,1.14,0,0,1-.75-.62,1.43,1.43,0,0,1,0-1l1.88-5.12a1.1,1.1,0,0,1,.62-.74,1.33,1.33,0,0,1,1,0l11.78,4.3,4.68-12.78L20.42,173a1.39,1.39,0,0,1-.69-.62,1.43,1.43,0,0,1,0-1l1.94-5.11a1.11,1.11,0,0,1,.62-.75,1.18,1.18,0,0,1,.94,0l30.61,10.91a1.45,1.45,0,0,1,.75.63,1.43,1.43,0,0,1,0,1l-1.87,5.11a1.26,1.26,0,0,1-.63.75,1.41,1.41,0,0,1-1,0l-12.16-4.43L34.26,192.3l12.47,4.43a1.22,1.22,0,0,1,.75.62,1.33,1.33,0,0,1,0,1Z"/><path class="cls-2" d="M64.69,159.26a19.9,19.9,0,0,1-5,6.23,12,12,0,0,1-6.24,2.37A15.41,15.41,0,0,1,45.74,166l-3.81-2-4-1.87a15.09,15.09,0,0,1-5.74-5.42,12.5,12.5,0,0,1-1.62-7A20.26,20.26,0,0,1,37.94,136a11.68,11.68,0,0,1,6.61-2.43,14.89,14.89,0,0,1,7.61,1.87c1.37.62,2.62,1.31,3.86,2s2.5,1.37,3.74,2.12a15.28,15.28,0,0,1,5.8,5.43,11.12,11.12,0,0,1,1.5,6.67A18,18,0,0,1,64.69,159.26ZM59,156.2a7.1,7.1,0,0,0,.68-5.11,8,8,0,0,0-4.05-4.43L52,144.6l-3.61-1.87a9.44,9.44,0,0,0-4.24-1.18,5.67,5.67,0,0,0-3.25.93,7.29,7.29,0,0,0-2.37,2.68,7,7,0,0,0-.93,3.37,5.83,5.83,0,0,0,1,3.31,10.19,10.19,0,0,0,3.3,2.86l3.56,2,3.67,1.93a8.32,8.32,0,0,0,6.24.94A6.78,6.78,0,0,0,59,156.2Z"/><path class="cls-2" d="M74.85,140.61a1.28,1.28,0,0,1-.81.44,1,1,0,0,1-.93,0L47,121a1,1,0,0,1-.49-.87,1.1,1.1,0,0,1,0-.87l2.8-3.74a1.52,1.52,0,0,1,1-.63h.81l19.14,3-7.85-17.77a3.14,3.14,0,0,1,0-.75,1.32,1.32,0,0,1,.37-1.12l2.81-3.75a1.58,1.58,0,0,1,.81-.49,1.16,1.16,0,0,1,.93,0l26.19,20a1.26,1.26,0,0,1,.56.81,1.46,1.46,0,0,1-.31.94l-3.12,4a1.07,1.07,0,0,1-1.49.2,1.19,1.19,0,0,1-.19-.2L72.86,107.38l5.61,12.47a1.89,1.89,0,0,1,0,1,1.27,1.27,0,0,1-.37,1.06l-1.38,1.87a2,2,0,0,1-.93.62,3.06,3.06,0,0,1-.94.31l-13.34-2.18L77.6,135a1,1,0,0,1,.5.81,1.1,1.1,0,0,1,0,.87Z"/><path class="cls-2" d="M99.79,109.62a1.24,1.24,0,0,1-.87.38,1.19,1.19,0,0,1-.93-.44L74.85,86.18a1.36,1.36,0,0,1-.37-.94,1.25,1.25,0,0,1,.37-.87L91.44,68.6a1.24,1.24,0,0,1,.87-.38,1.19,1.19,0,0,1,1.25.38l2.74,2.86a1.15,1.15,0,0,1,.38.88,1.07,1.07,0,0,1-.44.87L84.58,84.5l5.49,5.67L101,79.63a1.18,1.18,0,0,1,1.67-.07.46.46,0,0,1,.07.07l2.62,2.68a1.35,1.35,0,0,1,.31.88,1.19,1.19,0,0,1-.37.87L94.37,94.6l5.67,5.86,12-11.6a.88.88,0,0,1,.88-.37,1.11,1.11,0,0,1,.87.37l2.81,2.87a1.23,1.23,0,0,1,.37.87,1,1,0,0,1-.44.87Z"/><path class="cls-2" d="M128.54,71a6.27,6.27,0,0,1-2.93,1.12,5.85,5.85,0,0,1-3.06-.5,6.19,6.19,0,0,1-2.43-2,6.76,6.76,0,0,1-1.12-3,6.15,6.15,0,0,1,.56-3,5.75,5.75,0,0,1,1.93-2.43,6.18,6.18,0,0,1,3.24-1.06,5.76,5.76,0,0,1,3.06.5,5.29,5.29,0,0,1,2.43,1.93,6.22,6.22,0,0,1,.56,6.23A5.34,5.34,0,0,1,128.54,71Z"/><path class="cls-2" d="M166.32,60.8a18.66,18.66,0,0,1-7.85,2.25,11.71,11.71,0,0,1-6.61-1.87,15.79,15.79,0,0,1-5.12-5.68c-.66-1.24-1.35-2.55-2.05-3.93l-2-4a15.57,15.57,0,0,1-1.5-7.48,12.14,12.14,0,0,1,2.56-6.24,17,17,0,0,1,6.24-5,18.74,18.74,0,0,1,5.92-2.25,14.21,14.21,0,0,1,5.36,0,11.32,11.32,0,0,1,4.49,1.93A10.64,10.64,0,0,1,169,32.25a.89.89,0,0,1,0,.81,1.13,1.13,0,0,1-.56.62l-5.11,2.62a1.43,1.43,0,0,1-1,0,1.61,1.61,0,0,1-.93-.62,6.22,6.22,0,0,0-4.06-2.5,8.48,8.48,0,0,0-4.42.94,6.74,6.74,0,0,0-3.62,3.74,8,8,0,0,0,.81,6.23c1.12,2.5,2.43,5,3.8,7.55a7.86,7.86,0,0,0,4.31,4.17,7.05,7.05,0,0,0,5.17-.68,8.39,8.39,0,0,0,3.37-3,6.3,6.3,0,0,0,.44-4.74,1.86,1.86,0,0,1,0-1.19,1.58,1.58,0,0,1,.74-.68L173.06,43a1,1,0,0,1,.81,0,.86.86,0,0,1,.74.69,11.54,11.54,0,0,1,1.13,4.86,10.73,10.73,0,0,1-1.13,4.74,13.75,13.75,0,0,1-3.11,4.36A20.93,20.93,0,0,1,166.32,60.8Z"/><path class="cls-2" d="M197.31,48a19.69,19.69,0,0,1-8,1.06,11.3,11.3,0,0,1-6.24-2.68,15.57,15.57,0,0,1-4.36-6.61c-.44-1.31-.94-2.68-1.37-4S176.42,33,176,31.56a15.54,15.54,0,0,1-.5-7.86A11.62,11.62,0,0,1,179,17.47a17.74,17.74,0,0,1,6.92-4,18.34,18.34,0,0,1,7.42-1,11.67,11.67,0,0,1,6.24,2.74,14.81,14.81,0,0,1,4.3,6.24c.54,1.37,1,2.74,1.49,4.11l1.31,4.06a15.23,15.23,0,0,1,1,8.41,11.59,11.59,0,0,1-3.43,6.24A20.53,20.53,0,0,1,197.31,48Zm-2.12-6.24a6.67,6.67,0,0,0,4-3.18,7.93,7.93,0,0,0,0-6.23c-.37-1.44-.81-2.75-1.18-4L196.62,25a8.81,8.81,0,0,0-2.24-3.74,5.77,5.77,0,0,0-3.06-1.56,6.83,6.83,0,0,0-3.49.38,7.08,7.08,0,0,0-3.05,1.8,6.3,6.3,0,0,0-1.5,3.06,10.06,10.06,0,0,0,.44,4.36c.43,1.37.87,2.68,1.25,3.93l1.37,3.87a8.09,8.09,0,0,0,3.74,4.8,6.89,6.89,0,0,0,5.11-.06Z"/><path class="cls-2" d="M217.45,41.1a1.67,1.67,0,0,1-.94,0,1.59,1.59,0,0,1-.49-.87L210.53,8.05a1,1,0,0,1,0-.93,1.23,1.23,0,0,1,1.06-.87l4.55-.63a1.45,1.45,0,0,1,1.19,0l.93.63,12,15.21,6.24-18.33.5-.56A1.35,1.35,0,0,1,238,2l4.61-.81a1.18,1.18,0,0,1,.94,0,1.52,1.52,0,0,1,.49.87l5.37,32.36a1,1,0,0,1-.81,1.43l-5.43.88a1,1,0,0,1-.87,0,1.06,1.06,0,0,1-.5-.82l-3.43-20-4.3,12.84a1.76,1.76,0,0,1-.5.94,1.53,1.53,0,0,1-.94.5l-2.37.43a1.39,1.39,0,0,1-1.06,0,4.36,4.36,0,0,1-.81-.68l-8.35-11.22,3.43,20a1.18,1.18,0,0,1,0,.94,1.66,1.66,0,0,1-.81.49Z"/><path class="cls-2" d="M256.67,35.18a1.12,1.12,0,0,1-1-.38,1.35,1.35,0,0,1,0-.93V1.26a1.12,1.12,0,0,1,0-.88,1.14,1.14,0,0,1,1-.37h4.68a1.54,1.54,0,0,1,1.12.37L263,1l9.22,17,9.36-17,.5-.56A1.29,1.29,0,0,1,283.17,0h4.67a1.15,1.15,0,0,1,.88.37,1.14,1.14,0,0,1,.37.88V33.93a1.32,1.32,0,0,1-1.25,1.25h-5.11a1.12,1.12,0,0,1-.87-.38,1.24,1.24,0,0,1-.38-.87V13.6l-6.23,12a2.7,2.7,0,0,1-.69.81,1.59,1.59,0,0,1-1,.38H271.2a1.49,1.49,0,0,1-1.06,0,4.48,4.48,0,0,1-.69-.81l-6.23-12v20a1.24,1.24,0,0,1-.38.87,1,1,0,0,1-.81.38Z"/><path class="cls-2" d="M296.39,36.17a1.23,1.23,0,0,1-.81-.49,1.51,1.51,0,0,1,0-.94l4.61-32.3a1.18,1.18,0,0,1,.44-.81,1.41,1.41,0,0,1,1,0l22.64,3.12a1.39,1.39,0,0,1,.87.5,1.16,1.16,0,0,1,0,.93l-.56,4a1.59,1.59,0,0,1-.5.81,1.16,1.16,0,0,1-.93,0L307.05,8.74l-1.19,7.79,15,2.19a1.23,1.23,0,0,1,.81.49,1,1,0,0,1,0,.94l-.56,3.68a1.12,1.12,0,0,1-.5.81,1.16,1.16,0,0,1-.93,0l-15-2.25-1.25,8.05L320,32.93a1.09,1.09,0,0,1,.81.5,1.18,1.18,0,0,1,0,.94l-.63,3.92a1.25,1.25,0,0,1-.43.81,1.7,1.7,0,0,1-1,0Z"/><path class="cls-2" d="M326.56,41.16a1.57,1.57,0,0,1-.81-.56,1.43,1.43,0,0,1,0-1l9-31.17a1.45,1.45,0,0,1,.63-.75,1.25,1.25,0,0,1,.93,0l12.47,3.68a15.73,15.73,0,0,1,8.73,5.55,10.11,10.11,0,0,1,1.13,9,10.71,10.71,0,0,1-3.25,5.3,11.3,11.3,0,0,1-5.55,2.18l3.31,14a1.75,1.75,0,0,1,0,.56,1.18,1.18,0,0,1-.5.62,1.25,1.25,0,0,1-.81,0L346.52,47a2,2,0,0,1-1.19-.87,3.87,3.87,0,0,1-.37-1l-2.68-12.47-5.55-2-3.18,11.16a1.26,1.26,0,0,1-.63.75,1.25,1.25,0,0,1-.93,0Zm11.79-16.58,6.23,1.8a6.15,6.15,0,0,0,4.31,0,4.71,4.71,0,0,0,2.24-3.05,4.76,4.76,0,0,0,0-3.74,5.71,5.71,0,0,0-3.62-2.43l-6.23-1.75Z"/><path class="cls-2" d="M369.4,56.56a18.51,18.51,0,0,1-6.67-4.74A11.47,11.47,0,0,1,360,45.59,15.27,15.27,0,0,1,361.17,38c.5-1.3,1.12-2.61,1.75-4l1.93-4.11A14.28,14.28,0,0,1,369.71,24a12.14,12.14,0,0,1,6.55-2.19,18.88,18.88,0,0,1,7.92,1.81A19.71,19.71,0,0,1,389.41,27a14,14,0,0,1,3.43,4.24,12.69,12.69,0,0,1,1.31,4.67,12.4,12.4,0,0,1-.87,4.93,1.35,1.35,0,0,1-.62.56,1.47,1.47,0,0,1-.88,0l-5.17-2.56a1.28,1.28,0,0,1-.75-.62,2.13,2.13,0,0,1,0-1.12,6.23,6.23,0,0,0-.62-4.74,7.68,7.68,0,0,0-3.49-2.81,7.22,7.22,0,0,0-5.24-.5,8.09,8.09,0,0,0-4.12,4.43c-1.18,2.43-2.37,5-3.43,7.67a7.71,7.71,0,0,0-.5,6.23,7,7,0,0,0,3.75,3.56,8,8,0,0,0,4.48.75,6.2,6.2,0,0,0,3.68-2.93,1.8,1.8,0,0,1,.94-.69,1.64,1.64,0,0,1,.93,0l5.24,2.37a1.15,1.15,0,0,1,.63.56,1.44,1.44,0,0,1,0,.87,11,11,0,0,1-3.06,3.87,11.56,11.56,0,0,1-4.36,2.18,15.14,15.14,0,0,1-5.37,0A20.4,20.4,0,0,1,369.4,56.56Z"/><path class="cls-2" d="M388.42,65.54a1.45,1.45,0,0,1-.63-.75,1.35,1.35,0,0,1,0-.93l16.28-28.25a1.19,1.19,0,0,1,.75-.62,1.41,1.41,0,0,1,1,0l4.87,2.87a1,1,0,0,1,.62.75,1,1,0,0,1,0,.93L395,68a1.12,1.12,0,0,1-.75.56,1,1,0,0,1-.94,0Z"/><path class="cls-2" d="M398.58,71a1,1,0,0,1-.44-.69,1.08,1.08,0,0,1,0-.75v-.37l29.12-19.27a2.7,2.7,0,0,1,1.06,0,1.67,1.67,0,0,1,1.25.38l5.17,3.8a2.07,2.07,0,0,1,.81,1.06,2.13,2.13,0,0,1,0,1.12L426.2,89.17v.38a.87.87,0,0,1-.62.43.89.89,0,0,1-.81,0l-4.24-3a1.53,1.53,0,0,1-.69-.94,1.84,1.84,0,0,1,0-.81l1.56-5.8-11.72-8.54-5.05,3.31h-.75a1.31,1.31,0,0,1-1.06-.38ZM415,66.73,423.4,73l4.3-14.78Z"/><path class="cls-2" d="M428.51,93.54a1.09,1.09,0,0,1-.44-.88,1.24,1.24,0,0,1,.38-.93L451,68.1a1.14,1.14,0,0,1,.87-.44,1.24,1.24,0,0,1,.87.38l4.05,3.86a1.26,1.26,0,0,1,.38.87,1,1,0,0,1-.38.88l-18.7,19.7,11.28,10.72a1.31,1.31,0,0,1,.44.88,1.23,1.23,0,0,1-.37.87l-2.93,3.06a1.08,1.08,0,0,1-.88.43,1.23,1.23,0,0,1-.87-.37Z"/><path class="cls-2" d="M465.86,118.48a6.23,6.23,0,0,1-1.25-2.87,6.4,6.4,0,0,1,.37-3.06,5.84,5.84,0,0,1,1.87-2.49,6.28,6.28,0,0,1,2.87-1.31,6.61,6.61,0,0,1,3.12.37,5.72,5.72,0,0,1,2.49,1.88,5.3,5.3,0,0,1,1.25,2.93,6.23,6.23,0,0,1-5.05,6.79,6.58,6.58,0,0,1-3.12,0A5.89,5.89,0,0,1,465.86,118.48Z"/><path class="cls-2" d="M472.15,144.29a1.56,1.56,0,0,1,0-1,1.49,1.49,0,0,1,.63-.75l28.43-16.08a1,1,0,0,1,.94,0,1.18,1.18,0,0,1,.74.62l7.36,13a16.89,16.89,0,0,1,2.31,6.24,8.73,8.73,0,0,1-1,5.11,10.22,10.22,0,0,1-3.93,3.62,7.2,7.2,0,0,1-3.12,1.06,7.92,7.92,0,0,1-5-1.31,9.18,9.18,0,0,1-.88,4.49A8.55,8.55,0,0,1,495.1,163a11.61,11.61,0,0,1-5.55,1.49,9.58,9.58,0,0,1-5.24-1.87,15.4,15.4,0,0,1-4.42-5.17Zm8.42,2.93,3.74,6.67a4.8,4.8,0,0,0,3.06,2.56,4.63,4.63,0,0,0,3.49-.5,4.83,4.83,0,0,0,2.24-2.74,5,5,0,0,0-.49-3.56L488.8,143Zm13.1-7.42,3.55,6.24a4.73,4.73,0,0,0,2.74,2.49,4,4,0,0,0,3.25-.5,3.84,3.84,0,0,0,2-2.49,4.57,4.57,0,0,0-.75-3.62l-3.55-6.23Z"/><path class="cls-2" d="M492.61,186a18.69,18.69,0,0,1-1.44-7.85,11.33,11.33,0,0,1,2.31-6.24,15.22,15.22,0,0,1,6.23-4.67l3.93-1.63,4.12-1.55a15.67,15.67,0,0,1,7.79-.88,12.6,12.6,0,0,1,6.24,3.18,17.7,17.7,0,0,1,4.3,6.67,18,18,0,0,1,1.37,7.8,11.43,11.43,0,0,1-2.43,6.23,15.06,15.06,0,0,1-6.24,4.68l-4,1.62c-1.31.56-2.62,1.06-4,1.5a15.62,15.62,0,0,1-7.86.93,11.36,11.36,0,0,1-6.23-3.18A18.48,18.48,0,0,1,492.61,186Zm6.23-2.37a6.25,6.25,0,0,0,3.43,3.81,7.79,7.79,0,0,0,6.24,0l3.92-1.44,3.74-1.62a8.45,8.45,0,0,0,3.62-2.43,5.65,5.65,0,0,0,1.43-3.12,8.15,8.15,0,0,0-2.55-6.42,5.24,5.24,0,0,0-3.12-1.31,10,10,0,0,0-4.3.63l-3.87,1.43-3.8,1.56a8.1,8.1,0,0,0-4.61,4,6.58,6.58,0,0,0-.5,4.92Z"/><path class="cls-2" d="M500.09,205.77a1,1,0,0,1,0-.94,1.13,1.13,0,0,1,.81-.56l31.73-7.42a1.17,1.17,0,0,1,1,0,1.57,1.57,0,0,1,.56.81l2.87,12.47a20.06,20.06,0,0,1,.38,8.48,11.87,11.87,0,0,1-3.37,6.24,15.32,15.32,0,0,1-6.86,3.55l-3.74.94-3.74.81a16.33,16.33,0,0,1-8,0,10.24,10.24,0,0,1-5.55-3.81,20.46,20.46,0,0,1-3.18-8.1Zm7.85,5,1.31,5.74a9.69,9.69,0,0,0,1.69,3.86,4.79,4.79,0,0,0,2.86,1.75,10.43,10.43,0,0,0,4.31,0l2.55-.56,2.25-.5,2.49-.69a7.67,7.67,0,0,0,4.93-3.12,7.9,7.9,0,0,0,.5-5.92l-1.31-5.61Z"/><path class="cls-2" d="M506.88,235.39a1.08,1.08,0,0,1,0-.75,1,1,0,0,1,.75-.38h.44l33.42,8.92a1.87,1.87,0,0,1,1,.5,2,2,0,0,1,.56,1.25l.5,6.23a1.75,1.75,0,0,1,0,1.31,2.16,2.16,0,0,1-.94.69l-31.3,15h-.44a.76.76,0,0,1-1.12-.75l-.5-5.48a1.54,1.54,0,0,1,0-1.19,2.21,2.21,0,0,1,.56-.5l5.43-2.62L514,243.49l-5.73-1.68a1.8,1.8,0,0,1-.69-.38,1.43,1.43,0,0,1-.5-1.06Zm14,9.6.88,10.66,14-6.24Z"/><path class="cls-2" d="M509.25,282.15a1.31,1.31,0,0,1,.44-.87,1.18,1.18,0,0,1,.94,0l32.48,3.11a1.31,1.31,0,0,1,.87.44,1.18,1.18,0,0,1,0,.94l-1.43,14.84a17.09,17.09,0,0,1-1.81,6.67,8.46,8.46,0,0,1-3.8,3.61,10.35,10.35,0,0,1-5.3.75,7.68,7.68,0,0,1-5.3-2.8,12.81,12.81,0,0,1-1.19-2.06A8.63,8.63,0,0,1,516.8,311a11.33,11.33,0,0,1-5.36-1.94,9.5,9.5,0,0,1-3.25-4.49,16.08,16.08,0,0,1-.62-6.86Zm5.24,7.23-.75,7.67a4.67,4.67,0,0,0,1,3.8,5.09,5.09,0,0,0,3.18,1.63,5,5,0,0,0,3.37-1,4.63,4.63,0,0,0,1.68-3.56l.81-7.6Zm15,1.5-.69,7.17a5,5,0,0,0,.81,3.62,4.21,4.21,0,0,0,2.93,1.49,3.93,3.93,0,0,0,3.06-.87,4.79,4.79,0,0,0,1.49-3.43l.69-7.23Z"/><path class="cls-2" d="M502,327.79a17.88,17.88,0,0,1,3.12-7.29,11.47,11.47,0,0,1,5.61-4,16.09,16.09,0,0,1,7.92,0l4.17,1,4.24,1.06a16,16,0,0,1,6.92,3.74,11.9,11.9,0,0,1,3.25,6.24,18.69,18.69,0,0,1-.32,8,17.65,17.65,0,0,1-3.36,7.17,11.61,11.61,0,0,1-5.74,4,14.53,14.53,0,0,1-7.85,0,16.35,16.35,0,0,1-4.24-.94l-4.18-1.06a15.51,15.51,0,0,1-6.42-3.86,11.69,11.69,0,0,1-3.25-6.24A18.77,18.77,0,0,1,502,327.79Zm6.23,1.5a6.27,6.27,0,0,0,.56,5.11,7.92,7.92,0,0,0,5,3.24l4.06,1.12,4,.88a9.45,9.45,0,0,0,4.36,0,6.25,6.25,0,0,0,2.93-1.75,6.84,6.84,0,0,0,1.56-3.18,7.61,7.61,0,0,0,0-3.55,5.44,5.44,0,0,0-1.81-2.87,9.49,9.49,0,0,0-3.92-1.93L521,325.3l-3.93-1.06a8,8,0,0,0-6.24.62,6.23,6.23,0,0,0-2.61,4.43Z"/><path class="cls-2" d="M496.72,348.55a1.43,1.43,0,0,1,.69-.68,1.31,1.31,0,0,1,1,0l30.24,12.47a1,1,0,0,1,.69.62,1.1,1.1,0,0,1,0,1l-4.68,11.66a19.72,19.72,0,0,1-4.61,6.73,11.07,11.07,0,0,1-6.24,3,14.76,14.76,0,0,1-7.6-1.06l-3.62-1.38-3.74-1.18a17.49,17.49,0,0,1-6.23-4.68,10.43,10.43,0,0,1-2.31-6.23,21,21,0,0,1,1.68-8.3Zm3.49,8.67L498,362.71a9.26,9.26,0,0,0-.81,4.05,4.86,4.86,0,0,0,1.31,3.12,10.53,10.53,0,0,0,3.62,2.37l2.43,1.06,2.12.81,2.37.93a7.84,7.84,0,0,0,6.23,0A7.66,7.66,0,0,0,519,370.5l2.12-5.24Z"/><path class="cls-2" d="M485.37,376.61a1.3,1.3,0,0,1,.63-.5,1.25,1.25,0,0,1,.81,0h.37l21.95,26.5a2,2,0,0,1,.56,1,2.25,2.25,0,0,1,0,1.31l-3.18,5.55a1.89,1.89,0,0,1-1.43,1.06,1.82,1.82,0,0,1-1.13,0L470,405.73a.64.64,0,0,1-.43,0,1,1,0,0,1-.5-.62,1,1,0,0,1,0-.81l2.62-4.49a1.6,1.6,0,0,1,.81-.81,1.9,1.9,0,0,1,1.37.06l6.24.93,7-12.47-3.8-4.74a1.33,1.33,0,0,1-.31-.68,1.37,1.37,0,0,1,0-1.12Zm6.24,15.9-5.24,9,15.09,2.75Z"/></g></g></g></g></svg>