<svg xmlns="http://www.w3.org/2000/svg" viewBox="0 0 209.58 209.54"><defs><style>.cls-1{fill:#fff200;}</style></defs><title>premium_1</title><g id="Layer_2" data-name="Layer 2"><g id="Layer_1-2" data-name="Layer 1"><path class="cls-1" d="M90.47,118.35c4.77,0,9.53,0,14.3,0h0C100,118.35,95.24,118.36,90.47,118.35Z"/><path class="cls-1" d="M153.8,96.61a11.77,11.77,0,0,1-3.15-10.7,19.35,19.35,0,0,0,.25-4.56c-.23-4-1.65-7.45-5.34-9.49a20.53,20.53,0,0,0-5.45-2.32,12.65,12.65,0,0,1-9.46-7.46,17.21,17.21,0,0,0-2.71-3.93c-2.67-3.07-6-4.62-10.15-3.89a43.75,43.75,0,0,0-6,1.65c-2.64.88-5.26,1.54-8,.46-1.16-.45-2.31-.93-3.42-1.47a16.49,16.49,0,0,0-7.7-1.73c-1.81-.25-3.59.57-5.29,1.7a16,16,0,0,0-5.23,5.54A11.83,11.83,0,0,1,73,66.84a17.34,17.34,0,0,0-3.92.92C65.88,69,63,70.61,61.62,74.1a17,17,0,0,0-1.16,8.15c.43,3.82-.37,7.21-3.23,10a9.45,9.45,0,0,0-1,1.07,38.15,38.15,0,0,0-2.94,4,10.4,10.4,0,0,0-1.66,6,15.55,15.55,0,0,0,4.27,9.55A11.67,11.67,0,0,1,59,123.36a20.87,20.87,0,0,0-.26,4.67c.24,4.05,1.71,7.51,5.45,9.54a20.22,20.22,0,0,0,5.36,2.25A12.62,12.62,0,0,1,79,147.28a16.73,16.73,0,0,0,2.78,4,10.48,10.48,0,0,0,5.32,3.58,14.47,14.47,0,0,0,9.59-1,12.83,12.83,0,0,1,12.15.27,25.72,25.72,0,0,0,3.66,1.43c4.68,1.66,8.71.5,12.07-3a31,31,0,0,0,3.59-4.75,11.13,11.13,0,0,1,7.91-5.23,27.81,27.81,0,0,0,4.44-1,12,12,0,0,0,6.36-4.28,14.27,14.27,0,0,0,2.3-9.89c-.53-4.34.58-8,3.86-11a4.54,4.54,0,0,0,.38-.38,27,27,0,0,0,2.14-2.65c1.57-2.53,2.89-5.2,2.4-8.31A15.83,15.83,0,0,0,153.8,96.61Zm-3.22,11.7a37,37,0,0,1-3.29,4.17c-4.13,4.23-5.57,9.28-5,15a14,14,0,0,1-.14,3.29c-.43,3.05-1.63,3.74-6,4.85-1.13.29-2.3.44-3.44.72a17,17,0,0,0-10.2,7.57c-1,1.44-2.06,2.8-3.15,4.16a3.23,3.23,0,0,1-3.54,1.16,25.74,25.74,0,0,1-4.22-1.39c-3.07-1.4-6.2-2.71-9.61-2.32a63.58,63.58,0,0,0-7.22,1.72c-1.58.38-3.16.72-4.76,1A2.77,2.77,0,0,1,87.14,147a36.09,36.09,0,0,1-2.82-4.26,17.75,17.75,0,0,0-12.72-9.45,12.78,12.78,0,0,1-1.73-.52c-3.69-1.43-4.91-3.5-4.29-7.44a26.17,26.17,0,0,0,.24-7.75c-.49-3.48-2.3-6.31-4.52-8.91a11.72,11.72,0,0,1-2.7-4.9,3.31,3.31,0,0,1,.07-1.74,11.67,11.67,0,0,1,3.08-4.67c3.75-3.64,5.89-8,5.46-13.33.13-2,.21-4.1.41-6.14a3.36,3.36,0,0,1,2.34-3,27.62,27.62,0,0,1,4.46-1.37,17.71,17.71,0,0,0,12.79-8.33,48.75,48.75,0,0,1,3-3.9A3.38,3.38,0,0,1,93.9,60.1a28.16,28.16,0,0,1,4.21,1.42c3,1.34,6,2.48,9.31,2.32a25.3,25.3,0,0,0,7.44-1.75,29.73,29.73,0,0,1,4.64-1,2.93,2.93,0,0,1,3,1.37,36,36,0,0,1,2.75,4.19A17.79,17.79,0,0,0,137.89,76a12.87,12.87,0,0,1,2,.62c3.48,1.41,4.53,3.19,4.12,6.94-.12,1-.25,2.05-.38,3.07-.69,5.33,1.07,9.82,4.45,13.88a26.86,26.86,0,0,1,2.79,4.73A2.76,2.76,0,0,1,150.58,108.31Z"/><path class="cls-1" d="M125.22,89.84c-3.55,1.23-7.14,2.37-10.69,3.6a1,1,0,0,1-1.36-.49c-1.67-2.85-3.39-5.68-5.09-8.52s-4.83-2.87-6.55,0-3.38,5.6-5,8.42c-.39.66-.72.85-1.5.58-3.62-1.26-7.27-2.44-10.9-3.66a3.48,3.48,0,0,0-4.49,4.48q3.61,10.8,7.23,21.6a3.35,3.35,0,0,0,3.63,2.52c4.77,0,9.53,0,14.3,0H119c2.16,0,3.2-.72,3.89-2.77,2.35-7,4.68-14.08,7-21.11a3.51,3.51,0,0,0-4.68-4.63ZM117,111.49H92.62c-1.43-4.31-2.86-8.6-4.36-13.09l7.43,2.47c2.5.83,3.75.38,5.09-1.86l4-6.61c.23.31.42.54.57.79,1.18,2,2.34,3.9,3.52,5.85,1.32,2.18,2.62,2.65,5,1.85l7.48-2.5C119.84,102.88,118.4,107.19,117,111.49Z"/><path class="cls-1" d="M104.84,209.54c-1.08,0-2.24,0-3.34-.06l.08-2.83c1.08,0,2.2.06,3.25,0s2.2,0,3.29,0l.09,2.83C107.09,209.52,106,209.54,104.84,209.54Zm-10-.48c-2.23-.21-4.47-.49-6.67-.84l.45-2.8c2.14.34,4.32.62,6.48.82Zm20.11,0-.27-2.82c2.16-.21,4.34-.48,6.48-.83l.45,2.8C119.37,208.55,117.13,208.84,114.91,209.05ZM81.54,207c-2.17-.5-4.36-1.07-6.5-1.7l.8-2.72c2.09.62,4.21,1.17,6.33,1.65Zm46.62,0-.62-2.76c2.11-.49,4.24-1,6.31-1.66l.81,2.72C132.52,205.85,130.34,206.42,128.16,206.92Zm-59.49-3.78c-2.1-.77-4.2-1.62-6.24-2.52L63.58,198c2,.88,4,1.7,6.06,2.45Zm72.37,0-1-2.66c2-.75,4.06-1.58,6-2.45l1.15,2.59C145.22,201.48,143.13,202.33,141,203.1Zm-84.67-5.4c-2-1-3.95-2.14-5.85-3.3L52,192c1.85,1.12,3.77,2.2,5.69,3.21Zm96.92,0L152,195.15c1.92-1,3.83-2.09,5.68-3.21l1.47,2.42C157.23,195.52,155.26,196.63,153.29,197.66ZM44.88,190.73c-1.83-1.27-3.64-2.63-5.38-4l1.77-2.21c1.69,1.35,3.46,2.67,5.24,3.91Zm119.87,0-1.62-2.33c1.78-1.24,3.54-2.55,5.23-3.91l1.77,2.22C168.39,188.07,166.58,189.42,164.75,190.7ZM34.39,182.36c-1.65-1.5-3.28-3.07-4.83-4.67l2-2c1.52,1.56,3.1,3.09,4.7,4.54Zm140.85,0-1.91-2.1c1.61-1.46,3.19-3,4.7-4.54l2,2C178.51,179.25,176.89,180.82,175.24,182.32ZM25,172.72c-1.45-1.7-2.86-3.46-4.19-5.24l2.27-1.7c1.29,1.73,2.66,3.45,4.08,5.1Zm159.54,0-2.15-1.84c1.41-1.66,2.78-3.38,4.07-5.11l2.27,1.7C187.45,169.21,186,171,184.58,172.68ZM17,162c-1.22-1.86-2.39-3.79-3.49-5.73l2.47-1.4c1.07,1.89,2.21,3.77,3.39,5.58Zm175.62-.06-2.37-1.55c1.19-1.82,2.33-3.7,3.4-5.59l2.46,1.4C195,158.12,193.85,160.05,192.62,161.92ZM10.4,150.31c-1-2-1.89-4.07-2.73-6.13l2.63-1.07c.81,2,1.7,4,2.65,6Zm188.83-.09L196.68,149c.94-2,1.83-4,2.65-6l2.62,1.06C201.11,146.14,200.2,148.21,199.23,150.22ZM5.34,137.88c-.7-2.12-1.34-4.29-1.91-6.44l2.74-.72c.55,2.09,1.18,4.2,1.86,6.26Zm198.94-.12-2.69-.9c.68-2.05,1.3-4.16,1.85-6.26l2.74.72C205.62,133.48,205,135.64,204.28,137.76ZM1.93,124.89c-.42-2.18-.78-4.41-1.07-6.63l2.81-.36c.28,2.16.63,4.33,1,6.45Zm205.74-.12-2.78-.54c.41-2.13.76-4.3,1-6.45l2.82.36C208.45,120.35,208.1,122.58,207.67,124.77ZM.22,111.58C.08,109.35,0,107.1,0,104.87H2.83c0,2.17.08,4.37.22,6.54Zm209.15-.13-2.83-.18c.14-2.15.21-4.35.21-6.53v-.24h2.83v.24C209.58,107,209.51,109.24,209.37,111.45ZM3,98.33.2,98.16c.14-2.23.35-4.48.63-6.69l2.82.36C3.37,94,3.17,96.17,3,98.33ZM206.53,98c-.15-2.17-.36-4.36-.64-6.5l2.81-.37c.29,2.21.51,4.45.66,6.69ZM4.67,85.38l-2.78-.54c.42-2.19.92-4.4,1.48-6.55L6.11,79C5.57,81.1,5.08,83.24,4.67,85.38ZM204.84,85c-.41-2.13-.91-4.27-1.46-6.37l2.74-.72c.57,2.15,1.08,4.36,1.5,6.55ZM8,72.74l-2.69-.89c.7-2.13,1.48-4.26,2.31-6.32l2.63,1.06C9.4,68.6,8.64,70.67,8,72.74Zm193.55-.34c-.69-2.06-1.45-4.12-2.27-6.13l2.62-1.07c.85,2.07,1.63,4.18,2.34,6.3ZM12.86,60.61,10.3,59.38c1-2,2-4,3.11-6l2.47,1.39C14.81,56.7,13.79,58.66,12.86,60.61Zm183.72-.3c-1-2-2-3.9-3-5.78l2.46-1.4c1.1,1.94,2.15,3.93,3.12,5.94ZM19.27,49.22l-2.38-1.55c1.22-1.87,2.51-3.72,3.84-5.51L23,43.85C21.71,45.59,20.45,47.4,19.27,49.22ZM190.15,49c-1.19-1.81-2.45-3.61-3.75-5.35l2.26-1.7c1.34,1.79,2.64,3.63,3.86,5.49ZM27.08,38.74,24.92,36.9c1.45-1.7,3-3.37,4.51-5l2,2C30,35.46,28.49,37.08,27.08,38.74Zm155.23-.23c-1.4-1.64-2.89-3.26-4.4-4.83l2-2c1.56,1.6,3.08,3.27,4.52,5ZM36.16,29.34l-1.91-2.09c1.65-1.51,3.37-3,5.11-4.36l1.77,2.21C39.44,26.45,37.77,27.88,36.16,29.34Zm137-.19c-1.6-1.46-3.28-2.88-5-4.23L170,22.7c1.74,1.39,3.47,2.85,5.12,4.35Zm-126.84-8-1.63-2.32c1.83-1.28,3.72-2.51,5.62-3.67l1.47,2.42C50,18.74,48.13,19.94,46.36,21.18ZM163,21c-1.78-1.24-3.63-2.44-5.48-3.56L159,15c1.91,1.16,3.81,2.39,5.64,3.66ZM57.5,14.39l-1.32-2.51c2-1,4-2,6-2.92l1.15,2.59C61.39,12.43,59.41,13.39,57.5,14.39Zm94.29-.15c-1.92-1-3.91-2-5.89-2.83L147,8.82c2,.9,4.08,1.88,6.06,2.91ZM69.42,9.09l-1-2.66c2.09-.77,4.23-1.49,6.37-2.12L75.61,7C73.53,7.64,71.45,8.34,69.42,9.09ZM139.83,9c-2-.75-4.13-1.44-6.21-2.05l.8-2.72c2.14.63,4.29,1.34,6.38,2.1ZM81.93,5.36,81.3,2.6c2.17-.5,4.39-.94,6.59-1.29l.45,2.8C86.21,4.45,84.05,4.87,81.93,5.36Zm45.37-.08c-2.12-.48-4.28-.89-6.42-1.23l.45-2.8c2.19.35,4.41.77,6.59,1.26Zm-32.48-2L94.55.45C96.77.23,99,.08,101.25,0l.09,2.83C99.17,2.92,97,3.06,94.82,3.27Zm19.58,0c-2.15-.2-4.35-.33-6.52-.4L108,0c2.24.07,4.49.2,6.71.41Z"/></g></g></svg>