<svg xmlns="http://www.w3.org/2000/svg" viewBox="0 0 209.58 209.54"><defs><style>.cls-1{fill:#fff200;}</style></defs><title>register_1</title><g id="Layer_2" data-name="Layer 2"><g id="Layer_1-2" data-name="Layer 1"><path class="cls-1" d="M104.79,209.54c-1.1,0-2.2,0-3.29-.06l.08-2.83c2.18.07,4.37.07,6.54,0l.09,2.83Q106.52,209.54,104.79,209.54Zm-10-.48c-2.23-.21-4.47-.49-6.66-.84l.44-2.8c2.14.34,4.32.62,6.48.82Zm20.11,0-.27-2.82c2.16-.21,4.34-.49,6.48-.83l.45,2.8C119.37,208.55,117.13,208.84,114.91,209.05ZM81.54,207c-2.17-.5-4.36-1.07-6.5-1.7l.81-2.72c2.08.62,4.2,1.17,6.32,1.65Zm46.63,0-.63-2.76c2.11-.49,4.24-1,6.32-1.66l.8,2.72C132.52,205.85,130.34,206.42,128.17,206.92Zm-59.5-3.78c-2.09-.77-4.19-1.61-6.24-2.52L63.58,198c2,.88,4,1.7,6.06,2.45Zm72.37,0-1-2.66c2-.75,4.06-1.58,6-2.45l1.15,2.59C145.22,201.48,143.13,202.33,141,203.1Zm-84.67-5.4c-2-1-3.94-2.14-5.85-3.3L52,192c1.86,1.13,3.77,2.21,5.69,3.21Zm96.92,0L152,195.15c1.92-1,3.83-2.09,5.68-3.21l1.47,2.42C157.23,195.52,155.27,196.63,153.29,197.66Zm-108.4-6.93c-1.83-1.27-3.64-2.62-5.39-4l1.77-2.21c1.7,1.35,3.46,2.67,5.24,3.91Zm119.86,0-1.62-2.33c1.78-1.24,3.54-2.55,5.23-3.91l1.77,2.22C168.39,188.07,166.58,189.42,164.75,190.7ZM34.39,182.36c-1.66-1.5-3.28-3.07-4.83-4.67l2-2c1.51,1.55,3.09,3.08,4.7,4.54Zm140.85,0-1.9-2.1c1.6-1.46,3.18-3,4.69-4.54l2,2C178.52,179.25,176.89,180.82,175.24,182.32ZM25,172.72c-1.45-1.69-2.86-3.45-4.19-5.24l2.27-1.7c1.3,1.74,2.67,3.46,4.08,5.1Zm159.54,0-2.15-1.84c1.4-1.65,2.78-3.37,4.08-5.11l2.27,1.7C187.44,169.22,186,171,184.58,172.68ZM17,162c-1.22-1.87-2.39-3.79-3.49-5.73l2.47-1.4c1.06,1.89,2.21,3.76,3.39,5.58Zm175.63-.06-2.38-1.55c1.19-1.82,2.33-3.7,3.4-5.59l2.46,1.4C195,158.12,193.85,160.05,192.63,161.92ZM10.4,150.31c-1-2-1.89-4.07-2.73-6.13l2.63-1.07c.81,2,1.71,4,2.65,6Zm188.83-.09L196.68,149c.94-2,1.83-4,2.65-6l2.62,1.06C201.12,146.14,200.2,148.21,199.23,150.22ZM5.35,137.88c-.71-2.12-1.35-4.28-1.92-6.44l2.74-.72c.55,2.1,1.18,4.2,1.87,6.26Zm198.93-.12-2.69-.9c.68-2.05,1.3-4.16,1.85-6.26l2.74.72C205.62,133.47,205,135.64,204.28,137.76ZM1.94,124.89c-.43-2.19-.79-4.42-1.08-6.63l2.82-.36c.27,2.15.62,4.32,1,6.45Zm205.73-.12-2.78-.54c.41-2.13.76-4.3,1-6.45l2.82.36C208.45,120.35,208.1,122.58,207.67,124.77ZM.22,111.58C.08,109.36,0,107.1,0,104.87H2.83c0,2.18.08,4.38.22,6.54Zm209.15-.13-2.83-.18c.14-2.16.21-4.35.21-6.53v-.24h2.83v.24C209.58,107,209.51,109.23,209.37,111.45ZM3,98.33.2,98.16c.14-2.23.35-4.48.63-6.69l2.82.36C3.37,94,3.17,96.16,3,98.33ZM206.53,98c-.14-2.17-.36-4.35-.64-6.5l2.81-.37c.29,2.21.51,4.46.66,6.69ZM4.67,85.38l-2.78-.54c.42-2.19.92-4.39,1.48-6.55L6.11,79C5.57,81.1,5.08,83.24,4.67,85.38ZM204.84,85c-.41-2.13-.9-4.27-1.46-6.37l2.74-.72c.57,2.16,1.08,4.36,1.5,6.55ZM8,72.74l-2.69-.89c.7-2.12,1.48-4.25,2.31-6.32l2.63,1.06C9.4,68.61,8.64,70.67,8,72.74Zm193.55-.35c-.69-2.06-1.45-4.12-2.27-6.12l2.63-1.07c.84,2.06,1.62,4.18,2.33,6.3ZM12.86,60.61,10.3,59.38c1-2,2-4,3.11-6l2.47,1.39C14.81,56.7,13.8,58.65,12.86,60.61Zm183.72-.3c-.94-2-2-3.89-3-5.78l2.46-1.4c1.1,1.94,2.15,3.94,3.12,5.94ZM19.27,49.22l-2.38-1.55c1.22-1.87,2.51-3.72,3.85-5.51L23,43.85C21.71,45.59,20.45,47.4,19.27,49.22ZM190.15,49c-1.19-1.81-2.45-3.61-3.75-5.35l2.26-1.7c1.34,1.78,2.64,3.63,3.86,5.49ZM27.08,38.74,24.92,36.9c1.45-1.69,3-3.37,4.51-5l2,2C30,35.46,28.49,37.09,27.08,38.74Zm155.23-.23c-1.41-1.64-2.89-3.27-4.4-4.83l2-2c1.55,1.6,3.08,3.27,4.52,5ZM36.16,29.35l-1.91-2.1c1.65-1.5,3.37-3,5.11-4.36l1.77,2.21C39.44,26.45,37.77,27.88,36.16,29.35Zm137.05-.2c-1.62-1.46-3.29-2.89-5-4.24L170,22.7c1.74,1.38,3.46,2.85,5.12,4.34Zm-126.86-8-1.62-2.32c1.83-1.28,3.72-2.51,5.62-3.67l1.47,2.42C50,18.74,48.13,19.94,46.35,21.18ZM163,21c-1.78-1.24-3.63-2.44-5.49-3.56L159,15c1.91,1.16,3.81,2.39,5.64,3.66ZM57.5,14.39l-1.32-2.51c2-1,4-2,6-2.92l1.15,2.59C61.4,12.43,59.42,13.39,57.5,14.39Zm94.29-.15c-1.93-1-3.91-2-5.89-2.83L147,8.82c2,.9,4.08,1.88,6.06,2.91ZM69.42,9.09l-1-2.66c2.09-.77,4.23-1.49,6.37-2.12L75.61,7C73.53,7.64,71.45,8.34,69.42,9.09ZM139.83,9c-2-.75-4.12-1.44-6.21-2.05l.8-2.72c2.14.63,4.29,1.34,6.38,2.1ZM81.93,5.36,81.3,2.6c2.17-.5,4.39-.93,6.59-1.29l.45,2.8C86.2,4.45,84.05,4.88,81.93,5.36Zm45.37-.08c-2.12-.48-4.28-.89-6.42-1.23l.45-2.8c2.2.35,4.42.77,6.59,1.26Zm-32.48-2L94.55.45C96.77.23,99,.08,101.25,0l.09,2.83C99.17,2.92,97,3.06,94.82,3.27Zm19.58,0c-2.15-.2-4.35-.33-6.52-.4L108,0c2.24.07,4.49.2,6.71.41Z"/><path class="cls-1" d="M99.84,75c4.85,0,9.71,0,14.56,0-4.85,0-9.71,0-14.56,0-3.21,0-6.42,0-9.63,0C93.42,75,96.63,75,99.84,75Z"/><path class="cls-1" d="M59.65,105.1c0-10.9,0-21.79,0-32.68,0,10.89,0,21.78,0,32.68q0,15.45,0,30.91Q59.63,120.55,59.65,105.1Z"/><path class="cls-1" d="M87.22,125.18h2.46c1.64,0,3.28,0,4.92,0-1.64,0-3.28,0-4.92,0Z"/><path class="cls-1" d="M94.44,145.2c-6.23,0-12.46,0-18.69,0-4.35,0-5.93-1.64-6-6,0-.39,0-.79,0-1.18q0-32.91,0-65.82A27.8,27.8,0,0,1,70,68.92a4.22,4.22,0,0,1,3.81-3.69C75.17,65.1,76.58,65,78,65q20.69,0,41.36,0c1.84,0,3.69,0,5.52.18,3.33.24,4.81,1.77,4.83,5.09.07,12.07.09,24.14.14,36.2a13.44,13.44,0,0,0,.11,2.11,5,5,0,0,0,5.82,4c2.66-.57,4.12-2.47,4.12-5.47q0-16.74,0-33.5c0-2-.1-3.91-.3-5.85A14.17,14.17,0,0,0,127.7,55.37a42.41,42.41,0,0,0-5.85-.43q-20-.06-40.07,0c-2.7,0-5.4.08-8.1.21a14.27,14.27,0,0,0-13.59,11.8,31.51,31.51,0,0,0-.42,5.49c0,10.89,0,21.78,0,32.68q0,15.45,0,30.91c0,2,.09,4.07.24,6.1.48,6.67,6.23,12.59,12.92,12.87,7.43.3,14.88.26,22.32.26a4.92,4.92,0,0,0,4.54-5.91A5.05,5.05,0,0,0,94.44,145.2Z"/><path class="cls-1" d="M141.26,126.72c-4,4-8,8-12,12-1.44,1.44-2.86,2.89-4.39,4.45-2.2-2.23-4.28-4.41-6.44-6.51a5,5,0,0,0-7.16,0,4.94,4.94,0,0,0,.12,7.15q4,4.11,8.14,8.14a7.35,7.35,0,0,0,10.56.13c6.21-6.09,12.33-12.27,18.46-18.44a4.69,4.69,0,0,0,1.24-4.76A5,5,0,0,0,141.26,126.72Z"/><path class="cls-1" d="M84.78,105.15q15,0,30,0a5,5,0,1,0-.11-10.06c-4.93,0-9.87,0-14.8,0s-9.94,0-14.91,0a5,5,0,0,0-5.25,5A5.1,5.1,0,0,0,84.78,105.15Z"/><path class="cls-1" d="M85.35,85.07q14.39,0,28.77,0a11.3,11.3,0,0,0,1.64-.11,5,5,0,0,0,4-4.55c.15-3.17-2-5.38-5.41-5.4-4.85,0-9.71,0-14.56,0-3.21,0-6.42,0-9.63,0-2.07,0-4.15-.07-6.21.11a4.88,4.88,0,0,0-4.19,5.94C80.4,83.67,82.31,85.07,85.35,85.07Z"/><path class="cls-1" d="M94.88,115.13c-3.43-.08-6.88-.09-10.31,0a5,5,0,0,0,.18,10h4.93c1.64,0,3.28,0,4.92,0a5,5,0,1,0,.28-10Z"/></g></g></svg>