<svg xmlns="http://www.w3.org/2000/svg" viewBox="0 0 195.01 180.74"><defs><style>.cls-1{fill:#00a651;}.cls-2{fill:#fff200;}</style></defs><title>techtu</title><g id="Layer_2" data-name="Layer 2"><g id="Layer_1-2" data-name="Layer 1"><path class="cls-1" d="M85.41,103.51c-.63,2.09.18,3.16,1.6,4.22,3.11,2.32,6.14,4.78,9.09,7.31,1.13,1,1.83.88,2.92,0,3-2.56,6.15-5,9.24-7.46,1.82-1.45,1.82-1.45,1.3-4Q97.52,111.54,85.41,103.51Z"/><path class="cls-1" d="M64.71,146.06c0-8.89,0-17.78,0-26.68,0-1.6-.36-1.77-1.83-1.22Q49.52,123.19,36,128a2.71,2.71,0,0,0-2.13,3c.06,6.7.07,13.41,0,20.11,0,1.41.49,1.7,1.77,1.67,3-.08,6,0,9,0,4.48,0,4.48,0,4.48-4.43,0-3.9,0-7.8,0-11.7a3.16,3.16,0,0,1,3.15-3.35c1.7,0,2.91,1.22,3.1,3.18a20,20,0,0,1,0,2c0,11.35,0,22.71,0,34.06,0,1.46.26,2.13,1.89,2a35.12,35.12,0,0,1,5.33,0c1.56.11,2.09-.31,2.07-2C64.66,163.71,64.71,154.89,64.71,146.06Z"/><path class="cls-2" d="M67.22,57a12.46,12.46,0,0,0,3-.07,30.56,30.56,0,0,0,8.93-2.86,40.87,40.87,0,0,1,18.43-4c6.65-.27,13,1.54,19.17,4.39A24.67,24.67,0,0,0,126,57.1c3.75.17,4.74-.82,4.43-4.51-.34-4-1.94-7.63-3.68-11.2a2.56,2.56,0,0,0-1.34-1.17,68.2,68.2,0,0,0-21.57-6.49c-12-1.39-23.38,1.35-34.21,6.5-.42.2-1,.43-1.14.8-2,4.1-4,8.25-4,13A2.77,2.77,0,0,0,67.22,57Z"/><path class="cls-2" d="M70.37,32.91c.64-.23,1.26-.5,1.9-.74a69.73,69.73,0,0,1,25.65-5.06,69.69,69.69,0,0,1,26,5.5c1.22.49,1.64.51,1.62-1-.07-5.05,0-10.11,0-15.16a10.36,10.36,0,0,0-10.2-10.24q-17.73-.12-35.45,0c-5.11,0-9.77,4-10.08,9-.36,5.9-.09,11.84-.09,17.8A3.44,3.44,0,0,0,70.37,32.91Z"/><path class="cls-1" d="M161.15,130.91a2.59,2.59,0,0,0-2-2.85c-5.85-2.06-11.65-4.26-17.47-6.4-3.7-1.36-7.4-2.69-11.34-4.12v51.89c0,1.29,0,2.59,0,3.89,0,.89.28,1.21,1.17,1.19a59,59,0,0,1,6,0c1.72.13,2.16-.44,2.15-2.15-.07-11.41,0-22.82,0-34.23a13,13,0,0,1,.22-2.64,2.71,2.71,0,0,1,2.61-2.22,2.93,2.93,0,0,1,3.13,1.83,5.37,5.37,0,0,1,.35,2.41c0,4.51,0,9,0,13.53,0,1.13.12,1.74,1.51,1.71,4.1-.1,8.21-.08,12.31,0,1.21,0,1.47-.43,1.46-1.55Q161.09,141.07,161.15,130.91Z"/><path class="cls-1" d="M124.17,153.66c-.07-6.82-4.12-10.78-10.93-10.79H81.84c-6.82,0-10.9,4-11,10.76,0,6.36,0,12.72,0,19.08,0,1.46.42,1.82,1.84,1.81,8.28-.06,16.55,0,24.83,0s16.55,0,24.83,0c1.36,0,1.9-.27,1.88-1.78C124.13,166.38,124.23,160,124.17,153.66Z"/><path d="M161.72,122.4q-11.31-4.19-22.66-8.3a3.07,3.07,0,0,1-2.17-2.38,32.18,32.18,0,0,1,.28-15.81c1.5-6.24,4.19-12.12,5.67-18.37,1.72-7.26.39-13.45-6.24-17.75a1.36,1.36,0,0,1-.6-2,12.84,12.84,0,0,0,.66-6.25,37.1,37.1,0,0,0-4-12.2,9.71,9.71,0,0,1-1-4.51c0-6.43.13-12.87-.09-19.29A16.26,16.26,0,0,0,115.71.07Q97.54-.06,79.38.07A16.31,16.31,0,0,0,63.47,15.51c-.21,5.54-.18,11.08-.07,16.62a17.1,17.1,0,0,1-1.87,9.06,28.76,28.76,0,0,0-2.15,5.73C58.32,50.42,57.64,54,59,57.56c.47,1.26.16,1.77-.84,2.44-5.55,3.74-7.4,9-6.33,15.49,1,6,3.51,11.47,5.21,17.22,1.84,6.25,2.81,12.51,1.15,19a3.1,3.1,0,0,1-2.13,2.43c-7.44,2.68-14.86,5.44-22.29,8.16-4.47,1.64-6,3.78-6,8.6,0,12.58.2,25.17-.09,37.75a11.65,11.65,0,0,0,12.17,12.12c19.21-.25,38.44-.09,57.66-.09q29.44,0,58.9,0a10.69,10.69,0,0,0,10.87-10.95q0-19.69,0-39.4C167.28,126.18,165.6,123.83,161.72,122.4Zm-92-107.19c.31-5,5-9,10.08-9q17.72-.11,35.45,0a10.36,10.36,0,0,1,10.2,10.24c.06,5.05,0,10.11,0,15.16,0,1.51-.4,1.49-1.62,1a69.69,69.69,0,0,0-26-5.5,69.73,69.73,0,0,0-25.65,5.06c-.64.24-1.26.51-1.9.74a3.44,3.44,0,0,1-.73.1C69.64,27.05,69.37,21.11,69.73,15.21ZM68.5,41c.18-.37.72-.6,1.14-.8,10.83-5.15,22.16-7.89,34.21-6.5a68.2,68.2,0,0,1,21.57,6.49,2.56,2.56,0,0,1,1.34,1.17c1.74,3.57,3.34,7.19,3.68,11.2.31,3.69-.68,4.68-4.43,4.51a24.67,24.67,0,0,1-9.21-2.57c-6.15-2.85-12.52-4.66-19.17-4.39a40.87,40.87,0,0,0-18.43,4A30.56,30.56,0,0,1,70.27,57a12.46,12.46,0,0,1-3,.07,2.77,2.77,0,0,1-2.69-3C64.54,49.28,66.45,45.13,68.5,41Zm40.25,55.16a16.37,16.37,0,0,1-11.19,5.12A16.69,16.69,0,0,1,86.5,96.37c-6-5.58-9.61-12.69-12.7-20.12a101.07,101.07,0,0,1-4-11.61c-.17-.63-.66-1.33.59-1.42,4.44-.34,8.43-2.16,12.44-3.87a36.2,36.2,0,0,1,29.44,0c4,1.68,7.89,3.44,12.25,3.83.68.06,1,.23.79,1C121.78,75.88,117.76,87.34,108.75,96.19Zm-.49,11.35C105.17,110,102,112.44,99,115c-1.09.92-1.79,1-2.92,0-2.95-2.53-6-5-9.09-7.31-1.42-1.06-2.23-2.13-1.6-4.22q12.09,8,24.15,0C110.08,106.09,110.08,106.09,108.26,107.54Zm-60.7,67c-2.86-.08-5.73,0-8.59,0s-4.87-1.81-5-4.62c-.15-3.27,0-6.55-.07-9.82,0-.9.34-1.18,1.2-1.17,4.3,0,8.59,0,12.89,0,1.1,0,1.19.55,1.18,1.4,0,2.18,0,4.36,0,6.54s-.07,4.1,0,6.14C49.27,174.24,48.78,174.55,47.56,174.52Zm15.12,0a35.12,35.12,0,0,0-5.33,0c-1.63.14-1.9-.53-1.89-2,0-11.35,0-22.71,0-34.06a20,20,0,0,0,0-2c-.19-2-1.4-3.17-3.1-3.18a3.16,3.16,0,0,0-3.15,3.35c-.07,3.9,0,7.8,0,11.7,0,4.43,0,4.43-4.48,4.43-3,0-6,0-9,0-1.28,0-1.78-.26-1.77-1.67.08-6.7.07-13.41,0-20.11A2.71,2.71,0,0,1,36,128q13.49-4.82,26.88-9.86c1.47-.55,1.84-.38,1.83,1.22-.06,8.9,0,17.79,0,26.68s0,17.65,0,26.48C64.77,174.21,64.24,174.63,62.68,174.52Zm3.59-64.25c-.77.29-1.39.4-1.23-.74C66.46,99.29,62.77,90,59.61,80.65a42.17,42.17,0,0,1-1.77-6.93A8.33,8.33,0,0,1,61.79,65c1.1-.7,1.49-.63,1.88.74A99.15,99.15,0,0,0,73.3,89.52a38.41,38.41,0,0,0,3.51,5.28c1.72,2,2.86,4.12,2.25,6.36,0,4.43,0,4.43-3.76,5.82C72.29,108.08,69.28,109.16,66.27,110.27Zm4.56,6.8a2.17,2.17,0,0,1,1.75-2.49c2.52-.83,5-1.75,7.49-2.73a2.4,2.4,0,0,1,2.75.43c4,3.32,8.08,6.54,12.14,9.78,2,1.57,3.14,1.59,5.1,0,4.07-3.23,8.14-6.46,12.14-9.77a2.5,2.5,0,0,1,2.92-.46c2.52,1,5.11,1.91,7.68,2.83.81.29,1.41.59,1.41,1.68,0,7.72,0,15.44,0,23.7-4.35-3.39-9-3.43-13.79-3.38-9,.09-18.06.11-27.08,0-4.34-.06-8.45.41-12,3.06-.69-.46-.41-1.06-.41-1.55C70.86,131.16,70.92,124.12,70.83,117.07Zm51.51,57.45c-8.28-.06-16.55,0-24.83,0s-16.55,0-24.83,0c-1.42,0-1.86-.35-1.84-1.81.08-6.36,0-12.72,0-19.08.06-6.79,4.14-10.75,11-10.76h31.4c6.81,0,10.86,4,10.93,10.79.06,6.36,0,12.72,0,19.08C124.24,174.25,123.7,174.53,122.34,174.52Zm6.07-64.4c-3.29-1.32-6.61-2.57-10-3.62-1.85-.58-2.81-1.4-2.44-3.42a14.31,14.31,0,0,0,0-2.13c-.5-2.07.59-4,2.12-6,6.45-8.51,10.09-18.36,13.06-28.49.73-2.48.87-2.52,2.92-.92a8.21,8.21,0,0,1,3.11,8.37c-.85,5.22-2.94,10.07-4.54,15.06-2.08,6.49-3.53,13-2.66,19.92C130.18,110.33,129.93,110.73,128.41,110.12Zm32.69,59.42c-.09,3.06-2,4.89-5.1,4.94-2.86.05-5.73-.06-8.59,0-1.35,0-1.59-.5-1.55-1.67.08-2,0-4.09,0-6.14s0-4.36,0-6.54c0-1,.28-1.32,1.28-1.31q6.33.06,12.68,0c.94,0,1.33.26,1.32,1.27C161.1,163.26,161.2,166.4,161.1,169.54Zm-1.41-16.78c-4.1-.07-8.21-.09-12.31,0-1.39,0-1.52-.58-1.51-1.71,0-4.51,0-9,0-13.53a5.37,5.37,0,0,0-.35-2.41,2.93,2.93,0,0,0-3.13-1.83,2.71,2.71,0,0,0-2.61,2.22,13,13,0,0,0-.22,2.64c0,11.41,0,22.82,0,34.23,0,1.71-.43,2.28-2.15,2.15a59,59,0,0,0-6,0c-.89,0-1.21-.3-1.17-1.19,0-1.3,0-2.6,0-3.89V117.54c3.94,1.43,7.64,2.76,11.34,4.12,5.82,2.14,11.62,4.34,17.47,6.4a2.59,2.59,0,0,1,2,2.85q-.06,10.16,0,20.3C161.16,152.33,160.9,152.78,159.69,152.76Z"/><path d="M42.72,112.61c5.68-2.19,8.32-7.89,6.61-14.3Q43.62,77,37.87,55.65a2.85,2.85,0,0,1,.61-2.95,20.77,20.77,0,0,0,5-13.57A21.55,21.55,0,0,0,26,17.61c-3.14-.64-4.91,1.19-4.11,4.28Q23.19,27,24.58,32.17c.13.53.45,1,.21,1.59-.77,1.82-1.56,3.63-2.33,5.46-.17.41-.46.86-.87.47-2.06-1.94-5.28-2.65-5.93-6.1-.59-3.07-1.56-6.07-2.4-9.09-.95-3.44-3.41-4.12-6.09-1.72A21.67,21.67,0,0,0,13.91,59.1a3.41,3.41,0,0,1,2.37,2.64c1.59,6.21,3.28,12.39,4.93,18.58,2.19,8.17,4.34,16.34,6.58,24.49A11.17,11.17,0,0,0,42.72,112.61ZM17.83,53.82A15.4,15.4,0,0,1,7.61,32.58a1.71,1.71,0,0,1,1-1.17c.54,2,1.1,3.92,1.58,5.88a5.74,5.74,0,0,0,2.34,3.46c2.83,2,5.58,4.19,8.39,6.25,2.51,1.85,4.37,1.32,5.64-1.57,1.34-3.06,2.59-6.17,4-9.19a6.31,6.31,0,0,0,.3-4.93c-.6-1.8-1-3.66-1.61-5.91a14.81,14.81,0,0,1,7.51,9.81,14.79,14.79,0,0,1-4.15,14.66A4.73,4.73,0,0,0,31.23,55q6.07,22.29,12,44.64a7.17,7.17,0,0,1,.45,3.22,5.18,5.18,0,0,1-4.6,4.3,4.91,4.91,0,0,1-5.14-3.57C32.62,99,31.43,94.39,30.2,89.78,27.31,79,24.39,68.18,21.56,57.36A4.58,4.58,0,0,0,17.83,53.82Z"/><path d="M187.7,22.63c-2.52-2.2-4.93-1.51-5.85,1.71a73.46,73.46,0,0,0-2.07,7.9,8.31,8.31,0,0,1-4,5.83c-2.88,1.93-2.65,2-4.22-1.12a8.69,8.69,0,0,1-.52-7.2c.88-2.64,1.55-5.37,2.23-8.08s-1.15-4.68-4-4.11a21.67,21.67,0,0,0-12.65,35.15,2.9,2.9,0,0,1,.59,3c-3.94,14.61-7.9,29.21-11.68,43.86a11.19,11.19,0,0,0,21.75,5.25q5.8-21.42,11.49-42.86a3.58,3.58,0,0,1,2.43-2.83C196.29,53.38,199.86,33.25,187.7,22.63ZM177.54,53.76a5.23,5.23,0,0,0-4.2,4.31c-3.85,14.71-7.84,29.39-11.78,44.07a17.23,17.23,0,0,1-.53,1.77,5,5,0,0,1-6,3.06,4.88,4.88,0,0,1-3.52-6q5-19.09,10.17-38.16c.66-2.5,1.22-5.05,2-7.5a4.8,4.8,0,0,0-1.42-5.49,15.37,15.37,0,0,1,1.47-23.11,3.65,3.65,0,0,1,1.91-1c-.58,2.24-1.07,4.43-1.72,6.56a4.54,4.54,0,0,0,.25,3.36c1.45,3.31,2.84,6.65,4.29,10,1.23,2.82,3.16,3.31,5.69,1.45s4.73-3.73,7.24-5.39a8,8,0,0,0,3.75-5.55c.28-1.53.78-3,1.29-4.88C192,39.36,187.14,51.22,177.54,53.76Z"/></g></g></svg>