<svg xmlns="http://www.w3.org/2000/svg" viewBox="0 0 139.79 170.67"><defs><style>.cls-1{fill:#fff200;}.cls-2{fill:#00a651;}</style></defs><title>technician</title><g id="Layer_2" data-name="Layer 2"><g id="Layer_1-2" data-name="Layer 1"><path class="cls-1" d="M45.86,53.94a62.85,62.85,0,0,0,10.69-2.4,46.08,46.08,0,0,1,26.55,0,55.91,55.91,0,0,0,12,2.45A6.39,6.39,0,0,0,101.29,49c.2-.78-.19-1-.76-1.17-2-.72-3.92-1.53-5.92-2.19a79.15,79.15,0,0,0-37.43-3.33,68.79,68.79,0,0,0-18,5.28c-.48.22-1,.3-.81,1.15A6.5,6.5,0,0,0,45.86,53.94Z"/><path class="cls-1" d="M38.59,42.8C56.35,35.31,74.43,35,92.8,40.24c3.29.94,6.47,2.22,9.8,3.38.53-5.83.85-11.53-.24-17.2-2-10.09-7.64-16.92-17.65-19.82a54.61,54.61,0,0,0-27.17-.71C46.55,8.27,39.7,15,37.44,26.16c-1.09,5.33-.88,10.71-.4,16.09C37.17,43.69,37.9,43.1,38.59,42.8Z"/><path class="cls-2" d="M56,97.74q6.55,8.17,13,16.45c.82,1.06,1.17.81,1.86-.09,3.92-5.1,7.82-10.2,11.89-15.19a5.89,5.89,0,0,0,1.48-5.28,46.81,46.81,0,0,1-28.86-.12C55.49,94.91,54.89,96.37,56,97.74Z"/><path class="cls-1" d="M100.31,58.53a2.18,2.18,0,0,0,2.34,1.92A2.11,2.11,0,0,0,105,58.39c.1-1.81,0-3.62,0-5.42a16.15,16.15,0,0,1-4.11,4A1.28,1.28,0,0,0,100.31,58.53Z"/><path class="cls-1" d="M39.1,57.12a16,16,0,0,1-4.42-4.35c0,1.71-.07,3.42,0,5.12.11,1.94,1.61,3,3.27,2.46a2.5,2.5,0,0,0,1.6-2A1,1,0,0,0,39.1,57.12Z"/><path class="cls-2" d="M110.69,130.47c0-7.11,0-14.22,0-21.33A1.82,1.82,0,0,0,109.2,107a44.39,44.39,0,0,1-5-1.73c-1.33-.56-1.55-.17-1.55,1.13.05,8.23,0,16.45,0,24.67,0,3.18-.56,3.74-3.81,3.74H41c-3.34,0-4-.63-4-4,0-8.22,0-16.44,0-24.66,0-1.17-.24-1.47-1.4-1-1.74.71-3.53,1.31-5.33,1.87a1.54,1.54,0,0,0-1.28,1.78c.08,1.83,0,3.66,0,5.49,0,5.56,0,11.11,0,16.67,0,1.62-.47,2.77-2.31,3.07a6,6,0,0,0-3.39,2,8.85,8.85,0,0,0-2.09,6.32c0,7.28,0,14.55,0,21.83,0,1.44.32,1.85,1.81,1.84,15.61-.06,31.22,0,46.83,0H93.07c8,0,16,0,24,0,1.15,0,1.58-.31,1.51-1.49-.09-1.49,0-3,0-4.5-.11-6.49.25-13-.2-19.48a7.05,7.05,0,0,0-5-6.42C111,133.35,110.69,133,110.69,130.47Zm-74,12.95c-2.82,0-5.66-.06-8.48,0-1.28,0-1.62-.39-1.56-1.61.13-3-.44-2.64,2.62-2.68,1.28,0,2.56,0,3.83,0,1.67,0,3.33.05,5,0,1.12-.05,1.44.36,1.41,1.44C39.45,144,39.85,143.38,36.73,143.42Zm73.56,0h-3.66c-1.67,0-3.34-.06-5,0-1,0-1.31-.32-1.31-1.33,0-3-.06-3,2.84-3s5.67,0,8.5,0c1.1,0,1.4.34,1.4,1.42C113,143.43,113.09,143.43,110.29,143.43Z"/><path d="M136.64,143.86c-.88-6.36-1.39-12.79-3.33-19-1.61-5.1-3.43-10.13-7.3-14-3.72-3.75-8.59-5.65-13.39-7.5a211.78,211.78,0,0,0-22.27-7.22c-.46-.12-1,0-1.3-.6-.67-1.31.18-5.1,1.37-6A26,26,0,0,0,96.11,83c3.25-5.1,4.3-10.75,4.16-16.69,0-1,0-1.5,1.32-1.29a6.86,6.86,0,0,0,8.1-6.18,44.41,44.41,0,0,0,0-7.65,6.54,6.54,0,0,0-2.11-4.56,1.65,1.65,0,0,1-.55-1.62A62.53,62.53,0,0,0,107.29,27c-1-6.83-3.59-12.9-8.64-17.76S87.13,1.91,80.23.66C78.71.38,77.12.62,75.66,0H64c-.51.48-1.16.3-1.75.36C55.53,1.07,49.19,2.91,43.72,7,35.86,13,32.7,21.27,32.08,30.73a55.62,55.62,0,0,0,.55,13.45,3,3,0,0,1-.89,3A5.76,5.76,0,0,0,30,51.37c0,2.39-.08,4.78,0,7.17a7.2,7.2,0,0,0,7.1,6.8c.82,0,1.86-.91,2.39,0,.39.67.11,1.73.12,2.62,0,.39,0,.78,0,1.16A26.21,26.21,0,0,0,49.5,89.58a2.62,2.62,0,0,1,1.19,2.51,7.44,7.44,0,0,0,0,2c.23,1.43-.4,2-1.75,2.31a181.41,181.41,0,0,0-27.52,9.29,23.25,23.25,0,0,0-12.3,11.8C6,124.25,4.59,131.36,3.67,138.64Q2,151.84.2,165c-.4,3-.48,2.92,2.48,3.29,1.3.15,2.13.06,2.06-1.58a17.77,17.77,0,0,1,.38-3C6.3,154.87,7.5,146,8.63,137.06a59,59,0,0,1,5-18.18c2.21-4.64,5.92-7.43,10.75-9.26,0,6.62,0,13,0,19.49,0,.73-.44.92-.94,1.18a11.71,11.71,0,0,0-6.76,11c-.12,8.77-.06,17.55-.07,26.33,0,2.33.74,3,3.1,3H120.05c2.33,0,3.17-.77,3.18-3,0-8.39.06-16.78,0-25.17,0-5.41-2-9.88-7.2-12.3-.86-.4-.68-1-.68-1.66q0-8.67,0-17.33c0-.47,0-.93.08-1.5,4.23,1.8,7.81,4,10,8.13a51.45,51.45,0,0,1,5.3,17.22c1.49,10.82,2.89,21.66,4.33,32.48.05.37,0,1,.43,1,1.37,0,2.87.06,4-.63.63-.37.13-1.55,0-2.36Q138.09,154.66,136.64,143.86ZM105,53c0,1.8.08,3.61,0,5.42a2.11,2.11,0,0,1-2.36,2.06,2.18,2.18,0,0,1-2.34-1.92,1.28,1.28,0,0,1,.61-1.54A16.15,16.15,0,0,0,105,53ZM37.44,26.16C39.7,15,46.55,8.27,57.54,5.89a54.61,54.61,0,0,1,27.17.71c10,2.9,15.7,9.73,17.65,19.82,1.09,5.67.77,11.37.24,17.2-3.33-1.16-6.51-2.44-9.8-3.38C74.43,35,56.35,35.31,38.59,42.8c-.69.3-1.42.89-1.55-.55C36.56,36.87,36.35,31.49,37.44,26.16Zm2.13,32.23a2.5,2.5,0,0,1-1.6,2c-1.66.56-3.16-.52-3.27-2.46-.09-1.7,0-3.41,0-5.12a16,16,0,0,0,4.42,4.35A1,1,0,0,1,39.57,58.39Zm-1.16-9.61c-.21-.85.33-.93.81-1.15a68.79,68.79,0,0,1,18-5.28,79.15,79.15,0,0,1,37.43,3.33c2,.66,3.94,1.47,5.92,2.19.57.21,1,.39.76,1.17A6.39,6.39,0,0,1,95.14,54a55.91,55.91,0,0,1-12-2.45,46.08,46.08,0,0,0-26.55,0,62.85,62.85,0,0,1-10.69,2.4A6.5,6.5,0,0,1,38.41,48.78Zm5.9,20.29c0-3,0-6,0-9,0-1,.11-1.47,1.29-1.53,5.19-.25,10.07-2,15.05-3.3A39.73,39.73,0,0,1,82,56a58.7,58.7,0,0,0,12.49,2.62c.87.06,1.14.37,1.12,1.21,0,1.94,0,3.89,0,6.52A23.71,23.71,0,0,1,92.11,80.6C87.79,87.21,81.67,90.75,73.8,91c-4.19.11-8.43.43-12.59-.61A22.24,22.24,0,0,1,44.31,69.07Zm11,24.44a46.81,46.81,0,0,0,28.86.12,5.89,5.89,0,0,1-1.48,5.28c-4.07,5-8,10.09-11.89,15.19-.69.9-1,1.15-1.86.09q-6.4-8.28-13-16.45C54.89,96.37,55.49,94.91,55.34,93.51Zm-13.59,11A1.38,1.38,0,0,1,43,102.89c2.63-.67,5.24-1.43,7.82-2.24a1.71,1.71,0,0,1,2.21.7c5.3,6.78,10.66,13.51,16,20.25.27.35.56.67,1,1.14l8.56-10.92c2.77-3.54,5.55-7.07,8.29-10.63a1.39,1.39,0,0,1,1.79-.61c2.74.86,5.52,1.63,8.3,2.36A1.28,1.28,0,0,1,98,104.43q0,12.24,0,24.49c0,1-.36,1.2-1.26,1.19q-26.82,0-53.65,0c-1.16,0-1.38-.43-1.38-1.46Q41.8,116.59,41.75,104.51Zm76.61,36c.45,6.49.09,13,.2,19.48,0,1.5-.07,3,0,4.5.07,1.18-.36,1.5-1.51,1.49-8,0-16,0-24,0H69.91c-15.61,0-31.22,0-46.83,0-1.49,0-1.83-.4-1.81-1.84.07-7.28,0-14.55,0-21.83A8.85,8.85,0,0,1,23.4,136a6,6,0,0,1,3.39-2c1.84-.3,2.32-1.45,2.31-3.07,0-5.56,0-11.11,0-16.67,0-1.83.06-3.66,0-5.49a1.54,1.54,0,0,1,1.28-1.78c1.8-.56,3.59-1.16,5.33-1.87,1.16-.47,1.4-.17,1.4,1,0,8.22,0,16.44,0,24.66,0,3.37.62,4,4,4H98.85c3.25,0,3.81-.56,3.81-3.74,0-8.22,0-16.44,0-24.67,0-1.3.22-1.69,1.55-1.13a44.39,44.39,0,0,0,5,1.73,1.82,1.82,0,0,1,1.52,2.11c-.07,7.11,0,14.22,0,21.33,0,2.54.26,2.88,2.68,3.65A7.05,7.05,0,0,1,118.36,140.54Z"/><path class="cls-1" d="M38.13,139.15c-1.66.07-3.32,0-5,0-1.27,0-2.55,0-3.83,0-3.06,0-2.49-.37-2.62,2.68-.06,1.22.28,1.65,1.56,1.61,2.82-.1,5.66,0,8.48,0,3.12,0,2.72.61,2.81-2.83C39.57,139.51,39.25,139.1,38.13,139.15Z"/><path class="cls-1" d="M111.66,139.15c-2.83.06-5.67,0-8.5,0s-2.85,0-2.84,3c0,1,.28,1.37,1.31,1.33,1.66-.08,3.33,0,5,0h3.66c2.8,0,2.75,0,2.77-2.86C113.06,139.49,112.76,139.12,111.66,139.15Z"/></g></g></svg>